G04 #@! TF.GenerationSoftware,KiCad,Pcbnew,5.99.0-unknown-efbc802~86~ubuntu18.04.1*
G04 #@! TF.CreationDate,2019-09-12T13:39:22+03:00*
G04 #@! TF.ProjectId,USB-GIGABIT_Rev_C,5553422d-4749-4474-9142-49545f526576,rev?*
G04 #@! TF.SameCoordinates,Original*
G04 #@! TF.FileFunction,Legend,Top*
G04 #@! TF.FilePolarity,Positive*
%FSLAX46Y46*%
G04 Gerber Fmt 4.6, Leading zero omitted, Abs format (unit mm)*
G04 Created by KiCad (PCBNEW 5.99.0-unknown-efbc802~86~ubuntu18.04.1) date 2019-09-12 13:39:22*
%MOMM*%
%LPD*%
G04 APERTURE LIST*
%ADD10C,0.100000*%
%ADD11C,0.200000*%
%ADD12C,0.254000*%
%ADD13C,0.150000*%
%ADD14C,0.127000*%
%ADD15C,0.420000*%
%ADD16C,0.370000*%
%ADD17C,0.400000*%
%ADD18C,0.380000*%
%ADD19C,1.000000*%
%ADD20C,0.010000*%
%ADD21C,0.062500*%
%ADD22C,0.012700*%
%ADD23C,0.180000*%
G04 APERTURE END LIST*
D10*
X78333857Y-75203071D02*
X77724333Y-75431642D01*
X78333857Y-75660214D01*
X79057666Y-75698309D02*
X78981476Y-75736404D01*
X78829095Y-75736404D01*
X78752904Y-75698309D01*
X78714809Y-75660214D01*
X78676714Y-75584023D01*
X78676714Y-75355452D01*
X78714809Y-75279261D01*
X78752904Y-75241166D01*
X78829095Y-75203071D01*
X78981476Y-75203071D01*
X79057666Y-75241166D01*
X79400523Y-75203071D02*
X80010047Y-75431642D01*
X79400523Y-75660214D01*
X80352904Y-75012595D02*
X80391000Y-74974500D01*
X80467190Y-74936404D01*
X80657666Y-74936404D01*
X80733857Y-74974500D01*
X80771952Y-75012595D01*
X80810047Y-75088785D01*
X80810047Y-75164976D01*
X80771952Y-75279261D01*
X80314809Y-75736404D01*
X80810047Y-75736404D01*
X81305285Y-74936404D02*
X81381476Y-74936404D01*
X81457666Y-74974500D01*
X81495761Y-75012595D01*
X81533857Y-75088785D01*
X81571952Y-75241166D01*
X81571952Y-75431642D01*
X81533857Y-75584023D01*
X81495761Y-75660214D01*
X81457666Y-75698309D01*
X81381476Y-75736404D01*
X81305285Y-75736404D01*
X81229095Y-75698309D01*
X81191000Y-75660214D01*
X81152904Y-75584023D01*
X81114809Y-75431642D01*
X81114809Y-75241166D01*
X81152904Y-75088785D01*
X81191000Y-75012595D01*
X81229095Y-74974500D01*
X81305285Y-74936404D01*
X82333857Y-75736404D02*
X81876714Y-75736404D01*
X82105285Y-75736404D02*
X82105285Y-74936404D01*
X82029095Y-75050690D01*
X81952904Y-75126880D01*
X81876714Y-75164976D01*
X82714809Y-75736404D02*
X82867190Y-75736404D01*
X82943380Y-75698309D01*
X82981476Y-75660214D01*
X83057666Y-75545928D01*
X83095761Y-75393547D01*
X83095761Y-75088785D01*
X83057666Y-75012595D01*
X83019571Y-74974500D01*
X82943380Y-74936404D01*
X82791000Y-74936404D01*
X82714809Y-74974500D01*
X82676714Y-75012595D01*
X82638619Y-75088785D01*
X82638619Y-75279261D01*
X82676714Y-75355452D01*
X82714809Y-75393547D01*
X82791000Y-75431642D01*
X82943380Y-75431642D01*
X83019571Y-75393547D01*
X83057666Y-75355452D01*
X83095761Y-75279261D01*
D11*
X93091142Y-62491880D02*
X92757809Y-62015690D01*
X92519714Y-62491880D02*
X92519714Y-61491880D01*
X92900666Y-61491880D01*
X92995904Y-61539500D01*
X93043523Y-61587119D01*
X93091142Y-61682357D01*
X93091142Y-61825214D01*
X93043523Y-61920452D01*
X92995904Y-61968071D01*
X92900666Y-62015690D01*
X92519714Y-62015690D01*
X93662571Y-62491880D02*
X93567333Y-62444261D01*
X93519714Y-62396642D01*
X93472095Y-62301404D01*
X93472095Y-62015690D01*
X93519714Y-61920452D01*
X93567333Y-61872833D01*
X93662571Y-61825214D01*
X93805428Y-61825214D01*
X93900666Y-61872833D01*
X93948285Y-61920452D01*
X93995904Y-62015690D01*
X93995904Y-62301404D01*
X93948285Y-62396642D01*
X93900666Y-62444261D01*
X93805428Y-62491880D01*
X93662571Y-62491880D01*
X94424476Y-62491880D02*
X94424476Y-61491880D01*
X94424476Y-61968071D02*
X94995904Y-61968071D01*
X94995904Y-62491880D02*
X94995904Y-61491880D01*
X95424476Y-62444261D02*
X95567333Y-62491880D01*
X95805428Y-62491880D01*
X95900666Y-62444261D01*
X95948285Y-62396642D01*
X95995904Y-62301404D01*
X95995904Y-62206166D01*
X95948285Y-62110928D01*
X95900666Y-62063309D01*
X95805428Y-62015690D01*
X95614952Y-61968071D01*
X95519714Y-61920452D01*
X95472095Y-61872833D01*
X95424476Y-61777595D01*
X95424476Y-61682357D01*
X95472095Y-61587119D01*
X95519714Y-61539500D01*
X95614952Y-61491880D01*
X95853047Y-61491880D01*
X95995904Y-61539500D01*
X71898761Y-77176380D02*
X71898761Y-77985904D01*
X71946380Y-78081142D01*
X71994000Y-78128761D01*
X72089238Y-78176380D01*
X72279714Y-78176380D01*
X72374952Y-78128761D01*
X72422571Y-78081142D01*
X72470190Y-77985904D01*
X72470190Y-77176380D01*
X72898761Y-78128761D02*
X73041619Y-78176380D01*
X73279714Y-78176380D01*
X73374952Y-78128761D01*
X73422571Y-78081142D01*
X73470190Y-77985904D01*
X73470190Y-77890666D01*
X73422571Y-77795428D01*
X73374952Y-77747809D01*
X73279714Y-77700190D01*
X73089238Y-77652571D01*
X72994000Y-77604952D01*
X72946380Y-77557333D01*
X72898761Y-77462095D01*
X72898761Y-77366857D01*
X72946380Y-77271619D01*
X72994000Y-77224000D01*
X73089238Y-77176380D01*
X73327333Y-77176380D01*
X73470190Y-77224000D01*
X74232095Y-77652571D02*
X74374952Y-77700190D01*
X74422571Y-77747809D01*
X74470190Y-77843047D01*
X74470190Y-77985904D01*
X74422571Y-78081142D01*
X74374952Y-78128761D01*
X74279714Y-78176380D01*
X73898761Y-78176380D01*
X73898761Y-77176380D01*
X74232095Y-77176380D01*
X74327333Y-77224000D01*
X74374952Y-77271619D01*
X74422571Y-77366857D01*
X74422571Y-77462095D01*
X74374952Y-77557333D01*
X74327333Y-77604952D01*
X74232095Y-77652571D01*
X73898761Y-77652571D01*
X74898761Y-77795428D02*
X75660666Y-77795428D01*
X76660666Y-77224000D02*
X76565428Y-77176380D01*
X76422571Y-77176380D01*
X76279714Y-77224000D01*
X76184476Y-77319238D01*
X76136857Y-77414476D01*
X76089238Y-77604952D01*
X76089238Y-77747809D01*
X76136857Y-77938285D01*
X76184476Y-78033523D01*
X76279714Y-78128761D01*
X76422571Y-78176380D01*
X76517809Y-78176380D01*
X76660666Y-78128761D01*
X76708285Y-78081142D01*
X76708285Y-77747809D01*
X76517809Y-77747809D01*
X77136857Y-78176380D02*
X77136857Y-77176380D01*
X78136857Y-77224000D02*
X78041619Y-77176380D01*
X77898761Y-77176380D01*
X77755904Y-77224000D01*
X77660666Y-77319238D01*
X77613047Y-77414476D01*
X77565428Y-77604952D01*
X77565428Y-77747809D01*
X77613047Y-77938285D01*
X77660666Y-78033523D01*
X77755904Y-78128761D01*
X77898761Y-78176380D01*
X77994000Y-78176380D01*
X78136857Y-78128761D01*
X78184476Y-78081142D01*
X78184476Y-77747809D01*
X77994000Y-77747809D01*
X78565428Y-77890666D02*
X79041619Y-77890666D01*
X78470190Y-78176380D02*
X78803523Y-77176380D01*
X79136857Y-78176380D01*
X79803523Y-77652571D02*
X79946380Y-77700190D01*
X79994000Y-77747809D01*
X80041619Y-77843047D01*
X80041619Y-77985904D01*
X79994000Y-78081142D01*
X79946380Y-78128761D01*
X79851142Y-78176380D01*
X79470190Y-78176380D01*
X79470190Y-77176380D01*
X79803523Y-77176380D01*
X79898761Y-77224000D01*
X79946380Y-77271619D01*
X79994000Y-77366857D01*
X79994000Y-77462095D01*
X79946380Y-77557333D01*
X79898761Y-77604952D01*
X79803523Y-77652571D01*
X79470190Y-77652571D01*
X80470190Y-78176380D02*
X80470190Y-77176380D01*
X80803523Y-77176380D02*
X81374952Y-77176380D01*
X81089238Y-78176380D02*
X81089238Y-77176380D01*
X83041619Y-78176380D02*
X82708285Y-77700190D01*
X82470190Y-78176380D02*
X82470190Y-77176380D01*
X82851142Y-77176380D01*
X82946380Y-77224000D01*
X82994000Y-77271619D01*
X83041619Y-77366857D01*
X83041619Y-77509714D01*
X82994000Y-77604952D01*
X82946380Y-77652571D01*
X82851142Y-77700190D01*
X82470190Y-77700190D01*
X83851142Y-78128761D02*
X83755904Y-78176380D01*
X83565428Y-78176380D01*
X83470190Y-78128761D01*
X83422571Y-78033523D01*
X83422571Y-77652571D01*
X83470190Y-77557333D01*
X83565428Y-77509714D01*
X83755904Y-77509714D01*
X83851142Y-77557333D01*
X83898761Y-77652571D01*
X83898761Y-77747809D01*
X83422571Y-77843047D01*
X84232095Y-77509714D02*
X84470190Y-78176380D01*
X84708285Y-77509714D01*
X85089238Y-78081142D02*
X85136857Y-78128761D01*
X85089238Y-78176380D01*
X85041619Y-78128761D01*
X85089238Y-78081142D01*
X85089238Y-78176380D01*
X86136857Y-78081142D02*
X86089238Y-78128761D01*
X85946380Y-78176380D01*
X85851142Y-78176380D01*
X85708285Y-78128761D01*
X85613047Y-78033523D01*
X85565428Y-77938285D01*
X85517809Y-77747809D01*
X85517809Y-77604952D01*
X85565428Y-77414476D01*
X85613047Y-77319238D01*
X85708285Y-77224000D01*
X85851142Y-77176380D01*
X85946380Y-77176380D01*
X86089238Y-77224000D01*
X86136857Y-77271619D01*
D12*
X80502800Y-73402700D02*
X80502800Y-72894700D01*
X81010800Y-73402700D02*
X80502800Y-73402700D01*
X86497200Y-73402700D02*
X85989200Y-73402700D01*
X86497200Y-72894700D02*
X86497200Y-73402700D01*
X86497200Y-67408300D02*
X85989200Y-67408300D01*
X86497200Y-67916300D02*
X86497200Y-67408300D01*
X80885605Y-67611500D02*
G75*
G03X80885605Y-67611500I-179605J0D01*
G01*
X88823800Y-68783200D02*
X88569800Y-68783200D01*
X88823800Y-68783200D02*
X89077800Y-68783200D01*
X88823800Y-67894200D02*
X89077800Y-67894200D01*
X88823800Y-67894200D02*
X88569800Y-67894200D01*
D13*
X77327500Y-72403500D02*
X77327500Y-73165500D01*
X72755500Y-72403500D02*
X77327500Y-72403500D01*
X72755500Y-73165500D02*
X72755500Y-72403500D01*
X77327500Y-73165500D02*
X72755500Y-73165500D01*
X77276700Y-72454300D02*
X72857100Y-72454300D01*
X72806300Y-72555900D02*
X77276700Y-72555900D01*
X77276700Y-72708300D02*
X72857100Y-72708300D01*
X77276700Y-72860700D02*
X72857100Y-72860700D01*
X72806300Y-72606700D02*
X77225900Y-72606700D01*
X72806300Y-72759100D02*
X77276700Y-72759100D01*
X77225900Y-72962300D02*
X72857100Y-72962300D01*
X72806300Y-73063900D02*
X77225900Y-73063900D01*
D12*
X72961500Y-67627500D02*
X77152500Y-71818500D01*
X73088500Y-71691500D02*
X77152500Y-67754500D01*
X74104500Y-71310500D02*
X75501500Y-71310500D01*
X74104500Y-71310500D02*
X73850500Y-68262500D01*
X73596500Y-68135500D02*
X76517500Y-68135500D01*
X74612500Y-71691500D02*
X74612500Y-71437500D01*
X74104500Y-71691500D02*
X74612500Y-71691500D01*
X74104500Y-71310500D02*
X74104500Y-71691500D01*
X76009500Y-70802500D02*
X76136500Y-68770500D01*
X76411109Y-71310500D02*
G75*
G03X76411109Y-71310500I-401609J0D01*
G01*
X74231500Y-67500500D02*
X74231500Y-68008500D01*
X74104500Y-67500500D02*
X74231500Y-67500500D01*
X74104500Y-68008500D02*
X74104500Y-67500500D01*
X76517500Y-68643500D02*
X76517500Y-68135500D01*
X76136500Y-68643500D02*
X76517500Y-68643500D01*
X76136500Y-68135500D02*
X76136500Y-68643500D01*
X76263500Y-68262500D02*
X76263500Y-68389500D01*
X76263500Y-68135500D02*
X76390500Y-68516500D01*
X76263500Y-68262500D02*
X76263500Y-68389500D01*
X76390500Y-68262500D02*
X76390500Y-68643500D01*
X76263500Y-68262500D02*
X76390500Y-68262500D01*
X76263500Y-68643500D02*
X76263500Y-68262500D01*
X74866500Y-69024500D02*
X74866500Y-68643500D01*
X75755500Y-69024500D02*
X74866500Y-69024500D01*
X75755500Y-68643500D02*
X75755500Y-69024500D01*
X74866500Y-68643500D02*
X75755500Y-68643500D01*
X74993500Y-68770500D02*
X75628500Y-68770500D01*
X75247500Y-67246500D02*
X74866500Y-67246500D01*
X75247500Y-67373500D02*
X75247500Y-67246500D01*
X74866500Y-67373500D02*
X75247500Y-67373500D01*
X74866500Y-67246500D02*
X74866500Y-67373500D01*
X76136500Y-68008500D02*
G75*
G03X73850500Y-68008500I-1143000J-1143000D01*
G01*
D14*
X76136500Y-71310500D02*
G75*
G03X76136500Y-71310500I-127000J0D01*
G01*
D12*
X75894037Y-64328040D02*
G75*
G03X75894037Y-64328040I-1802237J0D01*
G01*
D11*
X72931020Y-63164720D02*
X75364340Y-65585340D01*
D15*
X98049080Y-71638160D02*
X98600260Y-70215760D01*
D16*
X97703640Y-71452740D02*
X98021140Y-71658480D01*
D17*
X96913700Y-72001380D02*
X97693480Y-71470520D01*
D18*
X96337120Y-71462900D02*
X96901000Y-72001380D01*
D16*
X96352360Y-71462900D02*
X96885760Y-70629780D01*
X96527620Y-69702680D02*
X96885760Y-70586600D01*
X95549720Y-69461380D02*
X96499680Y-69679820D01*
D18*
X95559880Y-68684140D02*
X95554800Y-69471540D01*
D16*
X95547180Y-68671440D02*
X96565720Y-68491100D01*
X96596200Y-68455540D02*
X96944180Y-67589400D01*
X96367600Y-66687700D02*
X96923860Y-67538600D01*
D18*
X96357440Y-66664840D02*
X96857820Y-66131440D01*
D16*
X96906080Y-66106040D02*
X97734120Y-66758820D01*
X97795080Y-66748660D02*
X98640900Y-66342260D01*
X98899980Y-65308480D02*
X98694240Y-66321940D01*
X98892360Y-65295780D02*
X99677220Y-65295780D01*
X99659440Y-65316100D02*
X99872800Y-66334640D01*
X99872800Y-66334640D02*
X100774500Y-66784220D01*
X100787200Y-66779140D02*
X101691440Y-66144700D01*
X101691440Y-66146680D02*
X102245160Y-66692780D01*
X102245160Y-66695320D02*
X101627940Y-67485260D01*
X101627940Y-67485260D02*
X101968300Y-68422520D01*
X101968300Y-68422520D02*
X103050340Y-68651120D01*
X103050340Y-68651120D02*
X103050340Y-69486780D01*
X103050340Y-69486780D02*
X102036880Y-69656960D01*
X102036880Y-69656960D02*
X101630480Y-70568820D01*
X101681280Y-72016620D02*
X100845620Y-71450200D01*
X100845620Y-71450200D02*
X100507800Y-71635620D01*
X100507800Y-71635620D02*
X99933760Y-70195440D01*
X99943920Y-70192900D02*
G75*
G03X100314760Y-68328540I-746760J1117600D01*
G01*
X100324920Y-68343780D02*
G75*
G03X98399600Y-68145660I-1061720J-863600D01*
G01*
X98374200Y-68171060D02*
G75*
G03X98450400Y-70025260I965200J-889000D01*
G01*
X101630480Y-70568820D02*
X102250240Y-71455280D01*
X101696520Y-72009000D02*
X102250240Y-71462900D01*
D13*
X98130360Y-71818500D02*
X98780600Y-70149720D01*
X97746820Y-71615300D02*
X98092260Y-71836280D01*
X97734120Y-71605140D02*
X96908620Y-72169020D01*
X96901000Y-72176640D02*
X96179640Y-71483220D01*
X96172020Y-71480680D02*
X96768920Y-70617080D01*
X95410020Y-69573140D02*
X96481900Y-69768720D01*
X95410020Y-68580000D02*
X95410020Y-69565520D01*
X95407480Y-68577460D02*
X96578420Y-68374260D01*
X96476820Y-68379340D02*
X96812100Y-67546220D01*
X96215200Y-66695320D02*
X96809560Y-67548760D01*
X96194880Y-66659760D02*
X96867980Y-65946020D01*
X96880680Y-65943480D02*
X97850960Y-66659760D01*
X97815400Y-66591180D02*
X98719640Y-66212720D01*
X98803460Y-65196720D02*
X98602800Y-66222880D01*
X98813620Y-65189100D02*
X99778820Y-65189100D01*
X99778820Y-65189100D02*
X100004880Y-66360040D01*
X99994720Y-66278760D02*
X100799900Y-66616580D01*
X100680520Y-66664840D02*
X101691440Y-65991740D01*
X101696520Y-65989200D02*
X102389940Y-66680080D01*
X102395020Y-66687700D02*
X101691440Y-67678300D01*
X101780340Y-67569080D02*
X102146100Y-68437760D01*
X103083360Y-69339460D02*
X101975920Y-69562980D01*
X103167180Y-68597780D02*
X103164640Y-69555360D01*
X102029260Y-69786500D02*
X103151940Y-69575680D01*
X102133400Y-69753480D02*
X101752400Y-70733920D01*
X102100380Y-71389240D02*
X101615240Y-71920100D01*
X101704140Y-72163940D02*
X102387400Y-71473060D01*
X100817680Y-71549260D02*
X101693980Y-72169020D01*
X101681280Y-71854060D02*
X100860860Y-71325740D01*
X100998020Y-71521320D02*
X100469700Y-71848980D01*
X100469700Y-71848980D02*
X100083620Y-70868540D01*
X100078540Y-70170040D02*
X100606860Y-71551800D01*
X95702120Y-68767960D02*
X95702120Y-69418200D01*
X95559880Y-68823840D02*
X96674940Y-68577460D01*
X97088960Y-67556380D02*
X96702880Y-68554600D01*
X97094040Y-67561460D02*
X96492060Y-66652140D01*
X96850200Y-66207640D02*
X97734120Y-66929000D01*
X100121720Y-70228460D02*
X100299520Y-70106540D01*
X100299520Y-70106540D02*
X100675440Y-69395340D01*
X100675440Y-69395340D02*
X100675440Y-68877180D01*
X100680520Y-68889880D02*
X100446840Y-68216780D01*
X100446840Y-68216780D02*
X99936300Y-67787520D01*
X99936300Y-67787520D02*
X99120960Y-67627500D01*
X99120960Y-67619880D02*
X98249740Y-68049140D01*
X98249740Y-68049140D02*
X97830640Y-68780660D01*
X97825560Y-68785740D02*
X97957640Y-69608700D01*
X97962720Y-69639180D02*
X98056700Y-69809360D01*
X97962720Y-69639180D02*
X98056700Y-69809360D01*
X98186240Y-69860160D02*
X98445320Y-70197980D01*
X98554540Y-69974460D02*
X98780600Y-70149720D01*
X100055680Y-69977000D02*
X99801680Y-70142100D01*
X99918520Y-70431660D02*
X99796600Y-70147180D01*
X97739200Y-66926460D02*
X98722180Y-66433700D01*
X98069400Y-69839840D02*
X98376740Y-70106540D01*
D19*
X97053400Y-71269860D02*
X97906840Y-70248780D01*
X96017080Y-69065140D02*
X97434400Y-69004180D01*
X97002600Y-66779140D02*
X98064320Y-67886580D01*
X99263200Y-65803780D02*
X99268280Y-67317620D01*
X101528880Y-66860420D02*
X100416360Y-67927220D01*
X102519480Y-69044820D02*
X101051360Y-69131180D01*
X97729040Y-71097140D02*
X98094800Y-70335140D01*
X97063560Y-70197980D02*
X97627440Y-69717920D01*
X96814640Y-69552820D02*
X97520760Y-69425820D01*
X97139760Y-68308220D02*
X97581720Y-68468240D01*
X97315020Y-67828160D02*
X97772220Y-68117720D01*
X98313240Y-67050920D02*
X98488500Y-67409060D01*
X98747580Y-66791840D02*
X98915220Y-67401440D01*
X100012500Y-66807080D02*
X99791520Y-67492880D01*
X100599240Y-67058540D02*
X100180140Y-67645280D01*
X101467920Y-67927220D02*
X100812600Y-68292980D01*
X101709220Y-68620640D02*
X100987860Y-68767960D01*
X100873560Y-69778880D02*
X101483160Y-69885560D01*
X100553520Y-70197980D02*
X101170740Y-70525640D01*
X100439220Y-70335140D02*
X101620320Y-71348600D01*
X100439220Y-70243700D02*
X100771960Y-70975220D01*
D13*
X72156339Y-75285600D02*
G75*
G03X72156339Y-75285600I-172739J0D01*
G01*
D11*
X72618600Y-74766700D02*
X72771000Y-74917300D01*
X72771000Y-74955400D02*
X72771000Y-75958700D01*
X72631300Y-76123800D02*
X72771000Y-75984100D01*
X71983600Y-75514200D02*
X71983600Y-75958700D01*
X73126600Y-74764900D02*
X73126600Y-75946000D01*
X73126600Y-75946000D02*
X73304400Y-76111100D01*
X73304400Y-76111100D02*
X73583800Y-76111100D01*
D13*
X73985139Y-76123800D02*
G75*
G03X73985139Y-76123800I-172739J0D01*
G01*
D11*
X73812400Y-74980800D02*
X73812400Y-75692000D01*
D13*
X73985139Y-74752200D02*
G75*
G03X73985139Y-74752200I-172739J0D01*
G01*
X74556639Y-76123800D02*
G75*
G03X74556639Y-76123800I-172739J0D01*
G01*
D11*
X74383900Y-75907900D02*
X74383900Y-74739500D01*
X74383900Y-74739500D02*
X74612500Y-74739500D01*
X74612500Y-74739500D02*
X75057000Y-75184000D01*
X75057000Y-75184000D02*
X75057000Y-75387200D01*
X75057000Y-75209400D02*
X75539600Y-74739500D01*
D13*
X75229739Y-75615800D02*
G75*
G03X75229739Y-75615800I-172739J0D01*
G01*
D11*
X75539600Y-74739500D02*
X75755500Y-74739500D01*
X75755500Y-74739500D02*
X75755500Y-75869800D01*
D13*
X75928239Y-76123800D02*
G75*
G03X75928239Y-76123800I-172739J0D01*
G01*
X78061839Y-76136500D02*
G75*
G03X78061839Y-76136500I-172739J0D01*
G01*
D11*
X77774800Y-75971400D02*
X77482700Y-75679300D01*
X77482700Y-75679300D02*
X77292200Y-75679300D01*
X77292200Y-75679300D02*
X76784200Y-76187300D01*
X76784200Y-76187300D02*
X76390500Y-76187300D01*
X76390500Y-76187300D02*
X76225400Y-76009500D01*
X76225400Y-76009500D02*
X76225400Y-75438000D01*
X76225400Y-74942700D02*
X76403200Y-74764900D01*
X76225400Y-75450700D02*
X76225400Y-74942700D01*
X76403200Y-74764900D02*
X76796900Y-74764900D01*
X76796900Y-74764900D02*
X77292200Y-75260200D01*
X77292200Y-75260200D02*
X77495400Y-75260200D01*
X77495400Y-75260200D02*
X77749400Y-75006200D01*
D13*
X78074539Y-74828400D02*
G75*
G03X78074539Y-74828400I-172739J0D01*
G01*
D11*
X76657200Y-75438000D02*
X76225400Y-75438000D01*
D13*
X77033139Y-75438000D02*
G75*
G03X77033139Y-75438000I-172739J0D01*
G01*
D11*
X72136000Y-74764900D02*
X72618600Y-74764900D01*
X71983600Y-74917300D02*
X72136000Y-74764900D01*
X71983600Y-75082400D02*
X71983600Y-74917300D01*
X72136000Y-76123800D02*
X71983600Y-75984100D01*
X72631300Y-76123800D02*
X72136000Y-76123800D01*
D20*
X73025000Y-74663300D02*
X73025000Y-75958700D01*
X73126600Y-74663300D02*
X73025000Y-74663300D01*
X73025000Y-75984100D02*
X73266300Y-76212700D01*
X73025000Y-75971400D02*
X73025000Y-75984100D01*
X73025000Y-75958700D02*
X73025000Y-75971400D01*
X73037700Y-75996800D02*
X73025000Y-75971400D01*
X73266300Y-76212700D02*
X73583800Y-76212700D01*
X73279000Y-76212700D02*
X73266300Y-76200000D01*
X73228200Y-74663300D02*
X73228200Y-75920600D01*
X73126600Y-74663300D02*
X73228200Y-74663300D01*
D21*
X73052940Y-74693780D02*
X73101200Y-74693780D01*
X73149460Y-74696320D02*
X73197720Y-74696320D01*
D22*
X73032620Y-74665840D02*
X73032620Y-74739500D01*
X73218040Y-74665840D02*
X73218040Y-74744580D01*
X73906380Y-75791060D02*
X73715880Y-75791060D01*
X73906380Y-75694540D02*
X73906380Y-75791060D01*
X73715880Y-75791060D02*
X73715880Y-74968100D01*
X73720960Y-75778360D02*
X73903840Y-75778360D01*
X73718420Y-75765660D02*
X73901300Y-75765660D01*
X73718420Y-75752960D02*
X73901300Y-75752960D01*
X73718420Y-75740260D02*
X73903840Y-75740260D01*
X74289920Y-74645520D02*
X74617580Y-74645520D01*
X74289920Y-74742040D02*
X74289920Y-74645520D01*
X74343260Y-74658220D02*
X74297540Y-74658220D01*
X74300080Y-74650600D02*
X74300080Y-74691240D01*
X74302620Y-74670920D02*
X74317860Y-74670920D01*
X75849480Y-74645520D02*
X75849480Y-74742040D01*
X75763120Y-74645520D02*
X75849480Y-74645520D01*
X75803760Y-74655680D02*
X75841860Y-74655680D01*
X75839320Y-74660760D02*
X75839320Y-74691240D01*
X75816460Y-74665840D02*
X75836780Y-74665840D01*
X75831700Y-74663300D02*
X75831700Y-74678540D01*
D12*
X89150000Y-71305500D02*
X89404000Y-71305500D01*
X89150000Y-71305500D02*
X88896000Y-71305500D01*
X89150000Y-72194500D02*
X88896000Y-72194500D01*
X89150000Y-72194500D02*
X89404000Y-72194500D01*
X64008000Y-69557900D02*
X62992000Y-69557900D01*
X64008000Y-67525900D02*
X62992000Y-67525900D01*
X64033400Y-71691500D02*
X63017400Y-71691500D01*
X64033400Y-69659500D02*
X63017400Y-69659500D01*
X100520500Y-63563500D02*
X99504500Y-63563500D01*
X100520500Y-61531500D02*
X99504500Y-61531500D01*
X71953500Y-62087000D02*
X71699500Y-62087000D01*
X71953500Y-62087000D02*
X72207500Y-62087000D01*
X71953500Y-61198000D02*
X72207500Y-61198000D01*
X71953500Y-61198000D02*
X71699500Y-61198000D01*
X84653500Y-62214000D02*
X84653500Y-61960000D01*
X84653500Y-62214000D02*
X84653500Y-62468000D01*
X85542500Y-62214000D02*
X85542500Y-62468000D01*
X85542500Y-62214000D02*
X85542500Y-61960000D01*
X79764000Y-63674500D02*
X79764000Y-63928500D01*
X79764000Y-63674500D02*
X79764000Y-63420500D01*
X78875000Y-63674500D02*
X78875000Y-63420500D01*
X78875000Y-63674500D02*
X78875000Y-63928500D01*
X69262000Y-76857000D02*
X67738000Y-76857000D01*
X69262000Y-79143000D02*
X67738000Y-79143000D01*
X89187400Y-73244500D02*
X88933400Y-73244500D01*
X89187400Y-73244500D02*
X89441400Y-73244500D01*
X89187400Y-72355500D02*
X89441400Y-72355500D01*
X89187400Y-72355500D02*
X88933400Y-72355500D01*
X100520500Y-78549500D02*
X99504500Y-78549500D01*
X100520500Y-76517500D02*
X99504500Y-76517500D01*
X77033500Y-64055500D02*
X77033500Y-63039500D01*
X78557500Y-64055500D02*
X78557500Y-63039500D01*
X87905500Y-64850000D02*
X87905500Y-64596000D01*
X87905500Y-64850000D02*
X87905500Y-65104000D01*
X88794500Y-64850000D02*
X88794500Y-65104000D01*
X88794500Y-64850000D02*
X88794500Y-64596000D01*
X86804500Y-64850000D02*
X86804500Y-64596000D01*
X86804500Y-64850000D02*
X86804500Y-65104000D01*
X87693500Y-64850000D02*
X87693500Y-65104000D01*
X87693500Y-64850000D02*
X87693500Y-64596000D01*
X59677300Y-69926200D02*
X60693300Y-69926200D01*
X59677300Y-71450200D02*
X60693300Y-71450200D01*
X59588400Y-67779900D02*
X60604400Y-67779900D01*
X59588400Y-69303900D02*
X60604400Y-69303900D01*
X81343500Y-65074800D02*
G75*
G03X81343500Y-65074800I-254000J0D01*
G01*
X82486500Y-64439800D02*
X81978500Y-64439800D01*
X82486500Y-61899800D02*
X81978500Y-61899800D01*
D13*
X78266095Y-69509480D02*
X78266095Y-70319004D01*
X78313714Y-70414242D01*
X78361333Y-70461861D01*
X78456571Y-70509480D01*
X78647047Y-70509480D01*
X78742285Y-70461861D01*
X78789904Y-70414242D01*
X78837523Y-70319004D01*
X78837523Y-69509480D01*
X79218476Y-69509480D02*
X79837523Y-69509480D01*
X79504190Y-69890433D01*
X79647047Y-69890433D01*
X79742285Y-69938052D01*
X79789904Y-69985671D01*
X79837523Y-70080909D01*
X79837523Y-70319004D01*
X79789904Y-70414242D01*
X79742285Y-70461861D01*
X79647047Y-70509480D01*
X79361333Y-70509480D01*
X79266095Y-70461861D01*
X79218476Y-70414242D01*
D10*
X88450000Y-67600000D02*
X88416666Y-67633333D01*
X88316666Y-67666666D01*
X88250000Y-67666666D01*
X88150000Y-67633333D01*
X88083333Y-67566666D01*
X88050000Y-67500000D01*
X88016666Y-67366666D01*
X88016666Y-67266666D01*
X88050000Y-67133333D01*
X88083333Y-67066666D01*
X88150000Y-67000000D01*
X88250000Y-66966666D01*
X88316666Y-66966666D01*
X88416666Y-67000000D01*
X88450000Y-67033333D01*
X88716666Y-67033333D02*
X88750000Y-67000000D01*
X88816666Y-66966666D01*
X88983333Y-66966666D01*
X89050000Y-67000000D01*
X89083333Y-67033333D01*
X89116666Y-67100000D01*
X89116666Y-67166666D01*
X89083333Y-67266666D01*
X88683333Y-67666666D01*
X89116666Y-67666666D01*
X89350000Y-66966666D02*
X89816666Y-66966666D01*
X89516666Y-67666666D01*
D12*
X73137211Y-65076767D02*
X73137211Y-63376767D01*
X73708640Y-63376767D01*
X73851497Y-63457720D01*
X73922925Y-63538672D01*
X73994354Y-63700577D01*
X73994354Y-63943434D01*
X73922925Y-64105339D01*
X73851497Y-64186291D01*
X73708640Y-64267243D01*
X73137211Y-64267243D01*
X74637211Y-65076767D02*
X74637211Y-63376767D01*
X74637211Y-64024386D02*
X74780068Y-63943434D01*
X75065782Y-63943434D01*
X75208640Y-64024386D01*
X75280068Y-64105339D01*
X75351497Y-64267243D01*
X75351497Y-64752958D01*
X75280068Y-64914862D01*
X75208640Y-64995815D01*
X75065782Y-65076767D01*
X74780068Y-65076767D01*
X74637211Y-64995815D01*
X94329601Y-73850279D02*
X94224840Y-73797898D01*
X94172459Y-73745517D01*
X94120078Y-73640755D01*
X94120078Y-73326469D01*
X94172459Y-73221707D01*
X94224840Y-73169326D01*
X94329601Y-73116945D01*
X94486744Y-73116945D01*
X94591506Y-73169326D01*
X94643887Y-73221707D01*
X94696268Y-73326469D01*
X94696268Y-73640755D01*
X94643887Y-73745517D01*
X94591506Y-73797898D01*
X94486744Y-73850279D01*
X94329601Y-73850279D01*
X95167697Y-73116945D02*
X95167697Y-74216945D01*
X95167697Y-73169326D02*
X95272459Y-73116945D01*
X95481982Y-73116945D01*
X95586744Y-73169326D01*
X95639125Y-73221707D01*
X95691506Y-73326469D01*
X95691506Y-73640755D01*
X95639125Y-73745517D01*
X95586744Y-73797898D01*
X95481982Y-73850279D01*
X95272459Y-73850279D01*
X95167697Y-73797898D01*
X96581982Y-73797898D02*
X96477220Y-73850279D01*
X96267697Y-73850279D01*
X96162935Y-73797898D01*
X96110554Y-73693136D01*
X96110554Y-73274088D01*
X96162935Y-73169326D01*
X96267697Y-73116945D01*
X96477220Y-73116945D01*
X96581982Y-73169326D01*
X96634363Y-73274088D01*
X96634363Y-73378850D01*
X96110554Y-73483612D01*
X97105792Y-73116945D02*
X97105792Y-73850279D01*
X97105792Y-73221707D02*
X97158173Y-73169326D01*
X97262935Y-73116945D01*
X97420078Y-73116945D01*
X97524840Y-73169326D01*
X97577220Y-73274088D01*
X97577220Y-73850279D01*
D23*
X98645102Y-73896480D02*
X98645102Y-72896480D01*
X99073674Y-73896480D02*
X99073674Y-73372671D01*
X99026055Y-73277433D01*
X98930817Y-73229814D01*
X98787960Y-73229814D01*
X98692721Y-73277433D01*
X98645102Y-73325052D01*
X99978436Y-73896480D02*
X99978436Y-73372671D01*
X99930817Y-73277433D01*
X99835579Y-73229814D01*
X99645102Y-73229814D01*
X99549864Y-73277433D01*
X99978436Y-73848861D02*
X99883198Y-73896480D01*
X99645102Y-73896480D01*
X99549864Y-73848861D01*
X99502245Y-73753623D01*
X99502245Y-73658385D01*
X99549864Y-73563147D01*
X99645102Y-73515528D01*
X99883198Y-73515528D01*
X99978436Y-73467909D01*
X100454626Y-73896480D02*
X100454626Y-73229814D01*
X100454626Y-73420290D02*
X100502245Y-73325052D01*
X100549864Y-73277433D01*
X100645102Y-73229814D01*
X100740340Y-73229814D01*
X101502245Y-73896480D02*
X101502245Y-72896480D01*
X101502245Y-73848861D02*
X101407007Y-73896480D01*
X101216531Y-73896480D01*
X101121293Y-73848861D01*
X101073674Y-73801242D01*
X101026055Y-73706004D01*
X101026055Y-73420290D01*
X101073674Y-73325052D01*
X101121293Y-73277433D01*
X101216531Y-73229814D01*
X101407007Y-73229814D01*
X101502245Y-73277433D01*
X101883198Y-73229814D02*
X102073674Y-73896480D01*
X102264150Y-73420290D01*
X102454626Y-73896480D01*
X102645102Y-73229814D01*
X103454626Y-73896480D02*
X103454626Y-73372671D01*
X103407007Y-73277433D01*
X103311769Y-73229814D01*
X103121293Y-73229814D01*
X103026055Y-73277433D01*
X103454626Y-73848861D02*
X103359388Y-73896480D01*
X103121293Y-73896480D01*
X103026055Y-73848861D01*
X102978436Y-73753623D01*
X102978436Y-73658385D01*
X103026055Y-73563147D01*
X103121293Y-73515528D01*
X103359388Y-73515528D01*
X103454626Y-73467909D01*
X103930817Y-73896480D02*
X103930817Y-73229814D01*
X103930817Y-73420290D02*
X103978436Y-73325052D01*
X104026055Y-73277433D01*
X104121293Y-73229814D01*
X104216531Y-73229814D01*
X104930817Y-73848861D02*
X104835579Y-73896480D01*
X104645102Y-73896480D01*
X104549864Y-73848861D01*
X104502245Y-73753623D01*
X104502245Y-73372671D01*
X104549864Y-73277433D01*
X104645102Y-73229814D01*
X104835579Y-73229814D01*
X104930817Y-73277433D01*
X104978436Y-73372671D01*
X104978436Y-73467909D01*
X104502245Y-73563147D01*
D10*
X90785714Y-72111904D02*
X90519047Y-71730952D01*
X90328571Y-72111904D02*
X90328571Y-71311904D01*
X90633333Y-71311904D01*
X90709523Y-71350000D01*
X90747619Y-71388095D01*
X90785714Y-71464285D01*
X90785714Y-71578571D01*
X90747619Y-71654761D01*
X90709523Y-71692857D01*
X90633333Y-71730952D01*
X90328571Y-71730952D01*
X91547619Y-72111904D02*
X91090476Y-72111904D01*
X91319047Y-72111904D02*
X91319047Y-71311904D01*
X91242857Y-71426190D01*
X91166666Y-71502380D01*
X91090476Y-71540476D01*
X92309523Y-72111904D02*
X91852380Y-72111904D01*
X92080952Y-72111904D02*
X92080952Y-71311904D01*
X92004761Y-71426190D01*
X91928571Y-71502380D01*
X91852380Y-71540476D01*
X63316666Y-67185714D02*
X63278571Y-67223809D01*
X63164285Y-67261904D01*
X63088095Y-67261904D01*
X62973809Y-67223809D01*
X62897619Y-67147619D01*
X62859523Y-67071428D01*
X62821428Y-66919047D01*
X62821428Y-66804761D01*
X62859523Y-66652380D01*
X62897619Y-66576190D01*
X62973809Y-66500000D01*
X63088095Y-66461904D01*
X63164285Y-66461904D01*
X63278571Y-66500000D01*
X63316666Y-66538095D01*
X63583333Y-66461904D02*
X64078571Y-66461904D01*
X63811904Y-66766666D01*
X63926190Y-66766666D01*
X64002380Y-66804761D01*
X64040476Y-66842857D01*
X64078571Y-66919047D01*
X64078571Y-67109523D01*
X64040476Y-67185714D01*
X64002380Y-67223809D01*
X63926190Y-67261904D01*
X63697619Y-67261904D01*
X63621428Y-67223809D01*
X63583333Y-67185714D01*
X63416666Y-72685714D02*
X63378571Y-72723809D01*
X63264285Y-72761904D01*
X63188095Y-72761904D01*
X63073809Y-72723809D01*
X62997619Y-72647619D01*
X62959523Y-72571428D01*
X62921428Y-72419047D01*
X62921428Y-72304761D01*
X62959523Y-72152380D01*
X62997619Y-72076190D01*
X63073809Y-72000000D01*
X63188095Y-71961904D01*
X63264285Y-71961904D01*
X63378571Y-72000000D01*
X63416666Y-72038095D01*
X64102380Y-72228571D02*
X64102380Y-72761904D01*
X63911904Y-71923809D02*
X63721428Y-72495238D01*
X64216666Y-72495238D01*
X99866666Y-64685714D02*
X99828571Y-64723809D01*
X99714285Y-64761904D01*
X99638095Y-64761904D01*
X99523809Y-64723809D01*
X99447619Y-64647619D01*
X99409523Y-64571428D01*
X99371428Y-64419047D01*
X99371428Y-64304761D01*
X99409523Y-64152380D01*
X99447619Y-64076190D01*
X99523809Y-64000000D01*
X99638095Y-63961904D01*
X99714285Y-63961904D01*
X99828571Y-64000000D01*
X99866666Y-64038095D01*
X100590476Y-63961904D02*
X100209523Y-63961904D01*
X100171428Y-64342857D01*
X100209523Y-64304761D01*
X100285714Y-64266666D01*
X100476190Y-64266666D01*
X100552380Y-64304761D01*
X100590476Y-64342857D01*
X100628571Y-64419047D01*
X100628571Y-64609523D01*
X100590476Y-64685714D01*
X100552380Y-64723809D01*
X100476190Y-64761904D01*
X100285714Y-64761904D01*
X100209523Y-64723809D01*
X100171428Y-64685714D01*
X69399166Y-62071214D02*
X69361071Y-62109309D01*
X69246785Y-62147404D01*
X69170595Y-62147404D01*
X69056309Y-62109309D01*
X68980119Y-62033119D01*
X68942023Y-61956928D01*
X68903928Y-61804547D01*
X68903928Y-61690261D01*
X68942023Y-61537880D01*
X68980119Y-61461690D01*
X69056309Y-61385500D01*
X69170595Y-61347404D01*
X69246785Y-61347404D01*
X69361071Y-61385500D01*
X69399166Y-61423595D01*
X70084880Y-61347404D02*
X69932500Y-61347404D01*
X69856309Y-61385500D01*
X69818214Y-61423595D01*
X69742023Y-61537880D01*
X69703928Y-61690261D01*
X69703928Y-61995023D01*
X69742023Y-62071214D01*
X69780119Y-62109309D01*
X69856309Y-62147404D01*
X70008690Y-62147404D01*
X70084880Y-62109309D01*
X70122976Y-62071214D01*
X70161071Y-61995023D01*
X70161071Y-61804547D01*
X70122976Y-61728357D01*
X70084880Y-61690261D01*
X70008690Y-61652166D01*
X69856309Y-61652166D01*
X69780119Y-61690261D01*
X69742023Y-61728357D01*
X69703928Y-61804547D01*
X86391714Y-62401433D02*
X86429809Y-62439528D01*
X86467904Y-62553814D01*
X86467904Y-62630004D01*
X86429809Y-62744290D01*
X86353619Y-62820480D01*
X86277428Y-62858576D01*
X86125047Y-62896671D01*
X86010761Y-62896671D01*
X85858380Y-62858576D01*
X85782190Y-62820480D01*
X85706000Y-62744290D01*
X85667904Y-62630004D01*
X85667904Y-62553814D01*
X85706000Y-62439528D01*
X85744095Y-62401433D01*
X85667904Y-62134766D02*
X85667904Y-61601433D01*
X86467904Y-61944290D01*
X79597214Y-65538333D02*
X79635309Y-65576428D01*
X79673404Y-65690714D01*
X79673404Y-65766904D01*
X79635309Y-65881190D01*
X79559119Y-65957380D01*
X79482928Y-65995476D01*
X79330547Y-66033571D01*
X79216261Y-66033571D01*
X79063880Y-65995476D01*
X78987690Y-65957380D01*
X78911500Y-65881190D01*
X78873404Y-65766904D01*
X78873404Y-65690714D01*
X78911500Y-65576428D01*
X78949595Y-65538333D01*
X79216261Y-65081190D02*
X79178166Y-65157380D01*
X79140071Y-65195476D01*
X79063880Y-65233571D01*
X79025785Y-65233571D01*
X78949595Y-65195476D01*
X78911500Y-65157380D01*
X78873404Y-65081190D01*
X78873404Y-64928809D01*
X78911500Y-64852619D01*
X78949595Y-64814523D01*
X79025785Y-64776428D01*
X79063880Y-64776428D01*
X79140071Y-64814523D01*
X79178166Y-64852619D01*
X79216261Y-64928809D01*
X79216261Y-65081190D01*
X79254357Y-65157380D01*
X79292452Y-65195476D01*
X79368642Y-65233571D01*
X79521023Y-65233571D01*
X79597214Y-65195476D01*
X79635309Y-65157380D01*
X79673404Y-65081190D01*
X79673404Y-64928809D01*
X79635309Y-64852619D01*
X79597214Y-64814523D01*
X79521023Y-64776428D01*
X79368642Y-64776428D01*
X79292452Y-64814523D01*
X79254357Y-64852619D01*
X79216261Y-64928809D01*
X68300000Y-76371428D02*
X68257142Y-76414285D01*
X68128571Y-76457142D01*
X68042857Y-76457142D01*
X67914285Y-76414285D01*
X67828571Y-76328571D01*
X67785714Y-76242857D01*
X67742857Y-76071428D01*
X67742857Y-75942857D01*
X67785714Y-75771428D01*
X67828571Y-75685714D01*
X67914285Y-75600000D01*
X68042857Y-75557142D01*
X68128571Y-75557142D01*
X68257142Y-75600000D01*
X68300000Y-75642857D01*
X68728571Y-76457142D02*
X68900000Y-76457142D01*
X68985714Y-76414285D01*
X69028571Y-76371428D01*
X69114285Y-76242857D01*
X69157142Y-76071428D01*
X69157142Y-75728571D01*
X69114285Y-75642857D01*
X69071428Y-75600000D01*
X68985714Y-75557142D01*
X68814285Y-75557142D01*
X68728571Y-75600000D01*
X68685714Y-75642857D01*
X68642857Y-75728571D01*
X68642857Y-75942857D01*
X68685714Y-76028571D01*
X68728571Y-76071428D01*
X68814285Y-76114285D01*
X68985714Y-76114285D01*
X69071428Y-76071428D01*
X69114285Y-76028571D01*
X69157142Y-75942857D01*
X90785714Y-73035714D02*
X90747619Y-73073809D01*
X90633333Y-73111904D01*
X90557142Y-73111904D01*
X90442857Y-73073809D01*
X90366666Y-72997619D01*
X90328571Y-72921428D01*
X90290476Y-72769047D01*
X90290476Y-72654761D01*
X90328571Y-72502380D01*
X90366666Y-72426190D01*
X90442857Y-72350000D01*
X90557142Y-72311904D01*
X90633333Y-72311904D01*
X90747619Y-72350000D01*
X90785714Y-72388095D01*
X91090476Y-72388095D02*
X91128571Y-72350000D01*
X91204761Y-72311904D01*
X91395238Y-72311904D01*
X91471428Y-72350000D01*
X91509523Y-72388095D01*
X91547619Y-72464285D01*
X91547619Y-72540476D01*
X91509523Y-72654761D01*
X91052380Y-73111904D01*
X91547619Y-73111904D01*
X91852380Y-72388095D02*
X91890476Y-72350000D01*
X91966666Y-72311904D01*
X92157142Y-72311904D01*
X92233333Y-72350000D01*
X92271428Y-72388095D01*
X92309523Y-72464285D01*
X92309523Y-72540476D01*
X92271428Y-72654761D01*
X91814285Y-73111904D01*
X92309523Y-73111904D01*
X99942666Y-75863404D02*
X99676000Y-75482452D01*
X99485523Y-75863404D02*
X99485523Y-75063404D01*
X99790285Y-75063404D01*
X99866476Y-75101500D01*
X99904571Y-75139595D01*
X99942666Y-75215785D01*
X99942666Y-75330071D01*
X99904571Y-75406261D01*
X99866476Y-75444357D01*
X99790285Y-75482452D01*
X99485523Y-75482452D01*
X100628380Y-75330071D02*
X100628380Y-75863404D01*
X100437904Y-75025309D02*
X100247428Y-75596738D01*
X100742666Y-75596738D01*
X78212904Y-66109833D02*
X77831952Y-66376500D01*
X78212904Y-66566976D02*
X77412904Y-66566976D01*
X77412904Y-66262214D01*
X77451000Y-66186023D01*
X77489095Y-66147928D01*
X77565285Y-66109833D01*
X77679571Y-66109833D01*
X77755761Y-66147928D01*
X77793857Y-66186023D01*
X77831952Y-66262214D01*
X77831952Y-66566976D01*
X77755761Y-65652690D02*
X77717666Y-65728880D01*
X77679571Y-65766976D01*
X77603380Y-65805071D01*
X77565285Y-65805071D01*
X77489095Y-65766976D01*
X77451000Y-65728880D01*
X77412904Y-65652690D01*
X77412904Y-65500309D01*
X77451000Y-65424119D01*
X77489095Y-65386023D01*
X77565285Y-65347928D01*
X77603380Y-65347928D01*
X77679571Y-65386023D01*
X77717666Y-65424119D01*
X77755761Y-65500309D01*
X77755761Y-65652690D01*
X77793857Y-65728880D01*
X77831952Y-65766976D01*
X77908142Y-65805071D01*
X78060523Y-65805071D01*
X78136714Y-65766976D01*
X78174809Y-65728880D01*
X78212904Y-65652690D01*
X78212904Y-65500309D01*
X78174809Y-65424119D01*
X78136714Y-65386023D01*
X78060523Y-65347928D01*
X77908142Y-65347928D01*
X77831952Y-65386023D01*
X77793857Y-65424119D01*
X77755761Y-65500309D01*
X89854904Y-64983333D02*
X89473952Y-65250000D01*
X89854904Y-65440476D02*
X89054904Y-65440476D01*
X89054904Y-65135714D01*
X89093000Y-65059523D01*
X89131095Y-65021428D01*
X89207285Y-64983333D01*
X89321571Y-64983333D01*
X89397761Y-65021428D01*
X89435857Y-65059523D01*
X89473952Y-65135714D01*
X89473952Y-65440476D01*
X89854904Y-64602380D02*
X89854904Y-64450000D01*
X89816809Y-64373809D01*
X89778714Y-64335714D01*
X89664428Y-64259523D01*
X89512047Y-64221428D01*
X89207285Y-64221428D01*
X89131095Y-64259523D01*
X89093000Y-64297619D01*
X89054904Y-64373809D01*
X89054904Y-64526190D01*
X89093000Y-64602380D01*
X89131095Y-64640476D01*
X89207285Y-64678571D01*
X89397761Y-64678571D01*
X89473952Y-64640476D01*
X89512047Y-64602380D01*
X89550142Y-64526190D01*
X89550142Y-64373809D01*
X89512047Y-64297619D01*
X89473952Y-64259523D01*
X89397761Y-64221428D01*
X86348904Y-65364285D02*
X85967952Y-65630952D01*
X86348904Y-65821428D02*
X85548904Y-65821428D01*
X85548904Y-65516666D01*
X85587000Y-65440476D01*
X85625095Y-65402380D01*
X85701285Y-65364285D01*
X85815571Y-65364285D01*
X85891761Y-65402380D01*
X85929857Y-65440476D01*
X85967952Y-65516666D01*
X85967952Y-65821428D01*
X86348904Y-64602380D02*
X86348904Y-65059523D01*
X86348904Y-64830952D02*
X85548904Y-64830952D01*
X85663190Y-64907142D01*
X85739380Y-64983333D01*
X85777476Y-65059523D01*
X85548904Y-64107142D02*
X85548904Y-64030952D01*
X85587000Y-63954761D01*
X85625095Y-63916666D01*
X85701285Y-63878571D01*
X85853666Y-63840476D01*
X86044142Y-63840476D01*
X86196523Y-63878571D01*
X86272714Y-63916666D01*
X86310809Y-63954761D01*
X86348904Y-64030952D01*
X86348904Y-64107142D01*
X86310809Y-64183333D01*
X86272714Y-64221428D01*
X86196523Y-64259523D01*
X86044142Y-64297619D01*
X85853666Y-64297619D01*
X85701285Y-64259523D01*
X85625095Y-64221428D01*
X85587000Y-64183333D01*
X85548904Y-64107142D01*
X60066666Y-72561904D02*
X59800000Y-72180952D01*
X59609523Y-72561904D02*
X59609523Y-71761904D01*
X59914285Y-71761904D01*
X59990476Y-71800000D01*
X60028571Y-71838095D01*
X60066666Y-71914285D01*
X60066666Y-72028571D01*
X60028571Y-72104761D01*
X59990476Y-72142857D01*
X59914285Y-72180952D01*
X59609523Y-72180952D01*
X60828571Y-72561904D02*
X60371428Y-72561904D01*
X60600000Y-72561904D02*
X60600000Y-71761904D01*
X60523809Y-71876190D01*
X60447619Y-71952380D01*
X60371428Y-71990476D01*
X59966666Y-67461904D02*
X59700000Y-67080952D01*
X59509523Y-67461904D02*
X59509523Y-66661904D01*
X59814285Y-66661904D01*
X59890476Y-66700000D01*
X59928571Y-66738095D01*
X59966666Y-66814285D01*
X59966666Y-66928571D01*
X59928571Y-67004761D01*
X59890476Y-67042857D01*
X59814285Y-67080952D01*
X59509523Y-67080952D01*
X60233333Y-66661904D02*
X60766666Y-66661904D01*
X60423809Y-67461904D01*
D11*
X82130928Y-65105942D02*
X82730928Y-66005942D01*
X82730928Y-65105942D02*
X82130928Y-66005942D01*
X83545214Y-66005942D02*
X83030928Y-66005942D01*
X83288071Y-66005942D02*
X83288071Y-65105942D01*
X83202357Y-65234514D01*
X83116642Y-65320228D01*
X83030928Y-65363085D01*
M02*
