M48
; DRILL file {KiCad 5.99.0-unknown-efbc802~86~ubuntu18.04.1} date 12.09.2019 (чт) 13:39:18 EEST
; FORMAT={-:-/ absolute / metric / decimal}
; #@! TF.CreationDate,2019-09-12T13:39:18+03:00
; #@! TF.GenerationSoftware,Kicad,Pcbnew,5.99.0-unknown-efbc802~86~ubuntu18.04.1
; #@! TF.FileFunction,Plated,1,4,PTH
FMAT,2
METRIC
T1C0.400
T2C0.500
T3C1.000
T4C1.100
T5C1.200
T6C1.600
%
G90
G05
T1
X59.25Y-78.45
X59.3Y-61.55
X61.35Y-61.55
X61.35Y-78.55
X62.535Y-69.596
X66.85Y-61.4
X70.815Y-61.735
X71.349Y-77.94
X73.304Y-61.862
X76.297Y-68.583
X76.717Y-65.332
X77.114Y-72.326
X77.394Y-66.535
X77.749Y-74.371
X78.65Y-61.2
X79.261Y-73.584
X79.438Y-66.484
X79.733Y-68.033
X80.772Y-74.054
X81.514Y-76.836
X81.755Y-66.156
X82.186Y-76.164
X83.278Y-65.414
X84.219Y-65.592
X84.707Y-75.788
X85.166Y-65.247
X85.438Y-75.298
X85.917Y-74.559
X86.278Y-63.594
X86.444Y-64.547
X86.5Y-61.9
X86.655Y-74.08
X87.084Y-73.241
X87.65Y-68.65
X87.896Y-71.692
X88.165Y-74.819
X88.35Y-63.6
X89.891Y-68.745
X90.653Y-72.453
X91.021Y-77.851
X91.059Y-76.517
X92.05Y-61.6
X92.13Y-69.397
X93.0Y-65.55
X93.447Y-68.491
X94.742Y-76.517
X95.906Y-67.331
X96.578Y-66.659
X97.395Y-63.65
X97.409Y-68.516
X97.536Y-77.851
X98.95Y-64.0
X103.441Y-70.294
X103.569Y-66.675
T2
X73.0Y-69.65
X74.993Y-67.882
X91.15Y-66.6
X93.6Y-67.5
X58.61Y-73.914
X62.45Y-67.2
X90.05Y-66.6
X95.2Y-64.6
X62.75Y-73.85
X73.724Y-73.533
X80.25Y-75.7
X73.15Y-66.1
X73.343Y-76.517
X59.055Y-66.675
X78.422Y-75.184
T4
X56.77Y-63.269
X56.77Y-76.731
X58.801Y-63.269
X58.801Y-76.731
X67.691Y-64.285
X67.691Y-66.825
X67.691Y-69.365
X67.691Y-71.905
X67.691Y-74.445
X70.231Y-65.555
X70.231Y-68.095
X70.231Y-70.635
X70.231Y-73.175
X70.231Y-75.715
T5
X83.5Y-70.406
T6
X64.389Y-62.253
X64.389Y-77.747
T3
G00X104.95Y-64.15
M15
G01X103.45Y-64.15
M16
G05
G00X104.95Y-75.85
M15
G01X103.45Y-75.85
M16
G05
T0
M30
