G04 #@! TF.GenerationSoftware,KiCad,Pcbnew,5.99.0-unknown-efbc802~86~ubuntu18.04.1*
G04 #@! TF.CreationDate,2019-09-12T13:39:22+03:00*
G04 #@! TF.ProjectId,USB-GIGABIT_Rev_C,5553422d-4749-4474-9142-49545f526576,rev?*
G04 #@! TF.SameCoordinates,Original*
G04 #@! TF.FileFunction,Copper,L1,Top*
G04 #@! TF.FilePolarity,Positive*
%FSLAX46Y46*%
G04 Gerber Fmt 4.6, Leading zero omitted, Abs format (unit mm)*
G04 Created by KiCad (PCBNEW 5.99.0-unknown-efbc802~86~ubuntu18.04.1) date 2019-09-12 13:39:22*
%MOMM*%
%LPD*%
G04 APERTURE LIST*
%ADD10O,4.000000X1.600000*%
%ADD11O,1.800000X1.800000*%
%ADD12R,2.330000X2.330000*%
%ADD13R,0.200000X0.800000*%
%ADD14R,0.800000X0.200000*%
%ADD15R,0.500000X0.550000*%
%ADD16C,0.600000*%
%ADD17C,1.000000*%
%ADD18R,1.050000X1.270000*%
%ADD19R,0.550000X0.500000*%
%ADD20R,1.016000X1.778000*%
%ADD21C,2.400000*%
%ADD22C,1.650000*%
%ADD23R,1.270000X1.524000*%
%ADD24R,1.016000X1.016000*%
%ADD25R,1.400000X1.200000*%
%ADD26C,0.700000*%
%ADD27C,0.304800*%
%ADD28C,0.199900*%
%ADD29C,0.154940*%
%ADD30C,0.508000*%
%ADD31C,0.180000*%
%ADD32C,0.762000*%
%ADD33C,0.203200*%
%ADD34C,0.200000*%
%ADD35C,0.250000*%
%ADD36C,0.177800*%
G04 APERTURE END LIST*
D10*
X104200000Y-64150000D03*
X104200000Y-75850000D03*
D11*
X83500000Y-70405500D03*
D12*
X82335000Y-71570500D03*
X82335000Y-69240500D03*
X84665000Y-69240500D03*
X84665000Y-71570500D03*
D13*
X81300000Y-67485500D03*
X81700000Y-67485500D03*
X82100000Y-67485500D03*
X82500000Y-67485500D03*
X82900000Y-67485500D03*
X83300000Y-67485500D03*
X83700000Y-67485500D03*
X84100000Y-67485500D03*
X84500000Y-67485500D03*
X84900000Y-67485500D03*
X85300000Y-67485500D03*
X85700000Y-67485500D03*
D14*
X86420000Y-68205500D03*
X86420000Y-68605500D03*
X86420000Y-69005500D03*
X86420000Y-69405500D03*
X86420000Y-69805500D03*
X86420000Y-70205500D03*
X86420000Y-70605500D03*
X86420000Y-71005500D03*
X86420000Y-71405500D03*
X86420000Y-71805500D03*
X86420000Y-72205500D03*
X86420000Y-72605500D03*
D13*
X85700000Y-73325500D03*
X85300000Y-73325500D03*
X84900000Y-73325500D03*
X84500000Y-73325500D03*
X84100000Y-73325500D03*
X83700000Y-73325500D03*
X83300000Y-73325500D03*
X82900000Y-73325500D03*
X82500000Y-73325500D03*
X82100000Y-73325500D03*
X81700000Y-73325500D03*
X81300000Y-73325500D03*
D14*
X80580000Y-72605500D03*
X80580000Y-72205500D03*
X80580000Y-71805500D03*
X80580000Y-71405500D03*
X80580000Y-71005500D03*
X80580000Y-70605500D03*
X80580000Y-70205500D03*
X80580000Y-69805500D03*
X80580000Y-69405500D03*
X80580000Y-69005500D03*
X80580000Y-68605500D03*
X80580000Y-68205500D03*
D15*
X89331800Y-68338700D03*
X88315800Y-68338700D03*
D16*
X62450000Y-67200000D03*
X59055000Y-66675000D03*
X58610500Y-73914000D03*
X62750000Y-73850000D03*
X73342500Y-76517500D03*
X74993500Y-67881500D03*
X91150000Y-66600000D03*
X90050000Y-66600000D03*
X80250000Y-75700000D03*
X78422500Y-75184000D03*
X93600000Y-67500000D03*
X95200000Y-64600000D03*
X73150000Y-66100000D03*
X73000000Y-69650000D03*
X73723500Y-73533000D03*
D15*
X88642000Y-71750000D03*
X89658000Y-71750000D03*
D17*
X56850000Y-69850000D03*
X104850000Y-78200000D03*
X104500000Y-62000000D03*
D18*
X62484000Y-68541900D03*
X64516000Y-68541900D03*
X62509400Y-70675500D03*
X64541400Y-70675500D03*
X98996500Y-62547500D03*
X101028500Y-62547500D03*
D15*
X72461500Y-61642500D03*
X71445500Y-61642500D03*
D19*
X85098000Y-62722000D03*
X85098000Y-61706000D03*
X79319500Y-63166500D03*
X79319500Y-64182500D03*
D20*
X70278000Y-78000000D03*
X66722000Y-78000000D03*
D15*
X89695400Y-72800000D03*
X88679400Y-72800000D03*
D21*
X64389500Y-77747000D03*
X64389500Y-62253000D03*
D22*
X56769500Y-76731000D03*
X58801500Y-76731000D03*
X56769500Y-63269000D03*
X58801500Y-63269000D03*
X70231500Y-75715000D03*
X67691500Y-74445000D03*
X70231500Y-73175000D03*
X67691500Y-71905000D03*
X70231500Y-70635000D03*
X67691500Y-69365000D03*
X70231500Y-68095000D03*
X67691500Y-66825000D03*
X70231500Y-65555000D03*
X67691500Y-64285000D03*
D23*
X98996500Y-77533500D03*
X101028500Y-77533500D03*
D24*
X77795500Y-62658500D03*
X77795500Y-64436500D03*
D19*
X88350000Y-65358000D03*
X88350000Y-64342000D03*
X87249000Y-65358000D03*
X87249000Y-64342000D03*
D24*
X61074300Y-70688200D03*
X59296300Y-70688200D03*
X60985400Y-68541900D03*
X59207400Y-68541900D03*
D25*
X81132500Y-62369800D03*
X83332500Y-63969800D03*
X83332500Y-62369800D03*
X81132500Y-63969800D03*
D26*
X66850000Y-61400000D03*
X61350000Y-78550000D03*
X59250000Y-78450000D03*
X59300000Y-61550000D03*
X61350000Y-61550000D03*
X86500000Y-61900000D03*
X81754942Y-66156343D03*
X93446600Y-68491100D03*
X91020900Y-77851000D03*
X97409000Y-68516500D03*
X88350001Y-63600000D03*
X93000000Y-65550000D03*
X97395200Y-63650000D03*
X87650000Y-68650000D03*
X92050000Y-61600000D03*
X92130343Y-69396500D03*
X84219221Y-65591605D03*
X86277998Y-63593899D03*
X85166192Y-65246747D03*
X86443988Y-64547064D03*
X85438012Y-75297518D03*
X85916937Y-74559243D03*
X80772000Y-74053700D03*
X76296520Y-68583217D03*
X86654781Y-74079652D03*
X84707225Y-75787794D03*
X77114400Y-72326500D03*
X94742000Y-76517500D03*
X88164672Y-74819235D03*
X77393800Y-66535300D03*
X73304400Y-61861700D03*
X79733345Y-68033100D03*
X83277947Y-65414012D03*
X87895878Y-71691651D03*
X87083900Y-73240900D03*
X79260700Y-73583800D03*
X71348600Y-77939900D03*
X91059000Y-76517500D03*
X97536000Y-77851000D03*
X103568500Y-66675000D03*
X103441500Y-70294500D03*
X98950000Y-64000000D03*
X79438500Y-66484500D03*
X62534800Y-69596000D03*
X76717018Y-65332482D03*
X70815200Y-61734700D03*
X90652600Y-72453500D03*
X89890601Y-68745100D03*
X78650000Y-61200002D03*
X82185876Y-76164124D03*
X81514124Y-76835876D03*
X95906237Y-67330697D03*
X96577989Y-66658945D03*
X77749400Y-74371200D03*
D27*
X68551202Y-60950698D02*
X78667198Y-60950698D01*
X63234499Y-66267401D02*
X68551202Y-60950698D01*
X86081100Y-62318900D02*
X86150001Y-62249999D01*
X85813900Y-62318900D02*
X86081100Y-62318900D01*
D28*
X87249000Y-62649000D02*
X86849999Y-62249999D01*
X87249000Y-64342000D02*
X87249000Y-62649000D01*
D27*
X86150001Y-62249999D02*
X86500000Y-61900000D01*
D28*
X86849999Y-62249999D02*
X86500000Y-61900000D01*
X81700000Y-67485500D02*
X81700000Y-67001759D01*
X81700000Y-67001759D02*
X79383092Y-64684851D01*
X79383092Y-64684851D02*
X78751751Y-64684851D01*
X78751751Y-64684851D02*
X78503400Y-64436500D01*
X78503400Y-64436500D02*
X77795500Y-64436500D01*
X81300000Y-67100000D02*
X80666445Y-67100000D01*
X81300000Y-67485500D02*
X81300000Y-67100000D01*
X80666445Y-67100000D02*
X79733345Y-68033100D01*
D29*
X82900000Y-66008530D02*
X82245200Y-65353730D01*
X82900000Y-67485500D02*
X82900000Y-66008530D01*
X82500000Y-66043189D02*
X81836411Y-65379600D01*
X82500000Y-67485500D02*
X82500000Y-66043189D01*
X81836411Y-65379600D02*
X81637500Y-65379600D01*
D28*
X82100000Y-66501401D02*
X81754942Y-66156343D01*
D29*
X82245200Y-65353730D02*
X82245200Y-65176400D01*
D28*
X82100000Y-67485500D02*
X82100000Y-66501401D01*
D27*
X81121999Y-73703701D02*
X81253701Y-73703701D01*
X80772000Y-74053700D02*
X81121999Y-73703701D01*
X81253701Y-73703701D02*
X81295199Y-73662203D01*
X86304782Y-73729653D02*
X85770347Y-73729653D01*
X86654781Y-74079652D02*
X86304782Y-73729653D01*
X85770347Y-73729653D02*
X85715055Y-73784945D01*
X84707225Y-75787794D02*
X84271064Y-75351633D01*
X84271064Y-75351633D02*
X84271064Y-74050796D01*
X84271064Y-74050796D02*
X84198119Y-73977851D01*
D28*
X84100000Y-73879732D02*
X84198119Y-73977851D01*
X84100000Y-73325500D02*
X84100000Y-73879732D01*
X84198119Y-73977851D02*
X84271064Y-73977851D01*
X86855500Y-72605500D02*
X87083900Y-72833900D01*
X86420000Y-72605500D02*
X86855500Y-72605500D01*
X87083900Y-72833900D02*
X87083900Y-73240900D01*
X85700000Y-73800000D02*
X86375129Y-73800000D01*
X85700000Y-73325500D02*
X85700000Y-73800000D01*
X86375129Y-73800000D02*
X86654781Y-74079652D01*
X86420000Y-72205500D02*
X87010893Y-72205500D01*
X87010893Y-72205500D02*
X87769700Y-72964307D01*
D27*
X87769700Y-74180700D02*
X87769700Y-72964307D01*
D29*
X86420000Y-70605500D02*
X91820401Y-70605500D01*
X93096601Y-69329300D02*
X93096601Y-68841099D01*
X91820401Y-70605500D02*
X93096601Y-69329300D01*
X93096601Y-68841099D02*
X93446600Y-68491100D01*
D30*
X91370899Y-77501001D02*
X91020900Y-77851000D01*
X97409000Y-71462900D02*
X91370899Y-77501001D01*
X97409000Y-68516500D02*
X97409000Y-71462900D01*
D29*
X86420000Y-71805500D02*
X87151517Y-71805500D01*
X87151517Y-71805500D02*
X88146017Y-72800000D01*
X88146017Y-72800000D02*
X88274460Y-72800000D01*
X88274460Y-72800000D02*
X88679400Y-72800000D01*
X88123741Y-72800000D02*
X88679400Y-72800000D01*
X88642000Y-71750000D02*
X87954227Y-71750000D01*
X87954227Y-71750000D02*
X87895878Y-71691651D01*
X89355500Y-71005500D02*
X89658000Y-71308000D01*
X86420000Y-71005500D02*
X89355500Y-71005500D01*
X89658000Y-71308000D02*
X89658000Y-71750000D01*
D30*
X77393800Y-66535300D02*
X76800362Y-66535300D01*
X76800362Y-66535300D02*
X73304400Y-63039338D01*
X73304400Y-63039338D02*
X73304400Y-62356674D01*
X73304400Y-62356674D02*
X73304400Y-61861700D01*
D28*
X85700000Y-67000000D02*
X87249000Y-65451000D01*
X87249000Y-65451000D02*
X87249000Y-65358000D01*
X85700000Y-67485500D02*
X85700000Y-67000000D01*
X88350000Y-65358000D02*
X87249000Y-65358000D01*
X88350001Y-63600000D02*
X88350001Y-64341999D01*
X88350001Y-64341999D02*
X88350000Y-64342000D01*
X87249000Y-64338200D02*
X87330200Y-64338200D01*
X86420000Y-69405500D02*
X89230201Y-69405500D01*
X89230201Y-69405500D02*
X89890601Y-68745100D01*
X88315800Y-68338700D02*
X87961300Y-68338700D01*
X87961300Y-68338700D02*
X87650000Y-68650000D01*
X86420000Y-68605500D02*
X87605500Y-68605500D01*
X87605500Y-68605500D02*
X87650000Y-68650000D01*
D30*
X87668200Y-68650000D02*
X87650000Y-68650000D01*
D28*
X86420000Y-69005500D02*
X87294500Y-69005500D01*
X87294500Y-69005500D02*
X87300001Y-68999999D01*
X87300001Y-68999999D02*
X87650000Y-68650000D01*
D27*
X78727300Y-60947300D02*
X88652654Y-60947300D01*
X78689200Y-60985400D02*
X78727300Y-60947300D01*
X88652654Y-60947300D02*
X89150000Y-61444646D01*
X89150000Y-66950000D02*
X89435951Y-67235951D01*
X89150000Y-61444646D02*
X89150000Y-66950000D01*
X89435951Y-67235951D02*
X89743520Y-67235951D01*
D28*
X91321343Y-70205500D02*
X92130343Y-69396500D01*
X86420000Y-70205500D02*
X91321343Y-70205500D01*
X83700000Y-66110826D02*
X84219221Y-65591605D01*
X83700000Y-67485500D02*
X83700000Y-66110826D01*
X85927999Y-63943898D02*
X86277998Y-63593899D01*
X84500000Y-67485500D02*
X84500000Y-66964074D01*
X84500000Y-66964074D02*
X85796152Y-65667922D01*
X85796152Y-65667922D02*
X85796152Y-64075745D01*
X85796152Y-64075745D02*
X85927999Y-63943898D01*
X85140800Y-65272139D02*
X85166192Y-65246747D01*
X85140800Y-65786000D02*
X85140800Y-65272139D01*
X84100000Y-66826800D02*
X85140800Y-65786000D01*
X84100000Y-67485500D02*
X84100000Y-66826800D01*
X85300000Y-66701348D02*
X86184656Y-65816692D01*
X85300000Y-67485500D02*
X85300000Y-66701348D01*
X86443988Y-65042038D02*
X86443988Y-64547064D01*
X86184656Y-65301370D02*
X86443988Y-65042038D01*
X86184656Y-65816692D02*
X86184656Y-65301370D01*
X84900000Y-73325500D02*
X84900000Y-74759506D01*
X84900000Y-74759506D02*
X85088013Y-74947519D01*
X85088013Y-74947519D02*
X85438012Y-75297518D01*
X85300000Y-73942306D02*
X85566938Y-74209244D01*
X85566938Y-74209244D02*
X85916937Y-74559243D01*
X85300000Y-73325500D02*
X85300000Y-73942306D01*
D27*
X59232800Y-70688200D02*
X59296300Y-70688200D01*
X56769500Y-73151500D02*
X59232800Y-70688200D01*
X56769500Y-76731000D02*
X56769500Y-73151500D01*
X56769500Y-66916800D02*
X58394600Y-68541900D01*
X58394600Y-68541900D02*
X59207400Y-68541900D01*
X56769500Y-63269000D02*
X56769500Y-66916800D01*
X78667198Y-60950698D02*
X78689200Y-60972700D01*
D29*
X90498071Y-69100187D02*
X90498071Y-67990502D01*
X90498071Y-67990502D02*
X89743520Y-67235951D01*
X89792758Y-69805500D02*
X90498071Y-69100187D01*
X86420000Y-69805500D02*
X89792758Y-69805500D01*
D31*
X80580000Y-71005500D02*
X79979999Y-71005500D01*
X79979999Y-71005500D02*
X79959999Y-70985500D01*
X72040306Y-70985500D02*
X70915814Y-72109992D01*
X79959999Y-70985500D02*
X72040306Y-70985500D01*
X70915814Y-72109992D02*
X70281068Y-72109992D01*
X70281068Y-72109992D02*
X70231500Y-72159559D01*
X70231500Y-72159559D02*
X70231500Y-73175000D01*
X80580000Y-70605500D02*
X79979999Y-70605500D01*
X79959999Y-70625500D02*
X71891202Y-70625500D01*
X70131940Y-71750001D02*
X69976941Y-71905000D01*
X70766701Y-71750001D02*
X70131940Y-71750001D01*
X71891202Y-70625500D02*
X70766701Y-71750001D01*
X79979999Y-70605500D02*
X79959999Y-70625500D01*
X69976941Y-71905000D02*
X67691500Y-71905000D01*
X79959999Y-70185500D02*
X74731540Y-70185500D01*
X79979999Y-70205500D02*
X79959999Y-70185500D01*
X80580000Y-70205500D02*
X79979999Y-70205500D01*
X71141500Y-67185000D02*
X70231500Y-68095000D01*
X71731040Y-67185000D02*
X71141500Y-67185000D01*
X74731540Y-70185500D02*
X71731040Y-67185000D01*
X79959999Y-69825500D02*
X74880660Y-69825500D01*
X79979999Y-69805500D02*
X79959999Y-69825500D01*
X80580000Y-69805500D02*
X79979999Y-69805500D01*
X71141500Y-66825000D02*
X67691500Y-66825000D01*
X71880160Y-66825000D02*
X71141500Y-66825000D01*
X74880660Y-69825500D02*
X71880160Y-66825000D01*
D28*
X81300000Y-73525700D02*
X80772000Y-74053700D01*
X81300000Y-73325500D02*
X81300000Y-73525700D01*
X80580000Y-69405500D02*
X77118803Y-69405500D01*
X77118803Y-69405500D02*
X76646519Y-68933216D01*
X76646519Y-68933216D02*
X76296520Y-68583217D01*
X80580000Y-71405500D02*
X78035400Y-71405500D01*
X77464399Y-71976501D02*
X77114400Y-72326500D01*
X78035400Y-71405500D02*
X77464399Y-71976501D01*
D30*
X87769700Y-74371200D02*
X88201500Y-74803000D01*
X87769700Y-74180700D02*
X87769700Y-74371200D01*
D32*
X66469000Y-77747000D02*
X66722000Y-78000000D01*
X64389500Y-77747000D02*
X66469000Y-77747000D01*
D27*
X81132500Y-64874600D02*
X81637500Y-65379600D01*
X81132500Y-63969800D02*
X81132500Y-64874600D01*
X80940400Y-64182500D02*
X79319500Y-64182500D01*
X81140300Y-63982600D02*
X80940400Y-64182500D01*
X81140300Y-63977600D02*
X81140300Y-63982600D01*
X81132500Y-63969800D02*
X81140300Y-63977600D01*
D29*
X83232500Y-62369800D02*
X83332500Y-62369800D01*
D27*
X83034178Y-62369800D02*
X82245200Y-63158778D01*
X83332500Y-62369800D02*
X83034178Y-62369800D01*
X82245200Y-63158778D02*
X82245200Y-65176400D01*
X83537300Y-62722000D02*
X85098000Y-62722000D01*
X83332500Y-62517200D02*
X83537300Y-62722000D01*
X83332500Y-62369800D02*
X83332500Y-62517200D01*
X72461500Y-61642500D02*
X73085200Y-61642500D01*
X73085200Y-61642500D02*
X73304400Y-61861700D01*
D28*
X79905745Y-68205500D02*
X79733345Y-68033100D01*
X80580000Y-68205500D02*
X79905745Y-68205500D01*
X83286600Y-65422665D02*
X83277947Y-65414012D01*
X83286600Y-67472100D02*
X83286600Y-65422665D01*
X83300000Y-67485500D02*
X83286600Y-67472100D01*
X87609727Y-71405500D02*
X87895878Y-71691651D01*
X86420000Y-71405500D02*
X87609727Y-71405500D01*
X80239000Y-72605500D02*
X79260700Y-73583800D01*
X80580000Y-72605500D02*
X80239000Y-72605500D01*
D30*
X102631000Y-64150000D02*
X104203500Y-64150000D01*
X101028500Y-62547500D02*
X102631000Y-64150000D01*
X101886500Y-75850000D02*
X104203500Y-75850000D01*
X101028500Y-76708000D02*
X101886500Y-75850000D01*
X101028500Y-77533500D02*
X101028500Y-76708000D01*
X104203500Y-74542000D02*
X104203500Y-75850000D01*
X105137501Y-73607999D02*
X104203500Y-74542000D01*
X105137501Y-66392001D02*
X105137501Y-73607999D01*
X104203500Y-65458000D02*
X105137501Y-66392001D01*
X104203500Y-64150000D02*
X104203500Y-65458000D01*
D27*
X70191000Y-70675500D02*
X70231500Y-70635000D01*
X64541400Y-70675500D02*
X70191000Y-70675500D01*
D28*
X82500000Y-71735500D02*
X82335000Y-71570500D01*
X82500000Y-73325500D02*
X82500000Y-71735500D01*
X82900000Y-72135500D02*
X82335000Y-71570500D01*
X82900000Y-73325500D02*
X82900000Y-72135500D01*
X84500000Y-71735500D02*
X84665000Y-71570500D01*
X84500000Y-73325500D02*
X84500000Y-71735500D01*
D27*
X71288500Y-78000000D02*
X71348600Y-77939900D01*
X70278000Y-78000000D02*
X71288500Y-78000000D01*
D30*
X97853500Y-77533500D02*
X97536000Y-77851000D01*
X98996500Y-77533500D02*
X97853500Y-77533500D01*
D27*
X79319500Y-63166500D02*
X79319500Y-62611700D01*
X79391800Y-62684000D02*
X79319500Y-62611700D01*
X81140500Y-62684000D02*
X79391800Y-62684000D01*
X81140500Y-61779200D02*
X81140500Y-62684000D01*
X70890700Y-61642500D02*
X70815200Y-61718000D01*
X70815200Y-61718000D02*
X70815200Y-61734700D01*
X71445500Y-61642500D02*
X70890700Y-61642500D01*
D30*
X59055000Y-66675000D02*
X59067700Y-66675000D01*
D28*
X83448873Y-64392373D02*
X83564891Y-64392373D01*
X83340500Y-64284000D02*
X83448873Y-64392373D01*
D30*
X83332500Y-63969800D02*
X84975800Y-63969800D01*
X84975800Y-63969800D02*
X85372593Y-63573007D01*
D27*
X85677800Y-61706000D02*
X85098000Y-61706000D01*
X85813900Y-61842100D02*
X85677800Y-61706000D01*
X85372593Y-63489350D02*
X85813900Y-63048043D01*
X85372593Y-63573007D02*
X85372593Y-63489350D01*
X90649300Y-72450200D02*
X90652600Y-72453500D01*
X85813900Y-63048043D02*
X85813900Y-62318900D01*
X85813900Y-62318900D02*
X85813900Y-61842100D01*
X77811500Y-62674500D02*
X77795500Y-62658500D01*
X79255300Y-62674500D02*
X77811500Y-62674500D01*
X79318800Y-62611000D02*
X79255300Y-62674500D01*
X79319500Y-62611700D02*
X79318800Y-62611000D01*
X79971900Y-61442600D02*
X79375000Y-62039500D01*
X81153000Y-61442600D02*
X79971900Y-61442600D01*
X81153000Y-61766700D02*
X81153000Y-61442600D01*
X81140500Y-61779200D02*
X81153000Y-61766700D01*
X81140500Y-61432111D02*
X81140500Y-61779200D01*
X84244311Y-61432111D02*
X81140500Y-61432111D01*
X84518200Y-61706000D02*
X84244311Y-61432111D01*
X89484201Y-68338700D02*
X89890601Y-68745100D01*
X89331800Y-68338700D02*
X89484201Y-68338700D01*
D30*
X66868400Y-68541900D02*
X67691500Y-69365000D01*
X64516000Y-68541900D02*
X66868400Y-68541900D01*
D33*
X87274000Y-64338200D02*
X87249000Y-64338200D01*
D31*
X68516499Y-63460001D02*
X67691500Y-64285000D01*
X79946388Y-68653110D02*
X77976014Y-68653110D01*
X71969000Y-63817500D02*
X71056499Y-64730001D01*
X77819300Y-69005500D02*
X72631300Y-63817500D01*
X71056499Y-64730001D02*
X70231500Y-65555000D01*
X68518991Y-63457509D02*
X68516499Y-63460001D01*
X72631300Y-63817500D02*
X71969000Y-63817500D01*
X79993998Y-68605500D02*
X79946388Y-68653110D01*
X80580000Y-69005500D02*
X77819300Y-69005500D01*
X72780413Y-63457509D02*
X68518991Y-63457509D01*
X77976014Y-68653110D02*
X72780413Y-63457509D01*
X80580000Y-68605500D02*
X79993998Y-68605500D01*
D28*
X78650000Y-60967896D02*
X78667198Y-60950698D01*
X78650000Y-61200002D02*
X78650000Y-60967896D01*
D34*
X81964124Y-75942372D02*
X81964124Y-74398262D01*
X82185876Y-76164124D02*
X81964124Y-75942372D01*
X81514124Y-76835876D02*
X81514124Y-75942372D01*
X81514124Y-75942372D02*
X81514124Y-74211862D01*
D28*
X82100000Y-74262386D02*
X82100000Y-73325500D01*
X81964124Y-74398262D02*
X82100000Y-74262386D01*
X81700000Y-74025986D02*
X81700000Y-73325500D01*
X81514124Y-74211862D02*
X81700000Y-74025986D01*
D34*
X84293200Y-76725000D02*
X83747650Y-76179450D01*
X94475000Y-70406800D02*
X88156800Y-76725000D01*
X94922855Y-66658945D02*
X94475000Y-67106800D01*
X88156800Y-76725000D02*
X84293200Y-76725000D01*
X96577989Y-66658945D02*
X94922855Y-66658945D01*
X94475000Y-67106800D02*
X94475000Y-70406800D01*
X83297650Y-76365850D02*
X83297650Y-74202902D01*
X84106800Y-77175000D02*
X83297650Y-76365850D01*
X88343200Y-77175000D02*
X84106800Y-77175000D01*
X83747650Y-76179450D02*
X83747650Y-74202902D01*
X95906237Y-67330697D02*
X95684485Y-67108945D01*
X95684485Y-67108945D02*
X95109255Y-67108945D01*
X95109255Y-67108945D02*
X94925000Y-67293200D01*
X94925000Y-67293200D02*
X94925000Y-70593200D01*
X94925000Y-70593200D02*
X88343200Y-77175000D01*
D28*
X83700000Y-74155252D02*
X83747650Y-74202902D01*
X83700000Y-73325500D02*
X83700000Y-74155252D01*
X83300000Y-74200552D02*
X83297650Y-74202902D01*
X83300000Y-73325500D02*
X83300000Y-74200552D01*
X84830000Y-69405500D02*
X84665000Y-69240500D01*
X86420000Y-69405500D02*
X84830000Y-69405500D01*
D35*
X63234499Y-66267401D02*
X62434399Y-66267401D01*
X60985400Y-67716400D02*
X60985400Y-68541900D01*
X62434399Y-66267401D02*
X60985400Y-67716400D01*
D27*
X61074300Y-70688200D02*
X61074300Y-72377300D01*
X61074300Y-72377300D02*
X61760100Y-73063100D01*
X61760100Y-73063100D02*
X62877700Y-73063100D01*
X62484000Y-69545200D02*
X62534800Y-69596000D01*
X62484000Y-68541900D02*
X62484000Y-69545200D01*
X62534800Y-70650100D02*
X62509400Y-70675500D01*
X62534800Y-69596000D02*
X62534800Y-70650100D01*
D31*
X80580000Y-72205500D02*
X78563064Y-72205500D01*
X75853464Y-74445000D02*
X68858226Y-74445000D01*
D35*
X72821800Y-75819000D02*
X76301600Y-75819000D01*
D31*
X71056499Y-74890001D02*
X70231500Y-75715000D01*
X68858226Y-74445000D02*
X67691500Y-74445000D01*
D35*
X76301600Y-75819000D02*
X77399401Y-74721199D01*
D31*
X75878563Y-74890001D02*
X71056499Y-74890001D01*
D35*
X71823399Y-76817401D02*
X72821800Y-75819000D01*
D31*
X80580000Y-71805500D02*
X78492964Y-71805500D01*
D35*
X77399401Y-74721199D02*
X77749400Y-74371200D01*
X66632001Y-76817401D02*
X71823399Y-76817401D01*
X62877700Y-73063100D02*
X66632001Y-76817401D01*
D31*
X78492964Y-71805500D02*
X75853464Y-74445000D01*
X78563064Y-72205500D02*
X75878563Y-74890001D01*
D36*
G36*
X57812870Y-63898826D02*
G01*
X57949804Y-64074409D01*
X58117469Y-64220930D01*
X58309816Y-64333103D01*
X58519903Y-64406880D01*
X58740152Y-64439601D01*
X58962613Y-64430082D01*
X59179262Y-64378669D01*
X59348319Y-64302515D01*
X59357917Y-64518017D01*
X59412331Y-64801919D01*
X59507157Y-65074993D01*
X59640411Y-65331517D01*
X59809300Y-65566118D01*
X60010286Y-65773882D01*
X60239159Y-65950456D01*
X60491124Y-66092141D01*
X60760903Y-66195970D01*
X61042844Y-66259767D01*
X61331043Y-66282196D01*
X61619459Y-66262786D01*
X61822411Y-66219093D01*
X60687769Y-67353735D01*
X60648783Y-67379784D01*
X60545590Y-67534227D01*
X60525344Y-67636011D01*
X60515196Y-67687024D01*
X60468743Y-67687024D01*
X60343997Y-67711837D01*
X60230904Y-67787404D01*
X60155337Y-67900497D01*
X60130524Y-68025243D01*
X60130524Y-69058557D01*
X60155337Y-69183303D01*
X60230904Y-69296396D01*
X60343997Y-69371963D01*
X60468743Y-69396776D01*
X61411078Y-69396776D01*
X61432411Y-69476392D01*
X61555211Y-69622739D01*
X61520872Y-69651553D01*
X61415927Y-69833324D01*
X60557643Y-69833324D01*
X60432897Y-69858137D01*
X60319804Y-69933704D01*
X60244237Y-70046797D01*
X60219424Y-70171543D01*
X60219424Y-71204857D01*
X60244237Y-71329603D01*
X60319804Y-71442696D01*
X60432897Y-71518263D01*
X60557643Y-71543076D01*
X60580000Y-71543076D01*
X60580001Y-72328620D01*
X60570318Y-72377300D01*
X60608681Y-72570166D01*
X60675417Y-72670042D01*
X60717931Y-72733669D01*
X60759196Y-72761242D01*
X61376157Y-73378203D01*
X61403731Y-73419469D01*
X61452197Y-73451854D01*
X61567234Y-73528721D01*
X61611135Y-73537451D01*
X61611135Y-73537452D01*
X61711419Y-73557400D01*
X61711424Y-73557400D01*
X61760100Y-73567082D01*
X61808776Y-73557400D01*
X62711704Y-73557400D01*
X63137966Y-73983662D01*
X63143698Y-74866322D01*
X63088310Y-74746727D01*
X62930238Y-74504706D01*
X62738884Y-74288039D01*
X62518256Y-74101264D01*
X62272978Y-73948295D01*
X62008187Y-73832335D01*
X61729429Y-73755813D01*
X61442546Y-73720335D01*
X61153545Y-73726641D01*
X60868481Y-73774599D01*
X60593328Y-73863207D01*
X60333845Y-73990606D01*
X60095473Y-74154130D01*
X59883203Y-74350350D01*
X59701482Y-74575157D01*
X59554116Y-74823843D01*
X59444194Y-75091198D01*
X59374017Y-75371620D01*
X59345055Y-75659234D01*
X59346751Y-75697303D01*
X59187000Y-75623995D01*
X58970716Y-75571071D01*
X58748326Y-75560000D01*
X58527854Y-75591181D01*
X58317256Y-75663490D01*
X58124131Y-75774318D01*
X57955447Y-75919664D01*
X57817291Y-76094287D01*
X57786012Y-76154502D01*
X57691951Y-76007706D01*
X57538538Y-75846324D01*
X57357375Y-75716863D01*
X57263800Y-75673922D01*
X57263800Y-73356245D01*
X59076970Y-71543076D01*
X59812957Y-71543076D01*
X59937703Y-71518263D01*
X60050796Y-71442696D01*
X60126363Y-71329603D01*
X60151176Y-71204857D01*
X60151176Y-70171543D01*
X60126363Y-70046797D01*
X60050796Y-69933704D01*
X59937703Y-69858137D01*
X59812957Y-69833324D01*
X58779643Y-69833324D01*
X58654897Y-69858137D01*
X58541804Y-69933704D01*
X58466237Y-70046797D01*
X58441424Y-70171543D01*
X58441424Y-70780530D01*
X56454398Y-72767557D01*
X56413132Y-72795131D01*
X56385556Y-72836400D01*
X56303881Y-72958634D01*
X56265518Y-73151500D01*
X56275201Y-73200180D01*
X56275200Y-75669262D01*
X56092131Y-75774318D01*
X55923447Y-75919664D01*
X55785291Y-76094287D01*
X55682648Y-76291884D01*
X55619222Y-76505325D01*
X55597300Y-76726908D01*
X55617674Y-76948640D01*
X55679610Y-77162518D01*
X55780870Y-77360826D01*
X55917804Y-77536409D01*
X56085469Y-77682930D01*
X56277816Y-77795103D01*
X56487903Y-77868880D01*
X56708152Y-77901601D01*
X56930613Y-77892082D01*
X57147262Y-77840669D01*
X57350281Y-77749216D01*
X57532342Y-77621023D01*
X57686879Y-77460717D01*
X57786049Y-77308299D01*
X57812870Y-77360826D01*
X57949804Y-77536409D01*
X58117469Y-77682930D01*
X58309816Y-77795103D01*
X58519903Y-77868880D01*
X58740152Y-77901601D01*
X58962613Y-77892082D01*
X59179262Y-77840669D01*
X59382281Y-77749216D01*
X59564342Y-77621023D01*
X59718879Y-77460717D01*
X59840314Y-77274079D01*
X59910767Y-77101007D01*
X60010286Y-77203882D01*
X60239159Y-77380456D01*
X60491124Y-77522141D01*
X60760903Y-77625970D01*
X61042844Y-77689767D01*
X61331043Y-77712196D01*
X61619459Y-77692786D01*
X61902055Y-77631946D01*
X62172905Y-77530947D01*
X62426341Y-77391909D01*
X62657050Y-77217740D01*
X62860200Y-77012093D01*
X63031537Y-76779273D01*
X63154619Y-76548275D01*
X63156381Y-76819550D01*
X63111378Y-76875124D01*
X62986140Y-77095582D01*
X62898591Y-77333535D01*
X62851081Y-77582591D01*
X62844886Y-77836062D01*
X62880173Y-78087142D01*
X62955993Y-78329087D01*
X63070312Y-78555400D01*
X63220059Y-78760002D01*
X63401212Y-78937399D01*
X63608905Y-79082828D01*
X63766010Y-79158100D01*
X55341900Y-79158100D01*
X55341900Y-70400092D01*
X55416268Y-70580523D01*
X55551508Y-70800352D01*
X55720155Y-70995731D01*
X55917870Y-71161634D01*
X56139566Y-71293792D01*
X56379540Y-71388805D01*
X56631618Y-71444227D01*
X56889314Y-71458635D01*
X57145999Y-71431656D01*
X57395068Y-71363986D01*
X57630115Y-71257363D01*
X57845090Y-71114534D01*
X58034465Y-70939172D01*
X58193366Y-70735787D01*
X58317706Y-70509614D01*
X58404286Y-70266470D01*
X58450961Y-70012156D01*
X58454006Y-69721408D01*
X58412667Y-69466172D01*
X58331198Y-69221269D01*
X58221509Y-69011453D01*
X58345920Y-69036200D01*
X58345924Y-69036200D01*
X58352524Y-69037513D01*
X58352524Y-69058557D01*
X58377337Y-69183303D01*
X58452904Y-69296396D01*
X58565997Y-69371963D01*
X58690743Y-69396776D01*
X59724057Y-69396776D01*
X59848803Y-69371963D01*
X59961896Y-69296396D01*
X60037463Y-69183303D01*
X60062276Y-69058557D01*
X60062276Y-68025243D01*
X60037463Y-67900497D01*
X59961896Y-67787404D01*
X59848803Y-67711837D01*
X59724057Y-67687024D01*
X58690743Y-67687024D01*
X58565997Y-67711837D01*
X58452904Y-67787404D01*
X58407340Y-67855595D01*
X57263800Y-66712055D01*
X57263800Y-64326173D01*
X57350281Y-64287216D01*
X57532342Y-64159023D01*
X57686879Y-63998717D01*
X57786049Y-63846299D01*
X57812870Y-63898826D01*
X57812870Y-63898826D01*
G37*
X57812870Y-63898826D02*
X57949804Y-64074409D01*
X58117469Y-64220930D01*
X58309816Y-64333103D01*
X58519903Y-64406880D01*
X58740152Y-64439601D01*
X58962613Y-64430082D01*
X59179262Y-64378669D01*
X59348319Y-64302515D01*
X59357917Y-64518017D01*
X59412331Y-64801919D01*
X59507157Y-65074993D01*
X59640411Y-65331517D01*
X59809300Y-65566118D01*
X60010286Y-65773882D01*
X60239159Y-65950456D01*
X60491124Y-66092141D01*
X60760903Y-66195970D01*
X61042844Y-66259767D01*
X61331043Y-66282196D01*
X61619459Y-66262786D01*
X61822411Y-66219093D01*
X60687769Y-67353735D01*
X60648783Y-67379784D01*
X60545590Y-67534227D01*
X60525344Y-67636011D01*
X60515196Y-67687024D01*
X60468743Y-67687024D01*
X60343997Y-67711837D01*
X60230904Y-67787404D01*
X60155337Y-67900497D01*
X60130524Y-68025243D01*
X60130524Y-69058557D01*
X60155337Y-69183303D01*
X60230904Y-69296396D01*
X60343997Y-69371963D01*
X60468743Y-69396776D01*
X61411078Y-69396776D01*
X61432411Y-69476392D01*
X61555211Y-69622739D01*
X61520872Y-69651553D01*
X61415927Y-69833324D01*
X60557643Y-69833324D01*
X60432897Y-69858137D01*
X60319804Y-69933704D01*
X60244237Y-70046797D01*
X60219424Y-70171543D01*
X60219424Y-71204857D01*
X60244237Y-71329603D01*
X60319804Y-71442696D01*
X60432897Y-71518263D01*
X60557643Y-71543076D01*
X60580000Y-71543076D01*
X60580001Y-72328620D01*
X60570318Y-72377300D01*
X60608681Y-72570166D01*
X60675417Y-72670042D01*
X60717931Y-72733669D01*
X60759196Y-72761242D01*
X61376157Y-73378203D01*
X61403731Y-73419469D01*
X61452197Y-73451854D01*
X61567234Y-73528721D01*
X61611135Y-73537451D01*
X61611135Y-73537452D01*
X61711419Y-73557400D01*
X61711424Y-73557400D01*
X61760100Y-73567082D01*
X61808776Y-73557400D01*
X62711704Y-73557400D01*
X63137966Y-73983662D01*
X63143698Y-74866322D01*
X63088310Y-74746727D01*
X62930238Y-74504706D01*
X62738884Y-74288039D01*
X62518256Y-74101264D01*
X62272978Y-73948295D01*
X62008187Y-73832335D01*
X61729429Y-73755813D01*
X61442546Y-73720335D01*
X61153545Y-73726641D01*
X60868481Y-73774599D01*
X60593328Y-73863207D01*
X60333845Y-73990606D01*
X60095473Y-74154130D01*
X59883203Y-74350350D01*
X59701482Y-74575157D01*
X59554116Y-74823843D01*
X59444194Y-75091198D01*
X59374017Y-75371620D01*
X59345055Y-75659234D01*
X59346751Y-75697303D01*
X59187000Y-75623995D01*
X58970716Y-75571071D01*
X58748326Y-75560000D01*
X58527854Y-75591181D01*
X58317256Y-75663490D01*
X58124131Y-75774318D01*
X57955447Y-75919664D01*
X57817291Y-76094287D01*
X57786012Y-76154502D01*
X57691951Y-76007706D01*
X57538538Y-75846324D01*
X57357375Y-75716863D01*
X57263800Y-75673922D01*
X57263800Y-73356245D01*
X59076970Y-71543076D01*
X59812957Y-71543076D01*
X59937703Y-71518263D01*
X60050796Y-71442696D01*
X60126363Y-71329603D01*
X60151176Y-71204857D01*
X60151176Y-70171543D01*
X60126363Y-70046797D01*
X60050796Y-69933704D01*
X59937703Y-69858137D01*
X59812957Y-69833324D01*
X58779643Y-69833324D01*
X58654897Y-69858137D01*
X58541804Y-69933704D01*
X58466237Y-70046797D01*
X58441424Y-70171543D01*
X58441424Y-70780530D01*
X56454398Y-72767557D01*
X56413132Y-72795131D01*
X56385556Y-72836400D01*
X56303881Y-72958634D01*
X56265518Y-73151500D01*
X56275201Y-73200180D01*
X56275200Y-75669262D01*
X56092131Y-75774318D01*
X55923447Y-75919664D01*
X55785291Y-76094287D01*
X55682648Y-76291884D01*
X55619222Y-76505325D01*
X55597300Y-76726908D01*
X55617674Y-76948640D01*
X55679610Y-77162518D01*
X55780870Y-77360826D01*
X55917804Y-77536409D01*
X56085469Y-77682930D01*
X56277816Y-77795103D01*
X56487903Y-77868880D01*
X56708152Y-77901601D01*
X56930613Y-77892082D01*
X57147262Y-77840669D01*
X57350281Y-77749216D01*
X57532342Y-77621023D01*
X57686879Y-77460717D01*
X57786049Y-77308299D01*
X57812870Y-77360826D01*
X57949804Y-77536409D01*
X58117469Y-77682930D01*
X58309816Y-77795103D01*
X58519903Y-77868880D01*
X58740152Y-77901601D01*
X58962613Y-77892082D01*
X59179262Y-77840669D01*
X59382281Y-77749216D01*
X59564342Y-77621023D01*
X59718879Y-77460717D01*
X59840314Y-77274079D01*
X59910767Y-77101007D01*
X60010286Y-77203882D01*
X60239159Y-77380456D01*
X60491124Y-77522141D01*
X60760903Y-77625970D01*
X61042844Y-77689767D01*
X61331043Y-77712196D01*
X61619459Y-77692786D01*
X61902055Y-77631946D01*
X62172905Y-77530947D01*
X62426341Y-77391909D01*
X62657050Y-77217740D01*
X62860200Y-77012093D01*
X63031537Y-76779273D01*
X63154619Y-76548275D01*
X63156381Y-76819550D01*
X63111378Y-76875124D01*
X62986140Y-77095582D01*
X62898591Y-77333535D01*
X62851081Y-77582591D01*
X62844886Y-77836062D01*
X62880173Y-78087142D01*
X62955993Y-78329087D01*
X63070312Y-78555400D01*
X63220059Y-78760002D01*
X63401212Y-78937399D01*
X63608905Y-79082828D01*
X63766010Y-79158100D01*
X55341900Y-79158100D01*
X55341900Y-70400092D01*
X55416268Y-70580523D01*
X55551508Y-70800352D01*
X55720155Y-70995731D01*
X55917870Y-71161634D01*
X56139566Y-71293792D01*
X56379540Y-71388805D01*
X56631618Y-71444227D01*
X56889314Y-71458635D01*
X57145999Y-71431656D01*
X57395068Y-71363986D01*
X57630115Y-71257363D01*
X57845090Y-71114534D01*
X58034465Y-70939172D01*
X58193366Y-70735787D01*
X58317706Y-70509614D01*
X58404286Y-70266470D01*
X58450961Y-70012156D01*
X58454006Y-69721408D01*
X58412667Y-69466172D01*
X58331198Y-69221269D01*
X58221509Y-69011453D01*
X58345920Y-69036200D01*
X58345924Y-69036200D01*
X58352524Y-69037513D01*
X58352524Y-69058557D01*
X58377337Y-69183303D01*
X58452904Y-69296396D01*
X58565997Y-69371963D01*
X58690743Y-69396776D01*
X59724057Y-69396776D01*
X59848803Y-69371963D01*
X59961896Y-69296396D01*
X60037463Y-69183303D01*
X60062276Y-69058557D01*
X60062276Y-68025243D01*
X60037463Y-67900497D01*
X59961896Y-67787404D01*
X59848803Y-67711837D01*
X59724057Y-67687024D01*
X58690743Y-67687024D01*
X58565997Y-67711837D01*
X58452904Y-67787404D01*
X58407340Y-67855595D01*
X57263800Y-66712055D01*
X57263800Y-64326173D01*
X57350281Y-64287216D01*
X57532342Y-64159023D01*
X57686879Y-63998717D01*
X57786049Y-63846299D01*
X57812870Y-63898826D01*
G36*
X103221695Y-61022662D02*
G01*
X103081881Y-61239612D01*
X102978551Y-61476123D01*
X102914366Y-61726113D01*
X102890973Y-61983150D01*
X102908977Y-62240620D01*
X102967914Y-62491898D01*
X103066268Y-62730523D01*
X103201508Y-62950352D01*
X103251355Y-63008100D01*
X102943697Y-63008100D01*
X102777132Y-63024432D01*
X102562752Y-63089157D01*
X102464910Y-63141180D01*
X101900376Y-62576646D01*
X101900376Y-61903843D01*
X101875563Y-61779097D01*
X101799996Y-61666004D01*
X101686903Y-61590437D01*
X101562157Y-61565624D01*
X100494843Y-61565624D01*
X100370097Y-61590437D01*
X100257004Y-61666004D01*
X100181437Y-61779097D01*
X100156624Y-61903843D01*
X100156624Y-63191157D01*
X100181437Y-63315903D01*
X100257004Y-63428996D01*
X100370097Y-63504563D01*
X100494843Y-63529376D01*
X101167646Y-63529376D01*
X101859851Y-64221581D01*
X101872904Y-64365005D01*
X101936131Y-64579831D01*
X102039880Y-64778286D01*
X102180200Y-64952808D01*
X102351745Y-65096752D01*
X102547984Y-65204634D01*
X102761733Y-65272440D01*
X102946880Y-65291900D01*
X103607601Y-65291900D01*
X103607601Y-65431983D01*
X103600712Y-65510737D01*
X103621173Y-65587098D01*
X103634901Y-65664953D01*
X103648211Y-65688007D01*
X103655102Y-65713722D01*
X103700446Y-65778482D01*
X103739974Y-65846946D01*
X103800517Y-65897747D01*
X104541601Y-66638832D01*
X104541601Y-66980469D01*
X104446407Y-66938978D01*
X104253223Y-66904045D01*
X104057184Y-66914491D01*
X103868805Y-66969755D01*
X103698194Y-67066873D01*
X103554499Y-67200635D01*
X103445431Y-67363867D01*
X103376840Y-67547813D01*
X103352405Y-67742603D01*
X103373437Y-67937791D01*
X103438808Y-68122905D01*
X103545010Y-68288015D01*
X103686348Y-68424265D01*
X103855239Y-68524347D01*
X104042624Y-68582890D01*
X104238450Y-68596755D01*
X104432215Y-68565199D01*
X104541601Y-68519777D01*
X104541602Y-71480468D01*
X104446407Y-71438978D01*
X104253223Y-71404045D01*
X104057184Y-71414491D01*
X103868805Y-71469755D01*
X103698194Y-71566873D01*
X103554499Y-71700635D01*
X103445431Y-71863867D01*
X103376840Y-72047813D01*
X103352405Y-72242603D01*
X103373437Y-72437791D01*
X103438808Y-72622905D01*
X103545010Y-72788015D01*
X103686348Y-72924265D01*
X103855239Y-73024347D01*
X104042624Y-73082890D01*
X104238450Y-73096755D01*
X104432215Y-73065199D01*
X104541602Y-73019777D01*
X104541602Y-73361167D01*
X103800522Y-74102248D01*
X103739973Y-74153054D01*
X103700442Y-74221523D01*
X103655101Y-74286278D01*
X103648212Y-74311990D01*
X103634900Y-74335047D01*
X103621169Y-74412916D01*
X103600712Y-74489264D01*
X103607600Y-74568007D01*
X103607600Y-74708100D01*
X102943697Y-74708100D01*
X102777132Y-74724432D01*
X102562752Y-74789157D01*
X102365028Y-74894289D01*
X102191489Y-75035824D01*
X102048745Y-75208370D01*
X102024019Y-75254100D01*
X101912504Y-75254100D01*
X101833761Y-75247212D01*
X101757408Y-75267671D01*
X101679546Y-75281400D01*
X101656488Y-75294712D01*
X101630777Y-75301601D01*
X101566031Y-75346938D01*
X101497554Y-75386473D01*
X101446748Y-75447022D01*
X100625517Y-76268253D01*
X100564974Y-76319054D01*
X100525446Y-76387518D01*
X100499465Y-76424624D01*
X100384843Y-76424624D01*
X100260097Y-76449437D01*
X100168449Y-76510674D01*
X100158089Y-76472009D01*
X100020447Y-76307972D01*
X99838454Y-76202899D01*
X99639190Y-76167763D01*
X99162600Y-76167763D01*
X99162600Y-78899237D01*
X99643072Y-78899237D01*
X99930992Y-78822089D01*
X100095028Y-78684447D01*
X100168846Y-78556590D01*
X100260097Y-78617563D01*
X100384843Y-78642376D01*
X101672157Y-78642376D01*
X101796903Y-78617563D01*
X101909996Y-78541996D01*
X101985563Y-78428903D01*
X102010376Y-78304157D01*
X102010376Y-76762843D01*
X101985563Y-76638097D01*
X101967767Y-76611463D01*
X102067095Y-76512135D01*
X102180200Y-76652808D01*
X102351745Y-76796752D01*
X102547984Y-76904634D01*
X102761733Y-76972440D01*
X102946880Y-76991900D01*
X103792851Y-76991900D01*
X103744397Y-77030858D01*
X103571695Y-77222662D01*
X103431881Y-77439612D01*
X103328551Y-77676123D01*
X103264366Y-77926113D01*
X103240973Y-78183150D01*
X103258977Y-78440620D01*
X103317914Y-78691898D01*
X103416268Y-78930523D01*
X103551508Y-79150352D01*
X103558196Y-79158100D01*
X69851968Y-79158100D01*
X70839749Y-77741414D01*
X90329001Y-77741414D01*
X90329001Y-77960586D01*
X90396729Y-78169031D01*
X90525555Y-78346345D01*
X90702869Y-78475171D01*
X90911314Y-78542899D01*
X91130486Y-78542899D01*
X91338931Y-78475171D01*
X91516245Y-78346345D01*
X91645071Y-78169031D01*
X91692948Y-78021682D01*
X92015030Y-77699600D01*
X97757763Y-77699600D01*
X97757763Y-78307072D01*
X97834911Y-78594992D01*
X97972553Y-78759028D01*
X98154546Y-78864101D01*
X98353810Y-78899237D01*
X98830400Y-78899237D01*
X98830400Y-77699600D01*
X97757763Y-77699600D01*
X92015030Y-77699600D01*
X93306716Y-76407914D01*
X94050101Y-76407914D01*
X94050101Y-76627086D01*
X94117829Y-76835531D01*
X94246655Y-77012845D01*
X94423969Y-77141671D01*
X94632414Y-77209399D01*
X94851586Y-77209399D01*
X95060031Y-77141671D01*
X95237345Y-77012845D01*
X95366171Y-76835531D01*
X95389474Y-76763810D01*
X97757763Y-76763810D01*
X97757763Y-77367400D01*
X98830400Y-77367400D01*
X98830400Y-76167763D01*
X98349928Y-76167763D01*
X98062009Y-76244911D01*
X97897972Y-76382553D01*
X97792899Y-76564546D01*
X97757763Y-76763810D01*
X95389474Y-76763810D01*
X95433899Y-76627086D01*
X95433899Y-76407914D01*
X95366171Y-76199469D01*
X95237345Y-76022155D01*
X95060031Y-75893329D01*
X94851586Y-75825601D01*
X94632414Y-75825601D01*
X94423969Y-75893329D01*
X94246655Y-76022155D01*
X94117829Y-76199469D01*
X94050101Y-76407914D01*
X93306716Y-76407914D01*
X97811978Y-71902652D01*
X97872527Y-71851846D01*
X97912062Y-71783369D01*
X97957399Y-71718623D01*
X97964288Y-71692912D01*
X97977600Y-71669854D01*
X97991329Y-71591992D01*
X98011788Y-71515639D01*
X98004900Y-71436896D01*
X98004900Y-68873443D01*
X98033171Y-68834531D01*
X98100899Y-68626086D01*
X98100899Y-68406914D01*
X98033171Y-68198469D01*
X97904345Y-68021155D01*
X97727031Y-67892329D01*
X97518586Y-67824601D01*
X97299414Y-67824601D01*
X97090969Y-67892329D01*
X96913655Y-68021155D01*
X96784829Y-68198469D01*
X96717101Y-68406914D01*
X96717101Y-68626086D01*
X96784829Y-68834531D01*
X96813100Y-68873443D01*
X96813101Y-71216069D01*
X90850218Y-77178952D01*
X90702869Y-77226829D01*
X90525555Y-77355655D01*
X90396729Y-77532969D01*
X90329001Y-77741414D01*
X70839749Y-77741414D01*
X71158470Y-77284301D01*
X71777415Y-77284301D01*
X71823399Y-77293448D01*
X71869383Y-77284301D01*
X71869384Y-77284301D01*
X72005574Y-77257211D01*
X72160015Y-77154017D01*
X72186063Y-77115033D01*
X73015197Y-76285900D01*
X76255616Y-76285900D01*
X76301600Y-76295047D01*
X76347584Y-76285900D01*
X76347585Y-76285900D01*
X76483775Y-76258810D01*
X76638216Y-76155616D01*
X76664264Y-76116632D01*
X77717798Y-75063099D01*
X77858986Y-75063099D01*
X78067431Y-74995371D01*
X78244745Y-74866545D01*
X78373571Y-74689231D01*
X78441299Y-74480786D01*
X78441299Y-74261614D01*
X78373571Y-74053169D01*
X78244745Y-73875855D01*
X78067431Y-73747029D01*
X77858986Y-73679301D01*
X77700063Y-73679301D01*
X78741964Y-72637400D01*
X79582229Y-72637400D01*
X79327729Y-72891901D01*
X79151114Y-72891901D01*
X78942669Y-72959629D01*
X78765355Y-73088455D01*
X78636529Y-73265769D01*
X78568801Y-73474214D01*
X78568801Y-73693386D01*
X78636529Y-73901831D01*
X78765355Y-74079145D01*
X78942669Y-74207971D01*
X79151114Y-74275699D01*
X79370286Y-74275699D01*
X79578731Y-74207971D01*
X79756045Y-74079145D01*
X79884871Y-73901831D01*
X79952599Y-73693386D01*
X79952599Y-73516771D01*
X80416995Y-73052376D01*
X80657997Y-73052376D01*
X80781053Y-73199028D01*
X80853124Y-73240638D01*
X80853124Y-73288869D01*
X80765630Y-73347332D01*
X80755962Y-73361801D01*
X80662414Y-73361801D01*
X80453969Y-73429529D01*
X80276655Y-73558355D01*
X80147829Y-73735669D01*
X80080101Y-73944114D01*
X80080101Y-74163286D01*
X80147829Y-74371731D01*
X80276655Y-74549045D01*
X80453969Y-74677871D01*
X80662414Y-74745599D01*
X80881586Y-74745599D01*
X81072225Y-74683657D01*
X81072224Y-75990396D01*
X81072225Y-75990400D01*
X81072225Y-76301700D01*
X81018779Y-76340530D01*
X80889953Y-76517845D01*
X80822225Y-76726290D01*
X80822225Y-76945462D01*
X80889953Y-77153907D01*
X81018779Y-77331221D01*
X81196093Y-77460047D01*
X81404538Y-77527775D01*
X81623710Y-77527775D01*
X81832155Y-77460047D01*
X82009469Y-77331221D01*
X82138295Y-77153907D01*
X82206023Y-76945462D01*
X82206023Y-76856023D01*
X82295462Y-76856023D01*
X82503907Y-76788295D01*
X82681221Y-76659469D01*
X82810047Y-76482155D01*
X82855750Y-76341496D01*
X82855750Y-76354286D01*
X82851186Y-76441384D01*
X82869627Y-76477578D01*
X82884937Y-76549601D01*
X82995355Y-76701582D01*
X83026317Y-76719458D01*
X83786162Y-77479304D01*
X83844514Y-77544110D01*
X83883146Y-77556661D01*
X83944898Y-77596764D01*
X84130443Y-77626153D01*
X84164975Y-77616900D01*
X88331636Y-77616900D01*
X88418735Y-77621464D01*
X88454929Y-77603023D01*
X88526952Y-77587714D01*
X88678932Y-77477295D01*
X88696808Y-77446333D01*
X95229304Y-70913838D01*
X95294109Y-70855487D01*
X95306663Y-70816853D01*
X95346764Y-70755100D01*
X95376153Y-70569557D01*
X95366900Y-70535025D01*
X95366900Y-67765492D01*
X95410892Y-67826042D01*
X95588206Y-67954868D01*
X95796651Y-68022596D01*
X96015823Y-68022596D01*
X96224268Y-67954868D01*
X96401582Y-67826042D01*
X96530408Y-67648728D01*
X96598136Y-67440283D01*
X96598136Y-67350844D01*
X96687575Y-67350844D01*
X96896020Y-67283116D01*
X97073334Y-67154290D01*
X97202160Y-66976976D01*
X97269888Y-66768531D01*
X97269888Y-66549359D01*
X97202160Y-66340914D01*
X97073334Y-66163600D01*
X96896020Y-66034774D01*
X96687575Y-65967046D01*
X96468403Y-65967046D01*
X96259958Y-66034774D01*
X96082643Y-66163600D01*
X96043813Y-66217045D01*
X94934419Y-66217045D01*
X94847320Y-66212481D01*
X94811126Y-66230922D01*
X94739103Y-66246231D01*
X94587123Y-66356650D01*
X94569247Y-66387612D01*
X94170700Y-66786159D01*
X94105890Y-66844515D01*
X94093339Y-66883147D01*
X94053236Y-66944899D01*
X94023847Y-67130443D01*
X94033100Y-67164975D01*
X94033100Y-68121220D01*
X93941945Y-67995755D01*
X93764631Y-67866929D01*
X93556186Y-67799201D01*
X93337014Y-67799201D01*
X93128569Y-67866929D01*
X92951255Y-67995755D01*
X92822429Y-68173069D01*
X92754701Y-68381514D01*
X92754701Y-68584629D01*
X92746126Y-68592350D01*
X92734137Y-68629249D01*
X92696339Y-68687452D01*
X92668450Y-68863536D01*
X92677232Y-68896310D01*
X92677232Y-68972099D01*
X92625688Y-68901155D01*
X92448374Y-68772329D01*
X92239929Y-68704601D01*
X92020757Y-68704601D01*
X91812312Y-68772329D01*
X91634998Y-68901155D01*
X91506172Y-69078469D01*
X91438444Y-69286914D01*
X91438444Y-69463529D01*
X91138323Y-69763650D01*
X90427686Y-69763650D01*
X90786853Y-69404484D01*
X90848547Y-69348936D01*
X90860535Y-69312038D01*
X90898333Y-69253835D01*
X90926222Y-69077750D01*
X90917441Y-69044979D01*
X90917441Y-68001462D01*
X90921786Y-67918570D01*
X90904172Y-67884000D01*
X90889744Y-67816118D01*
X90784954Y-67671887D01*
X90755570Y-67654922D01*
X90295471Y-67194823D01*
X90414191Y-67135889D01*
X90544886Y-67018211D01*
X90597119Y-66935904D01*
X90701540Y-67067649D01*
X90843821Y-67171022D01*
X91008659Y-67232324D01*
X91183910Y-67247041D01*
X91356663Y-67214087D01*
X91514191Y-67135889D01*
X91644886Y-67018211D01*
X91739120Y-66869721D01*
X91790087Y-66700909D01*
X91792060Y-66512518D01*
X91744640Y-66342677D01*
X91653535Y-66192245D01*
X91525333Y-66071855D01*
X91369478Y-65990376D01*
X91197453Y-65953811D01*
X91021932Y-65964855D01*
X90855846Y-66022691D01*
X90711433Y-66123062D01*
X90599330Y-66258570D01*
X90596946Y-66263925D01*
X90553535Y-66192245D01*
X90425333Y-66071855D01*
X90269478Y-65990376D01*
X90097453Y-65953811D01*
X89921932Y-65964855D01*
X89755846Y-66022691D01*
X89644300Y-66100219D01*
X89644300Y-65440414D01*
X92308101Y-65440414D01*
X92308101Y-65659586D01*
X92375829Y-65868031D01*
X92504655Y-66045345D01*
X92681969Y-66174171D01*
X92890414Y-66241899D01*
X93109586Y-66241899D01*
X93318031Y-66174171D01*
X93495345Y-66045345D01*
X93624171Y-65868031D01*
X93691899Y-65659586D01*
X93691899Y-65440414D01*
X93624171Y-65231969D01*
X93495345Y-65054655D01*
X93318031Y-64925829D01*
X93109586Y-64858101D01*
X92890414Y-64858101D01*
X92681969Y-64925829D01*
X92504655Y-65054655D01*
X92375829Y-65231969D01*
X92308101Y-65440414D01*
X89644300Y-65440414D01*
X89644300Y-63540414D01*
X96703301Y-63540414D01*
X96703301Y-63759586D01*
X96771029Y-63968031D01*
X96899855Y-64145345D01*
X97077169Y-64274171D01*
X97285614Y-64341899D01*
X97504786Y-64341899D01*
X97713231Y-64274171D01*
X97890545Y-64145345D01*
X98019371Y-63968031D01*
X98087099Y-63759586D01*
X98087099Y-63648653D01*
X98264546Y-63751101D01*
X98463810Y-63786237D01*
X98830400Y-63786237D01*
X98830400Y-62713600D01*
X99162600Y-62713600D01*
X99162600Y-63786237D01*
X99533072Y-63786237D01*
X99820992Y-63709089D01*
X99985028Y-63571447D01*
X100090101Y-63389454D01*
X100125237Y-63190190D01*
X100125237Y-62713600D01*
X99162600Y-62713600D01*
X98830400Y-62713600D01*
X97867763Y-62713600D01*
X97867763Y-63138103D01*
X97713231Y-63025829D01*
X97504786Y-62958101D01*
X97285614Y-62958101D01*
X97077169Y-63025829D01*
X96899855Y-63154655D01*
X96771029Y-63331969D01*
X96703301Y-63540414D01*
X89644300Y-63540414D01*
X89644300Y-61493320D01*
X89644878Y-61490414D01*
X91358101Y-61490414D01*
X91358101Y-61709586D01*
X91425829Y-61918031D01*
X91554655Y-62095345D01*
X91731969Y-62224171D01*
X91940414Y-62291899D01*
X92159586Y-62291899D01*
X92368031Y-62224171D01*
X92545345Y-62095345D01*
X92674171Y-61918031D01*
X92678466Y-61904810D01*
X97867763Y-61904810D01*
X97867763Y-62381400D01*
X98830400Y-62381400D01*
X98830400Y-61308763D01*
X99162600Y-61308763D01*
X99162600Y-62381400D01*
X100125237Y-62381400D01*
X100125237Y-61900928D01*
X100048089Y-61613009D01*
X99910447Y-61448972D01*
X99728454Y-61343899D01*
X99529190Y-61308763D01*
X99162600Y-61308763D01*
X98830400Y-61308763D01*
X98459928Y-61308763D01*
X98172009Y-61385911D01*
X98007972Y-61523553D01*
X97902899Y-61705546D01*
X97867763Y-61904810D01*
X92678466Y-61904810D01*
X92741899Y-61709586D01*
X92741899Y-61490414D01*
X92674171Y-61281969D01*
X92545345Y-61104655D01*
X92368031Y-60975829D01*
X92159586Y-60908101D01*
X91940414Y-60908101D01*
X91731969Y-60975829D01*
X91554655Y-61104655D01*
X91425829Y-61281969D01*
X91358101Y-61490414D01*
X89644878Y-61490414D01*
X89653982Y-61444645D01*
X89644300Y-61395970D01*
X89644300Y-61395966D01*
X89615620Y-61251780D01*
X89506369Y-61088276D01*
X89465101Y-61060702D01*
X89246299Y-60841900D01*
X103384455Y-60841900D01*
X103221695Y-61022662D01*
X103221695Y-61022662D01*
G37*
X103221695Y-61022662D02*
X103081881Y-61239612D01*
X102978551Y-61476123D01*
X102914366Y-61726113D01*
X102890973Y-61983150D01*
X102908977Y-62240620D01*
X102967914Y-62491898D01*
X103066268Y-62730523D01*
X103201508Y-62950352D01*
X103251355Y-63008100D01*
X102943697Y-63008100D01*
X102777132Y-63024432D01*
X102562752Y-63089157D01*
X102464910Y-63141180D01*
X101900376Y-62576646D01*
X101900376Y-61903843D01*
X101875563Y-61779097D01*
X101799996Y-61666004D01*
X101686903Y-61590437D01*
X101562157Y-61565624D01*
X100494843Y-61565624D01*
X100370097Y-61590437D01*
X100257004Y-61666004D01*
X100181437Y-61779097D01*
X100156624Y-61903843D01*
X100156624Y-63191157D01*
X100181437Y-63315903D01*
X100257004Y-63428996D01*
X100370097Y-63504563D01*
X100494843Y-63529376D01*
X101167646Y-63529376D01*
X101859851Y-64221581D01*
X101872904Y-64365005D01*
X101936131Y-64579831D01*
X102039880Y-64778286D01*
X102180200Y-64952808D01*
X102351745Y-65096752D01*
X102547984Y-65204634D01*
X102761733Y-65272440D01*
X102946880Y-65291900D01*
X103607601Y-65291900D01*
X103607601Y-65431983D01*
X103600712Y-65510737D01*
X103621173Y-65587098D01*
X103634901Y-65664953D01*
X103648211Y-65688007D01*
X103655102Y-65713722D01*
X103700446Y-65778482D01*
X103739974Y-65846946D01*
X103800517Y-65897747D01*
X104541601Y-66638832D01*
X104541601Y-66980469D01*
X104446407Y-66938978D01*
X104253223Y-66904045D01*
X104057184Y-66914491D01*
X103868805Y-66969755D01*
X103698194Y-67066873D01*
X103554499Y-67200635D01*
X103445431Y-67363867D01*
X103376840Y-67547813D01*
X103352405Y-67742603D01*
X103373437Y-67937791D01*
X103438808Y-68122905D01*
X103545010Y-68288015D01*
X103686348Y-68424265D01*
X103855239Y-68524347D01*
X104042624Y-68582890D01*
X104238450Y-68596755D01*
X104432215Y-68565199D01*
X104541601Y-68519777D01*
X104541602Y-71480468D01*
X104446407Y-71438978D01*
X104253223Y-71404045D01*
X104057184Y-71414491D01*
X103868805Y-71469755D01*
X103698194Y-71566873D01*
X103554499Y-71700635D01*
X103445431Y-71863867D01*
X103376840Y-72047813D01*
X103352405Y-72242603D01*
X103373437Y-72437791D01*
X103438808Y-72622905D01*
X103545010Y-72788015D01*
X103686348Y-72924265D01*
X103855239Y-73024347D01*
X104042624Y-73082890D01*
X104238450Y-73096755D01*
X104432215Y-73065199D01*
X104541602Y-73019777D01*
X104541602Y-73361167D01*
X103800522Y-74102248D01*
X103739973Y-74153054D01*
X103700442Y-74221523D01*
X103655101Y-74286278D01*
X103648212Y-74311990D01*
X103634900Y-74335047D01*
X103621169Y-74412916D01*
X103600712Y-74489264D01*
X103607600Y-74568007D01*
X103607600Y-74708100D01*
X102943697Y-74708100D01*
X102777132Y-74724432D01*
X102562752Y-74789157D01*
X102365028Y-74894289D01*
X102191489Y-75035824D01*
X102048745Y-75208370D01*
X102024019Y-75254100D01*
X101912504Y-75254100D01*
X101833761Y-75247212D01*
X101757408Y-75267671D01*
X101679546Y-75281400D01*
X101656488Y-75294712D01*
X101630777Y-75301601D01*
X101566031Y-75346938D01*
X101497554Y-75386473D01*
X101446748Y-75447022D01*
X100625517Y-76268253D01*
X100564974Y-76319054D01*
X100525446Y-76387518D01*
X100499465Y-76424624D01*
X100384843Y-76424624D01*
X100260097Y-76449437D01*
X100168449Y-76510674D01*
X100158089Y-76472009D01*
X100020447Y-76307972D01*
X99838454Y-76202899D01*
X99639190Y-76167763D01*
X99162600Y-76167763D01*
X99162600Y-78899237D01*
X99643072Y-78899237D01*
X99930992Y-78822089D01*
X100095028Y-78684447D01*
X100168846Y-78556590D01*
X100260097Y-78617563D01*
X100384843Y-78642376D01*
X101672157Y-78642376D01*
X101796903Y-78617563D01*
X101909996Y-78541996D01*
X101985563Y-78428903D01*
X102010376Y-78304157D01*
X102010376Y-76762843D01*
X101985563Y-76638097D01*
X101967767Y-76611463D01*
X102067095Y-76512135D01*
X102180200Y-76652808D01*
X102351745Y-76796752D01*
X102547984Y-76904634D01*
X102761733Y-76972440D01*
X102946880Y-76991900D01*
X103792851Y-76991900D01*
X103744397Y-77030858D01*
X103571695Y-77222662D01*
X103431881Y-77439612D01*
X103328551Y-77676123D01*
X103264366Y-77926113D01*
X103240973Y-78183150D01*
X103258977Y-78440620D01*
X103317914Y-78691898D01*
X103416268Y-78930523D01*
X103551508Y-79150352D01*
X103558196Y-79158100D01*
X69851968Y-79158100D01*
X70839749Y-77741414D01*
X90329001Y-77741414D01*
X90329001Y-77960586D01*
X90396729Y-78169031D01*
X90525555Y-78346345D01*
X90702869Y-78475171D01*
X90911314Y-78542899D01*
X91130486Y-78542899D01*
X91338931Y-78475171D01*
X91516245Y-78346345D01*
X91645071Y-78169031D01*
X91692948Y-78021682D01*
X92015030Y-77699600D01*
X97757763Y-77699600D01*
X97757763Y-78307072D01*
X97834911Y-78594992D01*
X97972553Y-78759028D01*
X98154546Y-78864101D01*
X98353810Y-78899237D01*
X98830400Y-78899237D01*
X98830400Y-77699600D01*
X97757763Y-77699600D01*
X92015030Y-77699600D01*
X93306716Y-76407914D01*
X94050101Y-76407914D01*
X94050101Y-76627086D01*
X94117829Y-76835531D01*
X94246655Y-77012845D01*
X94423969Y-77141671D01*
X94632414Y-77209399D01*
X94851586Y-77209399D01*
X95060031Y-77141671D01*
X95237345Y-77012845D01*
X95366171Y-76835531D01*
X95389474Y-76763810D01*
X97757763Y-76763810D01*
X97757763Y-77367400D01*
X98830400Y-77367400D01*
X98830400Y-76167763D01*
X98349928Y-76167763D01*
X98062009Y-76244911D01*
X97897972Y-76382553D01*
X97792899Y-76564546D01*
X97757763Y-76763810D01*
X95389474Y-76763810D01*
X95433899Y-76627086D01*
X95433899Y-76407914D01*
X95366171Y-76199469D01*
X95237345Y-76022155D01*
X95060031Y-75893329D01*
X94851586Y-75825601D01*
X94632414Y-75825601D01*
X94423969Y-75893329D01*
X94246655Y-76022155D01*
X94117829Y-76199469D01*
X94050101Y-76407914D01*
X93306716Y-76407914D01*
X97811978Y-71902652D01*
X97872527Y-71851846D01*
X97912062Y-71783369D01*
X97957399Y-71718623D01*
X97964288Y-71692912D01*
X97977600Y-71669854D01*
X97991329Y-71591992D01*
X98011788Y-71515639D01*
X98004900Y-71436896D01*
X98004900Y-68873443D01*
X98033171Y-68834531D01*
X98100899Y-68626086D01*
X98100899Y-68406914D01*
X98033171Y-68198469D01*
X97904345Y-68021155D01*
X97727031Y-67892329D01*
X97518586Y-67824601D01*
X97299414Y-67824601D01*
X97090969Y-67892329D01*
X96913655Y-68021155D01*
X96784829Y-68198469D01*
X96717101Y-68406914D01*
X96717101Y-68626086D01*
X96784829Y-68834531D01*
X96813100Y-68873443D01*
X96813101Y-71216069D01*
X90850218Y-77178952D01*
X90702869Y-77226829D01*
X90525555Y-77355655D01*
X90396729Y-77532969D01*
X90329001Y-77741414D01*
X70839749Y-77741414D01*
X71158470Y-77284301D01*
X71777415Y-77284301D01*
X71823399Y-77293448D01*
X71869383Y-77284301D01*
X71869384Y-77284301D01*
X72005574Y-77257211D01*
X72160015Y-77154017D01*
X72186063Y-77115033D01*
X73015197Y-76285900D01*
X76255616Y-76285900D01*
X76301600Y-76295047D01*
X76347584Y-76285900D01*
X76347585Y-76285900D01*
X76483775Y-76258810D01*
X76638216Y-76155616D01*
X76664264Y-76116632D01*
X77717798Y-75063099D01*
X77858986Y-75063099D01*
X78067431Y-74995371D01*
X78244745Y-74866545D01*
X78373571Y-74689231D01*
X78441299Y-74480786D01*
X78441299Y-74261614D01*
X78373571Y-74053169D01*
X78244745Y-73875855D01*
X78067431Y-73747029D01*
X77858986Y-73679301D01*
X77700063Y-73679301D01*
X78741964Y-72637400D01*
X79582229Y-72637400D01*
X79327729Y-72891901D01*
X79151114Y-72891901D01*
X78942669Y-72959629D01*
X78765355Y-73088455D01*
X78636529Y-73265769D01*
X78568801Y-73474214D01*
X78568801Y-73693386D01*
X78636529Y-73901831D01*
X78765355Y-74079145D01*
X78942669Y-74207971D01*
X79151114Y-74275699D01*
X79370286Y-74275699D01*
X79578731Y-74207971D01*
X79756045Y-74079145D01*
X79884871Y-73901831D01*
X79952599Y-73693386D01*
X79952599Y-73516771D01*
X80416995Y-73052376D01*
X80657997Y-73052376D01*
X80781053Y-73199028D01*
X80853124Y-73240638D01*
X80853124Y-73288869D01*
X80765630Y-73347332D01*
X80755962Y-73361801D01*
X80662414Y-73361801D01*
X80453969Y-73429529D01*
X80276655Y-73558355D01*
X80147829Y-73735669D01*
X80080101Y-73944114D01*
X80080101Y-74163286D01*
X80147829Y-74371731D01*
X80276655Y-74549045D01*
X80453969Y-74677871D01*
X80662414Y-74745599D01*
X80881586Y-74745599D01*
X81072225Y-74683657D01*
X81072224Y-75990396D01*
X81072225Y-75990400D01*
X81072225Y-76301700D01*
X81018779Y-76340530D01*
X80889953Y-76517845D01*
X80822225Y-76726290D01*
X80822225Y-76945462D01*
X80889953Y-77153907D01*
X81018779Y-77331221D01*
X81196093Y-77460047D01*
X81404538Y-77527775D01*
X81623710Y-77527775D01*
X81832155Y-77460047D01*
X82009469Y-77331221D01*
X82138295Y-77153907D01*
X82206023Y-76945462D01*
X82206023Y-76856023D01*
X82295462Y-76856023D01*
X82503907Y-76788295D01*
X82681221Y-76659469D01*
X82810047Y-76482155D01*
X82855750Y-76341496D01*
X82855750Y-76354286D01*
X82851186Y-76441384D01*
X82869627Y-76477578D01*
X82884937Y-76549601D01*
X82995355Y-76701582D01*
X83026317Y-76719458D01*
X83786162Y-77479304D01*
X83844514Y-77544110D01*
X83883146Y-77556661D01*
X83944898Y-77596764D01*
X84130443Y-77626153D01*
X84164975Y-77616900D01*
X88331636Y-77616900D01*
X88418735Y-77621464D01*
X88454929Y-77603023D01*
X88526952Y-77587714D01*
X88678932Y-77477295D01*
X88696808Y-77446333D01*
X95229304Y-70913838D01*
X95294109Y-70855487D01*
X95306663Y-70816853D01*
X95346764Y-70755100D01*
X95376153Y-70569557D01*
X95366900Y-70535025D01*
X95366900Y-67765492D01*
X95410892Y-67826042D01*
X95588206Y-67954868D01*
X95796651Y-68022596D01*
X96015823Y-68022596D01*
X96224268Y-67954868D01*
X96401582Y-67826042D01*
X96530408Y-67648728D01*
X96598136Y-67440283D01*
X96598136Y-67350844D01*
X96687575Y-67350844D01*
X96896020Y-67283116D01*
X97073334Y-67154290D01*
X97202160Y-66976976D01*
X97269888Y-66768531D01*
X97269888Y-66549359D01*
X97202160Y-66340914D01*
X97073334Y-66163600D01*
X96896020Y-66034774D01*
X96687575Y-65967046D01*
X96468403Y-65967046D01*
X96259958Y-66034774D01*
X96082643Y-66163600D01*
X96043813Y-66217045D01*
X94934419Y-66217045D01*
X94847320Y-66212481D01*
X94811126Y-66230922D01*
X94739103Y-66246231D01*
X94587123Y-66356650D01*
X94569247Y-66387612D01*
X94170700Y-66786159D01*
X94105890Y-66844515D01*
X94093339Y-66883147D01*
X94053236Y-66944899D01*
X94023847Y-67130443D01*
X94033100Y-67164975D01*
X94033100Y-68121220D01*
X93941945Y-67995755D01*
X93764631Y-67866929D01*
X93556186Y-67799201D01*
X93337014Y-67799201D01*
X93128569Y-67866929D01*
X92951255Y-67995755D01*
X92822429Y-68173069D01*
X92754701Y-68381514D01*
X92754701Y-68584629D01*
X92746126Y-68592350D01*
X92734137Y-68629249D01*
X92696339Y-68687452D01*
X92668450Y-68863536D01*
X92677232Y-68896310D01*
X92677232Y-68972099D01*
X92625688Y-68901155D01*
X92448374Y-68772329D01*
X92239929Y-68704601D01*
X92020757Y-68704601D01*
X91812312Y-68772329D01*
X91634998Y-68901155D01*
X91506172Y-69078469D01*
X91438444Y-69286914D01*
X91438444Y-69463529D01*
X91138323Y-69763650D01*
X90427686Y-69763650D01*
X90786853Y-69404484D01*
X90848547Y-69348936D01*
X90860535Y-69312038D01*
X90898333Y-69253835D01*
X90926222Y-69077750D01*
X90917441Y-69044979D01*
X90917441Y-68001462D01*
X90921786Y-67918570D01*
X90904172Y-67884000D01*
X90889744Y-67816118D01*
X90784954Y-67671887D01*
X90755570Y-67654922D01*
X90295471Y-67194823D01*
X90414191Y-67135889D01*
X90544886Y-67018211D01*
X90597119Y-66935904D01*
X90701540Y-67067649D01*
X90843821Y-67171022D01*
X91008659Y-67232324D01*
X91183910Y-67247041D01*
X91356663Y-67214087D01*
X91514191Y-67135889D01*
X91644886Y-67018211D01*
X91739120Y-66869721D01*
X91790087Y-66700909D01*
X91792060Y-66512518D01*
X91744640Y-66342677D01*
X91653535Y-66192245D01*
X91525333Y-66071855D01*
X91369478Y-65990376D01*
X91197453Y-65953811D01*
X91021932Y-65964855D01*
X90855846Y-66022691D01*
X90711433Y-66123062D01*
X90599330Y-66258570D01*
X90596946Y-66263925D01*
X90553535Y-66192245D01*
X90425333Y-66071855D01*
X90269478Y-65990376D01*
X90097453Y-65953811D01*
X89921932Y-65964855D01*
X89755846Y-66022691D01*
X89644300Y-66100219D01*
X89644300Y-65440414D01*
X92308101Y-65440414D01*
X92308101Y-65659586D01*
X92375829Y-65868031D01*
X92504655Y-66045345D01*
X92681969Y-66174171D01*
X92890414Y-66241899D01*
X93109586Y-66241899D01*
X93318031Y-66174171D01*
X93495345Y-66045345D01*
X93624171Y-65868031D01*
X93691899Y-65659586D01*
X93691899Y-65440414D01*
X93624171Y-65231969D01*
X93495345Y-65054655D01*
X93318031Y-64925829D01*
X93109586Y-64858101D01*
X92890414Y-64858101D01*
X92681969Y-64925829D01*
X92504655Y-65054655D01*
X92375829Y-65231969D01*
X92308101Y-65440414D01*
X89644300Y-65440414D01*
X89644300Y-63540414D01*
X96703301Y-63540414D01*
X96703301Y-63759586D01*
X96771029Y-63968031D01*
X96899855Y-64145345D01*
X97077169Y-64274171D01*
X97285614Y-64341899D01*
X97504786Y-64341899D01*
X97713231Y-64274171D01*
X97890545Y-64145345D01*
X98019371Y-63968031D01*
X98087099Y-63759586D01*
X98087099Y-63648653D01*
X98264546Y-63751101D01*
X98463810Y-63786237D01*
X98830400Y-63786237D01*
X98830400Y-62713600D01*
X99162600Y-62713600D01*
X99162600Y-63786237D01*
X99533072Y-63786237D01*
X99820992Y-63709089D01*
X99985028Y-63571447D01*
X100090101Y-63389454D01*
X100125237Y-63190190D01*
X100125237Y-62713600D01*
X99162600Y-62713600D01*
X98830400Y-62713600D01*
X97867763Y-62713600D01*
X97867763Y-63138103D01*
X97713231Y-63025829D01*
X97504786Y-62958101D01*
X97285614Y-62958101D01*
X97077169Y-63025829D01*
X96899855Y-63154655D01*
X96771029Y-63331969D01*
X96703301Y-63540414D01*
X89644300Y-63540414D01*
X89644300Y-61493320D01*
X89644878Y-61490414D01*
X91358101Y-61490414D01*
X91358101Y-61709586D01*
X91425829Y-61918031D01*
X91554655Y-62095345D01*
X91731969Y-62224171D01*
X91940414Y-62291899D01*
X92159586Y-62291899D01*
X92368031Y-62224171D01*
X92545345Y-62095345D01*
X92674171Y-61918031D01*
X92678466Y-61904810D01*
X97867763Y-61904810D01*
X97867763Y-62381400D01*
X98830400Y-62381400D01*
X98830400Y-61308763D01*
X99162600Y-61308763D01*
X99162600Y-62381400D01*
X100125237Y-62381400D01*
X100125237Y-61900928D01*
X100048089Y-61613009D01*
X99910447Y-61448972D01*
X99728454Y-61343899D01*
X99529190Y-61308763D01*
X99162600Y-61308763D01*
X98830400Y-61308763D01*
X98459928Y-61308763D01*
X98172009Y-61385911D01*
X98007972Y-61523553D01*
X97902899Y-61705546D01*
X97867763Y-61904810D01*
X92678466Y-61904810D01*
X92741899Y-61709586D01*
X92741899Y-61490414D01*
X92674171Y-61281969D01*
X92545345Y-61104655D01*
X92368031Y-60975829D01*
X92159586Y-60908101D01*
X91940414Y-60908101D01*
X91731969Y-60975829D01*
X91554655Y-61104655D01*
X91425829Y-61281969D01*
X91358101Y-61490414D01*
X89644878Y-61490414D01*
X89653982Y-61444645D01*
X89644300Y-61395970D01*
X89644300Y-61395966D01*
X89615620Y-61251780D01*
X89506369Y-61088276D01*
X89465101Y-61060702D01*
X89246299Y-60841900D01*
X103384455Y-60841900D01*
X103221695Y-61022662D01*
G36*
X94033101Y-70223757D02*
G01*
X87973759Y-76283100D01*
X85202598Y-76283100D01*
X85331396Y-76105825D01*
X85369220Y-75989417D01*
X85547598Y-75989417D01*
X85756043Y-75921689D01*
X85933357Y-75792863D01*
X86062183Y-75615549D01*
X86129911Y-75407104D01*
X86129911Y-75217549D01*
X86234968Y-75183414D01*
X86412282Y-75054588D01*
X86541108Y-74877274D01*
X86575460Y-74771551D01*
X86764367Y-74771551D01*
X86972812Y-74703823D01*
X87150126Y-74574997D01*
X87190697Y-74519156D01*
X87201100Y-74578153D01*
X87214412Y-74601211D01*
X87221302Y-74626922D01*
X87266650Y-74691687D01*
X87306174Y-74760146D01*
X87366717Y-74810947D01*
X87472773Y-74917003D01*
X87472773Y-74928821D01*
X87540501Y-75137266D01*
X87669327Y-75314580D01*
X87846641Y-75443406D01*
X88055086Y-75511134D01*
X88274258Y-75511134D01*
X88482703Y-75443406D01*
X88660017Y-75314580D01*
X88788843Y-75137266D01*
X88856571Y-74928821D01*
X88856571Y-74709649D01*
X88788843Y-74501204D01*
X88660017Y-74323890D01*
X88482703Y-74195064D01*
X88413958Y-74172728D01*
X88364701Y-74123471D01*
X88338300Y-73973747D01*
X88264000Y-73845054D01*
X88264000Y-73375683D01*
X88295997Y-73397063D01*
X88420743Y-73421876D01*
X88938057Y-73421876D01*
X88955637Y-73418379D01*
X89056453Y-73538528D01*
X89238446Y-73643601D01*
X89533300Y-73695592D01*
X89533300Y-72962100D01*
X89857500Y-72962100D01*
X89857500Y-73705390D01*
X90244892Y-73601589D01*
X90408928Y-73463947D01*
X90514001Y-73281954D01*
X90549137Y-73082690D01*
X90549137Y-72962100D01*
X89857500Y-72962100D01*
X89533300Y-72962100D01*
X89533300Y-72637900D01*
X90549137Y-72637900D01*
X90549137Y-72513428D01*
X90471989Y-72225509D01*
X90334347Y-72061472D01*
X90254876Y-72015589D01*
X90254876Y-71466343D01*
X90230063Y-71341597D01*
X90154496Y-71228504D01*
X90055828Y-71162576D01*
X90049673Y-71133616D01*
X89970663Y-71024870D01*
X91809440Y-71024870D01*
X91892332Y-71029215D01*
X91926901Y-71011602D01*
X91994785Y-70997173D01*
X92139016Y-70892382D01*
X92155981Y-70862998D01*
X93385383Y-69633597D01*
X93447077Y-69578049D01*
X93459065Y-69541151D01*
X93496863Y-69482948D01*
X93524752Y-69306863D01*
X93515971Y-69274092D01*
X93515971Y-69182999D01*
X93556186Y-69182999D01*
X93764631Y-69115271D01*
X93941945Y-68986445D01*
X94033101Y-68860980D01*
X94033101Y-70223757D01*
X94033101Y-70223757D01*
G37*
X94033101Y-70223757D02*
X87973759Y-76283100D01*
X85202598Y-76283100D01*
X85331396Y-76105825D01*
X85369220Y-75989417D01*
X85547598Y-75989417D01*
X85756043Y-75921689D01*
X85933357Y-75792863D01*
X86062183Y-75615549D01*
X86129911Y-75407104D01*
X86129911Y-75217549D01*
X86234968Y-75183414D01*
X86412282Y-75054588D01*
X86541108Y-74877274D01*
X86575460Y-74771551D01*
X86764367Y-74771551D01*
X86972812Y-74703823D01*
X87150126Y-74574997D01*
X87190697Y-74519156D01*
X87201100Y-74578153D01*
X87214412Y-74601211D01*
X87221302Y-74626922D01*
X87266650Y-74691687D01*
X87306174Y-74760146D01*
X87366717Y-74810947D01*
X87472773Y-74917003D01*
X87472773Y-74928821D01*
X87540501Y-75137266D01*
X87669327Y-75314580D01*
X87846641Y-75443406D01*
X88055086Y-75511134D01*
X88274258Y-75511134D01*
X88482703Y-75443406D01*
X88660017Y-75314580D01*
X88788843Y-75137266D01*
X88856571Y-74928821D01*
X88856571Y-74709649D01*
X88788843Y-74501204D01*
X88660017Y-74323890D01*
X88482703Y-74195064D01*
X88413958Y-74172728D01*
X88364701Y-74123471D01*
X88338300Y-73973747D01*
X88264000Y-73845054D01*
X88264000Y-73375683D01*
X88295997Y-73397063D01*
X88420743Y-73421876D01*
X88938057Y-73421876D01*
X88955637Y-73418379D01*
X89056453Y-73538528D01*
X89238446Y-73643601D01*
X89533300Y-73695592D01*
X89533300Y-72962100D01*
X89857500Y-72962100D01*
X89857500Y-73705390D01*
X90244892Y-73601589D01*
X90408928Y-73463947D01*
X90514001Y-73281954D01*
X90549137Y-73082690D01*
X90549137Y-72962100D01*
X89857500Y-72962100D01*
X89533300Y-72962100D01*
X89533300Y-72637900D01*
X90549137Y-72637900D01*
X90549137Y-72513428D01*
X90471989Y-72225509D01*
X90334347Y-72061472D01*
X90254876Y-72015589D01*
X90254876Y-71466343D01*
X90230063Y-71341597D01*
X90154496Y-71228504D01*
X90055828Y-71162576D01*
X90049673Y-71133616D01*
X89970663Y-71024870D01*
X91809440Y-71024870D01*
X91892332Y-71029215D01*
X91926901Y-71011602D01*
X91994785Y-70997173D01*
X92139016Y-70892382D01*
X92155981Y-70862998D01*
X93385383Y-69633597D01*
X93447077Y-69578049D01*
X93459065Y-69541151D01*
X93496863Y-69482948D01*
X93524752Y-69306863D01*
X93515971Y-69274092D01*
X93515971Y-69182999D01*
X93556186Y-69182999D01*
X93764631Y-69115271D01*
X93941945Y-68986445D01*
X94033101Y-68860980D01*
X94033101Y-70223757D01*
G36*
X77181429Y-71634601D02*
G01*
X77004814Y-71634601D01*
X76796369Y-71702329D01*
X76619055Y-71831155D01*
X76490229Y-72008469D01*
X76422501Y-72216914D01*
X76422501Y-72436086D01*
X76490229Y-72644531D01*
X76619055Y-72821845D01*
X76761979Y-72925685D01*
X75674565Y-74013100D01*
X72472539Y-74013100D01*
X72442703Y-71417400D01*
X77398629Y-71417400D01*
X77181429Y-71634601D01*
X77181429Y-71634601D01*
G37*
X77181429Y-71634601D02*
X77004814Y-71634601D01*
X76796369Y-71702329D01*
X76619055Y-71831155D01*
X76490229Y-72008469D01*
X76422501Y-72216914D01*
X76422501Y-72436086D01*
X76490229Y-72644531D01*
X76619055Y-72821845D01*
X76761979Y-72925685D01*
X75674565Y-74013100D01*
X72472539Y-74013100D01*
X72442703Y-71417400D01*
X77398629Y-71417400D01*
X77181429Y-71634601D01*
G36*
X62675500Y-71914237D02*
G01*
X63045972Y-71914237D01*
X63124392Y-71893225D01*
X63129220Y-72636672D01*
X63070566Y-72597480D01*
X62926380Y-72568800D01*
X61964846Y-72568800D01*
X61568600Y-72172555D01*
X61568600Y-71742026D01*
X61595453Y-71774028D01*
X61777446Y-71879101D01*
X61976710Y-71914237D01*
X62343300Y-71914237D01*
X62343300Y-70509400D01*
X62675500Y-70509400D01*
X62675500Y-71914237D01*
X62675500Y-71914237D01*
G37*
X62675500Y-71914237D02*
X63045972Y-71914237D01*
X63124392Y-71893225D01*
X63129220Y-72636672D01*
X63070566Y-72597480D01*
X62926380Y-72568800D01*
X61964846Y-72568800D01*
X61568600Y-72172555D01*
X61568600Y-71742026D01*
X61595453Y-71774028D01*
X61777446Y-71879101D01*
X61976710Y-71914237D01*
X62343300Y-71914237D01*
X62343300Y-70509400D01*
X62675500Y-70509400D01*
X62675500Y-71914237D01*
G36*
X74128840Y-70193600D02*
G01*
X72428636Y-70193600D01*
X72408867Y-68473626D01*
X74128840Y-70193600D01*
X74128840Y-70193600D01*
G37*
X74128840Y-70193600D02*
X72428636Y-70193600D01*
X72408867Y-68473626D01*
X74128840Y-70193600D01*
G36*
X76117031Y-67914031D02*
G01*
X75978489Y-67959046D01*
X75801175Y-68087872D01*
X75672349Y-68265186D01*
X75604621Y-68473631D01*
X75604621Y-68692803D01*
X75672349Y-68901248D01*
X75801175Y-69078562D01*
X75978489Y-69207388D01*
X76186934Y-69275116D01*
X76363549Y-69275116D01*
X76482033Y-69393600D01*
X75059560Y-69393600D01*
X72388742Y-66722783D01*
X72360313Y-64249400D01*
X72452401Y-64249400D01*
X76117031Y-67914031D01*
X76117031Y-67914031D01*
G37*
X76117031Y-67914031D02*
X75978489Y-67959046D01*
X75801175Y-68087872D01*
X75672349Y-68265186D01*
X75604621Y-68473631D01*
X75604621Y-68692803D01*
X75672349Y-68901248D01*
X75801175Y-69078562D01*
X75978489Y-69207388D01*
X76186934Y-69275116D01*
X76363549Y-69275116D01*
X76482033Y-69393600D01*
X75059560Y-69393600D01*
X72388742Y-66722783D01*
X72360313Y-64249400D01*
X72452401Y-64249400D01*
X76117031Y-67914031D01*
G36*
X89493900Y-69244090D02*
G01*
X89858887Y-69146292D01*
X89619050Y-69386130D01*
X87522328Y-69386130D01*
X87583207Y-69341899D01*
X87759586Y-69341899D01*
X87968031Y-69274171D01*
X88145345Y-69145345D01*
X88274171Y-68968031D01*
X88276593Y-68960576D01*
X88574457Y-68960576D01*
X88592037Y-68957079D01*
X88692853Y-69077228D01*
X88874846Y-69182301D01*
X89169700Y-69234292D01*
X89169700Y-68176600D01*
X89493900Y-68176600D01*
X89493900Y-69244090D01*
X89493900Y-69244090D01*
G37*
X89493900Y-69244090D02*
X89858887Y-69146292D01*
X89619050Y-69386130D01*
X87522328Y-69386130D01*
X87583207Y-69341899D01*
X87759586Y-69341899D01*
X87968031Y-69274171D01*
X88145345Y-69145345D01*
X88274171Y-68968031D01*
X88276593Y-68960576D01*
X88574457Y-68960576D01*
X88592037Y-68957079D01*
X88692853Y-69077228D01*
X88874846Y-69182301D01*
X89169700Y-69234292D01*
X89169700Y-68176600D01*
X89493900Y-68176600D01*
X89493900Y-69244090D01*
G36*
X63675092Y-60880635D02*
G01*
X63460542Y-61015745D01*
X63270940Y-61184081D01*
X63111378Y-61381124D01*
X62986140Y-61601582D01*
X62898591Y-61839535D01*
X62851081Y-62088591D01*
X62844886Y-62342062D01*
X62880173Y-62593142D01*
X62955993Y-62835087D01*
X63067000Y-63054843D01*
X63068504Y-63286402D01*
X62930238Y-63074706D01*
X62738884Y-62858039D01*
X62518256Y-62671264D01*
X62272978Y-62518295D01*
X62008187Y-62402335D01*
X61729429Y-62325813D01*
X61442546Y-62290335D01*
X61153545Y-62296641D01*
X60868481Y-62344599D01*
X60593328Y-62433207D01*
X60333845Y-62560606D01*
X60095473Y-62724130D01*
X59909174Y-62896343D01*
X59844081Y-62733187D01*
X59723951Y-62545706D01*
X59570538Y-62384324D01*
X59389375Y-62254863D01*
X59187000Y-62161995D01*
X58970716Y-62109071D01*
X58748326Y-62098000D01*
X58527854Y-62129181D01*
X58317256Y-62201490D01*
X58124131Y-62312318D01*
X57955447Y-62457664D01*
X57817291Y-62632287D01*
X57786012Y-62692502D01*
X57691951Y-62545706D01*
X57538538Y-62384324D01*
X57357375Y-62254863D01*
X57155000Y-62161995D01*
X56938716Y-62109071D01*
X56716326Y-62098000D01*
X56495854Y-62129181D01*
X56285256Y-62201490D01*
X56092131Y-62312318D01*
X55923447Y-62457664D01*
X55785291Y-62632287D01*
X55682648Y-62829884D01*
X55619222Y-63043325D01*
X55597300Y-63264908D01*
X55617674Y-63486640D01*
X55679610Y-63700518D01*
X55780870Y-63898826D01*
X55917804Y-64074409D01*
X56085469Y-64220930D01*
X56275200Y-64331577D01*
X56275201Y-66868120D01*
X56265518Y-66916800D01*
X56303881Y-67109666D01*
X56372486Y-67212339D01*
X56413132Y-67273169D01*
X56454398Y-67300743D01*
X57570184Y-68416530D01*
X57426655Y-68347762D01*
X57179057Y-68274889D01*
X56922994Y-68242542D01*
X56665053Y-68251549D01*
X56411870Y-68301681D01*
X56169959Y-68391646D01*
X55945543Y-68519133D01*
X55744397Y-68680858D01*
X55571695Y-68872662D01*
X55431881Y-69089612D01*
X55341900Y-69295569D01*
X55341900Y-60841900D01*
X63767239Y-60841900D01*
X63675092Y-60880635D01*
X63675092Y-60880635D01*
G37*
X63675092Y-60880635D02*
X63460542Y-61015745D01*
X63270940Y-61184081D01*
X63111378Y-61381124D01*
X62986140Y-61601582D01*
X62898591Y-61839535D01*
X62851081Y-62088591D01*
X62844886Y-62342062D01*
X62880173Y-62593142D01*
X62955993Y-62835087D01*
X63067000Y-63054843D01*
X63068504Y-63286402D01*
X62930238Y-63074706D01*
X62738884Y-62858039D01*
X62518256Y-62671264D01*
X62272978Y-62518295D01*
X62008187Y-62402335D01*
X61729429Y-62325813D01*
X61442546Y-62290335D01*
X61153545Y-62296641D01*
X60868481Y-62344599D01*
X60593328Y-62433207D01*
X60333845Y-62560606D01*
X60095473Y-62724130D01*
X59909174Y-62896343D01*
X59844081Y-62733187D01*
X59723951Y-62545706D01*
X59570538Y-62384324D01*
X59389375Y-62254863D01*
X59187000Y-62161995D01*
X58970716Y-62109071D01*
X58748326Y-62098000D01*
X58527854Y-62129181D01*
X58317256Y-62201490D01*
X58124131Y-62312318D01*
X57955447Y-62457664D01*
X57817291Y-62632287D01*
X57786012Y-62692502D01*
X57691951Y-62545706D01*
X57538538Y-62384324D01*
X57357375Y-62254863D01*
X57155000Y-62161995D01*
X56938716Y-62109071D01*
X56716326Y-62098000D01*
X56495854Y-62129181D01*
X56285256Y-62201490D01*
X56092131Y-62312318D01*
X55923447Y-62457664D01*
X55785291Y-62632287D01*
X55682648Y-62829884D01*
X55619222Y-63043325D01*
X55597300Y-63264908D01*
X55617674Y-63486640D01*
X55679610Y-63700518D01*
X55780870Y-63898826D01*
X55917804Y-64074409D01*
X56085469Y-64220930D01*
X56275200Y-64331577D01*
X56275201Y-66868120D01*
X56265518Y-66916800D01*
X56303881Y-67109666D01*
X56372486Y-67212339D01*
X56413132Y-67273169D01*
X56454398Y-67300743D01*
X57570184Y-68416530D01*
X57426655Y-68347762D01*
X57179057Y-68274889D01*
X56922994Y-68242542D01*
X56665053Y-68251549D01*
X56411870Y-68301681D01*
X56169959Y-68391646D01*
X55945543Y-68519133D01*
X55744397Y-68680858D01*
X55571695Y-68872662D01*
X55431881Y-69089612D01*
X55341900Y-69295569D01*
X55341900Y-60841900D01*
X63767239Y-60841900D01*
X63675092Y-60880635D01*
G36*
X63090948Y-66742829D02*
G01*
X63094676Y-67316914D01*
X63016690Y-67303163D01*
X62650100Y-67303163D01*
X62650100Y-68708000D01*
X62317900Y-68708000D01*
X62317900Y-67303163D01*
X62058933Y-67303163D01*
X62627796Y-66734301D01*
X63048070Y-66734301D01*
X63090948Y-66742829D01*
X63090948Y-66742829D01*
G37*
X63090948Y-66742829D02*
X63094676Y-67316914D01*
X63016690Y-67303163D01*
X62650100Y-67303163D01*
X62650100Y-68708000D01*
X62317900Y-68708000D01*
X62317900Y-67303163D01*
X62058933Y-67303163D01*
X62627796Y-66734301D01*
X63048070Y-66734301D01*
X63090948Y-66742829D01*
G36*
X78025829Y-61518033D02*
G01*
X78046702Y-61546763D01*
X77961600Y-61546763D01*
X77961600Y-62824600D01*
X76683763Y-62824600D01*
X76683763Y-63178072D01*
X76760911Y-63465992D01*
X76898553Y-63630028D01*
X77026410Y-63703846D01*
X76965437Y-63795097D01*
X76940624Y-63919843D01*
X76940624Y-64953157D01*
X76965437Y-65077903D01*
X77041004Y-65190996D01*
X77154097Y-65266563D01*
X77278843Y-65291376D01*
X78312157Y-65291376D01*
X78436903Y-65266563D01*
X78549996Y-65190996D01*
X78604826Y-65108937D01*
X78775391Y-65135953D01*
X78809919Y-65126701D01*
X79200072Y-65126701D01*
X80731520Y-66658150D01*
X80677996Y-66658150D01*
X80590918Y-66653587D01*
X80554732Y-66672025D01*
X80482713Y-66687332D01*
X80330751Y-66797740D01*
X80312879Y-66828695D01*
X79800374Y-67341201D01*
X79623759Y-67341201D01*
X79415314Y-67408929D01*
X79238000Y-67537755D01*
X79109174Y-67715069D01*
X79041446Y-67923514D01*
X79041446Y-68142686D01*
X79066960Y-68221210D01*
X78154913Y-68221210D01*
X77101551Y-67167848D01*
X77284214Y-67227199D01*
X77503386Y-67227199D01*
X77711831Y-67159471D01*
X77889145Y-67030645D01*
X78017971Y-66853331D01*
X78085699Y-66644886D01*
X78085699Y-66425714D01*
X78017971Y-66217269D01*
X77889145Y-66039955D01*
X77711831Y-65911129D01*
X77503386Y-65843401D01*
X77284214Y-65843401D01*
X77075769Y-65911129D01*
X77042843Y-65935050D01*
X73900300Y-62792508D01*
X73900300Y-62218643D01*
X73928571Y-62179731D01*
X73940567Y-62142810D01*
X76683763Y-62142810D01*
X76683763Y-62492400D01*
X77629400Y-62492400D01*
X77629400Y-61546763D01*
X77275928Y-61546763D01*
X76988009Y-61623911D01*
X76823972Y-61761553D01*
X76718899Y-61943546D01*
X76683763Y-62142810D01*
X73940567Y-62142810D01*
X73996299Y-61971286D01*
X73996299Y-61752114D01*
X73928571Y-61543669D01*
X73856883Y-61444998D01*
X78002099Y-61444998D01*
X78025829Y-61518033D01*
X78025829Y-61518033D01*
G37*
X78025829Y-61518033D02*
X78046702Y-61546763D01*
X77961600Y-61546763D01*
X77961600Y-62824600D01*
X76683763Y-62824600D01*
X76683763Y-63178072D01*
X76760911Y-63465992D01*
X76898553Y-63630028D01*
X77026410Y-63703846D01*
X76965437Y-63795097D01*
X76940624Y-63919843D01*
X76940624Y-64953157D01*
X76965437Y-65077903D01*
X77041004Y-65190996D01*
X77154097Y-65266563D01*
X77278843Y-65291376D01*
X78312157Y-65291376D01*
X78436903Y-65266563D01*
X78549996Y-65190996D01*
X78604826Y-65108937D01*
X78775391Y-65135953D01*
X78809919Y-65126701D01*
X79200072Y-65126701D01*
X80731520Y-66658150D01*
X80677996Y-66658150D01*
X80590918Y-66653587D01*
X80554732Y-66672025D01*
X80482713Y-66687332D01*
X80330751Y-66797740D01*
X80312879Y-66828695D01*
X79800374Y-67341201D01*
X79623759Y-67341201D01*
X79415314Y-67408929D01*
X79238000Y-67537755D01*
X79109174Y-67715069D01*
X79041446Y-67923514D01*
X79041446Y-68142686D01*
X79066960Y-68221210D01*
X78154913Y-68221210D01*
X77101551Y-67167848D01*
X77284214Y-67227199D01*
X77503386Y-67227199D01*
X77711831Y-67159471D01*
X77889145Y-67030645D01*
X78017971Y-66853331D01*
X78085699Y-66644886D01*
X78085699Y-66425714D01*
X78017971Y-66217269D01*
X77889145Y-66039955D01*
X77711831Y-65911129D01*
X77503386Y-65843401D01*
X77284214Y-65843401D01*
X77075769Y-65911129D01*
X77042843Y-65935050D01*
X73900300Y-62792508D01*
X73900300Y-62218643D01*
X73928571Y-62179731D01*
X73940567Y-62142810D01*
X76683763Y-62142810D01*
X76683763Y-62492400D01*
X77629400Y-62492400D01*
X77629400Y-61546763D01*
X77275928Y-61546763D01*
X76988009Y-61623911D01*
X76823972Y-61761553D01*
X76718899Y-61943546D01*
X76683763Y-62142810D01*
X73940567Y-62142810D01*
X73996299Y-61971286D01*
X73996299Y-61752114D01*
X73928571Y-61543669D01*
X73856883Y-61444998D01*
X78002099Y-61444998D01*
X78025829Y-61518033D01*
G36*
X88655700Y-61649392D02*
G01*
X88655700Y-62971822D01*
X88459587Y-62908101D01*
X88240415Y-62908101D01*
X88031970Y-62975829D01*
X87854656Y-63104655D01*
X87725830Y-63281969D01*
X87658102Y-63490414D01*
X87658102Y-63510553D01*
X87531690Y-63488263D01*
X87411100Y-63488263D01*
X87411100Y-64504100D01*
X87135887Y-64504100D01*
X87135887Y-64437478D01*
X87086900Y-64286711D01*
X87086900Y-63488263D01*
X86969897Y-63488263D01*
X86969897Y-63484313D01*
X86902169Y-63275868D01*
X86773343Y-63098554D01*
X86596029Y-62969728D01*
X86387584Y-62902000D01*
X86168412Y-62902000D01*
X85959967Y-62969728D01*
X85782653Y-63098554D01*
X85653827Y-63275868D01*
X85586099Y-63484313D01*
X85586099Y-63660928D01*
X85491878Y-63755149D01*
X85427085Y-63813488D01*
X85414535Y-63852114D01*
X85374434Y-63913864D01*
X85345050Y-64099386D01*
X85354303Y-64133917D01*
X85354303Y-64580362D01*
X85275778Y-64554848D01*
X85056606Y-64554848D01*
X84848161Y-64622576D01*
X84670847Y-64751402D01*
X84542021Y-64928716D01*
X84530186Y-64965138D01*
X84498317Y-64954783D01*
X84601101Y-64776754D01*
X84636237Y-64577490D01*
X84636237Y-64135900D01*
X83166400Y-64135900D01*
X83166400Y-63803700D01*
X84636237Y-63803700D01*
X84636237Y-63358228D01*
X84603658Y-63236640D01*
X84689597Y-63294063D01*
X84814343Y-63318876D01*
X85381657Y-63318876D01*
X85506403Y-63294063D01*
X85619496Y-63218496D01*
X85695063Y-63105403D01*
X85719876Y-62980657D01*
X85719876Y-62463343D01*
X85716379Y-62445763D01*
X85836528Y-62344947D01*
X85941601Y-62162954D01*
X85993592Y-61868100D01*
X84935900Y-61868100D01*
X84935900Y-61543900D01*
X86003390Y-61543900D01*
X85975979Y-61441600D01*
X88447909Y-61441600D01*
X88655700Y-61649392D01*
X88655700Y-61649392D01*
G37*
X88655700Y-61649392D02*
X88655700Y-62971822D01*
X88459587Y-62908101D01*
X88240415Y-62908101D01*
X88031970Y-62975829D01*
X87854656Y-63104655D01*
X87725830Y-63281969D01*
X87658102Y-63490414D01*
X87658102Y-63510553D01*
X87531690Y-63488263D01*
X87411100Y-63488263D01*
X87411100Y-64504100D01*
X87135887Y-64504100D01*
X87135887Y-64437478D01*
X87086900Y-64286711D01*
X87086900Y-63488263D01*
X86969897Y-63488263D01*
X86969897Y-63484313D01*
X86902169Y-63275868D01*
X86773343Y-63098554D01*
X86596029Y-62969728D01*
X86387584Y-62902000D01*
X86168412Y-62902000D01*
X85959967Y-62969728D01*
X85782653Y-63098554D01*
X85653827Y-63275868D01*
X85586099Y-63484313D01*
X85586099Y-63660928D01*
X85491878Y-63755149D01*
X85427085Y-63813488D01*
X85414535Y-63852114D01*
X85374434Y-63913864D01*
X85345050Y-64099386D01*
X85354303Y-64133917D01*
X85354303Y-64580362D01*
X85275778Y-64554848D01*
X85056606Y-64554848D01*
X84848161Y-64622576D01*
X84670847Y-64751402D01*
X84542021Y-64928716D01*
X84530186Y-64965138D01*
X84498317Y-64954783D01*
X84601101Y-64776754D01*
X84636237Y-64577490D01*
X84636237Y-64135900D01*
X83166400Y-64135900D01*
X83166400Y-63803700D01*
X84636237Y-63803700D01*
X84636237Y-63358228D01*
X84603658Y-63236640D01*
X84689597Y-63294063D01*
X84814343Y-63318876D01*
X85381657Y-63318876D01*
X85506403Y-63294063D01*
X85619496Y-63218496D01*
X85695063Y-63105403D01*
X85719876Y-62980657D01*
X85719876Y-62463343D01*
X85716379Y-62445763D01*
X85836528Y-62344947D01*
X85941601Y-62162954D01*
X85993592Y-61868100D01*
X84935900Y-61868100D01*
X84935900Y-61543900D01*
X86003390Y-61543900D01*
X85975979Y-61441600D01*
X88447909Y-61441600D01*
X88655700Y-61649392D01*
G36*
X79863899Y-61562846D02*
G01*
X79828763Y-61762110D01*
X79828763Y-62203700D01*
X81298600Y-62203700D01*
X81298600Y-62535900D01*
X79972400Y-62535900D01*
X79972400Y-62446595D01*
X79801455Y-62347899D01*
X79602190Y-62312763D01*
X79481600Y-62312763D01*
X79481600Y-63328600D01*
X79157400Y-63328600D01*
X79157400Y-62312763D01*
X79032928Y-62312763D01*
X78907237Y-62346442D01*
X78907237Y-62138928D01*
X78834522Y-61867553D01*
X78968031Y-61824173D01*
X79145345Y-61695347D01*
X79274171Y-61518033D01*
X79299006Y-61441600D01*
X79933900Y-61441600D01*
X79863899Y-61562846D01*
X79863899Y-61562846D01*
G37*
X79863899Y-61562846D02*
X79828763Y-61762110D01*
X79828763Y-62203700D01*
X81298600Y-62203700D01*
X81298600Y-62535900D01*
X79972400Y-62535900D01*
X79972400Y-62446595D01*
X79801455Y-62347899D01*
X79602190Y-62312763D01*
X79481600Y-62312763D01*
X79481600Y-63328600D01*
X79157400Y-63328600D01*
X79157400Y-62312763D01*
X79032928Y-62312763D01*
X78907237Y-62346442D01*
X78907237Y-62138928D01*
X78834522Y-61867553D01*
X78968031Y-61824173D01*
X79145345Y-61695347D01*
X79274171Y-61518033D01*
X79299006Y-61441600D01*
X79933900Y-61441600D01*
X79863899Y-61562846D01*
G36*
X70591763Y-61480400D02*
G01*
X71607600Y-61480400D01*
X71607600Y-61804600D01*
X70591763Y-61804600D01*
X70591763Y-61929072D01*
X70667600Y-62212100D01*
X67988847Y-62212100D01*
X68755949Y-61444998D01*
X70591763Y-61444998D01*
X70591763Y-61480400D01*
X70591763Y-61480400D01*
G37*
X70591763Y-61480400D02*
X71607600Y-61480400D01*
X71607600Y-61804600D01*
X70591763Y-61804600D01*
X70591763Y-61929072D01*
X70667600Y-62212100D01*
X67988847Y-62212100D01*
X68755949Y-61444998D01*
X70591763Y-61444998D01*
X70591763Y-61480400D01*
G36*
X66590754Y-62212100D02*
G01*
X65929582Y-62212100D01*
X65931654Y-62127294D01*
X65890066Y-61876084D01*
X65808357Y-61636064D01*
X65688543Y-61412612D01*
X65533842Y-61211729D01*
X65348409Y-61038810D01*
X65137225Y-60898499D01*
X65011287Y-60841900D01*
X67960953Y-60841900D01*
X66590754Y-62212100D01*
X66590754Y-62212100D01*
G37*
X66590754Y-62212100D02*
X65929582Y-62212100D01*
X65931654Y-62127294D01*
X65890066Y-61876084D01*
X65808357Y-61636064D01*
X65688543Y-61412612D01*
X65533842Y-61211729D01*
X65348409Y-61038810D01*
X65137225Y-60898499D01*
X65011287Y-60841900D01*
X67960953Y-60841900D01*
X66590754Y-62212100D01*
G36*
X84219263Y-61448310D02*
G01*
X84219263Y-61483391D01*
X84165903Y-61447737D01*
X84135050Y-61441600D01*
X84220446Y-61441600D01*
X84219263Y-61448310D01*
X84219263Y-61448310D01*
G37*
X84219263Y-61448310D02*
X84219263Y-61483391D01*
X84165903Y-61447737D01*
X84135050Y-61441600D01*
X84220446Y-61441600D01*
X84219263Y-61448310D01*
M02*
