G04 #@! TF.GenerationSoftware,KiCad,Pcbnew,5.99.0-unknown-efbc802~86~ubuntu18.04.1*
G04 #@! TF.CreationDate,2019-09-12T13:39:23+03:00*
G04 #@! TF.ProjectId,USB-GIGABIT_Rev_C,5553422d-4749-4474-9142-49545f526576,rev?*
G04 #@! TF.SameCoordinates,Original*
G04 #@! TF.FileFunction,Soldermask,Top*
G04 #@! TF.FilePolarity,Negative*
%FSLAX46Y46*%
G04 Gerber Fmt 4.6, Leading zero omitted, Abs format (unit mm)*
G04 Created by KiCad (PCBNEW 5.99.0-unknown-efbc802~86~ubuntu18.04.1) date 2019-09-12 13:39:23*
%MOMM*%
%LPD*%
G04 APERTURE LIST*
%ADD10O,4.040000X1.640000*%
%ADD11C,1.040000*%
%ADD12R,2.431600X2.431600*%
%ADD13R,0.301600X0.901600*%
%ADD14R,0.901600X0.301600*%
%ADD15R,0.601600X0.651600*%
%ADD16C,1.254000*%
%ADD17R,1.151600X1.371600*%
%ADD18R,0.651600X0.601600*%
%ADD19R,1.117600X1.879600*%
%ADD20C,3.340000*%
%ADD21C,2.440000*%
%ADD22C,1.690000*%
%ADD23R,1.371600X1.625600*%
%ADD24R,1.117600X1.117600*%
%ADD25R,1.440000X1.240000*%
G04 APERTURE END LIST*
D10*
X104200000Y-64150000D03*
X104200000Y-75850000D03*
D11*
X104200000Y-67750000D03*
X104200000Y-72250000D03*
D12*
X82335000Y-71570500D03*
X82335000Y-69240500D03*
X84665000Y-69240500D03*
X84665000Y-71570500D03*
D13*
X81300000Y-67485500D03*
X81700000Y-67485500D03*
X82100000Y-67485500D03*
X82500000Y-67485500D03*
X82900000Y-67485500D03*
X83300000Y-67485500D03*
X83700000Y-67485500D03*
X84100000Y-67485500D03*
X84500000Y-67485500D03*
X84900000Y-67485500D03*
X85300000Y-67485500D03*
X85700000Y-67485500D03*
D14*
X86420000Y-68205500D03*
X86420000Y-68605500D03*
X86420000Y-69005500D03*
X86420000Y-69405500D03*
X86420000Y-69805500D03*
X86420000Y-70205500D03*
X86420000Y-70605500D03*
X86420000Y-71005500D03*
X86420000Y-71405500D03*
X86420000Y-71805500D03*
X86420000Y-72205500D03*
X86420000Y-72605500D03*
D13*
X85700000Y-73325500D03*
X85300000Y-73325500D03*
X84900000Y-73325500D03*
X84500000Y-73325500D03*
X84100000Y-73325500D03*
X83700000Y-73325500D03*
X83300000Y-73325500D03*
X82900000Y-73325500D03*
X82500000Y-73325500D03*
X82100000Y-73325500D03*
X81700000Y-73325500D03*
X81300000Y-73325500D03*
D14*
X80580000Y-72605500D03*
X80580000Y-72205500D03*
X80580000Y-71805500D03*
X80580000Y-71405500D03*
X80580000Y-71005500D03*
X80580000Y-70605500D03*
X80580000Y-70205500D03*
X80580000Y-69805500D03*
X80580000Y-69405500D03*
X80580000Y-69005500D03*
X80580000Y-68605500D03*
X80580000Y-68205500D03*
D15*
X89331800Y-68338700D03*
X88315800Y-68338700D03*
X88642000Y-71750000D03*
X89658000Y-71750000D03*
D16*
X56850000Y-69850000D03*
X104850000Y-78200000D03*
X104500000Y-62000000D03*
D17*
X62484000Y-68541900D03*
X64516000Y-68541900D03*
X62509400Y-70675500D03*
X64541400Y-70675500D03*
X98996500Y-62547500D03*
X101028500Y-62547500D03*
D15*
X72461500Y-61642500D03*
X71445500Y-61642500D03*
D18*
X85098000Y-62722000D03*
X85098000Y-61706000D03*
X79319500Y-63166500D03*
X79319500Y-64182500D03*
D19*
X70278000Y-78000000D03*
X66722000Y-78000000D03*
D15*
X89695400Y-72800000D03*
X88679400Y-72800000D03*
D20*
X61341500Y-75715000D03*
X61341500Y-64285000D03*
D21*
X64389500Y-77747000D03*
X64389500Y-62253000D03*
D22*
X56769500Y-76731000D03*
X58801500Y-76731000D03*
X56769500Y-63269000D03*
X58801500Y-63269000D03*
X70231500Y-75715000D03*
X67691500Y-74445000D03*
X70231500Y-73175000D03*
X67691500Y-71905000D03*
X70231500Y-70635000D03*
X67691500Y-69365000D03*
X70231500Y-68095000D03*
X67691500Y-66825000D03*
X70231500Y-65555000D03*
X67691500Y-64285000D03*
D23*
X98996500Y-77533500D03*
X101028500Y-77533500D03*
D24*
X77795500Y-62658500D03*
X77795500Y-64436500D03*
D18*
X88350000Y-65358000D03*
X88350000Y-64342000D03*
X87249000Y-65358000D03*
X87249000Y-64342000D03*
D24*
X61074300Y-70688200D03*
X59296300Y-70688200D03*
X60985400Y-68541900D03*
X59207400Y-68541900D03*
D25*
X81132500Y-62369800D03*
X83332500Y-63969800D03*
X83332500Y-62369800D03*
X81132500Y-63969800D03*
M02*
