G04 #@! TF.GenerationSoftware,KiCad,Pcbnew,5.99.0-unknown-efbc802~86~ubuntu18.04.1*
G04 #@! TF.CreationDate,2019-09-12T13:39:22+03:00*
G04 #@! TF.ProjectId,USB-GIGABIT_Rev_C,5553422d-4749-4474-9142-49545f526576,rev?*
G04 #@! TF.SameCoordinates,Original*
G04 #@! TF.FileFunction,Copper,L2,Inr*
G04 #@! TF.FilePolarity,Positive*
%FSLAX46Y46*%
G04 Gerber Fmt 4.6, Leading zero omitted, Abs format (unit mm)*
G04 Created by KiCad (PCBNEW 5.99.0-unknown-efbc802~86~ubuntu18.04.1) date 2019-09-12 13:39:22*
%MOMM*%
%LPD*%
G04 APERTURE LIST*
%ADD10O,4.000000X1.600000*%
%ADD11O,1.800000X1.800000*%
%ADD12C,0.600000*%
%ADD13C,2.400000*%
%ADD14C,1.650000*%
%ADD15C,0.700000*%
%ADD16C,1.016000*%
%ADD17C,0.254000*%
G04 APERTURE END LIST*
D10*
X104200000Y-64150000D03*
X104200000Y-75850000D03*
D11*
X83500000Y-70405500D03*
D12*
X62450000Y-67200000D03*
X59055000Y-66675000D03*
X58610500Y-73914000D03*
X62750000Y-73850000D03*
X73342500Y-76517500D03*
X74993500Y-67881500D03*
X91150000Y-66600000D03*
X90050000Y-66600000D03*
X80250000Y-75700000D03*
X78422500Y-75184000D03*
X93600000Y-67500000D03*
X95200000Y-64600000D03*
X73150000Y-66100000D03*
X73000000Y-69650000D03*
X73723500Y-73533000D03*
D13*
X64389500Y-77747000D03*
X64389500Y-62253000D03*
D14*
X56769500Y-76731000D03*
X58801500Y-76731000D03*
X56769500Y-63269000D03*
X58801500Y-63269000D03*
X70231500Y-75715000D03*
X67691500Y-74445000D03*
X70231500Y-73175000D03*
X67691500Y-71905000D03*
X70231500Y-70635000D03*
X67691500Y-69365000D03*
X70231500Y-68095000D03*
X67691500Y-66825000D03*
X70231500Y-65555000D03*
X67691500Y-64285000D03*
D15*
X66850000Y-61400000D03*
X61350000Y-78550000D03*
X59250000Y-78450000D03*
X59300000Y-61550000D03*
X61350000Y-61550000D03*
X86500000Y-61900000D03*
X81754942Y-66156343D03*
X93446600Y-68491100D03*
X91020900Y-77851000D03*
X97409000Y-68516500D03*
X88350001Y-63600000D03*
X93000000Y-65550000D03*
X97395200Y-63650000D03*
X87650000Y-68650000D03*
X92050000Y-61600000D03*
X92130343Y-69396500D03*
X84219221Y-65591605D03*
X86277998Y-63593899D03*
X85166192Y-65246747D03*
X86443988Y-64547064D03*
X85438012Y-75297518D03*
X85916937Y-74559243D03*
X80772000Y-74053700D03*
X76296520Y-68583217D03*
X86654781Y-74079652D03*
X84707225Y-75787794D03*
X77114400Y-72326500D03*
X94742000Y-76517500D03*
X88164672Y-74819235D03*
X77393800Y-66535300D03*
X73304400Y-61861700D03*
X79733345Y-68033100D03*
X83277947Y-65414012D03*
X87895878Y-71691651D03*
X87083900Y-73240900D03*
X79260700Y-73583800D03*
X71348600Y-77939900D03*
X91059000Y-76517500D03*
X97536000Y-77851000D03*
X103568500Y-66675000D03*
X103441500Y-70294500D03*
X98950000Y-64000000D03*
X79438500Y-66484500D03*
X62534800Y-69596000D03*
X76717018Y-65332482D03*
X70815200Y-61734700D03*
X90652600Y-72453500D03*
X89890601Y-68745100D03*
X78650000Y-61200002D03*
X82185876Y-76164124D03*
X81514124Y-76835876D03*
X95906237Y-67330697D03*
X96577989Y-66658945D03*
X77749400Y-74371200D03*
D16*
X64389500Y-62253000D02*
X64389500Y-77747000D01*
D17*
G36*
X77920001Y-61084381D02*
G01*
X77920001Y-61315623D01*
X77991459Y-61535546D01*
X78127378Y-61722624D01*
X78314456Y-61858543D01*
X78534379Y-61930001D01*
X78765621Y-61930001D01*
X78985544Y-61858543D01*
X79172622Y-61722624D01*
X79308541Y-61535546D01*
X79379999Y-61315623D01*
X79379999Y-61084381D01*
X79313591Y-60880000D01*
X91903606Y-60880000D01*
X91714456Y-60941459D01*
X91527378Y-61077378D01*
X91391459Y-61264456D01*
X91320001Y-61484379D01*
X91320001Y-61715621D01*
X91391459Y-61935544D01*
X91527378Y-62122622D01*
X91714456Y-62258541D01*
X91934379Y-62329999D01*
X92165621Y-62329999D01*
X92385544Y-62258541D01*
X92572622Y-62122622D01*
X92708541Y-61935544D01*
X92779999Y-61715621D01*
X92779999Y-61484379D01*
X92708541Y-61264456D01*
X92572622Y-61077378D01*
X92385544Y-60941459D01*
X92196394Y-60880000D01*
X106120000Y-60880000D01*
X106120000Y-63213713D01*
X106069883Y-63171660D01*
X105867098Y-63060179D01*
X105646098Y-62990073D01*
X105455116Y-62970000D01*
X102941834Y-62970000D01*
X102769696Y-62986878D01*
X102548164Y-63053763D01*
X102343842Y-63162403D01*
X102164513Y-63308659D01*
X102017007Y-63486963D01*
X101906944Y-63690522D01*
X101838515Y-63911582D01*
X101814326Y-64141722D01*
X101835299Y-64372178D01*
X101900636Y-64594172D01*
X102007846Y-64799248D01*
X102152848Y-64979593D01*
X102330117Y-65128340D01*
X102532902Y-65239821D01*
X102753902Y-65309927D01*
X102944884Y-65330000D01*
X105458166Y-65330000D01*
X105630304Y-65313122D01*
X105851836Y-65246237D01*
X106056158Y-65137597D01*
X106120000Y-65085529D01*
X106120001Y-74913714D01*
X106069883Y-74871660D01*
X105867098Y-74760179D01*
X105646098Y-74690073D01*
X105455116Y-74670000D01*
X102941834Y-74670000D01*
X102769696Y-74686878D01*
X102548164Y-74753763D01*
X102343842Y-74862403D01*
X102164513Y-75008659D01*
X102017007Y-75186963D01*
X101906944Y-75390522D01*
X101838515Y-75611582D01*
X101814326Y-75841722D01*
X101835299Y-76072178D01*
X101900636Y-76294172D01*
X102007846Y-76499248D01*
X102152848Y-76679593D01*
X102330117Y-76828340D01*
X102532902Y-76939821D01*
X102753902Y-77009927D01*
X102944884Y-77030000D01*
X105458166Y-77030000D01*
X105630304Y-77013122D01*
X105851836Y-76946237D01*
X106056158Y-76837597D01*
X106120001Y-76785528D01*
X106120001Y-79120000D01*
X69924980Y-79120000D01*
X70890403Y-77735379D01*
X90290901Y-77735379D01*
X90290901Y-77966621D01*
X90362359Y-78186544D01*
X90498278Y-78373622D01*
X90685356Y-78509541D01*
X90905279Y-78580999D01*
X91136521Y-78580999D01*
X91356444Y-78509541D01*
X91543522Y-78373622D01*
X91679441Y-78186544D01*
X91750899Y-77966621D01*
X91750899Y-77735379D01*
X91679441Y-77515456D01*
X91543522Y-77328378D01*
X91356444Y-77192459D01*
X91136521Y-77121001D01*
X90905279Y-77121001D01*
X90685356Y-77192459D01*
X90498278Y-77328378D01*
X90362359Y-77515456D01*
X90290901Y-77735379D01*
X70890403Y-77735379D01*
X71598196Y-76720255D01*
X80784125Y-76720255D01*
X80784125Y-76951497D01*
X80855583Y-77171420D01*
X80991502Y-77358498D01*
X81178580Y-77494417D01*
X81398503Y-77565875D01*
X81629745Y-77565875D01*
X81849668Y-77494417D01*
X82036746Y-77358498D01*
X82172665Y-77171420D01*
X82244123Y-76951497D01*
X82244123Y-76894123D01*
X82301497Y-76894123D01*
X82521420Y-76822665D01*
X82708498Y-76686746D01*
X82844417Y-76499668D01*
X82915875Y-76279745D01*
X82915875Y-76048503D01*
X82844417Y-75828580D01*
X82730782Y-75672173D01*
X83977226Y-75672173D01*
X83977226Y-75903415D01*
X84048684Y-76123338D01*
X84184603Y-76310416D01*
X84371681Y-76446335D01*
X84591604Y-76517793D01*
X84822846Y-76517793D01*
X85042769Y-76446335D01*
X85103957Y-76401879D01*
X94012001Y-76401879D01*
X94012001Y-76633121D01*
X94083459Y-76853044D01*
X94219378Y-77040122D01*
X94406456Y-77176041D01*
X94626379Y-77247499D01*
X94857621Y-77247499D01*
X95077544Y-77176041D01*
X95264622Y-77040122D01*
X95400541Y-76853044D01*
X95471999Y-76633121D01*
X95471999Y-76401879D01*
X95400541Y-76181956D01*
X95264622Y-75994878D01*
X95077544Y-75858959D01*
X94857621Y-75787501D01*
X94626379Y-75787501D01*
X94406456Y-75858959D01*
X94219378Y-75994878D01*
X94083459Y-76181956D01*
X94012001Y-76401879D01*
X85103957Y-76401879D01*
X85229847Y-76310416D01*
X85365766Y-76123338D01*
X85396900Y-76027517D01*
X85553633Y-76027517D01*
X85773556Y-75956059D01*
X85960634Y-75820140D01*
X86096553Y-75633062D01*
X86168011Y-75413139D01*
X86168011Y-75245230D01*
X86252481Y-75217784D01*
X86439559Y-75081865D01*
X86575478Y-74894787D01*
X86603140Y-74809651D01*
X86770402Y-74809651D01*
X86990325Y-74738193D01*
X87037919Y-74703614D01*
X87434673Y-74703614D01*
X87434673Y-74934856D01*
X87506131Y-75154779D01*
X87642050Y-75341857D01*
X87829128Y-75477776D01*
X88049051Y-75549234D01*
X88280293Y-75549234D01*
X88500216Y-75477776D01*
X88687294Y-75341857D01*
X88823213Y-75154779D01*
X88894671Y-74934856D01*
X88894671Y-74703614D01*
X88823213Y-74483691D01*
X88687294Y-74296613D01*
X88500216Y-74160694D01*
X88280293Y-74089236D01*
X88049051Y-74089236D01*
X87829128Y-74160694D01*
X87642050Y-74296613D01*
X87506131Y-74483691D01*
X87434673Y-74703614D01*
X87037919Y-74703614D01*
X87177403Y-74602274D01*
X87313322Y-74415196D01*
X87384780Y-74195273D01*
X87384780Y-73964031D01*
X87369107Y-73915796D01*
X87419444Y-73899441D01*
X87606522Y-73763522D01*
X87742441Y-73576444D01*
X87813899Y-73356521D01*
X87813899Y-73125279D01*
X87742441Y-72905356D01*
X87606522Y-72718278D01*
X87419444Y-72582359D01*
X87199521Y-72510901D01*
X86968279Y-72510901D01*
X86748356Y-72582359D01*
X86561278Y-72718278D01*
X86425359Y-72905356D01*
X86353901Y-73125279D01*
X86353901Y-73356521D01*
X86369574Y-73404756D01*
X86319237Y-73421111D01*
X86132159Y-73557030D01*
X85996240Y-73744108D01*
X85968578Y-73829244D01*
X85801316Y-73829244D01*
X85581393Y-73900702D01*
X85394315Y-74036621D01*
X85258396Y-74223699D01*
X85186938Y-74443622D01*
X85186938Y-74611531D01*
X85102468Y-74638977D01*
X84915390Y-74774896D01*
X84779471Y-74961974D01*
X84748337Y-75057795D01*
X84591604Y-75057795D01*
X84371681Y-75129253D01*
X84184603Y-75265172D01*
X84048684Y-75452250D01*
X83977226Y-75672173D01*
X82730782Y-75672173D01*
X82708498Y-75641502D01*
X82521420Y-75505583D01*
X82301497Y-75434125D01*
X82070255Y-75434125D01*
X81850332Y-75505583D01*
X81663254Y-75641502D01*
X81527335Y-75828580D01*
X81455877Y-76048503D01*
X81455877Y-76105877D01*
X81398503Y-76105877D01*
X81178580Y-76177335D01*
X80991502Y-76313254D01*
X80855583Y-76500332D01*
X80784125Y-76720255D01*
X71598196Y-76720255D01*
X72526456Y-75388936D01*
X72513430Y-74255579D01*
X77019401Y-74255579D01*
X77019401Y-74486821D01*
X77090859Y-74706744D01*
X77226778Y-74893822D01*
X77413856Y-75029741D01*
X77633779Y-75101199D01*
X77865021Y-75101199D01*
X78084944Y-75029741D01*
X78272022Y-74893822D01*
X78407941Y-74706744D01*
X78479399Y-74486821D01*
X78479399Y-74255579D01*
X78407941Y-74035656D01*
X78272022Y-73848578D01*
X78084944Y-73712659D01*
X77865021Y-73641201D01*
X77633779Y-73641201D01*
X77413856Y-73712659D01*
X77226778Y-73848578D01*
X77090859Y-74035656D01*
X77019401Y-74255579D01*
X72513430Y-74255579D01*
X72504380Y-73468179D01*
X78530701Y-73468179D01*
X78530701Y-73699421D01*
X78602159Y-73919344D01*
X78738078Y-74106422D01*
X78925156Y-74242341D01*
X79145079Y-74313799D01*
X79376321Y-74313799D01*
X79596244Y-74242341D01*
X79783322Y-74106422D01*
X79905629Y-73938079D01*
X80042001Y-73938079D01*
X80042001Y-74169321D01*
X80113459Y-74389244D01*
X80249378Y-74576322D01*
X80436456Y-74712241D01*
X80656379Y-74783699D01*
X80887621Y-74783699D01*
X81107544Y-74712241D01*
X81294622Y-74576322D01*
X81430541Y-74389244D01*
X81501999Y-74169321D01*
X81501999Y-73938079D01*
X81430541Y-73718156D01*
X81294622Y-73531078D01*
X81107544Y-73395159D01*
X80887621Y-73323701D01*
X80656379Y-73323701D01*
X80436456Y-73395159D01*
X80249378Y-73531078D01*
X80113459Y-73718156D01*
X80042001Y-73938079D01*
X79905629Y-73938079D01*
X79919241Y-73919344D01*
X79990699Y-73699421D01*
X79990699Y-73468179D01*
X79919241Y-73248256D01*
X79783322Y-73061178D01*
X79596244Y-72925259D01*
X79376321Y-72853801D01*
X79145079Y-72853801D01*
X78925156Y-72925259D01*
X78738078Y-73061178D01*
X78602159Y-73248256D01*
X78530701Y-73468179D01*
X72504380Y-73468179D01*
X72489927Y-72210879D01*
X76384401Y-72210879D01*
X76384401Y-72442121D01*
X76455859Y-72662044D01*
X76591778Y-72849122D01*
X76778856Y-72985041D01*
X76998779Y-73056499D01*
X77230021Y-73056499D01*
X77449944Y-72985041D01*
X77637022Y-72849122D01*
X77772941Y-72662044D01*
X77844399Y-72442121D01*
X77844399Y-72210879D01*
X77772941Y-71990956D01*
X77637022Y-71803878D01*
X77449944Y-71667959D01*
X77230021Y-71596501D01*
X76998779Y-71596501D01*
X76778856Y-71667959D01*
X76591778Y-71803878D01*
X76455859Y-71990956D01*
X76384401Y-72210879D01*
X72489927Y-72210879D01*
X72482630Y-71576030D01*
X87165879Y-71576030D01*
X87165879Y-71807272D01*
X87237337Y-72027195D01*
X87373256Y-72214273D01*
X87560334Y-72350192D01*
X87780257Y-72421650D01*
X88011499Y-72421650D01*
X88231422Y-72350192D01*
X88379967Y-72242268D01*
X103314048Y-72242268D01*
X103336032Y-72446289D01*
X103404361Y-72639780D01*
X103515369Y-72812362D01*
X103663103Y-72954777D01*
X103839637Y-73059388D01*
X104035503Y-73120581D01*
X104240190Y-73135074D01*
X104442724Y-73102089D01*
X104632237Y-73023396D01*
X104798563Y-72903217D01*
X104932781Y-72747997D01*
X105027692Y-72566064D01*
X105078326Y-72366691D01*
X105080229Y-72148656D01*
X105033082Y-71948429D01*
X104941361Y-71764867D01*
X104809872Y-71607329D01*
X104645669Y-71484265D01*
X104457557Y-71402277D01*
X104255631Y-71365763D01*
X104050721Y-71376681D01*
X103853817Y-71434446D01*
X103675485Y-71535959D01*
X103525288Y-71675775D01*
X103411284Y-71846394D01*
X103339589Y-72038663D01*
X103314048Y-72242268D01*
X88379967Y-72242268D01*
X88418500Y-72214273D01*
X88554419Y-72027195D01*
X88625877Y-71807272D01*
X88625877Y-71576030D01*
X88554419Y-71356107D01*
X88418500Y-71169029D01*
X88231422Y-71033110D01*
X88011499Y-70961652D01*
X87780257Y-70961652D01*
X87560334Y-71033110D01*
X87373256Y-71169029D01*
X87237337Y-71356107D01*
X87165879Y-71576030D01*
X72482630Y-71576030D01*
X72446901Y-68467596D01*
X75566521Y-68467596D01*
X75566521Y-68698838D01*
X75637979Y-68918761D01*
X75773898Y-69105839D01*
X75960976Y-69241758D01*
X76180899Y-69313216D01*
X76412141Y-69313216D01*
X76632064Y-69241758D01*
X76819142Y-69105839D01*
X76955061Y-68918761D01*
X77026519Y-68698838D01*
X77026519Y-68467596D01*
X76955061Y-68247673D01*
X76819142Y-68060595D01*
X76632064Y-67924676D01*
X76609915Y-67917479D01*
X79003346Y-67917479D01*
X79003346Y-68148721D01*
X79074804Y-68368644D01*
X79210723Y-68555722D01*
X79397801Y-68691641D01*
X79617724Y-68763099D01*
X79848966Y-68763099D01*
X80068889Y-68691641D01*
X80255967Y-68555722D01*
X80271473Y-68534379D01*
X86920001Y-68534379D01*
X86920001Y-68765621D01*
X86991459Y-68985544D01*
X87127378Y-69172622D01*
X87314456Y-69308541D01*
X87534379Y-69379999D01*
X87765621Y-69379999D01*
X87985544Y-69308541D01*
X88023617Y-69280879D01*
X91400344Y-69280879D01*
X91400344Y-69512121D01*
X91471802Y-69732044D01*
X91607721Y-69919122D01*
X91794799Y-70055041D01*
X92014722Y-70126499D01*
X92245964Y-70126499D01*
X92465887Y-70055041D01*
X92652965Y-69919122D01*
X92788884Y-69732044D01*
X92860342Y-69512121D01*
X92860342Y-69280879D01*
X92788884Y-69060956D01*
X92652965Y-68873878D01*
X92465887Y-68737959D01*
X92245964Y-68666501D01*
X92014722Y-68666501D01*
X91794799Y-68737959D01*
X91607721Y-68873878D01*
X91471802Y-69060956D01*
X91400344Y-69280879D01*
X88023617Y-69280879D01*
X88172622Y-69172622D01*
X88308541Y-68985544D01*
X88379999Y-68765621D01*
X88379999Y-68534379D01*
X88328369Y-68375479D01*
X92716601Y-68375479D01*
X92716601Y-68606721D01*
X92788059Y-68826644D01*
X92923978Y-69013722D01*
X93111056Y-69149641D01*
X93330979Y-69221099D01*
X93562221Y-69221099D01*
X93782144Y-69149641D01*
X93969222Y-69013722D01*
X94105141Y-68826644D01*
X94176599Y-68606721D01*
X94176599Y-68400879D01*
X96679001Y-68400879D01*
X96679001Y-68632121D01*
X96750459Y-68852044D01*
X96886378Y-69039122D01*
X97073456Y-69175041D01*
X97293379Y-69246499D01*
X97524621Y-69246499D01*
X97744544Y-69175041D01*
X97931622Y-69039122D01*
X98067541Y-68852044D01*
X98138999Y-68632121D01*
X98138999Y-68400879D01*
X98067541Y-68180956D01*
X97931622Y-67993878D01*
X97744544Y-67857959D01*
X97524621Y-67786501D01*
X97293379Y-67786501D01*
X97073456Y-67857959D01*
X96886378Y-67993878D01*
X96750459Y-68180956D01*
X96679001Y-68400879D01*
X94176599Y-68400879D01*
X94176599Y-68375479D01*
X94105141Y-68155556D01*
X93969222Y-67968478D01*
X93782144Y-67832559D01*
X93562221Y-67761101D01*
X93330979Y-67761101D01*
X93111056Y-67832559D01*
X92923978Y-67968478D01*
X92788059Y-68155556D01*
X92716601Y-68375479D01*
X88328369Y-68375479D01*
X88308541Y-68314456D01*
X88172622Y-68127378D01*
X87985544Y-67991459D01*
X87765621Y-67920001D01*
X87534379Y-67920001D01*
X87314456Y-67991459D01*
X87127378Y-68127378D01*
X86991459Y-68314456D01*
X86920001Y-68534379D01*
X80271473Y-68534379D01*
X80391886Y-68368644D01*
X80463344Y-68148721D01*
X80463344Y-67917479D01*
X80391886Y-67697556D01*
X80255967Y-67510478D01*
X80068889Y-67374559D01*
X79848966Y-67303101D01*
X79617724Y-67303101D01*
X79397801Y-67374559D01*
X79210723Y-67510478D01*
X79074804Y-67697556D01*
X79003346Y-67917479D01*
X76609915Y-67917479D01*
X76412141Y-67853218D01*
X76180899Y-67853218D01*
X75960976Y-67924676D01*
X75773898Y-68060595D01*
X75637979Y-68247673D01*
X75566521Y-68467596D01*
X72446901Y-68467596D01*
X72423362Y-66419679D01*
X76663801Y-66419679D01*
X76663801Y-66650921D01*
X76735259Y-66870844D01*
X76871178Y-67057922D01*
X77058256Y-67193841D01*
X77278179Y-67265299D01*
X77509421Y-67265299D01*
X77729344Y-67193841D01*
X77916422Y-67057922D01*
X78052341Y-66870844D01*
X78123799Y-66650921D01*
X78123799Y-66419679D01*
X78052341Y-66199756D01*
X77936797Y-66040722D01*
X81024943Y-66040722D01*
X81024943Y-66271964D01*
X81096401Y-66491887D01*
X81232320Y-66678965D01*
X81419398Y-66814884D01*
X81639321Y-66886342D01*
X81870563Y-66886342D01*
X82090486Y-66814884D01*
X82277564Y-66678965D01*
X82340157Y-66592812D01*
X89363653Y-66592812D01*
X89387004Y-66777650D01*
X89459200Y-66949398D01*
X89574924Y-67095405D01*
X89725649Y-67204913D01*
X89900270Y-67269854D01*
X90085923Y-67285444D01*
X90268929Y-67250534D01*
X90435806Y-67167695D01*
X90574258Y-67043032D01*
X90600562Y-67001584D01*
X90674924Y-67095405D01*
X90825649Y-67204913D01*
X91000270Y-67269854D01*
X91185923Y-67285444D01*
X91368929Y-67250534D01*
X91440358Y-67215076D01*
X95176238Y-67215076D01*
X95176238Y-67446318D01*
X95247696Y-67666241D01*
X95383615Y-67853319D01*
X95570693Y-67989238D01*
X95790616Y-68060696D01*
X96021858Y-68060696D01*
X96241781Y-67989238D01*
X96428859Y-67853319D01*
X96509541Y-67742268D01*
X103314048Y-67742268D01*
X103336032Y-67946289D01*
X103404361Y-68139780D01*
X103515369Y-68312362D01*
X103663103Y-68454777D01*
X103839637Y-68559388D01*
X104035503Y-68620581D01*
X104240190Y-68635074D01*
X104442724Y-68602089D01*
X104632237Y-68523396D01*
X104798563Y-68403217D01*
X104932781Y-68247997D01*
X105027692Y-68066064D01*
X105078326Y-67866691D01*
X105080229Y-67648656D01*
X105033082Y-67448429D01*
X104941361Y-67264867D01*
X104809872Y-67107329D01*
X104645669Y-66984265D01*
X104457557Y-66902277D01*
X104255631Y-66865763D01*
X104050721Y-66876681D01*
X103853817Y-66934446D01*
X103675485Y-67035959D01*
X103525288Y-67175775D01*
X103411284Y-67346394D01*
X103339589Y-67538663D01*
X103314048Y-67742268D01*
X96509541Y-67742268D01*
X96564778Y-67666241D01*
X96636236Y-67446318D01*
X96636236Y-67388944D01*
X96693610Y-67388944D01*
X96913533Y-67317486D01*
X97100611Y-67181567D01*
X97236530Y-66994489D01*
X97307988Y-66774566D01*
X97307988Y-66543324D01*
X97236530Y-66323401D01*
X97100611Y-66136323D01*
X96913533Y-66000404D01*
X96693610Y-65928946D01*
X96462368Y-65928946D01*
X96242445Y-66000404D01*
X96055367Y-66136323D01*
X95919448Y-66323401D01*
X95847990Y-66543324D01*
X95847990Y-66600698D01*
X95790616Y-66600698D01*
X95570693Y-66672156D01*
X95383615Y-66808075D01*
X95247696Y-66995153D01*
X95176238Y-67215076D01*
X91440358Y-67215076D01*
X91535806Y-67167695D01*
X91674258Y-67043032D01*
X91774086Y-66885729D01*
X91828128Y-66706730D01*
X91830215Y-66507495D01*
X91779933Y-66327404D01*
X91683421Y-66168044D01*
X91547610Y-66040509D01*
X91382504Y-65954194D01*
X91200269Y-65915459D01*
X91014331Y-65927157D01*
X90838388Y-65988427D01*
X90685403Y-66094755D01*
X90600898Y-66196903D01*
X90583421Y-66168044D01*
X90447610Y-66040509D01*
X90282504Y-65954194D01*
X90100269Y-65915459D01*
X89914331Y-65927157D01*
X89738388Y-65988427D01*
X89585403Y-66094755D01*
X89466647Y-66238305D01*
X89390869Y-66408505D01*
X89363653Y-66592812D01*
X82340157Y-66592812D01*
X82413483Y-66491887D01*
X82484941Y-66271964D01*
X82484941Y-66040722D01*
X82413483Y-65820799D01*
X82277564Y-65633721D01*
X82090486Y-65497802D01*
X81870563Y-65426344D01*
X81639321Y-65426344D01*
X81419398Y-65497802D01*
X81232320Y-65633721D01*
X81096401Y-65820799D01*
X81024943Y-66040722D01*
X77936797Y-66040722D01*
X77916422Y-66012678D01*
X77729344Y-65876759D01*
X77509421Y-65805301D01*
X77278179Y-65805301D01*
X77058256Y-65876759D01*
X76871178Y-66012678D01*
X76735259Y-66199756D01*
X76663801Y-66419679D01*
X72423362Y-66419679D01*
X72410474Y-65298391D01*
X82547948Y-65298391D01*
X82547948Y-65529633D01*
X82619406Y-65749556D01*
X82755325Y-65936634D01*
X82942403Y-66072553D01*
X83162326Y-66144011D01*
X83393568Y-66144011D01*
X83613491Y-66072553D01*
X83648069Y-66047431D01*
X83696599Y-66114227D01*
X83883677Y-66250146D01*
X84103600Y-66321604D01*
X84334842Y-66321604D01*
X84554765Y-66250146D01*
X84741843Y-66114227D01*
X84877762Y-65927149D01*
X84879688Y-65921222D01*
X85050571Y-65976746D01*
X85281813Y-65976746D01*
X85501736Y-65905288D01*
X85688814Y-65769369D01*
X85824733Y-65582291D01*
X85872792Y-65434379D01*
X92270001Y-65434379D01*
X92270001Y-65665621D01*
X92341459Y-65885544D01*
X92477378Y-66072622D01*
X92664456Y-66208541D01*
X92884379Y-66279999D01*
X93115621Y-66279999D01*
X93335544Y-66208541D01*
X93522622Y-66072622D01*
X93658541Y-65885544D01*
X93729999Y-65665621D01*
X93729999Y-65434379D01*
X93658541Y-65214456D01*
X93522622Y-65027378D01*
X93335544Y-64891459D01*
X93115621Y-64820001D01*
X92884379Y-64820001D01*
X92664456Y-64891459D01*
X92477378Y-65027378D01*
X92341459Y-65214456D01*
X92270001Y-65434379D01*
X85872792Y-65434379D01*
X85896191Y-65362368D01*
X85896191Y-65131126D01*
X85839709Y-64957294D01*
X85921366Y-65069686D01*
X86108444Y-65205605D01*
X86328367Y-65277063D01*
X86559609Y-65277063D01*
X86779532Y-65205605D01*
X86966610Y-65069686D01*
X87102529Y-64882608D01*
X87173987Y-64662685D01*
X87173987Y-64431443D01*
X87102529Y-64211520D01*
X86966610Y-64024442D01*
X86901754Y-63977321D01*
X86936539Y-63929443D01*
X87007997Y-63709520D01*
X87007997Y-63484379D01*
X87620002Y-63484379D01*
X87620002Y-63715621D01*
X87691460Y-63935544D01*
X87827379Y-64122622D01*
X88014457Y-64258541D01*
X88234380Y-64329999D01*
X88465622Y-64329999D01*
X88685545Y-64258541D01*
X88872623Y-64122622D01*
X89008542Y-63935544D01*
X89080000Y-63715621D01*
X89080000Y-63534379D01*
X96665201Y-63534379D01*
X96665201Y-63765621D01*
X96736659Y-63985544D01*
X96872578Y-64172622D01*
X97059656Y-64308541D01*
X97279579Y-64379999D01*
X97510821Y-64379999D01*
X97730744Y-64308541D01*
X97917822Y-64172622D01*
X98053741Y-63985544D01*
X98125199Y-63765621D01*
X98125199Y-63534379D01*
X98053741Y-63314456D01*
X97917822Y-63127378D01*
X97730744Y-62991459D01*
X97510821Y-62920001D01*
X97279579Y-62920001D01*
X97059656Y-62991459D01*
X96872578Y-63127378D01*
X96736659Y-63314456D01*
X96665201Y-63534379D01*
X89080000Y-63534379D01*
X89080000Y-63484379D01*
X89008542Y-63264456D01*
X88872623Y-63077378D01*
X88685545Y-62941459D01*
X88465622Y-62870001D01*
X88234380Y-62870001D01*
X88014457Y-62941459D01*
X87827379Y-63077378D01*
X87691460Y-63264456D01*
X87620002Y-63484379D01*
X87007997Y-63484379D01*
X87007997Y-63478278D01*
X86936539Y-63258355D01*
X86800620Y-63071277D01*
X86613542Y-62935358D01*
X86393619Y-62863900D01*
X86162377Y-62863900D01*
X85942454Y-62935358D01*
X85755376Y-63071277D01*
X85619457Y-63258355D01*
X85547999Y-63478278D01*
X85547999Y-63709520D01*
X85619457Y-63929443D01*
X85755376Y-64116521D01*
X85820232Y-64163642D01*
X85785447Y-64211520D01*
X85713989Y-64431443D01*
X85713989Y-64662685D01*
X85770471Y-64836517D01*
X85688814Y-64724125D01*
X85501736Y-64588206D01*
X85281813Y-64516748D01*
X85050571Y-64516748D01*
X84830648Y-64588206D01*
X84643570Y-64724125D01*
X84507651Y-64911203D01*
X84505725Y-64917130D01*
X84334842Y-64861606D01*
X84103600Y-64861606D01*
X83883677Y-64933064D01*
X83849099Y-64958186D01*
X83800569Y-64891390D01*
X83613491Y-64755471D01*
X83393568Y-64684013D01*
X83162326Y-64684013D01*
X82942403Y-64755471D01*
X82755325Y-64891390D01*
X82619406Y-65078468D01*
X82547948Y-65298391D01*
X72410474Y-65298391D01*
X72374560Y-62174000D01*
X65968623Y-62174000D01*
X65969830Y-62124624D01*
X65927143Y-61866771D01*
X65886056Y-61746079D01*
X72574401Y-61746079D01*
X72574401Y-61977321D01*
X72645859Y-62197244D01*
X72781778Y-62384322D01*
X72968856Y-62520241D01*
X73188779Y-62591699D01*
X73420021Y-62591699D01*
X73639944Y-62520241D01*
X73827022Y-62384322D01*
X73962941Y-62197244D01*
X74034399Y-61977321D01*
X74034399Y-61746079D01*
X73962941Y-61526156D01*
X73827022Y-61339078D01*
X73639944Y-61203159D01*
X73420021Y-61131701D01*
X73188779Y-61131701D01*
X72968856Y-61203159D01*
X72781778Y-61339078D01*
X72645859Y-61526156D01*
X72574401Y-61746079D01*
X65886056Y-61746079D01*
X65843414Y-61620820D01*
X65720640Y-61391847D01*
X65562117Y-61186000D01*
X65372103Y-61008810D01*
X65178230Y-60880000D01*
X77986409Y-60880000D01*
X77920001Y-61084381D01*
X77920001Y-61084381D01*
G37*
X77920001Y-61084381D02*
X77920001Y-61315623D01*
X77991459Y-61535546D01*
X78127378Y-61722624D01*
X78314456Y-61858543D01*
X78534379Y-61930001D01*
X78765621Y-61930001D01*
X78985544Y-61858543D01*
X79172622Y-61722624D01*
X79308541Y-61535546D01*
X79379999Y-61315623D01*
X79379999Y-61084381D01*
X79313591Y-60880000D01*
X91903606Y-60880000D01*
X91714456Y-60941459D01*
X91527378Y-61077378D01*
X91391459Y-61264456D01*
X91320001Y-61484379D01*
X91320001Y-61715621D01*
X91391459Y-61935544D01*
X91527378Y-62122622D01*
X91714456Y-62258541D01*
X91934379Y-62329999D01*
X92165621Y-62329999D01*
X92385544Y-62258541D01*
X92572622Y-62122622D01*
X92708541Y-61935544D01*
X92779999Y-61715621D01*
X92779999Y-61484379D01*
X92708541Y-61264456D01*
X92572622Y-61077378D01*
X92385544Y-60941459D01*
X92196394Y-60880000D01*
X106120000Y-60880000D01*
X106120000Y-63213713D01*
X106069883Y-63171660D01*
X105867098Y-63060179D01*
X105646098Y-62990073D01*
X105455116Y-62970000D01*
X102941834Y-62970000D01*
X102769696Y-62986878D01*
X102548164Y-63053763D01*
X102343842Y-63162403D01*
X102164513Y-63308659D01*
X102017007Y-63486963D01*
X101906944Y-63690522D01*
X101838515Y-63911582D01*
X101814326Y-64141722D01*
X101835299Y-64372178D01*
X101900636Y-64594172D01*
X102007846Y-64799248D01*
X102152848Y-64979593D01*
X102330117Y-65128340D01*
X102532902Y-65239821D01*
X102753902Y-65309927D01*
X102944884Y-65330000D01*
X105458166Y-65330000D01*
X105630304Y-65313122D01*
X105851836Y-65246237D01*
X106056158Y-65137597D01*
X106120000Y-65085529D01*
X106120001Y-74913714D01*
X106069883Y-74871660D01*
X105867098Y-74760179D01*
X105646098Y-74690073D01*
X105455116Y-74670000D01*
X102941834Y-74670000D01*
X102769696Y-74686878D01*
X102548164Y-74753763D01*
X102343842Y-74862403D01*
X102164513Y-75008659D01*
X102017007Y-75186963D01*
X101906944Y-75390522D01*
X101838515Y-75611582D01*
X101814326Y-75841722D01*
X101835299Y-76072178D01*
X101900636Y-76294172D01*
X102007846Y-76499248D01*
X102152848Y-76679593D01*
X102330117Y-76828340D01*
X102532902Y-76939821D01*
X102753902Y-77009927D01*
X102944884Y-77030000D01*
X105458166Y-77030000D01*
X105630304Y-77013122D01*
X105851836Y-76946237D01*
X106056158Y-76837597D01*
X106120001Y-76785528D01*
X106120001Y-79120000D01*
X69924980Y-79120000D01*
X70890403Y-77735379D01*
X90290901Y-77735379D01*
X90290901Y-77966621D01*
X90362359Y-78186544D01*
X90498278Y-78373622D01*
X90685356Y-78509541D01*
X90905279Y-78580999D01*
X91136521Y-78580999D01*
X91356444Y-78509541D01*
X91543522Y-78373622D01*
X91679441Y-78186544D01*
X91750899Y-77966621D01*
X91750899Y-77735379D01*
X91679441Y-77515456D01*
X91543522Y-77328378D01*
X91356444Y-77192459D01*
X91136521Y-77121001D01*
X90905279Y-77121001D01*
X90685356Y-77192459D01*
X90498278Y-77328378D01*
X90362359Y-77515456D01*
X90290901Y-77735379D01*
X70890403Y-77735379D01*
X71598196Y-76720255D01*
X80784125Y-76720255D01*
X80784125Y-76951497D01*
X80855583Y-77171420D01*
X80991502Y-77358498D01*
X81178580Y-77494417D01*
X81398503Y-77565875D01*
X81629745Y-77565875D01*
X81849668Y-77494417D01*
X82036746Y-77358498D01*
X82172665Y-77171420D01*
X82244123Y-76951497D01*
X82244123Y-76894123D01*
X82301497Y-76894123D01*
X82521420Y-76822665D01*
X82708498Y-76686746D01*
X82844417Y-76499668D01*
X82915875Y-76279745D01*
X82915875Y-76048503D01*
X82844417Y-75828580D01*
X82730782Y-75672173D01*
X83977226Y-75672173D01*
X83977226Y-75903415D01*
X84048684Y-76123338D01*
X84184603Y-76310416D01*
X84371681Y-76446335D01*
X84591604Y-76517793D01*
X84822846Y-76517793D01*
X85042769Y-76446335D01*
X85103957Y-76401879D01*
X94012001Y-76401879D01*
X94012001Y-76633121D01*
X94083459Y-76853044D01*
X94219378Y-77040122D01*
X94406456Y-77176041D01*
X94626379Y-77247499D01*
X94857621Y-77247499D01*
X95077544Y-77176041D01*
X95264622Y-77040122D01*
X95400541Y-76853044D01*
X95471999Y-76633121D01*
X95471999Y-76401879D01*
X95400541Y-76181956D01*
X95264622Y-75994878D01*
X95077544Y-75858959D01*
X94857621Y-75787501D01*
X94626379Y-75787501D01*
X94406456Y-75858959D01*
X94219378Y-75994878D01*
X94083459Y-76181956D01*
X94012001Y-76401879D01*
X85103957Y-76401879D01*
X85229847Y-76310416D01*
X85365766Y-76123338D01*
X85396900Y-76027517D01*
X85553633Y-76027517D01*
X85773556Y-75956059D01*
X85960634Y-75820140D01*
X86096553Y-75633062D01*
X86168011Y-75413139D01*
X86168011Y-75245230D01*
X86252481Y-75217784D01*
X86439559Y-75081865D01*
X86575478Y-74894787D01*
X86603140Y-74809651D01*
X86770402Y-74809651D01*
X86990325Y-74738193D01*
X87037919Y-74703614D01*
X87434673Y-74703614D01*
X87434673Y-74934856D01*
X87506131Y-75154779D01*
X87642050Y-75341857D01*
X87829128Y-75477776D01*
X88049051Y-75549234D01*
X88280293Y-75549234D01*
X88500216Y-75477776D01*
X88687294Y-75341857D01*
X88823213Y-75154779D01*
X88894671Y-74934856D01*
X88894671Y-74703614D01*
X88823213Y-74483691D01*
X88687294Y-74296613D01*
X88500216Y-74160694D01*
X88280293Y-74089236D01*
X88049051Y-74089236D01*
X87829128Y-74160694D01*
X87642050Y-74296613D01*
X87506131Y-74483691D01*
X87434673Y-74703614D01*
X87037919Y-74703614D01*
X87177403Y-74602274D01*
X87313322Y-74415196D01*
X87384780Y-74195273D01*
X87384780Y-73964031D01*
X87369107Y-73915796D01*
X87419444Y-73899441D01*
X87606522Y-73763522D01*
X87742441Y-73576444D01*
X87813899Y-73356521D01*
X87813899Y-73125279D01*
X87742441Y-72905356D01*
X87606522Y-72718278D01*
X87419444Y-72582359D01*
X87199521Y-72510901D01*
X86968279Y-72510901D01*
X86748356Y-72582359D01*
X86561278Y-72718278D01*
X86425359Y-72905356D01*
X86353901Y-73125279D01*
X86353901Y-73356521D01*
X86369574Y-73404756D01*
X86319237Y-73421111D01*
X86132159Y-73557030D01*
X85996240Y-73744108D01*
X85968578Y-73829244D01*
X85801316Y-73829244D01*
X85581393Y-73900702D01*
X85394315Y-74036621D01*
X85258396Y-74223699D01*
X85186938Y-74443622D01*
X85186938Y-74611531D01*
X85102468Y-74638977D01*
X84915390Y-74774896D01*
X84779471Y-74961974D01*
X84748337Y-75057795D01*
X84591604Y-75057795D01*
X84371681Y-75129253D01*
X84184603Y-75265172D01*
X84048684Y-75452250D01*
X83977226Y-75672173D01*
X82730782Y-75672173D01*
X82708498Y-75641502D01*
X82521420Y-75505583D01*
X82301497Y-75434125D01*
X82070255Y-75434125D01*
X81850332Y-75505583D01*
X81663254Y-75641502D01*
X81527335Y-75828580D01*
X81455877Y-76048503D01*
X81455877Y-76105877D01*
X81398503Y-76105877D01*
X81178580Y-76177335D01*
X80991502Y-76313254D01*
X80855583Y-76500332D01*
X80784125Y-76720255D01*
X71598196Y-76720255D01*
X72526456Y-75388936D01*
X72513430Y-74255579D01*
X77019401Y-74255579D01*
X77019401Y-74486821D01*
X77090859Y-74706744D01*
X77226778Y-74893822D01*
X77413856Y-75029741D01*
X77633779Y-75101199D01*
X77865021Y-75101199D01*
X78084944Y-75029741D01*
X78272022Y-74893822D01*
X78407941Y-74706744D01*
X78479399Y-74486821D01*
X78479399Y-74255579D01*
X78407941Y-74035656D01*
X78272022Y-73848578D01*
X78084944Y-73712659D01*
X77865021Y-73641201D01*
X77633779Y-73641201D01*
X77413856Y-73712659D01*
X77226778Y-73848578D01*
X77090859Y-74035656D01*
X77019401Y-74255579D01*
X72513430Y-74255579D01*
X72504380Y-73468179D01*
X78530701Y-73468179D01*
X78530701Y-73699421D01*
X78602159Y-73919344D01*
X78738078Y-74106422D01*
X78925156Y-74242341D01*
X79145079Y-74313799D01*
X79376321Y-74313799D01*
X79596244Y-74242341D01*
X79783322Y-74106422D01*
X79905629Y-73938079D01*
X80042001Y-73938079D01*
X80042001Y-74169321D01*
X80113459Y-74389244D01*
X80249378Y-74576322D01*
X80436456Y-74712241D01*
X80656379Y-74783699D01*
X80887621Y-74783699D01*
X81107544Y-74712241D01*
X81294622Y-74576322D01*
X81430541Y-74389244D01*
X81501999Y-74169321D01*
X81501999Y-73938079D01*
X81430541Y-73718156D01*
X81294622Y-73531078D01*
X81107544Y-73395159D01*
X80887621Y-73323701D01*
X80656379Y-73323701D01*
X80436456Y-73395159D01*
X80249378Y-73531078D01*
X80113459Y-73718156D01*
X80042001Y-73938079D01*
X79905629Y-73938079D01*
X79919241Y-73919344D01*
X79990699Y-73699421D01*
X79990699Y-73468179D01*
X79919241Y-73248256D01*
X79783322Y-73061178D01*
X79596244Y-72925259D01*
X79376321Y-72853801D01*
X79145079Y-72853801D01*
X78925156Y-72925259D01*
X78738078Y-73061178D01*
X78602159Y-73248256D01*
X78530701Y-73468179D01*
X72504380Y-73468179D01*
X72489927Y-72210879D01*
X76384401Y-72210879D01*
X76384401Y-72442121D01*
X76455859Y-72662044D01*
X76591778Y-72849122D01*
X76778856Y-72985041D01*
X76998779Y-73056499D01*
X77230021Y-73056499D01*
X77449944Y-72985041D01*
X77637022Y-72849122D01*
X77772941Y-72662044D01*
X77844399Y-72442121D01*
X77844399Y-72210879D01*
X77772941Y-71990956D01*
X77637022Y-71803878D01*
X77449944Y-71667959D01*
X77230021Y-71596501D01*
X76998779Y-71596501D01*
X76778856Y-71667959D01*
X76591778Y-71803878D01*
X76455859Y-71990956D01*
X76384401Y-72210879D01*
X72489927Y-72210879D01*
X72482630Y-71576030D01*
X87165879Y-71576030D01*
X87165879Y-71807272D01*
X87237337Y-72027195D01*
X87373256Y-72214273D01*
X87560334Y-72350192D01*
X87780257Y-72421650D01*
X88011499Y-72421650D01*
X88231422Y-72350192D01*
X88379967Y-72242268D01*
X103314048Y-72242268D01*
X103336032Y-72446289D01*
X103404361Y-72639780D01*
X103515369Y-72812362D01*
X103663103Y-72954777D01*
X103839637Y-73059388D01*
X104035503Y-73120581D01*
X104240190Y-73135074D01*
X104442724Y-73102089D01*
X104632237Y-73023396D01*
X104798563Y-72903217D01*
X104932781Y-72747997D01*
X105027692Y-72566064D01*
X105078326Y-72366691D01*
X105080229Y-72148656D01*
X105033082Y-71948429D01*
X104941361Y-71764867D01*
X104809872Y-71607329D01*
X104645669Y-71484265D01*
X104457557Y-71402277D01*
X104255631Y-71365763D01*
X104050721Y-71376681D01*
X103853817Y-71434446D01*
X103675485Y-71535959D01*
X103525288Y-71675775D01*
X103411284Y-71846394D01*
X103339589Y-72038663D01*
X103314048Y-72242268D01*
X88379967Y-72242268D01*
X88418500Y-72214273D01*
X88554419Y-72027195D01*
X88625877Y-71807272D01*
X88625877Y-71576030D01*
X88554419Y-71356107D01*
X88418500Y-71169029D01*
X88231422Y-71033110D01*
X88011499Y-70961652D01*
X87780257Y-70961652D01*
X87560334Y-71033110D01*
X87373256Y-71169029D01*
X87237337Y-71356107D01*
X87165879Y-71576030D01*
X72482630Y-71576030D01*
X72446901Y-68467596D01*
X75566521Y-68467596D01*
X75566521Y-68698838D01*
X75637979Y-68918761D01*
X75773898Y-69105839D01*
X75960976Y-69241758D01*
X76180899Y-69313216D01*
X76412141Y-69313216D01*
X76632064Y-69241758D01*
X76819142Y-69105839D01*
X76955061Y-68918761D01*
X77026519Y-68698838D01*
X77026519Y-68467596D01*
X76955061Y-68247673D01*
X76819142Y-68060595D01*
X76632064Y-67924676D01*
X76609915Y-67917479D01*
X79003346Y-67917479D01*
X79003346Y-68148721D01*
X79074804Y-68368644D01*
X79210723Y-68555722D01*
X79397801Y-68691641D01*
X79617724Y-68763099D01*
X79848966Y-68763099D01*
X80068889Y-68691641D01*
X80255967Y-68555722D01*
X80271473Y-68534379D01*
X86920001Y-68534379D01*
X86920001Y-68765621D01*
X86991459Y-68985544D01*
X87127378Y-69172622D01*
X87314456Y-69308541D01*
X87534379Y-69379999D01*
X87765621Y-69379999D01*
X87985544Y-69308541D01*
X88023617Y-69280879D01*
X91400344Y-69280879D01*
X91400344Y-69512121D01*
X91471802Y-69732044D01*
X91607721Y-69919122D01*
X91794799Y-70055041D01*
X92014722Y-70126499D01*
X92245964Y-70126499D01*
X92465887Y-70055041D01*
X92652965Y-69919122D01*
X92788884Y-69732044D01*
X92860342Y-69512121D01*
X92860342Y-69280879D01*
X92788884Y-69060956D01*
X92652965Y-68873878D01*
X92465887Y-68737959D01*
X92245964Y-68666501D01*
X92014722Y-68666501D01*
X91794799Y-68737959D01*
X91607721Y-68873878D01*
X91471802Y-69060956D01*
X91400344Y-69280879D01*
X88023617Y-69280879D01*
X88172622Y-69172622D01*
X88308541Y-68985544D01*
X88379999Y-68765621D01*
X88379999Y-68534379D01*
X88328369Y-68375479D01*
X92716601Y-68375479D01*
X92716601Y-68606721D01*
X92788059Y-68826644D01*
X92923978Y-69013722D01*
X93111056Y-69149641D01*
X93330979Y-69221099D01*
X93562221Y-69221099D01*
X93782144Y-69149641D01*
X93969222Y-69013722D01*
X94105141Y-68826644D01*
X94176599Y-68606721D01*
X94176599Y-68400879D01*
X96679001Y-68400879D01*
X96679001Y-68632121D01*
X96750459Y-68852044D01*
X96886378Y-69039122D01*
X97073456Y-69175041D01*
X97293379Y-69246499D01*
X97524621Y-69246499D01*
X97744544Y-69175041D01*
X97931622Y-69039122D01*
X98067541Y-68852044D01*
X98138999Y-68632121D01*
X98138999Y-68400879D01*
X98067541Y-68180956D01*
X97931622Y-67993878D01*
X97744544Y-67857959D01*
X97524621Y-67786501D01*
X97293379Y-67786501D01*
X97073456Y-67857959D01*
X96886378Y-67993878D01*
X96750459Y-68180956D01*
X96679001Y-68400879D01*
X94176599Y-68400879D01*
X94176599Y-68375479D01*
X94105141Y-68155556D01*
X93969222Y-67968478D01*
X93782144Y-67832559D01*
X93562221Y-67761101D01*
X93330979Y-67761101D01*
X93111056Y-67832559D01*
X92923978Y-67968478D01*
X92788059Y-68155556D01*
X92716601Y-68375479D01*
X88328369Y-68375479D01*
X88308541Y-68314456D01*
X88172622Y-68127378D01*
X87985544Y-67991459D01*
X87765621Y-67920001D01*
X87534379Y-67920001D01*
X87314456Y-67991459D01*
X87127378Y-68127378D01*
X86991459Y-68314456D01*
X86920001Y-68534379D01*
X80271473Y-68534379D01*
X80391886Y-68368644D01*
X80463344Y-68148721D01*
X80463344Y-67917479D01*
X80391886Y-67697556D01*
X80255967Y-67510478D01*
X80068889Y-67374559D01*
X79848966Y-67303101D01*
X79617724Y-67303101D01*
X79397801Y-67374559D01*
X79210723Y-67510478D01*
X79074804Y-67697556D01*
X79003346Y-67917479D01*
X76609915Y-67917479D01*
X76412141Y-67853218D01*
X76180899Y-67853218D01*
X75960976Y-67924676D01*
X75773898Y-68060595D01*
X75637979Y-68247673D01*
X75566521Y-68467596D01*
X72446901Y-68467596D01*
X72423362Y-66419679D01*
X76663801Y-66419679D01*
X76663801Y-66650921D01*
X76735259Y-66870844D01*
X76871178Y-67057922D01*
X77058256Y-67193841D01*
X77278179Y-67265299D01*
X77509421Y-67265299D01*
X77729344Y-67193841D01*
X77916422Y-67057922D01*
X78052341Y-66870844D01*
X78123799Y-66650921D01*
X78123799Y-66419679D01*
X78052341Y-66199756D01*
X77936797Y-66040722D01*
X81024943Y-66040722D01*
X81024943Y-66271964D01*
X81096401Y-66491887D01*
X81232320Y-66678965D01*
X81419398Y-66814884D01*
X81639321Y-66886342D01*
X81870563Y-66886342D01*
X82090486Y-66814884D01*
X82277564Y-66678965D01*
X82340157Y-66592812D01*
X89363653Y-66592812D01*
X89387004Y-66777650D01*
X89459200Y-66949398D01*
X89574924Y-67095405D01*
X89725649Y-67204913D01*
X89900270Y-67269854D01*
X90085923Y-67285444D01*
X90268929Y-67250534D01*
X90435806Y-67167695D01*
X90574258Y-67043032D01*
X90600562Y-67001584D01*
X90674924Y-67095405D01*
X90825649Y-67204913D01*
X91000270Y-67269854D01*
X91185923Y-67285444D01*
X91368929Y-67250534D01*
X91440358Y-67215076D01*
X95176238Y-67215076D01*
X95176238Y-67446318D01*
X95247696Y-67666241D01*
X95383615Y-67853319D01*
X95570693Y-67989238D01*
X95790616Y-68060696D01*
X96021858Y-68060696D01*
X96241781Y-67989238D01*
X96428859Y-67853319D01*
X96509541Y-67742268D01*
X103314048Y-67742268D01*
X103336032Y-67946289D01*
X103404361Y-68139780D01*
X103515369Y-68312362D01*
X103663103Y-68454777D01*
X103839637Y-68559388D01*
X104035503Y-68620581D01*
X104240190Y-68635074D01*
X104442724Y-68602089D01*
X104632237Y-68523396D01*
X104798563Y-68403217D01*
X104932781Y-68247997D01*
X105027692Y-68066064D01*
X105078326Y-67866691D01*
X105080229Y-67648656D01*
X105033082Y-67448429D01*
X104941361Y-67264867D01*
X104809872Y-67107329D01*
X104645669Y-66984265D01*
X104457557Y-66902277D01*
X104255631Y-66865763D01*
X104050721Y-66876681D01*
X103853817Y-66934446D01*
X103675485Y-67035959D01*
X103525288Y-67175775D01*
X103411284Y-67346394D01*
X103339589Y-67538663D01*
X103314048Y-67742268D01*
X96509541Y-67742268D01*
X96564778Y-67666241D01*
X96636236Y-67446318D01*
X96636236Y-67388944D01*
X96693610Y-67388944D01*
X96913533Y-67317486D01*
X97100611Y-67181567D01*
X97236530Y-66994489D01*
X97307988Y-66774566D01*
X97307988Y-66543324D01*
X97236530Y-66323401D01*
X97100611Y-66136323D01*
X96913533Y-66000404D01*
X96693610Y-65928946D01*
X96462368Y-65928946D01*
X96242445Y-66000404D01*
X96055367Y-66136323D01*
X95919448Y-66323401D01*
X95847990Y-66543324D01*
X95847990Y-66600698D01*
X95790616Y-66600698D01*
X95570693Y-66672156D01*
X95383615Y-66808075D01*
X95247696Y-66995153D01*
X95176238Y-67215076D01*
X91440358Y-67215076D01*
X91535806Y-67167695D01*
X91674258Y-67043032D01*
X91774086Y-66885729D01*
X91828128Y-66706730D01*
X91830215Y-66507495D01*
X91779933Y-66327404D01*
X91683421Y-66168044D01*
X91547610Y-66040509D01*
X91382504Y-65954194D01*
X91200269Y-65915459D01*
X91014331Y-65927157D01*
X90838388Y-65988427D01*
X90685403Y-66094755D01*
X90600898Y-66196903D01*
X90583421Y-66168044D01*
X90447610Y-66040509D01*
X90282504Y-65954194D01*
X90100269Y-65915459D01*
X89914331Y-65927157D01*
X89738388Y-65988427D01*
X89585403Y-66094755D01*
X89466647Y-66238305D01*
X89390869Y-66408505D01*
X89363653Y-66592812D01*
X82340157Y-66592812D01*
X82413483Y-66491887D01*
X82484941Y-66271964D01*
X82484941Y-66040722D01*
X82413483Y-65820799D01*
X82277564Y-65633721D01*
X82090486Y-65497802D01*
X81870563Y-65426344D01*
X81639321Y-65426344D01*
X81419398Y-65497802D01*
X81232320Y-65633721D01*
X81096401Y-65820799D01*
X81024943Y-66040722D01*
X77936797Y-66040722D01*
X77916422Y-66012678D01*
X77729344Y-65876759D01*
X77509421Y-65805301D01*
X77278179Y-65805301D01*
X77058256Y-65876759D01*
X76871178Y-66012678D01*
X76735259Y-66199756D01*
X76663801Y-66419679D01*
X72423362Y-66419679D01*
X72410474Y-65298391D01*
X82547948Y-65298391D01*
X82547948Y-65529633D01*
X82619406Y-65749556D01*
X82755325Y-65936634D01*
X82942403Y-66072553D01*
X83162326Y-66144011D01*
X83393568Y-66144011D01*
X83613491Y-66072553D01*
X83648069Y-66047431D01*
X83696599Y-66114227D01*
X83883677Y-66250146D01*
X84103600Y-66321604D01*
X84334842Y-66321604D01*
X84554765Y-66250146D01*
X84741843Y-66114227D01*
X84877762Y-65927149D01*
X84879688Y-65921222D01*
X85050571Y-65976746D01*
X85281813Y-65976746D01*
X85501736Y-65905288D01*
X85688814Y-65769369D01*
X85824733Y-65582291D01*
X85872792Y-65434379D01*
X92270001Y-65434379D01*
X92270001Y-65665621D01*
X92341459Y-65885544D01*
X92477378Y-66072622D01*
X92664456Y-66208541D01*
X92884379Y-66279999D01*
X93115621Y-66279999D01*
X93335544Y-66208541D01*
X93522622Y-66072622D01*
X93658541Y-65885544D01*
X93729999Y-65665621D01*
X93729999Y-65434379D01*
X93658541Y-65214456D01*
X93522622Y-65027378D01*
X93335544Y-64891459D01*
X93115621Y-64820001D01*
X92884379Y-64820001D01*
X92664456Y-64891459D01*
X92477378Y-65027378D01*
X92341459Y-65214456D01*
X92270001Y-65434379D01*
X85872792Y-65434379D01*
X85896191Y-65362368D01*
X85896191Y-65131126D01*
X85839709Y-64957294D01*
X85921366Y-65069686D01*
X86108444Y-65205605D01*
X86328367Y-65277063D01*
X86559609Y-65277063D01*
X86779532Y-65205605D01*
X86966610Y-65069686D01*
X87102529Y-64882608D01*
X87173987Y-64662685D01*
X87173987Y-64431443D01*
X87102529Y-64211520D01*
X86966610Y-64024442D01*
X86901754Y-63977321D01*
X86936539Y-63929443D01*
X87007997Y-63709520D01*
X87007997Y-63484379D01*
X87620002Y-63484379D01*
X87620002Y-63715621D01*
X87691460Y-63935544D01*
X87827379Y-64122622D01*
X88014457Y-64258541D01*
X88234380Y-64329999D01*
X88465622Y-64329999D01*
X88685545Y-64258541D01*
X88872623Y-64122622D01*
X89008542Y-63935544D01*
X89080000Y-63715621D01*
X89080000Y-63534379D01*
X96665201Y-63534379D01*
X96665201Y-63765621D01*
X96736659Y-63985544D01*
X96872578Y-64172622D01*
X97059656Y-64308541D01*
X97279579Y-64379999D01*
X97510821Y-64379999D01*
X97730744Y-64308541D01*
X97917822Y-64172622D01*
X98053741Y-63985544D01*
X98125199Y-63765621D01*
X98125199Y-63534379D01*
X98053741Y-63314456D01*
X97917822Y-63127378D01*
X97730744Y-62991459D01*
X97510821Y-62920001D01*
X97279579Y-62920001D01*
X97059656Y-62991459D01*
X96872578Y-63127378D01*
X96736659Y-63314456D01*
X96665201Y-63534379D01*
X89080000Y-63534379D01*
X89080000Y-63484379D01*
X89008542Y-63264456D01*
X88872623Y-63077378D01*
X88685545Y-62941459D01*
X88465622Y-62870001D01*
X88234380Y-62870001D01*
X88014457Y-62941459D01*
X87827379Y-63077378D01*
X87691460Y-63264456D01*
X87620002Y-63484379D01*
X87007997Y-63484379D01*
X87007997Y-63478278D01*
X86936539Y-63258355D01*
X86800620Y-63071277D01*
X86613542Y-62935358D01*
X86393619Y-62863900D01*
X86162377Y-62863900D01*
X85942454Y-62935358D01*
X85755376Y-63071277D01*
X85619457Y-63258355D01*
X85547999Y-63478278D01*
X85547999Y-63709520D01*
X85619457Y-63929443D01*
X85755376Y-64116521D01*
X85820232Y-64163642D01*
X85785447Y-64211520D01*
X85713989Y-64431443D01*
X85713989Y-64662685D01*
X85770471Y-64836517D01*
X85688814Y-64724125D01*
X85501736Y-64588206D01*
X85281813Y-64516748D01*
X85050571Y-64516748D01*
X84830648Y-64588206D01*
X84643570Y-64724125D01*
X84507651Y-64911203D01*
X84505725Y-64917130D01*
X84334842Y-64861606D01*
X84103600Y-64861606D01*
X83883677Y-64933064D01*
X83849099Y-64958186D01*
X83800569Y-64891390D01*
X83613491Y-64755471D01*
X83393568Y-64684013D01*
X83162326Y-64684013D01*
X82942403Y-64755471D01*
X82755325Y-64891390D01*
X82619406Y-65078468D01*
X82547948Y-65298391D01*
X72410474Y-65298391D01*
X72374560Y-62174000D01*
X65968623Y-62174000D01*
X65969830Y-62124624D01*
X65927143Y-61866771D01*
X65886056Y-61746079D01*
X72574401Y-61746079D01*
X72574401Y-61977321D01*
X72645859Y-62197244D01*
X72781778Y-62384322D01*
X72968856Y-62520241D01*
X73188779Y-62591699D01*
X73420021Y-62591699D01*
X73639944Y-62520241D01*
X73827022Y-62384322D01*
X73962941Y-62197244D01*
X74034399Y-61977321D01*
X74034399Y-61746079D01*
X73962941Y-61526156D01*
X73827022Y-61339078D01*
X73639944Y-61203159D01*
X73420021Y-61131701D01*
X73188779Y-61131701D01*
X72968856Y-61203159D01*
X72781778Y-61339078D01*
X72645859Y-61526156D01*
X72574401Y-61746079D01*
X65886056Y-61746079D01*
X65843414Y-61620820D01*
X65720640Y-61391847D01*
X65562117Y-61186000D01*
X65372103Y-61008810D01*
X65178230Y-60880000D01*
X77986409Y-60880000D01*
X77920001Y-61084381D01*
G36*
X63437589Y-60985174D02*
G01*
X63243302Y-61157669D01*
X63079797Y-61359581D01*
X62951465Y-61585487D01*
X62861753Y-61829318D01*
X62813069Y-62084528D01*
X62806720Y-62344263D01*
X62842880Y-62601546D01*
X62920573Y-62849469D01*
X63028959Y-63064036D01*
X63029564Y-63157107D01*
X62960625Y-63051557D01*
X62765611Y-62830746D01*
X62540764Y-62640399D01*
X62290794Y-62484504D01*
X62020938Y-62366326D01*
X61736849Y-62288341D01*
X61444478Y-62252184D01*
X61149950Y-62258610D01*
X60859434Y-62307486D01*
X60579018Y-62397789D01*
X60314572Y-62527624D01*
X60071640Y-62694276D01*
X59924019Y-62830736D01*
X59878121Y-62715692D01*
X59754069Y-62522090D01*
X59595647Y-62355439D01*
X59408569Y-62221751D01*
X59199586Y-62125851D01*
X58976240Y-62071199D01*
X58746589Y-62059766D01*
X58518919Y-62091965D01*
X58301445Y-62166636D01*
X58102015Y-62281082D01*
X57927823Y-62431174D01*
X57785156Y-62611498D01*
X57782560Y-62616495D01*
X57722069Y-62522090D01*
X57563647Y-62355439D01*
X57376569Y-62221751D01*
X57167586Y-62125851D01*
X56944240Y-62071199D01*
X56714589Y-62059766D01*
X56486919Y-62091965D01*
X56269445Y-62166636D01*
X56070015Y-62281082D01*
X55895823Y-62431174D01*
X55753156Y-62611498D01*
X55647162Y-62815546D01*
X55581665Y-63035956D01*
X55559028Y-63264774D01*
X55580067Y-63493746D01*
X55644024Y-63714607D01*
X55748591Y-63919390D01*
X55889996Y-64100706D01*
X56063135Y-64252011D01*
X56261762Y-64367846D01*
X56478709Y-64444033D01*
X56706149Y-64477822D01*
X56935874Y-64467992D01*
X57159596Y-64414901D01*
X57369243Y-64320462D01*
X57557249Y-64188083D01*
X57716831Y-64022542D01*
X57782420Y-63921736D01*
X57921996Y-64100706D01*
X58095135Y-64252011D01*
X58293762Y-64367846D01*
X58510709Y-64444033D01*
X58738149Y-64477822D01*
X58967874Y-64467992D01*
X59191596Y-64414901D01*
X59312756Y-64360322D01*
X59319978Y-64522474D01*
X59375432Y-64811806D01*
X59472072Y-65090103D01*
X59607875Y-65351533D01*
X59779994Y-65590621D01*
X59984824Y-65802359D01*
X60218075Y-65982311D01*
X60474859Y-66126706D01*
X60749798Y-66232520D01*
X61037132Y-66297538D01*
X61330843Y-66320396D01*
X61624776Y-66300615D01*
X61912776Y-66238610D01*
X62188807Y-66135680D01*
X62447090Y-65993982D01*
X62682212Y-65816482D01*
X62889248Y-65606902D01*
X63044105Y-65396476D01*
X63104530Y-74701886D01*
X62960625Y-74481557D01*
X62765611Y-74260746D01*
X62540764Y-74070399D01*
X62290794Y-73914504D01*
X62020938Y-73796326D01*
X61736849Y-73718341D01*
X61444478Y-73682184D01*
X61149950Y-73688610D01*
X60859434Y-73737486D01*
X60579018Y-73827789D01*
X60314572Y-73957624D01*
X60071640Y-74124276D01*
X59855311Y-74324249D01*
X59670114Y-74553356D01*
X59519930Y-74806798D01*
X59407905Y-75079266D01*
X59336386Y-75365052D01*
X59308899Y-75638014D01*
X59199586Y-75587851D01*
X58976240Y-75533199D01*
X58746589Y-75521766D01*
X58518919Y-75553965D01*
X58301445Y-75628636D01*
X58102015Y-75743082D01*
X57927823Y-75893174D01*
X57785156Y-76073498D01*
X57782560Y-76078495D01*
X57722069Y-75984090D01*
X57563647Y-75817439D01*
X57376569Y-75683751D01*
X57167586Y-75587851D01*
X56944240Y-75533199D01*
X56714589Y-75521766D01*
X56486919Y-75553965D01*
X56269445Y-75628636D01*
X56070015Y-75743082D01*
X55895823Y-75893174D01*
X55753156Y-76073498D01*
X55647162Y-76277546D01*
X55581665Y-76497956D01*
X55559028Y-76726774D01*
X55580067Y-76955746D01*
X55644024Y-77176607D01*
X55748591Y-77381390D01*
X55889996Y-77562706D01*
X56063135Y-77714011D01*
X56261762Y-77829846D01*
X56478709Y-77906033D01*
X56706149Y-77939822D01*
X56935874Y-77929992D01*
X57159596Y-77876901D01*
X57369243Y-77782462D01*
X57557249Y-77650083D01*
X57716831Y-77484542D01*
X57782420Y-77383736D01*
X57921996Y-77562706D01*
X58095135Y-77714011D01*
X58293762Y-77829846D01*
X58510709Y-77906033D01*
X58738149Y-77939822D01*
X58967874Y-77929992D01*
X59191596Y-77876901D01*
X59401243Y-77782462D01*
X59589249Y-77650083D01*
X59748831Y-77484542D01*
X59874232Y-77291810D01*
X59924020Y-77169504D01*
X59984824Y-77232359D01*
X60218075Y-77412311D01*
X60474859Y-77556706D01*
X60749798Y-77662520D01*
X61037132Y-77727538D01*
X61330843Y-77750396D01*
X61624776Y-77730615D01*
X61912776Y-77668610D01*
X62188807Y-77565680D01*
X62447090Y-77423982D01*
X62682212Y-77246482D01*
X62889248Y-77036902D01*
X63063862Y-76799629D01*
X63117497Y-76698967D01*
X63118193Y-76806165D01*
X63079797Y-76853581D01*
X62951465Y-77079487D01*
X62861753Y-77323318D01*
X62813069Y-77578528D01*
X62806720Y-77838263D01*
X62842880Y-78095546D01*
X62920573Y-78343469D01*
X63037717Y-78575374D01*
X63191164Y-78785032D01*
X63376793Y-78966813D01*
X63589618Y-79115834D01*
X63598313Y-79120000D01*
X55380000Y-79120000D01*
X55380000Y-60880000D01*
X63604602Y-60880000D01*
X63437589Y-60985174D01*
X63437589Y-60985174D01*
G37*
X63437589Y-60985174D02*
X63243302Y-61157669D01*
X63079797Y-61359581D01*
X62951465Y-61585487D01*
X62861753Y-61829318D01*
X62813069Y-62084528D01*
X62806720Y-62344263D01*
X62842880Y-62601546D01*
X62920573Y-62849469D01*
X63028959Y-63064036D01*
X63029564Y-63157107D01*
X62960625Y-63051557D01*
X62765611Y-62830746D01*
X62540764Y-62640399D01*
X62290794Y-62484504D01*
X62020938Y-62366326D01*
X61736849Y-62288341D01*
X61444478Y-62252184D01*
X61149950Y-62258610D01*
X60859434Y-62307486D01*
X60579018Y-62397789D01*
X60314572Y-62527624D01*
X60071640Y-62694276D01*
X59924019Y-62830736D01*
X59878121Y-62715692D01*
X59754069Y-62522090D01*
X59595647Y-62355439D01*
X59408569Y-62221751D01*
X59199586Y-62125851D01*
X58976240Y-62071199D01*
X58746589Y-62059766D01*
X58518919Y-62091965D01*
X58301445Y-62166636D01*
X58102015Y-62281082D01*
X57927823Y-62431174D01*
X57785156Y-62611498D01*
X57782560Y-62616495D01*
X57722069Y-62522090D01*
X57563647Y-62355439D01*
X57376569Y-62221751D01*
X57167586Y-62125851D01*
X56944240Y-62071199D01*
X56714589Y-62059766D01*
X56486919Y-62091965D01*
X56269445Y-62166636D01*
X56070015Y-62281082D01*
X55895823Y-62431174D01*
X55753156Y-62611498D01*
X55647162Y-62815546D01*
X55581665Y-63035956D01*
X55559028Y-63264774D01*
X55580067Y-63493746D01*
X55644024Y-63714607D01*
X55748591Y-63919390D01*
X55889996Y-64100706D01*
X56063135Y-64252011D01*
X56261762Y-64367846D01*
X56478709Y-64444033D01*
X56706149Y-64477822D01*
X56935874Y-64467992D01*
X57159596Y-64414901D01*
X57369243Y-64320462D01*
X57557249Y-64188083D01*
X57716831Y-64022542D01*
X57782420Y-63921736D01*
X57921996Y-64100706D01*
X58095135Y-64252011D01*
X58293762Y-64367846D01*
X58510709Y-64444033D01*
X58738149Y-64477822D01*
X58967874Y-64467992D01*
X59191596Y-64414901D01*
X59312756Y-64360322D01*
X59319978Y-64522474D01*
X59375432Y-64811806D01*
X59472072Y-65090103D01*
X59607875Y-65351533D01*
X59779994Y-65590621D01*
X59984824Y-65802359D01*
X60218075Y-65982311D01*
X60474859Y-66126706D01*
X60749798Y-66232520D01*
X61037132Y-66297538D01*
X61330843Y-66320396D01*
X61624776Y-66300615D01*
X61912776Y-66238610D01*
X62188807Y-66135680D01*
X62447090Y-65993982D01*
X62682212Y-65816482D01*
X62889248Y-65606902D01*
X63044105Y-65396476D01*
X63104530Y-74701886D01*
X62960625Y-74481557D01*
X62765611Y-74260746D01*
X62540764Y-74070399D01*
X62290794Y-73914504D01*
X62020938Y-73796326D01*
X61736849Y-73718341D01*
X61444478Y-73682184D01*
X61149950Y-73688610D01*
X60859434Y-73737486D01*
X60579018Y-73827789D01*
X60314572Y-73957624D01*
X60071640Y-74124276D01*
X59855311Y-74324249D01*
X59670114Y-74553356D01*
X59519930Y-74806798D01*
X59407905Y-75079266D01*
X59336386Y-75365052D01*
X59308899Y-75638014D01*
X59199586Y-75587851D01*
X58976240Y-75533199D01*
X58746589Y-75521766D01*
X58518919Y-75553965D01*
X58301445Y-75628636D01*
X58102015Y-75743082D01*
X57927823Y-75893174D01*
X57785156Y-76073498D01*
X57782560Y-76078495D01*
X57722069Y-75984090D01*
X57563647Y-75817439D01*
X57376569Y-75683751D01*
X57167586Y-75587851D01*
X56944240Y-75533199D01*
X56714589Y-75521766D01*
X56486919Y-75553965D01*
X56269445Y-75628636D01*
X56070015Y-75743082D01*
X55895823Y-75893174D01*
X55753156Y-76073498D01*
X55647162Y-76277546D01*
X55581665Y-76497956D01*
X55559028Y-76726774D01*
X55580067Y-76955746D01*
X55644024Y-77176607D01*
X55748591Y-77381390D01*
X55889996Y-77562706D01*
X56063135Y-77714011D01*
X56261762Y-77829846D01*
X56478709Y-77906033D01*
X56706149Y-77939822D01*
X56935874Y-77929992D01*
X57159596Y-77876901D01*
X57369243Y-77782462D01*
X57557249Y-77650083D01*
X57716831Y-77484542D01*
X57782420Y-77383736D01*
X57921996Y-77562706D01*
X58095135Y-77714011D01*
X58293762Y-77829846D01*
X58510709Y-77906033D01*
X58738149Y-77939822D01*
X58967874Y-77929992D01*
X59191596Y-77876901D01*
X59401243Y-77782462D01*
X59589249Y-77650083D01*
X59748831Y-77484542D01*
X59874232Y-77291810D01*
X59924020Y-77169504D01*
X59984824Y-77232359D01*
X60218075Y-77412311D01*
X60474859Y-77556706D01*
X60749798Y-77662520D01*
X61037132Y-77727538D01*
X61330843Y-77750396D01*
X61624776Y-77730615D01*
X61912776Y-77668610D01*
X62188807Y-77565680D01*
X62447090Y-77423982D01*
X62682212Y-77246482D01*
X62889248Y-77036902D01*
X63063862Y-76799629D01*
X63117497Y-76698967D01*
X63118193Y-76806165D01*
X63079797Y-76853581D01*
X62951465Y-77079487D01*
X62861753Y-77323318D01*
X62813069Y-77578528D01*
X62806720Y-77838263D01*
X62842880Y-78095546D01*
X62920573Y-78343469D01*
X63037717Y-78575374D01*
X63191164Y-78785032D01*
X63376793Y-78966813D01*
X63589618Y-79115834D01*
X63598313Y-79120000D01*
X55380000Y-79120000D01*
X55380000Y-60880000D01*
X63604602Y-60880000D01*
X63437589Y-60985174D01*
M02*
