G04 #@! TF.GenerationSoftware,KiCad,Pcbnew,5.99.0-unknown-efbc802~86~ubuntu18.04.1*
G04 #@! TF.CreationDate,2019-09-12T13:39:22+03:00*
G04 #@! TF.ProjectId,USB-GIGABIT_Rev_C,5553422d-4749-4474-9142-49545f526576,rev?*
G04 #@! TF.SameCoordinates,Original*
G04 #@! TF.FileFunction,Paste,Bot*
G04 #@! TF.FilePolarity,Positive*
%FSLAX46Y46*%
G04 Gerber Fmt 4.6, Leading zero omitted, Abs format (unit mm)*
G04 Created by KiCad (PCBNEW 5.99.0-unknown-efbc802~86~ubuntu18.04.1) date 2019-09-12 13:39:22*
%MOMM*%
%LPD*%
G04 APERTURE LIST*
%ADD10R,1.200000X0.550000*%
%ADD11R,1.016000X1.016000*%
%ADD12R,3.000000X1.600000*%
%ADD13R,1.800000X0.500000*%
%ADD14R,0.500000X0.550000*%
%ADD15R,0.550000X0.500000*%
%ADD16R,0.900000X0.800000*%
%ADD17R,1.524000X1.270000*%
%ADD18R,2.200000X0.600000*%
G04 APERTURE END LIST*
D10*
X93850000Y-65550000D03*
X93850000Y-64600000D03*
X93850000Y-63650000D03*
X96450000Y-65550000D03*
X96450000Y-63650000D03*
D11*
X95289000Y-62050000D03*
X93511000Y-62050000D03*
X98889000Y-62050000D03*
X97111000Y-62050000D03*
D12*
X90700000Y-65400000D03*
X90700000Y-63000000D03*
D13*
X101700000Y-66000000D03*
X101700000Y-67000000D03*
X101700000Y-68000000D03*
X101700000Y-69000000D03*
X101700000Y-70000000D03*
X101700000Y-71000000D03*
X101700000Y-72000000D03*
X101700000Y-73000000D03*
X101700000Y-74000000D03*
D14*
X99847400Y-67650000D03*
X98831400Y-67650000D03*
X99808000Y-66200000D03*
X98792000Y-66200000D03*
D15*
X79768700Y-67576700D03*
X79768700Y-66560700D03*
D14*
X80708500Y-72374000D03*
X81724500Y-72374000D03*
D16*
X92100500Y-76517500D03*
X93700500Y-76517500D03*
D14*
X86677500Y-71294500D03*
X85661500Y-71294500D03*
D15*
X82791300Y-65874900D03*
X82791300Y-66890900D03*
D14*
X76695300Y-69240400D03*
X75679300Y-69240400D03*
D16*
X92750000Y-67500000D03*
X91150000Y-67500000D03*
D14*
X77546200Y-71399400D03*
X76530200Y-71399400D03*
D15*
X81838800Y-66827400D03*
X81838800Y-67843400D03*
D14*
X91308000Y-69400000D03*
X90292000Y-69400000D03*
X84645500Y-66903600D03*
X83629500Y-66903600D03*
X80708500Y-73453500D03*
X81724500Y-73453500D03*
D15*
X84391500Y-73390000D03*
X84391500Y-72374000D03*
X86042500Y-73390000D03*
X86042500Y-72374000D03*
D17*
X97980501Y-76517500D03*
X95948501Y-76517500D03*
D14*
X99796600Y-68999100D03*
X98780600Y-68999100D03*
X99847400Y-70993000D03*
X98831400Y-70993000D03*
X82740500Y-62912500D03*
X83756500Y-62912500D03*
X83629500Y-64182500D03*
X82613500Y-64182500D03*
X78422500Y-67040000D03*
X77406500Y-67040000D03*
X77406500Y-68183000D03*
X78422500Y-68183000D03*
D18*
X75124000Y-61642500D03*
X75124000Y-62912500D03*
X75124000Y-64182500D03*
X75124000Y-65452500D03*
X80324000Y-65452500D03*
X80324000Y-64182500D03*
X80324000Y-62912500D03*
X80324000Y-61642500D03*
M02*
