G04 #@! TF.GenerationSoftware,KiCad,Pcbnew,5.99.0-unknown-efbc802~86~ubuntu18.04.1*
G04 #@! TF.CreationDate,2019-09-12T13:39:22+03:00*
G04 #@! TF.ProjectId,USB-GIGABIT_Rev_C,5553422d-4749-4474-9142-49545f526576,rev?*
G04 #@! TF.SameCoordinates,Original*
G04 #@! TF.FileFunction,Copper,L4,Bot*
G04 #@! TF.FilePolarity,Positive*
%FSLAX46Y46*%
G04 Gerber Fmt 4.6, Leading zero omitted, Abs format (unit mm)*
G04 Created by KiCad (PCBNEW 5.99.0-unknown-efbc802~86~ubuntu18.04.1) date 2019-09-12 13:39:22*
%MOMM*%
%LPD*%
G04 APERTURE LIST*
%ADD10R,1.200000X0.550000*%
%ADD11R,1.016000X1.016000*%
%ADD12R,3.000000X1.600000*%
%ADD13O,4.000000X1.600000*%
%ADD14R,1.800000X0.500000*%
%ADD15O,1.800000X1.800000*%
%ADD16C,0.600000*%
%ADD17C,1.000000*%
%ADD18R,0.500000X0.550000*%
%ADD19R,0.550000X0.500000*%
%ADD20R,0.900000X0.800000*%
%ADD21R,1.524000X1.270000*%
%ADD22C,2.400000*%
%ADD23C,1.650000*%
%ADD24R,2.200000X0.600000*%
%ADD25C,0.700000*%
%ADD26C,0.508000*%
%ADD27C,0.304800*%
%ADD28C,0.199900*%
%ADD29C,0.154940*%
%ADD30C,0.177800*%
%ADD31C,0.200000*%
%ADD32C,0.250000*%
%ADD33C,0.254000*%
G04 APERTURE END LIST*
D10*
X93850000Y-65550000D03*
X93850000Y-64600000D03*
X93850000Y-63650000D03*
X96450000Y-65550000D03*
X96450000Y-63650000D03*
D11*
X95289000Y-62050000D03*
X93511000Y-62050000D03*
X98889000Y-62050000D03*
X97111000Y-62050000D03*
D12*
X90700000Y-65400000D03*
X90700000Y-63000000D03*
D13*
X104200000Y-64150000D03*
X104200000Y-75850000D03*
D14*
X101700000Y-66000000D03*
X101700000Y-67000000D03*
X101700000Y-68000000D03*
X101700000Y-69000000D03*
X101700000Y-70000000D03*
X101700000Y-71000000D03*
X101700000Y-72000000D03*
X101700000Y-73000000D03*
X101700000Y-74000000D03*
D15*
X83500000Y-70405500D03*
D16*
X62450000Y-67200000D03*
X59055000Y-66675000D03*
X58610500Y-73914000D03*
X62750000Y-73850000D03*
X73342500Y-76517500D03*
X74993500Y-67881500D03*
X91150000Y-66600000D03*
X90050000Y-66600000D03*
X80250000Y-75700000D03*
X78422500Y-75184000D03*
X93600000Y-67500000D03*
X95200000Y-64600000D03*
X73150000Y-66100000D03*
X73000000Y-69650000D03*
X73723500Y-73533000D03*
D17*
X104850000Y-78200000D03*
X104500000Y-62000000D03*
X56850000Y-69850000D03*
D18*
X99847400Y-67650000D03*
X98831400Y-67650000D03*
X99808000Y-66200000D03*
X98792000Y-66200000D03*
D19*
X79768700Y-67576700D03*
X79768700Y-66560700D03*
D18*
X80708500Y-72374000D03*
X81724500Y-72374000D03*
D20*
X92100500Y-76517500D03*
X93700500Y-76517500D03*
D18*
X86677500Y-71294500D03*
X85661500Y-71294500D03*
D19*
X82791300Y-65874900D03*
X82791300Y-66890900D03*
D18*
X76695300Y-69240400D03*
X75679300Y-69240400D03*
D20*
X92750000Y-67500000D03*
X91150000Y-67500000D03*
D18*
X77546200Y-71399400D03*
X76530200Y-71399400D03*
D19*
X81838800Y-66827400D03*
X81838800Y-67843400D03*
D18*
X91308000Y-69400000D03*
X90292000Y-69400000D03*
X84645500Y-66903600D03*
X83629500Y-66903600D03*
X80708500Y-73453500D03*
X81724500Y-73453500D03*
D19*
X84391500Y-73390000D03*
X84391500Y-72374000D03*
X86042500Y-73390000D03*
X86042500Y-72374000D03*
D21*
X97980501Y-76517500D03*
X95948501Y-76517500D03*
D22*
X64389500Y-77747000D03*
X64389500Y-62253000D03*
D23*
X56769500Y-76731000D03*
X58801500Y-76731000D03*
X56769500Y-63269000D03*
X58801500Y-63269000D03*
X70231500Y-75715000D03*
X67691500Y-74445000D03*
X70231500Y-73175000D03*
X67691500Y-71905000D03*
X70231500Y-70635000D03*
X67691500Y-69365000D03*
X70231500Y-68095000D03*
X67691500Y-66825000D03*
X70231500Y-65555000D03*
X67691500Y-64285000D03*
D18*
X99796600Y-68999100D03*
X98780600Y-68999100D03*
X99847400Y-70993000D03*
X98831400Y-70993000D03*
X82740500Y-62912500D03*
X83756500Y-62912500D03*
X83629500Y-64182500D03*
X82613500Y-64182500D03*
X78422500Y-67040000D03*
X77406500Y-67040000D03*
X77406500Y-68183000D03*
X78422500Y-68183000D03*
D24*
X75124000Y-61642500D03*
X75124000Y-62912500D03*
X75124000Y-64182500D03*
X75124000Y-65452500D03*
X80324000Y-65452500D03*
X80324000Y-64182500D03*
X80324000Y-62912500D03*
X80324000Y-61642500D03*
D25*
X66850000Y-61400000D03*
X61350000Y-78550000D03*
X59250000Y-78450000D03*
X59300000Y-61550000D03*
X61350000Y-61550000D03*
X86500000Y-61900000D03*
X81754942Y-66156343D03*
X93446600Y-68491100D03*
X91020900Y-77851000D03*
X97409000Y-68516500D03*
X88350001Y-63600000D03*
X93000000Y-65550000D03*
X97395200Y-63650000D03*
X87650000Y-68650000D03*
X92050000Y-61600000D03*
X92130343Y-69396500D03*
X84219221Y-65591605D03*
X86277998Y-63593899D03*
X85166192Y-65246747D03*
X86443988Y-64547064D03*
X85438012Y-75297518D03*
X85916937Y-74559243D03*
X80772000Y-74053700D03*
X76296520Y-68583217D03*
X86654781Y-74079652D03*
X84707225Y-75787794D03*
X77114400Y-72326500D03*
X94742000Y-76517500D03*
X88164672Y-74819235D03*
X77393800Y-66535300D03*
X73304400Y-61861700D03*
X79733345Y-68033100D03*
X83277947Y-65414012D03*
X87895878Y-71691651D03*
X87083900Y-73240900D03*
X79260700Y-73583800D03*
X71348600Y-77939900D03*
X91059000Y-76517500D03*
X97536000Y-77851000D03*
X103568500Y-66675000D03*
X103441500Y-70294500D03*
X98950000Y-64000000D03*
X79438500Y-66484500D03*
X62534800Y-69596000D03*
X76717018Y-65332482D03*
X70815200Y-61734700D03*
X90652600Y-72453500D03*
X89890601Y-68745100D03*
X78650000Y-61200002D03*
X82185876Y-76164124D03*
X81514124Y-76835876D03*
X95906237Y-67330697D03*
X96577989Y-66658945D03*
X77749400Y-74371200D03*
D26*
X91150000Y-68100000D02*
X92130343Y-69080343D01*
X91150000Y-67500000D02*
X91150000Y-68100000D01*
X92130343Y-69080343D02*
X92130343Y-69396500D01*
X62750000Y-73850000D02*
X63695840Y-73850000D01*
X63695840Y-73850000D02*
X67785740Y-77939900D01*
X67785740Y-77939900D02*
X70853626Y-77939900D01*
X70853626Y-77939900D02*
X71348600Y-77939900D01*
X62450000Y-67000000D02*
X66850000Y-62600000D01*
X62450000Y-67200000D02*
X62450000Y-67000000D01*
X66850000Y-62600000D02*
X66850000Y-61400000D01*
X81838800Y-66827400D02*
X81754942Y-66743542D01*
X81754942Y-66743542D02*
X81754942Y-66651317D01*
X81754942Y-66651317D02*
X81754942Y-66156343D01*
X89850000Y-78250000D02*
X90249000Y-77851000D01*
X90249000Y-77851000D02*
X91020900Y-77851000D01*
X93472000Y-68516500D02*
X93446600Y-68491100D01*
X97409000Y-68516500D02*
X93472000Y-68516500D01*
D27*
X86804500Y-65525615D02*
X86804500Y-66020589D01*
D26*
X90050000Y-66600000D02*
X90050000Y-67358000D01*
X90050000Y-67358000D02*
X90192000Y-67500000D01*
X90192000Y-67500000D02*
X91150000Y-67500000D01*
X91150000Y-66600000D02*
X91150000Y-67500000D01*
D27*
X93850000Y-65550000D02*
X93000000Y-65550000D01*
D28*
X96450000Y-63650000D02*
X97395200Y-63650000D01*
D27*
X97354800Y-65550000D02*
X98050000Y-64854800D01*
X96450000Y-65550000D02*
X97354800Y-65550000D01*
X98050000Y-64854800D02*
X98050000Y-62450000D01*
X97650000Y-62050000D02*
X97111000Y-62050000D01*
X98050000Y-62450000D02*
X97650000Y-62050000D01*
X92500000Y-62050000D02*
X92050000Y-61600000D01*
X93511000Y-62050000D02*
X92500000Y-62050000D01*
X97111000Y-62050000D02*
X95289000Y-62050000D01*
D26*
X90050000Y-66600000D02*
X90050000Y-66050000D01*
X90050000Y-66050000D02*
X90700000Y-65400000D01*
X91150000Y-66600000D02*
X91150000Y-65850000D01*
X91150000Y-65850000D02*
X90700000Y-65400000D01*
X90050000Y-66600000D02*
X91150000Y-66600000D01*
X91500000Y-63650000D02*
X90850000Y-63000000D01*
X90850000Y-63000000D02*
X90700000Y-63000000D01*
X93150000Y-63650000D02*
X91500000Y-63650000D01*
D27*
X93850000Y-63650000D02*
X93150000Y-63650000D01*
X93150000Y-63650000D02*
X91350000Y-63650000D01*
X91350000Y-63650000D02*
X91175000Y-63475000D01*
D26*
X90700000Y-63000000D02*
X91175000Y-63475000D01*
X84645500Y-66017884D02*
X84219221Y-65591605D01*
X84645500Y-66903600D02*
X84645500Y-66017884D01*
D28*
X84326599Y-61642500D02*
X85927999Y-63243900D01*
X85927999Y-63243900D02*
X86277998Y-63593899D01*
X80324000Y-61642500D02*
X84326599Y-61642500D01*
X78422500Y-66565100D02*
X78422500Y-67040000D01*
X78422500Y-66054100D02*
X78422500Y-66565100D01*
X79024100Y-65452500D02*
X78422500Y-66054100D01*
X80324000Y-65452500D02*
X79024100Y-65452500D01*
X78422500Y-67040000D02*
X78422500Y-68183000D01*
D29*
X85166192Y-65011292D02*
X85166192Y-65246747D01*
X84950300Y-64795400D02*
X85166192Y-65011292D01*
X82236040Y-64795400D02*
X84950300Y-64795400D01*
X81578940Y-65452500D02*
X82236040Y-64795400D01*
X80324000Y-65452500D02*
X81578940Y-65452500D01*
D28*
X81623900Y-64182500D02*
X80324000Y-64182500D01*
X81623900Y-64182500D02*
X82613500Y-64182500D01*
X85420749Y-63627549D02*
X86340264Y-64547064D01*
X86340264Y-64547064D02*
X86443988Y-64547064D01*
D27*
X82613500Y-63754000D02*
X82613500Y-64182500D01*
X82792401Y-63575099D02*
X82613500Y-63754000D01*
X85368299Y-63575099D02*
X82792401Y-63575099D01*
X85420749Y-63627549D02*
X85368299Y-63575099D01*
X82740500Y-62912500D02*
X80324000Y-62912500D01*
D30*
X98403600Y-70993000D02*
X97578100Y-70167500D01*
X98831400Y-70993000D02*
X98403600Y-70993000D01*
X85683450Y-75297518D02*
X86662132Y-76276200D01*
X85438012Y-75297518D02*
X85683450Y-75297518D01*
X86662132Y-76276200D02*
X88879488Y-76276200D01*
X94988188Y-70167500D02*
X97578100Y-70167500D01*
X88879488Y-76276200D02*
X94988188Y-70167500D01*
D28*
X101703500Y-71000000D02*
X99879800Y-71000000D01*
X99797500Y-69000000D02*
X99796600Y-68999100D01*
X101703500Y-69000000D02*
X99797500Y-69000000D01*
D30*
X98780600Y-68999100D02*
X98352800Y-68999100D01*
X98352800Y-68999100D02*
X97514600Y-69837300D01*
X86056913Y-75204007D02*
X86798906Y-75946000D01*
X86056913Y-75000445D02*
X86056913Y-75204007D01*
X85916937Y-74860469D02*
X86056913Y-75000445D01*
X85916937Y-74559243D02*
X85916937Y-74860469D01*
X86798906Y-75946000D02*
X88742712Y-75946000D01*
X94851412Y-69837300D02*
X97514600Y-69837300D01*
X88742712Y-75946000D02*
X94851412Y-69837300D01*
D26*
X99250501Y-76517500D02*
X100901501Y-74866500D01*
X97980501Y-76517500D02*
X99250501Y-76517500D01*
X100901501Y-74866500D02*
X101917500Y-74866500D01*
D27*
X102869421Y-74582401D02*
X103378000Y-74073822D01*
X102582599Y-74582401D02*
X102869421Y-74582401D01*
X102298500Y-74866500D02*
X102582599Y-74582401D01*
X101917500Y-74866500D02*
X102298500Y-74866500D01*
X103378000Y-74073822D02*
X103378000Y-73342500D01*
X103035500Y-73000000D02*
X101703500Y-73000000D01*
X103378000Y-73342500D02*
X103035500Y-73000000D01*
D28*
X86654781Y-73977281D02*
X86654781Y-74079652D01*
D26*
X86654781Y-74002281D02*
X86042500Y-73390000D01*
X86654781Y-74079652D02*
X86654781Y-74002281D01*
X84707225Y-74463725D02*
X84707225Y-74815700D01*
X84391500Y-74148000D02*
X84707225Y-74463725D01*
X84391500Y-73390000D02*
X84391500Y-74148000D01*
D27*
X84707225Y-74815700D02*
X84707225Y-75787794D01*
D26*
X80708500Y-73990200D02*
X80772000Y-74053700D01*
X80708500Y-73453500D02*
X80708500Y-73990200D01*
X77546200Y-71894700D02*
X77114400Y-72326500D01*
X77546200Y-71399400D02*
X77546200Y-71894700D01*
X76695300Y-68981997D02*
X76296520Y-68583217D01*
X76695300Y-69240400D02*
X76695300Y-68981997D01*
X94742000Y-76517500D02*
X93789500Y-76517500D01*
X95948501Y-76517500D02*
X94742000Y-76517500D01*
D28*
X79768700Y-68026600D02*
X79762200Y-68033100D01*
X79762200Y-68033100D02*
X79733345Y-68033100D01*
X79768700Y-67576700D02*
X79768700Y-68026600D01*
X79260700Y-73583800D02*
X79260700Y-72936100D01*
X79822800Y-72374000D02*
X80708500Y-72374000D01*
X79260700Y-72936100D02*
X79822800Y-72374000D01*
D26*
X87083900Y-71700900D02*
X87083900Y-73240900D01*
X86677500Y-71294500D02*
X87083900Y-71700900D01*
X87883329Y-71704200D02*
X87895878Y-71691651D01*
X87096600Y-71704200D02*
X87883329Y-71704200D01*
X86686900Y-71294500D02*
X87096600Y-71704200D01*
X86677500Y-71294500D02*
X86686900Y-71294500D01*
X77406500Y-66548000D02*
X77393800Y-66535300D01*
X77406500Y-67040000D02*
X77406500Y-66548000D01*
X82817059Y-65874900D02*
X83277947Y-65414012D01*
X82791300Y-65874900D02*
X82817059Y-65874900D01*
X73523600Y-61642500D02*
X73304400Y-61861700D01*
X75124000Y-61642500D02*
X73523600Y-61642500D01*
X92011500Y-76517500D02*
X91059000Y-76517500D01*
D27*
X103243500Y-67000000D02*
X103568500Y-66675000D01*
X101703500Y-67000000D02*
X103243500Y-67000000D01*
X103147000Y-70000000D02*
X103441500Y-70294500D01*
X101703500Y-70000000D02*
X103147000Y-70000000D01*
X79514700Y-66560700D02*
X79438500Y-66484500D01*
X79768700Y-66560700D02*
X79514700Y-66560700D01*
X83604100Y-66890900D02*
X83616800Y-66903600D01*
X82791300Y-66890900D02*
X83604100Y-66890900D01*
X82791300Y-66890900D02*
X82791300Y-67995800D01*
X83500000Y-68704500D02*
X83500000Y-70405500D01*
X82791300Y-67995800D02*
X83500000Y-68704500D01*
X85661500Y-71993000D02*
X86042500Y-72374000D01*
X85661500Y-71294500D02*
X85661500Y-71993000D01*
X84389000Y-71294500D02*
X83500000Y-70405500D01*
X85661500Y-71294500D02*
X84389000Y-71294500D01*
X83690500Y-70215000D02*
X83500000Y-70405500D01*
X84391500Y-71297000D02*
X83500000Y-70405500D01*
X84391500Y-72374000D02*
X84391500Y-71297000D01*
D28*
X76597000Y-65452500D02*
X76717018Y-65332482D01*
X75124000Y-65452500D02*
X76597000Y-65452500D01*
D26*
X74921300Y-69240400D02*
X74460100Y-68779200D01*
X75679300Y-69240400D02*
X74921300Y-69240400D01*
X74460100Y-68414900D02*
X74993500Y-67881500D01*
X74460100Y-68779200D02*
X74460100Y-68414900D01*
X75293499Y-67581501D02*
X74993500Y-67881500D01*
X76535001Y-67581501D02*
X75293499Y-67581501D01*
X77136500Y-68183000D02*
X76535001Y-67581501D01*
X77406500Y-68183000D02*
X77136500Y-68183000D01*
D27*
X86454501Y-65670590D02*
X86804500Y-66020589D01*
X86454501Y-65525102D02*
X86454501Y-65670590D01*
X85111899Y-64182500D02*
X86454501Y-65525102D01*
X83629500Y-64182500D02*
X85111899Y-64182500D01*
D26*
X81838800Y-68744300D02*
X82100000Y-69005500D01*
X81838800Y-67843400D02*
X81838800Y-68744300D01*
D27*
X78650000Y-61966822D02*
X78650000Y-61694976D01*
X78650000Y-61694976D02*
X78650000Y-61200002D01*
X78958079Y-62274901D02*
X78650000Y-61966822D01*
X83143901Y-62274901D02*
X78958079Y-62274901D01*
X83756500Y-62887500D02*
X83143901Y-62274901D01*
X83756500Y-62912500D02*
X83756500Y-62887500D01*
X89890601Y-68745100D02*
X89890601Y-69240601D01*
X90050000Y-69400000D02*
X90292000Y-69400000D01*
X89890601Y-69240601D02*
X90050000Y-69400000D01*
X91311500Y-69396500D02*
X91308000Y-69400000D01*
X92130343Y-69396500D02*
X91311500Y-69396500D01*
D31*
X99574999Y-72775000D02*
X93156800Y-72775000D01*
X101700000Y-72000000D02*
X100349999Y-72000000D01*
X99574999Y-73225000D02*
X93343200Y-73225000D01*
X100349999Y-72000000D02*
X99574999Y-72775000D01*
X101700000Y-74000000D02*
X100349999Y-74000000D01*
X100349999Y-74000000D02*
X99574999Y-73225000D01*
X93156800Y-72775000D02*
X89037200Y-76894600D01*
X93343200Y-73225000D02*
X89223600Y-77344600D01*
X82185876Y-76517677D02*
X82185876Y-76164124D01*
X82562799Y-76894600D02*
X82185876Y-76517677D01*
X82376401Y-77344600D02*
X81867677Y-76835876D01*
X89223600Y-77344600D02*
X82376401Y-77344600D01*
X89037200Y-76894600D02*
X82562799Y-76894600D01*
X81867677Y-76835876D02*
X81514124Y-76835876D01*
X96259790Y-67330697D02*
X95906237Y-67330697D01*
X96579093Y-67650000D02*
X96259790Y-67330697D01*
X98831400Y-67650000D02*
X96579093Y-67650000D01*
X96577989Y-67012498D02*
X96577989Y-66658945D01*
X97792000Y-67200000D02*
X96765491Y-67200000D01*
X98792000Y-66200000D02*
X97792000Y-67200000D01*
X96765491Y-67200000D02*
X96577989Y-67012498D01*
D28*
X100008000Y-66000000D02*
X99808000Y-66200000D01*
X101700000Y-66000000D02*
X100008000Y-66000000D01*
X100197400Y-68000000D02*
X99847400Y-67650000D01*
X101700000Y-68000000D02*
X100197400Y-68000000D01*
D32*
X78422500Y-68183000D02*
X78422500Y-73698100D01*
X78422500Y-73698100D02*
X77749400Y-74371200D01*
D33*
G36*
X60124951Y-77654345D02*
G01*
X60399406Y-77801507D01*
X60691294Y-77910059D01*
X60995213Y-77977993D01*
X61305540Y-78004052D01*
X61616533Y-77987754D01*
X61922437Y-77929400D01*
X62217590Y-77830069D01*
X62496532Y-77691601D01*
X62555236Y-77651706D01*
X62550920Y-77692432D01*
X62563821Y-77971165D01*
X62618734Y-78244740D01*
X62714397Y-78506861D01*
X62848609Y-78751495D01*
X62936313Y-78866000D01*
X55634000Y-78866000D01*
X55634000Y-77647563D01*
X55733891Y-77766609D01*
X55929456Y-77930707D01*
X56150545Y-78058353D01*
X56390441Y-78145669D01*
X56641855Y-78189999D01*
X56897145Y-78189999D01*
X57148559Y-78145669D01*
X57388455Y-78058353D01*
X57609544Y-77930707D01*
X57785500Y-77783063D01*
X57961456Y-77930707D01*
X58182545Y-78058353D01*
X58422441Y-78145669D01*
X58673855Y-78189999D01*
X58929145Y-78189999D01*
X59180559Y-78145669D01*
X59420455Y-78058353D01*
X59641544Y-77930707D01*
X59837109Y-77766609D01*
X60001207Y-77571044D01*
X60003893Y-77566391D01*
X60124951Y-77654345D01*
X60124951Y-77654345D01*
G37*
X60124951Y-77654345D02*
X60399406Y-77801507D01*
X60691294Y-77910059D01*
X60995213Y-77977993D01*
X61305540Y-78004052D01*
X61616533Y-77987754D01*
X61922437Y-77929400D01*
X62217590Y-77830069D01*
X62496532Y-77691601D01*
X62555236Y-77651706D01*
X62550920Y-77692432D01*
X62563821Y-77971165D01*
X62618734Y-78244740D01*
X62714397Y-78506861D01*
X62848609Y-78751495D01*
X62936313Y-78866000D01*
X55634000Y-78866000D01*
X55634000Y-77647563D01*
X55733891Y-77766609D01*
X55929456Y-77930707D01*
X56150545Y-78058353D01*
X56390441Y-78145669D01*
X56641855Y-78189999D01*
X56897145Y-78189999D01*
X57148559Y-78145669D01*
X57388455Y-78058353D01*
X57609544Y-77930707D01*
X57785500Y-77783063D01*
X57961456Y-77930707D01*
X58182545Y-78058353D01*
X58422441Y-78145669D01*
X58673855Y-78189999D01*
X58929145Y-78189999D01*
X59180559Y-78145669D01*
X59420455Y-78058353D01*
X59641544Y-77930707D01*
X59837109Y-77766609D01*
X60001207Y-77571044D01*
X60003893Y-77566391D01*
X60124951Y-77654345D01*
G36*
X77666001Y-61329548D02*
G01*
X77733059Y-61579811D01*
X77862605Y-61804192D01*
X77863600Y-61805187D01*
X77863600Y-61920133D01*
X77855118Y-61991802D01*
X77874139Y-62095950D01*
X77889881Y-62200661D01*
X77895339Y-62212028D01*
X77898519Y-62229437D01*
X77921039Y-62265547D01*
X77992244Y-62413831D01*
X78057635Y-62484571D01*
X78060987Y-62489946D01*
X78082350Y-62511308D01*
X78152760Y-62587478D01*
X78166502Y-62595460D01*
X78368990Y-62797948D01*
X78413676Y-62854631D01*
X78500767Y-62914824D01*
X78582163Y-62974942D01*
X78582163Y-63229088D01*
X78662795Y-63530012D01*
X78682127Y-63553051D01*
X78619044Y-63662314D01*
X78582163Y-63871476D01*
X78582163Y-64499088D01*
X78662795Y-64800012D01*
X78666851Y-64804845D01*
X78639429Y-64824768D01*
X78587318Y-64851320D01*
X78538951Y-64899688D01*
X77986069Y-65452571D01*
X77986065Y-65452573D01*
X77821320Y-65617319D01*
X77810066Y-65639407D01*
X77773609Y-65618359D01*
X77523346Y-65551301D01*
X77264254Y-65551301D01*
X77013991Y-65618359D01*
X76865837Y-65703895D01*
X76865837Y-65580500D01*
X75252000Y-65580500D01*
X75252000Y-66394337D01*
X76240588Y-66394337D01*
X76426185Y-66344607D01*
X76409801Y-66405754D01*
X76409801Y-66664846D01*
X76476859Y-66915109D01*
X76514663Y-66980588D01*
X76514663Y-67331588D01*
X76591548Y-67618526D01*
X76579031Y-67640205D01*
X76426066Y-67599218D01*
X76166974Y-67599218D01*
X75916711Y-67666276D01*
X75692330Y-67795822D01*
X75509125Y-67979027D01*
X75379579Y-68203408D01*
X75342330Y-68342422D01*
X75111789Y-68404195D01*
X74936135Y-68551585D01*
X74824344Y-68745214D01*
X74787463Y-68954376D01*
X74787463Y-69116400D01*
X75468129Y-69116400D01*
X75509125Y-69187407D01*
X75692330Y-69370612D01*
X75803300Y-69434681D01*
X75803300Y-70195443D01*
X76180234Y-70094445D01*
X76225114Y-70120356D01*
X76434276Y-70157237D01*
X76961888Y-70157237D01*
X77262812Y-70076605D01*
X77438465Y-69929215D01*
X77550256Y-69735586D01*
X77587137Y-69526424D01*
X77587137Y-69099837D01*
X77663500Y-69099837D01*
X77663500Y-70482563D01*
X77279612Y-70482563D01*
X77045267Y-70545356D01*
X77000387Y-70519444D01*
X76654200Y-70458402D01*
X76654200Y-71455972D01*
X76537412Y-71523400D01*
X75638363Y-71523400D01*
X75638363Y-71690988D01*
X75718995Y-71991912D01*
X75866385Y-72167565D01*
X76060014Y-72279356D01*
X76130401Y-72291767D01*
X76130401Y-72456046D01*
X76197459Y-72706309D01*
X76327005Y-72930690D01*
X76510210Y-73113895D01*
X76734591Y-73243441D01*
X76984854Y-73310499D01*
X77243946Y-73310499D01*
X77494209Y-73243441D01*
X77663501Y-73145701D01*
X77663501Y-73383712D01*
X77660012Y-73387201D01*
X77619854Y-73387201D01*
X77369591Y-73454259D01*
X77145210Y-73583805D01*
X76962005Y-73767010D01*
X76832459Y-73991391D01*
X76765401Y-74241654D01*
X76765401Y-74500746D01*
X76832459Y-74751009D01*
X76962005Y-74975390D01*
X77145210Y-75158595D01*
X77369591Y-75288141D01*
X77619854Y-75355199D01*
X77878946Y-75355199D01*
X78129209Y-75288141D01*
X78353590Y-75158595D01*
X78536795Y-74975390D01*
X78666341Y-74751009D01*
X78733399Y-74500746D01*
X78733399Y-74460588D01*
X78761929Y-74432058D01*
X78880891Y-74500741D01*
X79131154Y-74567799D01*
X79390246Y-74567799D01*
X79640509Y-74500741D01*
X79841916Y-74384459D01*
X79855059Y-74433509D01*
X79984605Y-74657890D01*
X80167810Y-74841095D01*
X80392191Y-74970641D01*
X80642454Y-75037699D01*
X80901546Y-75037699D01*
X81151809Y-74970641D01*
X81376190Y-74841095D01*
X81559395Y-74657890D01*
X81688941Y-74433509D01*
X81755999Y-74183246D01*
X81755999Y-73924154D01*
X81688941Y-73673891D01*
X81633290Y-73577500D01*
X81848500Y-73577500D01*
X81848500Y-74408543D01*
X82292012Y-74289705D01*
X82467665Y-74142315D01*
X82579456Y-73948686D01*
X82616337Y-73739524D01*
X82616337Y-73577500D01*
X81848500Y-73577500D01*
X81633290Y-73577500D01*
X81600500Y-73520706D01*
X81600500Y-73329500D01*
X82616337Y-73329500D01*
X82616337Y-73161912D01*
X82551074Y-72918345D01*
X82579456Y-72869186D01*
X82616337Y-72660024D01*
X82616337Y-72498000D01*
X81600500Y-72498000D01*
X81600500Y-72250000D01*
X81848500Y-72250000D01*
X82616337Y-72250000D01*
X83450502Y-72250000D01*
X84267500Y-72250000D01*
X84267500Y-71482163D01*
X84099912Y-71482163D01*
X83798989Y-71562795D01*
X83623335Y-71710185D01*
X83511544Y-71903814D01*
X83450502Y-72250000D01*
X82616337Y-72250000D01*
X82616337Y-72082412D01*
X82535705Y-71781489D01*
X82388315Y-71605835D01*
X82194686Y-71494044D01*
X81848500Y-71433002D01*
X81848500Y-72250000D01*
X81600500Y-72250000D01*
X81600500Y-71418957D01*
X81223567Y-71519956D01*
X81178687Y-71494044D01*
X80969524Y-71457163D01*
X80441912Y-71457163D01*
X80140989Y-71537795D01*
X80019126Y-71640050D01*
X79764526Y-71640050D01*
X79764520Y-71640051D01*
X79706553Y-71640051D01*
X79650941Y-71658120D01*
X79593170Y-71667271D01*
X79541058Y-71693822D01*
X79485439Y-71711895D01*
X79438129Y-71746269D01*
X79386018Y-71772820D01*
X79337651Y-71821188D01*
X79181500Y-71977339D01*
X79181500Y-71008476D01*
X84769663Y-71008476D01*
X84769663Y-71170500D01*
X85537500Y-71170500D01*
X85537500Y-70339457D01*
X85093989Y-70458295D01*
X84918335Y-70605685D01*
X84806544Y-70799314D01*
X84769663Y-71008476D01*
X79181500Y-71008476D01*
X79181500Y-68850716D01*
X79353536Y-68950041D01*
X79603799Y-69017099D01*
X79862891Y-69017099D01*
X80113154Y-68950041D01*
X80337535Y-68820495D01*
X80520740Y-68637290D01*
X80650286Y-68412909D01*
X80717344Y-68162646D01*
X80717344Y-67967400D01*
X80883757Y-67967400D01*
X81002595Y-68410912D01*
X81149985Y-68586565D01*
X81343614Y-68698356D01*
X81552776Y-68735237D01*
X81714800Y-68735237D01*
X81714800Y-67967400D01*
X81962800Y-67967400D01*
X81962800Y-68735237D01*
X82130388Y-68735237D01*
X82431312Y-68654605D01*
X82591187Y-68520454D01*
X86666001Y-68520454D01*
X86666001Y-68779546D01*
X86733059Y-69029809D01*
X86862605Y-69254190D01*
X87045810Y-69437395D01*
X87270191Y-69566941D01*
X87520454Y-69633999D01*
X87779546Y-69633999D01*
X88029809Y-69566941D01*
X88104185Y-69524000D01*
X89400163Y-69524000D01*
X89400163Y-69691588D01*
X89480795Y-69992512D01*
X89628185Y-70168165D01*
X89821814Y-70279956D01*
X90168000Y-70340998D01*
X90168000Y-69524000D01*
X89400163Y-69524000D01*
X88104185Y-69524000D01*
X88254190Y-69437395D01*
X88437395Y-69254190D01*
X88518347Y-69113976D01*
X89400163Y-69113976D01*
X89400163Y-69276000D01*
X90168000Y-69276000D01*
X90168000Y-68444957D01*
X89724489Y-68563795D01*
X89548835Y-68711185D01*
X89437044Y-68904814D01*
X89400163Y-69113976D01*
X88518347Y-69113976D01*
X88566941Y-69029809D01*
X88633999Y-68779546D01*
X88633999Y-68520454D01*
X88566941Y-68270191D01*
X88437395Y-68045810D01*
X88254190Y-67862605D01*
X88029809Y-67733059D01*
X87779546Y-67666001D01*
X87520454Y-67666001D01*
X87270191Y-67733059D01*
X87045810Y-67862605D01*
X86862605Y-68045810D01*
X86733059Y-68270191D01*
X86666001Y-68520454D01*
X82591187Y-68520454D01*
X82606965Y-68507215D01*
X82718756Y-68313586D01*
X82779798Y-67967400D01*
X81962800Y-67967400D01*
X81714800Y-67967400D01*
X80883757Y-67967400D01*
X80717344Y-67967400D01*
X80717344Y-67903554D01*
X80685537Y-67784848D01*
X80685537Y-67310112D01*
X80622744Y-67075767D01*
X80648656Y-67030887D01*
X80709698Y-66684700D01*
X79644700Y-66684700D01*
X79644700Y-66436700D01*
X80723743Y-66436700D01*
X80712392Y-66394337D01*
X80800002Y-66394337D01*
X80838001Y-66536152D01*
X80866942Y-66586279D01*
X80866942Y-66644058D01*
X80860711Y-66671594D01*
X80866942Y-66772023D01*
X80866942Y-66807228D01*
X80870795Y-66834132D01*
X80876461Y-66925466D01*
X80888750Y-66959508D01*
X80893881Y-66995333D01*
X80921963Y-67057097D01*
X80921963Y-67093988D01*
X80984755Y-67328334D01*
X80958844Y-67373214D01*
X80897802Y-67719400D01*
X81858878Y-67719400D01*
X81899817Y-67722442D01*
X81914068Y-67719400D01*
X82667300Y-67719400D01*
X82667300Y-67386710D01*
X82718756Y-67297586D01*
X82755637Y-67088424D01*
X82755637Y-66768477D01*
X82781062Y-66766900D01*
X82915300Y-66766900D01*
X82915300Y-67782737D01*
X83082888Y-67782737D01*
X83134119Y-67769010D01*
X83159314Y-67783556D01*
X83505500Y-67844598D01*
X83505500Y-66779600D01*
X83753500Y-66779600D01*
X83753500Y-67858643D01*
X84130434Y-67757645D01*
X84175314Y-67783556D01*
X84384476Y-67820437D01*
X84912088Y-67820437D01*
X85213012Y-67739805D01*
X85388665Y-67592415D01*
X85500456Y-67398786D01*
X85537337Y-67189624D01*
X85537337Y-66612012D01*
X85533500Y-66597691D01*
X85533500Y-66167038D01*
X85546001Y-66163688D01*
X85770382Y-66034142D01*
X85953587Y-65850937D01*
X86083133Y-65626556D01*
X86122501Y-65479632D01*
X86314442Y-65531063D01*
X86573534Y-65531063D01*
X86823797Y-65464005D01*
X87048178Y-65334459D01*
X87231383Y-65151254D01*
X87360929Y-64926873D01*
X87427987Y-64676610D01*
X87427987Y-64417518D01*
X87360929Y-64167255D01*
X87231383Y-63942874D01*
X87209156Y-63920648D01*
X87261997Y-63723445D01*
X87261997Y-63464353D01*
X87194939Y-63214090D01*
X87065393Y-62989709D01*
X86882188Y-62806504D01*
X86657807Y-62676958D01*
X86407544Y-62609900D01*
X86331962Y-62609900D01*
X84928127Y-61206067D01*
X84928126Y-61206065D01*
X84856061Y-61134000D01*
X91182821Y-61134000D01*
X91133059Y-61220191D01*
X91066001Y-61470454D01*
X91066001Y-61558163D01*
X89183412Y-61558163D01*
X88882489Y-61638795D01*
X88706835Y-61786185D01*
X88595044Y-61979814D01*
X88558163Y-62188976D01*
X88558163Y-62637066D01*
X88479547Y-62616001D01*
X88220455Y-62616001D01*
X87970192Y-62683059D01*
X87745811Y-62812605D01*
X87562606Y-62995810D01*
X87433060Y-63220191D01*
X87366002Y-63470454D01*
X87366002Y-63729546D01*
X87433060Y-63979809D01*
X87562606Y-64204190D01*
X87745811Y-64387395D01*
X87970192Y-64516941D01*
X88220455Y-64583999D01*
X88479547Y-64583999D01*
X88562983Y-64561642D01*
X88558163Y-64588976D01*
X88558163Y-66216588D01*
X88638795Y-66517512D01*
X88786185Y-66693165D01*
X88979814Y-66804956D01*
X89144839Y-66834054D01*
X89158150Y-66896679D01*
X89162000Y-66905011D01*
X89162000Y-67258516D01*
X89155769Y-67286052D01*
X89162000Y-67386481D01*
X89162000Y-67421687D01*
X89165853Y-67448591D01*
X89171519Y-67539923D01*
X89183809Y-67573967D01*
X89188940Y-67609793D01*
X89226812Y-67693086D01*
X89258023Y-67779541D01*
X89279026Y-67807927D01*
X89294221Y-67841344D01*
X89361725Y-67919686D01*
X89378399Y-67942219D01*
X89398219Y-67962039D01*
X89460257Y-68034037D01*
X89488568Y-68052387D01*
X89493741Y-68057560D01*
X89508808Y-68081441D01*
X89584253Y-68148072D01*
X89609124Y-68172943D01*
X89630858Y-68189232D01*
X89699459Y-68249819D01*
X89732225Y-68265203D01*
X89761182Y-68286905D01*
X89846866Y-68319027D01*
X89930063Y-68358087D01*
X89964985Y-68363307D01*
X89999358Y-68376192D01*
X90102481Y-68383856D01*
X90130211Y-68388000D01*
X90158250Y-68388000D01*
X90253018Y-68395042D01*
X90282483Y-68388752D01*
X90286186Y-68393165D01*
X90315426Y-68410047D01*
X90326812Y-68435089D01*
X90358023Y-68521542D01*
X90379026Y-68549925D01*
X90394220Y-68583343D01*
X90416000Y-68608620D01*
X90416000Y-70355043D01*
X90792934Y-70254045D01*
X90837814Y-70279956D01*
X91046976Y-70316837D01*
X91574588Y-70316837D01*
X91698779Y-70283561D01*
X91750534Y-70313441D01*
X92000797Y-70380499D01*
X92259889Y-70380499D01*
X92510152Y-70313441D01*
X92734533Y-70183895D01*
X92917738Y-70000690D01*
X93047284Y-69776309D01*
X93114342Y-69526046D01*
X93114342Y-69420782D01*
X93317054Y-69475099D01*
X93576146Y-69475099D01*
X93826410Y-69408041D01*
X93832543Y-69404500D01*
X94261877Y-69404500D01*
X89112327Y-74554052D01*
X89081613Y-74439426D01*
X88952067Y-74215045D01*
X88768862Y-74031840D01*
X88544481Y-73902294D01*
X88294218Y-73835236D01*
X88035126Y-73835236D01*
X87824789Y-73891596D01*
X87871295Y-73845090D01*
X88000841Y-73620709D01*
X88067899Y-73370446D01*
X88067899Y-73111354D01*
X88000841Y-72861091D01*
X87971900Y-72810964D01*
X87971900Y-72675650D01*
X88025424Y-72675650D01*
X88275687Y-72608592D01*
X88500068Y-72479046D01*
X88683273Y-72295841D01*
X88812819Y-72071460D01*
X88879877Y-71821197D01*
X88879877Y-71562105D01*
X88812819Y-71311842D01*
X88683273Y-71087461D01*
X88500068Y-70904256D01*
X88275687Y-70774710D01*
X88025424Y-70707652D01*
X87766332Y-70707652D01*
X87516069Y-70774710D01*
X87509246Y-70778649D01*
X87488705Y-70701989D01*
X87341315Y-70526335D01*
X87147686Y-70414544D01*
X86938524Y-70377663D01*
X86410912Y-70377663D01*
X86176567Y-70440456D01*
X86131687Y-70414544D01*
X85785500Y-70353502D01*
X85785500Y-71212696D01*
X85783270Y-71222553D01*
X85785500Y-71258503D01*
X85785500Y-71418500D01*
X84769663Y-71418500D01*
X84769663Y-71498410D01*
X84677524Y-71482163D01*
X84515500Y-71482163D01*
X84515500Y-72498000D01*
X83436457Y-72498000D01*
X83537455Y-72874934D01*
X83511544Y-72919814D01*
X83474663Y-73128976D01*
X83474663Y-73656588D01*
X83503500Y-73764210D01*
X83503500Y-74048516D01*
X83497269Y-74076052D01*
X83503500Y-74176481D01*
X83503500Y-74211687D01*
X83507353Y-74238591D01*
X83513019Y-74329923D01*
X83525309Y-74363967D01*
X83530440Y-74399793D01*
X83568312Y-74483086D01*
X83599523Y-74569541D01*
X83620526Y-74597927D01*
X83635721Y-74631344D01*
X83703225Y-74709686D01*
X83719899Y-74732219D01*
X83739720Y-74752040D01*
X83801757Y-74824037D01*
X83819225Y-74835359D01*
X83819225Y-74879386D01*
X83846164Y-75067492D01*
X83908153Y-75203830D01*
X83790284Y-75407985D01*
X83723226Y-75658248D01*
X83723226Y-75917340D01*
X83788408Y-76160600D01*
X83169875Y-76160600D01*
X83169875Y-76034578D01*
X83102817Y-75784315D01*
X82973271Y-75559934D01*
X82790066Y-75376729D01*
X82565685Y-75247183D01*
X82315422Y-75180125D01*
X82056330Y-75180125D01*
X81806067Y-75247183D01*
X81581686Y-75376729D01*
X81398481Y-75559934D01*
X81268935Y-75784315D01*
X81240486Y-75890486D01*
X81134315Y-75918935D01*
X80909934Y-76048481D01*
X80726729Y-76231686D01*
X80597183Y-76456067D01*
X80530125Y-76706330D01*
X80530125Y-76965422D01*
X80597183Y-77215685D01*
X80726729Y-77440066D01*
X80909934Y-77623271D01*
X81134315Y-77752817D01*
X81384578Y-77819875D01*
X81643670Y-77819875D01*
X81777724Y-77783956D01*
X81897547Y-77903779D01*
X81897554Y-77903785D01*
X81939589Y-77945820D01*
X81991704Y-77972375D01*
X82039018Y-78006749D01*
X82094643Y-78024823D01*
X82146755Y-78051376D01*
X82204525Y-78060526D01*
X82260147Y-78078599D01*
X82318122Y-78078599D01*
X82318128Y-78078600D01*
X88972229Y-78078600D01*
X88954958Y-78311017D01*
X89008059Y-78559773D01*
X89128844Y-78783627D01*
X89210216Y-78866000D01*
X70102081Y-78866000D01*
X72526456Y-75388936D01*
X72477313Y-71113376D01*
X75638363Y-71113376D01*
X75638363Y-71275400D01*
X76406200Y-71275400D01*
X76406200Y-70444357D01*
X75962689Y-70563195D01*
X75787035Y-70710585D01*
X75675244Y-70904214D01*
X75638363Y-71113376D01*
X72477313Y-71113376D01*
X72457209Y-69364400D01*
X74787463Y-69364400D01*
X74787463Y-69531988D01*
X74868095Y-69832912D01*
X75015485Y-70008565D01*
X75209114Y-70120356D01*
X75555300Y-70181398D01*
X75555300Y-69364400D01*
X74787463Y-69364400D01*
X72457209Y-69364400D01*
X72413716Y-65580500D01*
X73382163Y-65580500D01*
X73382163Y-65769088D01*
X73462795Y-66070012D01*
X73610185Y-66245665D01*
X73803814Y-66357456D01*
X74012976Y-66394337D01*
X74996000Y-66394337D01*
X74996000Y-65580500D01*
X73382163Y-65580500D01*
X72413716Y-65580500D01*
X72374793Y-62194238D01*
X72387459Y-62241509D01*
X72517005Y-62465890D01*
X72700210Y-62649095D01*
X72924591Y-62778641D01*
X73174854Y-62845699D01*
X73382163Y-62845699D01*
X73382163Y-63229088D01*
X73462795Y-63530012D01*
X73482127Y-63553051D01*
X73419044Y-63662314D01*
X73382163Y-63871476D01*
X73382163Y-64499088D01*
X73462795Y-64800012D01*
X73482127Y-64823051D01*
X73419044Y-64932314D01*
X73382163Y-65141476D01*
X73382163Y-65324500D01*
X76865837Y-65324500D01*
X76865837Y-65135912D01*
X76785205Y-64834989D01*
X76765873Y-64811950D01*
X76828956Y-64702686D01*
X76865837Y-64493524D01*
X76865837Y-63865912D01*
X76785205Y-63564989D01*
X76765873Y-63541950D01*
X76828956Y-63432686D01*
X76865837Y-63223524D01*
X76865837Y-62595912D01*
X76785205Y-62294989D01*
X76765873Y-62271950D01*
X76828956Y-62162686D01*
X76865837Y-61953524D01*
X76865837Y-61325912D01*
X76814414Y-61134000D01*
X77666001Y-61134000D01*
X77666001Y-61329548D01*
X77666001Y-61329548D01*
G37*
X77666001Y-61329548D02*
X77733059Y-61579811D01*
X77862605Y-61804192D01*
X77863600Y-61805187D01*
X77863600Y-61920133D01*
X77855118Y-61991802D01*
X77874139Y-62095950D01*
X77889881Y-62200661D01*
X77895339Y-62212028D01*
X77898519Y-62229437D01*
X77921039Y-62265547D01*
X77992244Y-62413831D01*
X78057635Y-62484571D01*
X78060987Y-62489946D01*
X78082350Y-62511308D01*
X78152760Y-62587478D01*
X78166502Y-62595460D01*
X78368990Y-62797948D01*
X78413676Y-62854631D01*
X78500767Y-62914824D01*
X78582163Y-62974942D01*
X78582163Y-63229088D01*
X78662795Y-63530012D01*
X78682127Y-63553051D01*
X78619044Y-63662314D01*
X78582163Y-63871476D01*
X78582163Y-64499088D01*
X78662795Y-64800012D01*
X78666851Y-64804845D01*
X78639429Y-64824768D01*
X78587318Y-64851320D01*
X78538951Y-64899688D01*
X77986069Y-65452571D01*
X77986065Y-65452573D01*
X77821320Y-65617319D01*
X77810066Y-65639407D01*
X77773609Y-65618359D01*
X77523346Y-65551301D01*
X77264254Y-65551301D01*
X77013991Y-65618359D01*
X76865837Y-65703895D01*
X76865837Y-65580500D01*
X75252000Y-65580500D01*
X75252000Y-66394337D01*
X76240588Y-66394337D01*
X76426185Y-66344607D01*
X76409801Y-66405754D01*
X76409801Y-66664846D01*
X76476859Y-66915109D01*
X76514663Y-66980588D01*
X76514663Y-67331588D01*
X76591548Y-67618526D01*
X76579031Y-67640205D01*
X76426066Y-67599218D01*
X76166974Y-67599218D01*
X75916711Y-67666276D01*
X75692330Y-67795822D01*
X75509125Y-67979027D01*
X75379579Y-68203408D01*
X75342330Y-68342422D01*
X75111789Y-68404195D01*
X74936135Y-68551585D01*
X74824344Y-68745214D01*
X74787463Y-68954376D01*
X74787463Y-69116400D01*
X75468129Y-69116400D01*
X75509125Y-69187407D01*
X75692330Y-69370612D01*
X75803300Y-69434681D01*
X75803300Y-70195443D01*
X76180234Y-70094445D01*
X76225114Y-70120356D01*
X76434276Y-70157237D01*
X76961888Y-70157237D01*
X77262812Y-70076605D01*
X77438465Y-69929215D01*
X77550256Y-69735586D01*
X77587137Y-69526424D01*
X77587137Y-69099837D01*
X77663500Y-69099837D01*
X77663500Y-70482563D01*
X77279612Y-70482563D01*
X77045267Y-70545356D01*
X77000387Y-70519444D01*
X76654200Y-70458402D01*
X76654200Y-71455972D01*
X76537412Y-71523400D01*
X75638363Y-71523400D01*
X75638363Y-71690988D01*
X75718995Y-71991912D01*
X75866385Y-72167565D01*
X76060014Y-72279356D01*
X76130401Y-72291767D01*
X76130401Y-72456046D01*
X76197459Y-72706309D01*
X76327005Y-72930690D01*
X76510210Y-73113895D01*
X76734591Y-73243441D01*
X76984854Y-73310499D01*
X77243946Y-73310499D01*
X77494209Y-73243441D01*
X77663501Y-73145701D01*
X77663501Y-73383712D01*
X77660012Y-73387201D01*
X77619854Y-73387201D01*
X77369591Y-73454259D01*
X77145210Y-73583805D01*
X76962005Y-73767010D01*
X76832459Y-73991391D01*
X76765401Y-74241654D01*
X76765401Y-74500746D01*
X76832459Y-74751009D01*
X76962005Y-74975390D01*
X77145210Y-75158595D01*
X77369591Y-75288141D01*
X77619854Y-75355199D01*
X77878946Y-75355199D01*
X78129209Y-75288141D01*
X78353590Y-75158595D01*
X78536795Y-74975390D01*
X78666341Y-74751009D01*
X78733399Y-74500746D01*
X78733399Y-74460588D01*
X78761929Y-74432058D01*
X78880891Y-74500741D01*
X79131154Y-74567799D01*
X79390246Y-74567799D01*
X79640509Y-74500741D01*
X79841916Y-74384459D01*
X79855059Y-74433509D01*
X79984605Y-74657890D01*
X80167810Y-74841095D01*
X80392191Y-74970641D01*
X80642454Y-75037699D01*
X80901546Y-75037699D01*
X81151809Y-74970641D01*
X81376190Y-74841095D01*
X81559395Y-74657890D01*
X81688941Y-74433509D01*
X81755999Y-74183246D01*
X81755999Y-73924154D01*
X81688941Y-73673891D01*
X81633290Y-73577500D01*
X81848500Y-73577500D01*
X81848500Y-74408543D01*
X82292012Y-74289705D01*
X82467665Y-74142315D01*
X82579456Y-73948686D01*
X82616337Y-73739524D01*
X82616337Y-73577500D01*
X81848500Y-73577500D01*
X81633290Y-73577500D01*
X81600500Y-73520706D01*
X81600500Y-73329500D01*
X82616337Y-73329500D01*
X82616337Y-73161912D01*
X82551074Y-72918345D01*
X82579456Y-72869186D01*
X82616337Y-72660024D01*
X82616337Y-72498000D01*
X81600500Y-72498000D01*
X81600500Y-72250000D01*
X81848500Y-72250000D01*
X82616337Y-72250000D01*
X83450502Y-72250000D01*
X84267500Y-72250000D01*
X84267500Y-71482163D01*
X84099912Y-71482163D01*
X83798989Y-71562795D01*
X83623335Y-71710185D01*
X83511544Y-71903814D01*
X83450502Y-72250000D01*
X82616337Y-72250000D01*
X82616337Y-72082412D01*
X82535705Y-71781489D01*
X82388315Y-71605835D01*
X82194686Y-71494044D01*
X81848500Y-71433002D01*
X81848500Y-72250000D01*
X81600500Y-72250000D01*
X81600500Y-71418957D01*
X81223567Y-71519956D01*
X81178687Y-71494044D01*
X80969524Y-71457163D01*
X80441912Y-71457163D01*
X80140989Y-71537795D01*
X80019126Y-71640050D01*
X79764526Y-71640050D01*
X79764520Y-71640051D01*
X79706553Y-71640051D01*
X79650941Y-71658120D01*
X79593170Y-71667271D01*
X79541058Y-71693822D01*
X79485439Y-71711895D01*
X79438129Y-71746269D01*
X79386018Y-71772820D01*
X79337651Y-71821188D01*
X79181500Y-71977339D01*
X79181500Y-71008476D01*
X84769663Y-71008476D01*
X84769663Y-71170500D01*
X85537500Y-71170500D01*
X85537500Y-70339457D01*
X85093989Y-70458295D01*
X84918335Y-70605685D01*
X84806544Y-70799314D01*
X84769663Y-71008476D01*
X79181500Y-71008476D01*
X79181500Y-68850716D01*
X79353536Y-68950041D01*
X79603799Y-69017099D01*
X79862891Y-69017099D01*
X80113154Y-68950041D01*
X80337535Y-68820495D01*
X80520740Y-68637290D01*
X80650286Y-68412909D01*
X80717344Y-68162646D01*
X80717344Y-67967400D01*
X80883757Y-67967400D01*
X81002595Y-68410912D01*
X81149985Y-68586565D01*
X81343614Y-68698356D01*
X81552776Y-68735237D01*
X81714800Y-68735237D01*
X81714800Y-67967400D01*
X81962800Y-67967400D01*
X81962800Y-68735237D01*
X82130388Y-68735237D01*
X82431312Y-68654605D01*
X82591187Y-68520454D01*
X86666001Y-68520454D01*
X86666001Y-68779546D01*
X86733059Y-69029809D01*
X86862605Y-69254190D01*
X87045810Y-69437395D01*
X87270191Y-69566941D01*
X87520454Y-69633999D01*
X87779546Y-69633999D01*
X88029809Y-69566941D01*
X88104185Y-69524000D01*
X89400163Y-69524000D01*
X89400163Y-69691588D01*
X89480795Y-69992512D01*
X89628185Y-70168165D01*
X89821814Y-70279956D01*
X90168000Y-70340998D01*
X90168000Y-69524000D01*
X89400163Y-69524000D01*
X88104185Y-69524000D01*
X88254190Y-69437395D01*
X88437395Y-69254190D01*
X88518347Y-69113976D01*
X89400163Y-69113976D01*
X89400163Y-69276000D01*
X90168000Y-69276000D01*
X90168000Y-68444957D01*
X89724489Y-68563795D01*
X89548835Y-68711185D01*
X89437044Y-68904814D01*
X89400163Y-69113976D01*
X88518347Y-69113976D01*
X88566941Y-69029809D01*
X88633999Y-68779546D01*
X88633999Y-68520454D01*
X88566941Y-68270191D01*
X88437395Y-68045810D01*
X88254190Y-67862605D01*
X88029809Y-67733059D01*
X87779546Y-67666001D01*
X87520454Y-67666001D01*
X87270191Y-67733059D01*
X87045810Y-67862605D01*
X86862605Y-68045810D01*
X86733059Y-68270191D01*
X86666001Y-68520454D01*
X82591187Y-68520454D01*
X82606965Y-68507215D01*
X82718756Y-68313586D01*
X82779798Y-67967400D01*
X81962800Y-67967400D01*
X81714800Y-67967400D01*
X80883757Y-67967400D01*
X80717344Y-67967400D01*
X80717344Y-67903554D01*
X80685537Y-67784848D01*
X80685537Y-67310112D01*
X80622744Y-67075767D01*
X80648656Y-67030887D01*
X80709698Y-66684700D01*
X79644700Y-66684700D01*
X79644700Y-66436700D01*
X80723743Y-66436700D01*
X80712392Y-66394337D01*
X80800002Y-66394337D01*
X80838001Y-66536152D01*
X80866942Y-66586279D01*
X80866942Y-66644058D01*
X80860711Y-66671594D01*
X80866942Y-66772023D01*
X80866942Y-66807228D01*
X80870795Y-66834132D01*
X80876461Y-66925466D01*
X80888750Y-66959508D01*
X80893881Y-66995333D01*
X80921963Y-67057097D01*
X80921963Y-67093988D01*
X80984755Y-67328334D01*
X80958844Y-67373214D01*
X80897802Y-67719400D01*
X81858878Y-67719400D01*
X81899817Y-67722442D01*
X81914068Y-67719400D01*
X82667300Y-67719400D01*
X82667300Y-67386710D01*
X82718756Y-67297586D01*
X82755637Y-67088424D01*
X82755637Y-66768477D01*
X82781062Y-66766900D01*
X82915300Y-66766900D01*
X82915300Y-67782737D01*
X83082888Y-67782737D01*
X83134119Y-67769010D01*
X83159314Y-67783556D01*
X83505500Y-67844598D01*
X83505500Y-66779600D01*
X83753500Y-66779600D01*
X83753500Y-67858643D01*
X84130434Y-67757645D01*
X84175314Y-67783556D01*
X84384476Y-67820437D01*
X84912088Y-67820437D01*
X85213012Y-67739805D01*
X85388665Y-67592415D01*
X85500456Y-67398786D01*
X85537337Y-67189624D01*
X85537337Y-66612012D01*
X85533500Y-66597691D01*
X85533500Y-66167038D01*
X85546001Y-66163688D01*
X85770382Y-66034142D01*
X85953587Y-65850937D01*
X86083133Y-65626556D01*
X86122501Y-65479632D01*
X86314442Y-65531063D01*
X86573534Y-65531063D01*
X86823797Y-65464005D01*
X87048178Y-65334459D01*
X87231383Y-65151254D01*
X87360929Y-64926873D01*
X87427987Y-64676610D01*
X87427987Y-64417518D01*
X87360929Y-64167255D01*
X87231383Y-63942874D01*
X87209156Y-63920648D01*
X87261997Y-63723445D01*
X87261997Y-63464353D01*
X87194939Y-63214090D01*
X87065393Y-62989709D01*
X86882188Y-62806504D01*
X86657807Y-62676958D01*
X86407544Y-62609900D01*
X86331962Y-62609900D01*
X84928127Y-61206067D01*
X84928126Y-61206065D01*
X84856061Y-61134000D01*
X91182821Y-61134000D01*
X91133059Y-61220191D01*
X91066001Y-61470454D01*
X91066001Y-61558163D01*
X89183412Y-61558163D01*
X88882489Y-61638795D01*
X88706835Y-61786185D01*
X88595044Y-61979814D01*
X88558163Y-62188976D01*
X88558163Y-62637066D01*
X88479547Y-62616001D01*
X88220455Y-62616001D01*
X87970192Y-62683059D01*
X87745811Y-62812605D01*
X87562606Y-62995810D01*
X87433060Y-63220191D01*
X87366002Y-63470454D01*
X87366002Y-63729546D01*
X87433060Y-63979809D01*
X87562606Y-64204190D01*
X87745811Y-64387395D01*
X87970192Y-64516941D01*
X88220455Y-64583999D01*
X88479547Y-64583999D01*
X88562983Y-64561642D01*
X88558163Y-64588976D01*
X88558163Y-66216588D01*
X88638795Y-66517512D01*
X88786185Y-66693165D01*
X88979814Y-66804956D01*
X89144839Y-66834054D01*
X89158150Y-66896679D01*
X89162000Y-66905011D01*
X89162000Y-67258516D01*
X89155769Y-67286052D01*
X89162000Y-67386481D01*
X89162000Y-67421687D01*
X89165853Y-67448591D01*
X89171519Y-67539923D01*
X89183809Y-67573967D01*
X89188940Y-67609793D01*
X89226812Y-67693086D01*
X89258023Y-67779541D01*
X89279026Y-67807927D01*
X89294221Y-67841344D01*
X89361725Y-67919686D01*
X89378399Y-67942219D01*
X89398219Y-67962039D01*
X89460257Y-68034037D01*
X89488568Y-68052387D01*
X89493741Y-68057560D01*
X89508808Y-68081441D01*
X89584253Y-68148072D01*
X89609124Y-68172943D01*
X89630858Y-68189232D01*
X89699459Y-68249819D01*
X89732225Y-68265203D01*
X89761182Y-68286905D01*
X89846866Y-68319027D01*
X89930063Y-68358087D01*
X89964985Y-68363307D01*
X89999358Y-68376192D01*
X90102481Y-68383856D01*
X90130211Y-68388000D01*
X90158250Y-68388000D01*
X90253018Y-68395042D01*
X90282483Y-68388752D01*
X90286186Y-68393165D01*
X90315426Y-68410047D01*
X90326812Y-68435089D01*
X90358023Y-68521542D01*
X90379026Y-68549925D01*
X90394220Y-68583343D01*
X90416000Y-68608620D01*
X90416000Y-70355043D01*
X90792934Y-70254045D01*
X90837814Y-70279956D01*
X91046976Y-70316837D01*
X91574588Y-70316837D01*
X91698779Y-70283561D01*
X91750534Y-70313441D01*
X92000797Y-70380499D01*
X92259889Y-70380499D01*
X92510152Y-70313441D01*
X92734533Y-70183895D01*
X92917738Y-70000690D01*
X93047284Y-69776309D01*
X93114342Y-69526046D01*
X93114342Y-69420782D01*
X93317054Y-69475099D01*
X93576146Y-69475099D01*
X93826410Y-69408041D01*
X93832543Y-69404500D01*
X94261877Y-69404500D01*
X89112327Y-74554052D01*
X89081613Y-74439426D01*
X88952067Y-74215045D01*
X88768862Y-74031840D01*
X88544481Y-73902294D01*
X88294218Y-73835236D01*
X88035126Y-73835236D01*
X87824789Y-73891596D01*
X87871295Y-73845090D01*
X88000841Y-73620709D01*
X88067899Y-73370446D01*
X88067899Y-73111354D01*
X88000841Y-72861091D01*
X87971900Y-72810964D01*
X87971900Y-72675650D01*
X88025424Y-72675650D01*
X88275687Y-72608592D01*
X88500068Y-72479046D01*
X88683273Y-72295841D01*
X88812819Y-72071460D01*
X88879877Y-71821197D01*
X88879877Y-71562105D01*
X88812819Y-71311842D01*
X88683273Y-71087461D01*
X88500068Y-70904256D01*
X88275687Y-70774710D01*
X88025424Y-70707652D01*
X87766332Y-70707652D01*
X87516069Y-70774710D01*
X87509246Y-70778649D01*
X87488705Y-70701989D01*
X87341315Y-70526335D01*
X87147686Y-70414544D01*
X86938524Y-70377663D01*
X86410912Y-70377663D01*
X86176567Y-70440456D01*
X86131687Y-70414544D01*
X85785500Y-70353502D01*
X85785500Y-71212696D01*
X85783270Y-71222553D01*
X85785500Y-71258503D01*
X85785500Y-71418500D01*
X84769663Y-71418500D01*
X84769663Y-71498410D01*
X84677524Y-71482163D01*
X84515500Y-71482163D01*
X84515500Y-72498000D01*
X83436457Y-72498000D01*
X83537455Y-72874934D01*
X83511544Y-72919814D01*
X83474663Y-73128976D01*
X83474663Y-73656588D01*
X83503500Y-73764210D01*
X83503500Y-74048516D01*
X83497269Y-74076052D01*
X83503500Y-74176481D01*
X83503500Y-74211687D01*
X83507353Y-74238591D01*
X83513019Y-74329923D01*
X83525309Y-74363967D01*
X83530440Y-74399793D01*
X83568312Y-74483086D01*
X83599523Y-74569541D01*
X83620526Y-74597927D01*
X83635721Y-74631344D01*
X83703225Y-74709686D01*
X83719899Y-74732219D01*
X83739720Y-74752040D01*
X83801757Y-74824037D01*
X83819225Y-74835359D01*
X83819225Y-74879386D01*
X83846164Y-75067492D01*
X83908153Y-75203830D01*
X83790284Y-75407985D01*
X83723226Y-75658248D01*
X83723226Y-75917340D01*
X83788408Y-76160600D01*
X83169875Y-76160600D01*
X83169875Y-76034578D01*
X83102817Y-75784315D01*
X82973271Y-75559934D01*
X82790066Y-75376729D01*
X82565685Y-75247183D01*
X82315422Y-75180125D01*
X82056330Y-75180125D01*
X81806067Y-75247183D01*
X81581686Y-75376729D01*
X81398481Y-75559934D01*
X81268935Y-75784315D01*
X81240486Y-75890486D01*
X81134315Y-75918935D01*
X80909934Y-76048481D01*
X80726729Y-76231686D01*
X80597183Y-76456067D01*
X80530125Y-76706330D01*
X80530125Y-76965422D01*
X80597183Y-77215685D01*
X80726729Y-77440066D01*
X80909934Y-77623271D01*
X81134315Y-77752817D01*
X81384578Y-77819875D01*
X81643670Y-77819875D01*
X81777724Y-77783956D01*
X81897547Y-77903779D01*
X81897554Y-77903785D01*
X81939589Y-77945820D01*
X81991704Y-77972375D01*
X82039018Y-78006749D01*
X82094643Y-78024823D01*
X82146755Y-78051376D01*
X82204525Y-78060526D01*
X82260147Y-78078599D01*
X82318122Y-78078599D01*
X82318128Y-78078600D01*
X88972229Y-78078600D01*
X88954958Y-78311017D01*
X89008059Y-78559773D01*
X89128844Y-78783627D01*
X89210216Y-78866000D01*
X70102081Y-78866000D01*
X72526456Y-75388936D01*
X72477313Y-71113376D01*
X75638363Y-71113376D01*
X75638363Y-71275400D01*
X76406200Y-71275400D01*
X76406200Y-70444357D01*
X75962689Y-70563195D01*
X75787035Y-70710585D01*
X75675244Y-70904214D01*
X75638363Y-71113376D01*
X72477313Y-71113376D01*
X72457209Y-69364400D01*
X74787463Y-69364400D01*
X74787463Y-69531988D01*
X74868095Y-69832912D01*
X75015485Y-70008565D01*
X75209114Y-70120356D01*
X75555300Y-70181398D01*
X75555300Y-69364400D01*
X74787463Y-69364400D01*
X72457209Y-69364400D01*
X72413716Y-65580500D01*
X73382163Y-65580500D01*
X73382163Y-65769088D01*
X73462795Y-66070012D01*
X73610185Y-66245665D01*
X73803814Y-66357456D01*
X74012976Y-66394337D01*
X74996000Y-66394337D01*
X74996000Y-65580500D01*
X73382163Y-65580500D01*
X72413716Y-65580500D01*
X72374793Y-62194238D01*
X72387459Y-62241509D01*
X72517005Y-62465890D01*
X72700210Y-62649095D01*
X72924591Y-62778641D01*
X73174854Y-62845699D01*
X73382163Y-62845699D01*
X73382163Y-63229088D01*
X73462795Y-63530012D01*
X73482127Y-63553051D01*
X73419044Y-63662314D01*
X73382163Y-63871476D01*
X73382163Y-64499088D01*
X73462795Y-64800012D01*
X73482127Y-64823051D01*
X73419044Y-64932314D01*
X73382163Y-65141476D01*
X73382163Y-65324500D01*
X76865837Y-65324500D01*
X76865837Y-65135912D01*
X76785205Y-64834989D01*
X76765873Y-64811950D01*
X76828956Y-64702686D01*
X76865837Y-64493524D01*
X76865837Y-63865912D01*
X76785205Y-63564989D01*
X76765873Y-63541950D01*
X76828956Y-63432686D01*
X76865837Y-63223524D01*
X76865837Y-62595912D01*
X76785205Y-62294989D01*
X76765873Y-62271950D01*
X76828956Y-62162686D01*
X76865837Y-61953524D01*
X76865837Y-61325912D01*
X76814414Y-61134000D01*
X77666001Y-61134000D01*
X77666001Y-61329548D01*
G36*
X99871145Y-74559179D02*
G01*
X99871152Y-74559185D01*
X99912074Y-74600107D01*
X99135097Y-75377084D01*
X98962687Y-75277544D01*
X98753525Y-75240663D01*
X97201913Y-75240663D01*
X96973032Y-75301992D01*
X96930687Y-75277544D01*
X96721525Y-75240663D01*
X95169913Y-75240663D01*
X94868990Y-75321295D01*
X94693337Y-75468685D01*
X94655915Y-75533501D01*
X94612454Y-75533501D01*
X94472115Y-75571104D01*
X94370686Y-75512544D01*
X94161524Y-75475663D01*
X93233912Y-75475663D01*
X92932989Y-75556295D01*
X92897721Y-75585888D01*
X92770686Y-75512544D01*
X92561524Y-75475663D01*
X92228500Y-75475663D01*
X92228500Y-77559337D01*
X92567088Y-77559337D01*
X92868012Y-77478705D01*
X92903279Y-77449112D01*
X93030314Y-77522456D01*
X93239476Y-77559337D01*
X94167088Y-77559337D01*
X94468012Y-77478705D01*
X94482382Y-77466647D01*
X94612454Y-77501499D01*
X94651717Y-77501499D01*
X94772686Y-77645665D01*
X94966315Y-77757456D01*
X95175477Y-77794337D01*
X96727089Y-77794337D01*
X96955971Y-77733008D01*
X96998315Y-77757456D01*
X97207477Y-77794337D01*
X98759089Y-77794337D01*
X99060013Y-77713705D01*
X99235666Y-77566315D01*
X99329803Y-77403264D01*
X99341091Y-77401647D01*
X99432425Y-77395981D01*
X99466467Y-77383691D01*
X99502293Y-77378561D01*
X99585597Y-77340684D01*
X99672042Y-77309477D01*
X99700423Y-77288477D01*
X99733844Y-77273281D01*
X99812195Y-77205770D01*
X99834721Y-77189100D01*
X99854534Y-77169287D01*
X99926538Y-77107244D01*
X99944888Y-77078933D01*
X101269322Y-75754500D01*
X101568878Y-75754500D01*
X101560523Y-75850000D01*
X101582391Y-76099962D01*
X101647333Y-76342330D01*
X101753376Y-76569739D01*
X101897297Y-76775279D01*
X102074721Y-76952703D01*
X102280261Y-77096624D01*
X102507670Y-77202667D01*
X102750038Y-77267609D01*
X102937394Y-77284000D01*
X103486839Y-77284000D01*
X103398195Y-77421549D01*
X103292411Y-77663679D01*
X103226700Y-77919607D01*
X103202752Y-78182749D01*
X103221184Y-78446335D01*
X103281521Y-78703583D01*
X103348465Y-78866000D01*
X90489821Y-78866000D01*
X90607356Y-78748464D01*
X90641091Y-78767941D01*
X90891354Y-78834999D01*
X91150446Y-78834999D01*
X91400709Y-78767941D01*
X91625090Y-78638395D01*
X91808295Y-78455190D01*
X91937841Y-78230809D01*
X92004899Y-77980546D01*
X92004899Y-77721454D01*
X91961460Y-77559337D01*
X91972500Y-77559337D01*
X91972500Y-76645500D01*
X91008663Y-76645500D01*
X91008663Y-76867001D01*
X90891354Y-76867001D01*
X90683548Y-76922683D01*
X91216731Y-76389500D01*
X91972500Y-76389500D01*
X91972500Y-75633731D01*
X93647232Y-73959000D01*
X99270967Y-73959000D01*
X99871145Y-74559179D01*
X99871145Y-74559179D01*
G37*
X99871145Y-74559179D02*
X99871152Y-74559185D01*
X99912074Y-74600107D01*
X99135097Y-75377084D01*
X98962687Y-75277544D01*
X98753525Y-75240663D01*
X97201913Y-75240663D01*
X96973032Y-75301992D01*
X96930687Y-75277544D01*
X96721525Y-75240663D01*
X95169913Y-75240663D01*
X94868990Y-75321295D01*
X94693337Y-75468685D01*
X94655915Y-75533501D01*
X94612454Y-75533501D01*
X94472115Y-75571104D01*
X94370686Y-75512544D01*
X94161524Y-75475663D01*
X93233912Y-75475663D01*
X92932989Y-75556295D01*
X92897721Y-75585888D01*
X92770686Y-75512544D01*
X92561524Y-75475663D01*
X92228500Y-75475663D01*
X92228500Y-77559337D01*
X92567088Y-77559337D01*
X92868012Y-77478705D01*
X92903279Y-77449112D01*
X93030314Y-77522456D01*
X93239476Y-77559337D01*
X94167088Y-77559337D01*
X94468012Y-77478705D01*
X94482382Y-77466647D01*
X94612454Y-77501499D01*
X94651717Y-77501499D01*
X94772686Y-77645665D01*
X94966315Y-77757456D01*
X95175477Y-77794337D01*
X96727089Y-77794337D01*
X96955971Y-77733008D01*
X96998315Y-77757456D01*
X97207477Y-77794337D01*
X98759089Y-77794337D01*
X99060013Y-77713705D01*
X99235666Y-77566315D01*
X99329803Y-77403264D01*
X99341091Y-77401647D01*
X99432425Y-77395981D01*
X99466467Y-77383691D01*
X99502293Y-77378561D01*
X99585597Y-77340684D01*
X99672042Y-77309477D01*
X99700423Y-77288477D01*
X99733844Y-77273281D01*
X99812195Y-77205770D01*
X99834721Y-77189100D01*
X99854534Y-77169287D01*
X99926538Y-77107244D01*
X99944888Y-77078933D01*
X101269322Y-75754500D01*
X101568878Y-75754500D01*
X101560523Y-75850000D01*
X101582391Y-76099962D01*
X101647333Y-76342330D01*
X101753376Y-76569739D01*
X101897297Y-76775279D01*
X102074721Y-76952703D01*
X102280261Y-77096624D01*
X102507670Y-77202667D01*
X102750038Y-77267609D01*
X102937394Y-77284000D01*
X103486839Y-77284000D01*
X103398195Y-77421549D01*
X103292411Y-77663679D01*
X103226700Y-77919607D01*
X103202752Y-78182749D01*
X103221184Y-78446335D01*
X103281521Y-78703583D01*
X103348465Y-78866000D01*
X90489821Y-78866000D01*
X90607356Y-78748464D01*
X90641091Y-78767941D01*
X90891354Y-78834999D01*
X91150446Y-78834999D01*
X91400709Y-78767941D01*
X91625090Y-78638395D01*
X91808295Y-78455190D01*
X91937841Y-78230809D01*
X92004899Y-77980546D01*
X92004899Y-77721454D01*
X91961460Y-77559337D01*
X91972500Y-77559337D01*
X91972500Y-76645500D01*
X91008663Y-76645500D01*
X91008663Y-76867001D01*
X90891354Y-76867001D01*
X90683548Y-76922683D01*
X91216731Y-76389500D01*
X91972500Y-76389500D01*
X91972500Y-75633731D01*
X93647232Y-73959000D01*
X99270967Y-73959000D01*
X99871145Y-74559179D01*
G36*
X55733891Y-64304609D02*
G01*
X55929456Y-64468707D01*
X56150545Y-64596353D01*
X56390441Y-64683669D01*
X56641855Y-64727999D01*
X56897145Y-64727999D01*
X57148559Y-64683669D01*
X57388455Y-64596353D01*
X57609544Y-64468707D01*
X57785500Y-64321063D01*
X57961456Y-64468707D01*
X58182545Y-64596353D01*
X58422441Y-64683669D01*
X58673855Y-64727999D01*
X58929145Y-64727999D01*
X59091658Y-64699344D01*
X59094993Y-64725747D01*
X59175595Y-65026555D01*
X59296274Y-65313642D01*
X59454799Y-65581693D01*
X59648237Y-65825751D01*
X59873008Y-66041297D01*
X60124951Y-66224345D01*
X60399406Y-66371507D01*
X60691294Y-66480059D01*
X60995213Y-66547993D01*
X61305540Y-66574052D01*
X61616533Y-66557754D01*
X61922437Y-66499400D01*
X62217590Y-66400069D01*
X62496532Y-66261601D01*
X62754102Y-66086558D01*
X62985531Y-65878177D01*
X63046762Y-65805720D01*
X63101655Y-74259245D01*
X63018536Y-74156602D01*
X62791520Y-73943421D01*
X62537674Y-73763022D01*
X62261693Y-73618742D01*
X61968684Y-73513252D01*
X61664070Y-73448504D01*
X61353487Y-73425697D01*
X61042682Y-73445251D01*
X60737407Y-73506806D01*
X60443309Y-73609220D01*
X60165833Y-73750603D01*
X59910111Y-73928333D01*
X59680876Y-74139126D01*
X59482369Y-74379079D01*
X59318265Y-74643752D01*
X59191600Y-74928248D01*
X59104715Y-75227302D01*
X59093827Y-75301038D01*
X58929145Y-75272001D01*
X58673855Y-75272001D01*
X58422441Y-75316331D01*
X58182545Y-75403647D01*
X57961456Y-75531293D01*
X57785500Y-75678937D01*
X57609544Y-75531293D01*
X57388455Y-75403647D01*
X57148559Y-75316331D01*
X56897145Y-75272001D01*
X56641855Y-75272001D01*
X56390441Y-75316331D01*
X56150545Y-75403647D01*
X55929456Y-75531293D01*
X55733891Y-75695391D01*
X55634000Y-75814437D01*
X55634000Y-70954228D01*
X55693317Y-71022947D01*
X55895728Y-71192791D01*
X56122690Y-71328088D01*
X56368365Y-71425358D01*
X56626431Y-71482097D01*
X56890248Y-71496846D01*
X57153030Y-71469227D01*
X57408016Y-71399949D01*
X57648646Y-71290794D01*
X57868727Y-71144572D01*
X58062601Y-70965044D01*
X58225277Y-70756828D01*
X58352570Y-70525282D01*
X58441207Y-70276363D01*
X58489025Y-70015821D01*
X58492138Y-69718541D01*
X58449786Y-69457055D01*
X58366382Y-69206334D01*
X58243966Y-68972173D01*
X58085686Y-68760595D01*
X57895615Y-68577047D01*
X57678644Y-68426247D01*
X57440353Y-68312078D01*
X57186874Y-68237474D01*
X56924728Y-68204358D01*
X56660660Y-68213580D01*
X56401463Y-68264902D01*
X56153805Y-68357004D01*
X55924059Y-68487519D01*
X55718134Y-68653086D01*
X55634000Y-68746526D01*
X55634000Y-64185563D01*
X55733891Y-64304609D01*
X55733891Y-64304609D01*
G37*
X55733891Y-64304609D02*
X55929456Y-64468707D01*
X56150545Y-64596353D01*
X56390441Y-64683669D01*
X56641855Y-64727999D01*
X56897145Y-64727999D01*
X57148559Y-64683669D01*
X57388455Y-64596353D01*
X57609544Y-64468707D01*
X57785500Y-64321063D01*
X57961456Y-64468707D01*
X58182545Y-64596353D01*
X58422441Y-64683669D01*
X58673855Y-64727999D01*
X58929145Y-64727999D01*
X59091658Y-64699344D01*
X59094993Y-64725747D01*
X59175595Y-65026555D01*
X59296274Y-65313642D01*
X59454799Y-65581693D01*
X59648237Y-65825751D01*
X59873008Y-66041297D01*
X60124951Y-66224345D01*
X60399406Y-66371507D01*
X60691294Y-66480059D01*
X60995213Y-66547993D01*
X61305540Y-66574052D01*
X61616533Y-66557754D01*
X61922437Y-66499400D01*
X62217590Y-66400069D01*
X62496532Y-66261601D01*
X62754102Y-66086558D01*
X62985531Y-65878177D01*
X63046762Y-65805720D01*
X63101655Y-74259245D01*
X63018536Y-74156602D01*
X62791520Y-73943421D01*
X62537674Y-73763022D01*
X62261693Y-73618742D01*
X61968684Y-73513252D01*
X61664070Y-73448504D01*
X61353487Y-73425697D01*
X61042682Y-73445251D01*
X60737407Y-73506806D01*
X60443309Y-73609220D01*
X60165833Y-73750603D01*
X59910111Y-73928333D01*
X59680876Y-74139126D01*
X59482369Y-74379079D01*
X59318265Y-74643752D01*
X59191600Y-74928248D01*
X59104715Y-75227302D01*
X59093827Y-75301038D01*
X58929145Y-75272001D01*
X58673855Y-75272001D01*
X58422441Y-75316331D01*
X58182545Y-75403647D01*
X57961456Y-75531293D01*
X57785500Y-75678937D01*
X57609544Y-75531293D01*
X57388455Y-75403647D01*
X57148559Y-75316331D01*
X56897145Y-75272001D01*
X56641855Y-75272001D01*
X56390441Y-75316331D01*
X56150545Y-75403647D01*
X55929456Y-75531293D01*
X55733891Y-75695391D01*
X55634000Y-75814437D01*
X55634000Y-70954228D01*
X55693317Y-71022947D01*
X55895728Y-71192791D01*
X56122690Y-71328088D01*
X56368365Y-71425358D01*
X56626431Y-71482097D01*
X56890248Y-71496846D01*
X57153030Y-71469227D01*
X57408016Y-71399949D01*
X57648646Y-71290794D01*
X57868727Y-71144572D01*
X58062601Y-70965044D01*
X58225277Y-70756828D01*
X58352570Y-70525282D01*
X58441207Y-70276363D01*
X58489025Y-70015821D01*
X58492138Y-69718541D01*
X58449786Y-69457055D01*
X58366382Y-69206334D01*
X58243966Y-68972173D01*
X58085686Y-68760595D01*
X57895615Y-68577047D01*
X57678644Y-68426247D01*
X57440353Y-68312078D01*
X57186874Y-68237474D01*
X56924728Y-68204358D01*
X56660660Y-68213580D01*
X56401463Y-68264902D01*
X56153805Y-68357004D01*
X55924059Y-68487519D01*
X55718134Y-68653086D01*
X55634000Y-68746526D01*
X55634000Y-64185563D01*
X55733891Y-64304609D01*
G36*
X105866001Y-74490278D02*
G01*
X105649962Y-74432391D01*
X105462606Y-74416000D01*
X104095888Y-74416000D01*
X104104682Y-74378051D01*
X104159187Y-74222843D01*
X104162969Y-74126587D01*
X104164400Y-74120414D01*
X104164400Y-74090180D01*
X104168472Y-73986555D01*
X104164400Y-73971197D01*
X104164400Y-73389189D01*
X104165066Y-73383560D01*
X104287420Y-73386123D01*
X104506429Y-73347505D01*
X104713766Y-73267085D01*
X104901534Y-73147924D01*
X105062582Y-72994561D01*
X105190773Y-72812837D01*
X105281227Y-72609677D01*
X105330693Y-72391948D01*
X105334216Y-72139679D01*
X105290848Y-71920653D01*
X105206102Y-71715046D01*
X105083034Y-71529814D01*
X104926333Y-71372015D01*
X104741965Y-71247657D01*
X104536954Y-71161479D01*
X104319108Y-71116761D01*
X104096726Y-71115209D01*
X103878277Y-71156880D01*
X103672083Y-71240188D01*
X103485996Y-71361959D01*
X103327107Y-71517555D01*
X103224250Y-71667775D01*
X103181973Y-71509994D01*
X103204956Y-71470186D01*
X103241837Y-71261024D01*
X103241837Y-70733412D01*
X103181973Y-70509994D01*
X103204956Y-70470186D01*
X103265998Y-70124000D01*
X102700841Y-70124000D01*
X102611024Y-70108163D01*
X100783412Y-70108163D01*
X100724307Y-70124000D01*
X100336562Y-70124000D01*
X100317586Y-70113044D01*
X100108424Y-70076163D01*
X99580812Y-70076163D01*
X99346467Y-70138956D01*
X99301587Y-70113044D01*
X99092424Y-70076163D01*
X98564812Y-70076163D01*
X98520870Y-70087937D01*
X98403584Y-69970651D01*
X98467483Y-69906752D01*
X98519576Y-69915937D01*
X99047188Y-69915937D01*
X99281534Y-69853145D01*
X99326414Y-69879056D01*
X99535576Y-69915937D01*
X100063188Y-69915937D01*
X100212235Y-69876000D01*
X100699159Y-69876000D01*
X100788976Y-69891837D01*
X102616588Y-69891837D01*
X102675694Y-69876000D01*
X103280043Y-69876000D01*
X103181973Y-69509994D01*
X103204956Y-69470186D01*
X103241837Y-69261024D01*
X103241837Y-68733412D01*
X103181973Y-68509994D01*
X103204956Y-68470186D01*
X103228594Y-68336130D01*
X103306996Y-68457786D01*
X103461479Y-68617759D01*
X103644093Y-68744679D01*
X103847881Y-68833711D01*
X104065080Y-68881466D01*
X104287420Y-68886123D01*
X104506429Y-68847505D01*
X104713766Y-68767085D01*
X104901534Y-68647924D01*
X105062582Y-68494561D01*
X105190773Y-68312837D01*
X105281227Y-68109677D01*
X105330693Y-67891948D01*
X105334216Y-67639679D01*
X105290848Y-67420653D01*
X105206102Y-67215046D01*
X105083034Y-67029814D01*
X104926333Y-66872015D01*
X104741965Y-66747657D01*
X104536954Y-66661479D01*
X104319108Y-66616761D01*
X104096726Y-66615209D01*
X103878277Y-66656880D01*
X103672083Y-66740188D01*
X103485996Y-66861959D01*
X103327107Y-67017555D01*
X103254223Y-67124000D01*
X102700841Y-67124000D01*
X102611024Y-67108163D01*
X101576000Y-67108163D01*
X101576000Y-66891837D01*
X102616588Y-66891837D01*
X102675694Y-66876000D01*
X103280043Y-66876000D01*
X103181973Y-66509994D01*
X103204956Y-66470186D01*
X103241837Y-66261024D01*
X103241837Y-65733412D01*
X103201802Y-65584000D01*
X105462606Y-65584000D01*
X105649962Y-65567609D01*
X105866000Y-65509722D01*
X105866001Y-74490278D01*
X105866001Y-74490278D01*
G37*
X105866001Y-74490278D02*
X105649962Y-74432391D01*
X105462606Y-74416000D01*
X104095888Y-74416000D01*
X104104682Y-74378051D01*
X104159187Y-74222843D01*
X104162969Y-74126587D01*
X104164400Y-74120414D01*
X104164400Y-74090180D01*
X104168472Y-73986555D01*
X104164400Y-73971197D01*
X104164400Y-73389189D01*
X104165066Y-73383560D01*
X104287420Y-73386123D01*
X104506429Y-73347505D01*
X104713766Y-73267085D01*
X104901534Y-73147924D01*
X105062582Y-72994561D01*
X105190773Y-72812837D01*
X105281227Y-72609677D01*
X105330693Y-72391948D01*
X105334216Y-72139679D01*
X105290848Y-71920653D01*
X105206102Y-71715046D01*
X105083034Y-71529814D01*
X104926333Y-71372015D01*
X104741965Y-71247657D01*
X104536954Y-71161479D01*
X104319108Y-71116761D01*
X104096726Y-71115209D01*
X103878277Y-71156880D01*
X103672083Y-71240188D01*
X103485996Y-71361959D01*
X103327107Y-71517555D01*
X103224250Y-71667775D01*
X103181973Y-71509994D01*
X103204956Y-71470186D01*
X103241837Y-71261024D01*
X103241837Y-70733412D01*
X103181973Y-70509994D01*
X103204956Y-70470186D01*
X103265998Y-70124000D01*
X102700841Y-70124000D01*
X102611024Y-70108163D01*
X100783412Y-70108163D01*
X100724307Y-70124000D01*
X100336562Y-70124000D01*
X100317586Y-70113044D01*
X100108424Y-70076163D01*
X99580812Y-70076163D01*
X99346467Y-70138956D01*
X99301587Y-70113044D01*
X99092424Y-70076163D01*
X98564812Y-70076163D01*
X98520870Y-70087937D01*
X98403584Y-69970651D01*
X98467483Y-69906752D01*
X98519576Y-69915937D01*
X99047188Y-69915937D01*
X99281534Y-69853145D01*
X99326414Y-69879056D01*
X99535576Y-69915937D01*
X100063188Y-69915937D01*
X100212235Y-69876000D01*
X100699159Y-69876000D01*
X100788976Y-69891837D01*
X102616588Y-69891837D01*
X102675694Y-69876000D01*
X103280043Y-69876000D01*
X103181973Y-69509994D01*
X103204956Y-69470186D01*
X103241837Y-69261024D01*
X103241837Y-68733412D01*
X103181973Y-68509994D01*
X103204956Y-68470186D01*
X103228594Y-68336130D01*
X103306996Y-68457786D01*
X103461479Y-68617759D01*
X103644093Y-68744679D01*
X103847881Y-68833711D01*
X104065080Y-68881466D01*
X104287420Y-68886123D01*
X104506429Y-68847505D01*
X104713766Y-68767085D01*
X104901534Y-68647924D01*
X105062582Y-68494561D01*
X105190773Y-68312837D01*
X105281227Y-68109677D01*
X105330693Y-67891948D01*
X105334216Y-67639679D01*
X105290848Y-67420653D01*
X105206102Y-67215046D01*
X105083034Y-67029814D01*
X104926333Y-66872015D01*
X104741965Y-66747657D01*
X104536954Y-66661479D01*
X104319108Y-66616761D01*
X104096726Y-66615209D01*
X103878277Y-66656880D01*
X103672083Y-66740188D01*
X103485996Y-66861959D01*
X103327107Y-67017555D01*
X103254223Y-67124000D01*
X102700841Y-67124000D01*
X102611024Y-67108163D01*
X101576000Y-67108163D01*
X101576000Y-66891837D01*
X102616588Y-66891837D01*
X102675694Y-66876000D01*
X103280043Y-66876000D01*
X103181973Y-66509994D01*
X103204956Y-66470186D01*
X103241837Y-66261024D01*
X103241837Y-65733412D01*
X103201802Y-65584000D01*
X105462606Y-65584000D01*
X105649962Y-65567609D01*
X105866000Y-65509722D01*
X105866001Y-74490278D01*
G36*
X95208163Y-63363976D02*
G01*
X95208163Y-63941588D01*
X95288795Y-64242512D01*
X95436185Y-64418165D01*
X95629814Y-64529956D01*
X95838976Y-64566837D01*
X97015210Y-64566837D01*
X97015390Y-64566941D01*
X97181274Y-64611390D01*
X97144740Y-64647924D01*
X97061024Y-64633163D01*
X95833412Y-64633163D01*
X95532489Y-64713795D01*
X95356835Y-64861185D01*
X95245044Y-65054814D01*
X95208163Y-65263976D01*
X95208163Y-65841588D01*
X95288795Y-66142512D01*
X95436185Y-66318165D01*
X95577877Y-66399970D01*
X95526428Y-66413756D01*
X95302047Y-66543302D01*
X95118842Y-66726507D01*
X94989296Y-66950888D01*
X94922238Y-67201151D01*
X94922238Y-67460243D01*
X94967322Y-67628500D01*
X93920530Y-67628500D01*
X93826409Y-67574159D01*
X93576146Y-67507101D01*
X93317054Y-67507101D01*
X93066791Y-67574159D01*
X92973536Y-67628000D01*
X92622000Y-67628000D01*
X92622000Y-67372000D01*
X93841837Y-67372000D01*
X93841837Y-67083412D01*
X93761205Y-66782489D01*
X93613815Y-66606835D01*
X93420186Y-66495044D01*
X93332579Y-66479596D01*
X93379810Y-66466941D01*
X93379990Y-66466837D01*
X94466588Y-66466837D01*
X94767512Y-66386205D01*
X94943165Y-66238815D01*
X95054956Y-66045186D01*
X95091837Y-65836024D01*
X95091837Y-65258412D01*
X95050274Y-65103296D01*
X95054956Y-65095186D01*
X95091837Y-64886024D01*
X95091837Y-64728000D01*
X94770568Y-64728000D01*
X94670186Y-64670044D01*
X94461024Y-64633163D01*
X93722000Y-64633163D01*
X93722000Y-64566837D01*
X94466588Y-64566837D01*
X94767512Y-64486205D01*
X94784441Y-64472000D01*
X95091837Y-64472000D01*
X95091837Y-64308412D01*
X95050274Y-64153296D01*
X95054956Y-64145186D01*
X95091837Y-63936024D01*
X95091837Y-63358412D01*
X95049347Y-63199837D01*
X95237105Y-63199837D01*
X95208163Y-63363976D01*
X95208163Y-63363976D01*
G37*
X95208163Y-63363976D02*
X95208163Y-63941588D01*
X95288795Y-64242512D01*
X95436185Y-64418165D01*
X95629814Y-64529956D01*
X95838976Y-64566837D01*
X97015210Y-64566837D01*
X97015390Y-64566941D01*
X97181274Y-64611390D01*
X97144740Y-64647924D01*
X97061024Y-64633163D01*
X95833412Y-64633163D01*
X95532489Y-64713795D01*
X95356835Y-64861185D01*
X95245044Y-65054814D01*
X95208163Y-65263976D01*
X95208163Y-65841588D01*
X95288795Y-66142512D01*
X95436185Y-66318165D01*
X95577877Y-66399970D01*
X95526428Y-66413756D01*
X95302047Y-66543302D01*
X95118842Y-66726507D01*
X94989296Y-66950888D01*
X94922238Y-67201151D01*
X94922238Y-67460243D01*
X94967322Y-67628500D01*
X93920530Y-67628500D01*
X93826409Y-67574159D01*
X93576146Y-67507101D01*
X93317054Y-67507101D01*
X93066791Y-67574159D01*
X92973536Y-67628000D01*
X92622000Y-67628000D01*
X92622000Y-67372000D01*
X93841837Y-67372000D01*
X93841837Y-67083412D01*
X93761205Y-66782489D01*
X93613815Y-66606835D01*
X93420186Y-66495044D01*
X93332579Y-66479596D01*
X93379810Y-66466941D01*
X93379990Y-66466837D01*
X94466588Y-66466837D01*
X94767512Y-66386205D01*
X94943165Y-66238815D01*
X95054956Y-66045186D01*
X95091837Y-65836024D01*
X95091837Y-65258412D01*
X95050274Y-65103296D01*
X95054956Y-65095186D01*
X95091837Y-64886024D01*
X95091837Y-64728000D01*
X94770568Y-64728000D01*
X94670186Y-64670044D01*
X94461024Y-64633163D01*
X93722000Y-64633163D01*
X93722000Y-64566837D01*
X94466588Y-64566837D01*
X94767512Y-64486205D01*
X94784441Y-64472000D01*
X95091837Y-64472000D01*
X95091837Y-64308412D01*
X95050274Y-64153296D01*
X95054956Y-64145186D01*
X95091837Y-63936024D01*
X95091837Y-63358412D01*
X95049347Y-63199837D01*
X95237105Y-63199837D01*
X95208163Y-63363976D01*
G36*
X103048195Y-61221549D02*
G01*
X102942411Y-61463679D01*
X102876700Y-61719607D01*
X102852752Y-61982749D01*
X102871184Y-62246335D01*
X102931521Y-62503583D01*
X103019073Y-62716000D01*
X102937394Y-62716000D01*
X102750038Y-62732391D01*
X102507670Y-62797333D01*
X102280261Y-62903376D01*
X102074721Y-63047297D01*
X101897297Y-63224721D01*
X101753376Y-63430261D01*
X101647333Y-63657670D01*
X101582391Y-63900038D01*
X101560523Y-64150000D01*
X101582391Y-64399962D01*
X101647333Y-64642330D01*
X101753376Y-64869739D01*
X101897297Y-65075279D01*
X101930181Y-65108163D01*
X100783412Y-65108163D01*
X100482489Y-65188795D01*
X100390420Y-65266050D01*
X99891753Y-65266050D01*
X99839085Y-65283163D01*
X99541412Y-65283163D01*
X99307067Y-65345956D01*
X99262187Y-65320044D01*
X99053024Y-65283163D01*
X98711304Y-65283163D01*
X98752835Y-65226934D01*
X98757010Y-65215045D01*
X98767076Y-65200481D01*
X98776682Y-65159029D01*
X98831187Y-65003821D01*
X98834969Y-64907565D01*
X98836400Y-64901392D01*
X98836400Y-64871158D01*
X98840472Y-64767533D01*
X98836400Y-64752175D01*
X98836400Y-62496688D01*
X98844882Y-62425019D01*
X98825863Y-62320878D01*
X98810119Y-62216160D01*
X98804661Y-62204793D01*
X98801481Y-62187385D01*
X98795629Y-62178000D01*
X99017000Y-62178000D01*
X99017000Y-63199837D01*
X99413588Y-63199837D01*
X99714512Y-63119205D01*
X99890165Y-62971815D01*
X100001956Y-62778186D01*
X100038837Y-62569024D01*
X100038837Y-62178000D01*
X99017000Y-62178000D01*
X98795629Y-62178000D01*
X98778967Y-62151283D01*
X98761000Y-62113868D01*
X98761000Y-61922000D01*
X100038837Y-61922000D01*
X100038837Y-61525412D01*
X99958205Y-61224489D01*
X99882276Y-61134000D01*
X103104616Y-61134000D01*
X103048195Y-61221549D01*
X103048195Y-61221549D01*
G37*
X103048195Y-61221549D02*
X102942411Y-61463679D01*
X102876700Y-61719607D01*
X102852752Y-61982749D01*
X102871184Y-62246335D01*
X102931521Y-62503583D01*
X103019073Y-62716000D01*
X102937394Y-62716000D01*
X102750038Y-62732391D01*
X102507670Y-62797333D01*
X102280261Y-62903376D01*
X102074721Y-63047297D01*
X101897297Y-63224721D01*
X101753376Y-63430261D01*
X101647333Y-63657670D01*
X101582391Y-63900038D01*
X101560523Y-64150000D01*
X101582391Y-64399962D01*
X101647333Y-64642330D01*
X101753376Y-64869739D01*
X101897297Y-65075279D01*
X101930181Y-65108163D01*
X100783412Y-65108163D01*
X100482489Y-65188795D01*
X100390420Y-65266050D01*
X99891753Y-65266050D01*
X99839085Y-65283163D01*
X99541412Y-65283163D01*
X99307067Y-65345956D01*
X99262187Y-65320044D01*
X99053024Y-65283163D01*
X98711304Y-65283163D01*
X98752835Y-65226934D01*
X98757010Y-65215045D01*
X98767076Y-65200481D01*
X98776682Y-65159029D01*
X98831187Y-65003821D01*
X98834969Y-64907565D01*
X98836400Y-64901392D01*
X98836400Y-64871158D01*
X98840472Y-64767533D01*
X98836400Y-64752175D01*
X98836400Y-62496688D01*
X98844882Y-62425019D01*
X98825863Y-62320878D01*
X98810119Y-62216160D01*
X98804661Y-62204793D01*
X98801481Y-62187385D01*
X98795629Y-62178000D01*
X99017000Y-62178000D01*
X99017000Y-63199837D01*
X99413588Y-63199837D01*
X99714512Y-63119205D01*
X99890165Y-62971815D01*
X100001956Y-62778186D01*
X100038837Y-62569024D01*
X100038837Y-62178000D01*
X99017000Y-62178000D01*
X98795629Y-62178000D01*
X98778967Y-62151283D01*
X98761000Y-62113868D01*
X98761000Y-61922000D01*
X100038837Y-61922000D01*
X100038837Y-61525412D01*
X99958205Y-61224489D01*
X99882276Y-61134000D01*
X103104616Y-61134000D01*
X103048195Y-61221549D01*
G36*
X62910893Y-61158889D02*
G01*
X62762411Y-61395134D01*
X62651371Y-61651118D01*
X62580328Y-61920955D01*
X62550920Y-62198432D01*
X62557812Y-62347333D01*
X62537674Y-62333022D01*
X62261693Y-62188742D01*
X61968684Y-62083252D01*
X61664070Y-62018504D01*
X61353487Y-61995697D01*
X61042682Y-62015251D01*
X60737407Y-62076806D01*
X60443309Y-62179220D01*
X60165833Y-62320603D01*
X60003706Y-62433284D01*
X60001207Y-62428956D01*
X59837109Y-62233391D01*
X59641544Y-62069293D01*
X59420455Y-61941647D01*
X59180559Y-61854331D01*
X58929145Y-61810001D01*
X58673855Y-61810001D01*
X58422441Y-61854331D01*
X58182545Y-61941647D01*
X57961456Y-62069293D01*
X57785500Y-62216937D01*
X57609544Y-62069293D01*
X57388455Y-61941647D01*
X57148559Y-61854331D01*
X56897145Y-61810001D01*
X56641855Y-61810001D01*
X56390441Y-61854331D01*
X56150545Y-61941647D01*
X55929456Y-62069293D01*
X55733891Y-62233391D01*
X55634000Y-62352437D01*
X55634000Y-61134000D01*
X62932415Y-61134000D01*
X62910893Y-61158889D01*
X62910893Y-61158889D01*
G37*
X62910893Y-61158889D02*
X62762411Y-61395134D01*
X62651371Y-61651118D01*
X62580328Y-61920955D01*
X62550920Y-62198432D01*
X62557812Y-62347333D01*
X62537674Y-62333022D01*
X62261693Y-62188742D01*
X61968684Y-62083252D01*
X61664070Y-62018504D01*
X61353487Y-61995697D01*
X61042682Y-62015251D01*
X60737407Y-62076806D01*
X60443309Y-62179220D01*
X60165833Y-62320603D01*
X60003706Y-62433284D01*
X60001207Y-62428956D01*
X59837109Y-62233391D01*
X59641544Y-62069293D01*
X59420455Y-61941647D01*
X59180559Y-61854331D01*
X58929145Y-61810001D01*
X58673855Y-61810001D01*
X58422441Y-61854331D01*
X58182545Y-61941647D01*
X57961456Y-62069293D01*
X57785500Y-62216937D01*
X57609544Y-62069293D01*
X57388455Y-61941647D01*
X57148559Y-61854331D01*
X56897145Y-61810001D01*
X56641855Y-61810001D01*
X56390441Y-61854331D01*
X56150545Y-61941647D01*
X55929456Y-62069293D01*
X55733891Y-62233391D01*
X55634000Y-62352437D01*
X55634000Y-61134000D01*
X62932415Y-61134000D01*
X62910893Y-61158889D01*
G36*
X72517005Y-61257510D02*
G01*
X72387459Y-61481891D01*
X72320401Y-61732154D01*
X72320401Y-61991246D01*
X72369370Y-62174000D01*
X66222292Y-62174000D01*
X66223987Y-62116890D01*
X66181746Y-61839227D01*
X66098537Y-61572891D01*
X65975999Y-61322207D01*
X65845436Y-61134000D01*
X72640515Y-61134000D01*
X72517005Y-61257510D01*
X72517005Y-61257510D01*
G37*
X72517005Y-61257510D02*
X72387459Y-61481891D01*
X72320401Y-61732154D01*
X72320401Y-61991246D01*
X72369370Y-62174000D01*
X66222292Y-62174000D01*
X66223987Y-62116890D01*
X66181746Y-61839227D01*
X66098537Y-61572891D01*
X65975999Y-61322207D01*
X65845436Y-61134000D01*
X72640515Y-61134000D01*
X72517005Y-61257510D01*
M02*
