%TF.GenerationSoftware,KiCad,Pcbnew,7.0.9-7.0.9~ubuntu22.04.1*%
%TF.CreationDate,2024-07-08T15:30:03+03:00*%
%TF.ProjectId,USB-GIGABIT_Rev_E,5553422d-4749-4474-9142-49545f526576,E*%
%TF.SameCoordinates,PX3473bc0PY4bd12e0*%
%TF.FileFunction,Copper,L3,Inr*%
%TF.FilePolarity,Positive*%
%FSLAX46Y46*%
G04 Gerber Fmt 4.6, Leading zero omitted, Abs format (unit mm)*
G04 Created by KiCad (PCBNEW 7.0.9-7.0.9~ubuntu22.04.1) date 2024-07-08 15:30:03*
%MOMM*%
%LPD*%
G01*
G04 APERTURE LIST*
%ADD10C,0.222250*%
%TA.AperFunction,NonConductor*%
%ADD11C,0.222250*%
%TD*%
%TA.AperFunction,ComponentPad*%
%ADD12C,1.300000*%
%TD*%
%TA.AperFunction,ComponentPad*%
%ADD13C,1.800000*%
%TD*%
%TA.AperFunction,ComponentPad*%
%ADD14C,1.650000*%
%TD*%
%TA.AperFunction,ComponentPad*%
%ADD15O,2.800000X2.000000*%
%TD*%
%TA.AperFunction,ComponentPad*%
%ADD16O,4.000000X1.600000*%
%TD*%
%TA.AperFunction,ViaPad*%
%ADD17C,0.800000*%
%TD*%
%TA.AperFunction,ViaPad*%
%ADD18C,1.000000*%
%TD*%
%TA.AperFunction,Conductor*%
%ADD19C,1.016000*%
%TD*%
%TA.AperFunction,Conductor*%
%ADD20C,0.762000*%
%TD*%
G04 APERTURE END LIST*
D10*
D11*
X3527783Y1261353D02*
X2977449Y1261353D01*
X2977449Y1261353D02*
X3273783Y922686D01*
X3273783Y922686D02*
X3146783Y922686D01*
X3146783Y922686D02*
X3062116Y880353D01*
X3062116Y880353D02*
X3019783Y838020D01*
X3019783Y838020D02*
X2977449Y753353D01*
X2977449Y753353D02*
X2977449Y541686D01*
X2977449Y541686D02*
X3019783Y457020D01*
X3019783Y457020D02*
X3062116Y414686D01*
X3062116Y414686D02*
X3146783Y372353D01*
X3146783Y372353D02*
X3400783Y372353D01*
X3400783Y372353D02*
X3485449Y414686D01*
X3485449Y414686D02*
X3527783Y457020D01*
D12*
X27465988Y10694500D03*
X24265988Y10694500D03*
D13*
X25865988Y9094500D03*
D12*
X27465988Y7494500D03*
X24265988Y7494500D03*
D14*
X12691500Y15215000D03*
X15231500Y13945000D03*
X12691500Y12675000D03*
X15231500Y11405000D03*
X12691500Y10135000D03*
X15231500Y8865000D03*
X12691500Y7595000D03*
X15231500Y6325000D03*
X12691500Y5055000D03*
X15231500Y3785000D03*
X3801500Y16231000D03*
X1769500Y16231000D03*
X3801500Y2769000D03*
X1769500Y2769000D03*
D15*
X9541500Y17400000D03*
X9541500Y1600000D03*
D16*
X49200000Y15350000D03*
X49200000Y3650000D03*
D17*
X24883000Y3554000D03*
D18*
X40758000Y10539000D03*
X43044000Y14984000D03*
X42155000Y8507000D03*
X43679000Y16381000D03*
X37710000Y17270000D03*
D17*
X25899000Y14476000D03*
X17898000Y13460000D03*
D18*
X40758000Y12825000D03*
X38218000Y13460000D03*
X21200000Y2157000D03*
X46854000Y1141000D03*
X44949000Y13206000D03*
X19295000Y1014000D03*
D17*
X21327000Y17778000D03*
X24883000Y4443000D03*
X18533000Y5713000D03*
X22724000Y18159000D03*
X20311000Y14603000D03*
X19694500Y9142000D03*
D18*
X48759000Y8761000D03*
D17*
X33265000Y6475000D03*
D18*
X33392000Y12571000D03*
D17*
X31614000Y5078000D03*
X30217000Y16254000D03*
D18*
X22978000Y1014000D03*
X48759000Y10031000D03*
D17*
X34281000Y7237000D03*
X28566000Y17143000D03*
D18*
X29582000Y6104503D03*
X19422000Y3300000D03*
D17*
X21073000Y13587000D03*
D18*
X43195230Y17626770D03*
X32376000Y11682000D03*
D17*
X31995000Y15238000D03*
D18*
X9389000Y7872000D03*
X6595000Y7872000D03*
X8881000Y4189000D03*
X9389000Y10920000D03*
X1388000Y7618000D03*
X1388000Y10666000D03*
X1388000Y13968000D03*
X3801000Y10666000D03*
D17*
X39615000Y12044500D03*
X42282000Y10158000D03*
X27042000Y3935000D03*
X29455000Y14476000D03*
D18*
X34789000Y11301000D03*
D17*
X29074000Y5078000D03*
X17898000Y12444000D03*
X18533000Y6729000D03*
D18*
X34789000Y12444000D03*
D17*
X22033476Y4879524D03*
X21835000Y15619000D03*
X33011000Y15238000D03*
X28820000Y12571000D03*
X20692000Y15746000D03*
X23105000Y13206000D03*
X47997000Y11809000D03*
X48098600Y13500000D03*
D18*
X41901000Y5332000D03*
X42282000Y6348000D03*
D17*
X34281000Y9396000D03*
X17212200Y17651000D03*
X18406000Y15873000D03*
X29709000Y17270000D03*
X32376000Y10031000D03*
X44822000Y10412000D03*
X44822000Y9396000D03*
X48060108Y7618000D03*
X48124000Y5586000D03*
X32884000Y16381000D03*
X29709000Y13206000D03*
X28439000Y13968000D03*
X19549000Y15492000D03*
D19*
X30333497Y6104503D02*
X30344000Y6094000D01*
D20*
X31360000Y15873000D02*
X31360000Y16635000D01*
D19*
X29582000Y6104503D02*
X30333497Y6104503D01*
D20*
X31995000Y15238000D02*
X31360000Y15873000D01*
D19*
X30598000Y8761000D02*
X30598000Y12190000D01*
X24521000Y15511000D02*
X24502000Y15492000D01*
X34789000Y12444000D02*
X34789000Y13714000D01*
X29436000Y15511000D02*
X24521000Y15511000D01*
X34789000Y13714000D02*
X34408000Y14095000D01*
X27677000Y5840000D02*
X30598000Y8761000D01*
X30852000Y14095000D02*
X29436000Y15511000D01*
X31106000Y12698000D02*
X31106000Y14095000D01*
X34408000Y14095000D02*
X31106000Y14095000D01*
X21000000Y11809000D02*
X21000000Y5913000D01*
X31106000Y14095000D02*
X30852000Y14095000D01*
X21073000Y5840000D02*
X27677000Y5840000D01*
X30598000Y12190000D02*
X31106000Y12698000D01*
X24502000Y15492000D02*
X24502000Y12825000D01*
X24502000Y12825000D02*
X23486000Y11809000D01*
X24502000Y15492000D02*
X22597000Y15492000D01*
X21000000Y5913000D02*
X21073000Y5840000D01*
X23486000Y11809000D02*
X21000000Y11809000D01*
%TA.AperFunction,Conductor*%
G36*
X7695615Y2336405D02*
G01*
X7746562Y2286959D01*
X7762688Y2217818D01*
X7756062Y2184015D01*
X7682417Y1969495D01*
X7682415Y1969486D01*
X7662477Y1850001D01*
X7662477Y1850000D01*
X8707814Y1850000D01*
X8682007Y1809844D01*
X8641500Y1671889D01*
X8641500Y1528111D01*
X8682007Y1390156D01*
X8707814Y1350000D01*
X7662477Y1350000D01*
X7682415Y1230515D01*
X7682417Y1230506D01*
X7763130Y995395D01*
X7763132Y995393D01*
X7881445Y776767D01*
X7881451Y776758D01*
X8030789Y584891D01*
X8056846Y518849D01*
X8043061Y449204D01*
X7993811Y398067D01*
X7931358Y381500D01*
X5705000Y381500D01*
X5636879Y401502D01*
X5590386Y455158D01*
X5579000Y507500D01*
X5579000Y1522000D01*
X5420042Y1522000D01*
X5351921Y1542002D01*
X5305428Y1595658D01*
X5295324Y1665932D01*
X5319174Y1723509D01*
X5354626Y1770867D01*
X5462093Y1967680D01*
X5512292Y2017878D01*
X5581666Y2032970D01*
X5626160Y2021377D01*
X5660762Y2005156D01*
X5660764Y2005156D01*
X5660767Y2005154D01*
X5927169Y1925005D01*
X6202395Y1884501D01*
X6202398Y1884500D01*
X6202401Y1884500D01*
X6410965Y1884500D01*
X6443815Y1886905D01*
X6618955Y1899723D01*
X6890497Y1960212D01*
X7150338Y2059592D01*
X7392940Y2195747D01*
X7559881Y2324656D01*
X7626023Y2350458D01*
X7695615Y2336405D01*
G37*
%TD.AperFunction*%
%TA.AperFunction,Conductor*%
G36*
X9791500Y15900000D02*
G01*
X10003545Y15900000D01*
X10189243Y15915389D01*
X10430216Y15976412D01*
X10657864Y16076267D01*
X10657870Y16076271D01*
X10718085Y16115610D01*
X10786053Y16136123D01*
X10854322Y16116634D01*
X10901217Y16063329D01*
X10913000Y16010127D01*
X10913000Y15716139D01*
X10910121Y15689356D01*
X10864087Y15477739D01*
X10845296Y15215000D01*
X10864087Y14952262D01*
X10864088Y14952258D01*
X10890112Y14832624D01*
X10910121Y14740646D01*
X10913000Y14713863D01*
X10913000Y13176139D01*
X10910121Y13149356D01*
X10864087Y12937739D01*
X10845296Y12675000D01*
X10864087Y12412262D01*
X10910121Y12200646D01*
X10913000Y12173863D01*
X10913000Y10636139D01*
X10910121Y10609356D01*
X10864087Y10397739D01*
X10845296Y10135000D01*
X10864087Y9872262D01*
X10910121Y9660646D01*
X10913000Y9633863D01*
X10913000Y8096139D01*
X10910121Y8069356D01*
X10864087Y7857739D01*
X10845296Y7595000D01*
X10864087Y7332262D01*
X10910121Y7120646D01*
X10913000Y7093863D01*
X10913000Y5556139D01*
X10910121Y5529356D01*
X10864087Y5317739D01*
X10845296Y5055000D01*
X10864087Y4792262D01*
X10864088Y4792258D01*
X10893660Y4656314D01*
X10910121Y4580646D01*
X10913000Y4553863D01*
X10913000Y2989874D01*
X10892998Y2921753D01*
X10839342Y2875260D01*
X10769068Y2865156D01*
X10718086Y2884390D01*
X10657867Y2923732D01*
X10657864Y2923734D01*
X10430215Y3023589D01*
X10430217Y3023589D01*
X10189243Y3084612D01*
X10003545Y3100000D01*
X9791500Y3100000D01*
X9791500Y2100000D01*
X9291500Y2100000D01*
X9291500Y3100000D01*
X9079455Y3100000D01*
X8893756Y3084612D01*
X8652783Y3023589D01*
X8425136Y2923734D01*
X8237447Y2801112D01*
X8169478Y2780600D01*
X8101209Y2800090D01*
X8054315Y2853395D01*
X8043683Y2923591D01*
X8056474Y2964207D01*
X8095297Y3039717D01*
X8185121Y3303014D01*
X8235652Y3576584D01*
X8245813Y3854596D01*
X8215386Y4131124D01*
X8202314Y4181123D01*
X8145019Y4400279D01*
X8104918Y4494644D01*
X8036216Y4656314D01*
X7891292Y4893781D01*
X7713337Y5107617D01*
X7506143Y5293263D01*
X7274127Y5446763D01*
X7138360Y5510408D01*
X7022234Y5564846D01*
X6942763Y5588756D01*
X6755831Y5644995D01*
X6755826Y5644996D01*
X6755822Y5644997D01*
X6480603Y5685500D01*
X6480599Y5685500D01*
X6272037Y5685500D01*
X6272035Y5685500D01*
X6064041Y5670277D01*
X5792509Y5609790D01*
X5792497Y5609786D01*
X5532661Y5510408D01*
X5290059Y5374253D01*
X5069866Y5204225D01*
X5069865Y5204224D01*
X4876780Y5003954D01*
X4714904Y4777693D01*
X4600455Y4555087D01*
X4551519Y4503651D01*
X4482542Y4486836D01*
X4444366Y4494644D01*
X4420217Y4503651D01*
X4321636Y4540420D01*
X4136718Y4580646D01*
X4064238Y4596413D01*
X3801500Y4615204D01*
X3538761Y4596413D01*
X3281366Y4540421D01*
X3034557Y4448366D01*
X2845885Y4345343D01*
X2776511Y4330252D01*
X2725115Y4345343D01*
X2536442Y4448366D01*
X2289633Y4540421D01*
X2032238Y4596413D01*
X1769500Y4615204D01*
X1506761Y4596413D01*
X1249366Y4540421D01*
X1002557Y4448366D01*
X771367Y4322126D01*
X583009Y4181123D01*
X516489Y4156312D01*
X447115Y4171403D01*
X396912Y4221606D01*
X381500Y4281991D01*
X381500Y14718010D01*
X401502Y14786131D01*
X455158Y14832624D01*
X525432Y14842728D01*
X583005Y14818880D01*
X771367Y14677874D01*
X1002559Y14551634D01*
X1249364Y14459580D01*
X1506758Y14403588D01*
X1769500Y14384796D01*
X2032242Y14403588D01*
X2289636Y14459580D01*
X2536441Y14551634D01*
X2725117Y14654659D01*
X2794488Y14669750D01*
X2845881Y14654660D01*
X3034559Y14551634D01*
X3281364Y14459580D01*
X3538758Y14403588D01*
X3801500Y14384796D01*
X4064242Y14403588D01*
X4321636Y14459580D01*
X4446908Y14506306D01*
X4517723Y14511371D01*
X4580036Y14477346D01*
X4606905Y14437529D01*
X4646783Y14343687D01*
X4646784Y14343686D01*
X4791708Y14106219D01*
X4969663Y13892383D01*
X5176857Y13706737D01*
X5408873Y13553237D01*
X5660767Y13435154D01*
X5927169Y13355005D01*
X6202395Y13314501D01*
X6202398Y13314500D01*
X6202401Y13314500D01*
X6410965Y13314500D01*
X6443815Y13316905D01*
X6618955Y13329723D01*
X6890497Y13390212D01*
X7150338Y13489592D01*
X7392940Y13625747D01*
X7613132Y13795774D01*
X7806222Y13996049D01*
X7968093Y14222304D01*
X8095297Y14469717D01*
X8185121Y14733014D01*
X8235652Y15006584D01*
X8245813Y15284596D01*
X8215386Y15561124D01*
X8145020Y15830276D01*
X8054748Y16042703D01*
X8046516Y16113218D01*
X8077714Y16176993D01*
X8138439Y16213776D01*
X8209410Y16211890D01*
X8239628Y16197463D01*
X8425129Y16076271D01*
X8425135Y16076267D01*
X8652784Y15976412D01*
X8652782Y15976412D01*
X8893756Y15915389D01*
X9079455Y15900000D01*
X9291500Y15900000D01*
X9291500Y16900000D01*
X9791500Y16900000D01*
X9791500Y15900000D01*
G37*
%TD.AperFunction*%
%TA.AperFunction,Conductor*%
G36*
X7999479Y18598498D02*
G01*
X8045972Y18544842D01*
X8056076Y18474568D01*
X8030789Y18415109D01*
X7881451Y18223243D01*
X7881445Y18223234D01*
X7763132Y18004608D01*
X7763130Y18004606D01*
X7682417Y17769495D01*
X7682415Y17769486D01*
X7662477Y17650001D01*
X7662477Y17650000D01*
X8707814Y17650000D01*
X8682007Y17609844D01*
X8641500Y17471889D01*
X8641500Y17328111D01*
X8682007Y17190156D01*
X8707814Y17150000D01*
X7662477Y17150000D01*
X7682415Y17030515D01*
X7682417Y17030506D01*
X7755953Y16816303D01*
X7759153Y16745378D01*
X7723501Y16683983D01*
X7660315Y16651609D01*
X7589657Y16658534D01*
X7552699Y16681549D01*
X7506143Y16723263D01*
X7274127Y16876763D01*
X7022234Y16994846D01*
X6903675Y17030515D01*
X6755831Y17074995D01*
X6755826Y17074996D01*
X6755822Y17074997D01*
X6480603Y17115500D01*
X6480599Y17115500D01*
X6272037Y17115500D01*
X6272035Y17115500D01*
X6064041Y17100277D01*
X5792509Y17039790D01*
X5792497Y17039786D01*
X5618636Y16973290D01*
X5547865Y16967637D01*
X5485272Y17001144D01*
X5463039Y17030588D01*
X5354626Y17229133D01*
X5196768Y17440007D01*
X5196766Y17440009D01*
X5196758Y17440018D01*
X5010517Y17626259D01*
X5010508Y17626267D01*
X5005524Y17629998D01*
X4799633Y17784126D01*
X4615482Y17884680D01*
X4568442Y17910366D01*
X4321633Y18002421D01*
X4064238Y18058413D01*
X3801500Y18077204D01*
X3538761Y18058413D01*
X3281366Y18002421D01*
X3034557Y17910366D01*
X2845885Y17807343D01*
X2776511Y17792252D01*
X2725115Y17807343D01*
X2536442Y17910366D01*
X2289633Y18002421D01*
X2032238Y18058413D01*
X1769500Y18077204D01*
X1506761Y18058413D01*
X1249366Y18002421D01*
X1002557Y17910366D01*
X846134Y17824952D01*
X771367Y17784126D01*
X592196Y17650000D01*
X583009Y17643123D01*
X516489Y17618312D01*
X447115Y17633403D01*
X396912Y17683606D01*
X381500Y17743991D01*
X381500Y18492500D01*
X401502Y18560621D01*
X455158Y18607114D01*
X507500Y18618500D01*
X7931358Y18618500D01*
X7999479Y18598498D01*
G37*
%TD.AperFunction*%
%TA.AperFunction,Conductor*%
G36*
X21076993Y18598498D02*
G01*
X21123486Y18544842D01*
X21133590Y18474568D01*
X21104096Y18409988D01*
X21067427Y18380933D01*
X20952474Y18320602D01*
X20952469Y18320598D01*
X20833501Y18215200D01*
X20743215Y18084399D01*
X20743212Y18084393D01*
X20686849Y17935780D01*
X20667693Y17778004D01*
X20667693Y17777997D01*
X20686849Y17620221D01*
X20723721Y17523000D01*
X20743213Y17471605D01*
X20833502Y17340799D01*
X20952471Y17235401D01*
X20952472Y17235401D01*
X20952474Y17235399D01*
X20993626Y17213801D01*
X21093207Y17161537D01*
X21247529Y17123500D01*
X21247530Y17123500D01*
X21406470Y17123500D01*
X21406471Y17123500D01*
X21560793Y17161537D01*
X21701529Y17235401D01*
X21820498Y17340799D01*
X21910787Y17471605D01*
X21967149Y17620218D01*
X21967149Y17620219D01*
X21967150Y17620221D01*
X21976988Y17701248D01*
X22005054Y17766461D01*
X22063923Y17806148D01*
X22134902Y17807708D01*
X22195457Y17770646D01*
X22205763Y17757640D01*
X22230502Y17721799D01*
X22349471Y17616401D01*
X22349472Y17616401D01*
X22349474Y17616399D01*
X22381787Y17599440D01*
X22490207Y17542537D01*
X22644529Y17504500D01*
X22644530Y17504500D01*
X22803470Y17504500D01*
X22803471Y17504500D01*
X22957793Y17542537D01*
X23098529Y17616401D01*
X23217498Y17721799D01*
X23307787Y17852605D01*
X23364149Y18001218D01*
X23364149Y18001219D01*
X23364150Y18001221D01*
X23383307Y18158997D01*
X23383307Y18159004D01*
X23364150Y18316780D01*
X23352159Y18348395D01*
X23314451Y18447822D01*
X23308998Y18518606D01*
X23342680Y18581104D01*
X23404804Y18615471D01*
X23432264Y18618500D01*
X50992500Y18618500D01*
X51060621Y18598498D01*
X51107114Y18544842D01*
X51118500Y18492500D01*
X51118500Y16371857D01*
X51098498Y16303736D01*
X51044842Y16257243D01*
X50974568Y16247139D01*
X50933104Y16260735D01*
X50805492Y16328945D01*
X50664029Y16371857D01*
X50606718Y16389242D01*
X50606717Y16389243D01*
X50606711Y16389244D01*
X50451807Y16404500D01*
X50451801Y16404500D01*
X47948199Y16404500D01*
X47948192Y16404500D01*
X47793288Y16389244D01*
X47594507Y16328945D01*
X47411313Y16231026D01*
X47411313Y16231025D01*
X47250747Y16099253D01*
X47118975Y15938687D01*
X47118974Y15938687D01*
X47021055Y15755493D01*
X46960756Y15556712D01*
X46940398Y15350004D01*
X46940398Y15349997D01*
X46960756Y15143289D01*
X46960757Y15143283D01*
X46960758Y15143282D01*
X46979120Y15082749D01*
X47021055Y14944508D01*
X47118974Y14761314D01*
X47250747Y14600748D01*
X47411313Y14468976D01*
X47411313Y14468975D01*
X47453216Y14446578D01*
X47594508Y14371055D01*
X47778983Y14315096D01*
X47838363Y14276182D01*
X47867278Y14211341D01*
X47856548Y14141160D01*
X47809579Y14087921D01*
X47800962Y14082955D01*
X47724071Y14042600D01*
X47724069Y14042598D01*
X47636790Y13965274D01*
X47615302Y13946237D01*
X47605101Y13937200D01*
X47514815Y13806399D01*
X47514812Y13806393D01*
X47458449Y13657780D01*
X47439293Y13500004D01*
X47439293Y13499997D01*
X47458449Y13342221D01*
X47492656Y13252027D01*
X47514813Y13193605D01*
X47605102Y13062799D01*
X47724071Y12957401D01*
X47724072Y12957401D01*
X47724074Y12957399D01*
X47744841Y12946500D01*
X47864807Y12883537D01*
X48019129Y12845500D01*
X48019130Y12845500D01*
X48178070Y12845500D01*
X48178071Y12845500D01*
X48332393Y12883537D01*
X48473129Y12957401D01*
X48592098Y13062799D01*
X48682387Y13193605D01*
X48738749Y13342218D01*
X48738749Y13342219D01*
X48738750Y13342221D01*
X48757907Y13499997D01*
X48757907Y13500004D01*
X48738750Y13657780D01*
X48700887Y13757615D01*
X48682387Y13806395D01*
X48592098Y13937201D01*
X48473129Y14042599D01*
X48473128Y14042600D01*
X48473125Y14042602D01*
X48443913Y14057933D01*
X48392890Y14107301D01*
X48376658Y14176417D01*
X48400370Y14243337D01*
X48456497Y14286814D01*
X48502468Y14295500D01*
X50451792Y14295500D01*
X50451801Y14295500D01*
X50539859Y14304174D01*
X50606711Y14310757D01*
X50606712Y14310758D01*
X50606718Y14310758D01*
X50805492Y14371055D01*
X50933106Y14439267D01*
X51002609Y14453738D01*
X51068906Y14428335D01*
X51110944Y14371122D01*
X51118500Y14328144D01*
X51118500Y4671857D01*
X51098498Y4603736D01*
X51044842Y4557243D01*
X50974568Y4547139D01*
X50933104Y4560735D01*
X50805492Y4628945D01*
X50606711Y4689244D01*
X50451807Y4704500D01*
X50451801Y4704500D01*
X48320201Y4704500D01*
X48252080Y4724502D01*
X48205587Y4778158D01*
X48195483Y4848432D01*
X48224977Y4913012D01*
X48284703Y4951396D01*
X48290047Y4952839D01*
X48297522Y4954682D01*
X48357793Y4969537D01*
X48498529Y5043401D01*
X48617498Y5148799D01*
X48707787Y5279605D01*
X48764149Y5428218D01*
X48764149Y5428219D01*
X48764150Y5428221D01*
X48783307Y5585997D01*
X48783307Y5586004D01*
X48764150Y5743780D01*
X48732946Y5826056D01*
X48707787Y5892395D01*
X48617498Y6023201D01*
X48498529Y6128599D01*
X48498528Y6128600D01*
X48498525Y6128602D01*
X48357797Y6202461D01*
X48357795Y6202462D01*
X48357793Y6202463D01*
X48357791Y6202464D01*
X48357790Y6202464D01*
X48203472Y6240500D01*
X48203471Y6240500D01*
X48044529Y6240500D01*
X48044527Y6240500D01*
X47890209Y6202464D01*
X47890202Y6202461D01*
X47749474Y6128602D01*
X47749469Y6128598D01*
X47630501Y6023200D01*
X47540215Y5892399D01*
X47540212Y5892393D01*
X47483849Y5743780D01*
X47464693Y5586004D01*
X47464693Y5585997D01*
X47483849Y5428221D01*
X47532023Y5301200D01*
X47540213Y5279605D01*
X47630502Y5148799D01*
X47749471Y5043401D01*
X47749472Y5043401D01*
X47749474Y5043399D01*
X47824200Y5004180D01*
X47890207Y4969537D01*
X47962011Y4951839D01*
X48023365Y4916116D01*
X48055666Y4852893D01*
X48048659Y4782243D01*
X48004568Y4726597D01*
X47944207Y4704107D01*
X47793288Y4689244D01*
X47594507Y4628945D01*
X47411313Y4531026D01*
X47411313Y4531025D01*
X47250747Y4399253D01*
X47118975Y4238687D01*
X47118974Y4238687D01*
X47021055Y4055493D01*
X46960756Y3856712D01*
X46940398Y3650004D01*
X46940398Y3649997D01*
X46960756Y3443289D01*
X46960757Y3443283D01*
X46960758Y3443282D01*
X47003135Y3303584D01*
X47021055Y3244508D01*
X47118974Y3061314D01*
X47250747Y2900748D01*
X47411313Y2768976D01*
X47411313Y2768975D01*
X47445644Y2750625D01*
X47594508Y2671055D01*
X47793282Y2610758D01*
X47793286Y2610758D01*
X47793288Y2610757D01*
X47881340Y2602085D01*
X47948199Y2595500D01*
X47948208Y2595500D01*
X50451792Y2595500D01*
X50451801Y2595500D01*
X50539859Y2604174D01*
X50606711Y2610757D01*
X50606712Y2610758D01*
X50606718Y2610758D01*
X50805492Y2671055D01*
X50933106Y2739267D01*
X51002609Y2753738D01*
X51068906Y2728335D01*
X51110944Y2671122D01*
X51118500Y2628144D01*
X51118500Y507500D01*
X51098498Y439379D01*
X51044842Y392886D01*
X50992500Y381500D01*
X47465715Y381500D01*
X47397594Y401502D01*
X47351101Y455158D01*
X47340997Y525432D01*
X47370491Y590012D01*
X47376620Y596595D01*
X47447622Y667598D01*
X47447624Y667600D01*
X47538082Y811563D01*
X47594237Y972046D01*
X47613274Y1141000D01*
X47594237Y1309954D01*
X47538082Y1470437D01*
X47447624Y1614400D01*
X47447622Y1614403D01*
X47327402Y1734623D01*
X47327399Y1734625D01*
X47183439Y1825081D01*
X47183437Y1825082D01*
X47176347Y1827563D01*
X47022954Y1881237D01*
X46854000Y1900274D01*
X46685046Y1881237D01*
X46685043Y1881237D01*
X46685043Y1881236D01*
X46524562Y1825082D01*
X46524560Y1825081D01*
X46380600Y1734625D01*
X46380597Y1734623D01*
X46260377Y1614403D01*
X46260375Y1614400D01*
X46169919Y1470440D01*
X46169918Y1470438D01*
X46125480Y1343440D01*
X46113763Y1309954D01*
X46094726Y1141000D01*
X46113763Y972046D01*
X46113764Y972044D01*
X46169918Y811563D01*
X46169919Y811561D01*
X46260375Y667601D01*
X46260377Y667598D01*
X46331380Y596595D01*
X46365406Y534283D01*
X46360341Y463468D01*
X46317794Y406632D01*
X46251274Y381821D01*
X46242285Y381500D01*
X23699635Y381500D01*
X23631514Y401502D01*
X23585021Y455158D01*
X23574917Y525432D01*
X23592948Y574536D01*
X23623415Y623026D01*
X23662082Y684563D01*
X23718237Y845046D01*
X23737274Y1014000D01*
X23718237Y1182954D01*
X23662082Y1343437D01*
X23571624Y1487400D01*
X23571622Y1487403D01*
X23451402Y1607623D01*
X23451399Y1607625D01*
X23307439Y1698081D01*
X23307437Y1698082D01*
X23243069Y1720605D01*
X23146954Y1754237D01*
X22978000Y1773274D01*
X22809046Y1754237D01*
X22809043Y1754237D01*
X22809043Y1754236D01*
X22648562Y1698082D01*
X22648560Y1698081D01*
X22504600Y1607625D01*
X22504597Y1607623D01*
X22384377Y1487403D01*
X22384375Y1487400D01*
X22293919Y1343440D01*
X22293918Y1343438D01*
X22237764Y1182957D01*
X22237763Y1182954D01*
X22218726Y1014000D01*
X22237763Y845046D01*
X22237764Y845044D01*
X22293918Y684563D01*
X22293919Y684561D01*
X22363052Y574536D01*
X22382358Y506215D01*
X22361663Y438302D01*
X22307536Y392358D01*
X22256365Y381500D01*
X20016635Y381500D01*
X19948514Y401502D01*
X19902021Y455158D01*
X19891917Y525432D01*
X19909948Y574536D01*
X19940415Y623026D01*
X19979082Y684563D01*
X20035237Y845046D01*
X20054274Y1014000D01*
X20035237Y1182954D01*
X19979082Y1343437D01*
X19888624Y1487400D01*
X19888622Y1487403D01*
X19768402Y1607623D01*
X19768399Y1607625D01*
X19624439Y1698081D01*
X19624437Y1698082D01*
X19560069Y1720605D01*
X19463954Y1754237D01*
X19295000Y1773274D01*
X19126046Y1754237D01*
X19126043Y1754237D01*
X19126043Y1754236D01*
X18965562Y1698082D01*
X18965560Y1698081D01*
X18821600Y1607625D01*
X18821597Y1607623D01*
X18701377Y1487403D01*
X18701375Y1487400D01*
X18610919Y1343440D01*
X18610918Y1343438D01*
X18554764Y1182957D01*
X18554763Y1182954D01*
X18535726Y1014000D01*
X18554763Y845046D01*
X18554764Y845044D01*
X18610918Y684563D01*
X18610919Y684561D01*
X18680052Y574536D01*
X18699358Y506215D01*
X18678663Y438302D01*
X18624536Y392358D01*
X18573365Y381500D01*
X13960000Y381500D01*
X13891879Y401502D01*
X13845386Y455158D01*
X13834000Y507500D01*
X13834000Y1396000D01*
X13854002Y1464121D01*
X13907658Y1510614D01*
X13960000Y1522000D01*
X16755000Y1522000D01*
X16755000Y2157000D01*
X20440726Y2157000D01*
X20459763Y1988046D01*
X20478492Y1934522D01*
X20515918Y1827563D01*
X20515919Y1827561D01*
X20606375Y1683601D01*
X20606377Y1683598D01*
X20726597Y1563378D01*
X20726600Y1563376D01*
X20870563Y1472918D01*
X21031046Y1416763D01*
X21200000Y1397726D01*
X21368954Y1416763D01*
X21529437Y1472918D01*
X21673400Y1563376D01*
X21793624Y1683600D01*
X21884082Y1827563D01*
X21940237Y1988046D01*
X21959274Y2157000D01*
X21940237Y2325954D01*
X21884082Y2486437D01*
X21793624Y2630400D01*
X21793622Y2630403D01*
X21673402Y2750623D01*
X21673399Y2750625D01*
X21529439Y2841081D01*
X21529437Y2841082D01*
X21480816Y2858095D01*
X21368954Y2897237D01*
X21200000Y2916274D01*
X21031046Y2897237D01*
X21031043Y2897237D01*
X21031043Y2897236D01*
X20870562Y2841082D01*
X20870560Y2841081D01*
X20726600Y2750625D01*
X20726597Y2750623D01*
X20606377Y2630403D01*
X20606375Y2630400D01*
X20515919Y2486440D01*
X20515918Y2486438D01*
X20477755Y2377374D01*
X20459763Y2325954D01*
X20440726Y2157000D01*
X16755000Y2157000D01*
X16755000Y12443998D01*
X17238693Y12443998D01*
X17257040Y12292899D01*
X17257500Y12285298D01*
X17257500Y11981236D01*
X17258244Y11967360D01*
X17258314Y11966713D01*
X17261865Y11933673D01*
X17261866Y11933665D01*
X17261866Y11933663D01*
X17291842Y11837936D01*
X17292123Y11837040D01*
X17315662Y11793932D01*
X17326152Y11774723D01*
X17353565Y11738105D01*
X17370411Y11715602D01*
X17855595Y11230418D01*
X17889619Y11168107D01*
X17892499Y11141324D01*
X17892499Y10694501D01*
X17892500Y9141999D01*
X17892500Y6887704D01*
X17892040Y6880103D01*
X17873693Y6729002D01*
X17873693Y6728997D01*
X17892849Y6571222D01*
X17894673Y6563826D01*
X17894011Y6563663D01*
X17897494Y6549104D01*
X17897891Y6549168D01*
X17898429Y6545843D01*
X17909813Y6493510D01*
X17909814Y6493510D01*
X17909816Y6493499D01*
X17917166Y6466709D01*
X17967269Y6378722D01*
X18013762Y6325066D01*
X18013761Y6325067D01*
X18013021Y6325781D01*
X18029225Y6306687D01*
X18038965Y6292576D01*
X18061201Y6225151D01*
X18043453Y6156408D01*
X18038965Y6149424D01*
X17949215Y6019399D01*
X17949212Y6019393D01*
X17892849Y5870780D01*
X17873693Y5713004D01*
X17873693Y5712997D01*
X17892849Y5555221D01*
X17926185Y5467323D01*
X17949213Y5406605D01*
X18039502Y5275799D01*
X18158471Y5170401D01*
X18158472Y5170401D01*
X18158474Y5170399D01*
X18199626Y5148801D01*
X18299207Y5096537D01*
X18453529Y5058500D01*
X18453530Y5058500D01*
X18612470Y5058500D01*
X18612471Y5058500D01*
X18766793Y5096537D01*
X18907529Y5170401D01*
X19026498Y5275799D01*
X19116787Y5406605D01*
X19116790Y5406615D01*
X19120329Y5413355D01*
X19122767Y5412076D01*
X19157797Y5458343D01*
X19224451Y5482792D01*
X19293742Y5467323D01*
X19321851Y5446161D01*
X20730520Y4037492D01*
X20740848Y4028214D01*
X20767235Y4006949D01*
X20767242Y4006943D01*
X20839802Y3968988D01*
X20856960Y3960013D01*
X20925081Y3940011D01*
X20998190Y3929500D01*
X22818322Y3929500D01*
X22886443Y3909498D01*
X22907412Y3892600D01*
X23351218Y3448794D01*
X23778519Y3021493D01*
X23778520Y3021492D01*
X23788848Y3012214D01*
X23815235Y2990949D01*
X23815242Y2990943D01*
X23904952Y2944017D01*
X23904960Y2944013D01*
X23973081Y2924011D01*
X24046190Y2913500D01*
X24046193Y2913500D01*
X24152094Y2913500D01*
X24154126Y2913612D01*
X24166330Y2914283D01*
X24190764Y2916978D01*
X24200869Y2918092D01*
X24201206Y2918130D01*
X24201581Y2918172D01*
X24298039Y2948958D01*
X24360161Y2983324D01*
X24360159Y2983322D01*
X24363801Y2985785D01*
X24385936Y3000752D01*
X24453566Y3022339D01*
X24515064Y3007941D01*
X24649207Y2937537D01*
X24803529Y2899500D01*
X24803530Y2899500D01*
X24962470Y2899500D01*
X24962471Y2899500D01*
X25116793Y2937537D01*
X25249089Y3006972D01*
X25318699Y3020918D01*
X25382550Y2995898D01*
X25382779Y2996214D01*
X25384012Y2995325D01*
X25384802Y2995015D01*
X25386602Y2993457D01*
X25390085Y2990946D01*
X25390087Y2990944D01*
X25479806Y2944013D01*
X25547927Y2924011D01*
X25621036Y2913500D01*
X25621039Y2913500D01*
X28901765Y2913500D01*
X28915641Y2914244D01*
X28930541Y2915847D01*
X28949328Y2917865D01*
X28949336Y2917866D01*
X29045961Y2948123D01*
X29108273Y2982149D01*
X29167399Y3026411D01*
X29606502Y3465514D01*
X29606508Y3465520D01*
X29615786Y3475848D01*
X29637051Y3502235D01*
X29637052Y3502237D01*
X29637056Y3502241D01*
X29683987Y3591960D01*
X29703989Y3660081D01*
X29714500Y3733190D01*
X29714500Y4919298D01*
X29714960Y4926899D01*
X29733307Y5077997D01*
X30954693Y5077997D01*
X30973849Y4920221D01*
X30999384Y4852893D01*
X31030213Y4771605D01*
X31120502Y4640799D01*
X31239471Y4535401D01*
X31239472Y4535401D01*
X31239474Y4535399D01*
X31314200Y4496180D01*
X31380207Y4461537D01*
X31534529Y4423500D01*
X31534530Y4423500D01*
X31693470Y4423500D01*
X31693471Y4423500D01*
X31847793Y4461537D01*
X31988529Y4535401D01*
X32107498Y4640799D01*
X32197787Y4771605D01*
X32254149Y4920218D01*
X32254149Y4920219D01*
X32254150Y4920221D01*
X32273307Y5077997D01*
X32273307Y5078004D01*
X32254150Y5235780D01*
X32217658Y5332000D01*
X41141726Y5332000D01*
X41160763Y5163046D01*
X41190520Y5078004D01*
X41216918Y5002563D01*
X41216919Y5002561D01*
X41307375Y4858601D01*
X41307377Y4858598D01*
X41427597Y4738378D01*
X41427600Y4738376D01*
X41571563Y4647918D01*
X41732046Y4591763D01*
X41901000Y4572726D01*
X42069954Y4591763D01*
X42230437Y4647918D01*
X42374400Y4738376D01*
X42494624Y4858600D01*
X42585082Y5002563D01*
X42641237Y5163046D01*
X42660274Y5332000D01*
X42641237Y5500954D01*
X42622306Y5555054D01*
X42618688Y5625957D01*
X42653977Y5687563D01*
X42674196Y5703353D01*
X42755400Y5754376D01*
X42875624Y5874600D01*
X42966082Y6018563D01*
X43022237Y6179046D01*
X43041274Y6348000D01*
X43022237Y6516954D01*
X42966082Y6677437D01*
X42875624Y6821400D01*
X42875622Y6821403D01*
X42755402Y6941623D01*
X42755399Y6941625D01*
X42611439Y7032081D01*
X42611437Y7032082D01*
X42607988Y7033289D01*
X42450954Y7088237D01*
X42282000Y7107274D01*
X42113046Y7088237D01*
X42113043Y7088237D01*
X42113043Y7088236D01*
X41952562Y7032082D01*
X41952560Y7032081D01*
X41808600Y6941625D01*
X41808597Y6941623D01*
X41688377Y6821403D01*
X41688375Y6821400D01*
X41597919Y6677440D01*
X41597918Y6677438D01*
X41558164Y6563826D01*
X41541763Y6516954D01*
X41522726Y6348000D01*
X41541763Y6179046D01*
X41545417Y6168602D01*
X41560693Y6124947D01*
X41564311Y6054042D01*
X41529021Y5992438D01*
X41508800Y5976646D01*
X41427596Y5925622D01*
X41307377Y5805403D01*
X41307375Y5805400D01*
X41216919Y5661440D01*
X41216918Y5661438D01*
X41179693Y5555053D01*
X41160763Y5500954D01*
X41141726Y5332000D01*
X32217658Y5332000D01*
X32197787Y5384395D01*
X32107498Y5515201D01*
X31988529Y5620599D01*
X31988528Y5620600D01*
X31988525Y5620602D01*
X31847797Y5694461D01*
X31847795Y5694462D01*
X31847793Y5694463D01*
X31847791Y5694464D01*
X31847790Y5694464D01*
X31693472Y5732500D01*
X31693471Y5732500D01*
X31534529Y5732500D01*
X31534527Y5732500D01*
X31380209Y5694464D01*
X31380202Y5694461D01*
X31239474Y5620602D01*
X31239469Y5620598D01*
X31120501Y5515200D01*
X31030215Y5384399D01*
X31030212Y5384393D01*
X30973849Y5235780D01*
X30954693Y5078004D01*
X30954693Y5077997D01*
X29733307Y5077997D01*
X29733307Y5077998D01*
X29733307Y5078002D01*
X29714960Y5229103D01*
X29714500Y5236704D01*
X29714500Y5257707D01*
X29713879Y5270384D01*
X29713879Y5270385D01*
X29710854Y5301200D01*
X29710854Y5301204D01*
X29682616Y5395980D01*
X29649750Y5458912D01*
X29624763Y5497847D01*
X29548285Y5564203D01*
X29486614Y5599374D01*
X29486613Y5599375D01*
X29486612Y5599375D01*
X29481846Y5601254D01*
X29455565Y5617374D01*
X29454803Y5616268D01*
X29448525Y5620602D01*
X29307797Y5694461D01*
X29307795Y5694462D01*
X29307793Y5694463D01*
X29307791Y5694464D01*
X29307790Y5694464D01*
X29175346Y5727109D01*
X29113991Y5762833D01*
X29081690Y5826056D01*
X29079500Y5849448D01*
X29079500Y6029596D01*
X29079006Y6040908D01*
X29077857Y6054042D01*
X29077065Y6063088D01*
X29076800Y6081374D01*
X29078965Y6118555D01*
X29102895Y6185395D01*
X29115651Y6200315D01*
X29390333Y6474997D01*
X32605693Y6474997D01*
X32624849Y6317221D01*
X32661342Y6221000D01*
X32681213Y6168605D01*
X32771502Y6037799D01*
X32890471Y5932401D01*
X32890472Y5932401D01*
X32890474Y5932399D01*
X32903383Y5925624D01*
X33031207Y5858537D01*
X33185529Y5820500D01*
X33185530Y5820500D01*
X33344470Y5820500D01*
X33344471Y5820500D01*
X33498793Y5858537D01*
X33639529Y5932401D01*
X33758498Y6037799D01*
X33848787Y6168605D01*
X33905149Y6317218D01*
X33905149Y6317219D01*
X33905150Y6317221D01*
X33924307Y6474997D01*
X33924307Y6475004D01*
X33905150Y6632780D01*
X33867720Y6731473D01*
X33848787Y6781395D01*
X33758498Y6912201D01*
X33639529Y7017599D01*
X33639528Y7017600D01*
X33639525Y7017602D01*
X33498797Y7091461D01*
X33498795Y7091462D01*
X33498793Y7091463D01*
X33498791Y7091464D01*
X33498790Y7091464D01*
X33344472Y7129500D01*
X33344471Y7129500D01*
X33185529Y7129500D01*
X33185527Y7129500D01*
X33031209Y7091464D01*
X33031202Y7091461D01*
X32890474Y7017602D01*
X32890469Y7017598D01*
X32771501Y6912200D01*
X32681215Y6781399D01*
X32681212Y6781393D01*
X32624849Y6632780D01*
X32605693Y6475004D01*
X32605693Y6474997D01*
X29390333Y6474997D01*
X30533333Y7617997D01*
X47400801Y7617997D01*
X47419957Y7460221D01*
X47468555Y7332081D01*
X47476321Y7311605D01*
X47566610Y7180799D01*
X47685579Y7075401D01*
X47685580Y7075401D01*
X47685582Y7075399D01*
X47760308Y7036180D01*
X47826315Y7001537D01*
X47980637Y6963500D01*
X47980638Y6963500D01*
X48139578Y6963500D01*
X48139579Y6963500D01*
X48293901Y7001537D01*
X48333266Y7022198D01*
X48402877Y7036145D01*
X48468980Y7010243D01*
X48507516Y6960537D01*
X48545623Y6872195D01*
X48545623Y6872194D01*
X48650387Y6731473D01*
X48650389Y6731472D01*
X48650390Y6731470D01*
X48706268Y6684583D01*
X48784784Y6618699D01*
X48784786Y6618698D01*
X48941567Y6539960D01*
X49112279Y6499500D01*
X49112281Y6499500D01*
X49243712Y6499500D01*
X49341618Y6510945D01*
X49374255Y6514759D01*
X49539117Y6574763D01*
X49685696Y6671170D01*
X49806092Y6798782D01*
X49893812Y6950719D01*
X49944130Y7118790D01*
X49954331Y7293935D01*
X49923865Y7466711D01*
X49854377Y7627804D01*
X49854376Y7627805D01*
X49854375Y7627808D01*
X49749612Y7768528D01*
X49615215Y7881302D01*
X49458434Y7960040D01*
X49419885Y7969177D01*
X49327766Y7991009D01*
X49266096Y8026181D01*
X49233231Y8089113D01*
X49239606Y8159822D01*
X49267729Y8202706D01*
X49352624Y8287600D01*
X49443082Y8431563D01*
X49499237Y8592046D01*
X49518274Y8761000D01*
X49499237Y8929954D01*
X49443082Y9090437D01*
X49352624Y9234400D01*
X49352622Y9234403D01*
X49280120Y9306905D01*
X49246094Y9369217D01*
X49251159Y9440032D01*
X49280120Y9485095D01*
X49352622Y9557598D01*
X49352624Y9557600D01*
X49443082Y9701563D01*
X49499237Y9862046D01*
X49518274Y10031000D01*
X49499237Y10199954D01*
X49443082Y10360437D01*
X49352624Y10504400D01*
X49352622Y10504403D01*
X49232402Y10624623D01*
X49232399Y10624625D01*
X49088439Y10715081D01*
X49088437Y10715082D01*
X49078957Y10718399D01*
X48927954Y10771237D01*
X48759000Y10790274D01*
X48590046Y10771237D01*
X48590043Y10771237D01*
X48590043Y10771236D01*
X48429562Y10715082D01*
X48429560Y10715081D01*
X48285600Y10624625D01*
X48285597Y10624623D01*
X48165377Y10504403D01*
X48165375Y10504400D01*
X48074919Y10360440D01*
X48074918Y10360438D01*
X48022125Y10209563D01*
X48018763Y10199954D01*
X47999726Y10031000D01*
X48018763Y9862046D01*
X48047568Y9779726D01*
X48074918Y9701563D01*
X48074919Y9701561D01*
X48165375Y9557601D01*
X48165377Y9557598D01*
X48237880Y9485095D01*
X48271906Y9422783D01*
X48266841Y9351968D01*
X48237880Y9306905D01*
X48165377Y9234403D01*
X48165375Y9234400D01*
X48074919Y9090440D01*
X48074918Y9090438D01*
X48036416Y8980403D01*
X48018763Y8929954D01*
X47999726Y8761000D01*
X48018763Y8592046D01*
X48047697Y8509358D01*
X48072905Y8437316D01*
X48076524Y8366412D01*
X48041235Y8304806D01*
X47984131Y8273363D01*
X47826323Y8234466D01*
X47826310Y8234461D01*
X47685582Y8160602D01*
X47685577Y8160598D01*
X47566609Y8055200D01*
X47476323Y7924399D01*
X47476320Y7924393D01*
X47419957Y7775780D01*
X47400801Y7618004D01*
X47400801Y7617997D01*
X30533333Y7617997D01*
X31091401Y8176065D01*
X31105240Y8188025D01*
X31124822Y8202602D01*
X31158952Y8243279D01*
X31162651Y8247315D01*
X31168573Y8253235D01*
X31189245Y8279380D01*
X31239396Y8339147D01*
X31239398Y8339152D01*
X31243430Y8345280D01*
X31243483Y8345245D01*
X31247595Y8351700D01*
X31247541Y8351733D01*
X31251389Y8357973D01*
X31251395Y8357980D01*
X31284374Y8428706D01*
X31319394Y8498434D01*
X31319394Y8498438D01*
X31319396Y8498440D01*
X31321907Y8505337D01*
X31321965Y8505316D01*
X31322550Y8507000D01*
X41395726Y8507000D01*
X41414763Y8338046D01*
X41447927Y8243267D01*
X41470918Y8177563D01*
X41470919Y8177561D01*
X41561375Y8033601D01*
X41561377Y8033598D01*
X41681597Y7913378D01*
X41681600Y7913376D01*
X41825563Y7822918D01*
X41986046Y7766763D01*
X42155000Y7747726D01*
X42323954Y7766763D01*
X42484437Y7822918D01*
X42628400Y7913376D01*
X42748624Y8033600D01*
X42839082Y8177563D01*
X42895237Y8338046D01*
X42914274Y8507000D01*
X42895237Y8675954D01*
X42839082Y8836437D01*
X42748624Y8980400D01*
X42748622Y8980403D01*
X42628402Y9100623D01*
X42628399Y9100625D01*
X42484439Y9191081D01*
X42484437Y9191082D01*
X42360640Y9234400D01*
X42323954Y9247237D01*
X42279082Y9252293D01*
X42213632Y9279796D01*
X42207371Y9288912D01*
X42206472Y9287776D01*
X42147870Y9265471D01*
X42081974Y9258046D01*
X41986046Y9247237D01*
X41986043Y9247237D01*
X41986042Y9247236D01*
X41825562Y9191082D01*
X41825560Y9191081D01*
X41681600Y9100625D01*
X41681597Y9100623D01*
X41561377Y8980403D01*
X41561375Y8980400D01*
X41470919Y8836440D01*
X41470918Y8836438D01*
X41415887Y8679165D01*
X41414763Y8675954D01*
X41395726Y8507000D01*
X31322550Y8507000D01*
X31324477Y8512545D01*
X31324417Y8512565D01*
X31326722Y8519523D01*
X31326725Y8519527D01*
X31342500Y8595932D01*
X31360500Y8671877D01*
X31360500Y8671884D01*
X31361352Y8679165D01*
X31361411Y8679158D01*
X31362190Y8686775D01*
X31362129Y8686780D01*
X31362767Y8694084D01*
X31362769Y8694092D01*
X31360662Y8766507D01*
X31361892Y8788094D01*
X31365499Y8813186D01*
X31365500Y8813191D01*
X31365500Y10030997D01*
X31716693Y10030997D01*
X31735849Y9873221D01*
X31764088Y9798763D01*
X31792213Y9724605D01*
X31882502Y9593799D01*
X32001471Y9488401D01*
X32001472Y9488401D01*
X32001474Y9488399D01*
X32076200Y9449180D01*
X32142207Y9414537D01*
X32296529Y9376500D01*
X32296530Y9376500D01*
X32455470Y9376500D01*
X32455471Y9376500D01*
X32534573Y9395997D01*
X33621693Y9395997D01*
X33640849Y9238221D01*
X33677342Y9141999D01*
X33697213Y9089605D01*
X33787502Y8958799D01*
X33906471Y8853401D01*
X33906472Y8853401D01*
X33906474Y8853399D01*
X33938787Y8836440D01*
X34047207Y8779537D01*
X34201529Y8741500D01*
X34201530Y8741500D01*
X34360470Y8741500D01*
X34360471Y8741500D01*
X34514793Y8779537D01*
X34655529Y8853401D01*
X34774498Y8958799D01*
X34864787Y9089605D01*
X34921149Y9238218D01*
X34921149Y9238219D01*
X34921150Y9238221D01*
X34940307Y9395997D01*
X44162693Y9395997D01*
X44181849Y9238221D01*
X44218342Y9141999D01*
X44238213Y9089605D01*
X44328502Y8958799D01*
X44447471Y8853401D01*
X44447472Y8853401D01*
X44447474Y8853399D01*
X44479787Y8836440D01*
X44588207Y8779537D01*
X44742529Y8741500D01*
X44742530Y8741500D01*
X44901470Y8741500D01*
X44901471Y8741500D01*
X45055793Y8779537D01*
X45196529Y8853401D01*
X45315498Y8958799D01*
X45405787Y9089605D01*
X45462149Y9238218D01*
X45462149Y9238219D01*
X45462150Y9238221D01*
X45481307Y9395997D01*
X45481307Y9396004D01*
X45462150Y9553780D01*
X45446972Y9593801D01*
X45405787Y9702395D01*
X45316033Y9832425D01*
X45293798Y9899848D01*
X45311545Y9968591D01*
X45316034Y9975576D01*
X45333043Y10000218D01*
X45405787Y10105605D01*
X45462149Y10254218D01*
X45462149Y10254219D01*
X45462150Y10254221D01*
X45481307Y10411997D01*
X45481307Y10412004D01*
X45462150Y10569780D01*
X45441350Y10624624D01*
X45405787Y10718395D01*
X45315498Y10849201D01*
X45196529Y10954599D01*
X45196528Y10954600D01*
X45196525Y10954602D01*
X45055797Y11028461D01*
X45055795Y11028462D01*
X45055793Y11028463D01*
X45055791Y11028464D01*
X45055790Y11028464D01*
X44901472Y11066500D01*
X44901471Y11066500D01*
X44742529Y11066500D01*
X44742527Y11066500D01*
X44588209Y11028464D01*
X44588202Y11028461D01*
X44447474Y10954602D01*
X44447469Y10954598D01*
X44328501Y10849200D01*
X44238215Y10718399D01*
X44238212Y10718393D01*
X44181849Y10569780D01*
X44162693Y10412004D01*
X44162693Y10411997D01*
X44181849Y10254221D01*
X44238212Y10105608D01*
X44238215Y10105602D01*
X44327965Y9975576D01*
X44350201Y9908151D01*
X44332454Y9839408D01*
X44327965Y9832424D01*
X44238215Y9702399D01*
X44238212Y9702393D01*
X44181849Y9553780D01*
X44162693Y9396004D01*
X44162693Y9395997D01*
X34940307Y9395997D01*
X34940307Y9396004D01*
X34921150Y9553780D01*
X34905972Y9593801D01*
X34864787Y9702395D01*
X34774498Y9833201D01*
X34655529Y9938599D01*
X34655528Y9938600D01*
X34655525Y9938602D01*
X34514797Y10012461D01*
X34514795Y10012462D01*
X34514793Y10012463D01*
X34514791Y10012464D01*
X34514790Y10012464D01*
X34360472Y10050500D01*
X34360471Y10050500D01*
X34201529Y10050500D01*
X34201527Y10050500D01*
X34047209Y10012464D01*
X34047202Y10012461D01*
X33906474Y9938602D01*
X33906469Y9938598D01*
X33787501Y9833200D01*
X33697215Y9702399D01*
X33697212Y9702393D01*
X33640849Y9553780D01*
X33621693Y9396004D01*
X33621693Y9395997D01*
X32534573Y9395997D01*
X32609793Y9414537D01*
X32750529Y9488401D01*
X32869498Y9593799D01*
X32959787Y9724605D01*
X33016149Y9873218D01*
X33016149Y9873219D01*
X33016150Y9873221D01*
X33035307Y10030997D01*
X33035307Y10031004D01*
X33016150Y10188780D01*
X32991331Y10254221D01*
X32959787Y10337395D01*
X32869498Y10468201D01*
X32750529Y10573599D01*
X32750528Y10573600D01*
X32750525Y10573602D01*
X32609797Y10647461D01*
X32609795Y10647462D01*
X32609793Y10647463D01*
X32609791Y10647464D01*
X32609790Y10647464D01*
X32455472Y10685500D01*
X32455471Y10685500D01*
X32296529Y10685500D01*
X32296527Y10685500D01*
X32142209Y10647464D01*
X32142202Y10647461D01*
X32001474Y10573602D01*
X32001469Y10573598D01*
X31882501Y10468200D01*
X31792215Y10337399D01*
X31792212Y10337393D01*
X31735849Y10188780D01*
X31716693Y10031004D01*
X31716693Y10030997D01*
X31365500Y10030997D01*
X31365500Y11649324D01*
X31385502Y11717445D01*
X31402405Y11738419D01*
X31910187Y12246201D01*
X32428614Y12764629D01*
X32490924Y12798652D01*
X32561739Y12793588D01*
X32618575Y12751041D01*
X32643386Y12684521D01*
X32642915Y12661429D01*
X32632726Y12571000D01*
X32651763Y12402046D01*
X32669662Y12350893D01*
X32707918Y12241563D01*
X32707919Y12241561D01*
X32798375Y12097601D01*
X32798377Y12097598D01*
X32918597Y11977378D01*
X32918600Y11977376D01*
X33062563Y11886918D01*
X33223046Y11830763D01*
X33392000Y11811726D01*
X33560954Y11830763D01*
X33581453Y11837937D01*
X33652355Y11841557D01*
X33713961Y11806269D01*
X33746710Y11743277D01*
X33749052Y11716915D01*
X33741298Y11250243D01*
X33741298Y11250236D01*
X33741914Y11235271D01*
X33745514Y11198942D01*
X33745736Y11196794D01*
X33754719Y11168107D01*
X33775991Y11100174D01*
X33775992Y11100171D01*
X33810022Y11037852D01*
X33854277Y10978736D01*
X33854287Y10978724D01*
X34184621Y10648391D01*
X34184620Y10648392D01*
X34194773Y10639254D01*
X34220670Y10618306D01*
X34309852Y10571343D01*
X34377899Y10551092D01*
X34450969Y10540313D01*
X34584401Y10539825D01*
X36185577Y10533965D01*
X36185581Y10533965D01*
X36185581Y10533966D01*
X36185589Y10533965D01*
X36233671Y10539000D01*
X39998726Y10539000D01*
X40017763Y10370046D01*
X40058292Y10254221D01*
X40073918Y10209563D01*
X40073919Y10209561D01*
X40164375Y10065601D01*
X40164377Y10065598D01*
X40284597Y9945378D01*
X40284600Y9945376D01*
X40428563Y9854918D01*
X40589046Y9798763D01*
X40758000Y9779726D01*
X40926954Y9798763D01*
X41087437Y9854918D01*
X41231400Y9945376D01*
X41351624Y10065600D01*
X41399238Y10141377D01*
X41452416Y10188415D01*
X41522583Y10199235D01*
X41587462Y10170402D01*
X41626453Y10111071D01*
X41631006Y10089529D01*
X41641850Y10000221D01*
X41641850Y10000219D01*
X41641851Y10000218D01*
X41698213Y9851605D01*
X41788502Y9720799D01*
X41907471Y9615401D01*
X41907472Y9615401D01*
X41907474Y9615399D01*
X41948626Y9593801D01*
X42048207Y9541537D01*
X42048208Y9541537D01*
X42048210Y9541536D01*
X42107666Y9526882D01*
X42163914Y9513018D01*
X42223883Y9478102D01*
X42271455Y9501611D01*
X42293193Y9503500D01*
X42361470Y9503500D01*
X42361471Y9503500D01*
X42515793Y9541537D01*
X42656529Y9615401D01*
X42775498Y9720799D01*
X42865787Y9851605D01*
X42922149Y10000218D01*
X42922149Y10000219D01*
X42922150Y10000221D01*
X42941307Y10157997D01*
X42941307Y10158004D01*
X42922150Y10315780D01*
X42885656Y10412004D01*
X42865787Y10464395D01*
X42775498Y10595201D01*
X42656529Y10700599D01*
X42656528Y10700600D01*
X42656525Y10700602D01*
X42515797Y10774461D01*
X42515795Y10774462D01*
X42515793Y10774463D01*
X42515791Y10774464D01*
X42515790Y10774464D01*
X42361472Y10812500D01*
X42361471Y10812500D01*
X42202529Y10812500D01*
X42202527Y10812500D01*
X42048209Y10774464D01*
X42048202Y10774461D01*
X41907474Y10700602D01*
X41907469Y10700598D01*
X41788500Y10595199D01*
X41788499Y10595199D01*
X41741105Y10526536D01*
X41685947Y10481837D01*
X41615378Y10474054D01*
X41551804Y10505659D01*
X41515410Y10566618D01*
X41512204Y10583991D01*
X41498237Y10707954D01*
X41442082Y10868437D01*
X41351624Y11012400D01*
X41351622Y11012403D01*
X41231402Y11132623D01*
X41231399Y11132625D01*
X41087439Y11223081D01*
X41087437Y11223082D01*
X41063465Y11231470D01*
X40926954Y11279237D01*
X40758000Y11298274D01*
X40589046Y11279237D01*
X40589043Y11279237D01*
X40589043Y11279236D01*
X40428562Y11223082D01*
X40428560Y11223081D01*
X40284600Y11132625D01*
X40284597Y11132623D01*
X40164377Y11012403D01*
X40164375Y11012400D01*
X40073919Y10868440D01*
X40073918Y10868438D01*
X40039906Y10771236D01*
X40017763Y10707954D01*
X39998726Y10539000D01*
X36233671Y10539000D01*
X36241234Y10539792D01*
X36294037Y10551177D01*
X36294041Y10551178D01*
X36321289Y10558627D01*
X36321289Y10558628D01*
X36321291Y10558628D01*
X36409278Y10608731D01*
X36462934Y10655224D01*
X36495056Y10688513D01*
X36541987Y10778232D01*
X36561989Y10846353D01*
X36572500Y10919462D01*
X36572500Y12044497D01*
X38955693Y12044497D01*
X38974849Y11886721D01*
X39017325Y11774723D01*
X39031213Y11738105D01*
X39121502Y11607299D01*
X39240471Y11501901D01*
X39240472Y11501901D01*
X39240474Y11501899D01*
X39315200Y11462680D01*
X39381207Y11428037D01*
X39535529Y11390000D01*
X39535530Y11390000D01*
X39694470Y11390000D01*
X39694471Y11390000D01*
X39848793Y11428037D01*
X39989529Y11501901D01*
X40108498Y11607299D01*
X40198787Y11738105D01*
X40225673Y11808997D01*
X47337693Y11808997D01*
X47356849Y11651221D01*
X47413212Y11502608D01*
X47413215Y11502602D01*
X47413699Y11501901D01*
X47503502Y11371799D01*
X47622471Y11266401D01*
X47622472Y11266401D01*
X47622474Y11266399D01*
X47681780Y11235273D01*
X47763207Y11192537D01*
X47917529Y11154500D01*
X47917530Y11154500D01*
X48076470Y11154500D01*
X48076471Y11154500D01*
X48230793Y11192537D01*
X48371529Y11266401D01*
X48421199Y11310405D01*
X48485451Y11340607D01*
X48555832Y11331276D01*
X48605820Y11291337D01*
X48614829Y11279236D01*
X48650390Y11231470D01*
X48722253Y11171170D01*
X48784784Y11118699D01*
X48784786Y11118698D01*
X48941567Y11039960D01*
X49112279Y10999500D01*
X49112281Y10999500D01*
X49243712Y10999500D01*
X49354073Y11012400D01*
X49374255Y11014759D01*
X49539117Y11074763D01*
X49685696Y11171170D01*
X49806092Y11298782D01*
X49893812Y11450719D01*
X49944130Y11618790D01*
X49954331Y11793935D01*
X49923865Y11966711D01*
X49854377Y12127804D01*
X49854376Y12127805D01*
X49854375Y12127808D01*
X49749612Y12268528D01*
X49615215Y12381302D01*
X49458434Y12460040D01*
X49367039Y12481701D01*
X49287721Y12500500D01*
X49156291Y12500500D01*
X49156288Y12500500D01*
X49025745Y12485242D01*
X49025743Y12485241D01*
X48860887Y12425239D01*
X48860874Y12425232D01*
X48714308Y12328834D01*
X48653742Y12264639D01*
X48592445Y12228817D01*
X48521512Y12231821D01*
X48478540Y12256795D01*
X48371530Y12351598D01*
X48371525Y12351602D01*
X48230797Y12425461D01*
X48230795Y12425462D01*
X48230793Y12425463D01*
X48230791Y12425464D01*
X48230790Y12425464D01*
X48076472Y12463500D01*
X48076471Y12463500D01*
X47917529Y12463500D01*
X47917527Y12463500D01*
X47763209Y12425464D01*
X47763202Y12425461D01*
X47622474Y12351602D01*
X47622469Y12351598D01*
X47503501Y12246200D01*
X47413215Y12115399D01*
X47413212Y12115393D01*
X47356849Y11966780D01*
X47337693Y11809004D01*
X47337693Y11808997D01*
X40225673Y11808997D01*
X40255149Y11886718D01*
X40255149Y11886719D01*
X40255150Y11886721D01*
X40272947Y12033299D01*
X40301013Y12098512D01*
X40359882Y12138199D01*
X40430861Y12139759D01*
X40439642Y12137042D01*
X40589046Y12084763D01*
X40758000Y12065726D01*
X40926954Y12084763D01*
X41087437Y12140918D01*
X41231400Y12231376D01*
X41351624Y12351600D01*
X41442082Y12495563D01*
X41498237Y12656046D01*
X41517274Y12825000D01*
X41498237Y12993954D01*
X41442082Y13154437D01*
X41409683Y13206000D01*
X44189726Y13206000D01*
X44208763Y13037046D01*
X44237069Y12956151D01*
X44264918Y12876563D01*
X44264919Y12876561D01*
X44355375Y12732601D01*
X44355377Y12732598D01*
X44475597Y12612378D01*
X44475600Y12612376D01*
X44619563Y12521918D01*
X44780046Y12465763D01*
X44949000Y12446726D01*
X45117954Y12465763D01*
X45278437Y12521918D01*
X45422400Y12612376D01*
X45542624Y12732600D01*
X45633082Y12876563D01*
X45689237Y13037046D01*
X45708274Y13206000D01*
X45689237Y13374954D01*
X45633082Y13535437D01*
X45542624Y13679400D01*
X45542622Y13679403D01*
X45422402Y13799623D01*
X45422399Y13799625D01*
X45278439Y13890081D01*
X45278437Y13890082D01*
X45154640Y13933400D01*
X45117954Y13946237D01*
X44949000Y13965274D01*
X44780046Y13946237D01*
X44780043Y13946237D01*
X44780043Y13946236D01*
X44619562Y13890082D01*
X44619560Y13890081D01*
X44475600Y13799625D01*
X44475597Y13799623D01*
X44355377Y13679403D01*
X44355375Y13679400D01*
X44264919Y13535440D01*
X44264918Y13535438D01*
X44238520Y13459996D01*
X44208763Y13374954D01*
X44189726Y13206000D01*
X41409683Y13206000D01*
X41351624Y13298400D01*
X41351622Y13298403D01*
X41231402Y13418623D01*
X41231399Y13418625D01*
X41087439Y13509081D01*
X41087437Y13509082D01*
X41012115Y13535438D01*
X40926954Y13565237D01*
X40758000Y13584274D01*
X40589046Y13565237D01*
X40589043Y13565237D01*
X40589043Y13565236D01*
X40428562Y13509082D01*
X40428560Y13509081D01*
X40284600Y13418625D01*
X40284597Y13418623D01*
X40164377Y13298403D01*
X40164375Y13298400D01*
X40073919Y13154440D01*
X40073918Y13154438D01*
X40065564Y13130563D01*
X40017763Y12993954D01*
X40004971Y12880424D01*
X39998726Y12825000D01*
X40001768Y12797996D01*
X39989518Y12728065D01*
X39941404Y12675857D01*
X39872703Y12657950D01*
X39846407Y12661552D01*
X39694474Y12699000D01*
X39694471Y12699000D01*
X39535529Y12699000D01*
X39535527Y12699000D01*
X39381209Y12660964D01*
X39381202Y12660961D01*
X39240474Y12587102D01*
X39240469Y12587098D01*
X39121501Y12481700D01*
X39031215Y12350899D01*
X39031212Y12350893D01*
X38974849Y12202280D01*
X38955693Y12044504D01*
X38955693Y12044497D01*
X36572500Y12044497D01*
X36572500Y13460000D01*
X37458726Y13460000D01*
X37477763Y13291046D01*
X37513844Y13187933D01*
X37533918Y13130563D01*
X37533919Y13130561D01*
X37624375Y12986601D01*
X37624377Y12986598D01*
X37744597Y12866378D01*
X37744600Y12866376D01*
X37888563Y12775918D01*
X38049046Y12719763D01*
X38218000Y12700726D01*
X38386954Y12719763D01*
X38547437Y12775918D01*
X38691400Y12866376D01*
X38811624Y12986600D01*
X38902082Y13130563D01*
X38958237Y13291046D01*
X38977274Y13460000D01*
X38958237Y13628954D01*
X38902082Y13789437D01*
X38811624Y13933400D01*
X38811622Y13933403D01*
X38691402Y14053623D01*
X38691399Y14053625D01*
X38547439Y14144081D01*
X38547437Y14144082D01*
X38455028Y14176417D01*
X38386954Y14200237D01*
X38218000Y14219274D01*
X38049046Y14200237D01*
X38049043Y14200237D01*
X38049043Y14200236D01*
X37888562Y14144082D01*
X37888560Y14144081D01*
X37744600Y14053625D01*
X37744597Y14053623D01*
X37624377Y13933403D01*
X37624375Y13933400D01*
X37533919Y13789440D01*
X37533918Y13789438D01*
X37477764Y13628957D01*
X37477763Y13628954D01*
X37458726Y13460000D01*
X36572500Y13460000D01*
X36572500Y13668759D01*
X36571929Y13679400D01*
X36571756Y13682641D01*
X36570153Y13697542D01*
X36568135Y13716328D01*
X36568134Y13716336D01*
X36537877Y13812961D01*
X36503851Y13875273D01*
X36493127Y13889598D01*
X36459592Y13934395D01*
X36459582Y13934407D01*
X35409988Y14984000D01*
X42284726Y14984000D01*
X42303763Y14815046D01*
X42322751Y14760782D01*
X42359918Y14654563D01*
X42359919Y14654561D01*
X42450375Y14510601D01*
X42450377Y14510598D01*
X42570597Y14390378D01*
X42570600Y14390376D01*
X42714563Y14299918D01*
X42875046Y14243763D01*
X43044000Y14224726D01*
X43212954Y14243763D01*
X43373437Y14299918D01*
X43517400Y14390376D01*
X43637624Y14510600D01*
X43728082Y14654563D01*
X43784237Y14815046D01*
X43803274Y14984000D01*
X43784237Y15152954D01*
X43728082Y15313437D01*
X43650620Y15436717D01*
X43631314Y15505038D01*
X43652009Y15572951D01*
X43706136Y15618894D01*
X43743192Y15628959D01*
X43847954Y15640763D01*
X44008437Y15696918D01*
X44152400Y15787376D01*
X44272624Y15907600D01*
X44363082Y16051563D01*
X44419237Y16212046D01*
X44438274Y16381000D01*
X44419237Y16549954D01*
X44363082Y16710437D01*
X44272624Y16854400D01*
X44272622Y16854403D01*
X44152402Y16974623D01*
X44152399Y16974625D01*
X44008439Y17065081D01*
X44008437Y17065082D01*
X43937499Y17089904D01*
X43847954Y17121237D01*
X43679000Y17140274D01*
X43510046Y17121237D01*
X43510043Y17121237D01*
X43510043Y17121236D01*
X43349562Y17065082D01*
X43349560Y17065081D01*
X43205600Y16974625D01*
X43205597Y16974623D01*
X43085377Y16854403D01*
X43085375Y16854400D01*
X42994919Y16710440D01*
X42994918Y16710438D01*
X42951347Y16585918D01*
X42938763Y16549954D01*
X42919726Y16381000D01*
X42938763Y16212046D01*
X42969400Y16124490D01*
X42994918Y16051563D01*
X42994919Y16051561D01*
X43072379Y15928284D01*
X43091685Y15859963D01*
X43070990Y15792050D01*
X43016863Y15746107D01*
X42979801Y15736041D01*
X42875046Y15724237D01*
X42875043Y15724237D01*
X42875043Y15724236D01*
X42714562Y15668082D01*
X42714560Y15668081D01*
X42570600Y15577625D01*
X42570597Y15577623D01*
X42450377Y15457403D01*
X42450375Y15457400D01*
X42359919Y15313440D01*
X42359918Y15313438D01*
X42326699Y15218501D01*
X42303763Y15152954D01*
X42284726Y14984000D01*
X35409988Y14984000D01*
X35004481Y15389507D01*
X35004480Y15389508D01*
X34994152Y15398786D01*
X34967765Y15420051D01*
X34967757Y15420058D01*
X34878047Y15466984D01*
X34878042Y15466986D01*
X34878040Y15466987D01*
X34809919Y15486989D01*
X34736810Y15497500D01*
X33781934Y15497500D01*
X33781930Y15497500D01*
X33742188Y15494438D01*
X33742186Y15494438D01*
X33718281Y15490733D01*
X33647901Y15500065D01*
X33595287Y15543670D01*
X33586281Y15556718D01*
X33504498Y15675201D01*
X33394194Y15772923D01*
X33356470Y15833065D01*
X33357250Y15904058D01*
X33374053Y15938809D01*
X33377496Y15943798D01*
X33377498Y15943799D01*
X33467787Y16074605D01*
X33524149Y16223218D01*
X33524149Y16223219D01*
X33524150Y16223221D01*
X33543307Y16380997D01*
X33543307Y16381004D01*
X33524150Y16538780D01*
X33510538Y16574669D01*
X33467787Y16687395D01*
X33377498Y16818201D01*
X33258529Y16923599D01*
X33258528Y16923600D01*
X33258525Y16923602D01*
X33117797Y16997461D01*
X33117795Y16997462D01*
X33117793Y16997463D01*
X33117791Y16997464D01*
X33117790Y16997464D01*
X32963472Y17035500D01*
X32963471Y17035500D01*
X32804529Y17035500D01*
X32804527Y17035500D01*
X32650209Y16997464D01*
X32650202Y16997461D01*
X32509474Y16923602D01*
X32509469Y16923598D01*
X32390501Y16818200D01*
X32300215Y16687399D01*
X32300212Y16687393D01*
X32243849Y16538780D01*
X32224693Y16381004D01*
X32224693Y16380997D01*
X32243849Y16223221D01*
X32300212Y16074608D01*
X32300215Y16074602D01*
X32390500Y15943801D01*
X32390501Y15943800D01*
X32390502Y15943799D01*
X32500804Y15846079D01*
X32538529Y15785936D01*
X32537749Y15714943D01*
X32520946Y15680192D01*
X32427215Y15544399D01*
X32427212Y15544393D01*
X32370849Y15395780D01*
X32351693Y15238004D01*
X32351693Y15237997D01*
X32368757Y15097459D01*
X32357112Y15027424D01*
X32312222Y14977862D01*
X32312821Y14976952D01*
X32247364Y14933863D01*
X32232483Y14920679D01*
X32207486Y14903426D01*
X32149640Y14873066D01*
X32121250Y14862297D01*
X32116655Y14861164D01*
X32086490Y14857500D01*
X31903511Y14857500D01*
X31873352Y14861163D01*
X31868752Y14862297D01*
X31840356Y14873066D01*
X31782515Y14903423D01*
X31757516Y14920679D01*
X31708614Y14964003D01*
X31688477Y14986732D01*
X31646994Y15046830D01*
X31646993Y15046832D01*
X31639882Y15056197D01*
X31639883Y15056195D01*
X31639879Y15056200D01*
X31625112Y15073919D01*
X31617756Y15082746D01*
X31617757Y15082744D01*
X31617753Y15082749D01*
X31609823Y15091432D01*
X31115260Y15585997D01*
X31115258Y15585999D01*
X31110831Y15590222D01*
X31101921Y15598329D01*
X31097302Y15602336D01*
X31097301Y15602337D01*
X31091344Y15607265D01*
X31075860Y15622508D01*
X31068151Y15631533D01*
X31055502Y15649234D01*
X31051568Y15655886D01*
X31048328Y15661082D01*
X31041716Y15671145D01*
X31038245Y15676167D01*
X31035321Y15680192D01*
X31033703Y15682420D01*
X31022490Y15701043D01*
X31015545Y15715218D01*
X31013286Y15719830D01*
X31008447Y15728799D01*
X31006859Y15731483D01*
X31004888Y15735079D01*
X30985719Y15772921D01*
X30975904Y15792297D01*
X30934299Y15849826D01*
X30903958Y15884744D01*
X30903957Y15884745D01*
X30887872Y15895051D01*
X30841306Y15948643D01*
X30831106Y16018903D01*
X30838034Y16045817D01*
X30857149Y16096218D01*
X30857518Y16099252D01*
X30876307Y16253997D01*
X30876307Y16254004D01*
X30857150Y16411780D01*
X30835893Y16467829D01*
X30800787Y16560395D01*
X30710498Y16691201D01*
X30591529Y16796599D01*
X30591528Y16796600D01*
X30591525Y16796602D01*
X30450797Y16870461D01*
X30450796Y16870462D01*
X30450793Y16870463D01*
X30450789Y16870464D01*
X30450784Y16870466D01*
X30412080Y16880006D01*
X30350726Y16915729D01*
X30318425Y16978953D01*
X30324423Y17047024D01*
X30349149Y17112218D01*
X30349149Y17112219D01*
X30349150Y17112221D01*
X30368307Y17269997D01*
X30368307Y17270000D01*
X36950726Y17270000D01*
X36969763Y17101046D01*
X36994743Y17029658D01*
X37025918Y16940563D01*
X37025919Y16940561D01*
X37116375Y16796601D01*
X37116377Y16796598D01*
X37236597Y16676378D01*
X37236600Y16676376D01*
X37380563Y16585918D01*
X37541046Y16529763D01*
X37710000Y16510726D01*
X37878954Y16529763D01*
X38039437Y16585918D01*
X38183400Y16676376D01*
X38303624Y16796600D01*
X38394082Y16940563D01*
X38450237Y17101046D01*
X38469274Y17270000D01*
X38450237Y17438954D01*
X38394082Y17599437D01*
X38303624Y17743400D01*
X38303622Y17743403D01*
X38183402Y17863623D01*
X38183399Y17863625D01*
X38039439Y17954081D01*
X38039437Y17954082D01*
X37981574Y17974329D01*
X37878954Y18010237D01*
X37710000Y18029274D01*
X37541046Y18010237D01*
X37541043Y18010237D01*
X37541043Y18010236D01*
X37380562Y17954082D01*
X37380560Y17954081D01*
X37236600Y17863625D01*
X37236597Y17863623D01*
X37116377Y17743403D01*
X37116375Y17743400D01*
X37025919Y17599440D01*
X37025918Y17599438D01*
X36988105Y17491373D01*
X36969763Y17438954D01*
X36950726Y17270000D01*
X30368307Y17270000D01*
X30368307Y17270004D01*
X30349150Y17427780D01*
X30313037Y17523000D01*
X30292787Y17576395D01*
X30202498Y17707201D01*
X30083529Y17812599D01*
X30083528Y17812600D01*
X30083525Y17812602D01*
X29942797Y17886461D01*
X29942795Y17886462D01*
X29942793Y17886463D01*
X29942791Y17886464D01*
X29942790Y17886464D01*
X29788472Y17924500D01*
X29788471Y17924500D01*
X29629529Y17924500D01*
X29629527Y17924500D01*
X29475209Y17886464D01*
X29475202Y17886461D01*
X29334474Y17812602D01*
X29334469Y17812598D01*
X29215501Y17707200D01*
X29125215Y17576399D01*
X29125212Y17576393D01*
X29068849Y17427780D01*
X29049693Y17270004D01*
X29049693Y17269997D01*
X29068849Y17112221D01*
X29100162Y17029658D01*
X29125213Y16963605D01*
X29215502Y16832799D01*
X29334471Y16727401D01*
X29334472Y16727401D01*
X29334474Y16727399D01*
X29366787Y16710440D01*
X29475207Y16653537D01*
X29513917Y16643996D01*
X29575272Y16608273D01*
X29607573Y16545050D01*
X29601579Y16476986D01*
X29598107Y16467829D01*
X29555254Y16411224D01*
X29488600Y16386774D01*
X29480292Y16386500D01*
X21422906Y16386500D01*
X21420873Y16386389D01*
X21408670Y16385717D01*
X21384235Y16383023D01*
X21374131Y16381908D01*
X21373429Y16381830D01*
X21373422Y16381829D01*
X21373419Y16381828D01*
X21373414Y16381827D01*
X21373408Y16381825D01*
X21276962Y16351043D01*
X21237017Y16328945D01*
X21214837Y16316675D01*
X21189062Y16299248D01*
X21121428Y16277662D01*
X21059933Y16292061D01*
X20925797Y16362461D01*
X20925795Y16362462D01*
X20925793Y16362463D01*
X20925791Y16362464D01*
X20925790Y16362464D01*
X20771472Y16400500D01*
X20771471Y16400500D01*
X20612529Y16400500D01*
X20612527Y16400500D01*
X20458209Y16362464D01*
X20458202Y16362461D01*
X20317474Y16288602D01*
X20317469Y16288598D01*
X20231061Y16212046D01*
X20198502Y16183201D01*
X20123542Y16074602D01*
X20111302Y16056870D01*
X20056143Y16012171D01*
X19985574Y16004388D01*
X19930365Y16031084D01*
X19929803Y16030268D01*
X19924540Y16033901D01*
X19924049Y16034138D01*
X19923529Y16034599D01*
X19923526Y16034601D01*
X19923525Y16034602D01*
X19782797Y16108461D01*
X19782795Y16108462D01*
X19782793Y16108463D01*
X19782791Y16108464D01*
X19782790Y16108464D01*
X19628472Y16146500D01*
X19628471Y16146500D01*
X19469529Y16146500D01*
X19469527Y16146500D01*
X19315209Y16108464D01*
X19315204Y16108462D01*
X19192175Y16043892D01*
X19122562Y16029946D01*
X19056460Y16055850D01*
X19015809Y16110780D01*
X18989787Y16179395D01*
X18899498Y16310201D01*
X18780529Y16415599D01*
X18780528Y16415600D01*
X18780525Y16415602D01*
X18639797Y16489461D01*
X18639795Y16489462D01*
X18639793Y16489463D01*
X18639791Y16489464D01*
X18639790Y16489464D01*
X18485472Y16527500D01*
X18485471Y16527500D01*
X18326529Y16527500D01*
X18326527Y16527500D01*
X18172209Y16489464D01*
X18172202Y16489461D01*
X18031474Y16415602D01*
X18031469Y16415598D01*
X17912501Y16310200D01*
X17822215Y16179399D01*
X17822212Y16179393D01*
X17765849Y16030780D01*
X17746693Y15873004D01*
X17746693Y15872997D01*
X17765849Y15715221D01*
X17822212Y15566608D01*
X17822215Y15566602D01*
X17829042Y15556712D01*
X17912502Y15435799D01*
X18031471Y15330401D01*
X18031472Y15330401D01*
X18031474Y15330399D01*
X18072630Y15308799D01*
X18172207Y15256537D01*
X18326529Y15218500D01*
X18326530Y15218500D01*
X18485470Y15218500D01*
X18485471Y15218500D01*
X18639793Y15256537D01*
X18762823Y15321109D01*
X18832435Y15335055D01*
X18898537Y15309152D01*
X18939188Y15254223D01*
X18965209Y15185613D01*
X18965212Y15185608D01*
X18965213Y15185605D01*
X19055502Y15054799D01*
X19174471Y14949401D01*
X19174472Y14949401D01*
X19174474Y14949399D01*
X19229196Y14920679D01*
X19315207Y14875537D01*
X19469529Y14837500D01*
X19469530Y14837500D01*
X19537942Y14837500D01*
X19606063Y14817498D01*
X19652556Y14763842D01*
X19663023Y14696312D01*
X19651693Y14603003D01*
X19651693Y14602997D01*
X19670849Y14445221D01*
X19715252Y14328144D01*
X19727213Y14296605D01*
X19817502Y14165799D01*
X19936471Y14060401D01*
X19936472Y14060401D01*
X19936474Y14060399D01*
X20011200Y14021180D01*
X20077207Y13986537D01*
X20231529Y13948500D01*
X20231530Y13948500D01*
X20390470Y13948500D01*
X20390471Y13948500D01*
X20544793Y13986537D01*
X20685529Y14060401D01*
X20804498Y14165799D01*
X20856936Y14241770D01*
X20912093Y14286468D01*
X20982662Y14294251D01*
X21046236Y14262647D01*
X21049726Y14259287D01*
X21304899Y14004114D01*
X21335464Y13954484D01*
X21356860Y13889606D01*
X21356864Y13889598D01*
X21389734Y13823477D01*
X21389736Y13823473D01*
X21389739Y13823468D01*
X21396992Y13812960D01*
X21416630Y13784509D01*
X21430746Y13757615D01*
X21453915Y13696525D01*
X21461184Y13667031D01*
X21469057Y13602190D01*
X21469057Y13571816D01*
X21461184Y13506974D01*
X21453914Y13477479D01*
X21430743Y13416385D01*
X21416630Y13389494D01*
X21391726Y13353412D01*
X21379520Y13335730D01*
X21359381Y13313000D01*
X21310484Y13269681D01*
X21285514Y13252440D01*
X21284727Y13252027D01*
X21284713Y13252019D01*
X21251518Y13231261D01*
X21251511Y13231256D01*
X21250001Y13230145D01*
X21190546Y13206566D01*
X21187991Y13206256D01*
X21185899Y13206001D01*
X21177675Y13205003D01*
X21177677Y13205003D01*
X21162250Y13202176D01*
X21162249Y13202176D01*
X21135815Y13195661D01*
X21105664Y13192000D01*
X21040336Y13192000D01*
X21010185Y13195661D01*
X20983751Y13202176D01*
X20983750Y13202176D01*
X20977250Y13203367D01*
X20968328Y13205002D01*
X20953087Y13206853D01*
X20922610Y13210553D01*
X20910084Y13211311D01*
X20906954Y13211500D01*
X20906953Y13211500D01*
X18669359Y13211500D01*
X18601238Y13231502D01*
X18554745Y13285158D01*
X18544278Y13352687D01*
X18557307Y13459996D01*
X18557307Y13460004D01*
X18538150Y13617780D01*
X18518816Y13668759D01*
X18481787Y13766395D01*
X18391498Y13897201D01*
X18272529Y14002599D01*
X18272528Y14002600D01*
X18272525Y14002602D01*
X18131797Y14076461D01*
X18131795Y14076462D01*
X18131793Y14076463D01*
X18131791Y14076464D01*
X18131790Y14076464D01*
X17977472Y14114500D01*
X17977471Y14114500D01*
X17818529Y14114500D01*
X17818527Y14114500D01*
X17664209Y14076464D01*
X17664202Y14076461D01*
X17523474Y14002602D01*
X17523469Y14002598D01*
X17404501Y13897200D01*
X17314215Y13766399D01*
X17314212Y13766393D01*
X17257849Y13617780D01*
X17238693Y13460004D01*
X17238693Y13459997D01*
X17257849Y13302221D01*
X17301194Y13187933D01*
X17313897Y13154437D01*
X17314212Y13153608D01*
X17314215Y13153602D01*
X17403965Y13023576D01*
X17426201Y12956151D01*
X17408454Y12887408D01*
X17403965Y12880424D01*
X17314215Y12750399D01*
X17314212Y12750393D01*
X17257849Y12601780D01*
X17238693Y12444004D01*
X17238693Y12443998D01*
X16755000Y12443998D01*
X16755000Y16943361D01*
X16775002Y17011482D01*
X16828658Y17057975D01*
X16898932Y17068079D01*
X16939553Y17054929D01*
X16978407Y17034537D01*
X17132729Y16996500D01*
X17132730Y16996500D01*
X17291670Y16996500D01*
X17291671Y16996500D01*
X17445993Y17034537D01*
X17586729Y17108401D01*
X17705698Y17213799D01*
X17795987Y17344605D01*
X17852349Y17493218D01*
X17852349Y17493219D01*
X17852350Y17493221D01*
X17871507Y17650997D01*
X17871507Y17651004D01*
X17852350Y17808780D01*
X17831550Y17863624D01*
X17795987Y17957395D01*
X17705698Y18088201D01*
X17586729Y18193599D01*
X17586728Y18193600D01*
X17586725Y18193602D01*
X17445997Y18267461D01*
X17445995Y18267462D01*
X17445993Y18267463D01*
X17445991Y18267464D01*
X17445990Y18267464D01*
X17291672Y18305500D01*
X17291671Y18305500D01*
X17132729Y18305500D01*
X17132727Y18305500D01*
X16978409Y18267464D01*
X16978402Y18267461D01*
X16837674Y18193602D01*
X16837669Y18193598D01*
X16718701Y18088200D01*
X16628415Y17957399D01*
X16628412Y17957393D01*
X16572049Y17808780D01*
X16552893Y17651004D01*
X16552893Y17650997D01*
X16566590Y17538187D01*
X16554945Y17468152D01*
X16507284Y17415531D01*
X16441509Y17397000D01*
X14087000Y17397000D01*
X14018879Y17417002D01*
X13972386Y17470658D01*
X13961000Y17523000D01*
X13961000Y18492500D01*
X13981002Y18560621D01*
X14034658Y18607114D01*
X14087000Y18618500D01*
X21008872Y18618500D01*
X21076993Y18598498D01*
G37*
%TD.AperFunction*%
%TA.AperFunction,Conductor*%
G36*
X3278384Y2583085D02*
G01*
X3347942Y2448844D01*
X3451138Y2338348D01*
X3580319Y2259791D01*
X3635921Y2244212D01*
X3635095Y2243385D01*
X3572783Y2209359D01*
X3501968Y2214424D01*
X3457512Y2247704D01*
X3456905Y2247096D01*
X3452681Y2251320D01*
X3445132Y2256971D01*
X3444002Y2259999D01*
X3420001Y2284000D01*
X3420000Y2284000D01*
X3261480Y2284000D01*
X3193359Y2304002D01*
X3146866Y2357658D01*
X3136762Y2427932D01*
X3166256Y2492512D01*
X3172385Y2499095D01*
X3274597Y2601308D01*
X3278384Y2583085D01*
G37*
%TD.AperFunction*%
%TA.AperFunction,Conductor*%
G36*
X29546327Y16106998D02*
G01*
X29592820Y16053342D01*
X29596014Y16045688D01*
X29633213Y15947605D01*
X29723502Y15816799D01*
X29842471Y15711401D01*
X29842472Y15711401D01*
X29842474Y15711399D01*
X29868469Y15697756D01*
X29983207Y15637537D01*
X30137529Y15599500D01*
X30137530Y15599500D01*
X30296470Y15599500D01*
X30296471Y15599500D01*
X30450793Y15637537D01*
X30588312Y15709713D01*
X30657923Y15723659D01*
X30724025Y15697756D01*
X30765630Y15640227D01*
X30767861Y15633302D01*
X30772130Y15618607D01*
X30772131Y15618605D01*
X30782492Y15601086D01*
X30791189Y15583334D01*
X30798681Y15564412D01*
X30826510Y15526108D01*
X30829764Y15521155D01*
X30838533Y15506328D01*
X30853865Y15480402D01*
X30868250Y15466017D01*
X30881090Y15450984D01*
X30893054Y15434517D01*
X30893057Y15434514D01*
X30929536Y15404336D01*
X30933929Y15400339D01*
X31422171Y14912096D01*
X31436768Y14894581D01*
X31501502Y14800799D01*
X31620471Y14695401D01*
X31620472Y14695401D01*
X31620474Y14695399D01*
X31695200Y14656180D01*
X31761207Y14621537D01*
X31915529Y14583500D01*
X31915530Y14583500D01*
X32074470Y14583500D01*
X32074471Y14583500D01*
X32228793Y14621537D01*
X32369529Y14695401D01*
X32419446Y14739625D01*
X32483699Y14769825D01*
X32554080Y14760494D01*
X32586553Y14739625D01*
X32636471Y14695401D01*
X32636472Y14695401D01*
X32636474Y14695399D01*
X32711200Y14656180D01*
X32777207Y14621537D01*
X32931529Y14583500D01*
X32931530Y14583500D01*
X33090470Y14583500D01*
X33090471Y14583500D01*
X33244793Y14621537D01*
X33385529Y14695401D01*
X33504498Y14800799D01*
X33594787Y14931605D01*
X33651149Y15080218D01*
X33651149Y15080219D01*
X33651150Y15080221D01*
X33656853Y15127188D01*
X33684920Y15192401D01*
X33743789Y15232087D01*
X33781934Y15238000D01*
X34736810Y15238000D01*
X34804931Y15217998D01*
X34825905Y15201095D01*
X36276095Y13750905D01*
X36310121Y13688593D01*
X36313000Y13661810D01*
X36313000Y10919462D01*
X36292998Y10851341D01*
X36239342Y10804848D01*
X36186539Y10793463D01*
X34451919Y10799811D01*
X34383872Y10820062D01*
X34363285Y10836715D01*
X34037775Y11162225D01*
X34003749Y11224537D01*
X34000887Y11253413D01*
X34001678Y11301002D01*
X34015125Y12110322D01*
X34034419Y12175259D01*
X34076082Y12241563D01*
X34132237Y12402046D01*
X34151274Y12571000D01*
X34132237Y12739954D01*
X34076082Y12900437D01*
X33985624Y13044400D01*
X33985623Y13044401D01*
X33985622Y13044403D01*
X33865402Y13164623D01*
X33865399Y13164625D01*
X33721439Y13255081D01*
X33721437Y13255082D01*
X33633286Y13285927D01*
X33560954Y13311237D01*
X33392000Y13330274D01*
X33223046Y13311237D01*
X33223043Y13311237D01*
X33223043Y13311236D01*
X33062563Y13255083D01*
X33015186Y13225313D01*
X32948150Y13206000D01*
X32502998Y13206000D01*
X31106000Y11809002D01*
X31106000Y8813191D01*
X31085998Y8745070D01*
X31069095Y8724096D01*
X28820000Y6475002D01*
X28820000Y6137112D01*
X28819893Y6133448D01*
X28815607Y6059871D01*
X28815608Y6059866D01*
X28818086Y6045813D01*
X28820000Y6023934D01*
X28820000Y5459000D01*
X29138463Y5459000D01*
X29195010Y5445598D01*
X29319434Y5383109D01*
X29358058Y5373955D01*
X29419729Y5338784D01*
X29452595Y5275852D01*
X29455000Y5251352D01*
X29455000Y3733190D01*
X29434998Y3665069D01*
X29418095Y3644095D01*
X28983905Y3209905D01*
X28921593Y3175879D01*
X28894810Y3173000D01*
X25621036Y3173000D01*
X25552915Y3193002D01*
X25506422Y3246658D01*
X25496318Y3316932D01*
X25503224Y3343681D01*
X25523150Y3396221D01*
X25542307Y3553997D01*
X25542307Y3554004D01*
X25523150Y3711780D01*
X25499780Y3773400D01*
X25466787Y3860395D01*
X25420864Y3926925D01*
X25398629Y3994348D01*
X25416376Y4063091D01*
X25420865Y4070076D01*
X25466787Y4136605D01*
X25523149Y4285218D01*
X25523149Y4285219D01*
X25523150Y4285221D01*
X25542307Y4442997D01*
X25542307Y4443004D01*
X25523150Y4600780D01*
X25507972Y4640799D01*
X25466787Y4749395D01*
X25376498Y4880201D01*
X25257529Y4985599D01*
X25257528Y4985600D01*
X25257525Y4985602D01*
X25116797Y5059461D01*
X25116795Y5059462D01*
X25116793Y5059463D01*
X25116791Y5059464D01*
X25116790Y5059464D01*
X24962472Y5097500D01*
X24962471Y5097500D01*
X24803529Y5097500D01*
X24803527Y5097500D01*
X24649209Y5059464D01*
X24649202Y5059461D01*
X24508474Y4985602D01*
X24508469Y4985598D01*
X24389501Y4880200D01*
X24299215Y4749399D01*
X24299212Y4749393D01*
X24242849Y4600780D01*
X24223693Y4443004D01*
X24223693Y4442997D01*
X24242849Y4285221D01*
X24299212Y4136608D01*
X24299215Y4136602D01*
X24345135Y4070076D01*
X24367371Y4002652D01*
X24349624Y3933909D01*
X24345135Y3926924D01*
X24299215Y3860399D01*
X24299212Y3860393D01*
X24242849Y3711780D01*
X24223693Y3554004D01*
X24223693Y3553997D01*
X24242849Y3396221D01*
X24262776Y3343681D01*
X24268230Y3272894D01*
X24234548Y3210396D01*
X24172424Y3176029D01*
X24144964Y3173000D01*
X24046190Y3173000D01*
X23978069Y3193002D01*
X23957095Y3209905D01*
X22978001Y4189000D01*
X22978000Y4189000D01*
X20998190Y4189000D01*
X20930069Y4209002D01*
X20909095Y4225905D01*
X19127519Y6007481D01*
X19112918Y6025000D01*
X19026498Y6150201D01*
X18907529Y6255599D01*
X18865309Y6277758D01*
X18834772Y6300228D01*
X18660000Y6475000D01*
X18278000Y6475000D01*
X18209879Y6495002D01*
X18163386Y6548658D01*
X18152000Y6601000D01*
X18152000Y7494500D01*
X23356506Y7494500D01*
X23376379Y7305409D01*
X23398607Y7237000D01*
X23435135Y7124580D01*
X23530202Y6959920D01*
X23657426Y6818623D01*
X23811247Y6706865D01*
X23984943Y6629531D01*
X24170921Y6590000D01*
X24361055Y6590000D01*
X24547033Y6629531D01*
X24720729Y6706865D01*
X24874550Y6818623D01*
X25001774Y6959920D01*
X25096841Y7124580D01*
X25155596Y7305408D01*
X25175470Y7494500D01*
X25155596Y7683592D01*
X25096841Y7864420D01*
X25034239Y7972849D01*
X25017502Y8041841D01*
X25040722Y8108933D01*
X25096528Y8152821D01*
X25167204Y8159570D01*
X25209689Y8142974D01*
X25349166Y8056614D01*
X25349169Y8056613D01*
X25349178Y8056607D01*
X25548686Y7979317D01*
X25548691Y7979315D01*
X25759008Y7940000D01*
X25759010Y7940000D01*
X25972966Y7940000D01*
X25972968Y7940000D01*
X26183285Y7979315D01*
X26382798Y8056607D01*
X26522286Y8142975D01*
X26590732Y8161829D01*
X26658508Y8140686D01*
X26704093Y8086257D01*
X26713015Y8015823D01*
X26697735Y7972847D01*
X26635136Y7864425D01*
X26576379Y7683592D01*
X26556506Y7494500D01*
X26576379Y7305409D01*
X26598607Y7237000D01*
X26635135Y7124580D01*
X26730202Y6959920D01*
X26857426Y6818623D01*
X27011247Y6706865D01*
X27184943Y6629531D01*
X27370921Y6590000D01*
X27561055Y6590000D01*
X27747033Y6629531D01*
X27920729Y6706865D01*
X28074550Y6818623D01*
X28201774Y6959920D01*
X28296841Y7124580D01*
X28355596Y7305408D01*
X28375470Y7494500D01*
X28355596Y7683592D01*
X28296841Y7864420D01*
X28201774Y8029080D01*
X28074550Y8170377D01*
X27920729Y8282135D01*
X27747033Y8359469D01*
X27561055Y8399000D01*
X27370921Y8399000D01*
X27184942Y8359469D01*
X27011245Y8282134D01*
X27011241Y8282132D01*
X27004402Y8277163D01*
X26937533Y8253308D01*
X26868383Y8269392D01*
X26818905Y8320309D01*
X26804810Y8389892D01*
X26829798Y8455036D01*
X26851766Y8484126D01*
X26851766Y8484127D01*
X26851769Y8484130D01*
X26947139Y8675660D01*
X27005692Y8881452D01*
X27015563Y8987976D01*
X27025434Y9094496D01*
X27025434Y9094505D01*
X27006412Y9299780D01*
X27005692Y9307548D01*
X26947139Y9513340D01*
X26851769Y9704870D01*
X26829797Y9733966D01*
X26804707Y9800382D01*
X26819507Y9869818D01*
X26869498Y9920231D01*
X26938808Y9935614D01*
X27004407Y9911835D01*
X27011247Y9906865D01*
X27184943Y9829531D01*
X27370921Y9790000D01*
X27561055Y9790000D01*
X27747033Y9829531D01*
X27920729Y9906865D01*
X28074550Y10018623D01*
X28201774Y10159920D01*
X28296841Y10324580D01*
X28355596Y10505408D01*
X28375470Y10694500D01*
X28355596Y10883592D01*
X28296841Y11064420D01*
X28201774Y11229080D01*
X28074550Y11370377D01*
X27920729Y11482135D01*
X27747033Y11559469D01*
X27561055Y11599000D01*
X27370921Y11599000D01*
X27184942Y11559469D01*
X27011246Y11482135D01*
X26857426Y11370378D01*
X26730203Y11229082D01*
X26730203Y11229081D01*
X26635136Y11064423D01*
X26576379Y10883592D01*
X26556506Y10694500D01*
X26576379Y10505409D01*
X26588469Y10468201D01*
X26635135Y10324580D01*
X26678771Y10249000D01*
X26697735Y10216155D01*
X26714473Y10147159D01*
X26691253Y10080067D01*
X26635446Y10036180D01*
X26564771Y10029431D01*
X26522286Y10046026D01*
X26382801Y10132391D01*
X26382802Y10132391D01*
X26382798Y10132393D01*
X26344683Y10147159D01*
X26183289Y10209684D01*
X26183290Y10209684D01*
X26183285Y10209685D01*
X25972968Y10249000D01*
X25759008Y10249000D01*
X25600301Y10219333D01*
X25548685Y10209684D01*
X25349182Y10132395D01*
X25349174Y10132391D01*
X25209689Y10046026D01*
X25141242Y10027172D01*
X25073467Y10048316D01*
X25027882Y10102745D01*
X25018960Y10173179D01*
X25034241Y10216155D01*
X25053205Y10249000D01*
X25096841Y10324580D01*
X25155596Y10505408D01*
X25175470Y10694500D01*
X25155596Y10883592D01*
X25096841Y11064420D01*
X25001774Y11229080D01*
X24874550Y11370377D01*
X24720729Y11482135D01*
X24547033Y11559469D01*
X24361055Y11599000D01*
X24170921Y11599000D01*
X23984942Y11559469D01*
X23811246Y11482135D01*
X23657426Y11370378D01*
X23530203Y11229082D01*
X23530203Y11229081D01*
X23435136Y11064423D01*
X23376379Y10883592D01*
X23356506Y10694500D01*
X23376379Y10505409D01*
X23388469Y10468201D01*
X23435135Y10324580D01*
X23530202Y10159920D01*
X23657426Y10018623D01*
X23811247Y9906865D01*
X23984943Y9829531D01*
X24170921Y9790000D01*
X24361055Y9790000D01*
X24547033Y9829531D01*
X24720729Y9906865D01*
X24727565Y9911832D01*
X24794430Y9935692D01*
X24863582Y9919614D01*
X24913064Y9868702D01*
X24927166Y9799120D01*
X24902180Y9733968D01*
X24895110Y9724605D01*
X24880207Y9704870D01*
X24870113Y9684598D01*
X24784837Y9513340D01*
X24784835Y9513335D01*
X24726283Y9307545D01*
X24706542Y9094505D01*
X24706542Y9094496D01*
X24726283Y8881456D01*
X24726283Y8881453D01*
X24726284Y8881452D01*
X24745046Y8815510D01*
X24776545Y8704801D01*
X24784837Y8675660D01*
X24880207Y8484130D01*
X24880208Y8484129D01*
X24880209Y8484127D01*
X24902179Y8455034D01*
X24927268Y8388619D01*
X24912468Y8319182D01*
X24862477Y8268770D01*
X24793167Y8253387D01*
X24727569Y8277166D01*
X24720732Y8282133D01*
X24720730Y8282134D01*
X24720729Y8282135D01*
X24547033Y8359469D01*
X24361055Y8399000D01*
X24170921Y8399000D01*
X23984942Y8359469D01*
X23811246Y8282135D01*
X23657426Y8170378D01*
X23530203Y8029082D01*
X23530203Y8029081D01*
X23435136Y7864423D01*
X23376379Y7683592D01*
X23356506Y7494500D01*
X18152000Y7494500D01*
X18152000Y9141997D01*
X19035193Y9141997D01*
X19054349Y8984221D01*
X19063991Y8958799D01*
X19110713Y8835605D01*
X19201002Y8704799D01*
X19319971Y8599401D01*
X19319972Y8599401D01*
X19319974Y8599399D01*
X19394700Y8560180D01*
X19460707Y8525537D01*
X19615029Y8487500D01*
X19615030Y8487500D01*
X19773970Y8487500D01*
X19773971Y8487500D01*
X19928293Y8525537D01*
X20069029Y8599401D01*
X20187998Y8704799D01*
X20278287Y8835605D01*
X20334649Y8984218D01*
X20334649Y8984219D01*
X20334650Y8984221D01*
X20353807Y9141997D01*
X20353807Y9142004D01*
X20334650Y9299780D01*
X20298158Y9396000D01*
X20278287Y9448395D01*
X20187998Y9579201D01*
X20069029Y9684599D01*
X20069028Y9684600D01*
X20069025Y9684602D01*
X19928297Y9758461D01*
X19928295Y9758462D01*
X19928293Y9758463D01*
X19928291Y9758464D01*
X19928290Y9758464D01*
X19773972Y9796500D01*
X19773971Y9796500D01*
X19615029Y9796500D01*
X19615027Y9796500D01*
X19460709Y9758464D01*
X19460702Y9758461D01*
X19319974Y9684602D01*
X19319969Y9684598D01*
X19201001Y9579200D01*
X19110715Y9448399D01*
X19110712Y9448393D01*
X19054349Y9299780D01*
X19035193Y9142004D01*
X19035193Y9141997D01*
X18152000Y9141997D01*
X18152000Y11301000D01*
X18151999Y11301002D01*
X17553905Y11899096D01*
X17519879Y11961408D01*
X17517000Y11988191D01*
X17517000Y12518810D01*
X17537002Y12586931D01*
X17553899Y12607900D01*
X17715379Y12769380D01*
X17777687Y12803402D01*
X17810907Y12804953D01*
X17810907Y12805500D01*
X17977470Y12805500D01*
X17977471Y12805500D01*
X18131793Y12843537D01*
X18272529Y12917401D01*
X18275817Y12920315D01*
X18278736Y12921687D01*
X18278803Y12921732D01*
X18278810Y12921721D01*
X18340071Y12950513D01*
X18359369Y12952000D01*
X20899113Y12952000D01*
X20929267Y12948339D01*
X20945994Y12944217D01*
X20993529Y12932500D01*
X20993530Y12932500D01*
X21152470Y12932500D01*
X21152471Y12932500D01*
X21204429Y12945307D01*
X21216733Y12948339D01*
X21246887Y12952000D01*
X21326998Y12952000D01*
X21327000Y12952000D01*
X21374776Y12999777D01*
X21405305Y13022241D01*
X21447529Y13044401D01*
X21566498Y13149799D01*
X21605291Y13206000D01*
X22445693Y13206000D01*
X22464849Y13048221D01*
X22501342Y12952000D01*
X22521213Y12899605D01*
X22611502Y12768799D01*
X22730471Y12663401D01*
X22730472Y12663401D01*
X22730474Y12663399D01*
X22805200Y12624180D01*
X22871207Y12589537D01*
X23025529Y12551500D01*
X23025530Y12551500D01*
X23184470Y12551500D01*
X23184471Y12551500D01*
X23338793Y12589537D01*
X23479529Y12663401D01*
X23598498Y12768799D01*
X23688787Y12899605D01*
X23745149Y13048218D01*
X23745149Y13048219D01*
X23745150Y13048221D01*
X23764307Y13206000D01*
X23764307Y13206004D01*
X23745150Y13363780D01*
X23731538Y13399669D01*
X23688787Y13512395D01*
X23598498Y13643201D01*
X23479529Y13748599D01*
X23479528Y13748600D01*
X23479525Y13748602D01*
X23338797Y13822461D01*
X23338795Y13822462D01*
X23338793Y13822463D01*
X23338791Y13822464D01*
X23338790Y13822464D01*
X23184472Y13860500D01*
X23184471Y13860500D01*
X23025529Y13860500D01*
X23025527Y13860500D01*
X22871209Y13822464D01*
X22871202Y13822461D01*
X22730474Y13748602D01*
X22730469Y13748598D01*
X22611501Y13643200D01*
X22521215Y13512399D01*
X22521212Y13512393D01*
X22464849Y13363780D01*
X22445693Y13206004D01*
X22445693Y13206000D01*
X21605291Y13206000D01*
X21656787Y13280605D01*
X21713149Y13429218D01*
X21713149Y13429219D01*
X21713150Y13429221D01*
X21732307Y13586997D01*
X21732307Y13587004D01*
X21713150Y13744780D01*
X21683688Y13822464D01*
X21656787Y13893395D01*
X21656785Y13893397D01*
X21656785Y13893399D01*
X21603304Y13970880D01*
X21581068Y14038305D01*
X21581000Y14042456D01*
X21581000Y14095000D01*
X21580999Y14095002D01*
X21200004Y14475997D01*
X25239693Y14475997D01*
X25258849Y14318221D01*
X25302372Y14203463D01*
X25315213Y14169605D01*
X25405502Y14038799D01*
X25524471Y13933401D01*
X25524472Y13933401D01*
X25524474Y13933399D01*
X25593444Y13897201D01*
X25665207Y13859537D01*
X25819529Y13821500D01*
X25819530Y13821500D01*
X25978470Y13821500D01*
X25978471Y13821500D01*
X26132793Y13859537D01*
X26273529Y13933401D01*
X26312580Y13967997D01*
X27779693Y13967997D01*
X27798849Y13810221D01*
X27828115Y13733056D01*
X27855213Y13661605D01*
X27945502Y13530799D01*
X28064471Y13425401D01*
X28064472Y13425401D01*
X28064474Y13425399D01*
X28139200Y13386180D01*
X28205207Y13351537D01*
X28359529Y13313500D01*
X28366929Y13311676D01*
X28366356Y13309353D01*
X28420823Y13285927D01*
X28460525Y13227069D01*
X28462103Y13156090D01*
X28425057Y13095525D01*
X28424003Y13094581D01*
X28326501Y13008200D01*
X28236215Y12877399D01*
X28236212Y12877393D01*
X28179849Y12728780D01*
X28160693Y12571004D01*
X28160693Y12570997D01*
X28179849Y12413221D01*
X28197727Y12366082D01*
X28236213Y12264605D01*
X28326502Y12133799D01*
X28445471Y12028401D01*
X28445472Y12028401D01*
X28445474Y12028399D01*
X28477793Y12011437D01*
X28586207Y11954537D01*
X28740529Y11916500D01*
X28740530Y11916500D01*
X28899470Y11916500D01*
X28899471Y11916500D01*
X29053793Y11954537D01*
X29194529Y12028401D01*
X29313498Y12133799D01*
X29403787Y12264605D01*
X29460149Y12413218D01*
X29464230Y12446830D01*
X29492295Y12512041D01*
X29551163Y12551728D01*
X29619467Y12553980D01*
X29629529Y12551500D01*
X29629530Y12551500D01*
X29788470Y12551500D01*
X29788471Y12551500D01*
X29942793Y12589537D01*
X30083529Y12663401D01*
X30202498Y12768799D01*
X30292787Y12899605D01*
X30349149Y13048218D01*
X30349149Y13048219D01*
X30349150Y13048221D01*
X30368307Y13206000D01*
X30368307Y13206004D01*
X30349150Y13363780D01*
X30335538Y13399669D01*
X30292787Y13512395D01*
X30202498Y13643201D01*
X30083529Y13748599D01*
X30083528Y13748600D01*
X30083525Y13748602D01*
X29942797Y13822461D01*
X29942795Y13822462D01*
X29942793Y13822463D01*
X29942791Y13822464D01*
X29942790Y13822464D01*
X29788472Y13860500D01*
X29788471Y13860500D01*
X29629529Y13860500D01*
X29629527Y13860500D01*
X29475209Y13822464D01*
X29475202Y13822461D01*
X29334474Y13748602D01*
X29334469Y13748598D01*
X29288670Y13708023D01*
X29224417Y13677823D01*
X29154036Y13687155D01*
X29099873Y13733056D01*
X29079125Y13800953D01*
X29080036Y13817524D01*
X29080636Y13822461D01*
X29098307Y13968000D01*
X29098307Y13968004D01*
X29079150Y14125780D01*
X29049688Y14203463D01*
X29022787Y14274395D01*
X28932498Y14405201D01*
X28813529Y14510599D01*
X28813528Y14510600D01*
X28813525Y14510602D01*
X28672797Y14584461D01*
X28672795Y14584462D01*
X28672793Y14584463D01*
X28672791Y14584464D01*
X28672790Y14584464D01*
X28518472Y14622500D01*
X28518471Y14622500D01*
X28359529Y14622500D01*
X28359527Y14622500D01*
X28205209Y14584464D01*
X28205202Y14584461D01*
X28064474Y14510602D01*
X28064469Y14510598D01*
X27945501Y14405200D01*
X27855215Y14274399D01*
X27855212Y14274393D01*
X27798849Y14125780D01*
X27779693Y13968004D01*
X27779693Y13967997D01*
X26312580Y13967997D01*
X26392498Y14038799D01*
X26482787Y14169605D01*
X26539149Y14318218D01*
X26539149Y14318219D01*
X26539150Y14318221D01*
X26558307Y14475997D01*
X26558307Y14476004D01*
X26539150Y14633780D01*
X26525538Y14669669D01*
X26482787Y14782395D01*
X26392498Y14913201D01*
X26273529Y15018599D01*
X26273528Y15018600D01*
X26273525Y15018602D01*
X26132797Y15092461D01*
X26132795Y15092462D01*
X26132793Y15092463D01*
X26132791Y15092464D01*
X26132790Y15092464D01*
X25978472Y15130500D01*
X25978471Y15130500D01*
X25819529Y15130500D01*
X25819527Y15130500D01*
X25665209Y15092464D01*
X25665202Y15092461D01*
X25524474Y15018602D01*
X25524469Y15018598D01*
X25405501Y14913200D01*
X25315215Y14782399D01*
X25315212Y14782393D01*
X25258849Y14633780D01*
X25239693Y14476004D01*
X25239693Y14475997D01*
X21200004Y14475997D01*
X21109905Y14566096D01*
X21075879Y14628408D01*
X21073000Y14655191D01*
X21073000Y15152427D01*
X21093002Y15220548D01*
X21115447Y15246739D01*
X21185498Y15308799D01*
X21275787Y15439605D01*
X21332149Y15588218D01*
X21332149Y15588219D01*
X21332150Y15588221D01*
X21351307Y15745997D01*
X21351307Y15746004D01*
X21332150Y15903780D01*
X21312224Y15956319D01*
X21306770Y16027106D01*
X21340452Y16089604D01*
X21402576Y16123971D01*
X21430036Y16127000D01*
X29478206Y16127000D01*
X29546327Y16106998D01*
G37*
%TD.AperFunction*%
M02*
