%TF.GenerationSoftware,KiCad,Pcbnew,7.0.9-7.0.9~ubuntu22.04.1*%
%TF.CreationDate,2024-07-08T15:30:03+03:00*%
%TF.ProjectId,USB-GIGABIT_Rev_E,5553422d-4749-4474-9142-49545f526576,E*%
%TF.SameCoordinates,PX3473bc0PY4bd12e0*%
%TF.FileFunction,Legend,Top*%
%TF.FilePolarity,Positive*%
%FSLAX46Y46*%
G04 Gerber Fmt 4.6, Leading zero omitted, Abs format (unit mm)*
G04 Created by KiCad (PCBNEW 7.0.9-7.0.9~ubuntu22.04.1) date 2024-07-08 15:30:03*
%MOMM*%
%LPD*%
G01*
G04 APERTURE LIST*
%ADD10C,0.254000*%
%ADD11C,0.381000*%
%ADD12C,0.304800*%
%ADD13C,0.222250*%
%ADD14C,0.203200*%
%ADD15C,0.200000*%
%ADD16C,0.228600*%
%ADD17C,0.127000*%
%ADD18C,0.150000*%
G04 APERTURE END LIST*
D10*
X32376000Y10666000D02*
X32249000Y10920000D01*
X11294000Y4697000D02*
X11167000Y4951000D01*
X32249000Y10920000D02*
X32503000Y10920000D01*
X32376000Y17651000D02*
X32376000Y10666000D01*
X11167000Y4951000D02*
X11421000Y4951000D01*
X11294000Y14984000D02*
X11294000Y4697000D01*
X32503000Y10920000D02*
X32376000Y10666000D01*
X11421000Y4951000D02*
X11294000Y4697000D01*
D11*
X24121000Y2360781D02*
X24121000Y1127067D01*
X24121000Y1127067D02*
X24193571Y981924D01*
X24193571Y981924D02*
X24266143Y909352D01*
X24266143Y909352D02*
X24411285Y836781D01*
X24411285Y836781D02*
X24701571Y836781D01*
X24701571Y836781D02*
X24846714Y909352D01*
X24846714Y909352D02*
X24919285Y981924D01*
X24919285Y981924D02*
X24991857Y1127067D01*
X24991857Y1127067D02*
X24991857Y2360781D01*
X25644999Y909352D02*
X25862714Y836781D01*
X25862714Y836781D02*
X26225571Y836781D01*
X26225571Y836781D02*
X26370714Y909352D01*
X26370714Y909352D02*
X26443285Y981924D01*
X26443285Y981924D02*
X26515856Y1127067D01*
X26515856Y1127067D02*
X26515856Y1272210D01*
X26515856Y1272210D02*
X26443285Y1417352D01*
X26443285Y1417352D02*
X26370714Y1489924D01*
X26370714Y1489924D02*
X26225571Y1562495D01*
X26225571Y1562495D02*
X25935285Y1635067D01*
X25935285Y1635067D02*
X25790142Y1707638D01*
X25790142Y1707638D02*
X25717571Y1780210D01*
X25717571Y1780210D02*
X25644999Y1925352D01*
X25644999Y1925352D02*
X25644999Y2070495D01*
X25644999Y2070495D02*
X25717571Y2215638D01*
X25717571Y2215638D02*
X25790142Y2288210D01*
X25790142Y2288210D02*
X25935285Y2360781D01*
X25935285Y2360781D02*
X26298142Y2360781D01*
X26298142Y2360781D02*
X26515856Y2288210D01*
X27677000Y1635067D02*
X27894714Y1562495D01*
X27894714Y1562495D02*
X27967285Y1489924D01*
X27967285Y1489924D02*
X28039857Y1344781D01*
X28039857Y1344781D02*
X28039857Y1127067D01*
X28039857Y1127067D02*
X27967285Y981924D01*
X27967285Y981924D02*
X27894714Y909352D01*
X27894714Y909352D02*
X27749571Y836781D01*
X27749571Y836781D02*
X27169000Y836781D01*
X27169000Y836781D02*
X27169000Y2360781D01*
X27169000Y2360781D02*
X27677000Y2360781D01*
X27677000Y2360781D02*
X27822143Y2288210D01*
X27822143Y2288210D02*
X27894714Y2215638D01*
X27894714Y2215638D02*
X27967285Y2070495D01*
X27967285Y2070495D02*
X27967285Y1925352D01*
X27967285Y1925352D02*
X27894714Y1780210D01*
X27894714Y1780210D02*
X27822143Y1707638D01*
X27822143Y1707638D02*
X27677000Y1635067D01*
X27677000Y1635067D02*
X27169000Y1635067D01*
X28693000Y1417352D02*
X29854143Y1417352D01*
X31378142Y2288210D02*
X31233000Y2360781D01*
X31233000Y2360781D02*
X31015285Y2360781D01*
X31015285Y2360781D02*
X30797571Y2288210D01*
X30797571Y2288210D02*
X30652428Y2143067D01*
X30652428Y2143067D02*
X30579857Y1997924D01*
X30579857Y1997924D02*
X30507285Y1707638D01*
X30507285Y1707638D02*
X30507285Y1489924D01*
X30507285Y1489924D02*
X30579857Y1199638D01*
X30579857Y1199638D02*
X30652428Y1054495D01*
X30652428Y1054495D02*
X30797571Y909352D01*
X30797571Y909352D02*
X31015285Y836781D01*
X31015285Y836781D02*
X31160428Y836781D01*
X31160428Y836781D02*
X31378142Y909352D01*
X31378142Y909352D02*
X31450714Y981924D01*
X31450714Y981924D02*
X31450714Y1489924D01*
X31450714Y1489924D02*
X31160428Y1489924D01*
X32103857Y836781D02*
X32103857Y2360781D01*
X33627856Y2288210D02*
X33482714Y2360781D01*
X33482714Y2360781D02*
X33264999Y2360781D01*
X33264999Y2360781D02*
X33047285Y2288210D01*
X33047285Y2288210D02*
X32902142Y2143067D01*
X32902142Y2143067D02*
X32829571Y1997924D01*
X32829571Y1997924D02*
X32756999Y1707638D01*
X32756999Y1707638D02*
X32756999Y1489924D01*
X32756999Y1489924D02*
X32829571Y1199638D01*
X32829571Y1199638D02*
X32902142Y1054495D01*
X32902142Y1054495D02*
X33047285Y909352D01*
X33047285Y909352D02*
X33264999Y836781D01*
X33264999Y836781D02*
X33410142Y836781D01*
X33410142Y836781D02*
X33627856Y909352D01*
X33627856Y909352D02*
X33700428Y981924D01*
X33700428Y981924D02*
X33700428Y1489924D01*
X33700428Y1489924D02*
X33410142Y1489924D01*
X34280999Y1272210D02*
X35006714Y1272210D01*
X34135856Y836781D02*
X34643856Y2360781D01*
X34643856Y2360781D02*
X35151856Y836781D01*
X36167857Y1635067D02*
X36385571Y1562495D01*
X36385571Y1562495D02*
X36458142Y1489924D01*
X36458142Y1489924D02*
X36530714Y1344781D01*
X36530714Y1344781D02*
X36530714Y1127067D01*
X36530714Y1127067D02*
X36458142Y981924D01*
X36458142Y981924D02*
X36385571Y909352D01*
X36385571Y909352D02*
X36240428Y836781D01*
X36240428Y836781D02*
X35659857Y836781D01*
X35659857Y836781D02*
X35659857Y2360781D01*
X35659857Y2360781D02*
X36167857Y2360781D01*
X36167857Y2360781D02*
X36313000Y2288210D01*
X36313000Y2288210D02*
X36385571Y2215638D01*
X36385571Y2215638D02*
X36458142Y2070495D01*
X36458142Y2070495D02*
X36458142Y1925352D01*
X36458142Y1925352D02*
X36385571Y1780210D01*
X36385571Y1780210D02*
X36313000Y1707638D01*
X36313000Y1707638D02*
X36167857Y1635067D01*
X36167857Y1635067D02*
X35659857Y1635067D01*
X37183857Y836781D02*
X37183857Y2360781D01*
X37691856Y2360781D02*
X38562714Y2360781D01*
X38127285Y836781D02*
X38127285Y2360781D01*
D10*
X40649143Y2837140D02*
X40600762Y2885521D01*
X40600762Y2885521D02*
X40504000Y3030664D01*
X40504000Y3030664D02*
X40455619Y3127426D01*
X40455619Y3127426D02*
X40407238Y3272568D01*
X40407238Y3272568D02*
X40358857Y3514473D01*
X40358857Y3514473D02*
X40358857Y3707997D01*
X40358857Y3707997D02*
X40407238Y3949902D01*
X40407238Y3949902D02*
X40455619Y4095045D01*
X40455619Y4095045D02*
X40504000Y4191807D01*
X40504000Y4191807D02*
X40600762Y4336949D01*
X40600762Y4336949D02*
X40649143Y4385330D01*
X41471619Y3272568D02*
X41374857Y3224188D01*
X41374857Y3224188D02*
X41181333Y3224188D01*
X41181333Y3224188D02*
X41084571Y3272568D01*
X41084571Y3272568D02*
X41036190Y3320949D01*
X41036190Y3320949D02*
X40987809Y3417711D01*
X40987809Y3417711D02*
X40987809Y3707997D01*
X40987809Y3707997D02*
X41036190Y3804759D01*
X41036190Y3804759D02*
X41084571Y3853140D01*
X41084571Y3853140D02*
X41181333Y3901521D01*
X41181333Y3901521D02*
X41374857Y3901521D01*
X41374857Y3901521D02*
X41471619Y3853140D01*
X41810285Y2837140D02*
X41858666Y2885521D01*
X41858666Y2885521D02*
X41955428Y3030664D01*
X41955428Y3030664D02*
X42003809Y3127426D01*
X42003809Y3127426D02*
X42052190Y3272568D01*
X42052190Y3272568D02*
X42100571Y3514473D01*
X42100571Y3514473D02*
X42100571Y3707997D01*
X42100571Y3707997D02*
X42052190Y3949902D01*
X42052190Y3949902D02*
X42003809Y4095045D01*
X42003809Y4095045D02*
X41955428Y4191807D01*
X41955428Y4191807D02*
X41858666Y4336949D01*
X41858666Y4336949D02*
X41810285Y4385330D01*
X43310094Y4143426D02*
X43358475Y4191807D01*
X43358475Y4191807D02*
X43455237Y4240188D01*
X43455237Y4240188D02*
X43697142Y4240188D01*
X43697142Y4240188D02*
X43793904Y4191807D01*
X43793904Y4191807D02*
X43842285Y4143426D01*
X43842285Y4143426D02*
X43890666Y4046664D01*
X43890666Y4046664D02*
X43890666Y3949902D01*
X43890666Y3949902D02*
X43842285Y3804759D01*
X43842285Y3804759D02*
X43261713Y3224188D01*
X43261713Y3224188D02*
X43890666Y3224188D01*
X44519618Y4240188D02*
X44616380Y4240188D01*
X44616380Y4240188D02*
X44713142Y4191807D01*
X44713142Y4191807D02*
X44761523Y4143426D01*
X44761523Y4143426D02*
X44809904Y4046664D01*
X44809904Y4046664D02*
X44858285Y3853140D01*
X44858285Y3853140D02*
X44858285Y3611235D01*
X44858285Y3611235D02*
X44809904Y3417711D01*
X44809904Y3417711D02*
X44761523Y3320949D01*
X44761523Y3320949D02*
X44713142Y3272568D01*
X44713142Y3272568D02*
X44616380Y3224188D01*
X44616380Y3224188D02*
X44519618Y3224188D01*
X44519618Y3224188D02*
X44422856Y3272568D01*
X44422856Y3272568D02*
X44374475Y3320949D01*
X44374475Y3320949D02*
X44326094Y3417711D01*
X44326094Y3417711D02*
X44277713Y3611235D01*
X44277713Y3611235D02*
X44277713Y3853140D01*
X44277713Y3853140D02*
X44326094Y4046664D01*
X44326094Y4046664D02*
X44374475Y4143426D01*
X44374475Y4143426D02*
X44422856Y4191807D01*
X44422856Y4191807D02*
X44519618Y4240188D01*
X45245332Y4143426D02*
X45293713Y4191807D01*
X45293713Y4191807D02*
X45390475Y4240188D01*
X45390475Y4240188D02*
X45632380Y4240188D01*
X45632380Y4240188D02*
X45729142Y4191807D01*
X45729142Y4191807D02*
X45777523Y4143426D01*
X45777523Y4143426D02*
X45825904Y4046664D01*
X45825904Y4046664D02*
X45825904Y3949902D01*
X45825904Y3949902D02*
X45777523Y3804759D01*
X45777523Y3804759D02*
X45196951Y3224188D01*
X45196951Y3224188D02*
X45825904Y3224188D01*
X46696761Y3901521D02*
X46696761Y3224188D01*
X46454856Y4288568D02*
X46212951Y3562854D01*
X46212951Y3562854D02*
X46841904Y3562854D01*
D12*
X16353009Y1261954D02*
X17199676Y1503859D01*
X17199676Y1503859D02*
X16594914Y1745764D01*
X16594914Y1745764D02*
X17199676Y1987668D01*
X17199676Y1987668D02*
X16353009Y2229573D01*
X16353009Y2592430D02*
X17199676Y2834335D01*
X17199676Y2834335D02*
X16594914Y3076240D01*
X16594914Y3076240D02*
X17199676Y3318144D01*
X17199676Y3318144D02*
X16353009Y3560049D01*
X16353009Y3922906D02*
X17199676Y4164811D01*
X17199676Y4164811D02*
X16594914Y4406716D01*
X16594914Y4406716D02*
X17199676Y4648620D01*
X17199676Y4648620D02*
X16353009Y4890525D01*
X17078723Y5374334D02*
X17139200Y5434811D01*
X17139200Y5434811D02*
X17199676Y5374334D01*
X17199676Y5374334D02*
X17139200Y5313858D01*
X17139200Y5313858D02*
X17078723Y5374334D01*
X17078723Y5374334D02*
X17199676Y5374334D01*
X17199676Y6160525D02*
X17139200Y6039573D01*
X17139200Y6039573D02*
X17078723Y5979096D01*
X17078723Y5979096D02*
X16957771Y5918620D01*
X16957771Y5918620D02*
X16594914Y5918620D01*
X16594914Y5918620D02*
X16473961Y5979096D01*
X16473961Y5979096D02*
X16413485Y6039573D01*
X16413485Y6039573D02*
X16353009Y6160525D01*
X16353009Y6160525D02*
X16353009Y6341954D01*
X16353009Y6341954D02*
X16413485Y6462906D01*
X16413485Y6462906D02*
X16473961Y6523382D01*
X16473961Y6523382D02*
X16594914Y6583858D01*
X16594914Y6583858D02*
X16957771Y6583858D01*
X16957771Y6583858D02*
X17078723Y6523382D01*
X17078723Y6523382D02*
X17139200Y6462906D01*
X17139200Y6462906D02*
X17199676Y6341954D01*
X17199676Y6341954D02*
X17199676Y6160525D01*
X17199676Y7309573D02*
X17139200Y7188621D01*
X17139200Y7188621D02*
X17018247Y7128144D01*
X17018247Y7128144D02*
X15929676Y7128144D01*
X17199676Y7793382D02*
X16353009Y7793382D01*
X15929676Y7793382D02*
X15990152Y7732906D01*
X15990152Y7732906D02*
X16050628Y7793382D01*
X16050628Y7793382D02*
X15990152Y7853859D01*
X15990152Y7853859D02*
X15929676Y7793382D01*
X15929676Y7793382D02*
X16050628Y7793382D01*
X17199676Y8398144D02*
X16353009Y8398144D01*
X16473961Y8398144D02*
X16413485Y8458621D01*
X16413485Y8458621D02*
X16353009Y8579573D01*
X16353009Y8579573D02*
X16353009Y8761002D01*
X16353009Y8761002D02*
X16413485Y8881954D01*
X16413485Y8881954D02*
X16534438Y8942430D01*
X16534438Y8942430D02*
X17199676Y8942430D01*
X16534438Y8942430D02*
X16413485Y9002906D01*
X16413485Y9002906D02*
X16353009Y9123859D01*
X16353009Y9123859D02*
X16353009Y9305287D01*
X16353009Y9305287D02*
X16413485Y9426240D01*
X16413485Y9426240D02*
X16534438Y9486716D01*
X16534438Y9486716D02*
X17199676Y9486716D01*
X17139200Y10575287D02*
X17199676Y10454335D01*
X17199676Y10454335D02*
X17199676Y10212430D01*
X17199676Y10212430D02*
X17139200Y10091477D01*
X17139200Y10091477D02*
X17018247Y10031001D01*
X17018247Y10031001D02*
X16534438Y10031001D01*
X16534438Y10031001D02*
X16413485Y10091477D01*
X16413485Y10091477D02*
X16353009Y10212430D01*
X16353009Y10212430D02*
X16353009Y10454335D01*
X16353009Y10454335D02*
X16413485Y10575287D01*
X16413485Y10575287D02*
X16534438Y10635763D01*
X16534438Y10635763D02*
X16655390Y10635763D01*
X16655390Y10635763D02*
X16776342Y10031001D01*
X17199676Y11059096D02*
X16353009Y11724334D01*
X16353009Y11059096D02*
X17199676Y11724334D01*
X17078723Y12208143D02*
X17139200Y12268620D01*
X17139200Y12268620D02*
X17199676Y12208143D01*
X17199676Y12208143D02*
X17139200Y12147667D01*
X17139200Y12147667D02*
X17078723Y12208143D01*
X17078723Y12208143D02*
X17199676Y12208143D01*
X17139200Y13357191D02*
X17199676Y13236239D01*
X17199676Y13236239D02*
X17199676Y12994334D01*
X17199676Y12994334D02*
X17139200Y12873382D01*
X17139200Y12873382D02*
X17078723Y12812905D01*
X17078723Y12812905D02*
X16957771Y12752429D01*
X16957771Y12752429D02*
X16594914Y12752429D01*
X16594914Y12752429D02*
X16473961Y12812905D01*
X16473961Y12812905D02*
X16413485Y12873382D01*
X16413485Y12873382D02*
X16353009Y12994334D01*
X16353009Y12994334D02*
X16353009Y13236239D01*
X16353009Y13236239D02*
X16413485Y13357191D01*
X17199676Y14082905D02*
X17139200Y13961953D01*
X17139200Y13961953D02*
X17078723Y13901476D01*
X17078723Y13901476D02*
X16957771Y13841000D01*
X16957771Y13841000D02*
X16594914Y13841000D01*
X16594914Y13841000D02*
X16473961Y13901476D01*
X16473961Y13901476D02*
X16413485Y13961953D01*
X16413485Y13961953D02*
X16353009Y14082905D01*
X16353009Y14082905D02*
X16353009Y14264334D01*
X16353009Y14264334D02*
X16413485Y14385286D01*
X16413485Y14385286D02*
X16473961Y14445762D01*
X16473961Y14445762D02*
X16594914Y14506238D01*
X16594914Y14506238D02*
X16957771Y14506238D01*
X16957771Y14506238D02*
X17078723Y14445762D01*
X17078723Y14445762D02*
X17139200Y14385286D01*
X17139200Y14385286D02*
X17199676Y14264334D01*
X17199676Y14264334D02*
X17199676Y14082905D01*
X17199676Y15050524D02*
X16353009Y15050524D01*
X16473961Y15050524D02*
X16413485Y15111001D01*
X16413485Y15111001D02*
X16353009Y15231953D01*
X16353009Y15231953D02*
X16353009Y15413382D01*
X16353009Y15413382D02*
X16413485Y15534334D01*
X16413485Y15534334D02*
X16534438Y15594810D01*
X16534438Y15594810D02*
X17199676Y15594810D01*
X16534438Y15594810D02*
X16413485Y15655286D01*
X16413485Y15655286D02*
X16353009Y15776239D01*
X16353009Y15776239D02*
X16353009Y15957667D01*
X16353009Y15957667D02*
X16413485Y16078620D01*
X16413485Y16078620D02*
X16534438Y16139096D01*
X16534438Y16139096D02*
X17199676Y16139096D01*
D10*
X32990628Y17824833D02*
X33474438Y17824833D01*
X32893866Y17534548D02*
X33232533Y18550548D01*
X33232533Y18550548D02*
X33571200Y17534548D01*
X11019628Y15792833D02*
X11503438Y15792833D01*
X10922866Y15502548D02*
X11261533Y16518548D01*
X11261533Y16518548D02*
X11600200Y15502548D01*
X40945476Y938188D02*
X40606809Y1421997D01*
X40364904Y938188D02*
X40364904Y1954188D01*
X40364904Y1954188D02*
X40751952Y1954188D01*
X40751952Y1954188D02*
X40848714Y1905807D01*
X40848714Y1905807D02*
X40897095Y1857426D01*
X40897095Y1857426D02*
X40945476Y1760664D01*
X40945476Y1760664D02*
X40945476Y1615521D01*
X40945476Y1615521D02*
X40897095Y1518759D01*
X40897095Y1518759D02*
X40848714Y1470378D01*
X40848714Y1470378D02*
X40751952Y1421997D01*
X40751952Y1421997D02*
X40364904Y1421997D01*
X41767952Y986568D02*
X41671190Y938188D01*
X41671190Y938188D02*
X41477666Y938188D01*
X41477666Y938188D02*
X41380904Y986568D01*
X41380904Y986568D02*
X41332523Y1083330D01*
X41332523Y1083330D02*
X41332523Y1470378D01*
X41332523Y1470378D02*
X41380904Y1567140D01*
X41380904Y1567140D02*
X41477666Y1615521D01*
X41477666Y1615521D02*
X41671190Y1615521D01*
X41671190Y1615521D02*
X41767952Y1567140D01*
X41767952Y1567140D02*
X41816333Y1470378D01*
X41816333Y1470378D02*
X41816333Y1373616D01*
X41816333Y1373616D02*
X41332523Y1276854D01*
X42154999Y1615521D02*
X42396904Y938188D01*
X42396904Y938188D02*
X42638809Y1615521D01*
X43025856Y1034949D02*
X43074237Y986568D01*
X43074237Y986568D02*
X43025856Y938188D01*
X43025856Y938188D02*
X42977475Y986568D01*
X42977475Y986568D02*
X43025856Y1034949D01*
X43025856Y1034949D02*
X43025856Y938188D01*
X43509666Y1470378D02*
X43848333Y1470378D01*
X43993476Y938188D02*
X43509666Y938188D01*
X43509666Y938188D02*
X43509666Y1954188D01*
X43509666Y1954188D02*
X43993476Y1954188D01*
D13*
X46534045Y8612834D02*
X46576379Y8570501D01*
X46576379Y8570501D02*
X46618712Y8443501D01*
X46618712Y8443501D02*
X46618712Y8358834D01*
X46618712Y8358834D02*
X46576379Y8231834D01*
X46576379Y8231834D02*
X46491712Y8147167D01*
X46491712Y8147167D02*
X46407045Y8104834D01*
X46407045Y8104834D02*
X46237712Y8062501D01*
X46237712Y8062501D02*
X46110712Y8062501D01*
X46110712Y8062501D02*
X45941379Y8104834D01*
X45941379Y8104834D02*
X45856712Y8147167D01*
X45856712Y8147167D02*
X45772045Y8231834D01*
X45772045Y8231834D02*
X45729712Y8358834D01*
X45729712Y8358834D02*
X45729712Y8443501D01*
X45729712Y8443501D02*
X45772045Y8570501D01*
X45772045Y8570501D02*
X45814379Y8612834D01*
X45814379Y8951501D02*
X45772045Y8993834D01*
X45772045Y8993834D02*
X45729712Y9078501D01*
X45729712Y9078501D02*
X45729712Y9290167D01*
X45729712Y9290167D02*
X45772045Y9374834D01*
X45772045Y9374834D02*
X45814379Y9417167D01*
X45814379Y9417167D02*
X45899045Y9459501D01*
X45899045Y9459501D02*
X45983712Y9459501D01*
X45983712Y9459501D02*
X46110712Y9417167D01*
X46110712Y9417167D02*
X46618712Y8909167D01*
X46618712Y8909167D02*
X46618712Y9459501D01*
X20670833Y9207955D02*
X20628500Y9165621D01*
X20628500Y9165621D02*
X20501500Y9123288D01*
X20501500Y9123288D02*
X20416833Y9123288D01*
X20416833Y9123288D02*
X20289833Y9165621D01*
X20289833Y9165621D02*
X20205167Y9250288D01*
X20205167Y9250288D02*
X20162833Y9334955D01*
X20162833Y9334955D02*
X20120500Y9504288D01*
X20120500Y9504288D02*
X20120500Y9631288D01*
X20120500Y9631288D02*
X20162833Y9800621D01*
X20162833Y9800621D02*
X20205167Y9885288D01*
X20205167Y9885288D02*
X20289833Y9969955D01*
X20289833Y9969955D02*
X20416833Y10012288D01*
X20416833Y10012288D02*
X20501500Y10012288D01*
X20501500Y10012288D02*
X20628500Y9969955D01*
X20628500Y9969955D02*
X20670833Y9927621D01*
X20967167Y10012288D02*
X21517500Y10012288D01*
X21517500Y10012288D02*
X21221167Y9673621D01*
X21221167Y9673621D02*
X21348167Y9673621D01*
X21348167Y9673621D02*
X21432833Y9631288D01*
X21432833Y9631288D02*
X21475167Y9588955D01*
X21475167Y9588955D02*
X21517500Y9504288D01*
X21517500Y9504288D02*
X21517500Y9292621D01*
X21517500Y9292621D02*
X21475167Y9207955D01*
X21475167Y9207955D02*
X21432833Y9165621D01*
X21432833Y9165621D02*
X21348167Y9123288D01*
X21348167Y9123288D02*
X21094167Y9123288D01*
X21094167Y9123288D02*
X21009500Y9165621D01*
X21009500Y9165621D02*
X20967167Y9207955D01*
X20670833Y7810955D02*
X20628500Y7768621D01*
X20628500Y7768621D02*
X20501500Y7726288D01*
X20501500Y7726288D02*
X20416833Y7726288D01*
X20416833Y7726288D02*
X20289833Y7768621D01*
X20289833Y7768621D02*
X20205167Y7853288D01*
X20205167Y7853288D02*
X20162833Y7937955D01*
X20162833Y7937955D02*
X20120500Y8107288D01*
X20120500Y8107288D02*
X20120500Y8234288D01*
X20120500Y8234288D02*
X20162833Y8403621D01*
X20162833Y8403621D02*
X20205167Y8488288D01*
X20205167Y8488288D02*
X20289833Y8572955D01*
X20289833Y8572955D02*
X20416833Y8615288D01*
X20416833Y8615288D02*
X20501500Y8615288D01*
X20501500Y8615288D02*
X20628500Y8572955D01*
X20628500Y8572955D02*
X20670833Y8530621D01*
X21432833Y8318955D02*
X21432833Y7726288D01*
X21221167Y8657621D02*
X21009500Y8022621D01*
X21009500Y8022621D02*
X21559833Y8022621D01*
X47801833Y12134955D02*
X47759500Y12092621D01*
X47759500Y12092621D02*
X47632500Y12050288D01*
X47632500Y12050288D02*
X47547833Y12050288D01*
X47547833Y12050288D02*
X47420833Y12092621D01*
X47420833Y12092621D02*
X47336167Y12177288D01*
X47336167Y12177288D02*
X47293833Y12261955D01*
X47293833Y12261955D02*
X47251500Y12431288D01*
X47251500Y12431288D02*
X47251500Y12558288D01*
X47251500Y12558288D02*
X47293833Y12727621D01*
X47293833Y12727621D02*
X47336167Y12812288D01*
X47336167Y12812288D02*
X47420833Y12896955D01*
X47420833Y12896955D02*
X47547833Y12939288D01*
X47547833Y12939288D02*
X47632500Y12939288D01*
X47632500Y12939288D02*
X47759500Y12896955D01*
X47759500Y12896955D02*
X47801833Y12854621D01*
X48606167Y12939288D02*
X48182833Y12939288D01*
X48182833Y12939288D02*
X48140500Y12515955D01*
X48140500Y12515955D02*
X48182833Y12558288D01*
X48182833Y12558288D02*
X48267500Y12600621D01*
X48267500Y12600621D02*
X48479167Y12600621D01*
X48479167Y12600621D02*
X48563833Y12558288D01*
X48563833Y12558288D02*
X48606167Y12515955D01*
X48606167Y12515955D02*
X48648500Y12431288D01*
X48648500Y12431288D02*
X48648500Y12219621D01*
X48648500Y12219621D02*
X48606167Y12134955D01*
X48606167Y12134955D02*
X48563833Y12092621D01*
X48563833Y12092621D02*
X48479167Y12050288D01*
X48479167Y12050288D02*
X48267500Y12050288D01*
X48267500Y12050288D02*
X48182833Y12092621D01*
X48182833Y12092621D02*
X48140500Y12134955D01*
X42597045Y14962834D02*
X42639379Y14920501D01*
X42639379Y14920501D02*
X42681712Y14793501D01*
X42681712Y14793501D02*
X42681712Y14708834D01*
X42681712Y14708834D02*
X42639379Y14581834D01*
X42639379Y14581834D02*
X42554712Y14497167D01*
X42554712Y14497167D02*
X42470045Y14454834D01*
X42470045Y14454834D02*
X42300712Y14412501D01*
X42300712Y14412501D02*
X42173712Y14412501D01*
X42173712Y14412501D02*
X42004379Y14454834D01*
X42004379Y14454834D02*
X41919712Y14497167D01*
X41919712Y14497167D02*
X41835045Y14581834D01*
X41835045Y14581834D02*
X41792712Y14708834D01*
X41792712Y14708834D02*
X41792712Y14793501D01*
X41792712Y14793501D02*
X41835045Y14920501D01*
X41835045Y14920501D02*
X41877379Y14962834D01*
X41792712Y15724834D02*
X41792712Y15555501D01*
X41792712Y15555501D02*
X41835045Y15470834D01*
X41835045Y15470834D02*
X41877379Y15428501D01*
X41877379Y15428501D02*
X42004379Y15343834D01*
X42004379Y15343834D02*
X42173712Y15301501D01*
X42173712Y15301501D02*
X42512379Y15301501D01*
X42512379Y15301501D02*
X42597045Y15343834D01*
X42597045Y15343834D02*
X42639379Y15386167D01*
X42639379Y15386167D02*
X42681712Y15470834D01*
X42681712Y15470834D02*
X42681712Y15640167D01*
X42681712Y15640167D02*
X42639379Y15724834D01*
X42639379Y15724834D02*
X42597045Y15767167D01*
X42597045Y15767167D02*
X42512379Y15809501D01*
X42512379Y15809501D02*
X42300712Y15809501D01*
X42300712Y15809501D02*
X42216045Y15767167D01*
X42216045Y15767167D02*
X42173712Y15724834D01*
X42173712Y15724834D02*
X42131379Y15640167D01*
X42131379Y15640167D02*
X42131379Y15470834D01*
X42131379Y15470834D02*
X42173712Y15386167D01*
X42173712Y15386167D02*
X42216045Y15343834D01*
X42216045Y15343834D02*
X42300712Y15301501D01*
X28544833Y17716955D02*
X28502500Y17674621D01*
X28502500Y17674621D02*
X28375500Y17632288D01*
X28375500Y17632288D02*
X28290833Y17632288D01*
X28290833Y17632288D02*
X28163833Y17674621D01*
X28163833Y17674621D02*
X28079167Y17759288D01*
X28079167Y17759288D02*
X28036833Y17843955D01*
X28036833Y17843955D02*
X27994500Y18013288D01*
X27994500Y18013288D02*
X27994500Y18140288D01*
X27994500Y18140288D02*
X28036833Y18309621D01*
X28036833Y18309621D02*
X28079167Y18394288D01*
X28079167Y18394288D02*
X28163833Y18478955D01*
X28163833Y18478955D02*
X28290833Y18521288D01*
X28290833Y18521288D02*
X28375500Y18521288D01*
X28375500Y18521288D02*
X28502500Y18478955D01*
X28502500Y18478955D02*
X28544833Y18436621D01*
X28841167Y18521288D02*
X29433833Y18521288D01*
X29433833Y18521288D02*
X29052833Y17632288D01*
X17578045Y17502834D02*
X17620379Y17460501D01*
X17620379Y17460501D02*
X17662712Y17333501D01*
X17662712Y17333501D02*
X17662712Y17248834D01*
X17662712Y17248834D02*
X17620379Y17121834D01*
X17620379Y17121834D02*
X17535712Y17037167D01*
X17535712Y17037167D02*
X17451045Y16994834D01*
X17451045Y16994834D02*
X17281712Y16952501D01*
X17281712Y16952501D02*
X17154712Y16952501D01*
X17154712Y16952501D02*
X16985379Y16994834D01*
X16985379Y16994834D02*
X16900712Y17037167D01*
X16900712Y17037167D02*
X16816045Y17121834D01*
X16816045Y17121834D02*
X16773712Y17248834D01*
X16773712Y17248834D02*
X16773712Y17333501D01*
X16773712Y17333501D02*
X16816045Y17460501D01*
X16816045Y17460501D02*
X16858379Y17502834D01*
X17154712Y18010834D02*
X17112379Y17926167D01*
X17112379Y17926167D02*
X17070045Y17883834D01*
X17070045Y17883834D02*
X16985379Y17841501D01*
X16985379Y17841501D02*
X16943045Y17841501D01*
X16943045Y17841501D02*
X16858379Y17883834D01*
X16858379Y17883834D02*
X16816045Y17926167D01*
X16816045Y17926167D02*
X16773712Y18010834D01*
X16773712Y18010834D02*
X16773712Y18180167D01*
X16773712Y18180167D02*
X16816045Y18264834D01*
X16816045Y18264834D02*
X16858379Y18307167D01*
X16858379Y18307167D02*
X16943045Y18349501D01*
X16943045Y18349501D02*
X16985379Y18349501D01*
X16985379Y18349501D02*
X17070045Y18307167D01*
X17070045Y18307167D02*
X17112379Y18264834D01*
X17112379Y18264834D02*
X17154712Y18180167D01*
X17154712Y18180167D02*
X17154712Y18010834D01*
X17154712Y18010834D02*
X17197045Y17926167D01*
X17197045Y17926167D02*
X17239379Y17883834D01*
X17239379Y17883834D02*
X17324045Y17841501D01*
X17324045Y17841501D02*
X17493379Y17841501D01*
X17493379Y17841501D02*
X17578045Y17883834D01*
X17578045Y17883834D02*
X17620379Y17926167D01*
X17620379Y17926167D02*
X17662712Y18010834D01*
X17662712Y18010834D02*
X17662712Y18180167D01*
X17662712Y18180167D02*
X17620379Y18264834D01*
X17620379Y18264834D02*
X17578045Y18307167D01*
X17578045Y18307167D02*
X17493379Y18349501D01*
X17493379Y18349501D02*
X17324045Y18349501D01*
X17324045Y18349501D02*
X17239379Y18307167D01*
X17239379Y18307167D02*
X17197045Y18264834D01*
X17197045Y18264834D02*
X17154712Y18180167D01*
D10*
X11378667Y3066949D02*
X11330286Y3018568D01*
X11330286Y3018568D02*
X11185143Y2970188D01*
X11185143Y2970188D02*
X11088381Y2970188D01*
X11088381Y2970188D02*
X10943238Y3018568D01*
X10943238Y3018568D02*
X10846476Y3115330D01*
X10846476Y3115330D02*
X10798095Y3212092D01*
X10798095Y3212092D02*
X10749714Y3405616D01*
X10749714Y3405616D02*
X10749714Y3550759D01*
X10749714Y3550759D02*
X10798095Y3744283D01*
X10798095Y3744283D02*
X10846476Y3841045D01*
X10846476Y3841045D02*
X10943238Y3937807D01*
X10943238Y3937807D02*
X11088381Y3986188D01*
X11088381Y3986188D02*
X11185143Y3986188D01*
X11185143Y3986188D02*
X11330286Y3937807D01*
X11330286Y3937807D02*
X11378667Y3889426D01*
X11862476Y2970188D02*
X12056000Y2970188D01*
X12056000Y2970188D02*
X12152762Y3018568D01*
X12152762Y3018568D02*
X12201143Y3066949D01*
X12201143Y3066949D02*
X12297905Y3212092D01*
X12297905Y3212092D02*
X12346286Y3405616D01*
X12346286Y3405616D02*
X12346286Y3792664D01*
X12346286Y3792664D02*
X12297905Y3889426D01*
X12297905Y3889426D02*
X12249524Y3937807D01*
X12249524Y3937807D02*
X12152762Y3986188D01*
X12152762Y3986188D02*
X11959238Y3986188D01*
X11959238Y3986188D02*
X11862476Y3937807D01*
X11862476Y3937807D02*
X11814095Y3889426D01*
X11814095Y3889426D02*
X11765714Y3792664D01*
X11765714Y3792664D02*
X11765714Y3550759D01*
X11765714Y3550759D02*
X11814095Y3453997D01*
X11814095Y3453997D02*
X11862476Y3405616D01*
X11862476Y3405616D02*
X11959238Y3357235D01*
X11959238Y3357235D02*
X12152762Y3357235D01*
X12152762Y3357235D02*
X12249524Y3405616D01*
X12249524Y3405616D02*
X12297905Y3453997D01*
X12297905Y3453997D02*
X12346286Y3550759D01*
D13*
X20880045Y12507500D02*
X20922379Y12465167D01*
X20922379Y12465167D02*
X20964712Y12338167D01*
X20964712Y12338167D02*
X20964712Y12253500D01*
X20964712Y12253500D02*
X20922379Y12126500D01*
X20922379Y12126500D02*
X20837712Y12041833D01*
X20837712Y12041833D02*
X20753045Y11999500D01*
X20753045Y11999500D02*
X20583712Y11957167D01*
X20583712Y11957167D02*
X20456712Y11957167D01*
X20456712Y11957167D02*
X20287379Y11999500D01*
X20287379Y11999500D02*
X20202712Y12041833D01*
X20202712Y12041833D02*
X20118045Y12126500D01*
X20118045Y12126500D02*
X20075712Y12253500D01*
X20075712Y12253500D02*
X20075712Y12338167D01*
X20075712Y12338167D02*
X20118045Y12465167D01*
X20118045Y12465167D02*
X20160379Y12507500D01*
X20964712Y13354167D02*
X20964712Y12846167D01*
X20964712Y13100167D02*
X20075712Y13100167D01*
X20075712Y13100167D02*
X20202712Y13015500D01*
X20202712Y13015500D02*
X20287379Y12930833D01*
X20287379Y12930833D02*
X20329712Y12846167D01*
X20075712Y13904500D02*
X20075712Y13989167D01*
X20075712Y13989167D02*
X20118045Y14073834D01*
X20118045Y14073834D02*
X20160379Y14116167D01*
X20160379Y14116167D02*
X20245045Y14158500D01*
X20245045Y14158500D02*
X20414379Y14200834D01*
X20414379Y14200834D02*
X20626045Y14200834D01*
X20626045Y14200834D02*
X20795379Y14158500D01*
X20795379Y14158500D02*
X20880045Y14116167D01*
X20880045Y14116167D02*
X20922379Y14073834D01*
X20922379Y14073834D02*
X20964712Y13989167D01*
X20964712Y13989167D02*
X20964712Y13904500D01*
X20964712Y13904500D02*
X20922379Y13819834D01*
X20922379Y13819834D02*
X20880045Y13777500D01*
X20880045Y13777500D02*
X20795379Y13735167D01*
X20795379Y13735167D02*
X20626045Y13692834D01*
X20626045Y13692834D02*
X20414379Y13692834D01*
X20414379Y13692834D02*
X20245045Y13735167D01*
X20245045Y13735167D02*
X20160379Y13777500D01*
X20160379Y13777500D02*
X20118045Y13819834D01*
X20118045Y13819834D02*
X20075712Y13904500D01*
X18975045Y950500D02*
X19017379Y908167D01*
X19017379Y908167D02*
X19059712Y781167D01*
X19059712Y781167D02*
X19059712Y696500D01*
X19059712Y696500D02*
X19017379Y569500D01*
X19017379Y569500D02*
X18932712Y484833D01*
X18932712Y484833D02*
X18848045Y442500D01*
X18848045Y442500D02*
X18678712Y400167D01*
X18678712Y400167D02*
X18551712Y400167D01*
X18551712Y400167D02*
X18382379Y442500D01*
X18382379Y442500D02*
X18297712Y484833D01*
X18297712Y484833D02*
X18213045Y569500D01*
X18213045Y569500D02*
X18170712Y696500D01*
X18170712Y696500D02*
X18170712Y781167D01*
X18170712Y781167D02*
X18213045Y908167D01*
X18213045Y908167D02*
X18255379Y950500D01*
X19059712Y1797167D02*
X19059712Y1289167D01*
X19059712Y1543167D02*
X18170712Y1543167D01*
X18170712Y1543167D02*
X18297712Y1458500D01*
X18297712Y1458500D02*
X18382379Y1373833D01*
X18382379Y1373833D02*
X18424712Y1289167D01*
X19059712Y2643834D02*
X19059712Y2135834D01*
X19059712Y2389834D02*
X18170712Y2389834D01*
X18170712Y2389834D02*
X18297712Y2305167D01*
X18297712Y2305167D02*
X18382379Y2220500D01*
X18382379Y2220500D02*
X18424712Y2135834D01*
X42980499Y5524955D02*
X42938166Y5482621D01*
X42938166Y5482621D02*
X42811166Y5440288D01*
X42811166Y5440288D02*
X42726499Y5440288D01*
X42726499Y5440288D02*
X42599499Y5482621D01*
X42599499Y5482621D02*
X42514833Y5567288D01*
X42514833Y5567288D02*
X42472499Y5651955D01*
X42472499Y5651955D02*
X42430166Y5821288D01*
X42430166Y5821288D02*
X42430166Y5948288D01*
X42430166Y5948288D02*
X42472499Y6117621D01*
X42472499Y6117621D02*
X42514833Y6202288D01*
X42514833Y6202288D02*
X42599499Y6286955D01*
X42599499Y6286955D02*
X42726499Y6329288D01*
X42726499Y6329288D02*
X42811166Y6329288D01*
X42811166Y6329288D02*
X42938166Y6286955D01*
X42938166Y6286955D02*
X42980499Y6244621D01*
X43827166Y5440288D02*
X43319166Y5440288D01*
X43573166Y5440288D02*
X43573166Y6329288D01*
X43573166Y6329288D02*
X43488499Y6202288D01*
X43488499Y6202288D02*
X43403833Y6117621D01*
X43403833Y6117621D02*
X43319166Y6075288D01*
X44165833Y6244621D02*
X44208166Y6286955D01*
X44208166Y6286955D02*
X44292833Y6329288D01*
X44292833Y6329288D02*
X44504500Y6329288D01*
X44504500Y6329288D02*
X44589166Y6286955D01*
X44589166Y6286955D02*
X44631500Y6244621D01*
X44631500Y6244621D02*
X44673833Y6159955D01*
X44673833Y6159955D02*
X44673833Y6075288D01*
X44673833Y6075288D02*
X44631500Y5948288D01*
X44631500Y5948288D02*
X44123500Y5440288D01*
X44123500Y5440288D02*
X44673833Y5440288D01*
X32312499Y5143955D02*
X32270166Y5101621D01*
X32270166Y5101621D02*
X32143166Y5059288D01*
X32143166Y5059288D02*
X32058499Y5059288D01*
X32058499Y5059288D02*
X31931499Y5101621D01*
X31931499Y5101621D02*
X31846833Y5186288D01*
X31846833Y5186288D02*
X31804499Y5270955D01*
X31804499Y5270955D02*
X31762166Y5440288D01*
X31762166Y5440288D02*
X31762166Y5567288D01*
X31762166Y5567288D02*
X31804499Y5736621D01*
X31804499Y5736621D02*
X31846833Y5821288D01*
X31846833Y5821288D02*
X31931499Y5905955D01*
X31931499Y5905955D02*
X32058499Y5948288D01*
X32058499Y5948288D02*
X32143166Y5948288D01*
X32143166Y5948288D02*
X32270166Y5905955D01*
X32270166Y5905955D02*
X32312499Y5863621D01*
X33159166Y5059288D02*
X32651166Y5059288D01*
X32905166Y5059288D02*
X32905166Y5948288D01*
X32905166Y5948288D02*
X32820499Y5821288D01*
X32820499Y5821288D02*
X32735833Y5736621D01*
X32735833Y5736621D02*
X32651166Y5694288D01*
X33921166Y5651955D02*
X33921166Y5059288D01*
X33709500Y5990621D02*
X33497833Y5355621D01*
X33497833Y5355621D02*
X34048166Y5355621D01*
D14*
X27154485Y14187960D02*
X27115781Y14149255D01*
X27115781Y14149255D02*
X26999666Y14110551D01*
X26999666Y14110551D02*
X26922257Y14110551D01*
X26922257Y14110551D02*
X26806143Y14149255D01*
X26806143Y14149255D02*
X26728733Y14226665D01*
X26728733Y14226665D02*
X26690028Y14304075D01*
X26690028Y14304075D02*
X26651324Y14458894D01*
X26651324Y14458894D02*
X26651324Y14575008D01*
X26651324Y14575008D02*
X26690028Y14729827D01*
X26690028Y14729827D02*
X26728733Y14807236D01*
X26728733Y14807236D02*
X26806143Y14884646D01*
X26806143Y14884646D02*
X26922257Y14923351D01*
X26922257Y14923351D02*
X26999666Y14923351D01*
X26999666Y14923351D02*
X27115781Y14884646D01*
X27115781Y14884646D02*
X27154485Y14845941D01*
X27928581Y14110551D02*
X27464124Y14110551D01*
X27696352Y14110551D02*
X27696352Y14923351D01*
X27696352Y14923351D02*
X27618943Y14807236D01*
X27618943Y14807236D02*
X27541533Y14729827D01*
X27541533Y14729827D02*
X27464124Y14691122D01*
X28663971Y14923351D02*
X28276923Y14923351D01*
X28276923Y14923351D02*
X28238219Y14536303D01*
X28238219Y14536303D02*
X28276923Y14575008D01*
X28276923Y14575008D02*
X28354333Y14613713D01*
X28354333Y14613713D02*
X28547857Y14613713D01*
X28547857Y14613713D02*
X28625266Y14575008D01*
X28625266Y14575008D02*
X28663971Y14536303D01*
X28663971Y14536303D02*
X28702676Y14458894D01*
X28702676Y14458894D02*
X28702676Y14265370D01*
X28702676Y14265370D02*
X28663971Y14187960D01*
X28663971Y14187960D02*
X28625266Y14149255D01*
X28625266Y14149255D02*
X28547857Y14110551D01*
X28547857Y14110551D02*
X28354333Y14110551D01*
X28354333Y14110551D02*
X28276923Y14149255D01*
X28276923Y14149255D02*
X28238219Y14187960D01*
D13*
X19866499Y10604955D02*
X19824166Y10562621D01*
X19824166Y10562621D02*
X19697166Y10520288D01*
X19697166Y10520288D02*
X19612499Y10520288D01*
X19612499Y10520288D02*
X19485499Y10562621D01*
X19485499Y10562621D02*
X19400833Y10647288D01*
X19400833Y10647288D02*
X19358499Y10731955D01*
X19358499Y10731955D02*
X19316166Y10901288D01*
X19316166Y10901288D02*
X19316166Y11028288D01*
X19316166Y11028288D02*
X19358499Y11197621D01*
X19358499Y11197621D02*
X19400833Y11282288D01*
X19400833Y11282288D02*
X19485499Y11366955D01*
X19485499Y11366955D02*
X19612499Y11409288D01*
X19612499Y11409288D02*
X19697166Y11409288D01*
X19697166Y11409288D02*
X19824166Y11366955D01*
X19824166Y11366955D02*
X19866499Y11324621D01*
X20713166Y10520288D02*
X20205166Y10520288D01*
X20459166Y10520288D02*
X20459166Y11409288D01*
X20459166Y11409288D02*
X20374499Y11282288D01*
X20374499Y11282288D02*
X20289833Y11197621D01*
X20289833Y11197621D02*
X20205166Y11155288D01*
X21475166Y11409288D02*
X21305833Y11409288D01*
X21305833Y11409288D02*
X21221166Y11366955D01*
X21221166Y11366955D02*
X21178833Y11324621D01*
X21178833Y11324621D02*
X21094166Y11197621D01*
X21094166Y11197621D02*
X21051833Y11028288D01*
X21051833Y11028288D02*
X21051833Y10689621D01*
X21051833Y10689621D02*
X21094166Y10604955D01*
X21094166Y10604955D02*
X21136500Y10562621D01*
X21136500Y10562621D02*
X21221166Y10520288D01*
X21221166Y10520288D02*
X21390500Y10520288D01*
X21390500Y10520288D02*
X21475166Y10562621D01*
X21475166Y10562621D02*
X21517500Y10604955D01*
X21517500Y10604955D02*
X21559833Y10689621D01*
X21559833Y10689621D02*
X21559833Y10901288D01*
X21559833Y10901288D02*
X21517500Y10985955D01*
X21517500Y10985955D02*
X21475166Y11028288D01*
X21475166Y11028288D02*
X21390500Y11070621D01*
X21390500Y11070621D02*
X21221166Y11070621D01*
X21221166Y11070621D02*
X21136500Y11028288D01*
X21136500Y11028288D02*
X21094166Y10985955D01*
X21094166Y10985955D02*
X21051833Y10901288D01*
D14*
X38965485Y12155960D02*
X38926781Y12117255D01*
X38926781Y12117255D02*
X38810666Y12078551D01*
X38810666Y12078551D02*
X38733257Y12078551D01*
X38733257Y12078551D02*
X38617143Y12117255D01*
X38617143Y12117255D02*
X38539733Y12194665D01*
X38539733Y12194665D02*
X38501028Y12272075D01*
X38501028Y12272075D02*
X38462324Y12426894D01*
X38462324Y12426894D02*
X38462324Y12543008D01*
X38462324Y12543008D02*
X38501028Y12697827D01*
X38501028Y12697827D02*
X38539733Y12775236D01*
X38539733Y12775236D02*
X38617143Y12852646D01*
X38617143Y12852646D02*
X38733257Y12891351D01*
X38733257Y12891351D02*
X38810666Y12891351D01*
X38810666Y12891351D02*
X38926781Y12852646D01*
X38926781Y12852646D02*
X38965485Y12813941D01*
X39739581Y12078551D02*
X39275124Y12078551D01*
X39507352Y12078551D02*
X39507352Y12891351D01*
X39507352Y12891351D02*
X39429943Y12775236D01*
X39429943Y12775236D02*
X39352533Y12697827D01*
X39352533Y12697827D02*
X39275124Y12659122D01*
X40010514Y12891351D02*
X40552380Y12891351D01*
X40552380Y12891351D02*
X40204038Y12078551D01*
D13*
X21134045Y5522500D02*
X21176379Y5480167D01*
X21176379Y5480167D02*
X21218712Y5353167D01*
X21218712Y5353167D02*
X21218712Y5268500D01*
X21218712Y5268500D02*
X21176379Y5141500D01*
X21176379Y5141500D02*
X21091712Y5056833D01*
X21091712Y5056833D02*
X21007045Y5014500D01*
X21007045Y5014500D02*
X20837712Y4972167D01*
X20837712Y4972167D02*
X20710712Y4972167D01*
X20710712Y4972167D02*
X20541379Y5014500D01*
X20541379Y5014500D02*
X20456712Y5056833D01*
X20456712Y5056833D02*
X20372045Y5141500D01*
X20372045Y5141500D02*
X20329712Y5268500D01*
X20329712Y5268500D02*
X20329712Y5353167D01*
X20329712Y5353167D02*
X20372045Y5480167D01*
X20372045Y5480167D02*
X20414379Y5522500D01*
X21218712Y6369167D02*
X21218712Y5861167D01*
X21218712Y6115167D02*
X20329712Y6115167D01*
X20329712Y6115167D02*
X20456712Y6030500D01*
X20456712Y6030500D02*
X20541379Y5945833D01*
X20541379Y5945833D02*
X20583712Y5861167D01*
X20710712Y6877167D02*
X20668379Y6792500D01*
X20668379Y6792500D02*
X20626045Y6750167D01*
X20626045Y6750167D02*
X20541379Y6707834D01*
X20541379Y6707834D02*
X20499045Y6707834D01*
X20499045Y6707834D02*
X20414379Y6750167D01*
X20414379Y6750167D02*
X20372045Y6792500D01*
X20372045Y6792500D02*
X20329712Y6877167D01*
X20329712Y6877167D02*
X20329712Y7046500D01*
X20329712Y7046500D02*
X20372045Y7131167D01*
X20372045Y7131167D02*
X20414379Y7173500D01*
X20414379Y7173500D02*
X20499045Y7215834D01*
X20499045Y7215834D02*
X20541379Y7215834D01*
X20541379Y7215834D02*
X20626045Y7173500D01*
X20626045Y7173500D02*
X20668379Y7131167D01*
X20668379Y7131167D02*
X20710712Y7046500D01*
X20710712Y7046500D02*
X20710712Y6877167D01*
X20710712Y6877167D02*
X20753045Y6792500D01*
X20753045Y6792500D02*
X20795379Y6750167D01*
X20795379Y6750167D02*
X20880045Y6707834D01*
X20880045Y6707834D02*
X21049379Y6707834D01*
X21049379Y6707834D02*
X21134045Y6750167D01*
X21134045Y6750167D02*
X21176379Y6792500D01*
X21176379Y6792500D02*
X21218712Y6877167D01*
X21218712Y6877167D02*
X21218712Y7046500D01*
X21218712Y7046500D02*
X21176379Y7131167D01*
X21176379Y7131167D02*
X21134045Y7173500D01*
X21134045Y7173500D02*
X21049379Y7215834D01*
X21049379Y7215834D02*
X20880045Y7215834D01*
X20880045Y7215834D02*
X20795379Y7173500D01*
X20795379Y7173500D02*
X20753045Y7131167D01*
X20753045Y7131167D02*
X20710712Y7046500D01*
X18723499Y14922955D02*
X18681166Y14880621D01*
X18681166Y14880621D02*
X18554166Y14838288D01*
X18554166Y14838288D02*
X18469499Y14838288D01*
X18469499Y14838288D02*
X18342499Y14880621D01*
X18342499Y14880621D02*
X18257833Y14965288D01*
X18257833Y14965288D02*
X18215499Y15049955D01*
X18215499Y15049955D02*
X18173166Y15219288D01*
X18173166Y15219288D02*
X18173166Y15346288D01*
X18173166Y15346288D02*
X18215499Y15515621D01*
X18215499Y15515621D02*
X18257833Y15600288D01*
X18257833Y15600288D02*
X18342499Y15684955D01*
X18342499Y15684955D02*
X18469499Y15727288D01*
X18469499Y15727288D02*
X18554166Y15727288D01*
X18554166Y15727288D02*
X18681166Y15684955D01*
X18681166Y15684955D02*
X18723499Y15642621D01*
X19570166Y14838288D02*
X19062166Y14838288D01*
X19316166Y14838288D02*
X19316166Y15727288D01*
X19316166Y15727288D02*
X19231499Y15600288D01*
X19231499Y15600288D02*
X19146833Y15515621D01*
X19146833Y15515621D02*
X19062166Y15473288D01*
X19993500Y14838288D02*
X20162833Y14838288D01*
X20162833Y14838288D02*
X20247500Y14880621D01*
X20247500Y14880621D02*
X20289833Y14922955D01*
X20289833Y14922955D02*
X20374500Y15049955D01*
X20374500Y15049955D02*
X20416833Y15219288D01*
X20416833Y15219288D02*
X20416833Y15557955D01*
X20416833Y15557955D02*
X20374500Y15642621D01*
X20374500Y15642621D02*
X20332166Y15684955D01*
X20332166Y15684955D02*
X20247500Y15727288D01*
X20247500Y15727288D02*
X20078166Y15727288D01*
X20078166Y15727288D02*
X19993500Y15684955D01*
X19993500Y15684955D02*
X19951166Y15642621D01*
X19951166Y15642621D02*
X19908833Y15557955D01*
X19908833Y15557955D02*
X19908833Y15346288D01*
X19908833Y15346288D02*
X19951166Y15261621D01*
X19951166Y15261621D02*
X19993500Y15219288D01*
X19993500Y15219288D02*
X20078166Y15176955D01*
X20078166Y15176955D02*
X20247500Y15176955D01*
X20247500Y15176955D02*
X20332166Y15219288D01*
X20332166Y15219288D02*
X20374500Y15261621D01*
X20374500Y15261621D02*
X20416833Y15346288D01*
X32312499Y9334955D02*
X32270166Y9292621D01*
X32270166Y9292621D02*
X32143166Y9250288D01*
X32143166Y9250288D02*
X32058499Y9250288D01*
X32058499Y9250288D02*
X31931499Y9292621D01*
X31931499Y9292621D02*
X31846833Y9377288D01*
X31846833Y9377288D02*
X31804499Y9461955D01*
X31804499Y9461955D02*
X31762166Y9631288D01*
X31762166Y9631288D02*
X31762166Y9758288D01*
X31762166Y9758288D02*
X31804499Y9927621D01*
X31804499Y9927621D02*
X31846833Y10012288D01*
X31846833Y10012288D02*
X31931499Y10096955D01*
X31931499Y10096955D02*
X32058499Y10139288D01*
X32058499Y10139288D02*
X32143166Y10139288D01*
X32143166Y10139288D02*
X32270166Y10096955D01*
X32270166Y10096955D02*
X32312499Y10054621D01*
X32651166Y10054621D02*
X32693499Y10096955D01*
X32693499Y10096955D02*
X32778166Y10139288D01*
X32778166Y10139288D02*
X32989833Y10139288D01*
X32989833Y10139288D02*
X33074499Y10096955D01*
X33074499Y10096955D02*
X33116833Y10054621D01*
X33116833Y10054621D02*
X33159166Y9969955D01*
X33159166Y9969955D02*
X33159166Y9885288D01*
X33159166Y9885288D02*
X33116833Y9758288D01*
X33116833Y9758288D02*
X32608833Y9250288D01*
X32608833Y9250288D02*
X33159166Y9250288D01*
X33709500Y10139288D02*
X33794166Y10139288D01*
X33794166Y10139288D02*
X33878833Y10096955D01*
X33878833Y10096955D02*
X33921166Y10054621D01*
X33921166Y10054621D02*
X33963500Y9969955D01*
X33963500Y9969955D02*
X34005833Y9800621D01*
X34005833Y9800621D02*
X34005833Y9588955D01*
X34005833Y9588955D02*
X33963500Y9419621D01*
X33963500Y9419621D02*
X33921166Y9334955D01*
X33921166Y9334955D02*
X33878833Y9292621D01*
X33878833Y9292621D02*
X33794166Y9250288D01*
X33794166Y9250288D02*
X33709500Y9250288D01*
X33709500Y9250288D02*
X33624833Y9292621D01*
X33624833Y9292621D02*
X33582500Y9334955D01*
X33582500Y9334955D02*
X33540166Y9419621D01*
X33540166Y9419621D02*
X33497833Y9588955D01*
X33497833Y9588955D02*
X33497833Y9800621D01*
X33497833Y9800621D02*
X33540166Y9969955D01*
X33540166Y9969955D02*
X33582500Y10054621D01*
X33582500Y10054621D02*
X33624833Y10096955D01*
X33624833Y10096955D02*
X33709500Y10139288D01*
D14*
X27154485Y12917960D02*
X27115781Y12879255D01*
X27115781Y12879255D02*
X26999666Y12840551D01*
X26999666Y12840551D02*
X26922257Y12840551D01*
X26922257Y12840551D02*
X26806143Y12879255D01*
X26806143Y12879255D02*
X26728733Y12956665D01*
X26728733Y12956665D02*
X26690028Y13034075D01*
X26690028Y13034075D02*
X26651324Y13188894D01*
X26651324Y13188894D02*
X26651324Y13305008D01*
X26651324Y13305008D02*
X26690028Y13459827D01*
X26690028Y13459827D02*
X26728733Y13537236D01*
X26728733Y13537236D02*
X26806143Y13614646D01*
X26806143Y13614646D02*
X26922257Y13653351D01*
X26922257Y13653351D02*
X26999666Y13653351D01*
X26999666Y13653351D02*
X27115781Y13614646D01*
X27115781Y13614646D02*
X27154485Y13575941D01*
X27464124Y13575941D02*
X27502828Y13614646D01*
X27502828Y13614646D02*
X27580238Y13653351D01*
X27580238Y13653351D02*
X27773762Y13653351D01*
X27773762Y13653351D02*
X27851171Y13614646D01*
X27851171Y13614646D02*
X27889876Y13575941D01*
X27889876Y13575941D02*
X27928581Y13498532D01*
X27928581Y13498532D02*
X27928581Y13421122D01*
X27928581Y13421122D02*
X27889876Y13305008D01*
X27889876Y13305008D02*
X27425419Y12840551D01*
X27425419Y12840551D02*
X27928581Y12840551D01*
X28702676Y12840551D02*
X28238219Y12840551D01*
X28470447Y12840551D02*
X28470447Y13653351D01*
X28470447Y13653351D02*
X28393038Y13537236D01*
X28393038Y13537236D02*
X28315628Y13459827D01*
X28315628Y13459827D02*
X28238219Y13421122D01*
D13*
X32312499Y3746955D02*
X32270166Y3704621D01*
X32270166Y3704621D02*
X32143166Y3662288D01*
X32143166Y3662288D02*
X32058499Y3662288D01*
X32058499Y3662288D02*
X31931499Y3704621D01*
X31931499Y3704621D02*
X31846833Y3789288D01*
X31846833Y3789288D02*
X31804499Y3873955D01*
X31804499Y3873955D02*
X31762166Y4043288D01*
X31762166Y4043288D02*
X31762166Y4170288D01*
X31762166Y4170288D02*
X31804499Y4339621D01*
X31804499Y4339621D02*
X31846833Y4424288D01*
X31846833Y4424288D02*
X31931499Y4508955D01*
X31931499Y4508955D02*
X32058499Y4551288D01*
X32058499Y4551288D02*
X32143166Y4551288D01*
X32143166Y4551288D02*
X32270166Y4508955D01*
X32270166Y4508955D02*
X32312499Y4466621D01*
X32651166Y4466621D02*
X32693499Y4508955D01*
X32693499Y4508955D02*
X32778166Y4551288D01*
X32778166Y4551288D02*
X32989833Y4551288D01*
X32989833Y4551288D02*
X33074499Y4508955D01*
X33074499Y4508955D02*
X33116833Y4466621D01*
X33116833Y4466621D02*
X33159166Y4381955D01*
X33159166Y4381955D02*
X33159166Y4297288D01*
X33159166Y4297288D02*
X33116833Y4170288D01*
X33116833Y4170288D02*
X32608833Y3662288D01*
X32608833Y3662288D02*
X33159166Y3662288D01*
X33497833Y4466621D02*
X33540166Y4508955D01*
X33540166Y4508955D02*
X33624833Y4551288D01*
X33624833Y4551288D02*
X33836500Y4551288D01*
X33836500Y4551288D02*
X33921166Y4508955D01*
X33921166Y4508955D02*
X33963500Y4466621D01*
X33963500Y4466621D02*
X34005833Y4381955D01*
X34005833Y4381955D02*
X34005833Y4297288D01*
X34005833Y4297288D02*
X33963500Y4170288D01*
X33963500Y4170288D02*
X33455500Y3662288D01*
X33455500Y3662288D02*
X34005833Y3662288D01*
X22404045Y950500D02*
X22446379Y908167D01*
X22446379Y908167D02*
X22488712Y781167D01*
X22488712Y781167D02*
X22488712Y696500D01*
X22488712Y696500D02*
X22446379Y569500D01*
X22446379Y569500D02*
X22361712Y484833D01*
X22361712Y484833D02*
X22277045Y442500D01*
X22277045Y442500D02*
X22107712Y400167D01*
X22107712Y400167D02*
X21980712Y400167D01*
X21980712Y400167D02*
X21811379Y442500D01*
X21811379Y442500D02*
X21726712Y484833D01*
X21726712Y484833D02*
X21642045Y569500D01*
X21642045Y569500D02*
X21599712Y696500D01*
X21599712Y696500D02*
X21599712Y781167D01*
X21599712Y781167D02*
X21642045Y908167D01*
X21642045Y908167D02*
X21684379Y950500D01*
X21684379Y1289167D02*
X21642045Y1331500D01*
X21642045Y1331500D02*
X21599712Y1416167D01*
X21599712Y1416167D02*
X21599712Y1627833D01*
X21599712Y1627833D02*
X21642045Y1712500D01*
X21642045Y1712500D02*
X21684379Y1754833D01*
X21684379Y1754833D02*
X21769045Y1797167D01*
X21769045Y1797167D02*
X21853712Y1797167D01*
X21853712Y1797167D02*
X21980712Y1754833D01*
X21980712Y1754833D02*
X22488712Y1246833D01*
X22488712Y1246833D02*
X22488712Y1797167D01*
X21896045Y2559167D02*
X22488712Y2559167D01*
X21557379Y2347500D02*
X22192379Y2135834D01*
X22192379Y2135834D02*
X22192379Y2686167D01*
X20626045Y950500D02*
X20668379Y908167D01*
X20668379Y908167D02*
X20710712Y781167D01*
X20710712Y781167D02*
X20710712Y696500D01*
X20710712Y696500D02*
X20668379Y569500D01*
X20668379Y569500D02*
X20583712Y484833D01*
X20583712Y484833D02*
X20499045Y442500D01*
X20499045Y442500D02*
X20329712Y400167D01*
X20329712Y400167D02*
X20202712Y400167D01*
X20202712Y400167D02*
X20033379Y442500D01*
X20033379Y442500D02*
X19948712Y484833D01*
X19948712Y484833D02*
X19864045Y569500D01*
X19864045Y569500D02*
X19821712Y696500D01*
X19821712Y696500D02*
X19821712Y781167D01*
X19821712Y781167D02*
X19864045Y908167D01*
X19864045Y908167D02*
X19906379Y950500D01*
X19906379Y1289167D02*
X19864045Y1331500D01*
X19864045Y1331500D02*
X19821712Y1416167D01*
X19821712Y1416167D02*
X19821712Y1627833D01*
X19821712Y1627833D02*
X19864045Y1712500D01*
X19864045Y1712500D02*
X19906379Y1754833D01*
X19906379Y1754833D02*
X19991045Y1797167D01*
X19991045Y1797167D02*
X20075712Y1797167D01*
X20075712Y1797167D02*
X20202712Y1754833D01*
X20202712Y1754833D02*
X20710712Y1246833D01*
X20710712Y1246833D02*
X20710712Y1797167D01*
X19821712Y2601500D02*
X19821712Y2178167D01*
X19821712Y2178167D02*
X20245045Y2135834D01*
X20245045Y2135834D02*
X20202712Y2178167D01*
X20202712Y2178167D02*
X20160379Y2262834D01*
X20160379Y2262834D02*
X20160379Y2474500D01*
X20160379Y2474500D02*
X20202712Y2559167D01*
X20202712Y2559167D02*
X20245045Y2601500D01*
X20245045Y2601500D02*
X20329712Y2643834D01*
X20329712Y2643834D02*
X20541379Y2643834D01*
X20541379Y2643834D02*
X20626045Y2601500D01*
X20626045Y2601500D02*
X20668379Y2559167D01*
X20668379Y2559167D02*
X20710712Y2474500D01*
X20710712Y2474500D02*
X20710712Y2262834D01*
X20710712Y2262834D02*
X20668379Y2178167D01*
X20668379Y2178167D02*
X20626045Y2135834D01*
X28121499Y3746955D02*
X28079166Y3704621D01*
X28079166Y3704621D02*
X27952166Y3662288D01*
X27952166Y3662288D02*
X27867499Y3662288D01*
X27867499Y3662288D02*
X27740499Y3704621D01*
X27740499Y3704621D02*
X27655833Y3789288D01*
X27655833Y3789288D02*
X27613499Y3873955D01*
X27613499Y3873955D02*
X27571166Y4043288D01*
X27571166Y4043288D02*
X27571166Y4170288D01*
X27571166Y4170288D02*
X27613499Y4339621D01*
X27613499Y4339621D02*
X27655833Y4424288D01*
X27655833Y4424288D02*
X27740499Y4508955D01*
X27740499Y4508955D02*
X27867499Y4551288D01*
X27867499Y4551288D02*
X27952166Y4551288D01*
X27952166Y4551288D02*
X28079166Y4508955D01*
X28079166Y4508955D02*
X28121499Y4466621D01*
X28460166Y4466621D02*
X28502499Y4508955D01*
X28502499Y4508955D02*
X28587166Y4551288D01*
X28587166Y4551288D02*
X28798833Y4551288D01*
X28798833Y4551288D02*
X28883499Y4508955D01*
X28883499Y4508955D02*
X28925833Y4466621D01*
X28925833Y4466621D02*
X28968166Y4381955D01*
X28968166Y4381955D02*
X28968166Y4297288D01*
X28968166Y4297288D02*
X28925833Y4170288D01*
X28925833Y4170288D02*
X28417833Y3662288D01*
X28417833Y3662288D02*
X28968166Y3662288D01*
X29730166Y4551288D02*
X29560833Y4551288D01*
X29560833Y4551288D02*
X29476166Y4508955D01*
X29476166Y4508955D02*
X29433833Y4466621D01*
X29433833Y4466621D02*
X29349166Y4339621D01*
X29349166Y4339621D02*
X29306833Y4170288D01*
X29306833Y4170288D02*
X29306833Y3831621D01*
X29306833Y3831621D02*
X29349166Y3746955D01*
X29349166Y3746955D02*
X29391500Y3704621D01*
X29391500Y3704621D02*
X29476166Y3662288D01*
X29476166Y3662288D02*
X29645500Y3662288D01*
X29645500Y3662288D02*
X29730166Y3704621D01*
X29730166Y3704621D02*
X29772500Y3746955D01*
X29772500Y3746955D02*
X29814833Y3831621D01*
X29814833Y3831621D02*
X29814833Y4043288D01*
X29814833Y4043288D02*
X29772500Y4127955D01*
X29772500Y4127955D02*
X29730166Y4170288D01*
X29730166Y4170288D02*
X29645500Y4212621D01*
X29645500Y4212621D02*
X29476166Y4212621D01*
X29476166Y4212621D02*
X29391500Y4170288D01*
X29391500Y4170288D02*
X29349166Y4127955D01*
X29349166Y4127955D02*
X29306833Y4043288D01*
X37731167Y3746955D02*
X37434833Y3746955D01*
X37434833Y3281288D02*
X37434833Y4170288D01*
X37434833Y4170288D02*
X37858167Y4170288D01*
X38493167Y3746955D02*
X38620167Y3704621D01*
X38620167Y3704621D02*
X38662500Y3662288D01*
X38662500Y3662288D02*
X38704833Y3577621D01*
X38704833Y3577621D02*
X38704833Y3450621D01*
X38704833Y3450621D02*
X38662500Y3365955D01*
X38662500Y3365955D02*
X38620167Y3323621D01*
X38620167Y3323621D02*
X38535500Y3281288D01*
X38535500Y3281288D02*
X38196833Y3281288D01*
X38196833Y3281288D02*
X38196833Y4170288D01*
X38196833Y4170288D02*
X38493167Y4170288D01*
X38493167Y4170288D02*
X38577833Y4127955D01*
X38577833Y4127955D02*
X38620167Y4085621D01*
X38620167Y4085621D02*
X38662500Y4000955D01*
X38662500Y4000955D02*
X38662500Y3916288D01*
X38662500Y3916288D02*
X38620167Y3831621D01*
X38620167Y3831621D02*
X38577833Y3789288D01*
X38577833Y3789288D02*
X38493167Y3746955D01*
X38493167Y3746955D02*
X38196833Y3746955D01*
X39551500Y3281288D02*
X39043500Y3281288D01*
X39297500Y3281288D02*
X39297500Y4170288D01*
X39297500Y4170288D02*
X39212833Y4043288D01*
X39212833Y4043288D02*
X39128167Y3958621D01*
X39128167Y3958621D02*
X39043500Y3916288D01*
X46110712Y5945834D02*
X45687379Y5649501D01*
X46110712Y5437834D02*
X45221712Y5437834D01*
X45221712Y5437834D02*
X45221712Y5776501D01*
X45221712Y5776501D02*
X45264045Y5861167D01*
X45264045Y5861167D02*
X45306379Y5903501D01*
X45306379Y5903501D02*
X45391045Y5945834D01*
X45391045Y5945834D02*
X45518045Y5945834D01*
X45518045Y5945834D02*
X45602712Y5903501D01*
X45602712Y5903501D02*
X45645045Y5861167D01*
X45645045Y5861167D02*
X45687379Y5776501D01*
X45687379Y5776501D02*
X45687379Y5437834D01*
X45306379Y6284501D02*
X45264045Y6326834D01*
X45264045Y6326834D02*
X45221712Y6411501D01*
X45221712Y6411501D02*
X45221712Y6623167D01*
X45221712Y6623167D02*
X45264045Y6707834D01*
X45264045Y6707834D02*
X45306379Y6750167D01*
X45306379Y6750167D02*
X45391045Y6792501D01*
X45391045Y6792501D02*
X45475712Y6792501D01*
X45475712Y6792501D02*
X45602712Y6750167D01*
X45602712Y6750167D02*
X46110712Y6242167D01*
X46110712Y6242167D02*
X46110712Y6792501D01*
X47634712Y5945834D02*
X47211379Y5649501D01*
X47634712Y5437834D02*
X46745712Y5437834D01*
X46745712Y5437834D02*
X46745712Y5776501D01*
X46745712Y5776501D02*
X46788045Y5861167D01*
X46788045Y5861167D02*
X46830379Y5903501D01*
X46830379Y5903501D02*
X46915045Y5945834D01*
X46915045Y5945834D02*
X47042045Y5945834D01*
X47042045Y5945834D02*
X47126712Y5903501D01*
X47126712Y5903501D02*
X47169045Y5861167D01*
X47169045Y5861167D02*
X47211379Y5776501D01*
X47211379Y5776501D02*
X47211379Y5437834D01*
X46745712Y6242167D02*
X46745712Y6792501D01*
X46745712Y6792501D02*
X47084379Y6496167D01*
X47084379Y6496167D02*
X47084379Y6623167D01*
X47084379Y6623167D02*
X47126712Y6707834D01*
X47126712Y6707834D02*
X47169045Y6750167D01*
X47169045Y6750167D02*
X47253712Y6792501D01*
X47253712Y6792501D02*
X47465379Y6792501D01*
X47465379Y6792501D02*
X47550045Y6750167D01*
X47550045Y6750167D02*
X47592379Y6707834D01*
X47592379Y6707834D02*
X47634712Y6623167D01*
X47634712Y6623167D02*
X47634712Y6369167D01*
X47634712Y6369167D02*
X47592379Y6284501D01*
X47592379Y6284501D02*
X47550045Y6242167D01*
X47801833Y13450288D02*
X47505500Y13873621D01*
X47293833Y13450288D02*
X47293833Y14339288D01*
X47293833Y14339288D02*
X47632500Y14339288D01*
X47632500Y14339288D02*
X47717167Y14296955D01*
X47717167Y14296955D02*
X47759500Y14254621D01*
X47759500Y14254621D02*
X47801833Y14169955D01*
X47801833Y14169955D02*
X47801833Y14042955D01*
X47801833Y14042955D02*
X47759500Y13958288D01*
X47759500Y13958288D02*
X47717167Y13915955D01*
X47717167Y13915955D02*
X47632500Y13873621D01*
X47632500Y13873621D02*
X47293833Y13873621D01*
X48563833Y14042955D02*
X48563833Y13450288D01*
X48352167Y14381621D02*
X48140500Y13746621D01*
X48140500Y13746621D02*
X48690833Y13746621D01*
X9621833Y14076288D02*
X9325500Y14499621D01*
X9113833Y14076288D02*
X9113833Y14965288D01*
X9113833Y14965288D02*
X9452500Y14965288D01*
X9452500Y14965288D02*
X9537167Y14922955D01*
X9537167Y14922955D02*
X9579500Y14880621D01*
X9579500Y14880621D02*
X9621833Y14795955D01*
X9621833Y14795955D02*
X9621833Y14668955D01*
X9621833Y14668955D02*
X9579500Y14584288D01*
X9579500Y14584288D02*
X9537167Y14541955D01*
X9537167Y14541955D02*
X9452500Y14499621D01*
X9452500Y14499621D02*
X9113833Y14499621D01*
X10426167Y14965288D02*
X10002833Y14965288D01*
X10002833Y14965288D02*
X9960500Y14541955D01*
X9960500Y14541955D02*
X10002833Y14584288D01*
X10002833Y14584288D02*
X10087500Y14626621D01*
X10087500Y14626621D02*
X10299167Y14626621D01*
X10299167Y14626621D02*
X10383833Y14584288D01*
X10383833Y14584288D02*
X10426167Y14541955D01*
X10426167Y14541955D02*
X10468500Y14457288D01*
X10468500Y14457288D02*
X10468500Y14245621D01*
X10468500Y14245621D02*
X10426167Y14160955D01*
X10426167Y14160955D02*
X10383833Y14118621D01*
X10383833Y14118621D02*
X10299167Y14076288D01*
X10299167Y14076288D02*
X10087500Y14076288D01*
X10087500Y14076288D02*
X10002833Y14118621D01*
X10002833Y14118621D02*
X9960500Y14160955D01*
X9621833Y12679288D02*
X9325500Y13102621D01*
X9113833Y12679288D02*
X9113833Y13568288D01*
X9113833Y13568288D02*
X9452500Y13568288D01*
X9452500Y13568288D02*
X9537167Y13525955D01*
X9537167Y13525955D02*
X9579500Y13483621D01*
X9579500Y13483621D02*
X9621833Y13398955D01*
X9621833Y13398955D02*
X9621833Y13271955D01*
X9621833Y13271955D02*
X9579500Y13187288D01*
X9579500Y13187288D02*
X9537167Y13144955D01*
X9537167Y13144955D02*
X9452500Y13102621D01*
X9452500Y13102621D02*
X9113833Y13102621D01*
X10383833Y13568288D02*
X10214500Y13568288D01*
X10214500Y13568288D02*
X10129833Y13525955D01*
X10129833Y13525955D02*
X10087500Y13483621D01*
X10087500Y13483621D02*
X10002833Y13356621D01*
X10002833Y13356621D02*
X9960500Y13187288D01*
X9960500Y13187288D02*
X9960500Y12848621D01*
X9960500Y12848621D02*
X10002833Y12763955D01*
X10002833Y12763955D02*
X10045167Y12721621D01*
X10045167Y12721621D02*
X10129833Y12679288D01*
X10129833Y12679288D02*
X10299167Y12679288D01*
X10299167Y12679288D02*
X10383833Y12721621D01*
X10383833Y12721621D02*
X10426167Y12763955D01*
X10426167Y12763955D02*
X10468500Y12848621D01*
X10468500Y12848621D02*
X10468500Y13060288D01*
X10468500Y13060288D02*
X10426167Y13144955D01*
X10426167Y13144955D02*
X10383833Y13187288D01*
X10383833Y13187288D02*
X10299167Y13229621D01*
X10299167Y13229621D02*
X10129833Y13229621D01*
X10129833Y13229621D02*
X10045167Y13187288D01*
X10045167Y13187288D02*
X10002833Y13144955D01*
X10002833Y13144955D02*
X9960500Y13060288D01*
X9621833Y6456288D02*
X9325500Y6879621D01*
X9113833Y6456288D02*
X9113833Y7345288D01*
X9113833Y7345288D02*
X9452500Y7345288D01*
X9452500Y7345288D02*
X9537167Y7302955D01*
X9537167Y7302955D02*
X9579500Y7260621D01*
X9579500Y7260621D02*
X9621833Y7175955D01*
X9621833Y7175955D02*
X9621833Y7048955D01*
X9621833Y7048955D02*
X9579500Y6964288D01*
X9579500Y6964288D02*
X9537167Y6921955D01*
X9537167Y6921955D02*
X9452500Y6879621D01*
X9452500Y6879621D02*
X9113833Y6879621D01*
X10045167Y6456288D02*
X10214500Y6456288D01*
X10214500Y6456288D02*
X10299167Y6498621D01*
X10299167Y6498621D02*
X10341500Y6540955D01*
X10341500Y6540955D02*
X10426167Y6667955D01*
X10426167Y6667955D02*
X10468500Y6837288D01*
X10468500Y6837288D02*
X10468500Y7175955D01*
X10468500Y7175955D02*
X10426167Y7260621D01*
X10426167Y7260621D02*
X10383833Y7302955D01*
X10383833Y7302955D02*
X10299167Y7345288D01*
X10299167Y7345288D02*
X10129833Y7345288D01*
X10129833Y7345288D02*
X10045167Y7302955D01*
X10045167Y7302955D02*
X10002833Y7260621D01*
X10002833Y7260621D02*
X9960500Y7175955D01*
X9960500Y7175955D02*
X9960500Y6964288D01*
X9960500Y6964288D02*
X10002833Y6879621D01*
X10002833Y6879621D02*
X10045167Y6837288D01*
X10045167Y6837288D02*
X10129833Y6794955D01*
X10129833Y6794955D02*
X10299167Y6794955D01*
X10299167Y6794955D02*
X10383833Y6837288D01*
X10383833Y6837288D02*
X10426167Y6879621D01*
X10426167Y6879621D02*
X10468500Y6964288D01*
X8817499Y8234288D02*
X8521166Y8657621D01*
X8309499Y8234288D02*
X8309499Y9123288D01*
X8309499Y9123288D02*
X8648166Y9123288D01*
X8648166Y9123288D02*
X8732833Y9080955D01*
X8732833Y9080955D02*
X8775166Y9038621D01*
X8775166Y9038621D02*
X8817499Y8953955D01*
X8817499Y8953955D02*
X8817499Y8826955D01*
X8817499Y8826955D02*
X8775166Y8742288D01*
X8775166Y8742288D02*
X8732833Y8699955D01*
X8732833Y8699955D02*
X8648166Y8657621D01*
X8648166Y8657621D02*
X8309499Y8657621D01*
X9664166Y8234288D02*
X9156166Y8234288D01*
X9410166Y8234288D02*
X9410166Y9123288D01*
X9410166Y9123288D02*
X9325499Y8996288D01*
X9325499Y8996288D02*
X9240833Y8911621D01*
X9240833Y8911621D02*
X9156166Y8869288D01*
X10214500Y9123288D02*
X10299166Y9123288D01*
X10299166Y9123288D02*
X10383833Y9080955D01*
X10383833Y9080955D02*
X10426166Y9038621D01*
X10426166Y9038621D02*
X10468500Y8953955D01*
X10468500Y8953955D02*
X10510833Y8784621D01*
X10510833Y8784621D02*
X10510833Y8572955D01*
X10510833Y8572955D02*
X10468500Y8403621D01*
X10468500Y8403621D02*
X10426166Y8318955D01*
X10426166Y8318955D02*
X10383833Y8276621D01*
X10383833Y8276621D02*
X10299166Y8234288D01*
X10299166Y8234288D02*
X10214500Y8234288D01*
X10214500Y8234288D02*
X10129833Y8276621D01*
X10129833Y8276621D02*
X10087500Y8318955D01*
X10087500Y8318955D02*
X10045166Y8403621D01*
X10045166Y8403621D02*
X10002833Y8572955D01*
X10002833Y8572955D02*
X10002833Y8784621D01*
X10002833Y8784621D02*
X10045166Y8953955D01*
X10045166Y8953955D02*
X10087500Y9038621D01*
X10087500Y9038621D02*
X10129833Y9080955D01*
X10129833Y9080955D02*
X10214500Y9123288D01*
X35442712Y4252500D02*
X35019379Y3956167D01*
X35442712Y3744500D02*
X34553712Y3744500D01*
X34553712Y3744500D02*
X34553712Y4083167D01*
X34553712Y4083167D02*
X34596045Y4167833D01*
X34596045Y4167833D02*
X34638379Y4210167D01*
X34638379Y4210167D02*
X34723045Y4252500D01*
X34723045Y4252500D02*
X34850045Y4252500D01*
X34850045Y4252500D02*
X34934712Y4210167D01*
X34934712Y4210167D02*
X34977045Y4167833D01*
X34977045Y4167833D02*
X35019379Y4083167D01*
X35019379Y4083167D02*
X35019379Y3744500D01*
X35442712Y5099167D02*
X35442712Y4591167D01*
X35442712Y4845167D02*
X34553712Y4845167D01*
X34553712Y4845167D02*
X34680712Y4760500D01*
X34680712Y4760500D02*
X34765379Y4675833D01*
X34765379Y4675833D02*
X34807712Y4591167D01*
X35442712Y5945834D02*
X35442712Y5437834D01*
X35442712Y5691834D02*
X34553712Y5691834D01*
X34553712Y5691834D02*
X34680712Y5607167D01*
X34680712Y5607167D02*
X34765379Y5522500D01*
X34765379Y5522500D02*
X34807712Y5437834D01*
X8817499Y11282288D02*
X8521166Y11705621D01*
X8309499Y11282288D02*
X8309499Y12171288D01*
X8309499Y12171288D02*
X8648166Y12171288D01*
X8648166Y12171288D02*
X8732833Y12128955D01*
X8732833Y12128955D02*
X8775166Y12086621D01*
X8775166Y12086621D02*
X8817499Y12001955D01*
X8817499Y12001955D02*
X8817499Y11874955D01*
X8817499Y11874955D02*
X8775166Y11790288D01*
X8775166Y11790288D02*
X8732833Y11747955D01*
X8732833Y11747955D02*
X8648166Y11705621D01*
X8648166Y11705621D02*
X8309499Y11705621D01*
X9664166Y11282288D02*
X9156166Y11282288D01*
X9410166Y11282288D02*
X9410166Y12171288D01*
X9410166Y12171288D02*
X9325499Y12044288D01*
X9325499Y12044288D02*
X9240833Y11959621D01*
X9240833Y11959621D02*
X9156166Y11917288D01*
X9960500Y12171288D02*
X10510833Y12171288D01*
X10510833Y12171288D02*
X10214500Y11832621D01*
X10214500Y11832621D02*
X10341500Y11832621D01*
X10341500Y11832621D02*
X10426166Y11790288D01*
X10426166Y11790288D02*
X10468500Y11747955D01*
X10468500Y11747955D02*
X10510833Y11663288D01*
X10510833Y11663288D02*
X10510833Y11451621D01*
X10510833Y11451621D02*
X10468500Y11366955D01*
X10468500Y11366955D02*
X10426166Y11324621D01*
X10426166Y11324621D02*
X10341500Y11282288D01*
X10341500Y11282288D02*
X10087500Y11282288D01*
X10087500Y11282288D02*
X10002833Y11324621D01*
X10002833Y11324621D02*
X9960500Y11366955D01*
X8817499Y9631288D02*
X8521166Y10054621D01*
X8309499Y9631288D02*
X8309499Y10520288D01*
X8309499Y10520288D02*
X8648166Y10520288D01*
X8648166Y10520288D02*
X8732833Y10477955D01*
X8732833Y10477955D02*
X8775166Y10435621D01*
X8775166Y10435621D02*
X8817499Y10350955D01*
X8817499Y10350955D02*
X8817499Y10223955D01*
X8817499Y10223955D02*
X8775166Y10139288D01*
X8775166Y10139288D02*
X8732833Y10096955D01*
X8732833Y10096955D02*
X8648166Y10054621D01*
X8648166Y10054621D02*
X8309499Y10054621D01*
X9664166Y9631288D02*
X9156166Y9631288D01*
X9410166Y9631288D02*
X9410166Y10520288D01*
X9410166Y10520288D02*
X9325499Y10393288D01*
X9325499Y10393288D02*
X9240833Y10308621D01*
X9240833Y10308621D02*
X9156166Y10266288D01*
X10426166Y10223955D02*
X10426166Y9631288D01*
X10214500Y10562621D02*
X10002833Y9927621D01*
X10002833Y9927621D02*
X10553166Y9927621D01*
D10*
X33100504Y13180988D02*
X33100504Y12358511D01*
X33100504Y12358511D02*
X33148885Y12261749D01*
X33148885Y12261749D02*
X33197266Y12213368D01*
X33197266Y12213368D02*
X33294028Y12164988D01*
X33294028Y12164988D02*
X33487552Y12164988D01*
X33487552Y12164988D02*
X33584314Y12213368D01*
X33584314Y12213368D02*
X33632695Y12261749D01*
X33632695Y12261749D02*
X33681076Y12358511D01*
X33681076Y12358511D02*
X33681076Y13180988D01*
X34116504Y13084226D02*
X34164885Y13132607D01*
X34164885Y13132607D02*
X34261647Y13180988D01*
X34261647Y13180988D02*
X34503552Y13180988D01*
X34503552Y13180988D02*
X34600314Y13132607D01*
X34600314Y13132607D02*
X34648695Y13084226D01*
X34648695Y13084226D02*
X34697076Y12987464D01*
X34697076Y12987464D02*
X34697076Y12890702D01*
X34697076Y12890702D02*
X34648695Y12745559D01*
X34648695Y12745559D02*
X34068123Y12164988D01*
X34068123Y12164988D02*
X34697076Y12164988D01*
D14*
X38138853Y13651019D02*
X38187233Y13796162D01*
X38187233Y13796162D02*
X38187233Y14038067D01*
X38187233Y14038067D02*
X38138853Y14134829D01*
X38138853Y14134829D02*
X38090472Y14183210D01*
X38090472Y14183210D02*
X37993710Y14231591D01*
X37993710Y14231591D02*
X37896948Y14231591D01*
X37896948Y14231591D02*
X37800186Y14183210D01*
X37800186Y14183210D02*
X37751805Y14134829D01*
X37751805Y14134829D02*
X37703424Y14038067D01*
X37703424Y14038067D02*
X37655043Y13844543D01*
X37655043Y13844543D02*
X37606662Y13747781D01*
X37606662Y13747781D02*
X37558281Y13699400D01*
X37558281Y13699400D02*
X37461519Y13651019D01*
X37461519Y13651019D02*
X37364757Y13651019D01*
X37364757Y13651019D02*
X37267995Y13699400D01*
X37267995Y13699400D02*
X37219614Y13747781D01*
X37219614Y13747781D02*
X37171233Y13844543D01*
X37171233Y13844543D02*
X37171233Y14086448D01*
X37171233Y14086448D02*
X37219614Y14231591D01*
X37171233Y14860543D02*
X37171233Y15054067D01*
X37171233Y15054067D02*
X37219614Y15150829D01*
X37219614Y15150829D02*
X37316376Y15247591D01*
X37316376Y15247591D02*
X37509900Y15295972D01*
X37509900Y15295972D02*
X37848567Y15295972D01*
X37848567Y15295972D02*
X38042091Y15247591D01*
X38042091Y15247591D02*
X38138853Y15150829D01*
X38138853Y15150829D02*
X38187233Y15054067D01*
X38187233Y15054067D02*
X38187233Y14860543D01*
X38187233Y14860543D02*
X38138853Y14763781D01*
X38138853Y14763781D02*
X38042091Y14667019D01*
X38042091Y14667019D02*
X37848567Y14618638D01*
X37848567Y14618638D02*
X37509900Y14618638D01*
X37509900Y14618638D02*
X37316376Y14667019D01*
X37316376Y14667019D02*
X37219614Y14763781D01*
X37219614Y14763781D02*
X37171233Y14860543D01*
X37800186Y15731400D02*
X37800186Y16505495D01*
X37606662Y17134448D02*
X37558281Y17037686D01*
X37558281Y17037686D02*
X37509900Y16989305D01*
X37509900Y16989305D02*
X37413138Y16940924D01*
X37413138Y16940924D02*
X37364757Y16940924D01*
X37364757Y16940924D02*
X37267995Y16989305D01*
X37267995Y16989305D02*
X37219614Y17037686D01*
X37219614Y17037686D02*
X37171233Y17134448D01*
X37171233Y17134448D02*
X37171233Y17327972D01*
X37171233Y17327972D02*
X37219614Y17424734D01*
X37219614Y17424734D02*
X37267995Y17473115D01*
X37267995Y17473115D02*
X37364757Y17521496D01*
X37364757Y17521496D02*
X37413138Y17521496D01*
X37413138Y17521496D02*
X37509900Y17473115D01*
X37509900Y17473115D02*
X37558281Y17424734D01*
X37558281Y17424734D02*
X37606662Y17327972D01*
X37606662Y17327972D02*
X37606662Y17134448D01*
X37606662Y17134448D02*
X37655043Y17037686D01*
X37655043Y17037686D02*
X37703424Y16989305D01*
X37703424Y16989305D02*
X37800186Y16940924D01*
X37800186Y16940924D02*
X37993710Y16940924D01*
X37993710Y16940924D02*
X38090472Y16989305D01*
X38090472Y16989305D02*
X38138853Y17037686D01*
X38138853Y17037686D02*
X38187233Y17134448D01*
X38187233Y17134448D02*
X38187233Y17327972D01*
X38187233Y17327972D02*
X38138853Y17424734D01*
X38138853Y17424734D02*
X38090472Y17473115D01*
X38090472Y17473115D02*
X37993710Y17521496D01*
X37993710Y17521496D02*
X37800186Y17521496D01*
X37800186Y17521496D02*
X37703424Y17473115D01*
X37703424Y17473115D02*
X37655043Y17424734D01*
X37655043Y17424734D02*
X37606662Y17327972D01*
D10*
X25251904Y5256188D02*
X25251904Y4433711D01*
X25251904Y4433711D02*
X25300285Y4336949D01*
X25300285Y4336949D02*
X25348666Y4288568D01*
X25348666Y4288568D02*
X25445428Y4240188D01*
X25445428Y4240188D02*
X25638952Y4240188D01*
X25638952Y4240188D02*
X25735714Y4288568D01*
X25735714Y4288568D02*
X25784095Y4336949D01*
X25784095Y4336949D02*
X25832476Y4433711D01*
X25832476Y4433711D02*
X25832476Y5256188D01*
X26219523Y5256188D02*
X26848476Y5256188D01*
X26848476Y5256188D02*
X26509809Y4869140D01*
X26509809Y4869140D02*
X26654952Y4869140D01*
X26654952Y4869140D02*
X26751714Y4820759D01*
X26751714Y4820759D02*
X26800095Y4772378D01*
X26800095Y4772378D02*
X26848476Y4675616D01*
X26848476Y4675616D02*
X26848476Y4433711D01*
X26848476Y4433711D02*
X26800095Y4336949D01*
X26800095Y4336949D02*
X26751714Y4288568D01*
X26751714Y4288568D02*
X26654952Y4240188D01*
X26654952Y4240188D02*
X26364666Y4240188D01*
X26364666Y4240188D02*
X26267904Y4288568D01*
X26267904Y4288568D02*
X26219523Y4336949D01*
X22291812Y11863429D02*
X22243432Y11766667D01*
X22243432Y11766667D02*
X22195051Y11718286D01*
X22195051Y11718286D02*
X22098289Y11669905D01*
X22098289Y11669905D02*
X21808003Y11669905D01*
X21808003Y11669905D02*
X21711241Y11718286D01*
X21711241Y11718286D02*
X21662860Y11766667D01*
X21662860Y11766667D02*
X21614479Y11863429D01*
X21614479Y11863429D02*
X21614479Y12008572D01*
X21614479Y12008572D02*
X21662860Y12105334D01*
X21662860Y12105334D02*
X21711241Y12153715D01*
X21711241Y12153715D02*
X21808003Y12202096D01*
X21808003Y12202096D02*
X22098289Y12202096D01*
X22098289Y12202096D02*
X22195051Y12153715D01*
X22195051Y12153715D02*
X22243432Y12105334D01*
X22243432Y12105334D02*
X22291812Y12008572D01*
X22291812Y12008572D02*
X22291812Y11863429D01*
X24060523Y14400188D02*
X24737857Y13384188D01*
X24737857Y14400188D02*
X24060523Y13384188D01*
X25657095Y13384188D02*
X25076523Y13384188D01*
X25366809Y13384188D02*
X25366809Y14400188D01*
X25366809Y14400188D02*
X25270047Y14255045D01*
X25270047Y14255045D02*
X25173285Y14158283D01*
X25173285Y14158283D02*
X25076523Y14109902D01*
D15*
X23464695Y14355357D02*
X23426600Y14279167D01*
X23426600Y14279167D02*
X23388504Y14241072D01*
X23388504Y14241072D02*
X23312314Y14202976D01*
X23312314Y14202976D02*
X23083742Y14202976D01*
X23083742Y14202976D02*
X23007552Y14241072D01*
X23007552Y14241072D02*
X22969457Y14279167D01*
X22969457Y14279167D02*
X22931361Y14355357D01*
X22931361Y14355357D02*
X22931361Y14469643D01*
X22931361Y14469643D02*
X22969457Y14545834D01*
X22969457Y14545834D02*
X23007552Y14583929D01*
X23007552Y14583929D02*
X23083742Y14622024D01*
X23083742Y14622024D02*
X23312314Y14622024D01*
X23312314Y14622024D02*
X23388504Y14583929D01*
X23388504Y14583929D02*
X23426600Y14545834D01*
X23426600Y14545834D02*
X23464695Y14469643D01*
X23464695Y14469643D02*
X23464695Y14355357D01*
D13*
X8817499Y5016955D02*
X8775166Y4974621D01*
X8775166Y4974621D02*
X8648166Y4932288D01*
X8648166Y4932288D02*
X8563499Y4932288D01*
X8563499Y4932288D02*
X8436499Y4974621D01*
X8436499Y4974621D02*
X8351833Y5059288D01*
X8351833Y5059288D02*
X8309499Y5143955D01*
X8309499Y5143955D02*
X8267166Y5313288D01*
X8267166Y5313288D02*
X8267166Y5440288D01*
X8267166Y5440288D02*
X8309499Y5609621D01*
X8309499Y5609621D02*
X8351833Y5694288D01*
X8351833Y5694288D02*
X8436499Y5778955D01*
X8436499Y5778955D02*
X8563499Y5821288D01*
X8563499Y5821288D02*
X8648166Y5821288D01*
X8648166Y5821288D02*
X8775166Y5778955D01*
X8775166Y5778955D02*
X8817499Y5736621D01*
X9156166Y5736621D02*
X9198499Y5778955D01*
X9198499Y5778955D02*
X9283166Y5821288D01*
X9283166Y5821288D02*
X9494833Y5821288D01*
X9494833Y5821288D02*
X9579499Y5778955D01*
X9579499Y5778955D02*
X9621833Y5736621D01*
X9621833Y5736621D02*
X9664166Y5651955D01*
X9664166Y5651955D02*
X9664166Y5567288D01*
X9664166Y5567288D02*
X9621833Y5440288D01*
X9621833Y5440288D02*
X9113833Y4932288D01*
X9113833Y4932288D02*
X9664166Y4932288D01*
X9960500Y5821288D02*
X10553166Y5821288D01*
X10553166Y5821288D02*
X10172166Y4932288D01*
X13090712Y17502834D02*
X12667379Y17206501D01*
X13090712Y16994834D02*
X12201712Y16994834D01*
X12201712Y16994834D02*
X12201712Y17333501D01*
X12201712Y17333501D02*
X12244045Y17418167D01*
X12244045Y17418167D02*
X12286379Y17460501D01*
X12286379Y17460501D02*
X12371045Y17502834D01*
X12371045Y17502834D02*
X12498045Y17502834D01*
X12498045Y17502834D02*
X12582712Y17460501D01*
X12582712Y17460501D02*
X12625045Y17418167D01*
X12625045Y17418167D02*
X12667379Y17333501D01*
X12667379Y17333501D02*
X12667379Y16994834D01*
X13090712Y18349501D02*
X13090712Y17841501D01*
X13090712Y18095501D02*
X12201712Y18095501D01*
X12201712Y18095501D02*
X12328712Y18010834D01*
X12328712Y18010834D02*
X12413379Y17926167D01*
X12413379Y17926167D02*
X12455712Y17841501D01*
X14741712Y17502834D02*
X14318379Y17206501D01*
X14741712Y16994834D02*
X13852712Y16994834D01*
X13852712Y16994834D02*
X13852712Y17333501D01*
X13852712Y17333501D02*
X13895045Y17418167D01*
X13895045Y17418167D02*
X13937379Y17460501D01*
X13937379Y17460501D02*
X14022045Y17502834D01*
X14022045Y17502834D02*
X14149045Y17502834D01*
X14149045Y17502834D02*
X14233712Y17460501D01*
X14233712Y17460501D02*
X14276045Y17418167D01*
X14276045Y17418167D02*
X14318379Y17333501D01*
X14318379Y17333501D02*
X14318379Y16994834D01*
X13852712Y17799167D02*
X13852712Y18391834D01*
X13852712Y18391834D02*
X14741712Y18010834D01*
X16265712Y17502834D02*
X15842379Y17206501D01*
X16265712Y16994834D02*
X15376712Y16994834D01*
X15376712Y16994834D02*
X15376712Y17333501D01*
X15376712Y17333501D02*
X15419045Y17418167D01*
X15419045Y17418167D02*
X15461379Y17460501D01*
X15461379Y17460501D02*
X15546045Y17502834D01*
X15546045Y17502834D02*
X15673045Y17502834D01*
X15673045Y17502834D02*
X15757712Y17460501D01*
X15757712Y17460501D02*
X15800045Y17418167D01*
X15800045Y17418167D02*
X15842379Y17333501D01*
X15842379Y17333501D02*
X15842379Y16994834D01*
X15757712Y18010834D02*
X15715379Y17926167D01*
X15715379Y17926167D02*
X15673045Y17883834D01*
X15673045Y17883834D02*
X15588379Y17841501D01*
X15588379Y17841501D02*
X15546045Y17841501D01*
X15546045Y17841501D02*
X15461379Y17883834D01*
X15461379Y17883834D02*
X15419045Y17926167D01*
X15419045Y17926167D02*
X15376712Y18010834D01*
X15376712Y18010834D02*
X15376712Y18180167D01*
X15376712Y18180167D02*
X15419045Y18264834D01*
X15419045Y18264834D02*
X15461379Y18307167D01*
X15461379Y18307167D02*
X15546045Y18349501D01*
X15546045Y18349501D02*
X15588379Y18349501D01*
X15588379Y18349501D02*
X15673045Y18307167D01*
X15673045Y18307167D02*
X15715379Y18264834D01*
X15715379Y18264834D02*
X15757712Y18180167D01*
X15757712Y18180167D02*
X15757712Y18010834D01*
X15757712Y18010834D02*
X15800045Y17926167D01*
X15800045Y17926167D02*
X15842379Y17883834D01*
X15842379Y17883834D02*
X15927045Y17841501D01*
X15927045Y17841501D02*
X16096379Y17841501D01*
X16096379Y17841501D02*
X16181045Y17883834D01*
X16181045Y17883834D02*
X16223379Y17926167D01*
X16223379Y17926167D02*
X16265712Y18010834D01*
X16265712Y18010834D02*
X16265712Y18180167D01*
X16265712Y18180167D02*
X16223379Y18264834D01*
X16223379Y18264834D02*
X16181045Y18307167D01*
X16181045Y18307167D02*
X16096379Y18349501D01*
X16096379Y18349501D02*
X15927045Y18349501D01*
X15927045Y18349501D02*
X15842379Y18307167D01*
X15842379Y18307167D02*
X15800045Y18264834D01*
X15800045Y18264834D02*
X15757712Y18180167D01*
D10*
X36524667Y5383188D02*
X36040857Y5383188D01*
X36040857Y5383188D02*
X36040857Y6399188D01*
X37395524Y5383188D02*
X36814952Y5383188D01*
X37105238Y5383188D02*
X37105238Y6399188D01*
X37105238Y6399188D02*
X37008476Y6254045D01*
X37008476Y6254045D02*
X36911714Y6157283D01*
X36911714Y6157283D02*
X36814952Y6108902D01*
D13*
X46491712Y11999500D02*
X46068379Y11703167D01*
X46491712Y11491500D02*
X45602712Y11491500D01*
X45602712Y11491500D02*
X45602712Y11830167D01*
X45602712Y11830167D02*
X45645045Y11914833D01*
X45645045Y11914833D02*
X45687379Y11957167D01*
X45687379Y11957167D02*
X45772045Y11999500D01*
X45772045Y11999500D02*
X45899045Y11999500D01*
X45899045Y11999500D02*
X45983712Y11957167D01*
X45983712Y11957167D02*
X46026045Y11914833D01*
X46026045Y11914833D02*
X46068379Y11830167D01*
X46068379Y11830167D02*
X46068379Y11491500D01*
X46491712Y12846167D02*
X46491712Y12338167D01*
X46491712Y12592167D02*
X45602712Y12592167D01*
X45602712Y12592167D02*
X45729712Y12507500D01*
X45729712Y12507500D02*
X45814379Y12422833D01*
X45814379Y12422833D02*
X45856712Y12338167D01*
X45687379Y13184834D02*
X45645045Y13227167D01*
X45645045Y13227167D02*
X45602712Y13311834D01*
X45602712Y13311834D02*
X45602712Y13523500D01*
X45602712Y13523500D02*
X45645045Y13608167D01*
X45645045Y13608167D02*
X45687379Y13650500D01*
X45687379Y13650500D02*
X45772045Y13692834D01*
X45772045Y13692834D02*
X45856712Y13692834D01*
X45856712Y13692834D02*
X45983712Y13650500D01*
X45983712Y13650500D02*
X46491712Y13142500D01*
X46491712Y13142500D02*
X46491712Y13692834D01*
X45094712Y11999500D02*
X44671379Y11703167D01*
X45094712Y11491500D02*
X44205712Y11491500D01*
X44205712Y11491500D02*
X44205712Y11830167D01*
X44205712Y11830167D02*
X44248045Y11914833D01*
X44248045Y11914833D02*
X44290379Y11957167D01*
X44290379Y11957167D02*
X44375045Y11999500D01*
X44375045Y11999500D02*
X44502045Y11999500D01*
X44502045Y11999500D02*
X44586712Y11957167D01*
X44586712Y11957167D02*
X44629045Y11914833D01*
X44629045Y11914833D02*
X44671379Y11830167D01*
X44671379Y11830167D02*
X44671379Y11491500D01*
X45094712Y12846167D02*
X45094712Y12338167D01*
X45094712Y12592167D02*
X44205712Y12592167D01*
X44205712Y12592167D02*
X44332712Y12507500D01*
X44332712Y12507500D02*
X44417379Y12422833D01*
X44417379Y12422833D02*
X44459712Y12338167D01*
X44205712Y13650500D02*
X44205712Y13227167D01*
X44205712Y13227167D02*
X44629045Y13184834D01*
X44629045Y13184834D02*
X44586712Y13227167D01*
X44586712Y13227167D02*
X44544379Y13311834D01*
X44544379Y13311834D02*
X44544379Y13523500D01*
X44544379Y13523500D02*
X44586712Y13608167D01*
X44586712Y13608167D02*
X44629045Y13650500D01*
X44629045Y13650500D02*
X44713712Y13692834D01*
X44713712Y13692834D02*
X44925379Y13692834D01*
X44925379Y13692834D02*
X45010045Y13650500D01*
X45010045Y13650500D02*
X45052379Y13608167D01*
X45052379Y13608167D02*
X45094712Y13523500D01*
X45094712Y13523500D02*
X45094712Y13311834D01*
X45094712Y13311834D02*
X45052379Y13227167D01*
X45052379Y13227167D02*
X45010045Y13184834D01*
D10*
X43031904Y10717188D02*
X43031904Y9894711D01*
X43031904Y9894711D02*
X43080285Y9797949D01*
X43080285Y9797949D02*
X43128666Y9749568D01*
X43128666Y9749568D02*
X43225428Y9701188D01*
X43225428Y9701188D02*
X43418952Y9701188D01*
X43418952Y9701188D02*
X43515714Y9749568D01*
X43515714Y9749568D02*
X43564095Y9797949D01*
X43564095Y9797949D02*
X43612476Y9894711D01*
X43612476Y9894711D02*
X43612476Y10717188D01*
X44531714Y10378521D02*
X44531714Y9701188D01*
X44289809Y10765568D02*
X44047904Y10039854D01*
X44047904Y10039854D02*
X44676857Y10039854D01*
D13*
X47931045Y8612834D02*
X47973379Y8570501D01*
X47973379Y8570501D02*
X48015712Y8443501D01*
X48015712Y8443501D02*
X48015712Y8358834D01*
X48015712Y8358834D02*
X47973379Y8231834D01*
X47973379Y8231834D02*
X47888712Y8147167D01*
X47888712Y8147167D02*
X47804045Y8104834D01*
X47804045Y8104834D02*
X47634712Y8062501D01*
X47634712Y8062501D02*
X47507712Y8062501D01*
X47507712Y8062501D02*
X47338379Y8104834D01*
X47338379Y8104834D02*
X47253712Y8147167D01*
X47253712Y8147167D02*
X47169045Y8231834D01*
X47169045Y8231834D02*
X47126712Y8358834D01*
X47126712Y8358834D02*
X47126712Y8443501D01*
X47126712Y8443501D02*
X47169045Y8570501D01*
X47169045Y8570501D02*
X47211379Y8612834D01*
X48015712Y9459501D02*
X48015712Y8951501D01*
X48015712Y9205501D02*
X47126712Y9205501D01*
X47126712Y9205501D02*
X47253712Y9120834D01*
X47253712Y9120834D02*
X47338379Y9036167D01*
X47338379Y9036167D02*
X47380712Y8951501D01*
D16*
X45774500Y10285000D02*
X45774500Y10793000D01*
X46663500Y10285000D02*
X46663500Y10793000D01*
X18152000Y10094500D02*
X18660000Y10094500D01*
X18152000Y9205500D02*
X18660000Y9205500D01*
X18152000Y9205500D02*
X18660000Y9205500D01*
X18152000Y8316500D02*
X18660000Y8316500D01*
D10*
X45838000Y13968000D02*
X44822000Y13968000D01*
X45838000Y16000000D02*
X44822000Y16000000D01*
D16*
X41837500Y16635000D02*
X41837500Y17143000D01*
X42726500Y16635000D02*
X42726500Y17143000D01*
X26978500Y16762000D02*
X26978500Y17270000D01*
X27867500Y16762000D02*
X27867500Y17270000D01*
X21644500Y16889000D02*
X21644500Y17397000D01*
X22533500Y16889000D02*
X22533500Y17397000D01*
D10*
X14215000Y2792000D02*
X12691000Y2792000D01*
X14215000Y506000D02*
X12691000Y506000D01*
D16*
X22406500Y13587000D02*
X22406500Y13079000D01*
X21517500Y13587000D02*
X21517500Y13079000D01*
X20247500Y3427000D02*
X20247500Y3935000D01*
X21136500Y3427000D02*
X21136500Y3935000D01*
D10*
X40123000Y8253000D02*
X41139000Y8253000D01*
X40123000Y6729000D02*
X41139000Y6729000D01*
D16*
X31995000Y7173500D02*
X31487000Y7173500D01*
X31995000Y8062500D02*
X31487000Y8062500D01*
X29201000Y15936500D02*
X28693000Y15936500D01*
X29201000Y16825500D02*
X28693000Y16825500D01*
X19231500Y12444000D02*
X19231500Y11936000D01*
X18342500Y12444000D02*
X18342500Y11936000D01*
D10*
X36313000Y12571000D02*
X37329000Y12571000D01*
X36313000Y11047000D02*
X37329000Y11047000D01*
D16*
X18977500Y6094000D02*
X18977500Y6602000D01*
X19866500Y6094000D02*
X19866500Y6602000D01*
X21327000Y15301500D02*
X21835000Y15301500D01*
X21327000Y14412500D02*
X21835000Y14412500D01*
X34090500Y11428000D02*
X34090500Y10920000D01*
X33201500Y11428000D02*
X33201500Y10920000D01*
X29201000Y14920500D02*
X28693000Y14920500D01*
X29201000Y15809500D02*
X28693000Y15809500D01*
X31487000Y7144500D02*
X31995000Y7144500D01*
X31487000Y6255500D02*
X31995000Y6255500D01*
X22279500Y3427000D02*
X22279500Y3935000D01*
X23168500Y3427000D02*
X23168500Y3935000D01*
X21263500Y3427000D02*
X21263500Y3935000D01*
X22152500Y3427000D02*
X22152500Y3935000D01*
X30598000Y4633500D02*
X30090000Y4633500D01*
X30598000Y5522500D02*
X30090000Y5522500D01*
D10*
X39919800Y4697000D02*
X39081600Y4697000D01*
X39919800Y6475000D02*
X39081600Y6475000D01*
D16*
X43107500Y7618000D02*
X43107500Y8126000D01*
X43996500Y7618000D02*
X43996500Y8126000D01*
X43996500Y7618000D02*
X43996500Y8126000D01*
X44885500Y7618000D02*
X44885500Y8126000D01*
D10*
X46473000Y16127000D02*
X45457000Y16127000D01*
X46473000Y18159000D02*
X45457000Y18159000D01*
D16*
X31106000Y17841500D02*
X31614000Y17841500D01*
X31106000Y16952500D02*
X31614000Y16952500D01*
X31614000Y15936500D02*
X31106000Y15936500D01*
X31614000Y16825500D02*
X31106000Y16825500D01*
X31360000Y11618500D02*
X30852000Y11618500D01*
X31360000Y12507500D02*
X30852000Y12507500D01*
X31360000Y12634500D02*
X30852000Y12634500D01*
X31360000Y13523500D02*
X30852000Y13523500D01*
X34090500Y8126000D02*
X34090500Y7618000D01*
X33201500Y8126000D02*
X33201500Y7618000D01*
X31106000Y14793500D02*
X30598000Y14793500D01*
X31106000Y15682500D02*
X30598000Y15682500D01*
X30852000Y14539500D02*
X31360000Y14539500D01*
X30852000Y13650500D02*
X31360000Y13650500D01*
D10*
X38720920Y18039897D02*
X38720920Y13244377D01*
X36457780Y18039897D02*
X38720920Y18039897D01*
X36191080Y17775737D02*
X36457780Y18039897D01*
X38720920Y13244377D02*
X36191080Y13244377D01*
X36191080Y13244377D02*
X36191080Y17775737D01*
D17*
X35989866Y18367557D02*
G75*
G03*
X35989866Y18367557I-197566J0D01*
G01*
X37018566Y17420137D02*
G75*
G03*
X37018566Y17420137I-197566J0D01*
G01*
D18*
X2071000Y7922000D02*
X6643000Y7922000D01*
X2071000Y7160000D02*
X2071000Y7922000D01*
X2121800Y7769600D02*
X6592200Y7769600D01*
X2121800Y7718800D02*
X6541400Y7718800D01*
X2121800Y7566400D02*
X6592200Y7566400D01*
X2121800Y7261600D02*
X6541400Y7261600D01*
D10*
X2277000Y12698000D02*
X6468000Y8507000D01*
X2404000Y8634000D02*
X6468000Y12571000D01*
X2912000Y12190000D02*
X5833000Y12190000D01*
X3420000Y12825000D02*
X3547000Y12825000D01*
X3420000Y12317000D02*
X3420000Y12825000D01*
X3420000Y9015000D02*
X3166000Y12063000D01*
X3420000Y9015000D02*
X3420000Y8634000D01*
X3420000Y9015000D02*
X4817000Y9015000D01*
X3420000Y8634000D02*
X3928000Y8634000D01*
X3547000Y12825000D02*
X3547000Y12317000D01*
X3928000Y8634000D02*
X3928000Y8888000D01*
X4182000Y13079000D02*
X4182000Y12952000D01*
X4182000Y12952000D02*
X4563000Y12952000D01*
X4182000Y11682000D02*
X5071000Y11682000D01*
X4182000Y11301000D02*
X4182000Y11682000D01*
X4309000Y11555000D02*
X4944000Y11555000D01*
X4563000Y13079000D02*
X4182000Y13079000D01*
X4563000Y12952000D02*
X4563000Y13079000D01*
X5071000Y11682000D02*
X5071000Y11301000D01*
X5071000Y11301000D02*
X4182000Y11301000D01*
X5325000Y9523000D02*
X5452000Y11555000D01*
X5452000Y12190000D02*
X5452000Y11682000D01*
X5452000Y11682000D02*
X5833000Y11682000D01*
X5579000Y12190000D02*
X5706000Y11809000D01*
X5579000Y12063000D02*
X5579000Y11936000D01*
X5579000Y12063000D02*
X5579000Y11936000D01*
X5579000Y12063000D02*
X5706000Y12063000D01*
X5579000Y11682000D02*
X5579000Y12063000D01*
X5706000Y12063000D02*
X5706000Y11682000D01*
X5833000Y11682000D02*
X5833000Y12190000D01*
D18*
X6541400Y7363200D02*
X2172600Y7363200D01*
X6592200Y7871200D02*
X2172600Y7871200D01*
X6592200Y7617200D02*
X2172600Y7617200D01*
X6592200Y7464800D02*
X2172600Y7464800D01*
X6643000Y7922000D02*
X6643000Y7160000D01*
X6643000Y7160000D02*
X2071000Y7160000D01*
D10*
X5452000Y12317000D02*
G75*
G03*
X3166000Y12317000I-1143000J-1143000D01*
G01*
D17*
X5452000Y9015000D02*
G75*
G03*
X5452000Y9015000I-127000J0D01*
G01*
D10*
X5726609Y9015000D02*
G75*
G03*
X5726609Y9015000I-401609J0D01*
G01*
X23198988Y12094500D02*
X22865988Y12094500D01*
X22865988Y12094500D02*
X22865988Y11761500D01*
X28863188Y12091700D02*
X28532988Y12091700D01*
X28863188Y11761500D02*
X28863188Y12091700D01*
X28863188Y6427500D02*
X28863188Y6097300D01*
X28863188Y6097300D02*
X28532988Y6097300D01*
X23198988Y6097300D02*
X22868788Y6097300D01*
X22868788Y6097300D02*
X22868788Y6427500D01*
X25010000Y17651000D02*
X24502000Y17651000D01*
X25010000Y15111000D02*
X24502000Y15111000D01*
D16*
X30852000Y11237500D02*
X31360000Y11237500D01*
X30852000Y10348500D02*
X31360000Y10348500D01*
X19993500Y17397000D02*
X19993500Y16889000D01*
X19104500Y17397000D02*
X19104500Y16889000D01*
X18977500Y17397000D02*
X18977500Y16889000D01*
X18088500Y17397000D02*
X18088500Y16889000D01*
X20120500Y16889000D02*
X20120500Y17397000D01*
X21009500Y16889000D02*
X21009500Y17397000D01*
D10*
X35067000Y8561000D02*
X35067000Y8961000D01*
X38067000Y8561000D02*
X38067000Y8961000D01*
D15*
X35817000Y8611000D02*
X35467000Y8611000D01*
X37317000Y8611000D02*
X37667000Y8611000D01*
X36317000Y8661000D02*
G75*
G03*
X35817000Y8661000I-250000J0D01*
G01*
X36817000Y8661000D02*
G75*
G03*
X36317000Y8661000I-250000J0D01*
G01*
X37317000Y8661000D02*
G75*
G03*
X36817000Y8661000I-250000J0D01*
G01*
D16*
X42980500Y12825000D02*
X42980500Y13333000D01*
X43869500Y12825000D02*
X43869500Y13333000D01*
X42726500Y13333000D02*
X42726500Y12825000D01*
X41837500Y13333000D02*
X41837500Y12825000D01*
D10*
X41316800Y9015000D02*
X40186500Y9015000D01*
X41316800Y11821700D02*
X40186500Y11821700D01*
D16*
X46663500Y10285000D02*
X46663500Y10793000D01*
X47552500Y10285000D02*
X47552500Y10793000D01*
M02*
