%TF.GenerationSoftware,KiCad,Pcbnew,7.0.9-7.0.9~ubuntu22.04.1*%
%TF.CreationDate,2024-07-08T15:30:03+03:00*%
%TF.ProjectId,USB-GIGABIT_Rev_E,5553422d-4749-4474-9142-49545f526576,E*%
%TF.SameCoordinates,PX3473bc0PY4bd12e0*%
%TF.FileFunction,Paste,Top*%
%TF.FilePolarity,Positive*%
%FSLAX46Y46*%
G04 Gerber Fmt 4.6, Leading zero omitted, Abs format (unit mm)*
G04 Created by KiCad (PCBNEW 7.0.9-7.0.9~ubuntu22.04.1) date 2024-07-08 15:30:03*
%MOMM*%
%LPD*%
G01*
G04 APERTURE LIST*
%ADD10R,0.550000X0.500000*%
%ADD11R,0.500000X0.550000*%
%ADD12R,1.270000X1.524000*%
%ADD13R,1.016000X1.778000*%
%ADD14R,1.016000X1.016000*%
%ADD15R,1.524000X1.270000*%
%ADD16R,2.200000X0.600000*%
%ADD17R,0.211000X0.927000*%
%ADD18R,0.927000X0.211000*%
%ADD19R,1.100000X1.649998*%
%ADD20R,1.400000X2.300000*%
%ADD21R,1.400000X1.200000*%
%ADD22R,3.000000X1.600000*%
%ADD23R,1.200000X0.550000*%
%ADD24C,1.000000*%
G04 APERTURE END LIST*
D10*
X46219000Y10031000D03*
X46219000Y11047000D03*
D11*
X17898000Y9650000D03*
X18914000Y9650000D03*
X17898000Y8761000D03*
X18914000Y8761000D03*
D12*
X46346000Y14984000D03*
X44314000Y14984000D03*
D10*
X42282000Y16381000D03*
X42282000Y17397000D03*
X27423000Y16508000D03*
X27423000Y17524000D03*
X22089000Y16635000D03*
X22089000Y17651000D03*
D13*
X11675000Y1649000D03*
X15231000Y1649000D03*
D10*
X21962000Y13841000D03*
X21962000Y12825000D03*
X20692000Y3173000D03*
X20692000Y4189000D03*
D14*
X39742000Y7491000D03*
X41520000Y7491000D03*
D11*
X32249000Y7618000D03*
X31233000Y7618000D03*
X29455000Y16381000D03*
X28439000Y16381000D03*
D10*
X18787000Y12698000D03*
X18787000Y11682000D03*
D14*
X35932000Y11809000D03*
X37710000Y11809000D03*
D10*
X19422000Y5840000D03*
X19422000Y6856000D03*
D11*
X21073000Y14857000D03*
X22089000Y14857000D03*
D10*
X33646000Y11682000D03*
X33646000Y10666000D03*
D11*
X29455000Y15365000D03*
X28439000Y15365000D03*
X31233000Y6700000D03*
X32249000Y6700000D03*
D10*
X22724000Y3173000D03*
X22724000Y4189000D03*
X21708000Y3173000D03*
X21708000Y4189000D03*
D11*
X30852000Y5078000D03*
X29836000Y5078000D03*
D15*
X40504000Y5586000D03*
X38472000Y5586000D03*
D10*
X43552000Y7364000D03*
X43552000Y8380000D03*
X44441000Y7364000D03*
X44441000Y8380000D03*
D12*
X46981000Y17143000D03*
X44949000Y17143000D03*
D11*
X30852000Y17397000D03*
X31868000Y17397000D03*
X31868000Y16381000D03*
X30852000Y16381000D03*
X31614000Y12063000D03*
X30598000Y12063000D03*
X31614000Y13079000D03*
X30598000Y13079000D03*
D10*
X33646000Y8380000D03*
X33646000Y7364000D03*
D11*
X31360000Y15238000D03*
X30344000Y15238000D03*
X30598000Y14095000D03*
X31614000Y14095000D03*
D16*
X34856000Y17547137D03*
X34856000Y16277137D03*
X34856000Y15007137D03*
X34856000Y13737137D03*
X40056000Y13737137D03*
X40056000Y15007137D03*
X40056000Y16277137D03*
X40056000Y17547137D03*
D17*
X28065988Y12078000D03*
X27665988Y12078000D03*
X27265988Y12078000D03*
X26865988Y12078000D03*
X26465988Y12078000D03*
X26065988Y12078000D03*
X25665988Y12078000D03*
X25265988Y12078000D03*
X24865988Y12078000D03*
X24465988Y12078000D03*
X24065988Y12078000D03*
X23665988Y12078000D03*
D18*
X28849488Y11294500D03*
X22882488Y11294500D03*
X28849488Y10894500D03*
X22882488Y10894500D03*
D19*
X25865988Y10519500D03*
D18*
X28849488Y10494500D03*
X22882488Y10494500D03*
X28849488Y10094500D03*
X22882488Y10094500D03*
X28849488Y9694500D03*
X22882488Y9694500D03*
X28849488Y9294500D03*
X22882488Y9294500D03*
D20*
X27415988Y9094500D03*
X24315988Y9094500D03*
D18*
X28849488Y8894500D03*
X22882488Y8894500D03*
X28849488Y8494500D03*
X22882488Y8494500D03*
X28849488Y8094500D03*
X22882488Y8094500D03*
X28849488Y7694500D03*
X22882488Y7694500D03*
D19*
X25865988Y7669501D03*
D18*
X28849488Y7294500D03*
X22882488Y7294500D03*
X28849488Y6894500D03*
X22882488Y6894500D03*
D17*
X28065988Y6111000D03*
X27665988Y6111000D03*
X27265988Y6111000D03*
X26865988Y6111000D03*
X26465988Y6111000D03*
X26065988Y6111000D03*
X25665988Y6111000D03*
X25265988Y6111000D03*
X24865988Y6111000D03*
X24465988Y6111000D03*
X24065988Y6111000D03*
X23665988Y6111000D03*
D21*
X23656000Y15581000D03*
X25856000Y15581000D03*
X25856000Y17181000D03*
X23656000Y17181000D03*
D11*
X30598000Y10793000D03*
X31614000Y10793000D03*
D10*
X19549000Y17651000D03*
X19549000Y16635000D03*
X18533000Y17651000D03*
X18533000Y16635000D03*
X20565000Y16635000D03*
X20565000Y17651000D03*
D22*
X36567000Y7561000D03*
X36567000Y9961000D03*
D10*
X43425000Y12571000D03*
X43425000Y13587000D03*
X42282000Y13587000D03*
X42282000Y12571000D03*
D23*
X39458000Y11362000D03*
X39458000Y10412000D03*
X39458000Y9462000D03*
X42058000Y9462000D03*
X42058000Y11362000D03*
D10*
X47108000Y10031000D03*
X47108000Y11047000D03*
D24*
X1261000Y18032000D03*
X50029000Y1395000D03*
M02*
