M48
; DRILL file {KiCad 7.0.9-7.0.9~ubuntu22.04.1} date  8.07.2024 (пн) 15:30:17
; FORMAT={-:-/ absolute / metric / decimal}
; #@! TF.CreationDate,2024-07-08T15:30:17+03:00
; #@! TF.GenerationSoftware,Kicad,Pcbnew,7.0.9-7.0.9~ubuntu22.04.1
; #@! TF.FileFunction,Plated,1,4,PTH
FMAT,2
METRIC
; #@! TA.AperFunction,Plated,PTH,ViaDrill
T1C0.400
; #@! TA.AperFunction,Plated,PTH,ViaDrill
T2C0.600
; #@! TA.AperFunction,Plated,PTH,ComponentDrill
T3C0.700
; #@! TA.AperFunction,Plated,PTH,ComponentDrill
T4C1.000
; #@! TA.AperFunction,Plated,PTH,ComponentDrill
T5C1.100
; #@! TA.AperFunction,Plated,PTH,ComponentDrill
T6C1.200
%
G90
G05
T1
X17.212Y17.651
X17.898Y13.46
X17.898Y12.444
X18.406Y15.873
X18.533Y6.729
X18.533Y5.713
X19.549Y15.492
X19.694Y9.142
X20.311Y14.603
X20.692Y15.746
X21.073Y13.587
X21.327Y17.778
X21.835Y15.619
X22.033Y4.88
X22.724Y18.159
X23.105Y13.206
X24.883Y4.443
X24.883Y3.554
X25.899Y14.476
X27.042Y3.935
X28.439Y13.968
X28.566Y17.143
X28.82Y12.571
X29.074Y5.078
X29.455Y14.476
X29.709Y17.27
X29.709Y13.206
X30.217Y16.254
X31.614Y5.078
X31.995Y15.238
X32.376Y10.031
X32.884Y16.381
X33.011Y15.238
X33.265Y6.475
X34.281Y9.396
X34.281Y7.237
X39.615Y12.044
X42.282Y10.158
X44.822Y10.412
X44.822Y9.396
X47.997Y11.809
X48.06Y7.618
X48.099Y13.5
X48.124Y5.586
T2
X1.388Y13.968
X1.388Y10.666
X1.388Y7.618
X3.801Y10.666
X6.595Y7.872
X8.881Y4.189
X9.389Y10.92
X9.389Y7.872
X19.295Y1.014
X19.422Y3.3
X21.2Y2.157
X22.978Y1.014
X29.582Y6.105
X32.376Y11.682
X33.392Y12.571
X34.789Y12.444
X34.789Y11.301
X37.71Y17.27
X38.218Y13.46
X40.758Y12.825
X40.758Y10.539
X41.901Y5.332
X42.155Y8.507
X42.282Y6.348
X43.044Y14.984
X43.195Y17.627
X43.679Y16.381
X44.949Y13.206
X46.854Y1.141
X48.759Y10.031
X48.759Y8.761
T3
X24.266Y10.694
X24.266Y7.494
X27.466Y10.694
X27.466Y7.494
T5
X1.769Y16.231
X1.769Y2.769
X3.801Y16.231
X3.801Y2.769
X12.691Y15.215
X12.691Y12.675
X12.691Y10.135
X12.691Y7.595
X12.691Y5.055
X15.231Y13.945
X15.231Y11.405
X15.231Y8.865
X15.231Y6.325
X15.231Y3.785
T6
X25.866Y9.095
T4
G00X9.941Y17.4
M15
G01X9.141Y17.4
M16
G05
G00X9.941Y1.6
M15
G01X9.141Y1.6
M16
G05
G00X49.95Y15.35
M15
G01X48.45Y15.35
M16
G05
G00X49.95Y3.65
M15
G01X48.45Y3.65
M16
G05
T0
M30
