%TF.GenerationSoftware,KiCad,Pcbnew,7.0.9-7.0.9~ubuntu22.04.1*%
%TF.CreationDate,2024-01-19T15:32:02+02:00*%
%TF.ProjectId,USB-GIGABIT_Rev_D,5553422d-4749-4474-9142-49545f526576,rev?*%
%TF.SameCoordinates,PX3473bc0PY4bd12e0*%
%TF.FileFunction,Copper,L1,Top*%
%TF.FilePolarity,Positive*%
%FSLAX46Y46*%
G04 Gerber Fmt 4.6, Leading zero omitted, Abs format (unit mm)*
G04 Created by KiCad (PCBNEW 7.0.9-7.0.9~ubuntu22.04.1) date 2024-01-19 15:32:02*
%MOMM*%
%LPD*%
G01*
G04 APERTURE LIST*
%TA.AperFunction,SMDPad,CuDef*%
%ADD10R,1.400000X1.200000*%
%TD*%
%TA.AperFunction,ComponentPad*%
%ADD11O,4.000000X1.600000*%
%TD*%
%TA.AperFunction,ComponentPad*%
%ADD12C,1.650000*%
%TD*%
%TA.AperFunction,ComponentPad*%
%ADD13O,2.800000X2.000000*%
%TD*%
%TA.AperFunction,SMDPad,CuDef*%
%ADD14R,0.500000X0.550000*%
%TD*%
%TA.AperFunction,SMDPad,CuDef*%
%ADD15R,0.550000X0.500000*%
%TD*%
%TA.AperFunction,SMDPad,CuDef*%
%ADD16R,1.270000X1.524000*%
%TD*%
%TA.AperFunction,SMDPad,CuDef*%
%ADD17R,1.016000X1.778000*%
%TD*%
%TA.AperFunction,SMDPad,CuDef*%
%ADD18R,1.016000X1.016000*%
%TD*%
%TA.AperFunction,SMDPad,CuDef*%
%ADD19R,1.524000X1.270000*%
%TD*%
%TA.AperFunction,SMDPad,CuDef*%
%ADD20R,2.200000X0.600000*%
%TD*%
%TA.AperFunction,SMDPad,CuDef*%
%ADD21R,0.927000X0.200000*%
%TD*%
%TA.AperFunction,SMDPad,CuDef*%
%ADD22R,0.200000X0.927000*%
%TD*%
%TA.AperFunction,ComponentPad*%
%ADD23C,1.300000*%
%TD*%
%TA.AperFunction,ComponentPad*%
%ADD24C,1.800000*%
%TD*%
%TA.AperFunction,SMDPad,CuDef*%
%ADD25R,4.500000X4.500000*%
%TD*%
%TA.AperFunction,SMDPad,CuDef*%
%ADD26R,3.000000X1.600000*%
%TD*%
%TA.AperFunction,SMDPad,CuDef*%
%ADD27R,1.200000X0.550000*%
%TD*%
%TA.AperFunction,ConnectorPad*%
%ADD28C,1.000000*%
%TD*%
%TA.AperFunction,SMDPad,CuDef*%
%ADD29C,1.000000*%
%TD*%
%TA.AperFunction,ViaPad*%
%ADD30C,1.000000*%
%TD*%
%TA.AperFunction,ViaPad*%
%ADD31C,0.800000*%
%TD*%
%TA.AperFunction,Conductor*%
%ADD32C,0.203200*%
%TD*%
%TA.AperFunction,Conductor*%
%ADD33C,0.254000*%
%TD*%
%TA.AperFunction,Conductor*%
%ADD34C,0.127000*%
%TD*%
%TA.AperFunction,Conductor*%
%ADD35C,0.406400*%
%TD*%
%TA.AperFunction,Conductor*%
%ADD36C,0.508000*%
%TD*%
%TA.AperFunction,Conductor*%
%ADD37C,0.762000*%
%TD*%
%TA.AperFunction,Conductor*%
%ADD38C,0.152400*%
%TD*%
%TA.AperFunction,Conductor*%
%ADD39C,0.304800*%
%TD*%
%TA.AperFunction,Conductor*%
%ADD40C,1.016000*%
%TD*%
%TA.AperFunction,Conductor*%
%ADD41C,0.250000*%
%TD*%
%TA.AperFunction,Conductor*%
%ADD42C,0.199900*%
%TD*%
%TA.AperFunction,Conductor*%
%ADD43C,1.524000*%
%TD*%
%TA.AperFunction,Conductor*%
%ADD44C,0.154940*%
%TD*%
%TA.AperFunction,Conductor*%
%ADD45C,0.177800*%
%TD*%
G04 APERTURE END LIST*
D10*
X23656000Y17181000D03*
X25856000Y15581000D03*
X25856000Y17181000D03*
X23656000Y15581000D03*
D11*
X49200000Y3650000D03*
X49200000Y15350000D03*
D12*
X12691500Y15215000D03*
X15231500Y13945000D03*
X12691500Y12675000D03*
X15231500Y11405000D03*
X12691500Y10135000D03*
X15231500Y8865000D03*
X12691500Y7595000D03*
X15231500Y6325000D03*
X12691500Y5055000D03*
X15231500Y3785000D03*
X3801500Y16231000D03*
X1769500Y16231000D03*
X3801500Y2769000D03*
X1769500Y2769000D03*
D13*
X9541500Y17400000D03*
X9541500Y1600000D03*
D14*
X18914000Y8761000D03*
X17898000Y8761000D03*
D15*
X46219000Y10031000D03*
X46219000Y11047000D03*
D14*
X17898000Y9650000D03*
X18914000Y9650000D03*
D16*
X46346000Y14984000D03*
X44314000Y14984000D03*
D15*
X42282000Y16381000D03*
X42282000Y17397000D03*
X27423000Y17524000D03*
X27423000Y16508000D03*
X22089000Y16635000D03*
X22089000Y17651000D03*
D17*
X11675000Y1649000D03*
X15231000Y1649000D03*
D15*
X21962000Y13841000D03*
X21962000Y12825000D03*
X20692000Y3173000D03*
X20692000Y4189000D03*
D18*
X39742000Y7491000D03*
X41520000Y7491000D03*
D14*
X31233000Y7618000D03*
X32249000Y7618000D03*
X29455000Y16381000D03*
X28439000Y16381000D03*
D15*
X18787000Y12698000D03*
X18787000Y11682000D03*
D18*
X35932000Y11809000D03*
X37710000Y11809000D03*
D15*
X19422000Y6856000D03*
X19422000Y5840000D03*
D14*
X22089000Y14857000D03*
X21073000Y14857000D03*
D15*
X33646000Y11682000D03*
X33646000Y10666000D03*
D14*
X28439000Y15365000D03*
X29455000Y15365000D03*
X31233000Y6700000D03*
X32249000Y6700000D03*
D15*
X22724000Y3173000D03*
X22724000Y4189000D03*
X21708000Y4189000D03*
X21708000Y3173000D03*
D14*
X30852000Y5078000D03*
X29836000Y5078000D03*
D19*
X40504000Y5586000D03*
X38472000Y5586000D03*
D15*
X43552000Y7364000D03*
X43552000Y8380000D03*
X44441000Y7364000D03*
X44441000Y8380000D03*
D16*
X46981000Y17143000D03*
X44949000Y17143000D03*
D14*
X30852000Y17397000D03*
X31868000Y17397000D03*
X31868000Y16381000D03*
X30852000Y16381000D03*
X31614000Y12063000D03*
X30598000Y12063000D03*
X31614000Y13079000D03*
X30598000Y13079000D03*
D15*
X33646000Y7364000D03*
X33646000Y8380000D03*
D14*
X30344000Y15238000D03*
X31360000Y15238000D03*
X30598000Y14095000D03*
X31614000Y14095000D03*
D20*
X34856000Y17547137D03*
X34856000Y16277137D03*
X34856000Y15007137D03*
X34856000Y13737137D03*
X40056000Y13737137D03*
X40056000Y15007137D03*
X40056000Y16277137D03*
X40056000Y17547137D03*
D21*
X22882488Y11294500D03*
X22882488Y10894500D03*
X22882488Y10494500D03*
X22882488Y10094500D03*
X22882488Y9694500D03*
X22882488Y9294500D03*
X22882488Y8894500D03*
X22882488Y8494500D03*
X22882488Y8094500D03*
X22882488Y7694500D03*
X22882488Y7294500D03*
X22882488Y6894500D03*
D22*
X23665988Y6111000D03*
X24065988Y6111000D03*
X24465988Y6111000D03*
X24865988Y6111000D03*
X25265988Y6111000D03*
X25665988Y6111000D03*
X26065988Y6111000D03*
X26465988Y6111000D03*
X26865988Y6111000D03*
X27265988Y6111000D03*
X27665988Y6111000D03*
X28065988Y6111000D03*
D21*
X28849488Y6894500D03*
X28849488Y7294500D03*
X28849488Y7694500D03*
X28849488Y8094500D03*
X28849488Y8494500D03*
X28849488Y8894500D03*
X28849488Y9294500D03*
X28849488Y9694500D03*
X28849488Y10094500D03*
X28849488Y10494500D03*
X28849488Y10894500D03*
X28849488Y11294500D03*
D22*
X28065988Y12078000D03*
X27665988Y12078000D03*
X27265988Y12078000D03*
X26865988Y12078000D03*
X26465988Y12078000D03*
X26065988Y12078000D03*
X25665988Y12078000D03*
X25265988Y12078000D03*
X24865988Y12078000D03*
X24465988Y12078000D03*
X24065988Y12078000D03*
X23665988Y12078000D03*
D23*
X27465988Y10694500D03*
X24265988Y10694500D03*
D24*
X25865988Y9094500D03*
D25*
X25865988Y9094500D03*
D23*
X27465988Y7494500D03*
X24265988Y7494500D03*
D14*
X30598000Y10793000D03*
X31614000Y10793000D03*
D15*
X19549000Y17651000D03*
X19549000Y16635000D03*
X18533000Y17651000D03*
X18533000Y16635000D03*
X20565000Y16635000D03*
X20565000Y17651000D03*
D26*
X36567000Y7561000D03*
X36567000Y9961000D03*
D15*
X43425000Y12571000D03*
X43425000Y13587000D03*
X42282000Y13587000D03*
X42282000Y12571000D03*
D27*
X39458000Y11362000D03*
X39458000Y10412000D03*
X39458000Y9462000D03*
X42058000Y9462000D03*
X42058000Y11362000D03*
D15*
X47108000Y10031000D03*
X47108000Y11047000D03*
D28*
X1515000Y5205000D03*
X53000000Y17500000D03*
D29*
X1261000Y18032000D03*
X53000000Y1500000D03*
D30*
X50000000Y17500000D03*
X21200000Y2157000D03*
D31*
X17212200Y17651000D03*
D30*
X3801000Y10666000D03*
X1388000Y7618000D03*
X1388000Y10666000D03*
X1388000Y13968000D03*
X6595000Y7872000D03*
X9389000Y10920000D03*
X9389000Y7872000D03*
X8881000Y4189000D03*
D31*
X18406000Y15873000D03*
X22724000Y18159000D03*
X24883000Y3554000D03*
D30*
X40758000Y10539000D03*
X43044000Y14984000D03*
X42155000Y8507000D03*
X43679000Y16381000D03*
X37710000Y17270000D03*
D31*
X25899000Y14476000D03*
X17898000Y13460000D03*
D30*
X40758000Y12825000D03*
X38218000Y13460000D03*
X46854000Y1141000D03*
X44949000Y13206000D03*
X19295000Y1014000D03*
D31*
X21327000Y17778000D03*
X24883000Y4443000D03*
X18533000Y5713000D03*
X20311000Y14603000D03*
X19694500Y9142000D03*
D30*
X48759000Y8761000D03*
D31*
X33265000Y6475000D03*
D30*
X33392000Y12571000D03*
D31*
X31614000Y5078000D03*
X30217000Y16254000D03*
D30*
X22978000Y1014000D03*
X48759000Y10031000D03*
D31*
X34281000Y7237000D03*
X28566000Y17143000D03*
D30*
X29582000Y6104503D03*
X19422000Y3300000D03*
D31*
X21073000Y13587000D03*
D30*
X43195230Y17626770D03*
X32376000Y11682000D03*
D31*
X31995000Y15238000D03*
X39615000Y12044500D03*
X42282000Y10158000D03*
X27042000Y3935000D03*
X29455000Y14476000D03*
D30*
X34789000Y11301000D03*
D31*
X29074000Y5078000D03*
X17898000Y12444000D03*
X18533000Y6729000D03*
D30*
X34789000Y12444000D03*
D31*
X22033476Y4879524D03*
X21835000Y15619000D03*
X33011000Y15238000D03*
X28820000Y12571000D03*
X20692000Y15746000D03*
X23105000Y13206000D03*
X47997000Y11809000D03*
X48098600Y13500000D03*
D30*
X41901000Y5332000D03*
X42282000Y6348000D03*
D31*
X34281000Y9396000D03*
X29709000Y17270000D03*
X32376000Y10031000D03*
X44822000Y10412000D03*
X44822000Y9396000D03*
X48060108Y7618000D03*
X48124000Y5586000D03*
X32884000Y16381000D03*
X29709000Y13206000D03*
X28439000Y13968000D03*
X19549000Y15492000D03*
D32*
X49008000Y18492000D02*
X42500000Y18492000D01*
X50000000Y17500000D02*
X49008000Y18492000D01*
D33*
X19803000Y18413000D02*
X14342000Y18413000D01*
X20565000Y17651000D02*
X19803000Y18413000D01*
D34*
X13684000Y7595000D02*
X14239190Y7595000D01*
X14389190Y7745000D02*
X17157790Y7745000D01*
X21908000Y8894500D02*
X22187237Y8894500D01*
X14239190Y7595000D02*
X14389190Y7745000D01*
X17157790Y7745000D02*
X17386390Y7973600D01*
X17386390Y7973600D02*
X19978994Y7973600D01*
X19978994Y7973600D02*
X20826894Y8821500D01*
X20826894Y8821500D02*
X21835000Y8821500D01*
X21835000Y8821500D02*
X21908000Y8894500D01*
X14342000Y6729000D02*
X14342000Y7338600D01*
X21860400Y8567500D02*
X21933400Y8494500D01*
X14342000Y7338600D02*
X14494400Y7491000D01*
X14494400Y7491000D02*
X17263000Y7491000D01*
X17263000Y7491000D02*
X17491600Y7719600D01*
X17491600Y7719600D02*
X20084206Y7719600D01*
X20084206Y7719600D02*
X20932106Y8567500D01*
X20932106Y8567500D02*
X21860400Y8567500D01*
X21933400Y8494500D02*
X22187237Y8494500D01*
X13707000Y12444000D02*
X14342000Y12444000D01*
X14342000Y12444000D02*
X14723000Y12825000D01*
X21835000Y9621500D02*
X21908000Y9694500D01*
X14723000Y12825000D02*
X16172606Y12825000D01*
X16172606Y12825000D02*
X18204606Y10793000D01*
X18204606Y10793000D02*
X19728604Y10793000D01*
X19728604Y10793000D02*
X20900106Y9621500D01*
X20900106Y9621500D02*
X21835000Y9621500D01*
X21908000Y9694500D02*
X22187237Y9694500D01*
X22187237Y9294500D02*
X21908000Y9294500D01*
X14850000Y12571000D02*
X14723000Y12444000D01*
X21908000Y9294500D02*
X21835000Y9367500D01*
X21835000Y9367500D02*
X20794894Y9367500D01*
X20794894Y9367500D02*
X19623394Y10539000D01*
X19623394Y10539000D02*
X18099394Y10539000D01*
X18099394Y10539000D02*
X16067394Y12571000D01*
X16067394Y12571000D02*
X14850000Y12571000D01*
X14723000Y12444000D02*
X14723000Y11913500D01*
D32*
X23665988Y6111000D02*
X23562200Y6007212D01*
X23562200Y6007212D02*
X23562200Y5789200D01*
D35*
X22724000Y4951000D02*
X23562200Y5789200D01*
X22724000Y4951000D02*
X22652524Y4879524D01*
X22652524Y4879524D02*
X22033476Y4879524D01*
X22724000Y4189000D02*
X22724000Y4951000D01*
D36*
X22033476Y4879524D02*
X22089000Y4824000D01*
X22089000Y4824000D02*
X22089000Y4189000D01*
X21708000Y4189000D02*
X22089000Y4189000D01*
X22089000Y4189000D02*
X22724000Y4189000D01*
D32*
X22882488Y6894500D02*
X22742388Y6754400D01*
X22742388Y6754400D02*
X22597000Y6754400D01*
D35*
X20692000Y4189000D02*
X20692000Y4570000D01*
X20692000Y4570000D02*
X22597000Y6475000D01*
X22597000Y6475000D02*
X22597000Y6754400D01*
D36*
X20692000Y3173000D02*
X21200000Y3173000D01*
X21200000Y3173000D02*
X21708000Y3173000D01*
X21200000Y2157000D02*
X21200000Y3173000D01*
X21708000Y3173000D02*
X22724000Y3173000D01*
D35*
X46346000Y633000D02*
X46854000Y1141000D01*
X22978000Y1014000D02*
X23359000Y633000D01*
X23359000Y633000D02*
X46346000Y633000D01*
D34*
X14342000Y4189000D02*
X14291200Y4239800D01*
X14291200Y4239800D02*
X14291200Y4794990D01*
X16194394Y4951000D02*
X16702396Y4443000D01*
X14291200Y4794990D02*
X14447210Y4951000D01*
X19474604Y4443000D02*
X22326104Y7294500D01*
X22326104Y7294500D02*
X22379986Y7294500D01*
X14447210Y4951000D02*
X16194394Y4951000D01*
X16702396Y4443000D02*
X19474604Y4443000D01*
X13603000Y5055000D02*
X14192000Y5055000D01*
X14192000Y5055000D02*
X14342000Y5205000D01*
X14342000Y5205000D02*
X16299606Y5205000D01*
X16299606Y5205000D02*
X16807606Y4697000D01*
X16807606Y4697000D02*
X19369394Y4697000D01*
X19369394Y4697000D02*
X22366894Y7694500D01*
D37*
X12691500Y5055000D02*
X13603000Y5055000D01*
X14746000Y3785000D02*
X14342000Y4189000D01*
D32*
X22882488Y7294500D02*
X22379986Y7294500D01*
X22366894Y7694500D02*
X22882488Y7694500D01*
D37*
X15231500Y3785000D02*
X14746000Y3785000D01*
D35*
X18533000Y5713000D02*
X18660000Y5840000D01*
X18660000Y5840000D02*
X19422000Y5840000D01*
X18533000Y6729000D02*
X18660000Y6856000D01*
X18660000Y6856000D02*
X19422000Y6856000D01*
D34*
X18025000Y17079500D02*
X18088500Y17143000D01*
X18088500Y17143000D02*
X19041000Y17143000D01*
X19041000Y17143000D02*
X19295000Y17397000D01*
D38*
X17212200Y17651000D02*
X17009000Y17651000D01*
X12740368Y17905000D02*
X7914368Y13079000D01*
X17009000Y17651000D02*
X16755000Y17905000D01*
X16755000Y17905000D02*
X12740368Y17905000D01*
X7914368Y13079000D02*
X5071000Y13079000D01*
X3801500Y14348500D02*
X3801500Y15365000D01*
X5071000Y13079000D02*
X3801500Y14348500D01*
X16755000Y16635000D02*
X16247000Y17143000D01*
X18025000Y17079500D02*
X17580500Y16635000D01*
X17580500Y16635000D02*
X16755000Y16635000D01*
X16247000Y17143000D02*
X12768632Y17143000D01*
X3166000Y7540368D02*
X3166000Y4165500D01*
X12768632Y17143000D02*
X3166000Y7540368D01*
X3166000Y4165500D02*
X2352250Y3351750D01*
X2392750Y15607750D02*
X3293000Y14707500D01*
X3293000Y14222000D02*
X4944000Y12571000D01*
X3293000Y14707500D02*
X3293000Y14222000D01*
X12754500Y17524000D02*
X16374000Y17524000D01*
X4944000Y12571000D02*
X7801500Y12571000D01*
X7801500Y12571000D02*
X12754500Y17524000D01*
X16374000Y17524000D02*
X16882000Y17016000D01*
X16882000Y17016000D02*
X17502868Y17016000D01*
X17502868Y17016000D02*
X18137868Y17651000D01*
X18137868Y17651000D02*
X18152000Y17651000D01*
D35*
X18787000Y12698000D02*
X18025000Y13460000D01*
X18025000Y13460000D02*
X17898000Y13460000D01*
X18660000Y11682000D02*
X17898000Y12444000D01*
X21327000Y10285000D02*
X19930000Y11682000D01*
X19930000Y11682000D02*
X18787000Y11682000D01*
D33*
X22945988Y10094500D02*
X21517500Y10094500D01*
X21517500Y10094500D02*
X21327000Y10285000D01*
D35*
X21454000Y7872000D02*
X20438000Y6856000D01*
X20438000Y6856000D02*
X19422000Y6856000D01*
D33*
X21454000Y7872000D02*
X21676500Y8094500D01*
X21676500Y8094500D02*
X22945988Y8094500D01*
D32*
X22187237Y8894500D02*
X22882488Y8894500D01*
X22187237Y8494500D02*
X22882488Y8494500D01*
D37*
X15231500Y6325000D02*
X14746000Y6325000D01*
X14746000Y6325000D02*
X14342000Y6729000D01*
X12691500Y7595000D02*
X13684000Y7595000D01*
X12691500Y15215000D02*
X12922500Y14984000D01*
X12922500Y14984000D02*
X13554600Y14984000D01*
D34*
X22343000Y10894500D02*
X22141706Y10894500D01*
X22141706Y10894500D02*
X18306206Y14730000D01*
X17442606Y14730000D02*
X16426604Y15746000D01*
X18306206Y14730000D02*
X17442606Y14730000D01*
X16426604Y15746000D02*
X14846390Y15746000D01*
X14084390Y14984000D02*
X13554600Y14984000D01*
X14846390Y15746000D02*
X14084390Y14984000D01*
X14596000Y14580500D02*
X14596000Y15136400D01*
X14596000Y15136400D02*
X14951600Y15492000D01*
X14951600Y15492000D02*
X16321394Y15492000D01*
X16321394Y15492000D02*
X17337394Y14476000D01*
X17337394Y14476000D02*
X18200994Y14476000D01*
X18200994Y14476000D02*
X22182494Y10494500D01*
X22182494Y10494500D02*
X22191630Y10494500D01*
D32*
X22343000Y10894500D02*
X22882488Y10894500D01*
X22191630Y10494500D02*
X22882488Y10494500D01*
X22187237Y9294500D02*
X22882488Y9294500D01*
X22187237Y9694500D02*
X22882488Y9694500D01*
D39*
X17898000Y8761000D02*
X16120000Y8761000D01*
D40*
X15335500Y8761000D02*
X16120000Y8761000D01*
X15231500Y8865000D02*
X15335500Y8761000D01*
D39*
X13653800Y10135000D02*
X16143000Y10135000D01*
D40*
X12691500Y10135000D02*
X13653800Y10135000D01*
D37*
X12691500Y12675000D02*
X12922500Y12444000D01*
X12922500Y12444000D02*
X13707000Y12444000D01*
X15231500Y11405000D02*
X14723000Y11913500D01*
D36*
X19694500Y9142000D02*
X18914000Y9142000D01*
D37*
X14596000Y14580500D02*
X15231500Y13945000D01*
D36*
X21073000Y13587000D02*
X21835000Y12825000D01*
X21835000Y12825000D02*
X21962000Y12825000D01*
D41*
X18660000Y11682000D02*
X18787000Y11682000D01*
D35*
X19549000Y17651000D02*
X19295000Y17397000D01*
D36*
X18533000Y17651000D02*
X18152000Y17651000D01*
X18533000Y16635000D02*
X18533000Y16000000D01*
X18533000Y16000000D02*
X18406000Y15873000D01*
X19549000Y15492000D02*
X19549000Y16635000D01*
X20692000Y15746000D02*
X20565000Y15873000D01*
X20565000Y15873000D02*
X20565000Y16635000D01*
D35*
X22089000Y15111000D02*
X22089000Y14857000D01*
X21835000Y15619000D02*
X21835000Y15365000D01*
X21835000Y15365000D02*
X22089000Y15111000D01*
X23656000Y15581000D02*
X23262400Y15974600D01*
X23262400Y15974600D02*
X22749400Y15974600D01*
X22749400Y15974600D02*
X22089000Y16635000D01*
X25856000Y15581000D02*
X26249600Y15974600D01*
X26249600Y15974600D02*
X26889600Y15974600D01*
X26889600Y15974600D02*
X27423000Y16508000D01*
D39*
X17898000Y9650000D02*
X16628000Y9650000D01*
X16628000Y9650000D02*
X16143000Y10135000D01*
D36*
X18914000Y8761000D02*
X18914000Y9142000D01*
X18914000Y9142000D02*
X18914000Y9650000D01*
D40*
X15231000Y1649000D02*
X15612000Y1268000D01*
X15612000Y1268000D02*
X19041000Y1268000D01*
X19041000Y1268000D02*
X19295000Y1014000D01*
X1769500Y16231000D02*
X2392750Y15607750D01*
X3801500Y16231000D02*
X3801500Y15365000D01*
X1769500Y2769000D02*
X2352250Y3351750D01*
D36*
X19422000Y3300000D02*
X20311000Y4189000D01*
X20311000Y4189000D02*
X20692000Y4189000D01*
X23186000Y17651000D02*
X22089000Y17651000D01*
X21200000Y14603000D02*
X20311000Y14603000D01*
D35*
X21962000Y13841000D02*
X21073000Y14730000D01*
D36*
X21073000Y14730000D02*
X21073000Y14857000D01*
D35*
X22089000Y14857000D02*
X22851000Y14095000D01*
X22851000Y14095000D02*
X23359000Y14095000D01*
X23359000Y14095000D02*
X24248000Y13206000D01*
D32*
X24865988Y13604012D02*
X24865988Y12078000D01*
X24121000Y14349000D02*
X24865988Y13604012D01*
X24121000Y14730000D02*
X24121000Y14349000D01*
D36*
X24121000Y15116000D02*
X23656000Y15581000D01*
X24121000Y14730000D02*
X24121000Y15116000D01*
D32*
X24832200Y16584200D02*
X24756000Y16508000D01*
X24756000Y16508000D02*
X24756000Y14476000D01*
X24756000Y14476000D02*
X25265988Y13966012D01*
X25265988Y13966012D02*
X25265988Y12078000D01*
X24465988Y12078000D02*
X24465988Y12988012D01*
X24465988Y12988012D02*
X24248000Y13206000D01*
D36*
X22216000Y12825000D02*
X22978000Y12063000D01*
X21962000Y12825000D02*
X22216000Y12825000D01*
D32*
X23105000Y13206000D02*
X23486000Y13206000D01*
X23486000Y13206000D02*
X24065988Y12626012D01*
X24065988Y12626012D02*
X24065988Y12078000D01*
D39*
X22978000Y11390012D02*
X22978000Y12063000D01*
X23613000Y12063000D02*
X22978000Y12063000D01*
D32*
X23665988Y12078000D02*
X23650988Y12063000D01*
X23650988Y12063000D02*
X23613000Y12063000D01*
X22978000Y11390012D02*
X22882488Y11294500D01*
D37*
X25856000Y15581000D02*
X25899000Y15538000D01*
X25899000Y15538000D02*
X25899000Y14476000D01*
D36*
X22089000Y17651000D02*
X21454000Y17651000D01*
X21454000Y17651000D02*
X21327000Y17778000D01*
X22851000Y18286000D02*
X23232000Y18286000D01*
X23232000Y18286000D02*
X36694000Y18286000D01*
X23656000Y17181000D02*
X23232000Y17605000D01*
X23232000Y17605000D02*
X23232000Y18286000D01*
X23656000Y17181000D02*
X23186000Y17651000D01*
X22724000Y18159000D02*
X22851000Y18286000D01*
X36694000Y18286000D02*
X37710000Y17270000D01*
X38472000Y12825000D02*
X38548200Y12901200D01*
D33*
X24883000Y4443000D02*
X25265988Y4825988D01*
D36*
X30090000Y16381000D02*
X30217000Y16254000D01*
X38495137Y13737137D02*
X38218000Y13460000D01*
X31868000Y12825000D02*
X31614000Y13079000D01*
D32*
X28065988Y10094500D02*
X27465988Y10694500D01*
D36*
X40056000Y13737137D02*
X38495137Y13737137D01*
X38548200Y12901200D02*
X40681800Y12901200D01*
X33138000Y12825000D02*
X31868000Y12825000D01*
D40*
X43679000Y14984000D02*
X43679000Y16381000D01*
D36*
X40758000Y13737137D02*
X40758000Y12825000D01*
D32*
X28849488Y10094500D02*
X28065988Y10094500D01*
D33*
X25265988Y4825988D02*
X25265988Y6111000D01*
D37*
X24883000Y4443000D02*
X24883000Y3554000D01*
D33*
X31614000Y10793000D02*
X32757000Y10793000D01*
D40*
X44568000Y17143000D02*
X43806000Y16381000D01*
D36*
X30344000Y16381000D02*
X30217000Y16254000D01*
D42*
X24865988Y6174500D02*
X24865988Y7764500D01*
D36*
X40631000Y10412000D02*
X39458000Y10412000D01*
X44060000Y13587000D02*
X44314000Y13841000D01*
X38218000Y13079000D02*
X38472000Y12825000D01*
D42*
X26865988Y6174500D02*
X26865988Y7764500D01*
D36*
X38218000Y13460000D02*
X38218000Y13079000D01*
D40*
X43044000Y14984000D02*
X44314000Y14984000D01*
D36*
X20692000Y17778000D02*
X20565000Y17651000D01*
D40*
X44314000Y14984000D02*
X43679000Y14984000D01*
D36*
X37710000Y12063000D02*
X38472000Y12825000D01*
X40681800Y12901200D02*
X40758000Y12825000D01*
X33646000Y12317000D02*
X33392000Y12571000D01*
D42*
X25265988Y7364500D02*
X24700988Y7929500D01*
D33*
X32757000Y10793000D02*
X33646000Y11682000D01*
D32*
X28849488Y10094500D02*
X30915500Y10094500D01*
D36*
X33392000Y12571000D02*
X33138000Y12825000D01*
D35*
X31614000Y14095000D02*
X31614000Y13079000D01*
D42*
X24865988Y7764500D02*
X24700988Y7929500D01*
D36*
X37710000Y11809000D02*
X37710000Y12063000D01*
X43425000Y13587000D02*
X44060000Y13587000D01*
D33*
X33265000Y6475000D02*
X33040000Y6700000D01*
D42*
X25265988Y6174500D02*
X25265988Y7364500D01*
D40*
X43806000Y16381000D02*
X43679000Y16381000D01*
D36*
X40758000Y10539000D02*
X40631000Y10412000D01*
D42*
X26865988Y7764500D02*
X27030988Y7929500D01*
D32*
X30915500Y10094500D02*
X31614000Y10793000D01*
D36*
X21327000Y17778000D02*
X20692000Y17778000D01*
D42*
X27195988Y10094500D02*
X27030988Y10259500D01*
D40*
X48759000Y10031000D02*
X48759000Y8761000D01*
D36*
X42282000Y16381000D02*
X43679000Y16381000D01*
D40*
X44314000Y13841000D02*
X44949000Y13206000D01*
X44314000Y14984000D02*
X44314000Y13841000D01*
D33*
X33040000Y6700000D02*
X32249000Y6700000D01*
D37*
X42155000Y8507000D02*
X42155000Y8126000D01*
D36*
X33646000Y11682000D02*
X33646000Y12317000D01*
D35*
X39458000Y10412000D02*
X38980000Y10412000D01*
D40*
X44949000Y17143000D02*
X44568000Y17143000D01*
D36*
X29455000Y16381000D02*
X30090000Y16381000D01*
X30852000Y16381000D02*
X30344000Y16381000D01*
D40*
X40758000Y12825000D02*
X40758000Y10539000D01*
D35*
X29455000Y15365000D02*
X29455000Y16381000D01*
X37710000Y11682000D02*
X37710000Y11809000D01*
X38980000Y10412000D02*
X37710000Y11682000D01*
D36*
X40056000Y13737137D02*
X40758000Y13737137D01*
D37*
X42155000Y8126000D02*
X41520000Y7491000D01*
D35*
X31614000Y5078000D02*
X30852000Y5078000D01*
D43*
X47108000Y17016000D02*
X47108000Y15350000D01*
D40*
X50458000Y15413000D02*
X50458000Y3650000D01*
X49200000Y15350000D02*
X49263000Y15413000D01*
X49200000Y15350000D02*
X47108000Y15350000D01*
X49263000Y15413000D02*
X50458000Y15413000D01*
X48834000Y14984000D02*
X49200000Y15350000D01*
X46346000Y14984000D02*
X48834000Y14984000D01*
X50458000Y3650000D02*
X49200000Y3650000D01*
X46981000Y17143000D02*
X47108000Y17016000D01*
D36*
X31512400Y11682000D02*
X31448900Y11745500D01*
X34281000Y7237000D02*
X34154000Y7364000D01*
X43195230Y17626770D02*
X42965460Y17397000D01*
D32*
X30496500Y10894500D02*
X30598000Y10793000D01*
D36*
X42965460Y17397000D02*
X42282000Y17397000D01*
D32*
X28849488Y10894500D02*
X30496500Y10894500D01*
D33*
X32630000Y8253000D02*
X33519000Y7364000D01*
X31233000Y7618000D02*
X31055200Y7618000D01*
D36*
X34154000Y7364000D02*
X33646000Y7364000D01*
X28439000Y17016000D02*
X28566000Y17143000D01*
X31448900Y11745500D02*
X31614000Y11910600D01*
X31614000Y11910600D02*
X30598000Y10894600D01*
D39*
X27296000Y14857000D02*
X27296000Y15238000D01*
D36*
X31614000Y12063000D02*
X31614000Y11910600D01*
X29582000Y6348000D02*
X29201000Y6729000D01*
D32*
X29014988Y6729000D02*
X29201000Y6729000D01*
D42*
X29582000Y6104503D02*
X29575985Y6104503D01*
D39*
X31055200Y7618000D02*
X30578700Y8094500D01*
D32*
X28849488Y10494500D02*
X30299500Y10494500D01*
X25665988Y13244794D02*
X25665988Y12014500D01*
D33*
X31233000Y7618000D02*
X31868000Y8253000D01*
D36*
X40056000Y17547137D02*
X42131863Y17547137D01*
D39*
X27296000Y15238000D02*
X28439000Y16381000D01*
D36*
X32376000Y11682000D02*
X31512400Y11682000D01*
D42*
X30578700Y8094500D02*
X28785988Y8094500D01*
D36*
X42131863Y17547137D02*
X42282000Y17397000D01*
X29582000Y6104503D02*
X29582000Y6348000D01*
D32*
X30299500Y10494500D02*
X30598000Y10793000D01*
D36*
X30598000Y10894600D02*
X30598000Y10793000D01*
D33*
X31868000Y8253000D02*
X32630000Y8253000D01*
D32*
X27296000Y14857000D02*
X27278194Y14857000D01*
D33*
X33519000Y7364000D02*
X33646000Y7364000D01*
D32*
X28849488Y6894500D02*
X29014988Y6729000D01*
D36*
X28439000Y16381000D02*
X28439000Y17016000D01*
X31360000Y15238000D02*
X31995000Y15238000D01*
D33*
X27278194Y14857000D02*
X25665988Y13244794D01*
D36*
X25429000Y17181000D02*
X25856000Y17181000D01*
X25856000Y17181000D02*
X26199000Y17524000D01*
X24832200Y16584200D02*
X25429000Y17181000D01*
D44*
X26010000Y17130200D02*
X25959200Y17181000D01*
D39*
X25811678Y17130200D02*
X25856000Y17174522D01*
X25856000Y17174522D02*
X25856000Y17181000D01*
D36*
X26199000Y17524000D02*
X27423000Y17524000D01*
D44*
X25959200Y17181000D02*
X25856000Y17181000D01*
D39*
X23681512Y15581000D02*
X23656000Y15581000D01*
D37*
X11571000Y1753000D02*
X11675000Y1649000D01*
D40*
X9389500Y1753000D02*
X11571000Y1753000D01*
D33*
X41459000Y9462000D02*
X42058000Y9462000D01*
D36*
X29886800Y7186200D02*
X30471000Y6602000D01*
D37*
X39742000Y7491000D02*
X39742000Y7237000D01*
D33*
X41393000Y9396000D02*
X41459000Y9462000D01*
D36*
X30788500Y5967000D02*
X32249000Y5967000D01*
X30471000Y6602000D02*
X30471000Y6284500D01*
D37*
X38472000Y5967000D02*
X38472000Y5586000D01*
X39742000Y7237000D02*
X38472000Y5967000D01*
D42*
X29886800Y7186200D02*
X29778500Y7294500D01*
D36*
X32249000Y5967000D02*
X32503000Y5713000D01*
X42282000Y9686000D02*
X42282000Y10158000D01*
D37*
X32884000Y5332000D02*
X38218000Y5332000D01*
X38218000Y5332000D02*
X38472000Y5586000D01*
D36*
X39458000Y11362000D02*
X39615000Y11519000D01*
X39615000Y11519000D02*
X39615000Y12044500D01*
D37*
X41393000Y9396000D02*
X39742000Y7745000D01*
D36*
X42058000Y9462000D02*
X42282000Y9686000D01*
D37*
X39742000Y7745000D02*
X39742000Y7491000D01*
X32503000Y5713000D02*
X32884000Y5332000D01*
D36*
X30471000Y6284500D02*
X30788500Y5967000D01*
D42*
X29778500Y7294500D02*
X28785988Y7294500D01*
D32*
X26465988Y6111000D02*
X26465988Y5400012D01*
D33*
X36313000Y12952000D02*
X36313000Y12190000D01*
D40*
X34789000Y11301000D02*
X34789000Y11809000D01*
D32*
X28185000Y5865400D02*
X28065988Y5984412D01*
D40*
X35424000Y11809000D02*
X34789000Y12444000D01*
D39*
X27826847Y14879847D02*
X27826847Y14707153D01*
D32*
X28065988Y5984412D02*
X28065988Y6111000D01*
D35*
X28185000Y5865400D02*
X28972400Y5078000D01*
D40*
X35932000Y11809000D02*
X35424000Y11809000D01*
D36*
X34789000Y11301000D02*
X34535000Y11301000D01*
D33*
X26065988Y12946294D02*
X27826847Y14707153D01*
D32*
X26065988Y12946294D02*
X26065988Y12014500D01*
D39*
X29328000Y14476000D02*
X28439000Y15365000D01*
D40*
X35494000Y10596000D02*
X34789000Y11301000D01*
D33*
X36313000Y12190000D02*
X35932000Y11809000D01*
D39*
X29455000Y14476000D02*
X29328000Y14476000D01*
D32*
X28439000Y15319306D02*
X28439000Y15365000D01*
X28785988Y9294500D02*
X32909500Y9294500D01*
D40*
X34789000Y11809000D02*
X34789000Y12444000D01*
D33*
X41520000Y14349000D02*
X37710000Y14349000D01*
D36*
X42282000Y13587000D02*
X42028000Y13841000D01*
D33*
X37710000Y14349000D02*
X36313000Y12952000D01*
D35*
X29074000Y5078000D02*
X29836000Y5078000D01*
D36*
X34535000Y11301000D02*
X33900000Y10666000D01*
D33*
X42028000Y13841000D02*
X41520000Y14349000D01*
D39*
X27042000Y4062000D02*
X26661000Y4443000D01*
X27042000Y3935000D02*
X27042000Y4062000D01*
X28439000Y15365000D02*
X28312000Y15365000D01*
D35*
X28972400Y5078000D02*
X29074000Y5078000D01*
D39*
X26661000Y4443000D02*
X26661000Y5205000D01*
D40*
X35932000Y10596000D02*
X35932000Y11809000D01*
D36*
X33900000Y10666000D02*
X33646000Y10666000D01*
D32*
X26465988Y5400012D02*
X26661000Y5205000D01*
D36*
X33646000Y10031000D02*
X33646000Y10666000D01*
D40*
X35932000Y11809000D02*
X34789000Y11809000D01*
D36*
X33138000Y9523000D02*
X33646000Y10031000D01*
D40*
X35932000Y10596000D02*
X35494000Y10596000D01*
X36567000Y9961000D02*
X35932000Y10596000D01*
D32*
X32909500Y9294500D02*
X33138000Y9523000D01*
D39*
X28312000Y15365000D02*
X27826847Y14879847D01*
D32*
X31160400Y6700000D02*
X31233000Y6700000D01*
X30165900Y7694500D02*
X31160400Y6700000D01*
X28785988Y7694500D02*
X30165900Y7694500D01*
D36*
X39458000Y9366000D02*
X39234000Y9142000D01*
D40*
X37653000Y7561000D02*
X39234000Y9142000D01*
X36567000Y7561000D02*
X37653000Y7561000D01*
D36*
X39458000Y9462000D02*
X39458000Y9366000D01*
D38*
X32884000Y17397000D02*
X33646000Y16635000D01*
D36*
X31868000Y17397000D02*
X32249000Y17397000D01*
X34003863Y16277137D02*
X33646000Y16635000D01*
X34856000Y16277137D02*
X34003863Y16277137D01*
D38*
X32249000Y17397000D02*
X32884000Y17397000D01*
X28566000Y12825000D02*
X27795588Y12825000D01*
X28820000Y12571000D02*
X28566000Y12825000D01*
D36*
X34856000Y15007137D02*
X33241863Y15007137D01*
D38*
X27795588Y12825000D02*
X27665988Y12695400D01*
D36*
X33241863Y15007137D02*
X33011000Y15238000D01*
D42*
X27665988Y12695400D02*
X27665988Y12014500D01*
D36*
X31868000Y16381000D02*
X32122000Y16127000D01*
D38*
X32122000Y16127000D02*
X33011000Y15238000D01*
D32*
X28065988Y11809000D02*
X28065988Y12078000D01*
D36*
X30598000Y12063000D02*
X30217000Y12063000D01*
D32*
X29963000Y11809000D02*
X28065988Y11809000D01*
X30217000Y12063000D02*
X29963000Y11809000D01*
D35*
X30598000Y12063000D02*
X30598000Y13079000D01*
D32*
X28785988Y8494500D02*
X29569500Y8494500D01*
D38*
X29569500Y8494500D02*
X29709000Y8634000D01*
X33011000Y8634000D02*
X33265000Y8380000D01*
X29709000Y8634000D02*
X33011000Y8634000D01*
D35*
X33265000Y8380000D02*
X33646000Y8380000D01*
D36*
X43425000Y12571000D02*
X42282000Y12571000D01*
X42058000Y11362000D02*
X42282000Y11586000D01*
X42282000Y11586000D02*
X42282000Y12571000D01*
D45*
X46828600Y12102563D02*
X47220837Y12494800D01*
X46828600Y11326400D02*
X46828600Y12102563D01*
X47997000Y12063000D02*
X47997000Y11809000D01*
X47108000Y11047000D02*
X46828600Y11326400D01*
X47565200Y12494800D02*
X47997000Y12063000D01*
X47220837Y12494800D02*
X47565200Y12494800D01*
X47108000Y9954800D02*
X47108000Y10031000D01*
D32*
X25665988Y6111000D02*
X25665988Y5415749D01*
D45*
X43874388Y2626900D02*
X45114100Y3866612D01*
X45114100Y5751100D02*
X46752400Y7389401D01*
X43874388Y2626900D02*
X26338612Y2626900D01*
X26338612Y2626900D02*
X25700888Y3264624D01*
X25665988Y5415749D02*
X25700888Y5380849D01*
X46752400Y7389401D02*
X46752400Y9599200D01*
X25700888Y5380849D02*
X25700888Y3264624D01*
X46752400Y9599200D02*
X47108000Y9954800D01*
X45114100Y3866612D02*
X45114100Y5751100D01*
X48098600Y13307600D02*
X47616000Y12825000D01*
X46498400Y12239337D02*
X46498400Y11326400D01*
X48098600Y13500000D02*
X48098600Y13307600D01*
X46498400Y11326400D02*
X46219000Y11047000D01*
X47084063Y12825000D02*
X46498400Y12239337D01*
X47616000Y12825000D02*
X47084063Y12825000D01*
D32*
X26065988Y6111000D02*
X26065988Y5415749D01*
D45*
X43737612Y2957100D02*
X44783900Y4003388D01*
X26031088Y5380849D02*
X26031088Y3401400D01*
X46422200Y7526174D02*
X46422200Y9726200D01*
X26065988Y5415749D02*
X26031088Y5380849D01*
X46422200Y9726200D02*
X46219000Y9929400D01*
X44783900Y4003388D02*
X44783900Y5887874D01*
X43737612Y2957100D02*
X26475388Y2957100D01*
X26475388Y2957100D02*
X26031088Y3401400D01*
X44783900Y5887874D02*
X46422200Y7526174D01*
X46219000Y9929400D02*
X46219000Y10031000D01*
D40*
X42282000Y6348000D02*
X42282000Y6221000D01*
X40504000Y5586000D02*
X41647000Y5586000D01*
X42282000Y6221000D02*
X41901000Y5840000D01*
X41901000Y5840000D02*
X41901000Y5332000D01*
X41647000Y5586000D02*
X41901000Y5840000D01*
D32*
X28849488Y8894500D02*
X29512300Y8894500D01*
D38*
X29512300Y8894500D02*
X29582000Y8964200D01*
X29582000Y8964200D02*
X33849200Y8964200D01*
X34281000Y9396000D02*
X33849200Y8964200D01*
X32039500Y9694500D02*
X29664500Y9694500D01*
D35*
X29836000Y17397000D02*
X30852000Y17397000D01*
D38*
X32376000Y10031000D02*
X32039500Y9694500D01*
D35*
X29709000Y17270000D02*
X29836000Y17397000D01*
D32*
X28849488Y9694500D02*
X29664500Y9694500D01*
D45*
X43552000Y8380000D02*
X43628200Y8456200D01*
X43628200Y8456200D02*
X43628200Y9345200D01*
X43628200Y9345200D02*
X44695000Y10412000D01*
X44695000Y10412000D02*
X44822000Y10412000D01*
X43552000Y7364000D02*
X43513900Y7325900D01*
X43513900Y7325900D02*
X43513900Y4765388D01*
X28636818Y4097670D02*
X27665988Y5068500D01*
X27665988Y5068500D02*
X27665988Y5415749D01*
X43513900Y4765388D02*
X42846182Y4097670D01*
X42846182Y4097670D02*
X28636818Y4097670D01*
D32*
X27665988Y6111000D02*
X27665988Y5415749D01*
D45*
X43958400Y9192800D02*
X44161600Y9396000D01*
X44441000Y8456200D02*
X43958400Y8938800D01*
X44161600Y9396000D02*
X44822000Y9396000D01*
X43958400Y8938800D02*
X43958400Y9192800D01*
X44441000Y8380000D02*
X44441000Y8456200D01*
X43844100Y6690900D02*
X43844100Y4628612D01*
X27265988Y5001524D02*
X27265988Y5415749D01*
X44441000Y7364000D02*
X44441000Y7287800D01*
X28500042Y3767470D02*
X27265988Y5001524D01*
X43844100Y4628612D02*
X42982958Y3767470D01*
X44441000Y7287800D02*
X43844100Y6690900D01*
X42982958Y3767470D02*
X28500042Y3767470D01*
D32*
X27265988Y6111000D02*
X27265988Y5415749D01*
D45*
X44626612Y1814100D02*
X24951388Y1814100D01*
X24951388Y1814100D02*
X23943200Y2822288D01*
X46053900Y3241388D02*
X44626612Y1814100D01*
X48060108Y7618000D02*
X48060108Y6893708D01*
X23943200Y4714826D02*
X24465988Y5237614D01*
X46053900Y5247352D02*
X46053900Y3241388D01*
D32*
X24465988Y5237614D02*
X24465988Y6174500D01*
D45*
X23943200Y2822288D02*
X23943200Y4714826D01*
X47590600Y6424200D02*
X47230747Y6424200D01*
X47230747Y6424200D02*
X46053900Y5247352D01*
X48060108Y6893708D02*
X47590600Y6424200D01*
D32*
X24065988Y5474014D02*
X24065988Y6174500D01*
D45*
X48124000Y5611400D02*
X47641400Y6094000D01*
X47641400Y6094000D02*
X47367521Y6094000D01*
X48124000Y5586000D02*
X48124000Y5611400D01*
X23613000Y2685515D02*
X23613000Y4851600D01*
X47367521Y6094000D02*
X46384100Y5110579D01*
X44763388Y1483900D02*
X24814612Y1483900D01*
X23613000Y4851600D02*
X24065988Y5304588D01*
X46384100Y5110579D02*
X46384100Y3104612D01*
X46384100Y3104612D02*
X44763388Y1483900D01*
X24814612Y1483900D02*
X23613000Y2685515D01*
X24065988Y5304588D02*
X24065988Y5474014D01*
D38*
X36186000Y17270000D02*
X36567000Y16889000D01*
X27499200Y13282200D02*
X26865988Y12648988D01*
X36567000Y16889000D02*
X36567000Y16000000D01*
X29632800Y13282200D02*
X27499200Y13282200D01*
X36186000Y15619000D02*
X33646000Y15619000D01*
D42*
X26865988Y12648988D02*
X26865988Y12014500D01*
D36*
X34856000Y17547137D02*
X35908863Y17547137D01*
D38*
X29709000Y13206000D02*
X29632800Y13282200D01*
D36*
X35908863Y17547137D02*
X36186000Y17270000D01*
D38*
X36567000Y16000000D02*
X36186000Y15619000D01*
X33646000Y15619000D02*
X32884000Y16381000D01*
X33519000Y13737137D02*
X32653137Y14603000D01*
X29963000Y13841000D02*
X30217000Y14095000D01*
D36*
X34856000Y13737137D02*
X33519000Y13737137D01*
D35*
X30217000Y14095000D02*
X30598000Y14095000D01*
D38*
X28566000Y13841000D02*
X29963000Y13841000D01*
X28439000Y13968000D02*
X27677000Y13968000D01*
D35*
X30598000Y14984000D02*
X30344000Y15238000D01*
D42*
X26465988Y12756988D02*
X26465988Y12014500D01*
D38*
X28439000Y13968000D02*
X28566000Y13841000D01*
D35*
X30598000Y14603000D02*
X30598000Y14984000D01*
D38*
X27677000Y13968000D02*
X26465988Y12756988D01*
X32653137Y14603000D02*
X30598000Y14603000D01*
D35*
X30598000Y14095000D02*
X30598000Y14603000D01*
%TA.AperFunction,Conductor*%
G36*
X18646502Y3660998D02*
G01*
X18692995Y3607342D01*
X18703099Y3537068D01*
X18697310Y3513386D01*
X18681763Y3468954D01*
X18662726Y3300000D01*
X18681763Y3131046D01*
X18733139Y2984222D01*
X18737918Y2970563D01*
X18737919Y2970561D01*
X18828375Y2826601D01*
X18828377Y2826598D01*
X18948597Y2706378D01*
X18948600Y2706376D01*
X19092563Y2615918D01*
X19253046Y2559763D01*
X19422000Y2540726D01*
X19590954Y2559763D01*
X19751437Y2615918D01*
X19830536Y2665620D01*
X19898856Y2684926D01*
X19966769Y2664231D01*
X19998440Y2634443D01*
X20054097Y2560095D01*
X20171034Y2472556D01*
X20307906Y2421506D01*
X20368402Y2415001D01*
X20368415Y2415000D01*
X20442000Y2415000D01*
X20442000Y2923000D01*
X20942000Y2923000D01*
X20942000Y2415000D01*
X21015585Y2415000D01*
X21015597Y2415001D01*
X21076093Y2421506D01*
X21076101Y2421508D01*
X21155967Y2451296D01*
X21226783Y2456362D01*
X21244033Y2451296D01*
X21323898Y2421508D01*
X21323906Y2421506D01*
X21384402Y2415001D01*
X21384415Y2415000D01*
X21458000Y2415000D01*
X21458000Y2923000D01*
X21958000Y2923000D01*
X21958000Y2415000D01*
X22031585Y2415000D01*
X22031597Y2415001D01*
X22092093Y2421506D01*
X22092101Y2421508D01*
X22171967Y2451296D01*
X22242783Y2456362D01*
X22260033Y2451296D01*
X22339898Y2421508D01*
X22339906Y2421506D01*
X22400402Y2415001D01*
X22400415Y2415000D01*
X22474000Y2415000D01*
X22474000Y2923000D01*
X21958000Y2923000D01*
X21458000Y2923000D01*
X20942000Y2923000D01*
X20442000Y2923000D01*
X20442000Y3297000D01*
X20462002Y3365121D01*
X20515658Y3411614D01*
X20568000Y3423000D01*
X22848000Y3423000D01*
X22916121Y3402998D01*
X22962614Y3349342D01*
X22974000Y3297000D01*
X22974000Y2415000D01*
X22979000Y2415000D01*
X23047121Y2394998D01*
X23093614Y2341342D01*
X23105000Y2289000D01*
X23105000Y2029999D01*
X24247998Y887001D01*
X24248000Y887000D01*
X45457000Y887000D01*
X47298095Y2728095D01*
X47360407Y2762120D01*
X47431222Y2757056D01*
X47446571Y2750129D01*
X47594508Y2671055D01*
X47793282Y2610758D01*
X47793286Y2610758D01*
X47793288Y2610757D01*
X47881340Y2602085D01*
X47948199Y2595500D01*
X47948208Y2595500D01*
X50451792Y2595500D01*
X50451801Y2595500D01*
X50539859Y2604174D01*
X50606711Y2610757D01*
X50606712Y2610758D01*
X50606718Y2610758D01*
X50805492Y2671055D01*
X50988683Y2768973D01*
X51011393Y2787612D01*
X51076740Y2815366D01*
X51146718Y2803385D01*
X51190762Y2767601D01*
X51194781Y2762437D01*
X51195070Y2762171D01*
X51215220Y2738380D01*
X51215438Y2738046D01*
X51215439Y2738045D01*
X51215440Y2738044D01*
X51228223Y2728095D01*
X51251166Y2710238D01*
X51255141Y2706871D01*
X51280098Y2683897D01*
X51288454Y2676205D01*
X51288826Y2676042D01*
X51315594Y2660092D01*
X51315915Y2659842D01*
X51315918Y2659841D01*
X51358735Y2645142D01*
X51363573Y2643255D01*
X51405052Y2625060D01*
X51405292Y2625041D01*
X51405449Y2625027D01*
X51435962Y2618629D01*
X51436185Y2618553D01*
X51436339Y2618500D01*
X51481610Y2618500D01*
X51486815Y2618285D01*
X51489407Y2618071D01*
X51531940Y2614546D01*
X51532327Y2614644D01*
X51563258Y2618500D01*
X51687646Y2618500D01*
X51755767Y2598498D01*
X51802260Y2544842D01*
X51812364Y2474568D01*
X51783457Y2410671D01*
X51776667Y2402721D01*
X51769331Y2394132D01*
X51644610Y2190604D01*
X51553263Y1970074D01*
X51553263Y1970073D01*
X51497539Y1737966D01*
X51478811Y1500000D01*
X51497539Y1262034D01*
X51553263Y1029927D01*
X51644611Y809395D01*
X51769332Y605868D01*
X51783457Y589330D01*
X51812488Y524542D01*
X51801884Y454342D01*
X51755010Y401019D01*
X51687646Y381500D01*
X16321486Y381500D01*
X16253365Y401502D01*
X16206872Y455158D01*
X16196768Y525432D01*
X16203430Y551532D01*
X16240494Y650907D01*
X16246999Y711403D01*
X16247000Y711415D01*
X16247000Y1396000D01*
X16267002Y1464121D01*
X16320658Y1510614D01*
X16373000Y1522000D01*
X16755000Y1522000D01*
X16755000Y3555000D01*
X16775002Y3623121D01*
X16828658Y3669614D01*
X16881000Y3681000D01*
X16882000Y3681000D01*
X18578381Y3681000D01*
X18646502Y3660998D01*
G37*
%TD.AperFunction*%
%TA.AperFunction,Conductor*%
G36*
X25117397Y5139501D02*
G01*
X25117401Y5139500D01*
X25231488Y5139500D01*
X25299609Y5119498D01*
X25346102Y5065842D01*
X25357488Y5013500D01*
X25357488Y4696000D01*
X25337486Y4627879D01*
X25283830Y4581386D01*
X25231488Y4570000D01*
X24588205Y4570000D01*
X24520084Y4590002D01*
X24473591Y4643658D01*
X24463487Y4713932D01*
X24492981Y4778512D01*
X24499109Y4785095D01*
X24562446Y4848432D01*
X24630628Y4916615D01*
X24650803Y4932998D01*
X24710503Y4972000D01*
X24742804Y5013500D01*
X24783500Y5065787D01*
X24787658Y5073470D01*
X24837671Y5123860D01*
X24898471Y5139500D01*
X25014575Y5139500D01*
X25014578Y5139501D01*
X25052515Y5143580D01*
X25079461Y5143580D01*
X25117397Y5139501D01*
G37*
%TD.AperFunction*%
%TA.AperFunction,Conductor*%
G36*
X31911446Y5438498D02*
G01*
X31951778Y5396640D01*
X31996865Y5320403D01*
X31996868Y5320399D01*
X32151172Y5166095D01*
X32185198Y5103783D01*
X32180133Y5032968D01*
X32137586Y4976132D01*
X32071066Y4951321D01*
X32062077Y4951000D01*
X30728000Y4951000D01*
X30659879Y4971002D01*
X30613386Y5024658D01*
X30602000Y5077000D01*
X30602000Y5202000D01*
X30622002Y5270121D01*
X30675658Y5316614D01*
X30728000Y5328000D01*
X31610000Y5328000D01*
X31610000Y5332500D01*
X31630002Y5400621D01*
X31683658Y5447114D01*
X31736000Y5458500D01*
X31843325Y5458500D01*
X31911446Y5438498D01*
G37*
%TD.AperFunction*%
%TA.AperFunction,Conductor*%
G36*
X32441121Y7847998D02*
G01*
X32487614Y7794342D01*
X32499000Y7742000D01*
X32499000Y6950000D01*
X33013780Y6950000D01*
X33061154Y6975869D01*
X33131969Y6970805D01*
X33176741Y6937291D01*
X33178741Y6939290D01*
X33187514Y6930517D01*
X33271697Y6874267D01*
X33271699Y6874266D01*
X33345933Y6859500D01*
X33572794Y6859501D01*
X33590731Y6858218D01*
X33609631Y6855500D01*
X33609632Y6855500D01*
X33612200Y6855500D01*
X33613083Y6855253D01*
X33614117Y6855179D01*
X33614101Y6854969D01*
X33677571Y6837215D01*
X33882809Y6712658D01*
X33900991Y6699256D01*
X33906471Y6694401D01*
X33906475Y6694399D01*
X33952230Y6670385D01*
X33955639Y6668458D01*
X33985832Y6650134D01*
X33994360Y6645388D01*
X34000278Y6642379D01*
X34017994Y6634198D01*
X34017998Y6634198D01*
X34021955Y6632370D01*
X34035799Y6626525D01*
X34047207Y6620537D01*
X34201529Y6582500D01*
X34201530Y6582500D01*
X34360470Y6582500D01*
X34360471Y6582500D01*
X34514793Y6620537D01*
X34655529Y6694401D01*
X34706447Y6739512D01*
X34770698Y6769712D01*
X34841079Y6760381D01*
X34895242Y6714481D01*
X34915992Y6646585D01*
X34916000Y6645199D01*
X34916000Y6475000D01*
X37076000Y6475000D01*
X37144121Y6454998D01*
X37190614Y6401342D01*
X37202000Y6349000D01*
X37202000Y6162782D01*
X37181998Y6094661D01*
X37140673Y6054646D01*
X37087656Y6022938D01*
X37028406Y5987502D01*
X37024831Y5985364D01*
X36960158Y5967500D01*
X33199423Y5967500D01*
X33131302Y5987502D01*
X33110328Y6004405D01*
X33002968Y6111765D01*
X32968942Y6174077D01*
X32974007Y6244892D01*
X32974008Y6244893D01*
X33000494Y6315904D01*
X33006999Y6376403D01*
X33007000Y6376415D01*
X33007000Y6450000D01*
X32442863Y6450000D01*
X32402772Y6458721D01*
X32402379Y6457380D01*
X32393724Y6459922D01*
X32388876Y6460619D01*
X32362801Y6467274D01*
X32358204Y6468989D01*
X32358199Y6468990D01*
X32305627Y6472751D01*
X32301160Y6473231D01*
X32285370Y6475500D01*
X32285368Y6475500D01*
X32269413Y6475500D01*
X32264917Y6475661D01*
X32212352Y6479421D01*
X32212351Y6479420D01*
X32207566Y6478379D01*
X32180784Y6475500D01*
X32125000Y6475500D01*
X32056879Y6495502D01*
X32010386Y6549158D01*
X31999000Y6601500D01*
X31999000Y7742000D01*
X32019002Y7810121D01*
X32072658Y7856614D01*
X32125000Y7868000D01*
X32373000Y7868000D01*
X32441121Y7847998D01*
G37*
%TD.AperFunction*%
%TA.AperFunction,Conductor*%
G36*
X42732121Y9039498D02*
G01*
X42778614Y8985842D01*
X42790000Y8933500D01*
X42790000Y7153404D01*
X42769998Y7085283D01*
X42716342Y7038790D01*
X42646068Y7028686D01*
X42600988Y7044292D01*
X42598988Y7045447D01*
X42550000Y7096835D01*
X42536000Y7154559D01*
X42536000Y7237000D01*
X41392000Y7237000D01*
X41323879Y7257002D01*
X41277386Y7310658D01*
X41266000Y7363000D01*
X41266000Y7619000D01*
X41286002Y7687121D01*
X41339658Y7733614D01*
X41392000Y7745000D01*
X42536000Y7745000D01*
X42536000Y8047586D01*
X42535999Y8047598D01*
X42529494Y8108094D01*
X42478444Y8244965D01*
X42478444Y8244966D01*
X42390904Y8361905D01*
X42273965Y8449445D01*
X42137093Y8500495D01*
X42076597Y8507000D01*
X41706923Y8507000D01*
X41638802Y8527002D01*
X41592309Y8580658D01*
X41582205Y8650932D01*
X41611699Y8715512D01*
X41617828Y8722095D01*
X41828116Y8932383D01*
X41890428Y8966409D01*
X41943994Y8966409D01*
X42021351Y8949580D01*
X42021351Y8949581D01*
X42021352Y8949580D01*
X42030477Y8950233D01*
X42167201Y8960011D01*
X42304204Y9011111D01*
X42335273Y9034370D01*
X42401793Y9059179D01*
X42410781Y9059500D01*
X42664000Y9059500D01*
X42732121Y9039498D01*
G37*
%TD.AperFunction*%
%TA.AperFunction,Conductor*%
G36*
X19054930Y9879998D02*
G01*
X19101423Y9826342D01*
X19111527Y9756068D01*
X19082033Y9691488D01*
X19075904Y9684905D01*
X19041000Y9650001D01*
X19041000Y8637000D01*
X19020998Y8568879D01*
X18967342Y8522386D01*
X18915000Y8511000D01*
X18790000Y8511000D01*
X18721879Y8531002D01*
X18675386Y8584658D01*
X18664000Y8637000D01*
X18664000Y9774000D01*
X18684002Y9842121D01*
X18737658Y9888614D01*
X18790000Y9900000D01*
X18986809Y9900000D01*
X19054930Y9879998D01*
G37*
%TD.AperFunction*%
%TA.AperFunction,Conductor*%
G36*
X40252121Y13947498D02*
G01*
X40298614Y13893842D01*
X40310000Y13841500D01*
X40310000Y12929137D01*
X41204585Y12929137D01*
X41204597Y12929138D01*
X41265093Y12935643D01*
X41401964Y12986693D01*
X41401965Y12986693D01*
X41518901Y13074231D01*
X41601136Y13184084D01*
X41657972Y13226630D01*
X41728788Y13231696D01*
X41791100Y13197671D01*
X41806768Y13178580D01*
X41815079Y13166142D01*
X41822538Y13154979D01*
X41826530Y13149006D01*
X41847747Y13081254D01*
X41828966Y13012786D01*
X41826532Y13008999D01*
X41767266Y12920303D01*
X41752500Y12846070D01*
X41752500Y12295937D01*
X41752501Y12295927D01*
X41769687Y12209526D01*
X41768007Y12209193D01*
X41773500Y12181586D01*
X41773500Y11890500D01*
X41753498Y11822379D01*
X41699842Y11775886D01*
X41647500Y11764500D01*
X41445441Y11764500D01*
X41408254Y11757103D01*
X41408252Y11757103D01*
X41408252Y11757102D01*
X41379824Y11738107D01*
X41366078Y11728922D01*
X41337897Y11686746D01*
X41330500Y11649559D01*
X41330500Y11074442D01*
X41336754Y11043000D01*
X41337898Y11037252D01*
X41366078Y10995078D01*
X41408252Y10966898D01*
X41445442Y10959500D01*
X41701929Y10959500D01*
X41762313Y10944089D01*
X41780100Y10934376D01*
X41864733Y10888163D01*
X41914936Y10837960D01*
X41930027Y10768586D01*
X41905216Y10702066D01*
X41887902Y10683264D01*
X41788504Y10595204D01*
X41788501Y10595201D01*
X41698215Y10464399D01*
X41698212Y10464393D01*
X41641849Y10315780D01*
X41622693Y10158006D01*
X41622693Y10154075D01*
X41622345Y10147463D01*
X41621776Y10142066D01*
X41619450Y10142312D01*
X41601968Y10084297D01*
X41547983Y10038186D01*
X41477639Y10028581D01*
X41468970Y10030202D01*
X41453281Y10033709D01*
X41453280Y10033709D01*
X41292794Y10028665D01*
X41138603Y9983868D01*
X41000400Y9902134D01*
X41000396Y9902131D01*
X40400595Y9302329D01*
X40338283Y9268303D01*
X40267468Y9273368D01*
X40210632Y9315915D01*
X40185821Y9382435D01*
X40185500Y9391424D01*
X40185500Y9554887D01*
X40205502Y9623008D01*
X40259158Y9669501D01*
X40267469Y9672943D01*
X40303960Y9686554D01*
X40303964Y9686556D01*
X40420904Y9774096D01*
X40508444Y9891035D01*
X40508444Y9891036D01*
X40559494Y10027907D01*
X40565999Y10088403D01*
X40566000Y10088415D01*
X40566000Y10158000D01*
X39330000Y10158000D01*
X39261879Y10178002D01*
X39215386Y10231658D01*
X39204000Y10284000D01*
X39204000Y10540000D01*
X39224002Y10608121D01*
X39277658Y10654614D01*
X39330000Y10666000D01*
X40566000Y10666000D01*
X40566000Y10735586D01*
X40565999Y10735598D01*
X40559494Y10796094D01*
X40508444Y10932965D01*
X40508444Y10932966D01*
X40420904Y11049905D01*
X40303964Y11137445D01*
X40267465Y11151059D01*
X40210630Y11193607D01*
X40185821Y11260128D01*
X40185500Y11269114D01*
X40185500Y11649553D01*
X40185500Y11649558D01*
X40185071Y11651713D01*
X40185174Y11652862D01*
X40184893Y11655714D01*
X40185433Y11655768D01*
X40191393Y11722422D01*
X40197086Y11734866D01*
X40198782Y11738099D01*
X40198787Y11738105D01*
X40198982Y11738623D01*
X40201300Y11743976D01*
X40213871Y11769663D01*
X40215747Y11773804D01*
X40218894Y11781040D01*
X40221180Y11792399D01*
X40226890Y11812209D01*
X40255149Y11886718D01*
X40270055Y12009479D01*
X40274307Y12044497D01*
X40274307Y12044504D01*
X40255150Y12202280D01*
X40234927Y12255602D01*
X40198787Y12350895D01*
X40108498Y12481701D01*
X39989529Y12587099D01*
X39989528Y12587100D01*
X39989525Y12587102D01*
X39848797Y12660961D01*
X39848791Y12660964D01*
X39768319Y12680798D01*
X39706965Y12716522D01*
X39674664Y12779745D01*
X39681671Y12850394D01*
X39725762Y12906040D01*
X39792939Y12929015D01*
X39798473Y12929137D01*
X39802000Y12929137D01*
X39802000Y13483137D01*
X38448000Y13483137D01*
X38448000Y13388540D01*
X38454505Y13328044D01*
X38505555Y13191173D01*
X38505555Y13191172D01*
X38593095Y13074233D01*
X38710034Y12986693D01*
X38846906Y12935643D01*
X38907402Y12929138D01*
X38907415Y12929137D01*
X39431527Y12929137D01*
X39499648Y12909135D01*
X39546141Y12855479D01*
X39556245Y12785205D01*
X39526751Y12720625D01*
X39467025Y12682241D01*
X39461681Y12680798D01*
X39381208Y12660964D01*
X39381202Y12660961D01*
X39240474Y12587102D01*
X39240469Y12587098D01*
X39146775Y12504091D01*
X39132009Y12491009D01*
X39121501Y12481700D01*
X39031215Y12350899D01*
X39031212Y12350893D01*
X38974848Y12202277D01*
X38974338Y12200204D01*
X38973548Y12198849D01*
X38972148Y12195155D01*
X38971533Y12195388D01*
X38938614Y12138850D01*
X38875391Y12106549D01*
X38804741Y12113557D01*
X38749096Y12157649D01*
X38726122Y12224826D01*
X38726000Y12230359D01*
X38726000Y12365586D01*
X38725999Y12365598D01*
X38719494Y12426094D01*
X38668444Y12562965D01*
X38668444Y12562966D01*
X38580904Y12679905D01*
X38463965Y12767445D01*
X38327093Y12818495D01*
X38266597Y12825000D01*
X37964000Y12825000D01*
X37964000Y11681000D01*
X37943998Y11612879D01*
X37890342Y11566386D01*
X37838000Y11555000D01*
X37582000Y11555000D01*
X37513879Y11575002D01*
X37467386Y11628658D01*
X37456000Y11681000D01*
X37456000Y12825000D01*
X37153402Y12825000D01*
X37092905Y12818495D01*
X37039300Y12798501D01*
X36968484Y12793437D01*
X36906172Y12827462D01*
X36872147Y12889775D01*
X36877213Y12960590D01*
X36906169Y13005648D01*
X37831119Y13930598D01*
X37893429Y13964621D01*
X37920212Y13967500D01*
X40184000Y13967500D01*
X40252121Y13947498D01*
G37*
%TD.AperFunction*%
%TA.AperFunction,Conductor*%
G36*
X43082825Y18598498D02*
G01*
X43129318Y18544842D01*
X43139422Y18474568D01*
X43109928Y18409988D01*
X43050202Y18371604D01*
X43028820Y18367294D01*
X43026276Y18367007D01*
X43026273Y18367007D01*
X43026273Y18367006D01*
X42865792Y18310852D01*
X42865790Y18310851D01*
X42721830Y18220395D01*
X42721825Y18220392D01*
X42682075Y18180641D01*
X42661788Y18164183D01*
X42652013Y18157812D01*
X42652008Y18157808D01*
X42515217Y18024097D01*
X42452521Y17990783D01*
X42383107Y17996146D01*
X42328682Y18016447D01*
X42324528Y18018168D01*
X42276601Y18040055D01*
X42276587Y18040059D01*
X42271739Y18040756D01*
X42245664Y18047411D01*
X42241067Y18049126D01*
X42241062Y18049127D01*
X42188490Y18052888D01*
X42184023Y18053368D01*
X42168233Y18055637D01*
X42168231Y18055637D01*
X42152276Y18055637D01*
X42147780Y18055798D01*
X42095215Y18059558D01*
X42095214Y18059557D01*
X42090765Y18058589D01*
X42090429Y18058516D01*
X42063647Y18055637D01*
X41515038Y18055637D01*
X41491577Y18058589D01*
X41491521Y18058223D01*
X41197783Y18103263D01*
X41197785Y18103263D01*
X41143706Y18105843D01*
X41143699Y18105843D01*
X41138860Y18105567D01*
X41085381Y18096857D01*
X40950370Y18060069D01*
X40917245Y18055637D01*
X40019625Y18055637D01*
X39911272Y18040058D01*
X39911265Y18040056D01*
X39792949Y17986023D01*
X39740607Y17974637D01*
X38943441Y17974637D01*
X38906254Y17967240D01*
X38906252Y17967240D01*
X38906252Y17967239D01*
X38864078Y17939059D01*
X38841655Y17905500D01*
X38835897Y17896883D01*
X38830161Y17868047D01*
X38828500Y17859695D01*
X38828500Y17234579D01*
X38835898Y17197389D01*
X38864078Y17155215D01*
X38906252Y17127035D01*
X38943442Y17119637D01*
X39740607Y17119637D01*
X39792949Y17108251D01*
X39827468Y17092487D01*
X39911266Y17054218D01*
X39911271Y17054218D01*
X39911272Y17054217D01*
X40019625Y17038638D01*
X40019630Y17038637D01*
X40019632Y17038637D01*
X40917253Y17038637D01*
X40950376Y17034206D01*
X41085382Y16997419D01*
X41138803Y16988713D01*
X41143652Y16988436D01*
X41197782Y16991012D01*
X41411274Y17023747D01*
X41481638Y17014301D01*
X41535726Y16968312D01*
X41556364Y16900381D01*
X41548426Y16855171D01*
X41505505Y16740095D01*
X41500344Y16692096D01*
X41473173Y16626504D01*
X41414854Y16586015D01*
X41343902Y16583483D01*
X41282845Y16619712D01*
X41270308Y16635556D01*
X41247922Y16669059D01*
X41205748Y16697239D01*
X41205745Y16697240D01*
X41168558Y16704637D01*
X38943442Y16704637D01*
X38943441Y16704637D01*
X38906254Y16697240D01*
X38906252Y16697240D01*
X38906252Y16697239D01*
X38864078Y16669059D01*
X38836202Y16627339D01*
X38835897Y16626883D01*
X38828500Y16589696D01*
X38828500Y15964579D01*
X38835727Y15928245D01*
X38835898Y15927389D01*
X38864078Y15885215D01*
X38906252Y15857035D01*
X38943442Y15849637D01*
X38943447Y15849637D01*
X41168553Y15849637D01*
X41168558Y15849637D01*
X41205748Y15857035D01*
X41247922Y15885215D01*
X41276102Y15927389D01*
X41281586Y15954960D01*
X41314490Y16017865D01*
X41376184Y16052999D01*
X41447079Y16049201D01*
X41504666Y16007677D01*
X41523219Y15974410D01*
X41556553Y15885040D01*
X41556555Y15885035D01*
X41644095Y15768096D01*
X41761034Y15680556D01*
X41897906Y15629506D01*
X41958402Y15623001D01*
X41958415Y15623000D01*
X42032000Y15623000D01*
X42032000Y16505000D01*
X42052002Y16573121D01*
X42105658Y16619614D01*
X42158000Y16631000D01*
X43065000Y16631000D01*
X43065000Y16679586D01*
X43064999Y16679596D01*
X43059754Y16728377D01*
X43072359Y16798246D01*
X43120736Y16850209D01*
X43188153Y16867418D01*
X43188153Y16867496D01*
X43188461Y16867496D01*
X43189527Y16867768D01*
X43193194Y16867496D01*
X43195227Y16867496D01*
X43195228Y16867497D01*
X43195230Y16867496D01*
X43364184Y16886533D01*
X43524667Y16942688D01*
X43612965Y16998170D01*
X43681284Y17017475D01*
X43749198Y16996780D01*
X43795141Y16942653D01*
X43806000Y16891482D01*
X43806000Y16380000D01*
X43785998Y16311879D01*
X43732342Y16265386D01*
X43680000Y16254000D01*
X43630402Y16254000D01*
X43569906Y16247495D01*
X43433035Y16196445D01*
X43433034Y16196445D01*
X43316095Y16108905D01*
X43291868Y16076540D01*
X43235032Y16033993D01*
X43164216Y16028929D01*
X43101904Y16062954D01*
X43067879Y16125266D01*
X43067535Y16128466D01*
X43065001Y16131000D01*
X42532000Y16131000D01*
X42532000Y15623000D01*
X42605585Y15623000D01*
X42605597Y15623001D01*
X42666093Y15629506D01*
X42802964Y15680556D01*
X42802965Y15680556D01*
X42919903Y15768096D01*
X42944131Y15800460D01*
X43000967Y15843007D01*
X43071782Y15848073D01*
X43134095Y15814048D01*
X43168120Y15751736D01*
X43171000Y15724952D01*
X43171000Y15238000D01*
X44442000Y15238000D01*
X44510121Y15217998D01*
X44556614Y15164342D01*
X44568000Y15112000D01*
X44568000Y13714000D01*
X44997585Y13714000D01*
X44997597Y13714001D01*
X45058093Y13720506D01*
X45194964Y13771556D01*
X45194965Y13771556D01*
X45311904Y13859096D01*
X45401753Y13979120D01*
X45458588Y14021667D01*
X45529404Y14026732D01*
X45572624Y14008375D01*
X45611697Y13982267D01*
X45611699Y13982266D01*
X45685933Y13967500D01*
X46549309Y13967501D01*
X46617430Y13947499D01*
X46663923Y13893843D01*
X46674027Y13823569D01*
X46644534Y13758989D01*
X46638404Y13752406D01*
X43135410Y10249412D01*
X43073098Y10215386D01*
X43002283Y10220451D01*
X42945447Y10262998D01*
X42927368Y10309218D01*
X42923974Y10308381D01*
X42922151Y10315777D01*
X42905226Y10360404D01*
X42865787Y10464395D01*
X42775498Y10595201D01*
X42656529Y10700599D01*
X42656528Y10700600D01*
X42656525Y10700602D01*
X42615881Y10721933D01*
X42564858Y10771301D01*
X42548626Y10840417D01*
X42572338Y10907337D01*
X42628465Y10950814D01*
X42664517Y10957627D01*
X42664393Y10958893D01*
X42670548Y10959500D01*
X42670558Y10959500D01*
X42707748Y10966898D01*
X42749922Y10995078D01*
X42778102Y11037252D01*
X42785500Y11074442D01*
X42785500Y11495677D01*
X42785660Y11500170D01*
X42787750Y11529404D01*
X42788225Y11533814D01*
X42790500Y11549632D01*
X42790500Y11565588D01*
X42790661Y11570084D01*
X42794420Y11622649D01*
X42793378Y11627438D01*
X42790500Y11654217D01*
X42790500Y11936500D01*
X42810502Y12004621D01*
X42864158Y12051114D01*
X42916500Y12062500D01*
X43461368Y12062500D01*
X43480271Y12065219D01*
X43498204Y12066501D01*
X43725064Y12066501D01*
X43725066Y12066501D01*
X43725069Y12066502D01*
X43725072Y12066502D01*
X43761663Y12073781D01*
X43799301Y12081266D01*
X43883484Y12137516D01*
X43939734Y12221699D01*
X43954500Y12295933D01*
X43954499Y12829876D01*
X43974501Y12897996D01*
X44004991Y12930744D01*
X44062904Y12974097D01*
X44150444Y13091035D01*
X44150444Y13091036D01*
X44201494Y13227907D01*
X44207999Y13288403D01*
X44208000Y13288415D01*
X44208000Y13337000D01*
X43301000Y13337000D01*
X43232879Y13357002D01*
X43186386Y13410658D01*
X43175000Y13463000D01*
X43175000Y13711000D01*
X43195002Y13779121D01*
X43248658Y13825614D01*
X43301000Y13837000D01*
X44060000Y13837000D01*
X44060000Y14730000D01*
X43171000Y14730000D01*
X43171000Y14465662D01*
X43150998Y14397541D01*
X43097342Y14351048D01*
X43058475Y14340385D01*
X43040909Y14338496D01*
X43040908Y14338496D01*
X42904035Y14287445D01*
X42904034Y14287445D01*
X42787096Y14199905D01*
X42737468Y14133611D01*
X42680632Y14091066D01*
X42612022Y14085543D01*
X42582077Y14091499D01*
X42582067Y14091500D01*
X42582066Y14091500D01*
X42548818Y14091500D01*
X42480697Y14111502D01*
X42459727Y14128401D01*
X42361848Y14226280D01*
X42361847Y14226281D01*
X42361846Y14226282D01*
X42361845Y14226283D01*
X42274207Y14291887D01*
X42274202Y14291890D01*
X42137206Y14342988D01*
X42137198Y14342990D01*
X42106884Y14345158D01*
X42040364Y14369971D01*
X42026781Y14381742D01*
X41826980Y14581543D01*
X41810591Y14601724D01*
X41807967Y14605740D01*
X41804560Y14610956D01*
X41776103Y14633105D01*
X41770245Y14638278D01*
X41767413Y14641110D01*
X41767402Y14641120D01*
X41748099Y14654901D01*
X41704086Y14689158D01*
X41697064Y14692958D01*
X41689872Y14696474D01*
X41689870Y14696475D01*
X41689867Y14696476D01*
X41636412Y14712391D01*
X41583664Y14730499D01*
X41583663Y14730500D01*
X41583661Y14730500D01*
X41583658Y14730500D01*
X41575748Y14731821D01*
X41567842Y14732806D01*
X41512116Y14730500D01*
X41409500Y14730500D01*
X41341379Y14750502D01*
X41294886Y14804158D01*
X41283500Y14856500D01*
X41283500Y15319691D01*
X41283500Y15319695D01*
X41276102Y15356885D01*
X41247922Y15399059D01*
X41205748Y15427239D01*
X41205745Y15427240D01*
X41168558Y15434637D01*
X38943442Y15434637D01*
X38943441Y15434637D01*
X38906254Y15427240D01*
X38906252Y15427240D01*
X38906252Y15427239D01*
X38864078Y15399059D01*
X38839156Y15361760D01*
X38835897Y15356883D01*
X38828500Y15319696D01*
X38828500Y14856500D01*
X38808498Y14788379D01*
X38754842Y14741886D01*
X38702500Y14730500D01*
X37762634Y14730500D01*
X37736775Y14733182D01*
X37725981Y14735446D01*
X37704194Y14732729D01*
X37690188Y14730984D01*
X37682400Y14730500D01*
X37678385Y14730500D01*
X37659674Y14727378D01*
X37654996Y14726597D01*
X37649974Y14725971D01*
X37599637Y14719697D01*
X37591985Y14717419D01*
X37584415Y14714820D01*
X37535362Y14688273D01*
X37485256Y14663778D01*
X37478743Y14659128D01*
X37472437Y14654220D01*
X37434657Y14613180D01*
X36298595Y13477119D01*
X36236283Y13443093D01*
X36165468Y13448158D01*
X36108632Y13490705D01*
X36083821Y13557225D01*
X36083500Y13566214D01*
X36083500Y14049691D01*
X36083500Y14049695D01*
X36076102Y14086885D01*
X36047922Y14129059D01*
X36005748Y14157239D01*
X36005745Y14157240D01*
X35968558Y14164637D01*
X35171393Y14164637D01*
X35119051Y14176023D01*
X35000734Y14230056D01*
X35000727Y14230058D01*
X34892374Y14245637D01*
X34892368Y14245637D01*
X33994394Y14245637D01*
X33961167Y14250097D01*
X33959510Y14250550D01*
X33899075Y14287808D01*
X33868377Y14351825D01*
X33877163Y14422276D01*
X33922642Y14476793D01*
X33959650Y14493668D01*
X33960179Y14493812D01*
X33961661Y14494215D01*
X33994747Y14498637D01*
X34892370Y14498637D01*
X34892372Y14498638D01*
X35000734Y14514218D01*
X35089947Y14554960D01*
X35119051Y14568251D01*
X35171393Y14579637D01*
X35968553Y14579637D01*
X35968558Y14579637D01*
X36005748Y14587035D01*
X36047922Y14615215D01*
X36076102Y14657389D01*
X36083500Y14694579D01*
X36083500Y15158500D01*
X36103502Y15226621D01*
X36157158Y15273114D01*
X36204481Y15281264D01*
X36204284Y15283515D01*
X36215262Y15284476D01*
X36215263Y15284477D01*
X36215267Y15284476D01*
X36255010Y15295127D01*
X36260331Y15296306D01*
X36300851Y15303449D01*
X36300857Y15303453D01*
X36305995Y15305322D01*
X36322956Y15312348D01*
X36327912Y15314659D01*
X36327911Y15314659D01*
X36327916Y15314660D01*
X36361618Y15338260D01*
X36366229Y15341197D01*
X36401849Y15361761D01*
X36428301Y15393287D01*
X36431983Y15397305D01*
X36788695Y15754017D01*
X36792713Y15757699D01*
X36824239Y15784151D01*
X36844802Y15819770D01*
X36847753Y15824400D01*
X36855176Y15835000D01*
X36871340Y15858083D01*
X36871340Y15858086D01*
X36873654Y15863047D01*
X36880676Y15880000D01*
X36882550Y15885148D01*
X36882551Y15885149D01*
X36889696Y15925681D01*
X36890873Y15930989D01*
X36901523Y15970733D01*
X36898377Y16006699D01*
X36897940Y16011699D01*
X36897700Y16017191D01*
X36897700Y16871811D01*
X36897940Y16877303D01*
X36900093Y16901925D01*
X36901523Y16918267D01*
X36890880Y16957986D01*
X36889693Y16963338D01*
X36882551Y17003851D01*
X36882550Y17003853D01*
X36882550Y17003854D01*
X36880691Y17008960D01*
X36873640Y17025983D01*
X36871341Y17030912D01*
X36871340Y17030917D01*
X36847747Y17064610D01*
X36844802Y17069232D01*
X36824239Y17104849D01*
X36816109Y17111671D01*
X36792728Y17131291D01*
X36788685Y17134995D01*
X36732274Y17191406D01*
X36698248Y17253718D01*
X36695691Y17271504D01*
X36687989Y17379201D01*
X36636889Y17516204D01*
X36628807Y17527000D01*
X36571282Y17603846D01*
X36571281Y17603847D01*
X36447188Y17727940D01*
X36316657Y17858471D01*
X36299756Y17879446D01*
X36297114Y17883557D01*
X36289770Y17889921D01*
X36257281Y17918072D01*
X36254003Y17921125D01*
X36242711Y17932417D01*
X36242710Y17932418D01*
X36242708Y17932420D01*
X36229930Y17941985D01*
X36226427Y17944808D01*
X36186606Y17979313D01*
X36186603Y17979315D01*
X36182149Y17981349D01*
X36158991Y17995089D01*
X36155069Y17998025D01*
X36155065Y17998027D01*
X36105682Y18016447D01*
X36101528Y18018168D01*
X36053601Y18040055D01*
X36053587Y18040059D01*
X36048739Y18040756D01*
X36022664Y18047411D01*
X36018067Y18049126D01*
X36018062Y18049127D01*
X35965490Y18052888D01*
X35961023Y18053368D01*
X35945233Y18055637D01*
X35945231Y18055637D01*
X35929276Y18055637D01*
X35924780Y18055798D01*
X35872215Y18059558D01*
X35872214Y18059557D01*
X35867765Y18058589D01*
X35867429Y18058516D01*
X35840647Y18055637D01*
X34819625Y18055637D01*
X34711272Y18040058D01*
X34711265Y18040056D01*
X34592949Y17986023D01*
X34540607Y17974637D01*
X33743441Y17974637D01*
X33706254Y17967240D01*
X33706252Y17967240D01*
X33706252Y17967239D01*
X33664078Y17939059D01*
X33641655Y17905500D01*
X33635897Y17896883D01*
X33628500Y17859696D01*
X33628500Y17424372D01*
X33608498Y17356251D01*
X33554842Y17309758D01*
X33484568Y17299654D01*
X33419988Y17329148D01*
X33413405Y17335276D01*
X33129999Y17618682D01*
X33126283Y17622736D01*
X33099849Y17654239D01*
X33099636Y17654362D01*
X33064231Y17674804D01*
X33059611Y17677747D01*
X33025916Y17701340D01*
X33025915Y17701341D01*
X33025913Y17701342D01*
X33021021Y17703623D01*
X33003933Y17710701D01*
X32998849Y17712552D01*
X32958352Y17719693D01*
X32952984Y17720883D01*
X32913268Y17731524D01*
X32913267Y17731524D01*
X32908334Y17731093D01*
X32872293Y17727940D01*
X32866801Y17727700D01*
X32690848Y17727700D01*
X32622727Y17747702D01*
X32608335Y17758476D01*
X32526743Y17829176D01*
X32393734Y17889919D01*
X32393727Y17889921D01*
X32285374Y17905500D01*
X32285368Y17905500D01*
X32257415Y17905500D01*
X32229805Y17910992D01*
X32229472Y17909313D01*
X32143068Y17926500D01*
X31592936Y17926500D01*
X31592926Y17926499D01*
X31518699Y17911735D01*
X31430002Y17852468D01*
X31362250Y17831253D01*
X31293783Y17850036D01*
X31289997Y17852468D01*
X31285484Y17855484D01*
X31237944Y17887250D01*
X31201300Y17911735D01*
X31127068Y17926500D01*
X30576936Y17926500D01*
X30576926Y17926499D01*
X30502697Y17911734D01*
X30483992Y17899236D01*
X30437180Y17880156D01*
X30399469Y17873096D01*
X30364977Y17871452D01*
X29805097Y17921894D01*
X29792272Y17924039D01*
X29788471Y17924500D01*
X29788470Y17924500D01*
X29778997Y17924500D01*
X29773342Y17924754D01*
X29739300Y17927821D01*
X29732599Y17928129D01*
X29721345Y17928401D01*
X29721338Y17928401D01*
X29713492Y17926860D01*
X29689220Y17924500D01*
X29629527Y17924500D01*
X29475209Y17886464D01*
X29475202Y17886461D01*
X29334474Y17812602D01*
X29334469Y17812598D01*
X29287855Y17771301D01*
X29229603Y17719693D01*
X29215500Y17707199D01*
X29215499Y17707199D01*
X29182698Y17659678D01*
X29127539Y17614978D01*
X29056970Y17607196D01*
X28995451Y17636943D01*
X28940529Y17685599D01*
X28940526Y17685601D01*
X28940525Y17685602D01*
X28799797Y17759461D01*
X28799795Y17759462D01*
X28799793Y17759463D01*
X28799791Y17759464D01*
X28799790Y17759464D01*
X28645472Y17797500D01*
X28645471Y17797500D01*
X28486529Y17797500D01*
X28486527Y17797500D01*
X28332209Y17759464D01*
X28332202Y17759461D01*
X28191474Y17685602D01*
X28191469Y17685598D01*
X28162052Y17659536D01*
X28097799Y17629336D01*
X28027418Y17638668D01*
X27973255Y17684568D01*
X27952507Y17752465D01*
X27952499Y17753849D01*
X27952499Y17799064D01*
X27952498Y17799073D01*
X27937734Y17873301D01*
X27921975Y17896885D01*
X27881484Y17957484D01*
X27866885Y17967239D01*
X27797302Y18013734D01*
X27723069Y18028500D01*
X27723067Y18028500D01*
X27496203Y18028500D01*
X27478273Y18029782D01*
X27459368Y18032500D01*
X27459367Y18032500D01*
X27183152Y18032500D01*
X27157953Y18035046D01*
X27145661Y18037555D01*
X27145660Y18037556D01*
X27145656Y18037556D01*
X27132006Y18037625D01*
X26561659Y18040477D01*
X26561648Y18040476D01*
X26544001Y18037387D01*
X26522277Y18035500D01*
X26250757Y18035500D01*
X26246259Y18035661D01*
X26235644Y18036421D01*
X26225027Y18035661D01*
X26220531Y18035500D01*
X25130936Y18035500D01*
X25130926Y18035499D01*
X25056698Y18020734D01*
X25056696Y18020734D01*
X24990393Y17976431D01*
X24922640Y17955216D01*
X24854174Y17973999D01*
X24809802Y18020816D01*
X24806445Y18026964D01*
X24718904Y18143905D01*
X24601965Y18231445D01*
X24465093Y18282495D01*
X24404597Y18289000D01*
X23910000Y18289000D01*
X23910000Y17053000D01*
X23889998Y16984879D01*
X23836342Y16938386D01*
X23784000Y16927000D01*
X23528000Y16927000D01*
X23459879Y16947002D01*
X23413386Y17000658D01*
X23402000Y17053000D01*
X23402000Y18289000D01*
X22907402Y18289000D01*
X22846903Y18282495D01*
X22846902Y18282494D01*
X22814693Y18270482D01*
X22743877Y18265420D01*
X22695156Y18287671D01*
X22609965Y18351445D01*
X22548300Y18374444D01*
X22491464Y18416991D01*
X22466653Y18483511D01*
X22481744Y18552885D01*
X22531946Y18603087D01*
X22592332Y18618500D01*
X43014704Y18618500D01*
X43082825Y18598498D01*
G37*
%TD.AperFunction*%
%TA.AperFunction,Conductor*%
G36*
X32986170Y11087326D02*
G01*
X33006068Y11071123D01*
X33008089Y11069102D01*
X33066009Y11025744D01*
X33108555Y10968908D01*
X33116500Y10924875D01*
X33116500Y10514704D01*
X33096498Y10446583D01*
X33042842Y10400090D01*
X32972568Y10389986D01*
X32907988Y10419480D01*
X32886807Y10443125D01*
X32869498Y10468201D01*
X32750529Y10573599D01*
X32750528Y10573600D01*
X32750525Y10573602D01*
X32609797Y10647461D01*
X32609795Y10647462D01*
X32609793Y10647463D01*
X32609791Y10647464D01*
X32609790Y10647464D01*
X32454240Y10685804D01*
X32392885Y10721528D01*
X32376209Y10754168D01*
X32352992Y10715488D01*
X32297759Y10685804D01*
X32142209Y10647464D01*
X32142202Y10647461D01*
X32001474Y10573602D01*
X31995197Y10569268D01*
X31994210Y10570697D01*
X31938440Y10544486D01*
X31919146Y10543000D01*
X31490000Y10543000D01*
X31421879Y10563002D01*
X31375386Y10616658D01*
X31364000Y10669000D01*
X31364000Y10889283D01*
X31384002Y10957404D01*
X31400905Y10978378D01*
X31428622Y11006095D01*
X31490934Y11040121D01*
X31517717Y11043000D01*
X31896062Y11043000D01*
X31940593Y11034869D01*
X32082357Y10981308D01*
X32095549Y10979000D01*
X32115440Y10973818D01*
X32207046Y10941763D01*
X32281715Y10933350D01*
X32347165Y10905847D01*
X32375208Y10865014D01*
X32411684Y10911047D01*
X32470282Y10933350D01*
X32544954Y10941763D01*
X32705437Y10997918D01*
X32849400Y11088376D01*
X32849405Y11088382D01*
X32849936Y11088715D01*
X32918257Y11108021D01*
X32986170Y11087326D01*
G37*
%TD.AperFunction*%
%TA.AperFunction,Conductor*%
G36*
X32532088Y14252298D02*
G01*
X32553062Y14235395D01*
X32973595Y13814862D01*
X33007621Y13752550D01*
X33010500Y13725767D01*
X33010500Y13664023D01*
X33027949Y13604599D01*
X33051696Y13523726D01*
X33073633Y13489592D01*
X33129540Y13402598D01*
X33130750Y13400716D01*
X33241257Y13304961D01*
X33374266Y13244218D01*
X33374271Y13244218D01*
X33374272Y13244217D01*
X33482625Y13228638D01*
X33482630Y13228637D01*
X33482632Y13228637D01*
X33662506Y13228637D01*
X33706130Y13220845D01*
X33711926Y13218705D01*
X33715546Y13218132D01*
X33720769Y13217303D01*
X33720770Y13217303D01*
X33720776Y13217303D01*
X33821950Y13221266D01*
X33838174Y13225159D01*
X33867573Y13228637D01*
X34185823Y13228637D01*
X34253944Y13208635D01*
X34300437Y13154979D01*
X34310541Y13084705D01*
X34281047Y13020125D01*
X34267455Y13007504D01*
X34267518Y13007437D01*
X34262179Y13002401D01*
X34246494Y12983708D01*
X34233742Y12970580D01*
X34215523Y12954366D01*
X34215513Y12954355D01*
X34185059Y12910864D01*
X34181713Y12906505D01*
X34147607Y12865858D01*
X34147601Y12865849D01*
X34136653Y12844051D01*
X34127274Y12828338D01*
X34113277Y12808348D01*
X34113274Y12808342D01*
X34093678Y12759016D01*
X34091428Y12754000D01*
X34067608Y12706572D01*
X34067606Y12706566D01*
X34061978Y12682821D01*
X34056474Y12665364D01*
X34047467Y12642692D01*
X34039774Y12590177D01*
X34038741Y12584781D01*
X34035476Y12571001D01*
X34027406Y12536947D01*
X33992237Y12475275D01*
X33929307Y12442406D01*
X33904802Y12440000D01*
X33896000Y12440000D01*
X33896000Y11558000D01*
X33875998Y11489879D01*
X33822342Y11443386D01*
X33770000Y11432000D01*
X33522000Y11432000D01*
X33453879Y11452002D01*
X33407386Y11505658D01*
X33396000Y11558000D01*
X33396000Y12440000D01*
X33322402Y12440000D01*
X33261906Y12433495D01*
X33125035Y12382445D01*
X33125034Y12382445D01*
X33008094Y12294904D01*
X33006064Y12292873D01*
X33003546Y12291499D01*
X33000882Y12289504D01*
X33000595Y12289888D01*
X32943750Y12258852D01*
X32872934Y12263921D01*
X32849938Y12275287D01*
X32705440Y12366081D01*
X32705437Y12366082D01*
X32544957Y12422236D01*
X32544956Y12422237D01*
X32544954Y12422237D01*
X32466077Y12431125D01*
X32435465Y12434574D01*
X32370012Y12462079D01*
X32329820Y12520603D01*
X32327649Y12591566D01*
X32331519Y12603816D01*
X32365494Y12694906D01*
X32371999Y12755403D01*
X32372000Y12755415D01*
X32372000Y12829000D01*
X31490000Y12829000D01*
X31421879Y12849002D01*
X31375386Y12902658D01*
X31364000Y12955000D01*
X31364000Y13845000D01*
X31864000Y13845000D01*
X31864000Y13329000D01*
X32372000Y13329000D01*
X32372000Y13402586D01*
X32371999Y13402598D01*
X32365494Y13463094D01*
X32365492Y13463102D01*
X32335704Y13542967D01*
X32330638Y13613783D01*
X32335704Y13631033D01*
X32365492Y13710899D01*
X32365494Y13710907D01*
X32371999Y13771403D01*
X32372000Y13771415D01*
X32372000Y13845000D01*
X31864000Y13845000D01*
X31364000Y13845000D01*
X31364000Y14146300D01*
X31384002Y14214421D01*
X31437658Y14260914D01*
X31490000Y14272300D01*
X32463967Y14272300D01*
X32532088Y14252298D01*
G37*
%TD.AperFunction*%
%TA.AperFunction,Conductor*%
G36*
X20278513Y15143356D02*
G01*
X20282003Y15139996D01*
X20314999Y15107000D01*
X20534342Y15107000D01*
X20564496Y15103339D01*
X20612529Y15091500D01*
X20612530Y15091500D01*
X20771470Y15091500D01*
X20771471Y15091500D01*
X20819504Y15103339D01*
X20849658Y15107000D01*
X21197000Y15107000D01*
X21265121Y15086998D01*
X21311614Y15033342D01*
X21323000Y14981000D01*
X21323000Y14733000D01*
X21302998Y14664879D01*
X21249342Y14618386D01*
X21197000Y14607000D01*
X20315000Y14607000D01*
X20315000Y14533403D01*
X20321505Y14472907D01*
X20372555Y14336036D01*
X20372555Y14336035D01*
X20460095Y14219096D01*
X20530455Y14166425D01*
X20573002Y14109589D01*
X20578066Y14038773D01*
X20558642Y13993981D01*
X20489215Y13893399D01*
X20489212Y13893393D01*
X20432848Y13744777D01*
X20431026Y13737381D01*
X20427931Y13738144D01*
X20404749Y13685974D01*
X20345419Y13646980D01*
X20274426Y13646252D01*
X20219589Y13678411D01*
X19246307Y14651693D01*
X19212281Y14714005D01*
X19217346Y14784820D01*
X19259893Y14841656D01*
X19326413Y14866467D01*
X19365556Y14863127D01*
X19469529Y14837500D01*
X19469530Y14837500D01*
X19628470Y14837500D01*
X19628471Y14837500D01*
X19782793Y14875537D01*
X19923529Y14949401D01*
X20042498Y15054799D01*
X20089213Y15122479D01*
X20144370Y15167177D01*
X20214938Y15174960D01*
X20278513Y15143356D01*
G37*
%TD.AperFunction*%
%TA.AperFunction,Conductor*%
G36*
X26052121Y15814998D02*
G01*
X26098614Y15761342D01*
X26110000Y15709000D01*
X26110000Y14472999D01*
X26143240Y14439759D01*
X26177266Y14377447D01*
X26172201Y14306632D01*
X26143241Y14261571D01*
X25980518Y14098847D01*
X25831788Y13950117D01*
X25769476Y13916092D01*
X25698660Y13921157D01*
X25641825Y13963704D01*
X25617661Y14023626D01*
X25612003Y14069025D01*
X25612000Y14069031D01*
X25609895Y14076102D01*
X25609858Y14076210D01*
X25609826Y14076317D01*
X25607451Y14083236D01*
X25582666Y14129035D01*
X25559808Y14175792D01*
X25555473Y14181863D01*
X25555451Y14181892D01*
X25555435Y14181914D01*
X25550889Y14187753D01*
X25550887Y14187758D01*
X25521923Y14214421D01*
X25512573Y14223029D01*
X25477697Y14257905D01*
X25443671Y14320217D01*
X25448736Y14391032D01*
X25491283Y14447868D01*
X25557803Y14472679D01*
X25566792Y14473000D01*
X25602000Y14473000D01*
X25602000Y15709000D01*
X25622002Y15777121D01*
X25675658Y15823614D01*
X25728000Y15835000D01*
X25984000Y15835000D01*
X26052121Y15814998D01*
G37*
%TD.AperFunction*%
%TA.AperFunction,Conductor*%
G36*
X29581496Y16627339D02*
G01*
X29629529Y16615500D01*
X29629530Y16615500D01*
X29788470Y16615500D01*
X29788471Y16615500D01*
X29836504Y16627339D01*
X29866658Y16631000D01*
X30976000Y16631000D01*
X31044121Y16610998D01*
X31090614Y16557342D01*
X31102000Y16505000D01*
X31102000Y16257000D01*
X31081998Y16188879D01*
X31028342Y16142386D01*
X30976000Y16131000D01*
X29705000Y16131000D01*
X29705000Y15263245D01*
X29684998Y15195124D01*
X29631342Y15148631D01*
X29561068Y15138527D01*
X29538000Y15144102D01*
X29417394Y15185605D01*
X29354525Y15207240D01*
X29312909Y15217805D01*
X29312904Y15217806D01*
X29310202Y15218258D01*
X29246317Y15249230D01*
X29209319Y15309825D01*
X29205000Y15342530D01*
X29205000Y16505000D01*
X29225002Y16573121D01*
X29278658Y16619614D01*
X29331000Y16631000D01*
X29551342Y16631000D01*
X29581496Y16627339D01*
G37*
%TD.AperFunction*%
%TA.AperFunction,Conductor*%
G36*
X51755767Y18598498D02*
G01*
X51802260Y18544842D01*
X51812364Y18474568D01*
X51783457Y18410671D01*
X51776667Y18402721D01*
X51769331Y18394132D01*
X51644610Y18190604D01*
X51553263Y17970074D01*
X51512208Y17799066D01*
X51497539Y17737966D01*
X51478811Y17500000D01*
X51497539Y17262034D01*
X51547724Y17053000D01*
X51553263Y17029927D01*
X51633953Y16835124D01*
X51644611Y16809395D01*
X51669971Y16768011D01*
X51768222Y16607678D01*
X51769332Y16605868D01*
X51783457Y16589330D01*
X51812488Y16524542D01*
X51801884Y16454342D01*
X51755010Y16401019D01*
X51687646Y16381500D01*
X51518390Y16381500D01*
X51513185Y16381715D01*
X51494057Y16383300D01*
X51468060Y16385454D01*
X51468059Y16385454D01*
X51424155Y16374337D01*
X51419065Y16373270D01*
X51402772Y16370551D01*
X51374417Y16365819D01*
X51374407Y16365816D01*
X51374043Y16365618D01*
X51345044Y16354303D01*
X51344636Y16354200D01*
X51306726Y16329434D01*
X51302254Y16326769D01*
X51262438Y16305221D01*
X51262433Y16305217D01*
X51262152Y16304911D01*
X51238398Y16284793D01*
X51238051Y16284567D01*
X51238044Y16284561D01*
X51210232Y16248828D01*
X51206867Y16244856D01*
X51186340Y16222556D01*
X51125488Y16185984D01*
X51054523Y16188117D01*
X51013707Y16210491D01*
X50988683Y16231027D01*
X50988681Y16231028D01*
X50988680Y16231029D01*
X50805492Y16328945D01*
X50764875Y16341266D01*
X50606718Y16389242D01*
X50606717Y16389243D01*
X50606711Y16389244D01*
X50451807Y16404500D01*
X50451801Y16404500D01*
X48250500Y16404500D01*
X48182379Y16424502D01*
X48135886Y16478158D01*
X48124500Y16530500D01*
X48124500Y17065925D01*
X48124499Y17065943D01*
X48122847Y17082712D01*
X48117255Y17139499D01*
X48109793Y17215261D01*
X48109793Y17215264D01*
X48109792Y17215267D01*
X48109792Y17215269D01*
X48051667Y17406880D01*
X47957278Y17583469D01*
X47921742Y17626770D01*
X47899099Y17654362D01*
X47871346Y17719710D01*
X47870499Y17734295D01*
X47870499Y17930064D01*
X47870498Y17930073D01*
X47855734Y18004301D01*
X47844699Y18020816D01*
X47799484Y18088484D01*
X47799483Y18088485D01*
X47715302Y18144734D01*
X47641067Y18159500D01*
X46320936Y18159500D01*
X46320926Y18159499D01*
X46246699Y18144735D01*
X46207622Y18118624D01*
X46139869Y18097410D01*
X46071402Y18116194D01*
X46036753Y18147881D01*
X45946904Y18267905D01*
X45829966Y18355444D01*
X45779024Y18374444D01*
X45722189Y18416991D01*
X45697378Y18483511D01*
X45712469Y18552885D01*
X45762672Y18603088D01*
X45823057Y18618500D01*
X51687646Y18618500D01*
X51755767Y18598498D01*
G37*
%TD.AperFunction*%
%TA.AperFunction,Conductor*%
G36*
X22281121Y17880998D02*
G01*
X22327614Y17827342D01*
X22339000Y17775000D01*
X22339000Y17527000D01*
X22318998Y17458879D01*
X22265342Y17412386D01*
X22213000Y17401000D01*
X20441000Y17401000D01*
X20372879Y17421002D01*
X20326386Y17474658D01*
X20315000Y17527000D01*
X20315000Y17775000D01*
X20335002Y17843121D01*
X20388658Y17889614D01*
X20441000Y17901000D01*
X22213000Y17901000D01*
X22281121Y17880998D01*
G37*
%TD.AperFunction*%
%TA.AperFunction,Conductor*%
G36*
X20129789Y18598498D02*
G01*
X20176282Y18544842D01*
X20186386Y18474568D01*
X20156892Y18409988D01*
X20105700Y18374444D01*
X20044034Y18351445D01*
X19927097Y18263906D01*
X19883742Y18205990D01*
X19826906Y18163444D01*
X19782874Y18155500D01*
X19248936Y18155500D01*
X19248926Y18155499D01*
X19174698Y18140735D01*
X19111002Y18098173D01*
X19043249Y18076958D01*
X18974782Y18095741D01*
X18970997Y18098173D01*
X18907301Y18140734D01*
X18882556Y18145656D01*
X18833069Y18155500D01*
X18833067Y18155500D01*
X18606203Y18155500D01*
X18588273Y18156782D01*
X18569368Y18159500D01*
X18115632Y18159500D01*
X18115625Y18159500D01*
X18007272Y18143921D01*
X18007266Y18143919D01*
X17874252Y18083174D01*
X17866672Y18078302D01*
X17865751Y18079736D01*
X17810752Y18054623D01*
X17740479Y18064732D01*
X17709276Y18085030D01*
X17705699Y18088199D01*
X17705698Y18088201D01*
X17586729Y18193599D01*
X17586728Y18193600D01*
X17586725Y18193602D01*
X17445997Y18267461D01*
X17445995Y18267462D01*
X17445993Y18267463D01*
X17445991Y18267464D01*
X17445990Y18267464D01*
X17291672Y18305500D01*
X17291671Y18305500D01*
X17203328Y18305500D01*
X17197005Y18305818D01*
X17174570Y18308080D01*
X17150769Y18305790D01*
X17144733Y18305500D01*
X17132729Y18305500D01*
X17132725Y18305500D01*
X17132715Y18305498D01*
X17132030Y18305329D01*
X17113954Y18302250D01*
X16472213Y18240527D01*
X16472207Y18240526D01*
X16471056Y18240209D01*
X16468925Y18239922D01*
X16466859Y18239541D01*
X16466840Y18239641D01*
X16437649Y18235700D01*
X14087000Y18235700D01*
X14018879Y18255702D01*
X13972386Y18309358D01*
X13961000Y18361700D01*
X13961000Y18492500D01*
X13981002Y18560621D01*
X14034658Y18607114D01*
X14087000Y18618500D01*
X20061668Y18618500D01*
X20129789Y18598498D01*
G37*
%TD.AperFunction*%
%TA.AperFunction,Conductor*%
G36*
X44143064Y18598498D02*
G01*
X44189557Y18544842D01*
X44199661Y18474568D01*
X44170167Y18409988D01*
X44118976Y18374444D01*
X44068033Y18355444D01*
X43951097Y18267906D01*
X43896971Y18195602D01*
X43840135Y18153056D01*
X43769319Y18147992D01*
X43707008Y18182017D01*
X43668632Y18220393D01*
X43668629Y18220395D01*
X43524669Y18310851D01*
X43524667Y18310852D01*
X43364184Y18367007D01*
X43361645Y18367294D01*
X43360119Y18367935D01*
X43357286Y18368581D01*
X43357399Y18369078D01*
X43296195Y18394796D01*
X43256002Y18453320D01*
X43253831Y18524284D01*
X43290369Y18585156D01*
X43354018Y18616611D01*
X43375756Y18618500D01*
X44074943Y18618500D01*
X44143064Y18598498D01*
G37*
%TD.AperFunction*%
%TA.AperFunction,Conductor*%
G36*
X7695615Y2336405D02*
G01*
X7746562Y2286959D01*
X7762688Y2217818D01*
X7756062Y2184015D01*
X7682417Y1969495D01*
X7682415Y1969486D01*
X7662477Y1850001D01*
X7662477Y1850000D01*
X8707814Y1850000D01*
X8682007Y1809844D01*
X8641500Y1671889D01*
X8641500Y1528111D01*
X8682007Y1390156D01*
X8707814Y1350000D01*
X7662477Y1350000D01*
X7682415Y1230515D01*
X7682417Y1230506D01*
X7763130Y995395D01*
X7763132Y995393D01*
X7881445Y776767D01*
X7881451Y776758D01*
X8030789Y584891D01*
X8056846Y518849D01*
X8043061Y449204D01*
X7993811Y398067D01*
X7931358Y381500D01*
X507500Y381500D01*
X439379Y401502D01*
X392886Y455158D01*
X381500Y507500D01*
X381500Y1256010D01*
X401502Y1324131D01*
X455158Y1370624D01*
X525432Y1380728D01*
X583005Y1356880D01*
X771367Y1215874D01*
X1002559Y1089634D01*
X1249364Y997580D01*
X1506758Y941588D01*
X1769500Y922796D01*
X2032242Y941588D01*
X2289636Y997580D01*
X2536441Y1089634D01*
X2725117Y1192659D01*
X2794488Y1207750D01*
X2845881Y1192660D01*
X3034559Y1089634D01*
X3281364Y997580D01*
X3538758Y941588D01*
X3801500Y922796D01*
X4064242Y941588D01*
X4321636Y997580D01*
X4568441Y1089634D01*
X4799633Y1215874D01*
X5010507Y1373732D01*
X5196768Y1559993D01*
X5354626Y1770867D01*
X5462093Y1967680D01*
X5512292Y2017878D01*
X5581666Y2032970D01*
X5626160Y2021377D01*
X5660762Y2005156D01*
X5660764Y2005156D01*
X5660767Y2005154D01*
X5927169Y1925005D01*
X6202395Y1884501D01*
X6202398Y1884500D01*
X6202401Y1884500D01*
X6410965Y1884500D01*
X6443815Y1886905D01*
X6618955Y1899723D01*
X6890497Y1960212D01*
X7150338Y2059592D01*
X7392940Y2195747D01*
X7559881Y2324656D01*
X7626023Y2350458D01*
X7695615Y2336405D01*
G37*
%TD.AperFunction*%
%TA.AperFunction,Conductor*%
G36*
X10913000Y1350000D02*
G01*
X10375186Y1350000D01*
X10400993Y1390156D01*
X10441500Y1528111D01*
X10441500Y1671889D01*
X10400993Y1809844D01*
X10375186Y1850000D01*
X10627001Y1850000D01*
X10639096Y1862095D01*
X10701408Y1896121D01*
X10728191Y1899000D01*
X10913000Y1899000D01*
X10913000Y1350000D01*
G37*
%TD.AperFunction*%
%TA.AperFunction,Conductor*%
G36*
X10831032Y13555924D02*
G01*
X10887868Y13513377D01*
X10912679Y13446857D01*
X10913000Y13437868D01*
X10913000Y13176139D01*
X10910121Y13149356D01*
X10864087Y12937739D01*
X10845296Y12675000D01*
X10864087Y12412262D01*
X10910121Y12200646D01*
X10913000Y12173863D01*
X10913000Y10636139D01*
X10910121Y10609356D01*
X10864087Y10397739D01*
X10845296Y10135000D01*
X10864087Y9872262D01*
X10910121Y9660646D01*
X10913000Y9633863D01*
X10913000Y8096139D01*
X10910121Y8069356D01*
X10864087Y7857739D01*
X10845296Y7595000D01*
X10864087Y7332262D01*
X10910121Y7120646D01*
X10913000Y7093863D01*
X10913000Y5556139D01*
X10910121Y5529356D01*
X10864087Y5317739D01*
X10845296Y5055000D01*
X10864087Y4792262D01*
X10864088Y4792258D01*
X10893660Y4656314D01*
X10910121Y4580646D01*
X10913000Y4553863D01*
X10913000Y3035508D01*
X10892998Y2967387D01*
X10862510Y2934641D01*
X10829959Y2910273D01*
X10763439Y2885461D01*
X10694065Y2900552D01*
X10685535Y2905656D01*
X10657867Y2923732D01*
X10657864Y2923734D01*
X10430215Y3023589D01*
X10430217Y3023589D01*
X10189243Y3084612D01*
X10003545Y3100000D01*
X9791500Y3100000D01*
X9791500Y2100000D01*
X9291500Y2100000D01*
X9291500Y3100000D01*
X9079455Y3100000D01*
X8893756Y3084612D01*
X8652783Y3023589D01*
X8425136Y2923734D01*
X8237447Y2801112D01*
X8169478Y2780600D01*
X8101209Y2800090D01*
X8054315Y2853395D01*
X8043683Y2923591D01*
X8056474Y2964207D01*
X8095297Y3039717D01*
X8185121Y3303014D01*
X8235652Y3576584D01*
X8245813Y3854596D01*
X8215386Y4131124D01*
X8145020Y4400276D01*
X8036216Y4656314D01*
X7891292Y4893781D01*
X7713337Y5107617D01*
X7506143Y5293263D01*
X7274127Y5446763D01*
X7138360Y5510408D01*
X7022234Y5564846D01*
X6942763Y5588756D01*
X6755831Y5644995D01*
X6755826Y5644996D01*
X6755822Y5644997D01*
X6480603Y5685500D01*
X6480599Y5685500D01*
X6272037Y5685500D01*
X6272035Y5685500D01*
X6064041Y5670277D01*
X5792509Y5609790D01*
X5792497Y5609786D01*
X5532661Y5510408D01*
X5290059Y5374253D01*
X5069866Y5204225D01*
X5069865Y5204224D01*
X4876780Y5003954D01*
X4714904Y4777693D01*
X4600455Y4555087D01*
X4551519Y4503651D01*
X4482542Y4486836D01*
X4444366Y4494644D01*
X4340666Y4533322D01*
X4283832Y4575868D01*
X4259021Y4642388D01*
X4258700Y4651377D01*
X4258700Y7035568D01*
X4278702Y7103689D01*
X4295600Y7124658D01*
X10697905Y13526964D01*
X10760217Y13560989D01*
X10831032Y13555924D01*
G37*
%TD.AperFunction*%
%TA.AperFunction,Conductor*%
G36*
X583005Y14818880D02*
G01*
X771367Y14677874D01*
X1002559Y14551634D01*
X1102856Y14514225D01*
X1105837Y14513025D01*
X1153755Y14492273D01*
X1209331Y14474439D01*
X1212081Y14473485D01*
X1230836Y14466491D01*
X1249364Y14459580D01*
X1265874Y14455989D01*
X1271730Y14454417D01*
X1446862Y14398219D01*
X1490000Y14374219D01*
X1498747Y14366779D01*
X1498751Y14366777D01*
X1498753Y14366775D01*
X1577303Y14319291D01*
X1709390Y14239442D01*
X1709393Y14239441D01*
X1709396Y14239439D01*
X1822371Y14193971D01*
X1937729Y14147543D01*
X1937731Y14147542D01*
X2120583Y14106361D01*
X2182643Y14071881D01*
X2213794Y14018937D01*
X2232932Y13953759D01*
X2234044Y13949402D01*
X2247452Y13887771D01*
X2261419Y13855156D01*
X2263956Y13848099D01*
X2273957Y13814039D01*
X2273958Y13814037D01*
X2302854Y13757985D01*
X2304771Y13753916D01*
X2329593Y13695951D01*
X2329596Y13695945D01*
X2329598Y13695942D01*
X2329601Y13695938D01*
X2349488Y13666554D01*
X2353314Y13660106D01*
X2369582Y13628554D01*
X2369584Y13628551D01*
X2408561Y13578987D01*
X2411213Y13575355D01*
X2420937Y13560989D01*
X2446565Y13523124D01*
X2471664Y13498025D01*
X2476633Y13492427D01*
X2498579Y13464521D01*
X2498581Y13464519D01*
X2498584Y13464516D01*
X2546242Y13423221D01*
X2549520Y13420169D01*
X3557427Y12412262D01*
X4099390Y11870299D01*
X4112925Y11854300D01*
X4114434Y11852181D01*
X4180542Y11789147D01*
X4208136Y11761552D01*
X4208147Y11761542D01*
X4216459Y11754679D01*
X4219808Y11751707D01*
X4265465Y11708173D01*
X4265467Y11708172D01*
X4265469Y11708170D01*
X4295321Y11688986D01*
X4301379Y11684562D01*
X4328739Y11661971D01*
X4328742Y11661969D01*
X4328747Y11661965D01*
X4328751Y11661963D01*
X4384097Y11631742D01*
X4387967Y11629446D01*
X4405955Y11617886D01*
X4441018Y11595352D01*
X4473973Y11582159D01*
X4480737Y11578973D01*
X4511902Y11561955D01*
X4571997Y11542745D01*
X4576190Y11541238D01*
X4634751Y11517793D01*
X4669611Y11511075D01*
X4676862Y11509223D01*
X4710667Y11498416D01*
X4710676Y11498414D01*
X4766173Y11491780D01*
X4773284Y11490930D01*
X4777723Y11490238D01*
X4839660Y11478300D01*
X4875155Y11478300D01*
X4882640Y11477854D01*
X4885108Y11477559D01*
X4917878Y11473641D01*
X4969311Y11477320D01*
X4980779Y11478139D01*
X4985274Y11478300D01*
X5254431Y11478300D01*
X5322552Y11458298D01*
X5369045Y11404642D01*
X5379149Y11334368D01*
X5349655Y11269788D01*
X5343526Y11263205D01*
X2465294Y8384975D01*
X2449299Y8371443D01*
X2447183Y8369937D01*
X2447179Y8369933D01*
X2384147Y8303827D01*
X2356532Y8276212D01*
X2349674Y8267905D01*
X2346691Y8264544D01*
X2303171Y8218901D01*
X2283980Y8189042D01*
X2279562Y8182991D01*
X2256967Y8155625D01*
X2256964Y8155621D01*
X2226738Y8100267D01*
X2224443Y8096400D01*
X2190352Y8043352D01*
X2190351Y8043350D01*
X2177161Y8010405D01*
X2173967Y8003626D01*
X2156958Y7972475D01*
X2156955Y7972469D01*
X2137749Y7912388D01*
X2136228Y7908158D01*
X2112792Y7849617D01*
X2106074Y7814764D01*
X2104220Y7807503D01*
X2093416Y7773702D01*
X2093415Y7773698D01*
X2085927Y7711075D01*
X2085234Y7706633D01*
X2073300Y7644711D01*
X2073300Y7609214D01*
X2072854Y7601729D01*
X2068641Y7566490D01*
X2073139Y7503594D01*
X2073300Y7499098D01*
X2073300Y6790386D01*
X2053298Y6722265D01*
X1999642Y6675772D01*
X1929368Y6665668D01*
X1917889Y6667867D01*
X1752966Y6707461D01*
X1515000Y6726189D01*
X1277034Y6707461D01*
X1044926Y6651737D01*
X824396Y6560390D01*
X620866Y6435667D01*
X620865Y6435666D01*
X589329Y6408732D01*
X524539Y6379701D01*
X454339Y6390308D01*
X401018Y6437183D01*
X381500Y6504544D01*
X381500Y14718010D01*
X401502Y14786131D01*
X455158Y14832624D01*
X525432Y14842728D01*
X583005Y14818880D01*
G37*
%TD.AperFunction*%
%TA.AperFunction,Conductor*%
G36*
X7999479Y18598498D02*
G01*
X8045972Y18544842D01*
X8056076Y18474568D01*
X8030789Y18415109D01*
X7881451Y18223243D01*
X7881445Y18223234D01*
X7763132Y18004608D01*
X7763130Y18004606D01*
X7682417Y17769495D01*
X7682415Y17769486D01*
X7662477Y17650001D01*
X7662477Y17650000D01*
X8707814Y17650000D01*
X8682007Y17609844D01*
X8641500Y17471889D01*
X8641500Y17328111D01*
X8682007Y17190156D01*
X8707814Y17150000D01*
X7662477Y17150000D01*
X7682415Y17030515D01*
X7682417Y17030506D01*
X7755953Y16816303D01*
X7759153Y16745378D01*
X7723501Y16683983D01*
X7660315Y16651609D01*
X7589657Y16658534D01*
X7552699Y16681549D01*
X7506143Y16723263D01*
X7274127Y16876763D01*
X7022234Y16994846D01*
X6903675Y17030515D01*
X6755831Y17074995D01*
X6755826Y17074996D01*
X6755822Y17074997D01*
X6480603Y17115500D01*
X6480599Y17115500D01*
X6272037Y17115500D01*
X6272035Y17115500D01*
X6064041Y17100277D01*
X5792509Y17039790D01*
X5792497Y17039786D01*
X5618636Y16973290D01*
X5547865Y16967637D01*
X5485272Y17001144D01*
X5463039Y17030588D01*
X5354626Y17229133D01*
X5196768Y17440007D01*
X5196766Y17440009D01*
X5196758Y17440018D01*
X5010517Y17626259D01*
X5010508Y17626267D01*
X5005524Y17629998D01*
X4799633Y17784126D01*
X4684037Y17847246D01*
X4568442Y17910366D01*
X4321633Y18002421D01*
X4064238Y18058413D01*
X3801500Y18077204D01*
X3538761Y18058413D01*
X3281366Y18002421D01*
X3034555Y17910365D01*
X3034553Y17910364D01*
X2965108Y17872444D01*
X2895734Y17857353D01*
X2829214Y17882165D01*
X2786668Y17939001D01*
X2779113Y17992920D01*
X2779861Y18002421D01*
X2782189Y18032000D01*
X2763461Y18269966D01*
X2717097Y18463086D01*
X2720644Y18533994D01*
X2761964Y18591728D01*
X2827938Y18617958D01*
X2839616Y18618500D01*
X7931358Y18618500D01*
X7999479Y18598498D01*
G37*
%TD.AperFunction*%
%TA.AperFunction,Conductor*%
G36*
X14817944Y12603055D02*
G01*
X14894901Y12526098D01*
X15538031Y12172253D01*
X15543628Y12165263D01*
X15543198Y12157521D01*
X15235278Y11415108D01*
X15228943Y11408779D01*
X15219989Y11408783D01*
X15219982Y11408786D01*
X14479732Y11716379D01*
X14473407Y11722718D01*
X14473266Y11731290D01*
X14798718Y12598894D01*
X14804831Y12605434D01*
X14813780Y12605737D01*
X14817944Y12603055D01*
G37*
%TD.AperFunction*%
%TA.AperFunction,Conductor*%
G36*
X22578043Y5095575D02*
G01*
X22582044Y5092955D01*
X22855551Y4819448D01*
X22858978Y4811175D01*
X22855551Y4802902D01*
X22851959Y4800452D01*
X22197451Y4514732D01*
X22188498Y4514563D01*
X22182047Y4520774D01*
X22181971Y4520953D01*
X22062579Y4807316D01*
X22034641Y4874325D01*
X22034621Y4883277D01*
X22182150Y5238486D01*
X22188488Y5244811D01*
X22197225Y5244890D01*
X22578043Y5095575D01*
G37*
%TD.AperFunction*%
%TA.AperFunction,Conductor*%
G36*
X22925760Y4685573D02*
G01*
X22928987Y4679453D01*
X22972867Y4445051D01*
X22971021Y4436288D01*
X22969657Y4434641D01*
X22732290Y4196324D01*
X22724023Y4192881D01*
X22715743Y4196291D01*
X22715710Y4196324D01*
X22478342Y4434641D01*
X22474932Y4442921D01*
X22475131Y4445043D01*
X22519013Y4679453D01*
X22523903Y4686954D01*
X22530513Y4689000D01*
X22917487Y4689000D01*
X22925760Y4685573D01*
G37*
%TD.AperFunction*%
%TA.AperFunction,Conductor*%
G36*
X22388983Y4732253D02*
G01*
X22395321Y4725927D01*
X22395330Y4716972D01*
X22393828Y4714356D01*
X22187432Y4443001D01*
X22187432Y3973896D01*
X22184005Y3965623D01*
X22175732Y3962196D01*
X22167459Y3965623D01*
X22165974Y3967441D01*
X21984357Y4242013D01*
X21671743Y4714629D01*
X21670038Y4723419D01*
X21675047Y4730841D01*
X21677011Y4731887D01*
X22028000Y4877666D01*
X22036954Y4877674D01*
X22388983Y4732253D01*
G37*
%TD.AperFunction*%
%TA.AperFunction,Conductor*%
G36*
X20641042Y4788005D02*
G01*
X20644812Y4785479D01*
X20918989Y4511302D01*
X20920481Y4509474D01*
X20961481Y4447361D01*
X20963178Y4438569D01*
X20959587Y4432260D01*
X20700341Y4196522D01*
X20691915Y4193491D01*
X20683814Y4197307D01*
X20683473Y4197698D01*
X20487372Y4433555D01*
X20484718Y4442107D01*
X20485568Y4445532D01*
X20625741Y4781711D01*
X20632087Y4788026D01*
X20641042Y4788005D01*
G37*
%TD.AperFunction*%
%TA.AperFunction,Conductor*%
G36*
X13017345Y5811095D02*
G01*
X13018799Y5810369D01*
X14186244Y5121895D01*
X14191629Y5114742D01*
X14192000Y5111818D01*
X14192000Y4998183D01*
X14188573Y4989910D01*
X14186243Y4988105D01*
X13018799Y4299632D01*
X13009932Y4298381D01*
X13002778Y4303767D01*
X13002052Y4305221D01*
X12718296Y4988105D01*
X12692364Y5050512D01*
X12692355Y5059465D01*
X12692365Y5059489D01*
X12718297Y5121896D01*
X13002053Y5804782D01*
X13008391Y5811105D01*
X13017345Y5811095D01*
G37*
%TD.AperFunction*%
%TA.AperFunction,Conductor*%
G36*
X14920265Y4536386D02*
G01*
X14920414Y4536042D01*
X15227717Y3795117D01*
X15227721Y3786163D01*
X15221392Y3779828D01*
X15221375Y3779821D01*
X14481173Y3474190D01*
X14472219Y3474200D01*
X14465894Y3480539D01*
X14465528Y3481554D01*
X14248367Y4188169D01*
X14249213Y4197083D01*
X14251275Y4199875D01*
X14334598Y4283198D01*
X14338039Y4285579D01*
X14904782Y4542219D01*
X14913731Y4542509D01*
X14920265Y4536386D01*
G37*
%TD.AperFunction*%
%TA.AperFunction,Conductor*%
G36*
X18545699Y7127856D02*
G01*
X19297089Y7060160D01*
X19305020Y7056004D01*
X19307738Y7048507D01*
X19307738Y6660217D01*
X19304311Y6651944D01*
X19301031Y6649636D01*
X18697151Y6364676D01*
X18688207Y6364244D01*
X18681577Y6370264D01*
X18681359Y6370755D01*
X18565088Y6649636D01*
X18532905Y6726829D01*
X18532005Y6731352D01*
X18532968Y7116232D01*
X18536416Y7124496D01*
X18544697Y7127902D01*
X18545699Y7127856D01*
G37*
%TD.AperFunction*%
%TA.AperFunction,Conductor*%
G36*
X19150056Y7103086D02*
G01*
X19151301Y7102104D01*
X19413426Y6864672D01*
X19417257Y6856578D01*
X19414243Y6848145D01*
X19413426Y6847328D01*
X19151301Y6609897D01*
X19142868Y6606883D01*
X19141293Y6607069D01*
X18906547Y6651013D01*
X18899046Y6655903D01*
X18897000Y6662513D01*
X18897000Y7049488D01*
X18900427Y7057761D01*
X18906544Y7060987D01*
X19141293Y7104932D01*
X19150056Y7103086D01*
G37*
%TD.AperFunction*%
%TA.AperFunction,Conductor*%
G36*
X17207975Y18047152D02*
G01*
X17212178Y18039245D01*
X17212232Y18038154D01*
X17213187Y17655876D01*
X17209781Y17647595D01*
X17209746Y17647559D01*
X16937794Y17376565D01*
X16929514Y17373153D01*
X16921247Y17376594D01*
X16921101Y17376744D01*
X16489741Y17825404D01*
X16486475Y17833513D01*
X16486475Y17970572D01*
X16489902Y17978845D01*
X16497053Y17982218D01*
X17199414Y18049771D01*
X17207975Y18047152D01*
G37*
%TD.AperFunction*%
%TA.AperFunction,Conductor*%
G36*
X18267136Y12593197D02*
G01*
X18272707Y12588350D01*
X18602753Y12029809D01*
X18604011Y12020943D01*
X18600953Y12015584D01*
X18326416Y11741047D01*
X18318143Y11737620D01*
X18312191Y11739247D01*
X17938683Y11959956D01*
X17753649Y12069294D01*
X17748271Y12076452D01*
X17748781Y12083816D01*
X17895437Y12440198D01*
X17901753Y12446543D01*
X18258184Y12593218D01*
X18267136Y12593197D01*
G37*
%TD.AperFunction*%
%TA.AperFunction,Conductor*%
G36*
X18486641Y12146110D02*
G01*
X18617371Y12072578D01*
X18859004Y11936666D01*
X18864534Y11929624D01*
X18864419Y11922929D01*
X18789384Y11686577D01*
X18783614Y11679728D01*
X18782555Y11679245D01*
X18518789Y11574357D01*
X18509835Y11574484D01*
X18506594Y11576573D01*
X18200616Y11854839D01*
X18196801Y11862941D01*
X18199832Y11871367D01*
X18200193Y11871746D01*
X18472633Y12144186D01*
X18480905Y12147612D01*
X18486641Y12146110D01*
G37*
%TD.AperFunction*%
%TA.AperFunction,Conductor*%
G36*
X19067703Y11930933D02*
G01*
X19302454Y11886987D01*
X19309954Y11882098D01*
X19312000Y11875488D01*
X19312000Y11488513D01*
X19308573Y11480240D01*
X19302453Y11477013D01*
X19067706Y11433069D01*
X19058943Y11434915D01*
X19057698Y11435897D01*
X18993504Y11494044D01*
X18795572Y11673330D01*
X18791742Y11681422D01*
X18794756Y11689855D01*
X18795564Y11690664D01*
X19057699Y11928105D01*
X19066131Y11931118D01*
X19067703Y11930933D01*
G37*
%TD.AperFunction*%
%TA.AperFunction,Conductor*%
G36*
X19702703Y7104933D02*
G01*
X19937454Y7060987D01*
X19944954Y7056098D01*
X19947000Y7049488D01*
X19947000Y6662513D01*
X19943573Y6654240D01*
X19937453Y6651013D01*
X19702706Y6607069D01*
X19693943Y6608915D01*
X19692698Y6609897D01*
X19628504Y6668044D01*
X19430572Y6847330D01*
X19426742Y6855422D01*
X19429756Y6863855D01*
X19430564Y6864664D01*
X19692699Y7102105D01*
X19701131Y7105118D01*
X19702703Y7104933D01*
G37*
%TD.AperFunction*%
%TA.AperFunction,Conductor*%
G36*
X14406744Y7338326D02*
G01*
X14551510Y7306450D01*
X15533584Y7090203D01*
X15540926Y7085078D01*
X15542493Y7076261D01*
X15541878Y7074305D01*
X15234493Y6331238D01*
X15228164Y6324903D01*
X15223668Y6324010D01*
X14416803Y6324988D01*
X14408534Y6328425D01*
X14405209Y6335222D01*
X14280163Y7325434D01*
X14282527Y7334071D01*
X14290305Y7338508D01*
X14291771Y7338600D01*
X14404228Y7338600D01*
X14406744Y7338326D01*
G37*
%TD.AperFunction*%
%TA.AperFunction,Conductor*%
G36*
X13017432Y8351305D02*
G01*
X13018715Y8350678D01*
X14233262Y7661862D01*
X14238768Y7654800D01*
X14239190Y7651685D01*
X14239190Y7538316D01*
X14235763Y7530043D01*
X14233262Y7528139D01*
X13018715Y6839323D01*
X13009828Y6838222D01*
X13002766Y6843728D01*
X13002143Y6845003D01*
X12692364Y7590512D01*
X12692355Y7599465D01*
X12692365Y7599489D01*
X12718283Y7661862D01*
X13002140Y8344992D01*
X13008478Y8351315D01*
X13017432Y8351305D01*
G37*
%TD.AperFunction*%
%TA.AperFunction,Conductor*%
G36*
X13283117Y15790707D02*
G01*
X13903803Y15215000D01*
X14080646Y15050973D01*
X14084382Y15042835D01*
X14084390Y15042395D01*
X14084390Y14928176D01*
X14080963Y14919903D01*
X14077350Y14917444D01*
X13018116Y14457533D01*
X13009162Y14457381D01*
X13002724Y14463605D01*
X13002711Y14463636D01*
X12693506Y15207766D01*
X12693496Y15216720D01*
X12696044Y15220535D01*
X13266895Y15790409D01*
X13275171Y15793829D01*
X13283117Y15790707D01*
G37*
%TD.AperFunction*%
%TA.AperFunction,Conductor*%
G36*
X17649846Y9008042D02*
G01*
X17653405Y9005617D01*
X17890676Y8769290D01*
X17894119Y8761023D01*
X17890709Y8752743D01*
X17890676Y8752710D01*
X17653405Y8516384D01*
X17645125Y8512974D01*
X17640893Y8513775D01*
X17405445Y8605694D01*
X17398985Y8611895D01*
X17398000Y8616593D01*
X17398000Y8905408D01*
X17401427Y8913681D01*
X17405443Y8916306D01*
X17640894Y9008226D01*
X17649846Y9008042D01*
G37*
%TD.AperFunction*%
%TA.AperFunction,Conductor*%
G36*
X15557524Y9621527D02*
G01*
X15558613Y9621007D01*
X16854700Y8916722D01*
X16860332Y8909762D01*
X16860813Y8906443D01*
X16860813Y8616633D01*
X16857386Y8608360D01*
X16853317Y8605714D01*
X15557848Y8106894D01*
X15548896Y8107120D01*
X15542841Y8113323D01*
X15232364Y8860512D01*
X15232355Y8869465D01*
X15232365Y8869489D01*
X15542233Y9615215D01*
X15548570Y9621537D01*
X15557524Y9621527D01*
G37*
%TD.AperFunction*%
%TA.AperFunction,Conductor*%
G36*
X13017858Y10892329D02*
G01*
X13018208Y10892177D01*
X14334663Y10290525D01*
X14340763Y10283970D01*
X14341500Y10279884D01*
X14341500Y9990117D01*
X14338073Y9981844D01*
X14334663Y9979476D01*
X13018232Y9377835D01*
X13009283Y9377513D01*
X13002728Y9383613D01*
X13002565Y9383987D01*
X12753826Y9982600D01*
X12692364Y10130512D01*
X12692355Y10139465D01*
X12692365Y10139489D01*
X12753826Y10287400D01*
X13002565Y10886015D01*
X13008904Y10892339D01*
X13017858Y10892329D01*
G37*
%TD.AperFunction*%
%TA.AperFunction,Conductor*%
G36*
X13282953Y13252412D02*
G01*
X14290785Y12511007D01*
X14295419Y12503344D01*
X14295552Y12501582D01*
X14295552Y12388700D01*
X14292125Y12380427D01*
X14287844Y12377702D01*
X13017720Y11916614D01*
X13008775Y11917012D01*
X13002924Y11923123D01*
X12693506Y12667766D01*
X12693496Y12676720D01*
X12696044Y12680535D01*
X13267755Y13251268D01*
X13276030Y13254687D01*
X13282953Y13252412D01*
G37*
%TD.AperFunction*%
%TA.AperFunction,Conductor*%
G36*
X14661914Y15135233D02*
G01*
X15537276Y14712006D01*
X15543232Y14705320D01*
X15542994Y14697001D01*
X15234493Y13951238D01*
X15228164Y13944903D01*
X15223668Y13944010D01*
X14419486Y13944985D01*
X14411217Y13948422D01*
X14407800Y13956699D01*
X14407864Y13957898D01*
X14531393Y15125931D01*
X14535671Y15133797D01*
X14543028Y15136400D01*
X14656821Y15136400D01*
X14661914Y15135233D01*
G37*
%TD.AperFunction*%
%TA.AperFunction,Conductor*%
G36*
X21362470Y13859932D02*
G01*
X21363800Y13858333D01*
X21559010Y13575963D01*
X21560861Y13571593D01*
X21566898Y13541253D01*
X21566898Y13541252D01*
X21595077Y13499079D01*
X21595078Y13499078D01*
X21624977Y13479100D01*
X21628101Y13476025D01*
X21812741Y13208947D01*
X21814627Y13200193D01*
X21811390Y13194021D01*
X21465979Y12848610D01*
X21457706Y12845183D01*
X21451053Y12847259D01*
X20801667Y13296200D01*
X20796810Y13303723D01*
X20798696Y13312477D01*
X20800023Y13314073D01*
X21072293Y13587707D01*
X21345924Y13859975D01*
X21354205Y13863380D01*
X21362470Y13859932D01*
G37*
%TD.AperFunction*%
%TA.AperFunction,Conductor*%
G36*
X19544224Y17653256D02*
G01*
X19551254Y17647710D01*
X19551869Y17646436D01*
X19648282Y17411409D01*
X19648251Y17402455D01*
X19642317Y17396326D01*
X19174512Y17182697D01*
X19165563Y17182378D01*
X19161379Y17185067D01*
X19082915Y17263531D01*
X19079488Y17271804D01*
X19080428Y17276396D01*
X19269960Y17720098D01*
X19276360Y17726358D01*
X19283895Y17726760D01*
X19544224Y17653256D01*
G37*
%TD.AperFunction*%
%TA.AperFunction,Conductor*%
G36*
X18783861Y16631573D02*
G01*
X18787284Y16623592D01*
X18805701Y15884963D01*
X18802482Y15876607D01*
X18794297Y15872975D01*
X18794034Y15872971D01*
X18408355Y15872006D01*
X18403824Y15872907D01*
X18047076Y16021642D01*
X18040758Y16027989D01*
X18040709Y16036771D01*
X18276064Y16627630D01*
X18282309Y16634047D01*
X18286933Y16635000D01*
X18775588Y16635000D01*
X18783861Y16631573D01*
G37*
%TD.AperFunction*%
%TA.AperFunction,Conductor*%
G36*
X19801515Y16288573D02*
G01*
X19804752Y16282401D01*
X19946487Y15505767D01*
X19944601Y15497013D01*
X19937078Y15492156D01*
X19935006Y15491966D01*
X19549000Y15491000D01*
X19162993Y15491966D01*
X19154728Y15495414D01*
X19151322Y15503695D01*
X19151512Y15505767D01*
X19293248Y16282401D01*
X19298105Y16289924D01*
X19304758Y16292000D01*
X19793242Y16292000D01*
X19801515Y16288573D01*
G37*
%TD.AperFunction*%
%TA.AperFunction,Conductor*%
G36*
X20819279Y16517311D02*
G01*
X20821906Y16513291D01*
X21057396Y15909725D01*
X21057210Y15900772D01*
X21050998Y15894673D01*
X20694175Y15745907D01*
X20689644Y15745006D01*
X20303960Y15745971D01*
X20295695Y15749419D01*
X20292289Y15757700D01*
X20292293Y15757958D01*
X20295796Y15900772D01*
X20310720Y16509326D01*
X20314348Y16517511D01*
X20322416Y16520738D01*
X20811006Y16520738D01*
X20819279Y16517311D01*
G37*
%TD.AperFunction*%
%TA.AperFunction,Conductor*%
G36*
X22224218Y15619027D02*
G01*
X22232483Y15615579D01*
X22235852Y15608252D01*
X22291198Y14910616D01*
X22288437Y14902098D01*
X22280460Y14898028D01*
X22279535Y14897991D01*
X21891597Y14897991D01*
X21883324Y14901418D01*
X21882288Y14902603D01*
X21558337Y15328040D01*
X21556053Y15336697D01*
X21559357Y15343383D01*
X21831559Y15616548D01*
X21839824Y15619988D01*
X22224218Y15619027D01*
G37*
%TD.AperFunction*%
%TA.AperFunction,Conductor*%
G36*
X22620921Y16395379D02*
G01*
X23801341Y16183238D01*
X23808876Y16178401D01*
X23810786Y16169652D01*
X23810589Y16168762D01*
X23658173Y15585900D01*
X23652765Y15578763D01*
X23651359Y15578062D01*
X22964318Y15291437D01*
X22955363Y15291414D01*
X22950522Y15295124D01*
X22333769Y16100954D01*
X22331462Y16109607D01*
X22334786Y16116337D01*
X22610585Y16392136D01*
X22618857Y16395562D01*
X22620921Y16395379D01*
G37*
%TD.AperFunction*%
%TA.AperFunction,Conductor*%
G36*
X22365508Y16710419D02*
G01*
X22368856Y16707611D01*
X22632424Y16385000D01*
X22652766Y16360102D01*
X22655346Y16351527D01*
X22651978Y16344427D01*
X22379626Y16072075D01*
X22371353Y16068648D01*
X22363888Y16071340D01*
X21992068Y16379512D01*
X21987886Y16387428D01*
X21988709Y16392956D01*
X22086131Y16630439D01*
X22092441Y16636790D01*
X22093763Y16637252D01*
X22356615Y16711469D01*
X22365508Y16710419D01*
G37*
%TD.AperFunction*%
%TA.AperFunction,Conductor*%
G36*
X17649846Y9897042D02*
G01*
X17653405Y9894617D01*
X17890676Y9658290D01*
X17894119Y9650023D01*
X17890709Y9641743D01*
X17890676Y9641710D01*
X17653405Y9405384D01*
X17645125Y9401974D01*
X17640893Y9402775D01*
X17405445Y9494694D01*
X17398985Y9500895D01*
X17398000Y9505593D01*
X17398000Y9794408D01*
X17401427Y9802681D01*
X17405443Y9805306D01*
X17640894Y9897226D01*
X17649846Y9897042D01*
G37*
%TD.AperFunction*%
%TA.AperFunction,Conductor*%
G36*
X2528926Y16541862D02*
G01*
X2535251Y16535523D01*
X2535577Y16534633D01*
X2987926Y15124955D01*
X2987191Y15116030D01*
X2985059Y15113107D01*
X2887393Y15015441D01*
X2879120Y15012014D01*
X2875545Y15012574D01*
X2866610Y15015441D01*
X2562249Y15113107D01*
X1465867Y15464923D01*
X1459037Y15470713D01*
X1458302Y15479638D01*
X1458620Y15480508D01*
X1766938Y16227216D01*
X1773260Y16233552D01*
X2519974Y16541872D01*
X2528926Y16541862D01*
G37*
%TD.AperFunction*%
%TA.AperFunction,Conductor*%
G36*
X4551984Y15920155D02*
G01*
X4558308Y15913817D01*
X4558298Y15904863D01*
X4557899Y15904002D01*
X3880965Y14587350D01*
X3874135Y14581560D01*
X3870560Y14581000D01*
X3732440Y14581000D01*
X3724167Y14584427D01*
X3722035Y14587350D01*
X3045100Y15904002D01*
X3044365Y15912927D01*
X3050155Y15919757D01*
X3050989Y15920144D01*
X3797011Y16230136D01*
X3805964Y16230145D01*
X4551984Y15920155D01*
G37*
%TD.AperFunction*%
%TA.AperFunction,Conductor*%
G36*
X19955916Y4180296D02*
G01*
X20302295Y3833917D01*
X20305722Y3825644D01*
X20304095Y3819692D01*
X19889097Y3117386D01*
X19881938Y3112007D01*
X19874567Y3112520D01*
X19425797Y3297437D01*
X19419453Y3303758D01*
X19234519Y3752570D01*
X19234536Y3761522D01*
X19239382Y3767096D01*
X19941691Y4182097D01*
X19950557Y4183354D01*
X19955916Y4180296D01*
G37*
%TD.AperFunction*%
%TA.AperFunction,Conductor*%
G36*
X22339996Y14957259D02*
G01*
X22344488Y14953933D01*
X22652660Y14582113D01*
X22655301Y14573557D01*
X22651925Y14566374D01*
X22379573Y14294022D01*
X22371300Y14290595D01*
X22363898Y14293234D01*
X22362933Y14294022D01*
X22181424Y14442313D01*
X22016389Y14577145D01*
X22012150Y14585033D01*
X22012531Y14589385D01*
X22086745Y14852226D01*
X22092290Y14859255D01*
X22093547Y14859863D01*
X22331043Y14957290D01*
X22339996Y14957259D01*
G37*
%TD.AperFunction*%
%TA.AperFunction,Conductor*%
G36*
X23395762Y13480218D02*
G01*
X23396080Y13479885D01*
X23848937Y12987411D01*
X23852015Y12979002D01*
X23848598Y12971219D01*
X23716042Y12838663D01*
X23708336Y12835250D01*
X23117245Y12806594D01*
X23108815Y12809616D01*
X23104992Y12817713D01*
X23104978Y12818259D01*
X23104708Y12971219D01*
X23104301Y13201834D01*
X23107711Y13210109D01*
X23379217Y13480261D01*
X23387497Y13483666D01*
X23395762Y13480218D01*
G37*
%TD.AperFunction*%
%TA.AperFunction,Conductor*%
G36*
X49210356Y15346411D02*
G01*
X50766039Y14656949D01*
X50772214Y14650464D01*
X50772730Y14648742D01*
X50962909Y13775727D01*
X50961322Y13766914D01*
X50953967Y13761805D01*
X50951477Y13761537D01*
X49953662Y13761537D01*
X49946992Y13763624D01*
X49929550Y13775727D01*
X48821921Y14544305D01*
X48817078Y14551836D01*
X48818052Y14558997D01*
X49195079Y15340796D01*
X49201759Y15346759D01*
X49210356Y15346411D01*
G37*
%TD.AperFunction*%
%TA.AperFunction,Conductor*%
G36*
X49193452Y15352434D02*
G01*
X49200273Y15346635D01*
X49201533Y15342088D01*
X49254150Y14562157D01*
X49251288Y14553671D01*
X49243265Y14549696D01*
X49242791Y14549673D01*
X46512903Y14476323D01*
X46504541Y14479527D01*
X46500893Y14487705D01*
X46500889Y14488019D01*
X46500889Y15484469D01*
X46504316Y15492742D01*
X46507742Y15495117D01*
X47434241Y15916517D01*
X47442675Y15917001D01*
X49193452Y15352434D01*
G37*
%TD.AperFunction*%
%TA.AperFunction,Conductor*%
G36*
X46987135Y15617773D02*
G01*
X47606595Y15493881D01*
X47614035Y15488898D01*
X47616000Y15482408D01*
X47616000Y14485592D01*
X47612573Y14477319D01*
X47606595Y14474119D01*
X46987135Y14350228D01*
X46978350Y14351966D01*
X46976573Y14353421D01*
X46353293Y14975720D01*
X46349860Y14983991D01*
X46353280Y14992267D01*
X46353293Y14992280D01*
X46976573Y15614580D01*
X46984849Y15618000D01*
X46987135Y15617773D01*
G37*
%TD.AperFunction*%
%TA.AperFunction,Conductor*%
G36*
X42849856Y17972144D02*
G01*
X43192503Y17629497D01*
X43195930Y17621224D01*
X43195930Y17621207D01*
X43195248Y17139634D01*
X43191809Y17131366D01*
X43183531Y17127951D01*
X43182425Y17128005D01*
X42110798Y17231303D01*
X42102892Y17235508D01*
X42100275Y17244072D01*
X42103647Y17251221D01*
X42445318Y17592891D01*
X42833406Y17972239D01*
X42841716Y17975570D01*
X42849856Y17972144D01*
G37*
%TD.AperFunction*%
%TA.AperFunction,Conductor*%
G36*
X30349918Y11064987D02*
G01*
X30352895Y11062637D01*
X30590652Y10802146D01*
X30593698Y10793727D01*
X30589897Y10785618D01*
X30589394Y10785185D01*
X30355397Y10594793D01*
X30346817Y10592229D01*
X30340613Y10594805D01*
X30102300Y10789390D01*
X30098059Y10797277D01*
X30098000Y10798453D01*
X30098000Y10987291D01*
X30101427Y10995564D01*
X30106465Y10998535D01*
X30341021Y11065993D01*
X30349918Y11064987D01*
G37*
%TD.AperFunction*%
%TA.AperFunction,Conductor*%
G36*
X33291066Y7775959D02*
G01*
X33427369Y7725238D01*
X33715856Y7617887D01*
X33722414Y7611790D01*
X33722927Y7603382D01*
X33648384Y7368577D01*
X33642614Y7361728D01*
X33641555Y7361245D01*
X33379194Y7256916D01*
X33370240Y7257043D01*
X33365611Y7260637D01*
X33110708Y7590830D01*
X33108366Y7599471D01*
X33111696Y7606250D01*
X33278714Y7773268D01*
X33286986Y7776694D01*
X33291066Y7775959D01*
G37*
%TD.AperFunction*%
%TA.AperFunction,Conductor*%
G36*
X34275904Y7632535D02*
G01*
X34280826Y7625055D01*
X34281035Y7622882D01*
X34281994Y7239356D01*
X34281093Y7234825D01*
X34133163Y6880008D01*
X34126816Y6873690D01*
X34117862Y6873711D01*
X34116294Y6874508D01*
X33524630Y7233584D01*
X33519335Y7240806D01*
X33519000Y7243586D01*
X33519000Y7481329D01*
X33522427Y7489602D01*
X33528497Y7492820D01*
X34267135Y7634344D01*
X34275904Y7632535D01*
G37*
%TD.AperFunction*%
%TA.AperFunction,Conductor*%
G36*
X29030536Y6825185D02*
G01*
X29761661Y6570512D01*
X29768345Y6564555D01*
X29768860Y6555615D01*
X29768629Y6555007D01*
X29585984Y6111746D01*
X29579663Y6105402D01*
X29575166Y6104503D01*
X29092296Y6104503D01*
X29084023Y6107930D01*
X29080691Y6114716D01*
X29015036Y6627029D01*
X29014988Y6627773D01*
X29014988Y6814135D01*
X29018415Y6822408D01*
X29026688Y6825835D01*
X29030536Y6825185D01*
G37*
%TD.AperFunction*%
%TA.AperFunction,Conductor*%
G36*
X30920339Y7973227D02*
G01*
X31247547Y7895335D01*
X31254801Y7890086D01*
X31256494Y7882954D01*
X31234231Y7623411D01*
X31230110Y7615461D01*
X31228374Y7614250D01*
X30990764Y7478638D01*
X30981880Y7477513D01*
X30976684Y7480533D01*
X30706720Y7750941D01*
X30703300Y7759217D01*
X30706726Y7767479D01*
X30909365Y7970118D01*
X30917637Y7973544D01*
X30920339Y7973227D01*
G37*
%TD.AperFunction*%
%TA.AperFunction,Conductor*%
G36*
X31576342Y8128211D02*
G01*
X31743094Y7961459D01*
X31746521Y7953186D01*
X31744831Y7947129D01*
X31488185Y7523016D01*
X31480970Y7517712D01*
X31473734Y7518248D01*
X31237563Y7615131D01*
X31231210Y7621442D01*
X31230746Y7622769D01*
X31156911Y7884269D01*
X31157961Y7893160D01*
X31162288Y7897560D01*
X31562189Y8130054D01*
X31571063Y8131248D01*
X31576342Y8128211D01*
G37*
%TD.AperFunction*%
%TA.AperFunction,Conductor*%
G36*
X41446074Y17802659D02*
G01*
X41453731Y17798019D01*
X41456000Y17791095D01*
X41456000Y17303180D01*
X41452573Y17294907D01*
X41446073Y17291615D01*
X41158452Y17247514D01*
X41153603Y17247791D01*
X40341568Y17469053D01*
X40096425Y17535850D01*
X40089345Y17541330D01*
X40088214Y17550213D01*
X40093695Y17557294D01*
X40096424Y17558425D01*
X41153603Y17846485D01*
X41158452Y17846761D01*
X41446074Y17802659D01*
G37*
%TD.AperFunction*%
%TA.AperFunction,Conductor*%
G36*
X28197819Y16480937D02*
G01*
X28434437Y16383869D01*
X28440789Y16377559D01*
X28441255Y16376224D01*
X28515217Y16114276D01*
X28514167Y16105383D01*
X28510353Y16101300D01*
X28127940Y15851653D01*
X28119139Y15850000D01*
X28113271Y15853177D01*
X27911275Y16055173D01*
X27907848Y16063446D01*
X27909842Y16069979D01*
X28183675Y16476648D01*
X28191137Y16481594D01*
X28197819Y16480937D01*
G37*
%TD.AperFunction*%
%TA.AperFunction,Conductor*%
G36*
X32182923Y12139576D02*
G01*
X32189060Y12133334D01*
X32374842Y11685786D01*
X32374849Y11676831D01*
X32374837Y11676803D01*
X32189008Y11230508D01*
X32182664Y11224187D01*
X32174072Y11224060D01*
X31286247Y11559491D01*
X31279719Y11565621D01*
X31279437Y11574571D01*
X31282107Y11578707D01*
X31626785Y11923385D01*
X31630768Y11925995D01*
X32173971Y12139735D01*
X32182923Y12139576D01*
G37*
%TD.AperFunction*%
%TA.AperFunction,Conductor*%
G36*
X30357297Y10926320D02*
G01*
X30593702Y10795922D01*
X30599291Y10788925D01*
X30599677Y10786988D01*
X30628848Y10528233D01*
X30626370Y10519628D01*
X30619999Y10515556D01*
X30132566Y10396438D01*
X30123716Y10397803D01*
X30118423Y10405027D01*
X30118089Y10407804D01*
X30118089Y10592475D01*
X30120138Y10599090D01*
X30341996Y10922692D01*
X30349501Y10927577D01*
X30357297Y10926320D01*
G37*
%TD.AperFunction*%
%TA.AperFunction,Conductor*%
G36*
X28923538Y16994936D02*
G01*
X28929855Y16988590D01*
X28929834Y16979636D01*
X28929295Y16978514D01*
X28545254Y16277913D01*
X28538272Y16272306D01*
X28529370Y16273277D01*
X28526721Y16275264D01*
X28324536Y16477449D01*
X28321449Y16482921D01*
X28198852Y16980176D01*
X28200199Y16989027D01*
X28205723Y16993780D01*
X28562211Y17141841D01*
X28571163Y17141849D01*
X28923538Y16994936D01*
G37*
%TD.AperFunction*%
%TA.AperFunction,Conductor*%
G36*
X31841079Y15603825D02*
G01*
X31845762Y15598353D01*
X31994123Y15242502D01*
X31994144Y15233548D01*
X31994123Y15233498D01*
X31845762Y14877648D01*
X31839415Y14871330D01*
X31832235Y14870772D01*
X31368972Y14981849D01*
X31361726Y14987111D01*
X31360000Y14993227D01*
X31360000Y15482774D01*
X31363427Y15491047D01*
X31368969Y15494151D01*
X31832237Y15605229D01*
X31841079Y15603825D01*
G37*
%TD.AperFunction*%
%TA.AperFunction,Conductor*%
G36*
X25165653Y17452512D02*
G01*
X25851277Y17183835D01*
X25857729Y17177626D01*
X25858276Y17176091D01*
X26020928Y16594127D01*
X26019855Y16585237D01*
X26012809Y16579710D01*
X26011066Y16579363D01*
X24833495Y16436844D01*
X24824870Y16439252D01*
X24823816Y16440186D01*
X24690313Y16573689D01*
X24686886Y16581962D01*
X24688282Y16587503D01*
X25151085Y17447166D01*
X25158023Y17452824D01*
X25165653Y17452512D01*
G37*
%TD.AperFunction*%
%TA.AperFunction,Conductor*%
G36*
X27144359Y17778059D02*
G01*
X27152614Y17774591D01*
X27156000Y17766359D01*
X27156000Y17275311D01*
X27152573Y17267038D01*
X27152002Y17266504D01*
X26562521Y16751016D01*
X26554037Y16748149D01*
X26548643Y16749886D01*
X26148676Y16998474D01*
X25868570Y17172566D01*
X25863353Y17179843D01*
X25864810Y17188678D01*
X25867135Y17191388D01*
X26552692Y17778169D01*
X26560353Y17780979D01*
X27144359Y17778059D01*
G37*
%TD.AperFunction*%
%TA.AperFunction,Conductor*%
G36*
X39738061Y7493173D02*
G01*
X39744920Y7487415D01*
X39744939Y7487379D01*
X40001270Y6990456D01*
X40002017Y6981532D01*
X39999289Y6976965D01*
X39406468Y6362949D01*
X39398256Y6359378D01*
X39389924Y6362659D01*
X39389778Y6362803D01*
X38865313Y6887268D01*
X38861886Y6895541D01*
X38863093Y6900716D01*
X39229558Y7643215D01*
X39236293Y7649116D01*
X39243568Y7649194D01*
X39738061Y7493173D01*
G37*
%TD.AperFunction*%
%TA.AperFunction,Conductor*%
G36*
X38913551Y6931474D02*
G01*
X39439679Y6405346D01*
X39443106Y6397073D01*
X39442727Y6394119D01*
X39236254Y5602845D01*
X39230849Y5595705D01*
X39225070Y5594100D01*
X38478353Y5585376D01*
X38470040Y5588706D01*
X38467929Y5591500D01*
X38461781Y5602845D01*
X38131121Y6213000D01*
X38130193Y6221905D01*
X38133473Y6227169D01*
X38897345Y6931802D01*
X38905750Y6934891D01*
X38913551Y6931474D01*
G37*
%TD.AperFunction*%
%TA.AperFunction,Conductor*%
G36*
X42284877Y10157803D02*
G01*
X42421474Y10100852D01*
X42639307Y10010032D01*
X42645625Y10003685D01*
X42645604Y9994731D01*
X42644957Y9993417D01*
X42245211Y9295673D01*
X42238125Y9290198D01*
X42229243Y9291337D01*
X42226786Y9293216D01*
X41881857Y9638145D01*
X41878430Y9646418D01*
X41878430Y9646500D01*
X41880861Y9994731D01*
X41881919Y10146404D01*
X41885404Y10154652D01*
X41893596Y10158021D01*
X42280355Y10158703D01*
X42284877Y10157803D01*
G37*
%TD.AperFunction*%
%TA.AperFunction,Conductor*%
G36*
X37716143Y6088689D02*
G01*
X38100037Y5833714D01*
X38468323Y5589106D01*
X38473319Y5581674D01*
X38473503Y5580410D01*
X38529071Y4963750D01*
X38526400Y4955203D01*
X38518468Y4951047D01*
X38517418Y4951000D01*
X37086700Y4951000D01*
X37078427Y4954427D01*
X37075000Y4962700D01*
X37075000Y5706365D01*
X37078427Y5714638D01*
X37080695Y5716406D01*
X37703670Y6088984D01*
X37712526Y6090289D01*
X37716143Y6088689D01*
G37*
%TD.AperFunction*%
%TA.AperFunction,Conductor*%
G36*
X39617877Y12044303D02*
G01*
X39973085Y11896208D01*
X39979402Y11889862D01*
X39979381Y11880908D01*
X39979091Y11880268D01*
X39644804Y11197110D01*
X39638090Y11191185D01*
X39629153Y11191743D01*
X39626022Y11193979D01*
X39281229Y11538772D01*
X39277894Y11545581D01*
X39216656Y12031362D01*
X39219021Y12039997D01*
X39226801Y12044432D01*
X39228232Y12044524D01*
X39613355Y12045203D01*
X39617877Y12044303D01*
G37*
%TD.AperFunction*%
%TA.AperFunction,Conductor*%
G36*
X40094075Y8619342D02*
G01*
X40094221Y8619198D01*
X40618686Y8094733D01*
X40622113Y8086460D01*
X40620905Y8081282D01*
X40254441Y7338787D01*
X40247706Y7332885D01*
X40240429Y7332807D01*
X39745938Y7488828D01*
X39739079Y7494586D01*
X39739060Y7494622D01*
X39717458Y7536499D01*
X39482728Y7991547D01*
X39481982Y8000469D01*
X39484707Y8005032D01*
X40077533Y8619054D01*
X40085743Y8622623D01*
X40094075Y8619342D01*
G37*
%TD.AperFunction*%
%TA.AperFunction,Conductor*%
G36*
X28618678Y5723124D02*
G01*
X29216780Y5452214D01*
X29222903Y5445679D01*
X29222773Y5437104D01*
X29075603Y5079473D01*
X29073035Y5075631D01*
X28800849Y4804801D01*
X28792568Y4801395D01*
X28784303Y4804843D01*
X28783127Y4806224D01*
X28329800Y5431014D01*
X28327715Y5439723D01*
X28330995Y5446156D01*
X28605579Y5720740D01*
X28613851Y5724166D01*
X28618678Y5723124D01*
G37*
%TD.AperFunction*%
%TA.AperFunction,Conductor*%
G36*
X28953118Y15070940D02*
G01*
X29093890Y15022496D01*
X29099810Y15017934D01*
X29109733Y15003084D01*
X29113078Y14998078D01*
X29155252Y14969898D01*
X29192442Y14962500D01*
X29192443Y14962500D01*
X29266277Y14962500D01*
X29270084Y14961863D01*
X29596337Y14849591D01*
X29603045Y14843659D01*
X29603593Y14834721D01*
X29603350Y14834076D01*
X29457563Y14479805D01*
X29451245Y14473458D01*
X29451195Y14473437D01*
X29094336Y14326585D01*
X29085382Y14326606D01*
X29080134Y14330938D01*
X28985617Y14473437D01*
X28746413Y14834076D01*
X28735972Y14849818D01*
X28734255Y14858607D01*
X28737447Y14864556D01*
X28941041Y15068150D01*
X28949313Y15071576D01*
X28953118Y15070940D01*
G37*
%TD.AperFunction*%
%TA.AperFunction,Conductor*%
G36*
X28689134Y15464905D02*
G01*
X28694325Y15460646D01*
X28968156Y15053981D01*
X28969934Y15045204D01*
X28966724Y15039173D01*
X28764728Y14837177D01*
X28756455Y14833750D01*
X28750060Y14835653D01*
X28438304Y15039173D01*
X28367646Y15085300D01*
X28362592Y15092692D01*
X28362781Y15098273D01*
X28436745Y15360226D01*
X28442290Y15367255D01*
X28443547Y15367863D01*
X28680180Y15464936D01*
X28689134Y15464905D01*
G37*
%TD.AperFunction*%
%TA.AperFunction,Conductor*%
G36*
X35298980Y11336585D02*
G01*
X36828685Y10764975D01*
X36835236Y10758869D01*
X36835667Y10750249D01*
X36569992Y9968802D01*
X36564085Y9962072D01*
X36557751Y9960926D01*
X35072635Y10109456D01*
X35064744Y10113689D01*
X35063946Y10114788D01*
X34292534Y11319315D01*
X34290958Y11328130D01*
X34296077Y11335478D01*
X34302387Y11337325D01*
X35294885Y11337325D01*
X35298980Y11336585D01*
G37*
%TD.AperFunction*%
%TA.AperFunction,Conductor*%
G36*
X29827384Y5283554D02*
G01*
X29834461Y5278069D01*
X29836000Y5272269D01*
X29836000Y4883732D01*
X29832573Y4875459D01*
X29827383Y4872446D01*
X29236996Y4711159D01*
X29228113Y4712284D01*
X29223114Y4717943D01*
X29158699Y4872446D01*
X29074875Y5073501D01*
X29074855Y5082450D01*
X29223115Y5438060D01*
X29229461Y5444376D01*
X29236993Y5444842D01*
X29827384Y5283554D01*
G37*
%TD.AperFunction*%
%TA.AperFunction,Conductor*%
G36*
X29588712Y5325022D02*
G01*
X29590359Y5323658D01*
X29828676Y5086290D01*
X29832119Y5078023D01*
X29828709Y5069743D01*
X29828676Y5069710D01*
X29590359Y4832343D01*
X29582079Y4828933D01*
X29579949Y4829133D01*
X29345547Y4873013D01*
X29338046Y4877903D01*
X29336000Y4884513D01*
X29336000Y5271488D01*
X29339427Y5279761D01*
X29345544Y5282987D01*
X29579950Y5326868D01*
X29588712Y5325022D01*
G37*
%TD.AperFunction*%
%TA.AperFunction,Conductor*%
G36*
X34443737Y11646259D02*
G01*
X34444299Y11645736D01*
X34788043Y11303365D01*
X34790603Y11299533D01*
X34975560Y10850665D01*
X34975543Y10841711D01*
X34969199Y10835390D01*
X34968429Y10835104D01*
X34166613Y10568826D01*
X34157682Y10569471D01*
X34154653Y10571657D01*
X33808273Y10918037D01*
X33804846Y10926310D01*
X33807724Y10933995D01*
X34427231Y11645123D01*
X34435248Y11649109D01*
X34443737Y11646259D01*
G37*
%TD.AperFunction*%
%TA.AperFunction,Conductor*%
G36*
X26816502Y4594223D02*
G01*
X27313952Y4225907D01*
X27318562Y4218230D01*
X27316393Y4209542D01*
X27315278Y4208245D01*
X27043659Y3935666D01*
X27039823Y3933105D01*
X26685571Y3787328D01*
X26676617Y3787349D01*
X26670299Y3793696D01*
X26669649Y3795841D01*
X26641860Y3934000D01*
X26511417Y4582514D01*
X26513145Y4591299D01*
X26520580Y4596290D01*
X26522887Y4596520D01*
X26809540Y4596520D01*
X26816502Y4594223D01*
G37*
%TD.AperFunction*%
%TA.AperFunction,Conductor*%
G36*
X36442810Y11557573D02*
G01*
X36443507Y11556812D01*
X37104261Y10767770D01*
X37106945Y10759227D01*
X37104976Y10753693D01*
X36573573Y9969698D01*
X36566094Y9964773D01*
X36557323Y9966578D01*
X36557310Y9966587D01*
X36552734Y9969698D01*
X35394071Y10757332D01*
X35389157Y10764815D01*
X35388961Y10767514D01*
X35423506Y11549817D01*
X35427295Y11557930D01*
X35435195Y11561000D01*
X36434537Y11561000D01*
X36442810Y11557573D01*
G37*
%TD.AperFunction*%
%TA.AperFunction,Conductor*%
G36*
X28197096Y15490888D02*
G01*
X28426353Y15372598D01*
X28434416Y15368437D01*
X28440197Y15361598D01*
X28440614Y15359822D01*
X28480748Y15099477D01*
X28478622Y15090778D01*
X28473205Y15086706D01*
X28126999Y14960027D01*
X28118052Y14960403D01*
X28114706Y14962742D01*
X27912237Y15165211D01*
X27908810Y15173484D01*
X27911741Y15181228D01*
X28182966Y15488236D01*
X28191010Y15492167D01*
X28197096Y15490888D01*
G37*
%TD.AperFunction*%
%TA.AperFunction,Conductor*%
G36*
X30885068Y7123470D02*
G01*
X31283409Y6978487D01*
X31290011Y6972438D01*
X31290846Y6965033D01*
X31234930Y6704982D01*
X31229840Y6697615D01*
X31228432Y6696836D01*
X30992400Y6586881D01*
X30983453Y6586494D01*
X30977523Y6591309D01*
X30911906Y6696836D01*
X30739283Y6974452D01*
X30737826Y6983284D01*
X30740945Y6988898D01*
X30872796Y7120749D01*
X30881068Y7124175D01*
X30885068Y7123470D01*
G37*
%TD.AperFunction*%
%TA.AperFunction,Conductor*%
G36*
X38275752Y8896982D02*
G01*
X38278343Y8895027D01*
X38982971Y8190399D01*
X38986398Y8182126D01*
X38982971Y8173853D01*
X38982323Y8173252D01*
X38070883Y7390162D01*
X38062374Y7387369D01*
X38061915Y7387413D01*
X36574557Y7559338D01*
X36566732Y7563693D01*
X36564481Y7568413D01*
X36390032Y8350235D01*
X36391575Y8359054D01*
X36398235Y8364031D01*
X38266856Y8898004D01*
X38275752Y8896982D01*
G37*
%TD.AperFunction*%
%TA.AperFunction,Conductor*%
G36*
X33603659Y16790047D02*
G01*
X34894259Y16579025D01*
X34901870Y16574308D01*
X34903917Y16565593D01*
X34858412Y16286879D01*
X34853697Y16279266D01*
X34846140Y16277086D01*
X33761232Y16344431D01*
X33753187Y16348364D01*
X33752758Y16348880D01*
X33496401Y16675089D01*
X33493983Y16683711D01*
X33497326Y16690590D01*
X33593509Y16786773D01*
X33601781Y16790199D01*
X33603659Y16790047D01*
G37*
%TD.AperFunction*%
%TA.AperFunction,Conductor*%
G36*
X28815746Y12967134D02*
G01*
X28819975Y12959240D01*
X28820032Y12958112D01*
X28820987Y12575876D01*
X28817581Y12567595D01*
X28817546Y12567559D01*
X28545828Y12296798D01*
X28537548Y12293386D01*
X28529281Y12296827D01*
X28528916Y12297211D01*
X28295213Y12553974D01*
X28292392Y12559564D01*
X28286090Y12591248D01*
X28257910Y12633422D01*
X28239346Y12645826D01*
X28215736Y12661602D01*
X28196941Y12665341D01*
X28190572Y12668941D01*
X28151845Y12711489D01*
X28120932Y12745453D01*
X28117885Y12753328D01*
X28117885Y12890606D01*
X28121312Y12898879D01*
X28128425Y12902248D01*
X28807177Y12969726D01*
X28815746Y12967134D01*
G37*
%TD.AperFunction*%
%TA.AperFunction,Conductor*%
G36*
X33174111Y15601227D02*
G01*
X33175725Y15600402D01*
X33722994Y15264562D01*
X33728253Y15257314D01*
X33728575Y15254590D01*
X33728575Y14766303D01*
X33725148Y14758030D01*
X33716875Y14754603D01*
X33715501Y14754684D01*
X33021300Y14836782D01*
X33013486Y14841157D01*
X33010974Y14848372D01*
X33010005Y15235650D01*
X33010904Y15240171D01*
X33158811Y15594932D01*
X33165157Y15601248D01*
X33174111Y15601227D01*
G37*
%TD.AperFunction*%
%TA.AperFunction,Conductor*%
G36*
X33758396Y15306484D02*
G01*
X34815573Y15018425D01*
X34822654Y15012944D01*
X34823785Y15004061D01*
X34818304Y14996980D01*
X34815573Y14995849D01*
X33758396Y14707791D01*
X33753547Y14707514D01*
X33465927Y14751615D01*
X33458269Y14756256D01*
X33456000Y14763180D01*
X33456000Y15251095D01*
X33459427Y15259368D01*
X33465924Y15262659D01*
X33753547Y15306761D01*
X33758396Y15306484D01*
G37*
%TD.AperFunction*%
%TA.AperFunction,Conductor*%
G36*
X32506253Y15854914D02*
G01*
X32785775Y15749804D01*
X33152779Y15611799D01*
X33159317Y15605680D01*
X33159612Y15596730D01*
X33159481Y15596396D01*
X33013563Y15241805D01*
X33007245Y15235458D01*
X33007195Y15235437D01*
X32652604Y15089519D01*
X32643650Y15089540D01*
X32637332Y15095887D01*
X32637201Y15096221D01*
X32584843Y15235458D01*
X32394087Y15742747D01*
X32394382Y15751696D01*
X32396762Y15755134D01*
X32493864Y15852236D01*
X32502136Y15855662D01*
X32506253Y15854914D01*
G37*
%TD.AperFunction*%
%TA.AperFunction,Conductor*%
G36*
X30799760Y12584573D02*
G01*
X30802987Y12578453D01*
X30846931Y12343707D01*
X30845085Y12334944D01*
X30844103Y12333699D01*
X30606672Y12071574D01*
X30598578Y12067743D01*
X30590145Y12070757D01*
X30589328Y12071574D01*
X30351896Y12333699D01*
X30348882Y12342132D01*
X30349068Y12343707D01*
X30393013Y12578453D01*
X30397903Y12585954D01*
X30404513Y12588000D01*
X30791487Y12588000D01*
X30799760Y12584573D01*
G37*
%TD.AperFunction*%
%TA.AperFunction,Conductor*%
G36*
X30605855Y13071244D02*
G01*
X30606663Y13070436D01*
X30785956Y12872496D01*
X30844103Y12808302D01*
X30847117Y12799869D01*
X30846931Y12798294D01*
X30802987Y12563547D01*
X30798097Y12556046D01*
X30791487Y12554000D01*
X30404513Y12554000D01*
X30396240Y12557427D01*
X30393013Y12563547D01*
X30349068Y12798294D01*
X30350914Y12807057D01*
X30351891Y12808296D01*
X30589329Y13070428D01*
X30597422Y13074258D01*
X30605855Y13071244D01*
G37*
%TD.AperFunction*%
%TA.AperFunction,Conductor*%
G36*
X33377495Y8624094D02*
G01*
X33635987Y8389041D01*
X33639803Y8380940D01*
X33636772Y8372514D01*
X33634920Y8370867D01*
X33378812Y8187782D01*
X33370089Y8185758D01*
X33363999Y8188771D01*
X33118097Y8419677D01*
X33114412Y8427838D01*
X33117577Y8436215D01*
X33117801Y8436446D01*
X33216083Y8534729D01*
X33218235Y8536425D01*
X33363515Y8625416D01*
X33372357Y8626814D01*
X33377495Y8624094D01*
G37*
%TD.AperFunction*%
%TA.AperFunction,Conductor*%
G36*
X46920542Y11532664D02*
G01*
X47243817Y11303158D01*
X47248578Y11295576D01*
X47247183Y11287782D01*
X47111061Y11051319D01*
X47103964Y11045859D01*
X47101882Y11045496D01*
X46843568Y11024205D01*
X46835041Y11026940D01*
X46831097Y11033765D01*
X46784762Y11287782D01*
X46742217Y11521024D01*
X46744104Y11529777D01*
X46751627Y11534633D01*
X46753727Y11534823D01*
X46913770Y11534823D01*
X46920542Y11532664D01*
G37*
%TD.AperFunction*%
%TA.AperFunction,Conductor*%
G36*
X47663286Y12524833D02*
G01*
X48265564Y12101871D01*
X48268477Y12099825D01*
X48273278Y12092266D01*
X48271328Y12083526D01*
X48270047Y12081998D01*
X48001146Y11811750D01*
X47992881Y11808302D01*
X47992831Y11808302D01*
X47607431Y11808982D01*
X47599164Y11812423D01*
X47595826Y11819365D01*
X47591611Y11856569D01*
X47530153Y12399157D01*
X47532627Y12407761D01*
X47533497Y12408736D01*
X47648292Y12523531D01*
X47656564Y12526957D01*
X47663286Y12524833D01*
G37*
%TD.AperFunction*%
%TA.AperFunction,Conductor*%
G36*
X47103006Y10032912D02*
G01*
X47110392Y10027849D01*
X47111180Y10026432D01*
X47221752Y9790635D01*
X47222162Y9781690D01*
X47217106Y9775592D01*
X46828094Y9545971D01*
X46819228Y9544717D01*
X46813874Y9547774D01*
X46699644Y9662004D01*
X46696217Y9670277D01*
X46696798Y9673917D01*
X46829734Y10079991D01*
X46835563Y10086786D01*
X46843270Y10087796D01*
X47103006Y10032912D01*
G37*
%TD.AperFunction*%
%TA.AperFunction,Conductor*%
G36*
X48099734Y13497282D02*
G01*
X48102295Y13493446D01*
X48247904Y13139607D01*
X48247883Y13130653D01*
X48243261Y13125219D01*
X47718997Y12799292D01*
X47710162Y12797834D01*
X47704547Y12800955D01*
X47589792Y12915710D01*
X47586365Y12923983D01*
X47586582Y12926225D01*
X47696757Y13490561D01*
X47701704Y13498022D01*
X47708217Y13500017D01*
X48091456Y13500694D01*
X48099734Y13497282D01*
G37*
%TD.AperFunction*%
%TA.AperFunction,Conductor*%
G36*
X46581546Y11531396D02*
G01*
X46584973Y11523123D01*
X46584783Y11521023D01*
X46495902Y11033765D01*
X46491046Y11026242D01*
X46483431Y11024205D01*
X46225117Y11045496D01*
X46217153Y11049590D01*
X46215938Y11051319D01*
X46079816Y11287782D01*
X46078659Y11296662D01*
X46083180Y11303156D01*
X46406457Y11532664D01*
X46413230Y11534823D01*
X46573273Y11534823D01*
X46581546Y11531396D01*
G37*
%TD.AperFunction*%
%TA.AperFunction,Conductor*%
G36*
X46483045Y10024374D02*
G01*
X46491215Y10020710D01*
X46494398Y10013104D01*
X46509056Y9609886D01*
X46508920Y9607632D01*
X46505536Y9586261D01*
X46510201Y9568857D01*
X46510600Y9565828D01*
X46510600Y9565398D01*
X46507173Y9557125D01*
X46498900Y9553698D01*
X46337460Y9553698D01*
X46330075Y9556323D01*
X46241837Y9628135D01*
X46062204Y9774331D01*
X46057951Y9782210D01*
X46059812Y9789829D01*
X46215414Y10026545D01*
X46222821Y10031575D01*
X46225523Y10031812D01*
X46483045Y10024374D01*
G37*
%TD.AperFunction*%
%TA.AperFunction,Conductor*%
G36*
X41272768Y6217768D02*
G01*
X41276057Y6216197D01*
X41465584Y6125680D01*
X41468815Y6123395D01*
X42173140Y5419070D01*
X42176567Y5410797D01*
X42173140Y5402524D01*
X42169111Y5399894D01*
X41271847Y5050628D01*
X41262894Y5050820D01*
X41260868Y5051964D01*
X40515771Y5576509D01*
X40510979Y5584074D01*
X40512939Y5592811D01*
X40515011Y5595061D01*
X41260237Y6216198D01*
X41268786Y6218861D01*
X41272768Y6217768D01*
G37*
%TD.AperFunction*%
%TA.AperFunction,Conductor*%
G36*
X33921552Y9544900D02*
G01*
X34274748Y9398996D01*
X34281085Y9392671D01*
X34281980Y9388154D01*
X34281024Y9005817D01*
X34277576Y8997552D01*
X34271328Y8994319D01*
X33673561Y8890383D01*
X33664823Y8892342D01*
X33660030Y8899906D01*
X33659857Y8901910D01*
X33659857Y9037666D01*
X33661070Y9042853D01*
X33834091Y9392671D01*
X33906600Y9539273D01*
X33913339Y9545168D01*
X33921552Y9544900D01*
G37*
%TD.AperFunction*%
%TA.AperFunction,Conductor*%
G36*
X29721699Y17668856D02*
G01*
X30473089Y17601160D01*
X30481020Y17597004D01*
X30483738Y17589507D01*
X30483738Y17201217D01*
X30480311Y17192944D01*
X30477031Y17190636D01*
X29873151Y16905676D01*
X29864207Y16905244D01*
X29857577Y16911264D01*
X29857359Y16911755D01*
X29741088Y17190636D01*
X29708905Y17267829D01*
X29708005Y17272352D01*
X29708968Y17657232D01*
X29712416Y17665496D01*
X29720697Y17668902D01*
X29721699Y17668856D01*
G37*
%TD.AperFunction*%
%TA.AperFunction,Conductor*%
G36*
X30604712Y17644022D02*
G01*
X30606359Y17642658D01*
X30844676Y17405290D01*
X30848119Y17397023D01*
X30844709Y17388743D01*
X30844676Y17388710D01*
X30606359Y17151343D01*
X30598079Y17147933D01*
X30595949Y17148133D01*
X30361547Y17192013D01*
X30354046Y17196903D01*
X30352000Y17203513D01*
X30352000Y17590488D01*
X30355427Y17598761D01*
X30361544Y17601987D01*
X30595950Y17645868D01*
X30604712Y17644022D01*
G37*
%TD.AperFunction*%
%TA.AperFunction,Conductor*%
G36*
X32101469Y10305304D02*
G01*
X32103047Y10303987D01*
X32373546Y10034442D01*
X32376987Y10026175D01*
X32376987Y10026125D01*
X32376028Y9642449D01*
X32372580Y9634184D01*
X32364553Y9630780D01*
X31727307Y9618530D01*
X31718969Y9621797D01*
X31715384Y9630003D01*
X31715382Y9630228D01*
X31715382Y9767032D01*
X31717476Y9773712D01*
X32085184Y10302382D01*
X32092720Y10307215D01*
X32101469Y10305304D01*
G37*
%TD.AperFunction*%
%TA.AperFunction,Conductor*%
G36*
X43717735Y8876573D02*
G01*
X43720173Y8873009D01*
X43729389Y8852045D01*
X43730122Y8849768D01*
X43732569Y8838256D01*
X43732568Y8838256D01*
X43739127Y8829227D01*
X43740372Y8827059D01*
X43823620Y8637688D01*
X43823812Y8628736D01*
X43820796Y8624338D01*
X43560923Y8387146D01*
X43552503Y8384100D01*
X43544394Y8387901D01*
X43544145Y8388183D01*
X43343624Y8622608D01*
X43340850Y8631122D01*
X43343414Y8637566D01*
X43535788Y8875653D01*
X43543653Y8879935D01*
X43544889Y8880000D01*
X43709462Y8880000D01*
X43717735Y8876573D01*
G37*
%TD.AperFunction*%
%TA.AperFunction,Conductor*%
G36*
X44462231Y10561047D02*
G01*
X44818195Y10414564D01*
X44824542Y10408246D01*
X44824563Y10408196D01*
X44969963Y10054864D01*
X44969942Y10045910D01*
X44963595Y10039592D01*
X44962074Y10039085D01*
X44274782Y9861260D01*
X44265914Y9862505D01*
X44263578Y9864314D01*
X44148719Y9979173D01*
X44145292Y9987446D01*
X44146671Y9992957D01*
X44447461Y10555744D01*
X44454382Y10561423D01*
X44462231Y10561047D01*
G37*
%TD.AperFunction*%
%TA.AperFunction,Conductor*%
G36*
X43559934Y7356402D02*
G01*
X43559966Y7356368D01*
X43777141Y7121036D01*
X43780234Y7112632D01*
X43778023Y7106244D01*
X43606303Y6868843D01*
X43598678Y6864148D01*
X43596823Y6864000D01*
X43431790Y6864000D01*
X43423517Y6867427D01*
X43421631Y6869897D01*
X43286788Y7105950D01*
X43285661Y7114831D01*
X43288977Y7120315D01*
X43543399Y7357000D01*
X43551790Y7360125D01*
X43559934Y7356402D01*
G37*
%TD.AperFunction*%
%TA.AperFunction,Conductor*%
G36*
X44161091Y8865031D02*
G01*
X44357671Y8748997D01*
X44550106Y8635409D01*
X44555489Y8628252D01*
X44554752Y8620366D01*
X44444180Y8384569D01*
X44437565Y8378533D01*
X44436006Y8378089D01*
X44176271Y8323206D01*
X44167468Y8324848D01*
X44162733Y8331013D01*
X44147176Y8378533D01*
X44029798Y8737084D01*
X44030480Y8746013D01*
X44032641Y8748994D01*
X44146875Y8863228D01*
X44155147Y8866654D01*
X44161091Y8865031D01*
G37*
%TD.AperFunction*%
%TA.AperFunction,Conductor*%
G36*
X44673367Y9754562D02*
G01*
X44674160Y9753000D01*
X44820833Y9401201D01*
X44820854Y9392247D01*
X44820839Y9392211D01*
X44673290Y9036955D01*
X44666952Y9030629D01*
X44658301Y9030517D01*
X44128076Y9233537D01*
X44123987Y9236190D01*
X44010574Y9349603D01*
X44007147Y9357876D01*
X44010574Y9366149D01*
X44012777Y9367878D01*
X44657298Y9758505D01*
X44666148Y9759861D01*
X44673367Y9754562D01*
G37*
%TD.AperFunction*%
%TA.AperFunction,Conductor*%
G36*
X44436006Y7365912D02*
G01*
X44443392Y7360849D01*
X44444180Y7359432D01*
X44554752Y7123635D01*
X44555162Y7114690D01*
X44550106Y7108592D01*
X44161094Y6878971D01*
X44152228Y6877717D01*
X44146874Y6880774D01*
X44032644Y6995004D01*
X44029217Y7003277D01*
X44029798Y7006917D01*
X44162734Y7412991D01*
X44168563Y7419786D01*
X44176270Y7420796D01*
X44436006Y7365912D01*
G37*
%TD.AperFunction*%
%TA.AperFunction,Conductor*%
G36*
X48308145Y7515590D02*
G01*
X48417871Y7469842D01*
X48424189Y7463495D01*
X48424168Y7454541D01*
X48423733Y7453614D01*
X48076820Y6791410D01*
X48069945Y6785671D01*
X48061027Y6786475D01*
X48058183Y6788566D01*
X47945227Y6901522D01*
X47942833Y6904989D01*
X47695505Y7453941D01*
X47695232Y7462889D01*
X47701367Y7469412D01*
X47701642Y7469532D01*
X48056319Y7616841D01*
X48065271Y7616849D01*
X48308145Y7515590D01*
G37*
%TD.AperFunction*%
%TA.AperFunction,Conductor*%
G36*
X47560599Y6178187D02*
G01*
X48110952Y6007172D01*
X48264857Y5959348D01*
X48271740Y5953621D01*
X48272558Y5944703D01*
X48272205Y5943723D01*
X48126853Y5590504D01*
X48120535Y5584157D01*
X48120500Y5584142D01*
X47765720Y5437584D01*
X47756765Y5437593D01*
X47750439Y5443931D01*
X47750263Y5444383D01*
X47546141Y6003157D01*
X47545431Y6007172D01*
X47545431Y6167013D01*
X47548858Y6175286D01*
X47557131Y6178713D01*
X47560599Y6178187D01*
G37*
%TD.AperFunction*%
%TA.AperFunction,Conductor*%
G36*
X29554486Y13571433D02*
G01*
X29560150Y13565422D01*
X29708123Y13210502D01*
X29708144Y13201548D01*
X29708123Y13201498D01*
X29561078Y12848804D01*
X29554731Y12842486D01*
X29545777Y12842507D01*
X29544372Y12843207D01*
X28929950Y13202612D01*
X28924539Y13209747D01*
X28924157Y13212711D01*
X28924157Y13350050D01*
X28927584Y13358323D01*
X28932051Y13361114D01*
X29545549Y13571985D01*
X29554486Y13571433D01*
G37*
%TD.AperFunction*%
%TA.AperFunction,Conductor*%
G36*
X35958658Y17634560D02*
G01*
X36160586Y17547844D01*
X36331870Y17474288D01*
X36338119Y17467874D01*
X36338004Y17458920D01*
X36335526Y17455264D01*
X35992546Y17112284D01*
X35984273Y17108857D01*
X35982881Y17108940D01*
X34840680Y17245792D01*
X34832873Y17250179D01*
X34830415Y17258409D01*
X34854444Y17537974D01*
X34858567Y17545921D01*
X34865168Y17548633D01*
X35953114Y17635471D01*
X35958658Y17634560D01*
G37*
%TD.AperFunction*%
%TA.AperFunction,Conductor*%
G36*
X33251349Y16529461D02*
G01*
X33257667Y16523114D01*
X33257798Y16522780D01*
X33500912Y15876255D01*
X33500617Y15867305D01*
X33498234Y15863864D01*
X33401136Y15766766D01*
X33392863Y15763339D01*
X33388745Y15764088D01*
X32742220Y16007202D01*
X32735682Y16013321D01*
X32735387Y16022271D01*
X32735518Y16022605D01*
X32881437Y16377198D01*
X32887753Y16383543D01*
X33242395Y16529482D01*
X33251349Y16529461D01*
G37*
%TD.AperFunction*%
%TA.AperFunction,Conductor*%
G36*
X33762101Y14035471D02*
G01*
X34812707Y13748451D01*
X34819785Y13742965D01*
X34820910Y13734082D01*
X34815424Y13727004D01*
X34812354Y13725788D01*
X33761400Y13473603D01*
X33752556Y13475005D01*
X33751589Y13475667D01*
X33431221Y13719692D01*
X33426717Y13727431D01*
X33429004Y13736089D01*
X33430031Y13737265D01*
X33528234Y13835468D01*
X33528448Y13835669D01*
X33751264Y14032945D01*
X33759729Y14035862D01*
X33762101Y14035471D01*
G37*
%TD.AperFunction*%
%TA.AperFunction,Conductor*%
G36*
X30355738Y14297721D02*
G01*
X30589302Y14103527D01*
X30593473Y14095602D01*
X30590819Y14087050D01*
X30590478Y14086659D01*
X30355609Y13828369D01*
X30347508Y13824553D01*
X30339379Y13827323D01*
X30271739Y13884774D01*
X30186910Y13956825D01*
X30186570Y13957139D01*
X30087741Y14055968D01*
X30084314Y14064241D01*
X30087741Y14072514D01*
X30088208Y14072956D01*
X30340482Y14297465D01*
X30348938Y14300404D01*
X30355738Y14297721D01*
G37*
%TD.AperFunction*%
%TA.AperFunction,Conductor*%
G36*
X28729829Y14245426D02*
G01*
X29130671Y13973543D01*
X29208606Y13920681D01*
X29213529Y13913201D01*
X29213738Y13910998D01*
X29213738Y13773781D01*
X29210311Y13765508D01*
X29205062Y13762479D01*
X28601958Y13601094D01*
X28593081Y13602265D01*
X28588135Y13607894D01*
X28461765Y13910998D01*
X28441020Y13960754D01*
X28441000Y13969707D01*
X28443557Y13973539D01*
X28715006Y14244031D01*
X28723285Y14247442D01*
X28729829Y14245426D01*
G37*
%TD.AperFunction*%
%TA.AperFunction,Conductor*%
G36*
X28290416Y14326718D02*
G01*
X28290736Y14326016D01*
X28437833Y13973201D01*
X28437854Y13964247D01*
X28437839Y13964211D01*
X28290725Y13610003D01*
X28284387Y13603677D01*
X28275432Y13603686D01*
X28274719Y13604011D01*
X27705728Y13886397D01*
X27702656Y13888604D01*
X27607759Y13983501D01*
X27604332Y13991774D01*
X27607759Y14000047D01*
X27610823Y14002250D01*
X28274734Y14331994D01*
X28283666Y14332604D01*
X28290416Y14326718D01*
G37*
%TD.AperFunction*%
%TA.AperFunction,Conductor*%
G36*
X30592751Y15295107D02*
G01*
X30597605Y15289198D01*
X30795359Y14755421D01*
X30795020Y14746472D01*
X30788453Y14740385D01*
X30784388Y14739656D01*
X30400191Y14739656D01*
X30391918Y14743083D01*
X30391297Y14743754D01*
X30381325Y14755421D01*
X30208981Y14957065D01*
X30206211Y14965581D01*
X30207442Y14969963D01*
X30341553Y15234181D01*
X30348352Y15240005D01*
X30349245Y15240258D01*
X30583908Y15296511D01*
X30592751Y15295107D01*
G37*
%TD.AperFunction*%
%TA.AperFunction,Conductor*%
G36*
X30610803Y14655934D02*
G01*
X30614953Y14647999D01*
X30615000Y14646956D01*
X30615000Y14526800D01*
X30836595Y14377675D01*
X30836744Y14377575D01*
X30841695Y14370113D01*
X30839919Y14361336D01*
X30838854Y14359981D01*
X30605830Y14104675D01*
X30597721Y14100874D01*
X30589301Y14103920D01*
X30588379Y14104861D01*
X30363169Y14362471D01*
X30360304Y14370955D01*
X30362998Y14377672D01*
X30594323Y14654460D01*
X30602257Y14658609D01*
X30610803Y14655934D01*
G37*
%TD.AperFunction*%
M02*
