%TF.GenerationSoftware,KiCad,Pcbnew,7.0.9-7.0.9~ubuntu22.04.1*%
%TF.CreationDate,2024-01-19T15:32:02+02:00*%
%TF.ProjectId,USB-GIGABIT_Rev_D,5553422d-4749-4474-9142-49545f526576,rev?*%
%TF.SameCoordinates,PX3473bc0PY4bd12e0*%
%TF.FileFunction,Copper,L2,Inr*%
%TF.FilePolarity,Positive*%
%FSLAX46Y46*%
G04 Gerber Fmt 4.6, Leading zero omitted, Abs format (unit mm)*
G04 Created by KiCad (PCBNEW 7.0.9-7.0.9~ubuntu22.04.1) date 2024-01-19 15:32:02*
%MOMM*%
%LPD*%
G01*
G04 APERTURE LIST*
%TA.AperFunction,ComponentPad*%
%ADD10O,4.000000X1.600000*%
%TD*%
%TA.AperFunction,ComponentPad*%
%ADD11C,1.650000*%
%TD*%
%TA.AperFunction,ComponentPad*%
%ADD12O,2.800000X2.000000*%
%TD*%
%TA.AperFunction,ComponentPad*%
%ADD13C,1.300000*%
%TD*%
%TA.AperFunction,ComponentPad*%
%ADD14C,1.800000*%
%TD*%
%TA.AperFunction,ViaPad*%
%ADD15C,1.000000*%
%TD*%
%TA.AperFunction,ViaPad*%
%ADD16C,0.800000*%
%TD*%
%TA.AperFunction,Conductor*%
%ADD17C,0.152400*%
%TD*%
%TA.AperFunction,Conductor*%
%ADD18C,1.016000*%
%TD*%
G04 APERTURE END LIST*
D10*
X49200000Y3650000D03*
X49200000Y15350000D03*
D11*
X12691500Y15215000D03*
X15231500Y13945000D03*
X12691500Y12675000D03*
X15231500Y11405000D03*
X12691500Y10135000D03*
X15231500Y8865000D03*
X12691500Y7595000D03*
X15231500Y6325000D03*
X12691500Y5055000D03*
X15231500Y3785000D03*
X3801500Y16231000D03*
X1769500Y16231000D03*
X3801500Y2769000D03*
X1769500Y2769000D03*
D12*
X9541500Y17400000D03*
X9541500Y1600000D03*
D13*
X27465988Y10694500D03*
X24265988Y10694500D03*
D14*
X25865988Y9094500D03*
D13*
X27465988Y7494500D03*
X24265988Y7494500D03*
D15*
X50000000Y17500000D03*
X21200000Y2157000D03*
D16*
X17212200Y17651000D03*
D15*
X3801000Y10666000D03*
X1388000Y7618000D03*
X1388000Y10666000D03*
X1388000Y13968000D03*
X6595000Y7872000D03*
X9389000Y10920000D03*
X9389000Y7872000D03*
X8881000Y4189000D03*
D16*
X18406000Y15873000D03*
X22724000Y18159000D03*
X24883000Y3554000D03*
D15*
X40758000Y10539000D03*
X43044000Y14984000D03*
X42155000Y8507000D03*
X43679000Y16381000D03*
X37710000Y17270000D03*
D16*
X25899000Y14476000D03*
X17898000Y13460000D03*
D15*
X40758000Y12825000D03*
X38218000Y13460000D03*
X46854000Y1141000D03*
X44949000Y13206000D03*
X19295000Y1014000D03*
D16*
X21327000Y17778000D03*
X24883000Y4443000D03*
X18533000Y5713000D03*
X20311000Y14603000D03*
X19694500Y9142000D03*
D15*
X48759000Y8761000D03*
D16*
X33265000Y6475000D03*
D15*
X33392000Y12571000D03*
D16*
X31614000Y5078000D03*
X30217000Y16254000D03*
D15*
X22978000Y1014000D03*
X48759000Y10031000D03*
D16*
X34281000Y7237000D03*
X28566000Y17143000D03*
D15*
X29582000Y6104503D03*
X19422000Y3300000D03*
D16*
X21073000Y13587000D03*
D15*
X43195230Y17626770D03*
X32376000Y11682000D03*
D16*
X31995000Y15238000D03*
X39615000Y12044500D03*
X42282000Y10158000D03*
X27042000Y3935000D03*
X29455000Y14476000D03*
D15*
X34789000Y11301000D03*
D16*
X29074000Y5078000D03*
X17898000Y12444000D03*
X18533000Y6729000D03*
D15*
X34789000Y12444000D03*
D16*
X22033476Y4879524D03*
X21835000Y15619000D03*
X33011000Y15238000D03*
X28820000Y12571000D03*
X20692000Y15746000D03*
X23105000Y13206000D03*
X47997000Y11809000D03*
X48098600Y13500000D03*
D15*
X41901000Y5332000D03*
X42282000Y6348000D03*
D16*
X34281000Y9396000D03*
X29709000Y17270000D03*
X32376000Y10031000D03*
X44822000Y10412000D03*
X44822000Y9396000D03*
X48060108Y7618000D03*
X48124000Y5586000D03*
X32884000Y16381000D03*
X29709000Y13206000D03*
X28439000Y13968000D03*
X19549000Y15492000D03*
D17*
X3801500Y3808000D02*
X3801500Y4570500D01*
X3801500Y4570500D02*
X5325000Y6094000D01*
X5325000Y6094000D02*
X9262000Y6094000D01*
X9262000Y6094000D02*
X13580000Y1776000D01*
X13580000Y1776000D02*
X17898000Y1776000D01*
X17898000Y1776000D02*
X19422000Y3300000D01*
D18*
X3801500Y2769000D02*
X3801500Y3808000D01*
%TA.AperFunction,Conductor*%
G36*
X43082825Y18598498D02*
G01*
X43129318Y18544842D01*
X43139422Y18474568D01*
X43109928Y18409988D01*
X43050202Y18371604D01*
X43028820Y18367294D01*
X43026276Y18367007D01*
X43026273Y18367007D01*
X43026273Y18367006D01*
X42865792Y18310852D01*
X42865790Y18310851D01*
X42721830Y18220395D01*
X42721827Y18220393D01*
X42601607Y18100173D01*
X42601605Y18100170D01*
X42511149Y17956210D01*
X42511148Y17956208D01*
X42486743Y17886461D01*
X42454993Y17795724D01*
X42435956Y17626770D01*
X42454993Y17457816D01*
X42469789Y17415531D01*
X42511148Y17297333D01*
X42511149Y17297331D01*
X42601605Y17153371D01*
X42601607Y17153368D01*
X42721827Y17033148D01*
X42721830Y17033146D01*
X42865793Y16942688D01*
X43026276Y16886533D01*
X43195230Y16867496D01*
X43364184Y16886533D01*
X43524667Y16942688D01*
X43668630Y17033146D01*
X43788854Y17153370D01*
X43879312Y17297333D01*
X43935467Y17457816D01*
X43954504Y17626770D01*
X43935467Y17795724D01*
X43879312Y17956207D01*
X43788854Y18100170D01*
X43788852Y18100173D01*
X43668632Y18220393D01*
X43668629Y18220395D01*
X43524669Y18310851D01*
X43524667Y18310852D01*
X43364184Y18367007D01*
X43361645Y18367294D01*
X43360119Y18367935D01*
X43357286Y18368581D01*
X43357399Y18369078D01*
X43296195Y18394796D01*
X43256002Y18453320D01*
X43253831Y18524284D01*
X43290369Y18585156D01*
X43354018Y18616611D01*
X43375756Y18618500D01*
X53992500Y18618500D01*
X54060621Y18598498D01*
X54107114Y18544842D01*
X54118500Y18492500D01*
X54118500Y16507500D01*
X54098498Y16439379D01*
X54044842Y16392886D01*
X53992500Y16381500D01*
X51518390Y16381500D01*
X51513185Y16381715D01*
X51494057Y16383300D01*
X51468060Y16385454D01*
X51468059Y16385454D01*
X51424155Y16374337D01*
X51419065Y16373270D01*
X51402772Y16370551D01*
X51374417Y16365819D01*
X51374407Y16365816D01*
X51374043Y16365618D01*
X51345044Y16354303D01*
X51344636Y16354200D01*
X51306726Y16329434D01*
X51302254Y16326769D01*
X51262438Y16305221D01*
X51262433Y16305217D01*
X51262152Y16304911D01*
X51238398Y16284793D01*
X51238051Y16284567D01*
X51238044Y16284561D01*
X51210232Y16248828D01*
X51206867Y16244856D01*
X51186340Y16222556D01*
X51125488Y16185984D01*
X51054523Y16188117D01*
X51013707Y16210491D01*
X50988683Y16231027D01*
X50988681Y16231028D01*
X50988680Y16231029D01*
X50805492Y16328945D01*
X50684596Y16365618D01*
X50606718Y16389242D01*
X50606717Y16389243D01*
X50606711Y16389244D01*
X50451807Y16404500D01*
X50451801Y16404500D01*
X47948199Y16404500D01*
X47948192Y16404500D01*
X47793288Y16389244D01*
X47594507Y16328945D01*
X47411313Y16231026D01*
X47411313Y16231025D01*
X47250747Y16099253D01*
X47118975Y15938687D01*
X47118974Y15938687D01*
X47021055Y15755493D01*
X46960756Y15556712D01*
X46940398Y15350004D01*
X46940398Y15349997D01*
X46960756Y15143289D01*
X46960757Y15143283D01*
X46960758Y15143282D01*
X46976466Y15091500D01*
X47021055Y14944508D01*
X47118974Y14761314D01*
X47250747Y14600748D01*
X47411313Y14468976D01*
X47411313Y14468975D01*
X47453216Y14446578D01*
X47594508Y14371055D01*
X47778983Y14315096D01*
X47838363Y14276182D01*
X47867278Y14211341D01*
X47856548Y14141160D01*
X47809579Y14087921D01*
X47800962Y14082955D01*
X47724071Y14042600D01*
X47724069Y14042598D01*
X47605101Y13937200D01*
X47514815Y13806399D01*
X47514812Y13806393D01*
X47458449Y13657780D01*
X47439293Y13500004D01*
X47439293Y13499997D01*
X47458449Y13342221D01*
X47514812Y13193608D01*
X47514815Y13193602D01*
X47521279Y13184237D01*
X47605102Y13062799D01*
X47724071Y12957401D01*
X47724072Y12957401D01*
X47724074Y12957399D01*
X47771514Y12932501D01*
X47864807Y12883537D01*
X48019129Y12845500D01*
X48019130Y12845500D01*
X48178070Y12845500D01*
X48178071Y12845500D01*
X48332393Y12883537D01*
X48473129Y12957401D01*
X48592098Y13062799D01*
X48682387Y13193605D01*
X48738749Y13342218D01*
X48738749Y13342219D01*
X48738750Y13342221D01*
X48757907Y13499997D01*
X48757907Y13500004D01*
X48738750Y13657780D01*
X48725138Y13693669D01*
X48682387Y13806395D01*
X48592098Y13937201D01*
X48473129Y14042599D01*
X48473128Y14042600D01*
X48473125Y14042602D01*
X48443913Y14057933D01*
X48392890Y14107301D01*
X48376658Y14176417D01*
X48400370Y14243337D01*
X48456497Y14286814D01*
X48502468Y14295500D01*
X50451792Y14295500D01*
X50451801Y14295500D01*
X50539859Y14304174D01*
X50606711Y14310757D01*
X50606712Y14310758D01*
X50606718Y14310758D01*
X50805492Y14371055D01*
X50933106Y14439267D01*
X51002609Y14453738D01*
X51068906Y14428335D01*
X51110944Y14371122D01*
X51118500Y14328144D01*
X51118500Y4671857D01*
X51098498Y4603736D01*
X51044842Y4557243D01*
X50974568Y4547139D01*
X50933104Y4560735D01*
X50805492Y4628945D01*
X50664029Y4671857D01*
X50606718Y4689242D01*
X50606717Y4689243D01*
X50606711Y4689244D01*
X50451807Y4704500D01*
X50451801Y4704500D01*
X48320201Y4704500D01*
X48252080Y4724502D01*
X48205587Y4778158D01*
X48195483Y4848432D01*
X48224977Y4913012D01*
X48284703Y4951396D01*
X48290047Y4952839D01*
X48297522Y4954682D01*
X48357793Y4969537D01*
X48498529Y5043401D01*
X48617498Y5148799D01*
X48707787Y5279605D01*
X48764149Y5428218D01*
X48764149Y5428219D01*
X48764150Y5428221D01*
X48783307Y5585997D01*
X48783307Y5586004D01*
X48764150Y5743780D01*
X48729477Y5835204D01*
X48707787Y5892395D01*
X48617498Y6023201D01*
X48498529Y6128599D01*
X48498528Y6128600D01*
X48498525Y6128602D01*
X48357797Y6202461D01*
X48357795Y6202462D01*
X48357793Y6202463D01*
X48357791Y6202464D01*
X48357790Y6202464D01*
X48203472Y6240500D01*
X48203471Y6240500D01*
X48044529Y6240500D01*
X48044527Y6240500D01*
X47890209Y6202464D01*
X47890202Y6202461D01*
X47749474Y6128602D01*
X47749469Y6128598D01*
X47630501Y6023200D01*
X47540215Y5892399D01*
X47540212Y5892393D01*
X47483849Y5743780D01*
X47464693Y5586004D01*
X47464693Y5585997D01*
X47483849Y5428221D01*
X47511610Y5355024D01*
X47540213Y5279605D01*
X47630502Y5148799D01*
X47749471Y5043401D01*
X47749472Y5043401D01*
X47749474Y5043399D01*
X47813304Y5009899D01*
X47890207Y4969537D01*
X47962011Y4951839D01*
X48023365Y4916116D01*
X48055666Y4852893D01*
X48048659Y4782243D01*
X48004568Y4726597D01*
X47944207Y4704107D01*
X47793288Y4689244D01*
X47594507Y4628945D01*
X47411313Y4531026D01*
X47411313Y4531025D01*
X47250747Y4399253D01*
X47118975Y4238687D01*
X47118974Y4238687D01*
X47021055Y4055493D01*
X46960756Y3856712D01*
X46940398Y3650004D01*
X46940398Y3649997D01*
X46960756Y3443289D01*
X46960757Y3443283D01*
X46960758Y3443282D01*
X46981489Y3374940D01*
X47021055Y3244508D01*
X47118974Y3061314D01*
X47250747Y2900748D01*
X47411313Y2768976D01*
X47411313Y2768975D01*
X47432523Y2757638D01*
X47594508Y2671055D01*
X47793282Y2610758D01*
X47793286Y2610758D01*
X47793288Y2610757D01*
X47881340Y2602085D01*
X47948199Y2595500D01*
X47948208Y2595500D01*
X50451792Y2595500D01*
X50451801Y2595500D01*
X50539859Y2604174D01*
X50606711Y2610757D01*
X50606712Y2610758D01*
X50606718Y2610758D01*
X50805492Y2671055D01*
X50988683Y2768973D01*
X51011393Y2787612D01*
X51076740Y2815366D01*
X51146718Y2803385D01*
X51190762Y2767601D01*
X51194781Y2762437D01*
X51195070Y2762171D01*
X51215220Y2738380D01*
X51215438Y2738046D01*
X51215439Y2738045D01*
X51215440Y2738044D01*
X51251166Y2710238D01*
X51255141Y2706871D01*
X51280098Y2683897D01*
X51288454Y2676205D01*
X51288826Y2676042D01*
X51315594Y2660092D01*
X51315915Y2659842D01*
X51315918Y2659841D01*
X51358735Y2645142D01*
X51363573Y2643255D01*
X51405052Y2625060D01*
X51405292Y2625041D01*
X51405449Y2625027D01*
X51435962Y2618629D01*
X51436185Y2618553D01*
X51436339Y2618500D01*
X51481610Y2618500D01*
X51486815Y2618285D01*
X51489407Y2618071D01*
X51531940Y2614546D01*
X51532327Y2614644D01*
X51563258Y2618500D01*
X53992500Y2618500D01*
X54060621Y2598498D01*
X54107114Y2544842D01*
X54118500Y2492500D01*
X54118500Y507500D01*
X54098498Y439379D01*
X54044842Y392886D01*
X53992500Y381500D01*
X13960000Y381500D01*
X13891879Y401502D01*
X13845386Y455158D01*
X13834000Y507500D01*
X13834000Y1319300D01*
X13854002Y1387421D01*
X13907658Y1433914D01*
X13960000Y1445300D01*
X17880801Y1445300D01*
X17886293Y1445060D01*
X17904177Y1443496D01*
X17927267Y1441476D01*
X17967010Y1452127D01*
X17972331Y1453306D01*
X18012851Y1460449D01*
X18012857Y1460453D01*
X18017995Y1462322D01*
X18034956Y1469348D01*
X18039912Y1471659D01*
X18039911Y1471659D01*
X18039916Y1471660D01*
X18073618Y1495260D01*
X18078229Y1498197D01*
X18113849Y1518761D01*
X18140301Y1550287D01*
X18143983Y1554305D01*
X18879638Y2289960D01*
X18926672Y2319636D01*
X19691389Y2590409D01*
X19694948Y2591769D01*
X19701163Y2594237D01*
X19707008Y2597299D01*
X19707090Y2597143D01*
X19729101Y2608103D01*
X19751437Y2615918D01*
X19895400Y2706376D01*
X20015624Y2826600D01*
X20106082Y2970563D01*
X20162237Y3131046D01*
X20181274Y3300000D01*
X20162237Y3468954D01*
X20106082Y3629437D01*
X20015624Y3773400D01*
X20015622Y3773403D01*
X19895402Y3893623D01*
X19895399Y3893625D01*
X19829556Y3934997D01*
X26382693Y3934997D01*
X26401849Y3777221D01*
X26433656Y3693356D01*
X26458213Y3628605D01*
X26548502Y3497799D01*
X26667471Y3392401D01*
X26667472Y3392401D01*
X26667474Y3392399D01*
X26680707Y3385454D01*
X26808207Y3318537D01*
X26962529Y3280500D01*
X26962530Y3280500D01*
X27121470Y3280500D01*
X27121471Y3280500D01*
X27275793Y3318537D01*
X27416529Y3392401D01*
X27535498Y3497799D01*
X27625787Y3628605D01*
X27682149Y3777218D01*
X27682149Y3777219D01*
X27682150Y3777221D01*
X27701307Y3934997D01*
X27701307Y3935004D01*
X27682150Y4092780D01*
X27654626Y4165353D01*
X27625787Y4241395D01*
X27535498Y4372201D01*
X27416529Y4477599D01*
X27416528Y4477600D01*
X27416525Y4477602D01*
X27275797Y4551461D01*
X27275795Y4551462D01*
X27275793Y4551463D01*
X27275791Y4551464D01*
X27275790Y4551464D01*
X27121472Y4589500D01*
X27121471Y4589500D01*
X26962529Y4589500D01*
X26962527Y4589500D01*
X26808209Y4551464D01*
X26808202Y4551461D01*
X26667474Y4477602D01*
X26667469Y4477598D01*
X26548501Y4372200D01*
X26458215Y4241399D01*
X26458212Y4241393D01*
X26401849Y4092780D01*
X26382693Y3935004D01*
X26382693Y3934997D01*
X19829556Y3934997D01*
X19751439Y3984081D01*
X19751437Y3984082D01*
X19590954Y4040237D01*
X19422000Y4059274D01*
X19253046Y4040237D01*
X19253043Y4040237D01*
X19253043Y4040236D01*
X19092562Y3984082D01*
X19092560Y3984081D01*
X18948600Y3893625D01*
X18948597Y3893623D01*
X18828377Y3773403D01*
X18828375Y3773400D01*
X18737917Y3629438D01*
X18737917Y3629437D01*
X18726464Y3596707D01*
X18715828Y3573914D01*
X18711337Y3566366D01*
X18711334Y3566358D01*
X18441634Y2804677D01*
X18411956Y2757638D01*
X17797925Y2143605D01*
X17735612Y2109580D01*
X17708829Y2106700D01*
X16881000Y2106700D01*
X16812879Y2126702D01*
X16766386Y2180358D01*
X16755000Y2232700D01*
X16755000Y4879521D01*
X21374169Y4879521D01*
X21393325Y4721745D01*
X21432186Y4619280D01*
X21449689Y4573129D01*
X21539978Y4442323D01*
X21658947Y4336925D01*
X21658948Y4336925D01*
X21658950Y4336923D01*
X21697926Y4316467D01*
X21799683Y4263061D01*
X21954005Y4225024D01*
X21954006Y4225024D01*
X22112946Y4225024D01*
X22112947Y4225024D01*
X22267269Y4263061D01*
X22408005Y4336925D01*
X22526974Y4442323D01*
X22617263Y4573129D01*
X22673625Y4721742D01*
X22673625Y4721743D01*
X22673626Y4721745D01*
X22692783Y4879521D01*
X22692783Y4879528D01*
X22673626Y5037304D01*
X22658193Y5077997D01*
X28414693Y5077997D01*
X28433849Y4920221D01*
X28482447Y4792081D01*
X28490213Y4771605D01*
X28580502Y4640799D01*
X28699471Y4535401D01*
X28699472Y4535401D01*
X28699474Y4535399D01*
X28709226Y4530281D01*
X28840207Y4461537D01*
X28994529Y4423500D01*
X28994530Y4423500D01*
X29153470Y4423500D01*
X29153471Y4423500D01*
X29307793Y4461537D01*
X29448529Y4535401D01*
X29567498Y4640799D01*
X29657787Y4771605D01*
X29714149Y4920218D01*
X29714149Y4920219D01*
X29714150Y4920221D01*
X29733307Y5077997D01*
X29733307Y5078004D01*
X29713231Y5243349D01*
X29715893Y5243673D01*
X29718457Y5301902D01*
X29739726Y5332000D01*
X41141726Y5332000D01*
X41160763Y5163046D01*
X41185673Y5091857D01*
X41216918Y5002563D01*
X41216919Y5002561D01*
X41307375Y4858601D01*
X41307377Y4858598D01*
X41427597Y4738378D01*
X41427600Y4738376D01*
X41571563Y4647918D01*
X41732046Y4591763D01*
X41901000Y4572726D01*
X42069954Y4591763D01*
X42230437Y4647918D01*
X42374400Y4738376D01*
X42494624Y4858600D01*
X42585082Y5002563D01*
X42641237Y5163046D01*
X42660274Y5332000D01*
X42641237Y5500954D01*
X42622306Y5555054D01*
X42618688Y5625957D01*
X42653977Y5687563D01*
X42674196Y5703353D01*
X42755400Y5754376D01*
X42875624Y5874600D01*
X42966082Y6018563D01*
X43022237Y6179046D01*
X43041274Y6348000D01*
X43022237Y6516954D01*
X42966082Y6677437D01*
X42875624Y6821400D01*
X42875622Y6821403D01*
X42755402Y6941623D01*
X42755399Y6941625D01*
X42611439Y7032081D01*
X42611437Y7032082D01*
X42601957Y7035399D01*
X42450954Y7088237D01*
X42282000Y7107274D01*
X42113046Y7088237D01*
X42113043Y7088237D01*
X42113043Y7088236D01*
X41952562Y7032082D01*
X41952560Y7032081D01*
X41808600Y6941625D01*
X41808597Y6941623D01*
X41688377Y6821403D01*
X41688375Y6821400D01*
X41597919Y6677440D01*
X41597918Y6677438D01*
X41549813Y6539961D01*
X41541763Y6516954D01*
X41531133Y6422608D01*
X41522726Y6348000D01*
X41541763Y6179046D01*
X41560693Y6124947D01*
X41564311Y6054042D01*
X41529021Y5992438D01*
X41508800Y5976646D01*
X41427596Y5925622D01*
X41307377Y5805403D01*
X41307375Y5805400D01*
X41216919Y5661440D01*
X41216918Y5661438D01*
X41168797Y5523913D01*
X41160763Y5500954D01*
X41141726Y5332000D01*
X29739726Y5332000D01*
X29759430Y5359882D01*
X29796053Y5380047D01*
X29911437Y5420421D01*
X30055400Y5510879D01*
X30175624Y5631103D01*
X30266082Y5775066D01*
X30322237Y5935549D01*
X30341274Y6104503D01*
X30322237Y6273457D01*
X30266082Y6433940D01*
X30175624Y6577903D01*
X30175622Y6577906D01*
X30055402Y6698126D01*
X30055399Y6698128D01*
X29911439Y6788584D01*
X29911437Y6788585D01*
X29817656Y6821400D01*
X29750954Y6844740D01*
X29582000Y6863777D01*
X29413046Y6844740D01*
X29413043Y6844740D01*
X29413043Y6844739D01*
X29252562Y6788585D01*
X29252560Y6788584D01*
X29108600Y6698128D01*
X29108597Y6698126D01*
X28988377Y6577906D01*
X28988375Y6577903D01*
X28897919Y6433943D01*
X28897918Y6433941D01*
X28848182Y6291801D01*
X28841763Y6273457D01*
X28822726Y6104503D01*
X28841763Y5935549D01*
X28863090Y5874600D01*
X28876875Y5835204D01*
X28880494Y5764300D01*
X28845205Y5702694D01*
X28816502Y5682022D01*
X28699471Y5620600D01*
X28699469Y5620598D01*
X28580501Y5515200D01*
X28490215Y5384399D01*
X28490212Y5384393D01*
X28433849Y5235780D01*
X28414693Y5078004D01*
X28414693Y5077997D01*
X22658193Y5077997D01*
X22635607Y5137550D01*
X22617263Y5185919D01*
X22526974Y5316725D01*
X22408005Y5422123D01*
X22408004Y5422124D01*
X22408001Y5422126D01*
X22267273Y5495985D01*
X22267271Y5495986D01*
X22267269Y5495987D01*
X22267267Y5495988D01*
X22267266Y5495988D01*
X22112948Y5534024D01*
X22112947Y5534024D01*
X21954005Y5534024D01*
X21954003Y5534024D01*
X21799685Y5495988D01*
X21799678Y5495985D01*
X21658950Y5422126D01*
X21658945Y5422122D01*
X21539977Y5316724D01*
X21449691Y5185923D01*
X21449688Y5185917D01*
X21393325Y5037304D01*
X21374169Y4879528D01*
X21374169Y4879521D01*
X16755000Y4879521D01*
X16755000Y6728997D01*
X17873693Y6728997D01*
X17892849Y6571221D01*
X17914263Y6514759D01*
X17949213Y6422605D01*
X18039502Y6291799D01*
X18158471Y6186401D01*
X18158472Y6186401D01*
X18158474Y6186399D01*
X18233200Y6147180D01*
X18299207Y6112537D01*
X18453529Y6074500D01*
X18453530Y6074500D01*
X18612470Y6074500D01*
X18612471Y6074500D01*
X18766793Y6112537D01*
X18907529Y6186401D01*
X19026498Y6291799D01*
X19116787Y6422605D01*
X19173149Y6571218D01*
X19173149Y6571219D01*
X19173150Y6571221D01*
X19192307Y6728997D01*
X19192307Y6729004D01*
X19173150Y6886780D01*
X19152350Y6941624D01*
X19116787Y7035395D01*
X19026498Y7166201D01*
X18946586Y7236997D01*
X33621693Y7236997D01*
X33640849Y7079221D01*
X33684737Y6963501D01*
X33697213Y6930605D01*
X33787502Y6799799D01*
X33906471Y6694401D01*
X33906472Y6694401D01*
X33906474Y6694399D01*
X33981200Y6655180D01*
X34047207Y6620537D01*
X34201529Y6582500D01*
X34201530Y6582500D01*
X34360470Y6582500D01*
X34360471Y6582500D01*
X34514793Y6620537D01*
X34655529Y6694401D01*
X34774498Y6799799D01*
X34864787Y6930605D01*
X34921149Y7079218D01*
X34921149Y7079219D01*
X34921150Y7079221D01*
X34940307Y7236997D01*
X34940307Y7237004D01*
X34921150Y7394780D01*
X34896331Y7460221D01*
X34864787Y7543395D01*
X34813293Y7617997D01*
X47400801Y7617997D01*
X47419957Y7460221D01*
X47463480Y7345464D01*
X47476321Y7311605D01*
X47566610Y7180799D01*
X47685579Y7075401D01*
X47685580Y7075401D01*
X47685582Y7075399D01*
X47760308Y7036180D01*
X47826315Y7001537D01*
X47980637Y6963500D01*
X47980638Y6963500D01*
X48139578Y6963500D01*
X48139579Y6963500D01*
X48293901Y7001537D01*
X48333266Y7022198D01*
X48402877Y7036145D01*
X48468980Y7010243D01*
X48507516Y6960537D01*
X48545623Y6872195D01*
X48545623Y6872194D01*
X48650387Y6731473D01*
X48650389Y6731472D01*
X48650390Y6731470D01*
X48690125Y6698128D01*
X48784784Y6618699D01*
X48784786Y6618698D01*
X48941567Y6539960D01*
X49112279Y6499500D01*
X49112281Y6499500D01*
X49243712Y6499500D01*
X49341618Y6510945D01*
X49374255Y6514759D01*
X49539117Y6574763D01*
X49685696Y6671170D01*
X49806092Y6798782D01*
X49893812Y6950719D01*
X49944130Y7118790D01*
X49954331Y7293935D01*
X49923865Y7466711D01*
X49854377Y7627804D01*
X49854376Y7627805D01*
X49854375Y7627808D01*
X49749612Y7768528D01*
X49736419Y7779598D01*
X49708530Y7803000D01*
X49615215Y7881302D01*
X49458434Y7960040D01*
X49401529Y7973527D01*
X49287721Y8000500D01*
X49156291Y8000500D01*
X49156288Y8000500D01*
X49025745Y7985242D01*
X49025743Y7985241D01*
X48860887Y7925239D01*
X48860880Y7925236D01*
X48814188Y7894525D01*
X48746282Y7873804D01*
X48677954Y7893085D01*
X48641254Y7928221D01*
X48553607Y8055200D01*
X48434638Y8160598D01*
X48434633Y8160602D01*
X48293905Y8234461D01*
X48293903Y8234462D01*
X48293901Y8234463D01*
X48293899Y8234464D01*
X48293898Y8234464D01*
X48139580Y8272500D01*
X48139579Y8272500D01*
X47980637Y8272500D01*
X47980635Y8272500D01*
X47826317Y8234464D01*
X47826310Y8234461D01*
X47685582Y8160602D01*
X47685577Y8160598D01*
X47566609Y8055200D01*
X47476323Y7924399D01*
X47476320Y7924393D01*
X47419957Y7775780D01*
X47400801Y7618004D01*
X47400801Y7617997D01*
X34813293Y7617997D01*
X34774498Y7674201D01*
X34655529Y7779599D01*
X34655528Y7779600D01*
X34655525Y7779602D01*
X34514797Y7853461D01*
X34514795Y7853462D01*
X34514793Y7853463D01*
X34514791Y7853464D01*
X34514790Y7853464D01*
X34360472Y7891500D01*
X34360471Y7891500D01*
X34201529Y7891500D01*
X34201527Y7891500D01*
X34047209Y7853464D01*
X34047202Y7853461D01*
X33906474Y7779602D01*
X33906469Y7779598D01*
X33787501Y7674200D01*
X33697215Y7543399D01*
X33697212Y7543393D01*
X33640849Y7394780D01*
X33621693Y7237004D01*
X33621693Y7236997D01*
X18946586Y7236997D01*
X18907529Y7271599D01*
X18907528Y7271600D01*
X18907525Y7271602D01*
X18766797Y7345461D01*
X18766795Y7345462D01*
X18766793Y7345463D01*
X18766791Y7345464D01*
X18766790Y7345464D01*
X18612472Y7383500D01*
X18612471Y7383500D01*
X18453529Y7383500D01*
X18453527Y7383500D01*
X18299209Y7345464D01*
X18299202Y7345461D01*
X18158474Y7271602D01*
X18158469Y7271598D01*
X18039501Y7166200D01*
X17949215Y7035399D01*
X17949212Y7035393D01*
X17892849Y6886780D01*
X17873693Y6729004D01*
X17873693Y6728997D01*
X16755000Y6728997D01*
X16755000Y10030997D01*
X31716693Y10030997D01*
X31735849Y9873221D01*
X31751322Y9832424D01*
X31792213Y9724605D01*
X31882502Y9593799D01*
X32001471Y9488401D01*
X32001472Y9488401D01*
X32001474Y9488399D01*
X32076200Y9449180D01*
X32142207Y9414537D01*
X32296529Y9376500D01*
X32296530Y9376500D01*
X32455470Y9376500D01*
X32455471Y9376500D01*
X32534573Y9395997D01*
X33621693Y9395997D01*
X33640849Y9238221D01*
X33689447Y9110081D01*
X33697213Y9089605D01*
X33787502Y8958799D01*
X33906471Y8853401D01*
X33906472Y8853401D01*
X33906474Y8853399D01*
X33981200Y8814180D01*
X34047207Y8779537D01*
X34201529Y8741500D01*
X34201530Y8741500D01*
X34360470Y8741500D01*
X34360471Y8741500D01*
X34514793Y8779537D01*
X34655529Y8853401D01*
X34774498Y8958799D01*
X34864787Y9089605D01*
X34921149Y9238218D01*
X34921149Y9238219D01*
X34921150Y9238221D01*
X34940307Y9395997D01*
X44162693Y9395997D01*
X44181849Y9238221D01*
X44230447Y9110081D01*
X44238213Y9089605D01*
X44328502Y8958799D01*
X44447471Y8853401D01*
X44447472Y8853401D01*
X44447474Y8853399D01*
X44522200Y8814180D01*
X44588207Y8779537D01*
X44742529Y8741500D01*
X44742530Y8741500D01*
X44901470Y8741500D01*
X44901471Y8741500D01*
X45055793Y8779537D01*
X45196529Y8853401D01*
X45315498Y8958799D01*
X45405787Y9089605D01*
X45462149Y9238218D01*
X45462149Y9238219D01*
X45462150Y9238221D01*
X45481307Y9395997D01*
X45481307Y9396004D01*
X45462150Y9553780D01*
X45446972Y9593801D01*
X45405787Y9702395D01*
X45316033Y9832425D01*
X45293798Y9899848D01*
X45311545Y9968591D01*
X45316034Y9975576D01*
X45333043Y10000218D01*
X45405787Y10105605D01*
X45462149Y10254218D01*
X45462149Y10254219D01*
X45462150Y10254221D01*
X45481307Y10411997D01*
X45481307Y10412004D01*
X45462150Y10569780D01*
X45448538Y10605669D01*
X45405787Y10718395D01*
X45315498Y10849201D01*
X45196529Y10954599D01*
X45196528Y10954600D01*
X45196525Y10954602D01*
X45055797Y11028461D01*
X45055795Y11028462D01*
X45055793Y11028463D01*
X45055791Y11028464D01*
X45055790Y11028464D01*
X44901472Y11066500D01*
X44901471Y11066500D01*
X44742529Y11066500D01*
X44742527Y11066500D01*
X44588209Y11028464D01*
X44588202Y11028461D01*
X44447474Y10954602D01*
X44447469Y10954598D01*
X44328501Y10849200D01*
X44238215Y10718399D01*
X44238212Y10718393D01*
X44181849Y10569780D01*
X44162693Y10412004D01*
X44162693Y10411997D01*
X44181849Y10254221D01*
X44238212Y10105608D01*
X44238215Y10105602D01*
X44327965Y9975576D01*
X44350201Y9908151D01*
X44332454Y9839408D01*
X44327965Y9832424D01*
X44238215Y9702399D01*
X44238212Y9702393D01*
X44181849Y9553780D01*
X44162693Y9396004D01*
X44162693Y9395997D01*
X34940307Y9395997D01*
X34940307Y9396004D01*
X34921150Y9553780D01*
X34905972Y9593801D01*
X34864787Y9702395D01*
X34774498Y9833201D01*
X34655529Y9938599D01*
X34655528Y9938600D01*
X34655525Y9938602D01*
X34514797Y10012461D01*
X34514795Y10012462D01*
X34514793Y10012463D01*
X34514791Y10012464D01*
X34514790Y10012464D01*
X34360472Y10050500D01*
X34360471Y10050500D01*
X34201529Y10050500D01*
X34201527Y10050500D01*
X34047209Y10012464D01*
X34047202Y10012461D01*
X33906474Y9938602D01*
X33906469Y9938598D01*
X33787501Y9833200D01*
X33697215Y9702399D01*
X33697212Y9702393D01*
X33640849Y9553780D01*
X33621693Y9396004D01*
X33621693Y9395997D01*
X32534573Y9395997D01*
X32609793Y9414537D01*
X32750529Y9488401D01*
X32869498Y9593799D01*
X32959787Y9724605D01*
X33016149Y9873218D01*
X33016149Y9873219D01*
X33016150Y9873221D01*
X33035307Y10030997D01*
X33035307Y10031004D01*
X33019888Y10157997D01*
X41622693Y10157997D01*
X41641849Y10000221D01*
X41690015Y9873221D01*
X41698213Y9851605D01*
X41788502Y9720799D01*
X41907471Y9615401D01*
X41907472Y9615401D01*
X41907474Y9615399D01*
X41948626Y9593801D01*
X42048207Y9541537D01*
X42202529Y9503500D01*
X42202530Y9503500D01*
X42361470Y9503500D01*
X42361471Y9503500D01*
X42515793Y9541537D01*
X42656529Y9615401D01*
X42775498Y9720799D01*
X42865787Y9851605D01*
X42922149Y10000218D01*
X42922149Y10000219D01*
X42922150Y10000221D01*
X42941307Y10157997D01*
X42941307Y10158004D01*
X42922150Y10315780D01*
X42885656Y10412004D01*
X42865787Y10464395D01*
X42775498Y10595201D01*
X42656529Y10700599D01*
X42656528Y10700600D01*
X42656525Y10700602D01*
X42515797Y10774461D01*
X42515795Y10774462D01*
X42515793Y10774463D01*
X42515791Y10774464D01*
X42515790Y10774464D01*
X42361472Y10812500D01*
X42361471Y10812500D01*
X42202529Y10812500D01*
X42202527Y10812500D01*
X42048209Y10774464D01*
X42048202Y10774461D01*
X41907474Y10700602D01*
X41907469Y10700598D01*
X41788501Y10595200D01*
X41698215Y10464399D01*
X41698212Y10464393D01*
X41641849Y10315780D01*
X41622693Y10158004D01*
X41622693Y10157997D01*
X33019888Y10157997D01*
X33016150Y10188780D01*
X32991331Y10254221D01*
X32959787Y10337395D01*
X32869498Y10468201D01*
X32750529Y10573599D01*
X32750528Y10573600D01*
X32750525Y10573602D01*
X32609797Y10647461D01*
X32609795Y10647462D01*
X32609793Y10647463D01*
X32609791Y10647464D01*
X32609790Y10647464D01*
X32454240Y10685804D01*
X32392885Y10721528D01*
X32376209Y10754168D01*
X32352992Y10715488D01*
X32297759Y10685804D01*
X32142209Y10647464D01*
X32142202Y10647461D01*
X32001474Y10573602D01*
X32001469Y10573598D01*
X31882501Y10468200D01*
X31792215Y10337399D01*
X31792212Y10337393D01*
X31735849Y10188780D01*
X31716693Y10031004D01*
X31716693Y10030997D01*
X16755000Y10030997D01*
X16755000Y11682000D01*
X31616726Y11682000D01*
X31635763Y11513046D01*
X31665508Y11428040D01*
X31691918Y11352563D01*
X31691919Y11352561D01*
X31782375Y11208601D01*
X31782377Y11208598D01*
X31902597Y11088378D01*
X31902600Y11088376D01*
X32046563Y10997918D01*
X32207046Y10941763D01*
X32281715Y10933350D01*
X32347165Y10905847D01*
X32375208Y10865014D01*
X32411684Y10911047D01*
X32470282Y10933350D01*
X32544954Y10941763D01*
X32705437Y10997918D01*
X32849400Y11088376D01*
X32969624Y11208600D01*
X33027683Y11301000D01*
X34029726Y11301000D01*
X34048763Y11132046D01*
X34095695Y10997920D01*
X34104918Y10971563D01*
X34104919Y10971561D01*
X34195375Y10827601D01*
X34195377Y10827598D01*
X34315597Y10707378D01*
X34315600Y10707376D01*
X34459563Y10616918D01*
X34620046Y10560763D01*
X34789000Y10541726D01*
X34957954Y10560763D01*
X35118437Y10616918D01*
X35262400Y10707376D01*
X35382624Y10827600D01*
X35473082Y10971563D01*
X35529237Y11132046D01*
X35548274Y11301000D01*
X35529237Y11469954D01*
X35473082Y11630437D01*
X35382624Y11774400D01*
X35373620Y11783404D01*
X35339594Y11845712D01*
X35344657Y11916528D01*
X35373620Y11961597D01*
X35382624Y11970600D01*
X35429057Y12044497D01*
X38955693Y12044497D01*
X38974849Y11886721D01*
X39004327Y11808997D01*
X39031213Y11738105D01*
X39121502Y11607299D01*
X39240471Y11501901D01*
X39240472Y11501901D01*
X39240474Y11501899D01*
X39301335Y11469957D01*
X39381207Y11428037D01*
X39535529Y11390000D01*
X39535530Y11390000D01*
X39694470Y11390000D01*
X39694471Y11390000D01*
X39848793Y11428037D01*
X39989529Y11501901D01*
X40108498Y11607299D01*
X40198787Y11738105D01*
X40225673Y11808997D01*
X47337693Y11808997D01*
X47356849Y11651221D01*
X47413212Y11502608D01*
X47413215Y11502602D01*
X47413699Y11501901D01*
X47503502Y11371799D01*
X47622471Y11266401D01*
X47622472Y11266401D01*
X47622474Y11266399D01*
X47689023Y11231472D01*
X47763207Y11192537D01*
X47917529Y11154500D01*
X47917530Y11154500D01*
X48076470Y11154500D01*
X48076471Y11154500D01*
X48230793Y11192537D01*
X48371529Y11266401D01*
X48421199Y11310405D01*
X48485451Y11340607D01*
X48555832Y11331276D01*
X48605820Y11291337D01*
X48624381Y11266406D01*
X48650390Y11231470D01*
X48722253Y11171170D01*
X48784784Y11118699D01*
X48784786Y11118698D01*
X48941567Y11039960D01*
X49112279Y10999500D01*
X49112281Y10999500D01*
X49243712Y10999500D01*
X49341618Y11010945D01*
X49374255Y11014759D01*
X49539117Y11074763D01*
X49685696Y11171170D01*
X49806092Y11298782D01*
X49893812Y11450719D01*
X49944130Y11618790D01*
X49953193Y11774403D01*
X49954331Y11793932D01*
X49954330Y11793933D01*
X49954331Y11793935D01*
X49923865Y11966711D01*
X49854377Y12127804D01*
X49854376Y12127805D01*
X49854375Y12127808D01*
X49749612Y12268528D01*
X49741844Y12275046D01*
X49712357Y12299789D01*
X49615215Y12381302D01*
X49458434Y12460040D01*
X49367039Y12481701D01*
X49287721Y12500500D01*
X49156291Y12500500D01*
X49156288Y12500500D01*
X49025745Y12485242D01*
X49025743Y12485241D01*
X48860887Y12425239D01*
X48860874Y12425232D01*
X48714308Y12328834D01*
X48653742Y12264639D01*
X48592445Y12228817D01*
X48521512Y12231821D01*
X48478540Y12256795D01*
X48371530Y12351598D01*
X48371525Y12351602D01*
X48230797Y12425461D01*
X48230795Y12425462D01*
X48230793Y12425463D01*
X48230791Y12425464D01*
X48230790Y12425464D01*
X48076472Y12463500D01*
X48076471Y12463500D01*
X47917529Y12463500D01*
X47917527Y12463500D01*
X47763209Y12425464D01*
X47763202Y12425461D01*
X47622474Y12351602D01*
X47622469Y12351598D01*
X47503501Y12246200D01*
X47413215Y12115399D01*
X47413212Y12115393D01*
X47356849Y11966780D01*
X47337693Y11809004D01*
X47337693Y11808997D01*
X40225673Y11808997D01*
X40255149Y11886718D01*
X40255149Y11886719D01*
X40255150Y11886721D01*
X40274307Y12044497D01*
X40274307Y12044504D01*
X40255150Y12202280D01*
X40231513Y12264605D01*
X40198787Y12350895D01*
X40108498Y12481701D01*
X39989529Y12587099D01*
X39989528Y12587100D01*
X39989525Y12587102D01*
X39848797Y12660961D01*
X39848795Y12660962D01*
X39848793Y12660963D01*
X39848791Y12660964D01*
X39848790Y12660964D01*
X39694472Y12699000D01*
X39694471Y12699000D01*
X39535529Y12699000D01*
X39535527Y12699000D01*
X39381209Y12660964D01*
X39381202Y12660961D01*
X39240474Y12587102D01*
X39240469Y12587098D01*
X39121501Y12481700D01*
X39031215Y12350899D01*
X39031212Y12350893D01*
X38974849Y12202280D01*
X38955693Y12044504D01*
X38955693Y12044497D01*
X35429057Y12044497D01*
X35473082Y12114563D01*
X35529237Y12275046D01*
X35548274Y12444000D01*
X35529237Y12612954D01*
X35473082Y12773437D01*
X35382624Y12917400D01*
X35382622Y12917403D01*
X35262402Y13037623D01*
X35262399Y13037625D01*
X35118439Y13128081D01*
X35118437Y13128082D01*
X35038394Y13156090D01*
X34957954Y13184237D01*
X34789000Y13203274D01*
X34620046Y13184237D01*
X34620043Y13184237D01*
X34620043Y13184236D01*
X34459562Y13128082D01*
X34459560Y13128081D01*
X34315600Y13037625D01*
X34315597Y13037623D01*
X34195377Y12917403D01*
X34195375Y12917400D01*
X34104919Y12773440D01*
X34104918Y12773438D01*
X34066416Y12663403D01*
X34048763Y12612954D01*
X34029726Y12444000D01*
X34048763Y12275046D01*
X34058856Y12246201D01*
X34104918Y12114563D01*
X34104919Y12114561D01*
X34195375Y11970601D01*
X34195377Y11970598D01*
X34204380Y11961595D01*
X34238406Y11899283D01*
X34233341Y11828468D01*
X34204380Y11783405D01*
X34195377Y11774403D01*
X34195375Y11774400D01*
X34104919Y11630440D01*
X34104918Y11630438D01*
X34063841Y11513046D01*
X34048763Y11469954D01*
X34029726Y11301000D01*
X33027683Y11301000D01*
X33060082Y11352563D01*
X33116237Y11513046D01*
X33135274Y11682000D01*
X33116237Y11850954D01*
X33060082Y12011437D01*
X32969624Y12155400D01*
X32969622Y12155403D01*
X32849402Y12275623D01*
X32849399Y12275625D01*
X32705439Y12366081D01*
X32705437Y12366082D01*
X32661940Y12381302D01*
X32544954Y12422237D01*
X32376000Y12441274D01*
X32207046Y12422237D01*
X32207043Y12422237D01*
X32207043Y12422236D01*
X32046562Y12366082D01*
X32046560Y12366081D01*
X31902600Y12275625D01*
X31902597Y12275623D01*
X31782377Y12155403D01*
X31782375Y12155400D01*
X31691919Y12011440D01*
X31691918Y12011438D01*
X31672009Y11954540D01*
X31635763Y11850954D01*
X31616726Y11682000D01*
X16755000Y11682000D01*
X16755000Y12443997D01*
X17238693Y12443997D01*
X17257849Y12286221D01*
X17306447Y12158081D01*
X17314213Y12137605D01*
X17404502Y12006799D01*
X17523471Y11901401D01*
X17523472Y11901401D01*
X17523474Y11901399D01*
X17551441Y11886721D01*
X17664207Y11827537D01*
X17818529Y11789500D01*
X17818530Y11789500D01*
X17977470Y11789500D01*
X17977471Y11789500D01*
X18131793Y11827537D01*
X18272529Y11901401D01*
X18391498Y12006799D01*
X18481787Y12137605D01*
X18538149Y12286218D01*
X18538149Y12286219D01*
X18538150Y12286221D01*
X18557307Y12443997D01*
X18557307Y12444004D01*
X18538150Y12601780D01*
X18515704Y12660964D01*
X18481787Y12750395D01*
X18391498Y12881201D01*
X18272529Y12986599D01*
X18272528Y12986600D01*
X18272525Y12986602D01*
X18131797Y13060461D01*
X18131795Y13060462D01*
X18131793Y13060463D01*
X18131791Y13060464D01*
X18131790Y13060464D01*
X17977472Y13098500D01*
X17977471Y13098500D01*
X17818529Y13098500D01*
X17818527Y13098500D01*
X17664209Y13060464D01*
X17664202Y13060461D01*
X17523474Y12986602D01*
X17523469Y12986598D01*
X17404501Y12881200D01*
X17314215Y12750399D01*
X17314212Y12750393D01*
X17257849Y12601780D01*
X17238693Y12444004D01*
X17238693Y12443997D01*
X16755000Y12443997D01*
X16755000Y13586997D01*
X20413693Y13586997D01*
X20432849Y13429221D01*
X20465845Y13342221D01*
X20489213Y13280605D01*
X20579502Y13149799D01*
X20698471Y13044401D01*
X20698472Y13044401D01*
X20698474Y13044399D01*
X20711383Y13037624D01*
X20839207Y12970537D01*
X20993529Y12932500D01*
X20993530Y12932500D01*
X21152470Y12932500D01*
X21152471Y12932500D01*
X21306793Y12970537D01*
X21447529Y13044401D01*
X21566498Y13149799D01*
X21605289Y13205997D01*
X22445693Y13205997D01*
X22464849Y13048221D01*
X22499294Y12957399D01*
X22521213Y12899605D01*
X22611502Y12768799D01*
X22730471Y12663401D01*
X22730472Y12663401D01*
X22730474Y12663399D01*
X22805200Y12624180D01*
X22871207Y12589537D01*
X23025529Y12551500D01*
X23025530Y12551500D01*
X23184470Y12551500D01*
X23184471Y12551500D01*
X23338793Y12589537D01*
X23479529Y12663401D01*
X23598498Y12768799D01*
X23688787Y12899605D01*
X23745149Y13048218D01*
X23745149Y13048219D01*
X23745150Y13048221D01*
X23764307Y13205997D01*
X23764307Y13206004D01*
X23745150Y13363780D01*
X23731538Y13399669D01*
X23688787Y13512395D01*
X23598498Y13643201D01*
X23479529Y13748599D01*
X23479528Y13748600D01*
X23479525Y13748602D01*
X23338797Y13822461D01*
X23338795Y13822462D01*
X23338793Y13822463D01*
X23338791Y13822464D01*
X23338790Y13822464D01*
X23184472Y13860500D01*
X23184471Y13860500D01*
X23025529Y13860500D01*
X23025527Y13860500D01*
X22871209Y13822464D01*
X22871202Y13822461D01*
X22730474Y13748602D01*
X22730469Y13748598D01*
X22611501Y13643200D01*
X22521215Y13512399D01*
X22521212Y13512393D01*
X22464849Y13363780D01*
X22445693Y13206004D01*
X22445693Y13205997D01*
X21605289Y13205997D01*
X21656787Y13280605D01*
X21713149Y13429218D01*
X21713149Y13429219D01*
X21713150Y13429221D01*
X21732307Y13586997D01*
X21732307Y13587004D01*
X21713150Y13744780D01*
X21689782Y13806395D01*
X21656787Y13893395D01*
X21605293Y13967997D01*
X27779693Y13967997D01*
X27798849Y13810221D01*
X27847447Y13682081D01*
X27855213Y13661605D01*
X27945502Y13530799D01*
X28064471Y13425401D01*
X28064472Y13425401D01*
X28064474Y13425399D01*
X28139200Y13386180D01*
X28205207Y13351537D01*
X28359529Y13313500D01*
X28366929Y13311676D01*
X28366356Y13309353D01*
X28420823Y13285927D01*
X28460525Y13227069D01*
X28462103Y13156090D01*
X28425057Y13095525D01*
X28424003Y13094581D01*
X28326501Y13008200D01*
X28236215Y12877399D01*
X28236212Y12877393D01*
X28179849Y12728780D01*
X28160693Y12571004D01*
X28160693Y12570997D01*
X28179849Y12413221D01*
X28203487Y12350895D01*
X28236213Y12264605D01*
X28326502Y12133799D01*
X28445471Y12028401D01*
X28445472Y12028401D01*
X28445474Y12028399D01*
X28477787Y12011440D01*
X28586207Y11954537D01*
X28740529Y11916500D01*
X28740530Y11916500D01*
X28899470Y11916500D01*
X28899471Y11916500D01*
X29053793Y11954537D01*
X29194529Y12028401D01*
X29313498Y12133799D01*
X29403787Y12264605D01*
X29460149Y12413218D01*
X29464230Y12446830D01*
X29492295Y12512041D01*
X29551163Y12551728D01*
X29619467Y12553980D01*
X29629529Y12551500D01*
X29629530Y12551500D01*
X29788470Y12551500D01*
X29788471Y12551500D01*
X29942793Y12589537D01*
X30083529Y12663401D01*
X30202498Y12768799D01*
X30292787Y12899605D01*
X30349149Y13048218D01*
X30349149Y13048219D01*
X30349150Y13048221D01*
X30368307Y13205997D01*
X30368307Y13206004D01*
X30349150Y13363780D01*
X30335538Y13399669D01*
X30292787Y13512395D01*
X30202498Y13643201D01*
X30083529Y13748599D01*
X30083528Y13748600D01*
X29954660Y13816235D01*
X29903638Y13865603D01*
X29887406Y13934719D01*
X29911118Y14001639D01*
X29929657Y14022108D01*
X29948498Y14038799D01*
X30038787Y14169605D01*
X30095149Y14318218D01*
X30095149Y14318219D01*
X30095150Y14318221D01*
X30114307Y14475997D01*
X30114307Y14476004D01*
X30095150Y14633780D01*
X30081538Y14669669D01*
X30038787Y14782395D01*
X29948498Y14913201D01*
X29829529Y15018599D01*
X29829528Y15018600D01*
X29829525Y15018602D01*
X29688797Y15092461D01*
X29688795Y15092462D01*
X29688793Y15092463D01*
X29688791Y15092464D01*
X29688790Y15092464D01*
X29534472Y15130500D01*
X29534471Y15130500D01*
X29375529Y15130500D01*
X29375527Y15130500D01*
X29221209Y15092464D01*
X29221202Y15092461D01*
X29080474Y15018602D01*
X29080469Y15018598D01*
X28961501Y14913200D01*
X28871215Y14782399D01*
X28871209Y14782388D01*
X28825183Y14661030D01*
X28782324Y14604430D01*
X28715668Y14579985D01*
X28677219Y14583373D01*
X28518474Y14622500D01*
X28518471Y14622500D01*
X28359529Y14622500D01*
X28359527Y14622500D01*
X28205209Y14584464D01*
X28205202Y14584461D01*
X28064474Y14510602D01*
X28064469Y14510598D01*
X27945501Y14405200D01*
X27855215Y14274399D01*
X27855212Y14274393D01*
X27798849Y14125780D01*
X27779693Y13968004D01*
X27779693Y13967997D01*
X21605293Y13967997D01*
X21566498Y14024201D01*
X21447529Y14129599D01*
X21447528Y14129600D01*
X21447525Y14129602D01*
X21306797Y14203461D01*
X21306795Y14203462D01*
X21306793Y14203463D01*
X21306791Y14203464D01*
X21306790Y14203464D01*
X21152472Y14241500D01*
X21152471Y14241500D01*
X20993529Y14241500D01*
X20993527Y14241500D01*
X20839209Y14203464D01*
X20839202Y14203461D01*
X20698474Y14129602D01*
X20698469Y14129598D01*
X20579501Y14024200D01*
X20489215Y13893399D01*
X20489212Y13893393D01*
X20432849Y13744780D01*
X20413693Y13587004D01*
X20413693Y13586997D01*
X16755000Y13586997D01*
X16755000Y15872997D01*
X17746693Y15872997D01*
X17765849Y15715221D01*
X17822212Y15566608D01*
X17822215Y15566602D01*
X17829042Y15556712D01*
X17912502Y15435799D01*
X18031471Y15330401D01*
X18031472Y15330401D01*
X18031474Y15330399D01*
X18072630Y15308799D01*
X18172207Y15256537D01*
X18326529Y15218500D01*
X18326530Y15218500D01*
X18485470Y15218500D01*
X18485471Y15218500D01*
X18639793Y15256537D01*
X18762823Y15321109D01*
X18832435Y15335055D01*
X18898537Y15309152D01*
X18939188Y15254223D01*
X18965209Y15185613D01*
X18965212Y15185608D01*
X18965213Y15185605D01*
X19055502Y15054799D01*
X19174471Y14949401D01*
X19174472Y14949401D01*
X19174474Y14949399D01*
X19208378Y14931605D01*
X19315207Y14875537D01*
X19469529Y14837500D01*
X19469530Y14837500D01*
X19628470Y14837500D01*
X19628471Y14837500D01*
X19782793Y14875537D01*
X19923529Y14949401D01*
X20042498Y15054799D01*
X20129697Y15181130D01*
X20184855Y15225829D01*
X20255424Y15233612D01*
X20310635Y15206918D01*
X20311197Y15207732D01*
X20316449Y15204107D01*
X20316943Y15203868D01*
X20317464Y15203406D01*
X20317474Y15203399D01*
X20392200Y15164180D01*
X20458207Y15129537D01*
X20612529Y15091500D01*
X20612530Y15091500D01*
X20771470Y15091500D01*
X20771471Y15091500D01*
X20925793Y15129537D01*
X21066529Y15203401D01*
X21121452Y15252059D01*
X21185700Y15282259D01*
X21256081Y15272929D01*
X21308697Y15229324D01*
X21341502Y15181799D01*
X21460471Y15076401D01*
X21460472Y15076401D01*
X21460474Y15076399D01*
X21501626Y15054801D01*
X21601207Y15002537D01*
X21755529Y14964500D01*
X21755530Y14964500D01*
X21914470Y14964500D01*
X21914471Y14964500D01*
X22068793Y15002537D01*
X22209529Y15076401D01*
X22328498Y15181799D01*
X22367289Y15237997D01*
X31335693Y15237997D01*
X31354849Y15080221D01*
X31398737Y14964501D01*
X31411213Y14931605D01*
X31501502Y14800799D01*
X31620471Y14695401D01*
X31620472Y14695401D01*
X31620474Y14695399D01*
X31685959Y14661030D01*
X31761207Y14621537D01*
X31915529Y14583500D01*
X31915530Y14583500D01*
X32074470Y14583500D01*
X32074471Y14583500D01*
X32228793Y14621537D01*
X32369529Y14695401D01*
X32419446Y14739625D01*
X32483699Y14769825D01*
X32554080Y14760494D01*
X32586553Y14739625D01*
X32636471Y14695401D01*
X32636472Y14695401D01*
X32636474Y14695399D01*
X32701959Y14661030D01*
X32777207Y14621537D01*
X32931529Y14583500D01*
X32931530Y14583500D01*
X33090470Y14583500D01*
X33090471Y14583500D01*
X33244793Y14621537D01*
X33385529Y14695401D01*
X33504498Y14800799D01*
X33594787Y14931605D01*
X33651149Y15080218D01*
X33651149Y15080219D01*
X33651150Y15080221D01*
X33670307Y15237997D01*
X33670307Y15238004D01*
X33651150Y15395780D01*
X33626331Y15461221D01*
X33594787Y15544395D01*
X33538251Y15626302D01*
X33504499Y15675200D01*
X33494911Y15683694D01*
X33394194Y15772923D01*
X33356470Y15833065D01*
X33357250Y15904058D01*
X33374053Y15938809D01*
X33377496Y15943798D01*
X33377498Y15943799D01*
X33467787Y16074605D01*
X33524149Y16223218D01*
X33524149Y16223219D01*
X33524150Y16223221D01*
X33543307Y16380997D01*
X33543307Y16381004D01*
X33524150Y16538780D01*
X33501429Y16598689D01*
X33467787Y16687395D01*
X33377498Y16818201D01*
X33258529Y16923599D01*
X33258528Y16923600D01*
X33258525Y16923602D01*
X33117797Y16997461D01*
X33117795Y16997462D01*
X33117793Y16997463D01*
X33117791Y16997464D01*
X33117790Y16997464D01*
X32963472Y17035500D01*
X32963471Y17035500D01*
X32804529Y17035500D01*
X32804527Y17035500D01*
X32650209Y16997464D01*
X32650202Y16997461D01*
X32509474Y16923602D01*
X32509469Y16923598D01*
X32390501Y16818200D01*
X32300215Y16687399D01*
X32300212Y16687393D01*
X32243849Y16538780D01*
X32224693Y16381004D01*
X32224693Y16380997D01*
X32243849Y16223221D01*
X32287372Y16108464D01*
X32300213Y16074605D01*
X32309228Y16061544D01*
X32331465Y15994121D01*
X32313719Y15925378D01*
X32261625Y15877142D01*
X32191722Y15864727D01*
X32175380Y15867629D01*
X32074474Y15892500D01*
X32074471Y15892500D01*
X31915529Y15892500D01*
X31915527Y15892500D01*
X31761209Y15854464D01*
X31761202Y15854461D01*
X31620474Y15780602D01*
X31620469Y15780598D01*
X31501501Y15675200D01*
X31411215Y15544399D01*
X31411212Y15544393D01*
X31354849Y15395780D01*
X31335693Y15238004D01*
X31335693Y15237997D01*
X22367289Y15237997D01*
X22418787Y15312605D01*
X22475149Y15461218D01*
X22475149Y15461219D01*
X22475150Y15461221D01*
X22494307Y15618997D01*
X22494307Y15619004D01*
X22475150Y15776780D01*
X22451780Y15838401D01*
X22418787Y15925395D01*
X22328498Y16056201D01*
X22209529Y16161599D01*
X22209528Y16161600D01*
X22209525Y16161602D01*
X22068797Y16235461D01*
X22068795Y16235462D01*
X22068793Y16235463D01*
X22068791Y16235464D01*
X22068790Y16235464D01*
X21914472Y16273500D01*
X21914471Y16273500D01*
X21755529Y16273500D01*
X21755527Y16273500D01*
X21601209Y16235464D01*
X21601202Y16235461D01*
X21460474Y16161602D01*
X21460465Y16161595D01*
X21405549Y16112943D01*
X21341297Y16082742D01*
X21270916Y16092073D01*
X21218300Y16135679D01*
X21210831Y16146500D01*
X21185498Y16183201D01*
X21066529Y16288599D01*
X21066528Y16288600D01*
X21066525Y16288602D01*
X20925797Y16362461D01*
X20925795Y16362462D01*
X20925793Y16362463D01*
X20925791Y16362464D01*
X20925790Y16362464D01*
X20771472Y16400500D01*
X20771471Y16400500D01*
X20612529Y16400500D01*
X20612527Y16400500D01*
X20458209Y16362464D01*
X20458202Y16362461D01*
X20317474Y16288602D01*
X20317469Y16288598D01*
X20229307Y16210492D01*
X20198502Y16183201D01*
X20114530Y16061546D01*
X20111302Y16056870D01*
X20056143Y16012171D01*
X19985574Y16004388D01*
X19930365Y16031084D01*
X19929803Y16030268D01*
X19924540Y16033901D01*
X19924049Y16034138D01*
X19923529Y16034599D01*
X19923526Y16034601D01*
X19923525Y16034602D01*
X19782797Y16108461D01*
X19782795Y16108462D01*
X19782793Y16108463D01*
X19782791Y16108464D01*
X19782790Y16108464D01*
X19628472Y16146500D01*
X19628471Y16146500D01*
X19469529Y16146500D01*
X19469527Y16146500D01*
X19315209Y16108464D01*
X19315204Y16108462D01*
X19192175Y16043892D01*
X19122562Y16029946D01*
X19056460Y16055850D01*
X19015809Y16110780D01*
X18989787Y16179395D01*
X18899498Y16310201D01*
X18780529Y16415599D01*
X18780528Y16415600D01*
X18780525Y16415602D01*
X18639797Y16489461D01*
X18639795Y16489462D01*
X18639793Y16489463D01*
X18639791Y16489464D01*
X18639790Y16489464D01*
X18485472Y16527500D01*
X18485471Y16527500D01*
X18326529Y16527500D01*
X18326527Y16527500D01*
X18172209Y16489464D01*
X18172202Y16489461D01*
X18031474Y16415602D01*
X18031469Y16415598D01*
X17912501Y16310200D01*
X17822215Y16179399D01*
X17822212Y16179393D01*
X17765849Y16030780D01*
X17746693Y15873004D01*
X17746693Y15872997D01*
X16755000Y15872997D01*
X16755000Y16943361D01*
X16775002Y17011482D01*
X16828658Y17057975D01*
X16898932Y17068079D01*
X16939553Y17054929D01*
X16978407Y17034537D01*
X17132729Y16996500D01*
X17132730Y16996500D01*
X17291670Y16996500D01*
X17291671Y16996500D01*
X17445993Y17034537D01*
X17586729Y17108401D01*
X17625780Y17142997D01*
X27906693Y17142997D01*
X27925849Y16985221D01*
X27970497Y16867497D01*
X27982213Y16836605D01*
X28072502Y16705799D01*
X28191471Y16600401D01*
X28191472Y16600401D01*
X28191474Y16600399D01*
X28215259Y16587916D01*
X28332207Y16526537D01*
X28486529Y16488500D01*
X28486530Y16488500D01*
X28645470Y16488500D01*
X28645471Y16488500D01*
X28799793Y16526537D01*
X28940529Y16600401D01*
X29059498Y16705799D01*
X29092301Y16753324D01*
X29147457Y16798022D01*
X29218026Y16805805D01*
X29279547Y16776060D01*
X29334471Y16727401D01*
X29334473Y16727400D01*
X29334474Y16727399D01*
X29375626Y16705801D01*
X29475207Y16653537D01*
X29629529Y16615500D01*
X29629530Y16615500D01*
X29788470Y16615500D01*
X29788471Y16615500D01*
X29942793Y16653537D01*
X30083529Y16727401D01*
X30202498Y16832799D01*
X30292787Y16963605D01*
X30349149Y17112218D01*
X30349149Y17112219D01*
X30349150Y17112221D01*
X30368307Y17269997D01*
X30368307Y17270004D01*
X30349150Y17427780D01*
X30313037Y17523000D01*
X30292787Y17576395D01*
X30202498Y17707201D01*
X30083529Y17812599D01*
X30083528Y17812600D01*
X30083525Y17812602D01*
X29942797Y17886461D01*
X29942795Y17886462D01*
X29942793Y17886463D01*
X29942791Y17886464D01*
X29942790Y17886464D01*
X29788472Y17924500D01*
X29788471Y17924500D01*
X29629529Y17924500D01*
X29629527Y17924500D01*
X29475209Y17886464D01*
X29475202Y17886461D01*
X29334474Y17812602D01*
X29334469Y17812598D01*
X29215500Y17707199D01*
X29215499Y17707199D01*
X29182698Y17659678D01*
X29127539Y17614978D01*
X29056970Y17607196D01*
X28995451Y17636943D01*
X28940529Y17685599D01*
X28940526Y17685601D01*
X28940525Y17685602D01*
X28799797Y17759461D01*
X28799795Y17759462D01*
X28799793Y17759463D01*
X28799791Y17759464D01*
X28799790Y17759464D01*
X28645472Y17797500D01*
X28645471Y17797500D01*
X28486529Y17797500D01*
X28486527Y17797500D01*
X28332209Y17759464D01*
X28332202Y17759461D01*
X28191474Y17685602D01*
X28191469Y17685598D01*
X28072501Y17580200D01*
X27982215Y17449399D01*
X27982212Y17449393D01*
X27925849Y17300780D01*
X27906693Y17143004D01*
X27906693Y17142997D01*
X17625780Y17142997D01*
X17705698Y17213799D01*
X17795987Y17344605D01*
X17852349Y17493218D01*
X17852349Y17493219D01*
X17852350Y17493221D01*
X17871507Y17650997D01*
X17871507Y17651004D01*
X17852350Y17808780D01*
X17810388Y17919423D01*
X17795987Y17957395D01*
X17705698Y18088201D01*
X17586729Y18193599D01*
X17586728Y18193600D01*
X17586725Y18193602D01*
X17445997Y18267461D01*
X17445995Y18267462D01*
X17445993Y18267463D01*
X17445991Y18267464D01*
X17445990Y18267464D01*
X17291672Y18305500D01*
X17291671Y18305500D01*
X17132729Y18305500D01*
X17132727Y18305500D01*
X16978409Y18267464D01*
X16978402Y18267461D01*
X16837674Y18193602D01*
X16837669Y18193598D01*
X16718701Y18088200D01*
X16628415Y17957399D01*
X16628412Y17957393D01*
X16572049Y17808780D01*
X16552893Y17651004D01*
X16552893Y17650997D01*
X16566590Y17538187D01*
X16554945Y17468152D01*
X16507284Y17415531D01*
X16441509Y17397000D01*
X14087000Y17397000D01*
X14018879Y17417002D01*
X13972386Y17470658D01*
X13961000Y17523000D01*
X13961000Y18492500D01*
X13981002Y18560621D01*
X14034658Y18607114D01*
X14087000Y18618500D01*
X43014704Y18618500D01*
X43082825Y18598498D01*
G37*
%TD.AperFunction*%
%TA.AperFunction,Conductor*%
G36*
X7695615Y2336405D02*
G01*
X7746562Y2286959D01*
X7762688Y2217818D01*
X7756062Y2184015D01*
X7682417Y1969495D01*
X7682415Y1969486D01*
X7662477Y1850001D01*
X7662477Y1850000D01*
X8707814Y1850000D01*
X8682007Y1809844D01*
X8641500Y1671889D01*
X8641500Y1528111D01*
X8682007Y1390156D01*
X8707814Y1350000D01*
X7662477Y1350000D01*
X7682415Y1230515D01*
X7682417Y1230506D01*
X7763130Y995395D01*
X7763132Y995393D01*
X7881445Y776767D01*
X7881451Y776758D01*
X8030789Y584891D01*
X8056846Y518849D01*
X8043061Y449204D01*
X7993811Y398067D01*
X7931358Y381500D01*
X507500Y381500D01*
X439379Y401502D01*
X392886Y455158D01*
X381500Y507500D01*
X381500Y1256010D01*
X401502Y1324131D01*
X455158Y1370624D01*
X525432Y1380728D01*
X583005Y1356880D01*
X771367Y1215874D01*
X1002559Y1089634D01*
X1249364Y997580D01*
X1506758Y941588D01*
X1769500Y922796D01*
X2032242Y941588D01*
X2289636Y997580D01*
X2536441Y1089634D01*
X2725117Y1192659D01*
X2794488Y1207750D01*
X2845881Y1192660D01*
X3034559Y1089634D01*
X3281364Y997580D01*
X3538758Y941588D01*
X3801500Y922796D01*
X4064242Y941588D01*
X4321636Y997580D01*
X4568441Y1089634D01*
X4799633Y1215874D01*
X5010507Y1373732D01*
X5196768Y1559993D01*
X5354626Y1770867D01*
X5462093Y1967680D01*
X5512292Y2017878D01*
X5581666Y2032970D01*
X5626160Y2021377D01*
X5660762Y2005156D01*
X5660764Y2005156D01*
X5660767Y2005154D01*
X5927169Y1925005D01*
X6202395Y1884501D01*
X6202398Y1884500D01*
X6202401Y1884500D01*
X6410965Y1884500D01*
X6443815Y1886905D01*
X6618955Y1899723D01*
X6890497Y1960212D01*
X7150338Y2059592D01*
X7392940Y2195747D01*
X7559881Y2324656D01*
X7626023Y2350458D01*
X7695615Y2336405D01*
G37*
%TD.AperFunction*%
%TA.AperFunction,Conductor*%
G36*
X8825320Y4981298D02*
G01*
X8846294Y4964395D01*
X10592535Y3218154D01*
X10626561Y3155842D01*
X10621496Y3085027D01*
X10578949Y3028191D01*
X10512429Y3003380D01*
X10452828Y3013671D01*
X10430221Y3023587D01*
X10430217Y3023589D01*
X10189243Y3084612D01*
X10003545Y3100000D01*
X9791500Y3100000D01*
X9791500Y2100000D01*
X9291500Y2100000D01*
X9291500Y3100000D01*
X9079455Y3100000D01*
X8893756Y3084612D01*
X8652783Y3023589D01*
X8425136Y2923734D01*
X8237447Y2801112D01*
X8169478Y2780600D01*
X8101209Y2800090D01*
X8054315Y2853395D01*
X8043683Y2923591D01*
X8056474Y2964207D01*
X8095297Y3039717D01*
X8185121Y3303014D01*
X8235652Y3576584D01*
X8245813Y3854596D01*
X8215386Y4131124D01*
X8202314Y4181123D01*
X8145019Y4400279D01*
X8088515Y4533244D01*
X8036216Y4656314D01*
X7942628Y4809664D01*
X7924216Y4878228D01*
X7945796Y4945866D01*
X8000518Y4991099D01*
X8050182Y5001300D01*
X8757199Y5001300D01*
X8825320Y4981298D01*
G37*
%TD.AperFunction*%
%TA.AperFunction,Conductor*%
G36*
X9791500Y15900000D02*
G01*
X10003545Y15900000D01*
X10189243Y15915389D01*
X10430216Y15976412D01*
X10657864Y16076267D01*
X10657870Y16076271D01*
X10718085Y16115610D01*
X10786053Y16136123D01*
X10854322Y16116634D01*
X10901217Y16063329D01*
X10913000Y16010127D01*
X10913000Y15716139D01*
X10910121Y15689356D01*
X10864087Y15477739D01*
X10845296Y15215000D01*
X10864087Y14952262D01*
X10864088Y14952258D01*
X10890112Y14832624D01*
X10910121Y14740646D01*
X10913000Y14713863D01*
X10913000Y13176139D01*
X10910121Y13149356D01*
X10864087Y12937739D01*
X10845296Y12675000D01*
X10864087Y12412262D01*
X10910121Y12200646D01*
X10913000Y12173863D01*
X10913000Y10636139D01*
X10910121Y10609356D01*
X10864087Y10397739D01*
X10845296Y10135000D01*
X10864087Y9872262D01*
X10910121Y9660646D01*
X10913000Y9633863D01*
X10913000Y8096139D01*
X10910121Y8069356D01*
X10864087Y7857739D01*
X10845296Y7595000D01*
X10864087Y7332262D01*
X10864088Y7332258D01*
X10909772Y7122248D01*
X10910121Y7120646D01*
X10913000Y7093863D01*
X10913000Y6292501D01*
X10892998Y6224380D01*
X10839342Y6177887D01*
X10769068Y6167783D01*
X10704488Y6197277D01*
X10697905Y6203406D01*
X10106608Y6794703D01*
X10093067Y6810710D01*
X10091564Y6812821D01*
X10091561Y6812824D01*
X10025457Y6875854D01*
X9997859Y6903453D01*
X9997847Y6903464D01*
X9989541Y6910321D01*
X9986190Y6913295D01*
X9940535Y6956827D01*
X9940532Y6956829D01*
X9940530Y6956831D01*
X9910677Y6976016D01*
X9904625Y6980435D01*
X9891201Y6991519D01*
X9877255Y7003034D01*
X9821894Y7033264D01*
X9818026Y7035559D01*
X9780647Y7059581D01*
X9764982Y7069648D01*
X9764979Y7069649D01*
X9764978Y7069650D01*
X9732028Y7082842D01*
X9725247Y7086037D01*
X9710914Y7093863D01*
X9694098Y7103045D01*
X9634027Y7122248D01*
X9629796Y7123769D01*
X9571249Y7147207D01*
X9536392Y7153926D01*
X9529137Y7155778D01*
X9511591Y7161386D01*
X9495332Y7166584D01*
X9495328Y7166585D01*
X9432705Y7174073D01*
X9428262Y7174766D01*
X9366348Y7186699D01*
X9366343Y7186700D01*
X9366340Y7186700D01*
X9366336Y7186700D01*
X9330845Y7186700D01*
X9323360Y7187146D01*
X9308906Y7188874D01*
X9288122Y7191359D01*
X9288120Y7191359D01*
X9288119Y7191359D01*
X9225224Y7186861D01*
X9220728Y7186700D01*
X5426749Y7186700D01*
X5405855Y7188445D01*
X5403307Y7188873D01*
X5403306Y7188873D01*
X5403300Y7188874D01*
X5312020Y7186700D01*
X5272940Y7186700D01*
X5265473Y7185987D01*
X5262201Y7185675D01*
X5257740Y7185409D01*
X5194686Y7183907D01*
X5194685Y7183907D01*
X5160000Y7176363D01*
X5152593Y7175208D01*
X5117274Y7171836D01*
X5117265Y7171834D01*
X5056753Y7154067D01*
X5052395Y7152955D01*
X4990776Y7139551D01*
X4990773Y7139550D01*
X4958149Y7125579D01*
X4951096Y7123044D01*
X4917037Y7113043D01*
X4860979Y7084144D01*
X4856911Y7082227D01*
X4798946Y7057405D01*
X4798939Y7057401D01*
X4769547Y7037508D01*
X4763100Y7033683D01*
X4731560Y7017423D01*
X4731556Y7017420D01*
X4681989Y6978441D01*
X4678357Y6975789D01*
X4626131Y6940441D01*
X4626122Y6940434D01*
X4601023Y6915335D01*
X4595416Y6910359D01*
X4567524Y6888425D01*
X4567520Y6888420D01*
X4526219Y6840758D01*
X4523154Y6837467D01*
X3100794Y5415107D01*
X3084799Y5401575D01*
X3082683Y5400069D01*
X3082679Y5400065D01*
X3019647Y5333959D01*
X2992032Y5306344D01*
X2985174Y5298037D01*
X2982191Y5294676D01*
X2938671Y5249033D01*
X2919480Y5219174D01*
X2915062Y5213123D01*
X2892467Y5185757D01*
X2892464Y5185753D01*
X2862238Y5130399D01*
X2859943Y5126532D01*
X2825852Y5073484D01*
X2825851Y5073482D01*
X2812661Y5040537D01*
X2809467Y5033758D01*
X2792458Y5002607D01*
X2792456Y5002603D01*
X2779120Y4960886D01*
X2746388Y4908385D01*
X2656682Y4822220D01*
X2656680Y4822218D01*
X2508813Y4625441D01*
X2508810Y4625436D01*
X2487202Y4584266D01*
X2437833Y4533244D01*
X2368717Y4517013D01*
X2331605Y4524767D01*
X2303297Y4535325D01*
X2289636Y4540420D01*
X2080348Y4585948D01*
X2032238Y4596413D01*
X1769500Y4615204D01*
X1506761Y4596413D01*
X1249366Y4540421D01*
X1002557Y4448366D01*
X771367Y4322126D01*
X583009Y4181123D01*
X516489Y4156312D01*
X447115Y4171403D01*
X396912Y4221606D01*
X381500Y4281991D01*
X381500Y14718010D01*
X401502Y14786131D01*
X455158Y14832624D01*
X525432Y14842728D01*
X583005Y14818880D01*
X771367Y14677874D01*
X1002559Y14551634D01*
X1249364Y14459580D01*
X1506758Y14403588D01*
X1769500Y14384796D01*
X2032242Y14403588D01*
X2289636Y14459580D01*
X2536441Y14551634D01*
X2725117Y14654659D01*
X2794488Y14669750D01*
X2845881Y14654660D01*
X3034559Y14551634D01*
X3281364Y14459580D01*
X3538758Y14403588D01*
X3801500Y14384796D01*
X4064242Y14403588D01*
X4321636Y14459580D01*
X4446908Y14506306D01*
X4517723Y14511371D01*
X4580036Y14477346D01*
X4606905Y14437529D01*
X4646783Y14343687D01*
X4646784Y14343686D01*
X4791708Y14106219D01*
X4969663Y13892383D01*
X5176857Y13706737D01*
X5408873Y13553237D01*
X5660767Y13435154D01*
X5927169Y13355005D01*
X6202395Y13314501D01*
X6202398Y13314500D01*
X6202401Y13314500D01*
X6410965Y13314500D01*
X6443815Y13316905D01*
X6618955Y13329723D01*
X6890497Y13390212D01*
X7150338Y13489592D01*
X7392940Y13625747D01*
X7613132Y13795774D01*
X7806222Y13996049D01*
X7968093Y14222304D01*
X8095297Y14469717D01*
X8185121Y14733014D01*
X8235652Y15006584D01*
X8245813Y15284596D01*
X8215386Y15561124D01*
X8145020Y15830276D01*
X8054748Y16042703D01*
X8046516Y16113218D01*
X8077714Y16176993D01*
X8138439Y16213776D01*
X8209410Y16211890D01*
X8239628Y16197463D01*
X8425129Y16076271D01*
X8425135Y16076267D01*
X8652784Y15976412D01*
X8652782Y15976412D01*
X8893756Y15915389D01*
X9079455Y15900000D01*
X9291500Y15900000D01*
X9291500Y16900000D01*
X9791500Y16900000D01*
X9791500Y15900000D01*
G37*
%TD.AperFunction*%
%TA.AperFunction,Conductor*%
G36*
X7999479Y18598498D02*
G01*
X8045972Y18544842D01*
X8056076Y18474568D01*
X8030789Y18415109D01*
X7881451Y18223243D01*
X7881445Y18223234D01*
X7763132Y18004608D01*
X7763130Y18004606D01*
X7682417Y17769495D01*
X7682415Y17769486D01*
X7662477Y17650001D01*
X7662477Y17650000D01*
X8707814Y17650000D01*
X8682007Y17609844D01*
X8641500Y17471889D01*
X8641500Y17328111D01*
X8682007Y17190156D01*
X8707814Y17150000D01*
X7662477Y17150000D01*
X7682415Y17030515D01*
X7682417Y17030506D01*
X7755953Y16816303D01*
X7759153Y16745378D01*
X7723501Y16683983D01*
X7660315Y16651609D01*
X7589657Y16658534D01*
X7552699Y16681549D01*
X7506143Y16723263D01*
X7274127Y16876763D01*
X7022234Y16994846D01*
X6903675Y17030515D01*
X6755831Y17074995D01*
X6755826Y17074996D01*
X6755822Y17074997D01*
X6480603Y17115500D01*
X6480599Y17115500D01*
X6272037Y17115500D01*
X6272035Y17115500D01*
X6064041Y17100277D01*
X5792509Y17039790D01*
X5792497Y17039786D01*
X5618636Y16973290D01*
X5547865Y16967637D01*
X5485272Y17001144D01*
X5463039Y17030588D01*
X5354626Y17229133D01*
X5196768Y17440007D01*
X5196766Y17440009D01*
X5196758Y17440018D01*
X5010517Y17626259D01*
X5010508Y17626267D01*
X5005524Y17629998D01*
X4799633Y17784126D01*
X4615482Y17884680D01*
X4568442Y17910366D01*
X4321633Y18002421D01*
X4064238Y18058413D01*
X3801500Y18077204D01*
X3538761Y18058413D01*
X3281366Y18002421D01*
X3034557Y17910366D01*
X2845885Y17807343D01*
X2776511Y17792252D01*
X2725115Y17807343D01*
X2536442Y17910366D01*
X2289633Y18002421D01*
X2032238Y18058413D01*
X1769500Y18077204D01*
X1506761Y18058413D01*
X1249366Y18002421D01*
X1002557Y17910366D01*
X846134Y17824952D01*
X771367Y17784126D01*
X592196Y17650000D01*
X583009Y17643123D01*
X516489Y17618312D01*
X447115Y17633403D01*
X396912Y17683606D01*
X381500Y17743991D01*
X381500Y18492500D01*
X401502Y18560621D01*
X455158Y18607114D01*
X507500Y18618500D01*
X7931358Y18618500D01*
X7999479Y18598498D01*
G37*
%TD.AperFunction*%
%TA.AperFunction,Conductor*%
G36*
X18971426Y3486659D02*
G01*
X19418203Y3302563D01*
X19424546Y3296243D01*
X19424563Y3296203D01*
X19608653Y2849439D01*
X19608636Y2840485D01*
X19602292Y2834164D01*
X19601740Y2833953D01*
X18775734Y2541477D01*
X18766792Y2541946D01*
X18763556Y2544233D01*
X18666232Y2641557D01*
X18662805Y2649830D01*
X18663474Y2653730D01*
X18955952Y3479742D01*
X18961944Y3486396D01*
X18970886Y3486865D01*
X18971426Y3486659D01*
G37*
%TD.AperFunction*%
%TA.AperFunction,Conductor*%
G36*
X3878833Y4415573D02*
G01*
X3880965Y4412650D01*
X4557899Y3095999D01*
X4558634Y3087074D01*
X4552844Y3080244D01*
X4551983Y3079845D01*
X3805989Y2769866D01*
X3797035Y2769856D01*
X3797011Y2769866D01*
X3266666Y2990237D01*
X3051015Y3079846D01*
X3044691Y3086184D01*
X3044701Y3095138D01*
X3045090Y3095980D01*
X3722035Y4412651D01*
X3728865Y4418440D01*
X3732440Y4419000D01*
X3870560Y4419000D01*
X3878833Y4415573D01*
G37*
%TD.AperFunction*%
M02*
