M48
; DRILL file {KiCad 7.0.9-7.0.9~ubuntu22.04.1} date 19.01.2024 (пт) 15:32:08
; FORMAT={-:-/ absolute / inch / decimal}
; #@! TF.CreationDate,2024-01-19T15:32:08+02:00
; #@! TF.GenerationSoftware,Kicad,Pcbnew,7.0.9-7.0.9~ubuntu22.04.1
; #@! TF.FileFunction,Plated,1,4,PTH
FMAT,2
INCH
; #@! TA.AperFunction,Plated,PTH,ViaDrill
T1C0.0157
; #@! TA.AperFunction,Plated,PTH,ViaDrill
T2C0.0236
; #@! TA.AperFunction,Plated,PTH,ComponentDrill
T3C0.0276
; #@! TA.AperFunction,Plated,PTH,ComponentDrill
T4C0.0394
; #@! TA.AperFunction,Plated,PTH,ComponentDrill
T5C0.0433
; #@! TA.AperFunction,Plated,PTH,ComponentDrill
T6C0.0472
%
G90
G05
T1
X0.6776Y0.6949
X0.7046Y0.5299
X0.7046Y0.4899
X0.7246Y0.6249
X0.7296Y0.2649
X0.7296Y0.2249
X0.7696Y0.6099
X0.7754Y0.3599
X0.7996Y0.5749
X0.8146Y0.6199
X0.8296Y0.5349
X0.8396Y0.6999
X0.8596Y0.6149
X0.8675Y0.1921
X0.8946Y0.7149
X0.9096Y0.5199
X0.9796Y0.1749
X0.9796Y0.1399
X1.0196Y0.5699
X1.0646Y0.1549
X1.1196Y0.5499
X1.1246Y0.6749
X1.1346Y0.4949
X1.1446Y0.1999
X1.1596Y0.5699
X1.1696Y0.6799
X1.1696Y0.5199
X1.1896Y0.6399
X1.2446Y0.1999
X1.2596Y0.5999
X1.2746Y0.3949
X1.2946Y0.6449
X1.2996Y0.5999
X1.3096Y0.2549
X1.3496Y0.3699
X1.3496Y0.2849
X1.5596Y0.4742
X1.6646Y0.3999
X1.7646Y0.4099
X1.7646Y0.3699
X1.8896Y0.4649
X1.8921Y0.2999
X1.8936Y0.5315
X1.8946Y0.2199
T2
X0.0546Y0.5499
X0.0546Y0.4199
X0.0546Y0.2999
X0.1496Y0.4199
X0.2596Y0.3099
X0.3496Y0.1649
X0.3696Y0.4299
X0.3696Y0.3099
X0.7596Y0.0399
X0.7646Y0.1299
X0.8346Y0.0849
X0.9046Y0.0399
X1.1646Y0.2403
X1.2746Y0.4599
X1.3146Y0.4949
X1.3696Y0.4899
X1.3696Y0.4449
X1.4846Y0.6799
X1.5046Y0.5299
X1.6046Y0.5049
X1.6046Y0.4149
X1.6496Y0.2099
X1.6596Y0.3349
X1.6646Y0.2499
X1.6946Y0.5899
X1.7006Y0.694
X1.7196Y0.6449
X1.7696Y0.5199
X1.8446Y0.0449
X1.9196Y0.3949
X1.9196Y0.3449
X1.9685Y0.689
T3
X0.9554Y0.421
X0.9554Y0.2951
X1.0813Y0.421
X1.0813Y0.2951
T5
X0.0697Y0.639
X0.0697Y0.109
X0.1497Y0.639
X0.1497Y0.109
X0.4997Y0.599
X0.4997Y0.499
X0.4997Y0.399
X0.4997Y0.299
X0.4997Y0.199
X0.5997Y0.549
X0.5997Y0.449
X0.5997Y0.349
X0.5997Y0.249
X0.5997Y0.149
T6
X1.0183Y0.3581
T4
G00X0.3914Y0.685
M15
G01X0.3599Y0.685
M16
G05
G00X0.3914Y0.063
M15
G01X0.3599Y0.063
M16
G05
G00X1.9665Y0.6043
M15
G01X1.9075Y0.6043
M16
G05
G00X1.9665Y0.1437
M15
G01X1.9075Y0.1437
M16
G05
T0
M30
